<?xml version="1.0" encoding="UTF-8"?>
<svg id="Layer_2" data-name="Layer 2" xmlns="http://www.w3.org/2000/svg" viewBox="0 0 850 850">
  <defs>
    <style>
      .twilio_cls-1 {
        fill: #26261A;
      }

      .twilio_cls-2 {
        fill: #BCBBA7;
      }
    </style>
  </defs>
  <g id="Layer_1-2" data-name="Layer 1">
    <g>
      <rect class="twilio_cls-1" style="fill:#26261A !important;" width="850" height="850" rx="72.61" ry="72.61"/>
      <g>
        <path class="twilio_cls-2" style="fill:#BCBBA7 !important;" d="m425,571.14c-80.71,0-146.14-65.43-146.14-146.14s65.43-146.14,146.14-146.14,146.14,65.43,146.14,146.14-65.43,146.14-146.14,146.14h0Zm0-344.57c-109.59,0-198.44,88.84-198.44,198.44s88.84,198.43,198.44,198.43,198.43-88.84,198.43-198.43-88.84-198.44-198.44-198.44h0Z"/>
        <path class="twilio_cls-2" style="fill:#BCBBA7 !important;" d="m433.16,375.58c0-22.79,18.47-41.26,41.26-41.26s41.26,18.47,41.26,41.26-18.47,41.26-41.26,41.26-41.26-18.47-41.26-41.26m0,98.84c0-22.79,18.47-41.26,41.26-41.26s41.26,18.47,41.26,41.26-18.47,41.26-41.26,41.26-41.26-18.47-41.26-41.26m-98.84,0c0-22.79,18.47-41.26,41.26-41.26s41.26,18.47,41.26,41.26-18.47,41.26-41.26,41.26-41.26-18.47-41.26-41.26m0-98.84c0-22.79,18.47-41.26,41.26-41.26s41.26,18.47,41.26,41.26-18.47,41.26-41.26,41.26-41.26-18.47-41.26-41.26"/>
      </g>
    </g>
  </g>
</svg>