<?xml version="1.0" encoding="UTF-8"?>
<svg id="Layer_2" data-name="Layer 2" xmlns="http://www.w3.org/2000/svg" viewBox="0 0 850 850">
  <defs>
    <style>
      .cls-1 {
        fill: #fff;
      }

      .cls-2 {
        fill: #9ea700;
      }

      .cls-3 {
        fill: #5c5f66;
      }

      .cls-4 {
        fill: #b6bd40;
      }

      .cls-5 {
        fill: #d8dc99;
      }

      .cls-6 {
        fill: #868e00;
      }

      .cls-7 {
        fill: #c2c68a;
      }
    </style>
  </defs>
  <g id="Layer_1-2" data-name="Layer 1">
    <g>
      <rect class="cls-1" width="850" height="850" rx="72.61" ry="72.61"/>
      <g>
        <path class="cls-6" d="m191.57,380.71v.36c0,38.5,32.26,69.83,70.76,69.83h3.36c7.72,0,13.97-6.25,13.97-13.97,0-7.72-6.25-13.97-13.97-13.97h-3.36c-18.62,0-35.19-12.29-40.63-29.12,1.09.19,2.22.2,3.33.34,2.73.56,5.55.85,8.44.85,23.1,0,41.9-18.79,41.9-41.9s-18.79-41.9-41.9-41.9c-18.18,0-33.54,11.71-39.33,27.93-1.57-4.39-2.57-9.05-2.57-13.97,0-7.72-6.25-13.97-13.97-13.97s-13.97,6.25-13.97,13.97c0,22.72,11.08,42.75,27.93,55.51Zm55.87-27.58c0,7.71-6.26,13.97-13.97,13.97s-13.97-6.26-13.97-13.97c0-7.71,6.26-13.97,13.97-13.97s13.97,6.26,13.97,13.97Z"/>
        <path class="cls-4" d="m248.37,465.8c0,41.9,20.39,81.84,55.87,110.61v56.98c0,7.82,6.14,13.97,13.97,13.97h55.87c7.82,0,13.97-6.15,13.97-13.97v-18.16c13.97,2.79,27.93,4.19,41.9,4.19s27.93-1.4,41.9-4.19v18.16c0,7.82,6.14,13.97,13.97,13.97h55.87c7.82,0,13.97-6.15,13.97-13.97v-56.98c14.53-11.73,27.47-25.7,36.69-40.78h6.14c23.19,0,41.9-18.72,41.9-41.9v-27.93c0-20.67-15.08-37.71-34.64-41.34-3.07-9.22-7.54-18.15-13.13-27.37l43.02-43.02c5.31-5.59,5.31-14.25,0-19.83-35.48-35.2-91.16-37.99-129.98-7.82-24.02-9.5-49.44-14.25-75.7-14.25-100,0-181.56,68.99-181.56,153.63Z"/>
        <path class="cls-2" d="m429.93,312.17v307.26c-13.97,0-27.93-1.4-41.9-4.19v18.16c0,7.82-6.14,13.97-13.97,13.97h-55.87c-7.82,0-13.97-6.15-13.97-13.97v-56.98c-35.48-28.77-55.87-68.71-55.87-110.61,0-84.64,81.56-153.63,181.56-153.63Z"/>
        <path class="cls-3" d="m527.7,437.07c0-7.72,6.38-14.1,14.1-14.1s14.1,6.38,14.1,14.1c0,7.72-6.38,14.1-14.1,14.1s-14.1-6.38-14.1-14.1Zm0,0h.27s-.27,0-.27,0Zm13.83,0h.27s-.27,0-.27,0Z"/>
        <path class="cls-5" d="m360.1,240.47c0-38.5,31.33-69.83,69.83-69.83s69.83,31.33,69.83,69.83c0,38.5-31.33,69.83-69.83,69.83s-69.83-31.33-69.83-69.83Z"/>
        <path class="cls-7" d="m429.93,310.3v-139.66c-38.5,0-69.83,31.33-69.83,69.83,0,38.5,31.33,69.83,69.83,69.83Z"/>
      </g>
    </g>
  </g>
</svg>