<svg xmlns="http://www.w3.org/2000/svg" viewBox="0 0 850 850">
    <defs>
        <style>.sign_cls-1{fill:#26261A;}.sign_cls-2{fill:#BCBBA7;}</style>
    </defs>
    <g id="Layer_2" data-name="Layer 2">
        <g id="Layer_1-2" data-name="Layer 1">
            <rect class="sign_cls-1" style="fill:#26261A !important;" width="850" height="850" rx="72.61"/>
            <path class="sign_cls-2" style="fill:#BCBBA7 !important;"
                  d="M364.23,576.94c-31.72,0-50.65-35.77-50.65-95.7,0-45,13.78-90.25,40.62-120.65C345.6,349.76,336.72,344,329.86,344c-48.45,0-67.73,57.76-67.92,58.34a20.26,20.26,0,1,1-38.54-12.49c1.14-3.52,28.89-86.36,106.46-86.36,20.76,0,40.23,12,56.08,32a105.15,105.15,0,0,1,49.19-11.71c17.95,0,36.43,7.42,51.19,21.75,15.61-12.87,34.85-14.34,50.1-6.49,12-31.78,34.93-65.9,70.92-65.9a20.26,20.26,0,0,1,0,40.52c-21.37,0-40.52,54.54-40.52,70.9a20.26,20.26,0,0,1-40.52,0c-.59-3.43-7-10.13-10.13-10.13-1.62,0-4.52,1.87-7.63,5.73C513.37,393,516.17,408,516.17,425c0,18.18,0,60.78-30.39,60.78S455.39,441.62,455.39,425c0-17.3,2.84-32.49,7.63-45.25-7.63-10.27-17.79-15.53-27.89-15.53a65.34,65.34,0,0,0-28.6,6.3C418.1,397.2,425,429.85,425,464.64,425,542.22,394.47,576.94,364.23,576.94Zm10.59-176.18c-14.62,24-20.72,55.48-20.72,80.48,0,35.71,7.62,50.86,11,54.73,4.5-3,19.41-20.66,19.41-71.33,0-24.65-3.83-46.14-9.67-63.88Z"/>
        </g>
    </g>
</svg>