<svg height="512pt" viewBox="-66 0 512 512" width="512pt" xmlns="http://www.w3.org/2000/svg"><path d="m364.246094 512h-349.246094c-8.285156 0-15-6.714844-15-15v-482c0-8.285156 6.714844-15 15-15h239.414062c3.976563 0 7.792969 1.582031 10.609376 4.394531l109.828124 109.832031c2.816407 2.8125 4.394532 6.628907 4.394532 10.605469v372.167969c0 8.285156-6.714844 15-15 15zm0 0" fill="#dfeefa"/><path d="m265.023438 4.394531c-2.816407-2.8125-6.628907-4.394531-10.609376-4.394531h-64.789062v512h174.621094c8.285156 0 15-6.714844 15-15v-372.167969c0-3.976562-1.582032-7.792969-4.394532-10.605469zm0 0" fill="#c9dff7"/><path d="m374.851562 114.226562-109.828124-109.832031c-2.816407-2.8125-6.628907-4.394531-10.609376-4.394531v109.832031c0 8.285157 6.714844 15 15 15h109.832032c0-3.976562-1.578125-7.792969-4.394532-10.605469zm0 0" fill="#91b6e3"/><path d="m189.78125 261c-11.34375 0-20.570312-9.230469-20.570312-20.570312v-13.730469c0-5.726563 2.367187-11.335938 6.5-15.390625 3.972656-3.894532 9.101562-5.984375 14.476562-5.878906 11.121094.210937 20.167969 9.4375 20.167969 20.566406 0 8.285156 6.714843 15 15 15 8.28125 0 15-6.714844 15-15 0-22.484375-15.035157-41.800782-35.574219-48.261719v-28.738281c0-8.285156-6.714844-15-15-15-8.28125 0-15 6.714844-15 15v28.753906c-7.425781 2.359375-14.292969 6.46875-20.078125 12.144531-9.847656 9.660157-15.492187 23.074219-15.492187 36.804688v13.730469c0 27.882812 22.683593 50.570312 50.574218 50.570312 11.34375 0 20.570313 9.226562 20.570313 20.566406v13.730469c0 5.726563-2.371094 11.335937-6.503907 15.390625-3.875 3.804688-8.871093 5.882812-14.097656 5.882812-.125 0-.253906 0-.378906-.003906-11.117188-.210937-20.164062-9.4375-20.164062-20.566406 0-8.285156-6.71875-15-15.003907-15-8.28125 0-15 6.714844-15 15 0 13.335938 5.148438 25.921875 14.492188 35.433594 5.949219 6.0625 13.179687 10.429687 21.082031 12.875v28.699218c0 8.285157 6.714844 15 15 15s15-6.714843 15-15v-28.761718c7.433594-2.359375 14.292969-6.464844 20.078125-12.144532 9.847656-9.65625 15.492187-23.074218 15.492187-36.804687v-13.726563c.003907-27.886718-22.683593-50.570312-50.570312-50.570312zm0 0" fill="#7e9bcc"/><g fill="#416191"><path d="m204.78125 403.003906v-28.757812c7.433594-2.359375 14.292969-6.464844 20.082031-12.144532 9.847657-9.660156 15.492188-23.074218 15.492188-36.804687v-13.730469c0-27.882812-22.6875-50.566406-50.574219-50.566406-.054688 0-.105469-.007812-.15625-.007812v30.003906c.054688 0 .105469.003906.160156.003906 11.34375 0 20.570313 9.226562 20.570313 20.566406v13.730469c0 5.726563-2.371094 11.335937-6.503907 15.390625-3.875 3.804688-8.871093 5.882812-14.097656 5.882812-.042968 0-.085937 0-.128906 0v71.429688c.050781 0 .101562.007812.15625.007812 8.285156-.003906 15-6.71875 15-15.003906zm0 0"/><path d="m204.78125 177.734375v-28.738281c0-8.28125-6.714844-15-15-15-.050781 0-.105469.007812-.15625.007812v71.441406c.1875 0 .375-.019531.566406-.015624 11.117188.210937 20.164063 9.4375 20.164063 20.566406 0 8.285156 6.714843 15 15 15 8.285156 0 15-6.714844 15-15 0-22.484375-15.035157-41.800782-35.574219-48.261719zm0 0"/></g></svg>