<svg height="512" viewBox="0 0 24 24" width="512" xmlns="http://www.w3.org/2000/svg"><g id="Flat_Color" data-name="Flat Color"><path d="m5 6a2 2 0 0 0 -2 2.12l.64 10.13a4 4 0 0 0 4 3.75h8.74a4 4 0 0 0 4-3.75l.62-10.13a2 2 0 0 0 -2-2.12z" fill="#20bf55"/><path d="m16 10a1 1 0 0 1 -1-1v-2a3 3 0 0 0 -6 0v2a1 1 0 0 1 -2 0v-2a5 5 0 0 1 10 0v2a1 1 0 0 1 -1 1z" fill="#109138"/><path d="m10.73 17.52a1 1 0 0 1 -.7-.28l-1.7-1.68a1 1 0 0 1 1.4-1.42l1 1 2.89-2.84a1 1 0 0 1 1.38 1.41l-3.59 3.53a1 1 0 0 1 -.68.28z" fill="#edebea"/></g></svg>