<?xml version="1.0" encoding="UTF-8"?>
<svg width="850" height="850" viewBox="0 0 850 850" fill="none" xmlns="http://www.w3.org/2000/svg">
    <defs>
        <style>
            .path-1 { fill: #ccc !important; }
            .path-4 { fill: #999 !important; }
            .path-6 { fill: #777 !important; }
        </style>
    </defs>
    <g clip-path="url(#clip0_7386_4868)">
        <path class="bg-shape" d="M777.39 0H72.61C32.5086 0 0 32.5086 0 72.61V777.39C0 817.491 32.5086 850 72.61 850H777.39C817.491 850 850 817.491 850 777.39V72.61C850 32.5086 817.491 0 777.39 0Z" fill="#26261A"/>
        <g clip-path="url(#clip1_7386_4868)">
            <path class="path-1" d="M382.053 162.824L379.244 164.523C374.776 167.226 370.568 170.247 366.64 173.549L374.741 167.85H443.5L456 262.501L393.5 325.001L331 368.443V418.537C331 453.524 349.286 485.968 379.218 504.086L445.014 543.912L306 625.003H279.189L229.217 594.756C199.286 576.638 181 544.194 181 509.207V340.758C181 305.759 199.297 273.307 229.244 255.193L379.244 164.462C380.174 163.899 381.11 163.354 382.053 162.824Z" fill="url(#paint0_radial_7386_4868)"/>
            <path class="path-2" d="M382.053 162.824L379.244 164.523C374.776 167.226 370.568 170.247 366.64 173.549L374.741 167.85H443.5L456 262.501L393.5 325.001L331 368.443V418.537C331 453.524 349.286 485.968 379.218 504.086L445.014 543.912L306 625.003H279.189L229.217 594.756C199.286 576.638 181 544.194 181 509.207V340.758C181 305.759 199.297 273.307 229.244 255.193L379.244 164.462C380.174 163.899 381.11 163.354 382.053 162.824Z" fill="url(#paint1_linear_7386_4868)"/>
            <path class="path-3" d="M531 362.5V418.504C531 453.491 512.713 485.935 482.782 504.052L332.782 594.847C302.097 613.421 263.918 614.091 232.693 596.859L379.216 685.55C411.048 704.819 450.948 704.819 482.782 685.55L632.782 594.754C662.713 576.636 680.998 544.192 680.998 509.205V468.75L668.498 450L531 362.5Z" fill="url(#paint2_radial_7386_4868)"/>
            <path class="path-4" d="M531 362.5V418.504C531 453.491 512.713 485.935 482.782 504.052L332.782 594.847C302.097 613.421 263.918 614.091 232.693 596.859L379.216 685.55C411.048 704.819 450.948 704.819 482.782 685.55L632.782 594.754C662.713 576.636 680.998 544.192 680.998 509.205V468.75L668.498 450L531 362.5Z" fill="url(#paint3_linear_7386_4868)"/>
            <path class="path-5" d="M632.756 255.19L482.756 164.459C451.922 145.808 413.526 145.23 382.224 162.725L379.244 164.528C349.298 182.642 331 215.094 331 250.093V368.642L379.244 339.459C411.064 320.213 450.936 320.213 482.756 339.459L632.756 430.19C661.766 447.739 679.845 478.742 680.946 512.48C680.983 511.39 681 510.299 681 509.204V340.755C681 305.757 662.702 273.304 632.756 255.19Z" fill="url(#paint4_radial_7386_4868)"/>
            <path class="path-6" d="M632.756 255.19L482.756 164.459C451.922 145.808 413.526 145.23 382.224 162.725L379.244 164.528C349.298 182.642 331 215.094 331 250.093V368.642L379.244 339.459C411.064 320.213 450.936 320.213 482.756 339.459L632.756 430.19C661.766 447.739 679.845 478.742 680.946 512.48C680.983 511.39 681 510.299 681 509.204V340.755C681 305.757 662.702 273.304 632.756 255.19Z" fill="url(#paint5_linear_7386_4868)"/>
        </g>
    </g>
<!--<defs>-->
<!--&lt;!&ndash;<radialGradient id="paint0_radial_7386_4868" cx="0" cy="0" r="1" gradientUnits="userSpaceOnUse" gradientTransform="translate(348.733 257.979) rotate(110.528) scale(417.071 727.457)">&ndash;&gt;-->
<!--&lt;!&ndash;<stop offset="0.06441" stop-color="#AE7FE2"/>&ndash;&gt;-->
<!--&lt;!&ndash;<stop offset="1" stop-color="#0078D4"/>&ndash;&gt;-->
<!--&lt;!&ndash;</radialGradient>&ndash;&gt;-->
<!--<linearGradient id="paint1_linear_7386_4868" x1="349.899" y1="598.357" x2="290.391" y2="495.434" gradientUnits="userSpaceOnUse">-->
<!--<stop stop-color="#969686"/>-->
<!--<stop offset="1" stop-color="#D7D6CA"/>-->
<!--</linearGradient>-->
<!--&lt;!&ndash;<radialGradient id="paint2_radial_7386_4868" cx="0" cy="0" r="1" gradientUnits="userSpaceOnUse" gradientTransform="translate(261.373 579.389) rotate(-8.36717) scale(388.129 256.385)">&ndash;&gt;-->
<!--&lt;!&ndash;<stop offset="0.133928" stop-color="#D59DFF"/>&ndash;&gt;-->
<!--&lt;!&ndash;<stop offset="1" stop-color="#5E438F"/>&ndash;&gt;-->
<!--&lt;!&ndash;</radialGradient>&ndash;&gt;-->
<!--<linearGradient id="paint3_linear_7386_4868" x1="592" y1="450" x2="516" y2="630" gradientUnits="userSpaceOnUse">-->
<!--<stop stop-color="#A8A894"/>-->
<!--<stop offset="1" stop-color="#D7D6CA"/>-->
<!--</linearGradient>-->
<!--&lt;!&ndash;<radialGradient id="paint4_radial_7386_4868" cx="0" cy="0" r="1" gradientUnits="userSpaceOnUse" gradientTransform="translate(644.19 456.299) rotate(-165.772) scale(311.535 524.44)">&ndash;&gt;-->
<!--&lt;!&ndash;<stop offset="0.0584996" stop-color="#9EA700"/>&ndash;&gt;-->
<!--&lt;!&ndash;<stop offset="1" stop-color="#26261A"/>&ndash;&gt;-->
<!--&lt;!&ndash;</radialGradient>&ndash;&gt;-->
<!--<linearGradient id="paint5_linear_7386_4868" x1="343.197" y1="163.206" x2="588" y2="238" gradientUnits="userSpaceOnUse">-->
<!--<stop stop-color="#A8A894"/>-->
<!--<stop offset="1" stop-color="#D7D6CA"/>-->
<!--</linearGradient>-->
<!--&lt;!&ndash;<clipPath id="clip0_7386_4868">&ndash;&gt;-->
<!--&lt;!&ndash;<rect width="850" height="850" rx="35" fill="white"/>&ndash;&gt;-->
<!--&lt;!&ndash;</clipPath>&ndash;&gt;-->
<!--&lt;!&ndash;<clipPath id="clip1_7386_4868">&ndash;&gt;-->
<!--&lt;!&ndash;<rect width="500" height="550" fill="white" transform="translate(181 150)"/>&ndash;&gt;-->
<!--&lt;!&ndash;</clipPath>&ndash;&gt;-->
<!--</defs>-->
</svg>
