<svg xmlns="http://www.w3.org/2000/svg" viewBox="0 0 850 850">
    <defs>
        <style>
            .spreadsheet_cls-1{fill:#26261A;}.spreadsheet_cls-2{fill:#969686;}.spreadsheet_cls-2,.spreadsheet_cls-3,.spreadsheet_cls-4{fill-rule:evenodd;}.spreadsheet_cls-3{fill:#BCBBA7;}.spreadsheet_cls-4,.spreadsheet_cls-5{fill:#717064;}
        </style>
    </defs>
    <g id="Layer_2" data-name="Layer 2">
        <g id="Layer_1-2" data-name="Layer 1">
            <rect class="spreadsheet_cls-1" style="fill:#26261A !important;" width="850" height="850" rx="72.61"/>
            <path class="spreadsheet_cls-2" style="fill:#969686 !important;"
                  d="M443.68,253.6a37.95,37.95,0,0,0-37.95-37.94H253.93A37.93,37.93,0,0,0,216,253.6V405.39a37.93,37.93,0,0,0,37.94,37.95H443.68Z"/>
            <path class="spreadsheet_cls-3" style="fill:#BCBBA7 !important;" d="M444.25,444.55H254.46V596.38a38,38,0,0,0,38,38H444.25Z"/>
            <path class="spreadsheet_cls-3" style="fill:#BCBBA7 !important;" d="M634,292.75a38,38,0,0,0-38-38H444.22V444.58H634Z"/>
            <path class="spreadsheet_cls-2" style="fill:#969686 !important;" d="M634,444.55H444.22V634.34H596.05a38,38,0,0,0,38-38Z"/>
            <path class="spreadsheet_cls-4" style="fill:#717064 !important;"
                  d="M364.07,269.13,269.2,364A18.94,18.94,0,0,0,296,390.84L390.83,296a18.95,18.95,0,1,0-26.76-26.83Z"/>
            <circle class="spreadsheet_cls-5" style="fill:#717064 !important;" cx="367.96" cy="367.93" r="18.98"/>
            <circle class="spreadsheet_cls-5" style="fill:#717064 !important;" cx="292.06" cy="292.03" r="18.98"/>
        </g>
    </g>
</svg>