<svg width="534" height="107" viewBox="0 0 534 107" fill="none" xmlns="http://www.w3.org/2000/svg">
<path d="M0 60.3875C0 44.959 11.2862 33.0929 26.7506 33.0929C40.0759 33.0929 48.638 41.7982 50.9721 49.9036L39.8809 54.3554C38.2265 48.3233 33.5581 44.2679 26.9456 44.2679C18.7734 44.2679 12.3558 50.6 12.3558 60.2911C12.3558 69.9822 18.7734 76.3143 27.0457 76.3143C33.6583 76.3143 38.5268 72.259 40.176 66.3232L51.2672 70.8715C48.933 78.784 40.3709 87.4893 26.7559 87.4893C11.4811 87.4893 0 75.8161 0 60.3875Z" fill="#9EA700"/>
<path d="M145.329 60.2857C145.329 44.6589 156.615 32.9911 172.665 32.9911C188.714 32.9911 200 44.6643 200 60.2857C200 75.9072 188.619 87.4839 172.665 87.4839C156.71 87.4839 145.329 75.8107 145.329 60.2857ZM187.544 60.1893C187.544 50.8947 181.611 44.2679 172.759 44.2679C163.907 44.2679 157.68 50.8947 157.68 60.2911C157.68 69.6875 163.807 76.3143 172.759 76.3143C181.711 76.3143 187.544 69.5911 187.544 60.1947V60.1893Z" fill="#9EA700"/>
<path d="M102.919 34.175L83.3659 86.2947L76.7533 104H64.5925L71.5949 86.2947H67.7012L49.6075 34.175H62.3531L75.5836 76.2072L90.0785 34.175H102.919Z" fill="#9EA700"/>
<path d="M80.6997 70.8661H71.9901V77.4339H80.6997V70.8661Z" fill="#9EA700"/>
<path d="M106.128 22.6679V86.3H118.484V14L106.128 22.6679Z" fill="#9EA700"/>
<path d="M127.04 22.6679V86.3H139.396V14L127.04 22.6679Z" fill="#9EA700"/>
<path d="M216.949 15.3418H230.436V44.9946C231.253 43.6021 232.237 42.3608 233.387 41.271C234.568 40.1812 235.854 39.2729 237.247 38.5464C238.67 37.7896 240.153 37.2144 241.697 36.8208C243.271 36.4272 244.846 36.2305 246.42 36.2305C250.144 36.2305 253.368 36.9419 256.092 38.3647C258.817 39.7573 261.072 41.6343 262.858 43.9956C264.645 46.3267 265.961 49.021 266.809 52.0786C267.687 55.1362 268.126 58.2998 268.126 61.5693C268.126 64.96 267.672 68.1992 266.764 71.2871C265.855 74.375 264.493 77.0845 262.677 79.4155C260.891 81.7466 258.666 83.6084 256.001 85.001C253.368 86.3633 250.31 87.0444 246.829 87.0444C245.133 87.0444 243.453 86.8628 241.788 86.4995C240.153 86.1665 238.609 85.6367 237.156 84.9102C235.733 84.1836 234.432 83.2754 233.251 82.1855C232.101 81.0654 231.162 79.7637 230.436 78.2803V86H216.949V15.3418ZM242.424 76.5093C244.755 76.5093 246.692 76.1006 248.236 75.2832C249.78 74.4355 251.006 73.3154 251.915 71.9229C252.853 70.5 253.504 68.8804 253.867 67.064C254.261 65.2173 254.458 63.2798 254.458 61.2515C254.458 59.314 254.23 57.4673 253.776 55.7114C253.322 53.9253 252.596 52.3662 251.597 51.0342C250.598 49.6719 249.311 48.5972 247.737 47.8101C246.193 46.9927 244.331 46.584 242.151 46.584C239.881 46.584 237.974 47.0078 236.43 47.8555C234.886 48.7031 233.629 49.8384 232.661 51.2612C231.722 52.6538 231.041 54.2583 230.617 56.0747C230.193 57.8608 229.981 59.7227 229.981 61.6602C229.981 63.749 230.208 65.7017 230.663 67.5181C231.147 69.3345 231.889 70.9087 232.888 72.2407C233.917 73.5728 235.219 74.6172 236.793 75.374C238.367 76.1309 240.244 76.5093 242.424 76.5093ZM309.268 78.3711C308.48 79.8545 307.512 81.1562 306.361 82.2764C305.241 83.3662 303.985 84.2593 302.592 84.9556C301.23 85.6519 299.762 86.1665 298.188 86.4995C296.613 86.8628 295.009 87.0444 293.374 87.0444C290.559 87.0444 288.106 86.5903 286.018 85.6821C283.959 84.7437 282.233 83.457 280.841 81.8223C279.479 80.1875 278.464 78.25 277.798 76.0098C277.132 73.7695 276.799 71.3325 276.799 68.6987V37.3657H290.195V66.8369C290.195 68.2598 290.347 69.5767 290.649 70.7876C290.952 71.9683 291.437 72.9976 292.103 73.8755C292.799 74.7231 293.692 75.3892 294.782 75.8735C295.902 76.3579 297.249 76.6001 298.823 76.6001C302.032 76.6001 304.575 75.6465 306.452 73.7393C308.329 71.832 309.268 69.2285 309.268 65.9287V37.3657H322.664V86H309.268V78.3711ZM334.924 37.4565H348.32V86H334.924V37.4565ZM333.925 23.2886C333.925 22.229 334.122 21.2603 334.516 20.3823C334.909 19.4741 335.454 18.7021 336.15 18.0664C336.847 17.4307 337.649 16.9463 338.557 16.6133C339.496 16.25 340.495 16.0684 341.554 16.0684C342.614 16.0684 343.613 16.25 344.551 16.6133C345.49 16.9766 346.307 17.4912 347.003 18.1572C347.7 18.793 348.245 19.5649 348.638 20.4731C349.062 21.3511 349.274 22.335 349.274 23.4248C349.274 24.5146 349.062 25.5137 348.638 26.4219C348.245 27.2998 347.7 28.0566 347.003 28.6924C346.307 29.3281 345.49 29.8276 344.551 30.1909C343.643 30.5542 342.674 30.7358 341.645 30.7358C340.585 30.7358 339.586 30.5542 338.648 30.1909C337.709 29.8276 336.892 29.313 336.196 28.647C335.5 27.981 334.939 27.1938 334.516 26.2856C334.122 25.3774 333.925 24.3784 333.925 23.2886ZM361.081 19.02L374.477 13.1621V86H361.081V19.02ZM421.567 77.917C420.84 79.3701 419.887 80.6567 418.706 81.7769C417.525 82.897 416.224 83.8506 414.801 84.6377C413.378 85.4248 411.864 86.0151 410.26 86.4087C408.686 86.8325 407.096 87.0444 405.492 87.0444C401.798 87.0444 398.589 86.3633 395.865 85.001C393.17 83.6084 390.93 81.7617 389.144 79.4609C387.388 77.1299 386.071 74.4658 385.193 71.4688C384.346 68.4414 383.922 65.3081 383.922 62.0688C383.922 58.6479 384.376 55.3936 385.284 52.3057C386.223 49.1875 387.6 46.4326 389.417 44.041C391.263 41.6494 393.534 39.7573 396.228 38.3647C398.953 36.9419 402.101 36.2305 405.673 36.2305C408.943 36.2305 412 36.9116 414.846 38.2739C417.692 39.606 419.932 41.7251 421.567 44.6313V15.3418H434.963V86H421.567V77.917ZM409.669 76.5093C411.94 76.5093 413.847 76.1006 415.391 75.2832C416.965 74.4355 418.237 73.3154 419.206 71.9229C420.174 70.5 420.871 68.8804 421.294 67.064C421.718 65.2173 421.93 63.2949 421.93 61.2969C421.93 59.2988 421.703 57.4067 421.249 55.6206C420.825 53.8345 420.129 52.2754 419.16 50.9434C418.222 49.5811 416.98 48.5215 415.437 47.7646C413.893 46.9775 412 46.584 409.76 46.584C407.429 46.584 405.477 47.0078 403.902 47.8555C402.358 48.7031 401.117 49.8535 400.179 51.3066C399.271 52.7295 398.62 54.3794 398.226 56.2563C397.863 58.103 397.681 60.0557 397.681 62.1143C397.681 64.0215 397.893 65.853 398.317 67.6089C398.771 69.3345 399.467 70.8633 400.406 72.1953C401.375 73.4971 402.616 74.5415 404.129 75.3286C405.643 76.1157 407.49 76.5093 409.669 76.5093ZM491.544 75.6011C490.605 77.7808 489.334 79.6123 487.729 81.0957C486.155 82.5488 484.384 83.7295 482.417 84.6377C480.479 85.5156 478.42 86.1362 476.241 86.4995C474.091 86.8628 471.972 87.0444 469.883 87.0444C465.857 87.0444 462.239 86.4541 459.03 85.2734C455.852 84.0625 453.142 82.3521 450.902 80.1421C448.692 77.9019 446.997 75.2227 445.816 72.1045C444.635 68.9561 444.045 65.4292 444.045 61.5239C444.045 57.8911 444.65 54.5308 445.861 51.4429C447.103 48.3247 448.828 45.6455 451.038 43.4053C453.278 41.165 455.927 39.4092 458.985 38.1377C462.073 36.8662 465.463 36.2305 469.157 36.2305C471.518 36.2305 473.789 36.5029 475.968 37.0479C478.178 37.5928 480.222 38.4253 482.099 39.5454C484.006 40.6353 485.686 42.0127 487.139 43.6777C488.623 45.3125 489.818 47.25 490.727 49.4902C491.756 52.0029 492.346 54.5308 492.498 57.0737C492.679 59.5864 492.77 62.1294 492.77 64.7026H457.713C457.804 66.5796 458.107 68.3052 458.622 69.8794C459.167 71.4233 459.923 72.7705 460.892 73.9209C461.891 75.041 463.117 75.9189 464.57 76.5547C466.054 77.1602 467.794 77.4629 469.792 77.4629C472.457 77.4629 474.772 77.0391 476.74 76.1914C478.708 75.3135 480.328 73.6484 481.599 71.1963L491.544 75.6011ZM479.646 56.438C479.465 53.1079 478.542 50.459 476.876 48.4912C475.211 46.5234 472.699 45.5396 469.338 45.5396C467.583 45.5396 466.039 45.812 464.707 46.3569C463.375 46.9019 462.239 47.6587 461.301 48.6274C460.362 49.5962 459.605 50.7466 459.03 52.0786C458.485 53.4106 458.107 54.8638 457.895 56.438H479.646ZM501.58 37.3657H515.066V46.6748C516.701 43.2842 518.79 40.7715 521.333 39.1367C523.876 37.4717 527.024 36.6392 530.778 36.6392V49.1724C528.568 49.1724 526.51 49.354 524.603 49.7173C522.695 50.0503 521.03 50.686 519.607 51.6245C518.215 52.5327 517.11 53.8042 516.292 55.439C515.475 57.0435 515.066 59.1021 515.066 61.6147V86H501.58V37.3657Z" fill="#9EA700"/>
</svg>
