<?xml version="1.0" encoding="UTF-8"?>
<svg id="Layer_2" data-name="Layer 2" xmlns="http://www.w3.org/2000/svg" xmlns:xlink="http://www.w3.org/1999/xlink" viewBox="0 0 850 850">
  <defs>
    <style>
      .cls-1 {
        fill: url(#linear-gradient-2);
      }

      .cls-2 {
        fill: #fff;
      }

      .cls-3 {
        fill: #bbc14d;
      }

      .cls-4 {
        fill: #9ea700;
      }

      .cls-5 {
        fill: url(#linear-gradient-3);
      }

      .cls-6 {
        fill: url(#linear-gradient);
      }
    </style>
    <linearGradient id="linear-gradient" x1="57.7" y1="-12425.54" x2="380.3" y2="-12102.94" gradientTransform="translate(206 -11839.24) scale(1 -1)" gradientUnits="userSpaceOnUse">
      <stop offset="0" stop-color="#ffd600"/>
      <stop offset=".5" stop-color="#ff0100"/>
      <stop offset="1" stop-color="#d800b9"/>
    </linearGradient>
    <linearGradient id="linear-gradient-2" x1="148.62" y1="-12334.63" x2="289.38" y2="-12193.86" gradientTransform="translate(206 -11839.24) scale(1 -1)" gradientUnits="userSpaceOnUse">
      <stop offset="0" stop-color="#ff6400"/>
      <stop offset=".5" stop-color="#ff0100"/>
      <stop offset="1" stop-color="#fd0056"/>
    </linearGradient>
    <linearGradient id="linear-gradient-3" x1="306.02" y1="-12177.22" x2="338.92" y2="-12144.33" gradientTransform="translate(206 -11839.24) scale(1 -1)" gradientUnits="userSpaceOnUse">
      <stop offset="0" stop-color="#f30072"/>
      <stop offset="1" stop-color="#e50097"/>
    </linearGradient>
  </defs>
  <g id="Layer_1-2" data-name="Layer 1">
    <g>
      <g>
        <path class="cls-3" d="m658.71,335.7c0,36.6-13.64,70.12-42.93,105.46-26.21,31.62-63.86,63.71-107.47,100.87-14.9,12.69-31.79,27.09-49.31,42.42-4.59,4.02-10.47,6.25-16.58,6.28h-.15c-6.16,0-12.1-2.23-16.73-6.29-17.49-15.29-34.35-29.67-49.22-42.35l-.08-.06c-43.6-37.16-81.27-69.26-107.47-100.88-29.29-35.33-42.93-68.85-42.93-105.46s12.2-68.38,34.34-92.4c22.41-24.31,53.16-37.69,86.59-37.69,24.99,0,47.87,7.89,68.02,23.47,10.17,7.87,19.38,17.48,27.49,28.72l.15-.2c8.08-11.15,17.24-20.7,27.35-28.51,20.14-15.58,43.03-23.47,68.01-23.47,33.43,0,64.18,13.38,86.59,37.69,22.14,24.02,34.34,56.83,34.34,92.4Z"/>
        <path class="cls-4" d="m666.16,331.3c0,36.6-13.64,70.12-42.93,105.46-26.21,31.62-63.86,63.71-107.47,100.87-14.9,12.69-31.79,27.09-49.31,42.42-4.59,4.02-10.47,6.25-16.58,6.28V253.2c8.08-11.15,17.24-20.7,27.35-28.51,20.14-15.58,43.03-23.47,68.01-23.47,33.43,0,64.18,13.38,86.59,37.69,22.14,24.02,34.34,56.83,34.34,92.4Z"/>
      </g>
      <rect class="cls-2" width="850" height="850" rx="72.61" ry="72.61"/>
      <g>
        <path class="cls-6" d="m617.67,345.08c-.94-20.63-4.22-34.72-9.01-47.05-4.87-12.93-12.5-24.65-22.36-34.33-9.68-9.86-21.4-17.49-34.33-22.36-12.33-4.79-26.42-8.06-47.05-9-20.67-.95-27.28-1.17-79.92-1.17s-59.25.22-79.92,1.17c-20.63.94-34.72,4.22-47.05,9.01-12.93,4.87-24.65,12.5-34.33,22.36-9.86,9.68-17.49,21.4-22.36,34.33-4.79,12.33-8.06,26.42-9,47.05-.95,20.67-1.17,27.28-1.17,79.92s.22,59.25,1.17,79.92c.94,20.63,4.22,34.72,9.01,47.05,4.87,12.93,12.5,24.65,22.36,34.33,9.68,9.86,21.4,17.49,34.33,22.36,12.33,4.79,26.42,8.07,47.05,9.01,20.67.94,27.28,1.17,79.92,1.17s59.25-.22,79.92-1.17c20.63-.94,34.72-4.22,47.05-9.01,26.04-10.07,46.62-30.65,56.69-56.69,4.79-12.33,8.07-26.42,9.01-47.05.94-20.67,1.17-27.28,1.17-79.92s-.22-59.25-1.17-79.92Zm-34.89,158.24c-.86,18.9-4.02,29.16-6.67,35.99-6.52,16.91-19.88,30.27-36.79,36.79-6.83,2.65-17.09,5.81-35.99,6.67-20.43.93-26.57,1.13-78.33,1.13s-57.89-.2-78.33-1.13c-18.9-.86-29.16-4.02-35.99-6.67-8.42-3.11-16.03-8.06-22.29-14.5-6.44-6.25-11.39-13.87-14.5-22.29-2.65-6.83-5.81-17.09-6.67-35.99-.93-20.44-1.13-26.57-1.13-78.33s.2-57.89,1.13-78.33c.86-18.9,4.02-29.16,6.67-35.99,3.11-8.42,8.07-16.04,14.5-22.29,6.25-6.44,13.87-11.39,22.29-14.5,6.83-2.66,17.09-5.81,35.99-6.68,20.44-.93,26.57-1.13,78.33-1.13h0c51.76,0,57.89.2,78.33,1.13,18.9.86,29.16,4.02,35.99,6.67,8.42,3.11,16.03,8.06,22.29,14.5,6.44,6.25,11.39,13.87,14.5,22.29,2.66,6.83,5.81,17.09,6.68,35.99.93,20.44,1.13,26.57,1.13,78.33s-.2,57.89-1.13,78.33Z"/>
        <path class="cls-1" d="m425,325.46c-54.97,0-99.53,44.57-99.53,99.54s44.56,99.53,99.53,99.53,99.54-44.56,99.54-99.53-44.56-99.54-99.54-99.54Zm0,164.15c-35.68,0-64.61-28.93-64.61-64.61,0-35.68,28.93-64.61,64.61-64.61,35.68,0,64.61,28.93,64.61,64.61s-28.93,64.61-64.61,64.61Z"/>
        <path class="cls-5" d="m551.73,321.53c0,12.85-10.41,23.26-23.26,23.26s-23.26-10.41-23.26-23.26,10.41-23.26,23.26-23.26,23.26,10.41,23.26,23.26Z"/>
      </g>
    </g>
  </g>
</svg>