<svg width="60" height="60" viewBox="0 0 60 60" fill="none" xmlns="http://www.w3.org/2000/svg">
<circle cx="30" cy="30" r="30" fill="#9EA700"/>
<path d="M18.4162 21.2714L18.4166 21.2717C19.3203 21.7725 19.9716 22.4177 20.4772 23.3274L18.4162 21.2714ZM18.4162 21.2714C18.1561 21.1277 17.8769 20.9967 17.5765 20.875M18.4162 21.2714L17.5765 20.875M17.5765 20.875C17.8769 20.7533 18.1561 20.6223 18.4162 20.4786L18.4166 20.4783C19.3205 19.9774 19.9717 19.3314 20.4772 18.4226C20.6213 18.1635 20.7528 17.8846 20.875 17.5839C20.9971 17.8845 21.1286 18.1634 21.2727 18.4224L17.5765 20.875ZM24.1736 20.875C23.8733 20.7532 23.5942 20.6223 23.3343 20.4784L23.3343 20.4784C22.4298 19.9776 21.7785 19.3323 21.2728 18.4226L24.1736 20.875ZM24.1736 20.875C23.8733 20.9968 23.5942 21.1277 23.3343 21.2716L23.3343 21.2716C22.4296 21.7725 21.7785 22.4185 21.2722 23.3271L21.2718 23.3279C21.1281 23.5867 20.9969 23.8654 20.8749 24.1659C20.7528 23.8654 20.6213 23.5866 20.4773 23.3276L24.1736 20.875ZM17.5765 33.625C17.8769 33.7467 18.1561 33.8777 18.4162 34.0214L18.4166 34.0217C19.3203 34.5225 19.9716 35.1677 20.4772 36.0774L17.5765 33.625ZM17.5765 33.625C17.8769 33.5033 18.1561 33.3723 18.4162 33.2286L18.4166 33.2283C19.3205 32.7274 19.9717 32.0814 20.4772 31.1726C20.6213 30.9135 20.7528 30.6346 20.875 30.3339C20.9971 30.6345 21.1286 30.9134 21.2727 31.1724L17.5765 33.625ZM30.3264 20.875C30.6267 20.9968 30.9058 21.1277 31.1657 21.2716L31.1657 21.2716C32.0704 21.7725 32.7215 22.4185 33.2278 23.3271L33.2282 23.3279C33.3719 23.5867 33.5031 23.8654 33.6251 24.1659C33.7472 23.8654 33.8787 23.5866 34.0227 23.3276C34.5284 22.4177 35.1798 21.7725 36.0843 21.2716L36.0843 21.2716C36.3442 21.1277 36.6233 20.9968 36.9236 20.875C36.6233 20.7532 36.3442 20.6223 36.0843 20.4784L36.0843 20.4784C35.1796 19.9775 34.5285 19.3315 34.0222 18.4229L34.0218 18.4221C33.8781 18.1633 33.7469 17.8846 33.6249 17.5841C33.5028 17.8847 33.3713 18.1635 33.2272 18.4226M30.3264 20.875C30.6267 20.7532 30.9058 20.6223 31.1657 20.4784L31.1657 20.4784C32.0702 19.9776 32.7215 19.3323 33.2272 18.4226M30.3264 20.875C30.0977 20.7823 29.8567 20.6949 29.6026 20.6113M30.3264 20.875L29.6026 20.6113M33.2272 18.4226L32.7913 18.1801L33.2273 18.4224C33.2273 18.4224 33.2272 18.4225 33.2272 18.4226ZM29.6026 20.6113C30.103 20.4394 30.5394 20.2537 30.9235 20.041C31.747 19.585 32.3305 19.0068 32.7902 18.1795C33.003 17.797 33.1896 17.3612 33.3613 16.8599L29.6026 20.6113ZM23.3343 33.2284L23.3343 33.2284C22.4298 32.7276 21.7785 32.0823 21.2728 31.1726L23.3343 33.2284ZM23.3343 33.2284C23.5942 33.3723 23.8733 33.5032 24.1736 33.625C23.8733 33.7468 23.5942 33.8777 23.3343 34.0216L23.3343 34.0216M23.3343 33.2284L23.3343 34.0216M23.3343 34.0216C22.4296 34.5225 21.7785 35.1686 21.2722 36.0771L21.2718 36.0779C21.1281 36.3367 20.9969 36.6154 20.8749 36.9159M23.3343 34.0216L20.8749 36.9159M20.8749 36.9159C20.7528 36.6154 20.6213 36.3366 20.4773 36.0776L20.8749 36.9159ZM24.9141 28.4497C24.9141 28.4497 24.9141 28.4497 24.9141 28.4497L38.5206 42.0569L38.5303 42.0667L38.7027 42.2391C38.7028 42.2392 38.7028 42.2392 38.7028 42.2392C38.8903 42.4266 39.1446 42.5319 39.4097 42.5319C39.6749 42.5319 39.9292 42.4266 40.1167 42.2392L40.1167 42.2391M24.9141 28.4497L40.4702 42.5928L40.1167 42.2391M24.9141 28.4497C24.7266 28.2622 24.6213 28.0079 24.6213 27.7428C24.6213 27.4776 24.7266 27.2233 24.9141 27.0358C24.9141 27.0358 24.9141 27.0358 24.9141 27.0358L27.0357 24.9141M24.9141 28.4497L27.0357 24.9141M40.1167 42.2391L42.2384 40.1175M40.1167 42.2391L42.2384 40.1175M42.2384 40.1175C42.2384 40.1175 42.2384 40.1175 42.2384 40.1174C42.4259 39.9299 42.5312 39.6756 42.5312 39.4105C42.5312 39.1454 42.4259 38.8911 42.2384 38.7035L42.2384 40.1175ZM27.0357 24.9141C27.0358 24.9141 27.0358 24.9141 27.0358 24.9141L27.0357 24.9141ZM19.3489 20.4732L18.8065 20.8749L19.3488 21.2767C19.5584 21.4321 19.7568 21.6021 19.9422 21.7856C20.1343 21.9769 20.312 22.1822 20.4738 22.3997L20.8751 22.9391L21.2763 22.3996C21.594 21.9721 21.9731 21.5938 22.4011 21.2768L22.9436 20.875L22.4011 20.4732C21.9731 20.1562 21.594 19.7779 21.2763 19.3504L20.875 18.8107L20.4737 19.3504C20.156 19.7779 19.7769 20.1562 19.3489 20.4732ZM19.3489 33.2232L18.8065 33.6249L19.3488 34.0267C19.5584 34.182 19.7567 34.3521 19.9422 34.5355C20.1343 34.7269 20.312 34.9321 20.4738 35.1497L20.8751 35.6891L21.2763 35.1496C21.594 34.7221 21.9731 34.3438 22.4011 34.0268L22.9436 33.625L22.4011 33.2232C21.9731 32.9062 21.594 32.5279 21.2763 32.1004L20.875 31.5607L20.4737 32.1004C20.156 32.5279 19.7769 32.9062 19.3489 33.2232ZM32.0989 20.4732L31.5564 20.875L32.0989 21.2768C32.5269 21.5938 32.906 21.9721 33.2237 22.3996L33.625 22.9393L34.0263 22.3996C34.344 21.9721 34.7231 21.5938 35.1511 21.2768L35.6936 20.875L35.1511 20.4732C34.7231 20.1562 34.344 19.7779 34.0263 19.3504L33.625 18.8107L33.2237 19.3504C32.906 19.7779 32.5269 20.1562 32.0989 20.4732ZM25.2674 27.3892L24.9138 27.7428L25.2675 28.0963L28.1085 30.9366L28.462 31.2901L28.8156 30.9366L30.9366 28.8156L31.2901 28.462L30.9366 28.1085L28.0963 25.2675L27.7428 24.9138L27.3892 25.2674L25.2674 27.3892Z" stroke="white"/>
</svg>
