<svg width="34" height="34" viewBox="0 0 34 34" fill="none" xmlns="http://www.w3.org/2000/svg">
<path d="M17 2.125C8.7125 2.125 2.125 8.7125 2.125 17C2.125 25.2875 8.7125 31.875 17 31.875C25.2875 31.875 31.875 25.2875 31.875 17C31.875 8.7125 25.2875 2.125 17 2.125ZM17 29.75C9.9875 29.75 4.25 24.0125 4.25 17C4.25 9.9875 9.9875 4.25 17 4.25C24.0125 4.25 29.75 9.9875 29.75 17C29.75 24.0125 24.0125 29.75 17 29.75Z" fill="#9EA700"/>
<path d="M22.7375 24.4375L17 18.7L11.2625 24.4375L9.5625 22.7375L15.3 17L9.5625 11.2625L11.2625 9.5625L17 15.3L22.7375 9.5625L24.4375 11.2625L18.7 17L24.4375 22.7375L22.7375 24.4375Z" fill="#9EA700"/>
</svg>
