<svg width="55" height="25" viewBox="0 0 55 25" fill="none" xmlns="http://www.w3.org/2000/svg">
<path d="M0 12.6132C0 8.4185 3.05597 5.19238 7.24331 5.19238C10.8514 5.19238 13.1698 7.55917 13.8018 9.76283L10.7986 10.9732C10.3506 9.33317 9.0866 8.23061 7.2961 8.23061C5.0833 8.23061 3.34559 9.95218 3.34559 12.587C3.34559 15.2217 5.0833 16.9433 7.32321 16.9433C9.11371 16.9433 10.432 15.8407 10.8785 14.227L13.8817 15.4635C13.2497 17.6147 10.9313 19.9815 7.24474 19.9815C3.10876 19.9801 0 16.8079 0 12.6132Z" fill="#9EA700"/>
<path d="M39.351 12.5856C39.351 8.33702 42.4069 5.16479 46.7526 5.16479C51.0983 5.16479 54.1543 8.33848 54.1543 12.5856C54.1543 16.8327 51.0727 19.9802 46.7526 19.9802C42.4326 19.9802 39.351 16.8065 39.351 12.5856ZM50.7816 12.5594C50.7816 10.0324 49.1752 8.2307 46.7783 8.2307C44.3815 8.2307 42.6951 10.0324 42.6951 12.587C42.6951 15.1417 44.3544 16.9434 46.7783 16.9434C49.2023 16.9434 50.7816 15.1155 50.7816 12.5608V12.5594Z" fill="#9EA700"/>
<path d="M27.8673 5.48633L22.5728 19.6565L20.7823 24.4702H17.4895L19.3856 19.6565H18.3313L13.432 5.48633H16.8832L20.4656 16.9139L24.3904 5.48633H27.8673Z" fill="#9EA700"/>
<path d="M21.8483 15.4609H19.49V17.2466H21.8483V15.4609Z" fill="#9EA700"/>
<path d="M28.7368 2.35659V19.6567H32.0824V0L28.7368 2.35659Z" fill="#9EA700"/>
<path d="M34.3999 2.35659V19.6567H37.7455V0L34.3999 2.35659Z" fill="#9EA700"/>
</svg>
