<svg width="19" height="17" viewBox="0 0 19 17" fill="none" xmlns="http://www.w3.org/2000/svg">
<path fill-rule="evenodd" clip-rule="evenodd" d="M7.36284 1.54707e-07H10.8295C12.1821 -8.30683e-06 13.2537 -1.68515e-05 14.1077 0.101251C14.9862 0.205438 15.7081 0.4235 16.3267 0.910783C16.7507 1.24477 17.1158 1.65674 17.4078 2.12593C17.8267 2.79891 18.0133 3.57785 18.1035 4.54073C18.1923 5.48905 18.1923 6.68411 18.1923 8.21666V8.28334C18.1923 9.81589 18.1923 11.0109 18.1035 11.9593C18.0133 12.9221 17.8267 13.7011 17.4078 14.374C17.1158 14.8432 16.7507 15.2552 16.3267 15.5892C15.7081 16.0765 14.9862 16.2946 14.1077 16.3987C13.2537 16.5 12.1821 16.5 10.8294 16.5H7.36286C6.01026 16.5 4.93862 16.5 4.08461 16.3987C3.20604 16.2946 2.4842 16.0765 1.8656 15.5892C1.44163 15.2552 1.07648 14.8432 0.784452 14.374C0.365581 13.7011 0.179063 12.9221 0.0888463 11.9593C-8.2839e-06 11.0109 -8.29878e-06 9.81589 1.62754e-07 8.28342V8.21658C-8.29878e-06 6.68411 -8.2839e-06 5.48905 0.0888463 4.54073C0.179063 3.57785 0.365581 2.79891 0.784452 2.12593C1.07648 1.65674 1.44163 1.24477 1.8656 0.910783C2.4842 0.4235 3.20604 0.205438 4.08461 0.101251C4.93862 -1.68515e-05 6.01025 -8.30683e-06 7.36284 1.54707e-07ZM4.23407 1.36166C3.47941 1.45115 3.01585 1.62042 2.65101 1.90782C2.34729 2.14707 2.07952 2.44714 1.86201 2.79661C1.59226 3.23 1.43448 3.78463 1.35254 4.65913C1.26988 5.54132 1.26923 6.677 1.26923 8.25C1.26923 9.823 1.26988 10.9587 1.35254 11.8409C1.43448 12.7154 1.59226 13.27 1.86201 13.7034C2.07952 14.0528 2.34729 14.3529 2.65101 14.5922C3.01585 14.8796 3.47941 15.0488 4.23407 15.1384C5.00468 15.2298 6.00108 15.2308 7.40385 15.2308H10.7885C12.1912 15.2308 13.1876 15.2298 13.9582 15.1384C14.7129 15.0488 15.1764 14.8796 15.5413 14.5922C15.845 14.3529 16.1128 14.0528 16.3303 13.7034C16.6 13.27 16.7578 12.7154 16.8397 11.8409C16.9224 10.9587 16.9231 9.823 16.9231 8.25C16.9231 6.677 16.9224 5.54132 16.8397 4.65913C16.7578 3.78463 16.6 3.23 16.3303 2.79661C16.1128 2.44714 15.845 2.14707 15.5413 1.90782C15.1764 1.62042 14.7129 1.45115 13.9582 1.36166C13.1876 1.27027 12.1912 1.26923 10.7885 1.26923H7.40385C6.00108 1.26923 5.00468 1.27027 4.23407 1.36166Z" fill="#F0F0F0"/>
<path fill-rule="evenodd" clip-rule="evenodd" d="M6.34595 15.8652V0.634399H7.61518V15.8652H6.34595Z" fill="#F0F0F0"/>
<path fill-rule="evenodd" clip-rule="evenodd" d="M2.53857 4.01938C2.53857 3.6689 2.8227 3.38477 3.17319 3.38477H4.01934C4.36983 3.38477 4.65396 3.6689 4.65396 4.01938C4.65396 4.36987 4.36983 4.654 4.01934 4.654H3.17319C2.8227 4.654 2.53857 4.36987 2.53857 4.01938ZM2.53857 6.55784C2.53857 6.20736 2.8227 5.92323 3.17319 5.92323H4.01934C4.36983 5.92323 4.65396 6.20736 4.65396 6.55784C4.65396 6.90832 4.36983 7.19246 4.01934 7.19246H3.17319C2.8227 7.19246 2.53857 6.90832 2.53857 6.55784Z" fill="#F0F0F0"/>
</svg>
