<svg width="20" height="20" viewBox="0 0 20 20" fill="none" xmlns="http://www.w3.org/2000/svg">
<g clip-path="url(#clip0_211_28)">
<path d="M17.9167 7.50008V15.8334M4.58333 7.50008V15.8334M2.08333 7.50008V15.8334M15.4167 7.50008V15.8334M1.66667 17.5001H18.3333M0 19.5834H20M10 9.16675H9.16667C8.94565 9.16675 8.73369 9.25455 8.57741 9.41083C8.42113 9.56711 8.33333 9.77907 8.33333 10.0001V10.3126C8.33333 10.4929 8.39181 10.6683 8.5 10.8126C8.60818 10.9568 8.76024 11.0621 8.93333 11.1126L11.0667 11.7351C11.2398 11.7856 11.3918 11.8908 11.5 12.0351C11.6082 12.1793 11.6667 12.3548 11.6667 12.5351V13.3334C11.6667 13.5544 11.5789 13.7664 11.4226 13.9227C11.2663 14.079 11.0543 14.1667 10.8333 14.1667H10M10 9.16675H10.8333C11.0543 9.16675 11.2663 9.25455 11.4226 9.41083C11.5789 9.56711 11.6667 9.77907 11.6667 10.0001V10.4167M10 9.16675V7.50008M10 14.1667H9.16667C8.94565 14.1667 8.73369 14.079 8.57741 13.9227C8.42113 13.7664 8.33333 13.5544 8.33333 13.3334V12.9167M10 14.1667V15.8334M19.5833 5.20841V5.83341H0.416667V5.20841C4.58333 3.75008 7.08333 2.50008 9.79167 0.416748H10.2083C12.9167 2.50008 15.4167 3.75008 19.5833 5.20841Z" stroke="#00E007"/>
</g>
<defs>
<clipPath id="clip0_211_28">
<rect width="20" height="20" fill="white"/>
</clipPath>
</defs>
</svg>
