<svg width="20" height="20" viewBox="0 0 20 20" fill="none" xmlns="http://www.w3.org/2000/svg">
<path d="M6.875 16.25V18.75M3.125 1.25H10.625C10.9565 1.25 11.2745 1.3817 11.5089 1.61612C11.7433 1.85054 11.875 2.16848 11.875 2.5V18.5938C11.875 18.6352 11.8585 18.6749 11.8292 18.7042C11.7999 18.7335 11.7602 18.75 11.7188 18.75H1.875V2.5C1.875 2.16848 2.0067 1.85054 2.24112 1.61612C2.47554 1.3817 2.79348 1.25 3.125 1.25ZM12.5 7.5H16.875C17.2065 7.5 17.5245 7.6317 17.7589 7.86612C17.9933 8.10054 18.125 8.41848 18.125 8.75V18.75H11.875V8.125C11.875 7.95924 11.9408 7.80027 12.0581 7.68306C12.1753 7.56585 12.3342 7.5 12.5 7.5Z" stroke="#FF9500" stroke-linecap="round" stroke-linejoin="round"/>
<path d="M3.83105 16.87C3.70161 16.8869 3.57012 16.8629 3.45503 16.8013C3.33993 16.7396 3.24703 16.6435 3.18934 16.5264C3.13165 16.4093 3.11208 16.2771 3.13337 16.1483C3.15466 16.0195 3.21575 15.9006 3.30806 15.8083C3.40037 15.716 3.51926 15.6549 3.64806 15.6336C3.77686 15.6123 3.90909 15.6319 4.02619 15.6896C4.1433 15.7473 4.2394 15.8402 4.30101 15.9553C4.36262 16.0704 4.38665 16.2019 4.36972 16.3313C4.35186 16.4679 4.28936 16.5948 4.19194 16.6922C4.09453 16.7896 3.96765 16.8521 3.83105 16.87ZM3.83105 13.745C3.70161 13.7619 3.57012 13.7379 3.45503 13.6763C3.33993 13.6146 3.24703 13.5185 3.18934 13.4014C3.13165 13.2843 3.11208 13.1521 3.13337 13.0233C3.15466 12.8945 3.21575 12.7756 3.30806 12.6833C3.40037 12.591 3.51926 12.5299 3.64806 12.5086C3.77686 12.4873 3.90909 12.5069 4.02619 12.5646C4.1433 12.6223 4.2394 12.7152 4.30101 12.8303C4.36262 12.9454 4.38665 13.0769 4.36972 13.2063C4.35186 13.3429 4.28936 13.4698 4.19194 13.5672C4.09453 13.6646 3.96765 13.7271 3.83105 13.745ZM3.83105 10.62C3.70161 10.6369 3.57012 10.6129 3.45503 10.5513C3.33993 10.4896 3.24703 10.3935 3.18934 10.2764C3.13165 10.1593 3.11208 10.0271 3.13337 9.8983C3.15466 9.76951 3.21575 9.65061 3.30806 9.5583C3.40037 9.46599 3.51926 9.40491 3.64806 9.38362C3.77686 9.36232 3.90909 9.38189 4.02619 9.43958C4.1433 9.49727 4.2394 9.59018 4.30101 9.70527C4.36262 9.82036 4.38665 9.95185 4.36972 10.0813C4.35186 10.2179 4.28936 10.3448 4.19194 10.4422C4.09453 10.5396 3.96765 10.6021 3.83105 10.62ZM3.83105 7.49497C3.70161 7.5119 3.57012 7.48787 3.45503 7.42626C3.33993 7.36465 3.24703 7.26854 3.18934 7.15144C3.13165 7.03433 3.11208 6.9021 3.13337 6.7733C3.15466 6.64451 3.21575 6.52561 3.30806 6.4333C3.40037 6.341 3.51926 6.27991 3.64806 6.25862C3.77686 6.23732 3.90909 6.25689 4.02619 6.31458C4.1433 6.37227 4.2394 6.46518 4.30101 6.58027C4.36262 6.69536 4.38665 6.82685 4.36972 6.9563C4.35186 7.0929 4.28936 7.21977 4.19194 7.31719C4.09453 7.4146 3.96765 7.4771 3.83105 7.49497ZM3.83105 4.36997C3.70161 4.3869 3.57012 4.36287 3.45503 4.30126C3.33993 4.23965 3.24703 4.14354 3.18934 4.02644C3.13165 3.90933 3.11208 3.7771 3.13337 3.6483C3.15466 3.51951 3.21575 3.40061 3.30806 3.3083C3.40037 3.21599 3.51926 3.15491 3.64806 3.13361C3.77686 3.11232 3.90909 3.13189 4.02619 3.18958C4.1433 3.24727 4.2394 3.34018 4.30101 3.45527C4.36262 3.57036 4.38665 3.70185 4.36972 3.8313C4.35186 3.9679 4.28936 4.09477 4.19194 4.19219C4.09453 4.2896 3.96765 4.3521 3.83105 4.36997ZM6.95605 13.745C6.82661 13.7619 6.69512 13.7379 6.58003 13.6763C6.46494 13.6146 6.37203 13.5185 6.31434 13.4014C6.25665 13.2843 6.23708 13.1521 6.25837 13.0233C6.27966 12.8945 6.34075 12.7756 6.43306 12.6833C6.52537 12.591 6.64426 12.5299 6.77306 12.5086C6.90186 12.4873 7.03409 12.5069 7.15119 12.5646C7.2683 12.6223 7.3644 12.7152 7.42601 12.8303C7.48762 12.9454 7.51165 13.0769 7.49472 13.2063C7.47686 13.3429 7.41436 13.4698 7.31694 13.5672C7.21953 13.6646 7.09265 13.7271 6.95605 13.745ZM6.95605 10.62C6.82661 10.6369 6.69512 10.6129 6.58003 10.5513C6.46494 10.4896 6.37203 10.3935 6.31434 10.2764C6.25665 10.1593 6.23708 10.0271 6.25837 9.8983C6.27966 9.76951 6.34075 9.65061 6.43306 9.5583C6.52537 9.46599 6.64426 9.40491 6.77306 9.38362C6.90186 9.36232 7.03409 9.38189 7.15119 9.43958C7.2683 9.49727 7.3644 9.59018 7.42601 9.70527C7.48762 9.82036 7.51165 9.95185 7.49472 10.0813C7.47686 10.2179 7.41436 10.3448 7.31694 10.4422C7.21953 10.5396 7.09265 10.6021 6.95605 10.62ZM6.95605 7.49497C6.82661 7.5119 6.69512 7.48787 6.58003 7.42626C6.46494 7.36465 6.37203 7.26854 6.31434 7.15144C6.25665 7.03433 6.23708 6.9021 6.25837 6.7733C6.27966 6.64451 6.34075 6.52561 6.43306 6.4333C6.52537 6.341 6.64426 6.27991 6.77306 6.25862C6.90186 6.23732 7.03409 6.25689 7.15119 6.31458C7.2683 6.37227 7.3644 6.46518 7.42601 6.58027C7.48762 6.69536 7.51165 6.82685 7.49472 6.9563C7.47686 7.0929 7.41436 7.21977 7.31694 7.31719C7.21953 7.4146 7.09265 7.4771 6.95605 7.49497ZM6.95605 4.36997C6.82661 4.3869 6.69512 4.36287 6.58003 4.30126C6.46494 4.23965 6.37203 4.14354 6.31434 4.02644C6.25665 3.90933 6.23708 3.7771 6.25837 3.6483C6.27966 3.51951 6.34075 3.40061 6.43306 3.3083C6.52537 3.21599 6.64426 3.15491 6.77306 3.13361C6.90186 3.11232 7.03409 3.13189 7.15119 3.18958C7.2683 3.24727 7.3644 3.34018 7.42601 3.45527C7.48762 3.57036 7.51165 3.70185 7.49472 3.8313C7.47686 3.9679 7.41436 4.09477 7.31694 4.19219C7.21953 4.2896 7.09265 4.3521 6.95605 4.36997ZM10.0811 16.87C9.95161 16.8869 9.82012 16.8629 9.70502 16.8013C9.58993 16.7396 9.49703 16.6435 9.43934 16.5264C9.38165 16.4093 9.36208 16.2771 9.38337 16.1483C9.40466 16.0195 9.46575 15.9006 9.55806 15.8083C9.65037 15.716 9.76926 15.6549 9.89806 15.6336C10.0269 15.6123 10.1591 15.6319 10.2762 15.6896C10.3933 15.7473 10.4894 15.8402 10.551 15.9553C10.6126 16.0704 10.6367 16.2019 10.6197 16.3313C10.6019 16.4679 10.5394 16.5948 10.4419 16.6922C10.3445 16.7896 10.2177 16.8521 10.0811 16.87ZM10.0811 13.745C9.95161 13.7619 9.82012 13.7379 9.70502 13.6763C9.58993 13.6146 9.49703 13.5185 9.43934 13.4014C9.38165 13.2843 9.36208 13.1521 9.38337 13.0233C9.40466 12.8945 9.46575 12.7756 9.55806 12.6833C9.65037 12.591 9.76926 12.5299 9.89806 12.5086C10.0269 12.4873 10.1591 12.5069 10.2762 12.5646C10.3933 12.6223 10.4894 12.7152 10.551 12.8303C10.6126 12.9454 10.6367 13.0769 10.6197 13.2063C10.6019 13.3429 10.5394 13.4698 10.4419 13.5672C10.3445 13.6646 10.2177 13.7271 10.0811 13.745ZM10.0811 10.62C9.95161 10.6369 9.82012 10.6129 9.70502 10.5513C9.58993 10.4896 9.49703 10.3935 9.43934 10.2764C9.38165 10.1593 9.36208 10.0271 9.38337 9.8983C9.40466 9.76951 9.46575 9.65061 9.55806 9.5583C9.65037 9.46599 9.76926 9.40491 9.89806 9.38362C10.0269 9.36232 10.1591 9.38189 10.2762 9.43958C10.3933 9.49727 10.4894 9.59018 10.551 9.70527C10.6126 9.82036 10.6367 9.95185 10.6197 10.0813C10.6019 10.2179 10.5394 10.3448 10.4419 10.4422C10.3445 10.5396 10.2177 10.6021 10.0811 10.62Z" fill="#FF9500"/>
<path d="M10.4428 7.31754C10.6861 7.07422 10.6851 6.67874 10.4406 6.43421C10.1961 6.18967 9.80057 6.18868 9.55726 6.432C9.31394 6.67531 9.31493 7.07079 9.55947 7.31533C9.804 7.55986 10.1995 7.56085 10.4428 7.31754Z" fill="#FF9500"/>
<path d="M10.0811 4.36997C9.95161 4.3869 9.82012 4.36287 9.70502 4.30126C9.58993 4.23965 9.49703 4.14354 9.43934 4.02644C9.38165 3.90933 9.36208 3.7771 9.38337 3.6483C9.40466 3.51951 9.46575 3.40061 9.55806 3.3083C9.65037 3.21599 9.76926 3.15491 9.89806 3.13361C10.0269 3.11232 10.1591 3.13189 10.2762 3.18958C10.3933 3.24727 10.4894 3.34018 10.551 3.45527C10.6126 3.57036 10.6367 3.70185 10.6197 3.8313C10.6019 3.9679 10.5394 4.09477 10.4419 4.19219C10.3445 4.2896 10.2177 4.3521 10.0811 4.36997ZM15.6248 15.625C15.5012 15.625 15.3804 15.6617 15.2776 15.7304C15.1748 15.7991 15.0947 15.8967 15.0474 16.0109C15.0001 16.1251 14.9877 16.2507 15.0118 16.372C15.0359 16.4932 15.0955 16.6046 15.1829 16.692C15.2703 16.7794 15.3816 16.8389 15.5029 16.863C15.6241 16.8872 15.7498 16.8748 15.864 16.8275C15.9782 16.7802 16.0758 16.7001 16.1445 16.5973C16.2131 16.4945 16.2498 16.3737 16.2498 16.25C16.2498 16.0843 16.184 15.9253 16.0667 15.8081C15.9495 15.6909 15.7906 15.625 15.6248 15.625ZM15.6248 12.5C15.5012 12.5 15.3804 12.5367 15.2776 12.6054C15.1748 12.6741 15.0947 12.7717 15.0474 12.8859C15.0001 13.0001 14.9877 13.1257 15.0118 13.247C15.0359 13.3682 15.0955 13.4796 15.1829 13.567C15.2703 13.6544 15.3816 13.7139 15.5029 13.738C15.6241 13.7622 15.7498 13.7498 15.864 13.7025C15.9782 13.6552 16.0758 13.5751 16.1445 13.4723C16.2131 13.3695 16.2498 13.2487 16.2498 13.125C16.2498 12.9593 16.184 12.8003 16.0667 12.6831C15.9495 12.5659 15.7906 12.5 15.6248 12.5ZM15.6248 9.37505C15.5012 9.37505 15.3804 9.4117 15.2776 9.48038C15.1748 9.54905 15.0947 9.64666 15.0474 9.76087C15.0001 9.87507 14.9877 10.0007 15.0118 10.122C15.0359 10.2432 15.0955 10.3546 15.1829 10.442C15.2703 10.5294 15.3816 10.5889 15.5029 10.613C15.6241 10.6372 15.7498 10.6248 15.864 10.5775C15.9782 10.5302 16.0758 10.4501 16.1445 10.3473C16.2131 10.2445 16.2498 10.1237 16.2498 10C16.2498 9.83429 16.184 9.67531 16.0667 9.5581C15.9495 9.44089 15.7906 9.37505 15.6248 9.37505ZM13.1248 15.625C13.0012 15.625 12.8804 15.6617 12.7776 15.7304C12.6748 15.7991 12.5947 15.8967 12.5474 16.0109C12.5001 16.1251 12.4877 16.2507 12.5118 16.372C12.5359 16.4932 12.5955 16.6046 12.6829 16.692C12.7703 16.7794 12.8816 16.8389 13.0029 16.863C13.1241 16.8872 13.2498 16.8748 13.364 16.8275C13.4782 16.7802 13.5758 16.7001 13.6445 16.5973C13.7131 16.4945 13.7498 16.3737 13.7498 16.25C13.7498 16.0843 13.684 15.9253 13.5667 15.8081C13.4495 15.6909 13.2906 15.625 13.1248 15.625ZM13.1248 12.5C13.0012 12.5 12.8804 12.5367 12.7776 12.6054C12.6748 12.6741 12.5947 12.7717 12.5474 12.8859C12.5001 13.0001 12.4877 13.1257 12.5118 13.247C12.5359 13.3682 12.5955 13.4796 12.6829 13.567C12.7703 13.6544 12.8816 13.7139 13.0029 13.738C13.1241 13.7622 13.2498 13.7498 13.364 13.7025C13.4782 13.6552 13.5758 13.5751 13.6445 13.4723C13.7131 13.3695 13.7498 13.2487 13.7498 13.125C13.7498 12.9593 13.684 12.8003 13.5667 12.6831C13.4495 12.5659 13.2906 12.5 13.1248 12.5ZM13.1248 9.37505C13.0012 9.37505 12.8804 9.4117 12.7776 9.48038C12.6748 9.54905 12.5947 9.64666 12.5474 9.76087C12.5001 9.87507 12.4877 10.0007 12.5118 10.122C12.5359 10.2432 12.5955 10.3546 12.6829 10.442C12.7703 10.5294 12.8816 10.5889 13.0029 10.613C13.1241 10.6372 13.2498 10.6248 13.364 10.5775C13.4782 10.5302 13.5758 10.4501 13.6445 10.3473C13.7131 10.2445 13.7498 10.1237 13.7498 10C13.7498 9.83429 13.684 9.67531 13.5667 9.5581C13.4495 9.44089 13.2906 9.37505 13.1248 9.37505Z" fill="#FF9500"/>
</svg>
