<svg width="55" height="25" viewBox="0 0 55 25" fill="none" xmlns="http://www.w3.org/2000/svg">
<path d="M0 12.6132C0 8.4185 3.05597 5.19238 7.24331 5.19238C10.8514 5.19238 13.1698 7.55917 13.8018 9.76283L10.7986 10.9732C10.3506 9.33317 9.0866 8.23061 7.2961 8.23061C5.0833 8.23061 3.34559 9.95218 3.34559 12.587C3.34559 15.2217 5.0833 16.9433 7.32321 16.9433C9.11371 16.9433 10.432 15.8407 10.8785 14.227L13.8817 15.4635C13.2497 17.6147 10.9313 19.9815 7.24474 19.9815C3.10876 19.9801 0 16.8079 0 12.6132Z" fill="white"/>
<path d="M39.3511 12.5856C39.3511 8.33702 42.407 5.16479 46.7528 5.16479C51.0985 5.16479 54.1544 8.33848 54.1544 12.5856C54.1544 16.8327 51.0728 19.9802 46.7528 19.9802C42.4327 19.9802 39.3511 16.8065 39.3511 12.5856ZM50.7817 12.5594C50.7817 10.0324 49.1753 8.2307 46.7784 8.2307C44.3816 8.2307 42.6952 10.0324 42.6952 12.587C42.6952 15.1417 44.3545 16.9434 46.7784 16.9434C49.2024 16.9434 50.7817 15.1155 50.7817 12.5608V12.5594Z" fill="white"/>
<path d="M27.8674 5.48633L22.5729 19.6565L20.7824 24.4702H17.4896L19.3857 19.6565H18.3314L13.4321 5.48633H16.8833L20.4657 16.9139L24.3905 5.48633H27.8674Z" fill="white"/>
<path d="M21.8486 15.4609H19.4902V17.2466H21.8486V15.4609Z" fill="white"/>
<path d="M28.7368 2.35659V19.6567H32.0824V0L28.7368 2.35659Z" fill="white"/>
<path d="M34.3999 2.35659V19.6567H37.7455V0L34.3999 2.35659Z" fill="white"/>
</svg>
