<svg width="20" height="20" viewBox="0 0 20 20" fill="none" xmlns="http://www.w3.org/2000/svg">
<g clip-path="url(#clip0_52_1563)">
<path d="M10 6L15.3333 8.66667V19.3333H4.66667V8.66667L10 6ZM10 6V0M0 19.3333H20M2 19.3333V11.3333H4.66667M18 19.3333V11.3333H15.3333M8.66667 19.3333V15.3333H11.3333V19.3333M10 0.666667H14V3.33333H10M10 12.6667C9.64638 12.6667 9.30724 12.5262 9.05719 12.2761C8.80714 12.0261 8.66667 11.687 8.66667 11.3333C8.66667 10.9797 8.80714 10.6406 9.05719 10.3905C9.30724 10.1405 9.64638 10 10 10C10.3536 10 10.6928 10.1405 10.9428 10.3905C11.1929 10.6406 11.3333 10.9797 11.3333 11.3333C11.3333 11.687 11.1929 12.0261 10.9428 12.2761C10.6928 12.5262 10.3536 12.6667 10 12.6667Z" stroke="#CEB600"/>
</g>
<defs>
<clipPath id="clip0_52_1563">
<rect width="20" height="20" fill="white"/>
</clipPath>
</defs>
</svg>
