<svg width="20" height="20" viewBox="0 0 20 20" fill="none" xmlns="http://www.w3.org/2000/svg">
<path d="M0 15.9833L0.264104 14.8722H4.99686L4.73275 15.9833H0ZM2.11284 11.7944L2.37694 10.6833H8.16611L7.90201 11.7944H2.11284ZM17.47 18.91L17.9982 14.4233L18.743 7.97L19.0282 5.56222L17.47 18.91ZM4.8141 20C4.47745 20 4.18694 19.8963 3.94255 19.6889C3.69746 19.4815 3.57492 19.2148 3.57492 18.8889H16.8192C17.0094 18.8889 17.1721 18.8248 17.3073 18.6967C17.4425 18.5685 17.5235 18.4048 17.5503 18.2056L18.9268 6.33111C18.9535 6.13111 18.8993 5.95333 18.7641 5.79778C18.6289 5.64222 18.4662 5.5637 18.276 5.56222H15.5948L15.2631 8.37222C15.242 8.53 15.1744 8.65778 15.0603 8.75556C14.9462 8.85333 14.8141 8.89778 14.6641 8.88889C14.5268 8.88074 14.412 8.81778 14.3197 8.7C14.2268 8.58222 14.1912 8.45148 14.213 8.30778L14.5321 5.56222H9.25633L8.92462 8.36556C8.90349 8.52333 8.83588 8.65222 8.72179 8.75222C8.60769 8.85222 8.47529 8.89778 8.32457 8.88889C8.18794 8.88 8.07209 8.81593 7.97701 8.69667C7.88193 8.57741 7.84531 8.44555 7.86714 8.30111L8.18618 5.56222H4.93664C4.99298 5.17481 5.17786 4.89148 5.49126 4.71222C5.80396 4.5337 6.1473 4.44444 6.52127 4.44444H8.30978L8.37 3.88889C8.51086 2.65704 8.92039 1.70074 9.59861 1.02C10.2768 0.33926 11.2016 -0.000739533 12.3728 1.20773e-06C13.4045 1.20773e-06 14.2472 0.411112 14.9008 1.23333C15.5543 2.05556 15.8315 3.01185 15.7322 4.10222L15.692 4.44444H18.426C18.8979 4.44889 19.2909 4.63704 19.605 5.00889C19.9191 5.38 20.0459 5.81333 19.9853 6.30889L18.5834 18.2756C18.5264 18.7741 18.32 19.1863 17.9644 19.5122C17.6087 19.8381 17.1939 20.0007 16.7199 20H4.8141ZM9.3662 4.44444H14.642L14.6821 4.10222C14.7539 3.30593 14.549 2.60889 14.0673 2.01111C13.5862 1.41111 12.9739 1.11111 12.2302 1.11111C11.397 1.11111 10.7459 1.35296 10.2768 1.83667C9.80778 2.32037 9.52431 3.00445 9.42642 3.88889L9.3662 4.44444Z" fill="#0080FF"/>
</svg>
