<?xml version="1.0" encoding="UTF-8"?>
<svg id="Layer_2" data-name="Layer 2" xmlns="http://www.w3.org/2000/svg" viewBox="0 0 850 850">
  <defs>
    <style>
      .whatsapp_cls-1 {
        fill: #26261A;
      }

      .whatsapp_cls-2 {
        fill: #bbc14d;
      }

      .whatsapp_cls-3 {
        fill: #9ea700;
      }

      .whatsapp_cls-4 {
        fill: #55cd6c;
      }

      .whatsapp_cls-5 {
        fill: #fefefe;
      }

      .whatsapp_cls-6 {
        fill: #ededed;
      }
    </style>
  </defs>
  <g id="Layer_1-2" data-name="Layer 1">
    <g>
      <rect class="whatsapp_cls-1" style="fill:#26261A !important;" width="850" height="850" rx="72.61" ry="72.61"/>
      <path class="whatsapp_cls-6" style="fill:#d9d6bc !important;" d="m237.13,612.87l25.91-93.94c-16.84-29.15-25.91-61.54-25.91-95.23,0-102.36,84.22-186.58,187.22-186.58s188.52,84.22,188.52,186.58-85.51,189.17-188.52,189.17c-32.39,0-63.49-10.37-91.34-25.91l-95.88,25.91Z"/>
      <path class="whatsapp_cls-4" style="fill:#969686 !important;" d="m338.19,553.27l5.83,3.24c23.97,14.9,51.83,23.97,80.98,23.97,84.87,0,155.48-70.61,155.48-156.78s-70.61-154.18-156.13-154.18-154.83,68.67-154.83,154.18c0,29.8,8.42,58.95,23.97,83.57l3.89,5.83-14.9,54.42,55.71-14.25Z"/>
      <path class="whatsapp_cls-5" style="fill:#d9d6bc !important;" d="m372.14,336.92l-12.31-.65c-3.89,0-7.77,1.3-10.37,3.89-5.83,5.18-15.55,14.9-18.14,27.86-4.53,19.44,2.59,42.76,19.44,66.08,16.84,23.32,49.24,60.9,106.24,77.09,18.14,5.18,32.39,1.94,44.05-5.18,9.07-5.83,14.9-14.9,16.84-24.62l1.94-9.07c.65-2.59-.65-5.83-3.24-7.13l-40.81-18.79c-2.59-1.3-5.83-.65-7.77,1.94l-16.2,20.73c-1.3,1.3-3.24,1.94-5.18,1.3-11.01-3.89-47.94-19.44-68.02-58.3-.65-1.94-.65-3.89.65-5.18l15.55-17.49c1.3-1.94,1.94-4.53,1.3-6.48l-18.79-42.11c-.65-1.94-2.59-3.89-5.18-3.89"/>
    </g>
  </g>
</svg>
