<?xml version="1.0" encoding="UTF-8"?>
<svg id="Layer_2" data-name="Layer 2" xmlns="http://www.w3.org/2000/svg" viewBox="0 0 850 850">
  <defs>
    <style>
      .cls-1 {
        fill: #fff;
      }

      .cls-2 {
        fill: #bbc14d;
      }

      .cls-3 {
        fill: #9ea700;
      }

      .cls-4 {
        fill: #55cd6c;
      }

      .cls-5 {
        fill: #fefefe;
      }

      .cls-6 {
        fill: #ededed;
      }
    </style>
  </defs>
  <g id="Layer_1-2" data-name="Layer 1">
    <g>
      <g>
        <path class="cls-2" d="m627.25,335.7c0,36.6-13.64,70.12-42.93,105.46-26.21,31.62-63.86,63.71-107.47,100.87-14.9,12.69-31.79,27.09-49.31,42.42-4.59,4.02-10.47,6.25-16.58,6.28h-.15c-6.16,0-12.1-2.23-16.73-6.29-17.49-15.29-34.35-29.67-49.22-42.35l-.08-.06c-43.6-37.16-81.27-69.26-107.47-100.88-29.29-35.33-42.93-68.85-42.93-105.46s12.2-68.38,34.34-92.4c22.41-24.31,53.16-37.69,86.59-37.69,24.99,0,47.87,7.89,68.02,23.47,10.17,7.87,19.38,17.48,27.49,28.72l.15-.2c8.08-11.15,17.24-20.7,27.35-28.51,20.14-15.58,43.03-23.47,68.01-23.47,33.43,0,64.18,13.38,86.59,37.69,22.14,24.02,34.34,56.83,34.34,92.4Z"/>
        <path class="cls-3" d="m634.7,331.31c0,36.6-13.64,70.12-42.93,105.46-26.21,31.62-63.86,63.71-107.47,100.87-14.9,12.69-31.79,27.09-49.31,42.42-4.59,4.02-10.47,6.25-16.58,6.28V253.21c8.08-11.15,17.24-20.7,27.35-28.51,20.14-15.58,43.03-23.47,68.01-23.47,33.43,0,64.18,13.38,86.59,37.69,22.14,24.02,34.34,56.83,34.34,92.4Z"/>
      </g>
      <rect class="cls-1" width="850" height="850" rx="72.61" ry="72.61"/>
      <path class="cls-6" d="m237.13,612.87l25.91-93.94c-16.84-29.15-25.91-61.54-25.91-95.23,0-102.36,84.22-186.58,187.22-186.58s188.52,84.22,188.52,186.58-85.51,189.17-188.52,189.17c-32.39,0-63.49-10.37-91.34-25.91l-95.88,25.91Z"/>
      <path class="cls-4" d="m338.19,553.27l5.83,3.24c23.97,14.9,51.83,23.97,80.98,23.97,84.87,0,155.48-70.61,155.48-156.78s-70.61-154.18-156.13-154.18-154.83,68.67-154.83,154.18c0,29.8,8.42,58.95,23.97,83.57l3.89,5.83-14.9,54.42,55.71-14.25Z"/>
      <path class="cls-5" d="m372.14,336.92l-12.31-.65c-3.89,0-7.77,1.3-10.37,3.89-5.83,5.18-15.55,14.9-18.14,27.86-4.53,19.44,2.59,42.76,19.44,66.08,16.84,23.32,49.24,60.9,106.24,77.09,18.14,5.18,32.39,1.94,44.05-5.18,9.07-5.83,14.9-14.9,16.84-24.62l1.94-9.07c.65-2.59-.65-5.83-3.24-7.13l-40.81-18.79c-2.59-1.3-5.83-.65-7.77,1.94l-16.2,20.73c-1.3,1.3-3.24,1.94-5.18,1.3-11.01-3.89-47.94-19.44-68.02-58.3-.65-1.94-.65-3.89.65-5.18l15.55-17.49c1.3-1.94,1.94-4.53,1.3-6.48l-18.79-42.11c-.65-1.94-2.59-3.89-5.18-3.89"/>
    </g>
  </g>
</svg>