<?xml version="1.0" encoding="UTF-8"?>
<svg id="Layer_2" data-name="Layer 2" xmlns="http://www.w3.org/2000/svg" viewBox="0 0 850 850">
  <defs>
    <style>
      .cls-1 {
        fill: #fff;
      }

      .cls-2 {
        fill: #b2b749;
      }

      .cls-3 {
        fill: #bbc14d;
      }

      .cls-4 {
        fill: #9ea700;
      }

      .cls-5 {
        fill: #cfd380;
      }
    </style>
  </defs>
  <g id="Layer_1-2" data-name="Layer 1">
    <g>
      <rect class="cls-1" width="850" height="850" rx="72.61" ry="72.61"/>
      <g>
        <path class="cls-4" d="m588.31,427.78c-7-4.85-16.62-3.13-21.49,3.86l-61.84,89.36c-5.23,6.75-4,16.46,2.75,21.69s16.46,4,21.69-2.75c.33-.42.63-.86.92-1.32l61.84-89.36c4.85-7,3.13-16.62-3.86-21.49Z"/>
        <g>
          <path class="cls-4" d="m392.59,325.75c-3.54-7.77-12.71-11.2-20.48-7.65-7.77,3.54-11.2,12.71-7.65,20.48l87.04,190.62c3.54,7.77,12.71,11.2,20.48,7.65,7.77-3.54,11.2-12.71,7.65-20.48h0l-87.04-190.62Z"/>
          <path class="cls-4" d="m316.68,320.65l-57.82,63.08c-5.35,6.66-4.28,16.39,2.37,21.73,6.11,4.9,14.92,4.47,20.51-1.02l57.36-63.08c6.72-5.27,7.9-14.98,2.64-21.7-5.27-6.72-14.98-7.9-21.7-2.64-1.3,1.02-2.43,2.24-3.35,3.62Z"/>
          <circle class="cls-3" cx="594.96" cy="394.08" r="61.84"/>
          <circle class="cls-3" cx="486.74" cy="564.14" r="61.84"/>
          <circle class="cls-5" cx="363.06" cy="285.86" r="61.84"/>
          <circle class="cls-5" cx="254.84" cy="440.46" r="61.84"/>
          <path class="cls-2" d="m594.96,332.24c-5.66.11-11.28.99-16.7,2.63l-40.81,81.47c12.3,31.86,48.09,47.73,79.95,35.43,31.86-12.3,47.73-48.09,35.43-79.95-9.23-23.91-32.25-39.65-57.87-39.58Z"/>
          <path class="cls-2" d="m494.16,502.3l-51.94,103.73c23.35,24.93,62.48,26.21,87.41,2.86,24.93-23.35,26.21-62.48,2.86-87.41-10.08-10.76-23.67-17.57-38.32-19.19Z"/>
          <g>
            <path class="cls-3" d="m355.64,347.7c2.47.15,4.95.15,7.42,0,34.15-.13,61.73-27.92,61.6-62.07-.06-15.81-6.17-30.99-17.08-42.43l-51.94,104.51Z"/>
            <path class="cls-3" d="m281.13,496.27c25.91-12.14,40.1-40.47,34.32-68.49l-34.32,68.49Z"/>
          </g>
        </g>
      </g>
    </g>
  </g>
</svg>