<svg width="31" height="30" viewBox="0 0 31 30" fill="none" xmlns="http://www.w3.org/2000/svg">
<path d="M10.8939 16.4062C10.8939 15.909 10.6943 15.4321 10.339 15.0804C9.98366 14.7288 9.50175 14.5312 8.99926 14.5312H7.57827L7.10461 13.5938H5.20996L5.72542 15.1242C5.85117 15.4975 6.09243 15.8222 6.41502 16.0523C6.73762 16.2824 7.1252 16.4063 7.52285 16.4062H8.05193L10.8939 23.9062H13.7359L10.8939 16.4062Z" fill="#F7CCA9"/>
<path d="M26.5252 11.7188V7.03125C26.5252 5.53941 25.9264 4.10867 24.8604 3.05377C23.7945 1.99888 22.3488 1.40625 20.8413 1.40625C19.3338 1.40625 17.8881 1.99888 16.8221 3.05377C15.7562 4.10867 15.1573 5.53941 15.1573 7.03125V11.7188C14.6549 11.7188 14.1729 11.9163 13.8176 12.2679C13.4623 12.6196 13.2627 13.0965 13.2627 13.5938V14.5312C13.2627 15.0285 13.4623 15.5054 13.8176 15.8571C14.1729 16.2087 14.6549 16.4062 15.1573 16.4062H26.5252C27.0277 16.4062 27.5096 16.2087 27.865 15.8571C28.2203 15.5054 28.4199 15.0285 28.4199 14.5312V13.5938C28.4199 13.0965 28.2203 12.6196 27.865 12.2679C27.5096 11.9163 27.0277 11.7188 26.5252 11.7188Z" fill="#AD6643"/>
<path d="M26.0517 15.4688H16.3641C16.0035 15.4687 15.6504 15.5705 15.3462 15.7622C15.0421 15.9539 14.7995 16.2275 14.6471 16.5509L11.8418 22.0312L14.2101 23.9062L16.5784 21.0938V28.5938H27.9463V17.3438C27.9463 16.8465 27.7467 16.3696 27.3914 16.0179C27.0361 15.6663 26.5542 15.4688 26.0517 15.4688Z" fill="#5151BD"/>
<path d="M16.5782 21.5625C16.4525 21.5625 16.3321 21.5131 16.2432 21.4252C16.1544 21.3373 16.1045 21.2181 16.1045 21.0938V19.2188C16.1045 19.0944 16.1544 18.9752 16.2432 18.8873C16.3321 18.7994 16.4525 18.75 16.5782 18.75C16.7038 18.75 16.8243 18.7994 16.9131 18.8873C17.0019 18.9752 17.0518 19.0944 17.0518 19.2188V21.0938C17.0518 21.2181 17.0019 21.3373 16.9131 21.4252C16.8243 21.5131 16.7038 21.5625 16.5782 21.5625Z" fill="#5050BD"/>
<path d="M24.1572 28.5938V19.2188C24.1572 19.0944 24.2071 18.9752 24.296 18.8873C24.3848 18.7994 24.5053 18.75 24.6309 18.75C24.7565 18.75 24.877 18.7994 24.9658 18.8873C25.0546 18.9752 25.1046 19.0944 25.1046 19.2188V28.5938H24.1572Z" fill="#5050BD"/>
<path d="M25.1045 22.9688H27.9465V28.5938H25.1045V22.9688Z" fill="#F7CCA9"/>
<path d="M17.0519 10.7812C16.5494 10.7812 16.0675 10.5837 15.7122 10.2321C15.3568 9.88044 15.1572 9.40353 15.1572 8.90625C15.1572 8.40897 15.3568 7.93206 15.7122 7.58043C16.0675 7.22879 16.5494 7.03125 17.0519 7.03125H17.5255V10.7812H17.0519Z" fill="#EDC4A2"/>
<path d="M24.6309 7.03125C25.1334 7.03125 25.6153 7.22879 25.9706 7.58043C26.3259 7.93206 26.5255 8.40897 26.5255 8.90625C26.5255 9.40353 26.3259 9.88044 25.9706 10.2321C25.6153 10.5837 25.1334 10.7812 24.6309 10.7812H24.1572V7.03125H24.6309Z" fill="#EDC4A2"/>
<path d="M19.4199 12.6562H22.2619V15.4688C22.2619 15.7174 22.1621 15.9558 21.9844 16.1317C21.8068 16.3075 21.5658 16.4062 21.3146 16.4062H20.3672C20.116 16.4062 19.875 16.3075 19.6974 16.1317C19.5197 15.9558 19.4199 15.7174 19.4199 15.4688V12.6562Z" fill="#EDC4A2"/>
<path d="M22.7357 5.15625L17.0518 7.03125V9.84375C17.0518 10.8383 17.451 11.7921 18.1616 12.4954C18.8722 13.1987 19.8361 13.5938 20.8411 13.5938C21.846 13.5938 22.8099 13.1987 23.5205 12.4954C24.2311 11.7921 24.6304 10.8383 24.6304 9.84375V7.03125L22.7357 5.15625Z" fill="#F7CCA9"/>
<path d="M18.9463 9.375C19.2079 9.375 19.42 9.16513 19.42 8.90625C19.42 8.64737 19.2079 8.4375 18.9463 8.4375C18.6847 8.4375 18.4727 8.64737 18.4727 8.90625C18.4727 9.16513 18.6847 9.375 18.9463 9.375Z" fill="#4F5659"/>
<path d="M22.7354 9.375C22.997 9.375 23.209 9.16513 23.209 8.90625C23.209 8.64737 22.997 8.4375 22.7354 8.4375C22.4738 8.4375 22.2617 8.64737 22.2617 8.90625C22.2617 9.16513 22.4738 9.375 22.7354 9.375Z" fill="#4F5659"/>
<path d="M13.7359 19.2188H5.21002L4.2627 28.5938H14.6833L13.7359 19.2188Z" fill="#C7312E"/>
<path d="M11.3678 19.2188H2.84186L1.89453 28.5938H12.3151L11.3678 19.2188Z" fill="#EB423F"/>
<path d="M5.78434 15.2772C5.72827 15.3181 5.67542 15.3631 5.62626 15.4119C5.49391 15.5422 5.38898 15.6972 5.31754 15.8679C5.2461 16.0385 5.20955 16.2215 5.21003 16.4063V20.1563C5.21003 20.2806 5.16012 20.3998 5.0713 20.4877C4.98247 20.5756 4.86199 20.625 4.73637 20.625C4.61074 20.625 4.49027 20.5756 4.40144 20.4877C4.31261 20.3998 4.2627 20.2806 4.2627 20.1563V16.4063C4.26186 16.0983 4.32269 15.7933 4.4417 15.5088C4.5607 15.2243 4.73551 14.9659 4.95603 14.7487C5.08182 14.6247 5.22101 14.5149 5.37107 14.4211C5.40284 14.4011 5.43706 14.3851 5.47291 14.3737L5.72573 15.1242C5.74349 15.1764 5.76303 15.2274 5.78434 15.2772Z" fill="#4F5659"/>
<path d="M9.4728 20.625C9.34718 20.625 9.2267 20.5756 9.13787 20.4877C9.04904 20.3998 8.99914 20.2806 8.99914 20.1562V16.4062C8.9992 16.2216 8.96249 16.0387 8.8911 15.868C8.81971 15.6974 8.71504 15.5423 8.58308 15.4117C8.45112 15.2811 8.29445 15.1776 8.12202 15.1069C7.94959 15.0363 7.76478 14.9999 7.57815 15C7.45253 15 7.33205 14.9506 7.24322 14.8627C7.1544 14.7748 7.10449 14.6556 7.10449 14.5313C7.10449 14.4069 7.1544 14.2877 7.24322 14.1998C7.33205 14.1119 7.45253 14.0625 7.57815 14.0625C7.88918 14.0624 8.19718 14.123 8.48455 14.2408C8.77192 14.3585 9.03303 14.5312 9.25296 14.7488C9.47289 14.9665 9.64734 15.2249 9.76633 15.5093C9.88532 15.7936 9.94653 16.0984 9.94646 16.4062V20.1562C9.94646 20.2806 9.89656 20.3998 9.80773 20.4877C9.7189 20.5756 9.59843 20.625 9.4728 20.625Z" fill="#4F5659"/>
</svg>
