<svg width="31" height="30" viewBox="0 0 31 30" fill="none" xmlns="http://www.w3.org/2000/svg">
<path d="M29.0364 20.4952L21.983 24.0867C21.3191 24.4239 20.5856 24.5993 19.8382 24.5993H11.4013L11.0571 24.7989L9.8787 25.4869L4.12891 20.0824L5.39428 19.1329L7.53912 17.5263C8.21698 17.0171 9.04781 16.7419 9.89605 16.7419H11.9401C12.7501 16.7419 13.5392 16.9896 14.1997 17.4506H19.5983C20.2761 17.4506 20.8949 17.7224 21.3399 18.1627C21.7849 18.6065 22.0595 19.212 22.0595 19.8863C22.0595 20.1271 21.9621 20.3473 21.8022 20.5055L27.3052 17.3578C27.5868 17.196 27.8996 17.117 28.2125 17.117C28.6158 17.117 29.019 17.2511 29.3492 17.516C30.3608 18.3313 30.1975 19.9035 29.0364 20.4952Z" fill="#FDFDFF"/>
<path opacity="0.1" d="M11.0571 24.799L9.87865 25.487L4.12891 20.0824L5.39428 19.1329L11.0571 24.799Z" fill="black"/>
<path d="M4.17756 19.3802L10.6948 25.9039C10.9945 26.2038 10.9917 26.6875 10.6886 26.9841L8.12958 29.4878C7.82648 29.7843 7.33779 29.7816 7.03815 29.4816L0.520821 22.9578C0.22112 22.6579 0.223909 22.1742 0.527005 21.8776L3.08608 19.3739C3.38923 19.0774 3.87786 19.0801 4.17756 19.3802Z" fill="#87D3A2"/>
<path opacity="0.2" d="M8.45757 29.1681L8.13083 29.4881C7.82494 29.7839 7.33825 29.7805 7.03928 29.4812L0.521218 22.9585C0.222244 22.6592 0.222244 22.1742 0.52819 21.8783L3.08672 19.3738C3.38914 19.078 3.87583 19.0814 4.17826 19.3807L4.49112 19.6938L2.2594 21.8783C1.95351 22.1742 1.95351 22.6592 2.25249 22.9585L8.45757 29.1681Z" fill="white"/>
<path d="M20.2135 15.2186H10.1382C9.2496 15.2186 8.56895 14.4363 8.69973 13.5686L10.0996 4.27721C10.1918 3.67424 10.7148 3.2301 11.33 3.2301H19.0217C19.637 3.2301 20.16 3.67424 20.2522 4.27721L20.7218 7.39495L21.6521 13.5686C21.7827 14.4363 21.1021 15.2186 20.2135 15.2186Z" fill="#F7D100"/>
<path opacity="0.2" d="M20.2248 4.15372C20.1386 4.13314 20.0494 4.12432 19.9573 4.12432H12.2656C11.6504 4.12432 11.1273 4.5714 11.0352 5.17437L9.63532 14.4657C9.59967 14.7069 9.62641 14.9422 9.70662 15.1539C9.04089 14.951 8.58912 14.2893 8.69911 13.5686L10.099 4.27721C10.1911 3.67424 10.7142 3.2301 11.3294 3.2301H19.0211C19.5947 3.23016 20.0851 3.6155 20.2248 4.15372Z" fill="white"/>
<path d="M21.5551 12.9354H8.79603L8.70077 13.5677C8.56969 14.4375 9.25064 15.2193 10.1393 15.2193H20.2119C21.1006 15.2193 21.7815 14.4375 21.6504 13.5677L21.5551 12.9354Z" fill="#FDFDFF"/>
<path opacity="0.1" d="M20.2131 15.2186H16.3078C16.1473 14.9097 16.0938 14.5568 16.1562 14.2098L17.1519 8.71844C17.2886 7.95076 17.9632 7.3949 18.7508 7.3949H20.7213L21.6516 13.5686C21.7823 14.4362 21.1017 15.2186 20.2131 15.2186Z" fill="black"/>
<path d="M25.755 8.87544L26.7485 14.3642C26.8291 14.8099 26.483 15.2193 26.0255 15.2193H17.7571C17.2997 15.2193 16.9535 14.8099 17.0342 14.3642L18.0276 8.87544C18.0903 8.52892 18.3949 8.27673 18.7506 8.27673H25.032C25.3877 8.27673 25.6923 8.52892 25.755 8.87544Z" fill="#6097F4"/>
<path opacity="0.2" d="M25.7973 9.10976H19.5263C19.1697 9.10976 18.8665 9.36273 18.8041 9.70979L17.8115 15.1981C17.8115 15.204 17.8085 15.2128 17.8085 15.2187H17.758C17.3003 15.2187 16.9526 14.8099 17.0358 14.3658L18.0285 8.87443C18.0909 8.53032 18.394 8.27734 18.7507 8.27734H25.0336C25.3873 8.27734 25.6934 8.53032 25.7558 8.87443L25.7973 9.10976Z" fill="white"/>
<path d="M6.82651 29.6882C7.24086 30.1036 7.91824 30.1081 8.33811 29.6968L10.8972 27.193C11.3171 26.7819 11.3212 26.1127 10.9056 25.697L10.6111 25.4022L11.4817 24.8933H19.8395C20.6287 24.8933 21.417 24.7045 22.1188 24.3473L29.1731 20.756C30.5239 20.0684 30.7144 18.2343 29.5364 17.2879C28.8642 16.7482 27.9082 16.6731 27.1585 17.1019L22.3567 19.8471C22.3346 18.3605 21.1058 17.158 19.5985 17.158H14.2921C13.5955 16.6924 12.7851 16.4468 11.9423 16.4468H9.8981C8.98759 16.4468 8.08643 16.7467 7.36055 17.2911L4.58703 19.3719L4.38846 19.1732C3.97398 18.7583 3.2957 18.7545 2.87661 19.1647L0.317544 21.6685C-0.102389 22.0796 -0.106451 22.7488 0.309116 23.1646L6.82651 29.6882ZM7.71985 17.7599C8.34272 17.2925 9.1165 17.0351 9.8981 17.0351H11.9423C12.6934 17.0351 13.4144 17.2623 14.0274 17.6921C14.0776 17.7273 14.1377 17.7463 14.1992 17.7463H19.5986C20.7917 17.7463 21.7626 18.7069 21.7626 19.8879C21.7626 20.2061 21.5011 20.4649 21.1795 20.4649H13.8317C13.6675 20.4649 13.5345 20.5966 13.5345 20.759C13.5345 20.9215 13.6674 21.0532 13.8317 21.0532H21.1795C21.4883 21.0532 21.7695 20.935 21.9799 20.7418L27.4556 17.6111C27.9931 17.3038 28.6793 17.3571 29.162 17.7447C30.0078 18.4245 29.8689 19.7402 28.9013 20.233L21.847 23.8242C21.2288 24.1388 20.5345 24.305 19.8395 24.305H11.4004C11.3473 24.305 11.295 24.3191 11.2492 24.3459L10.1802 24.9708L5.0086 19.794L7.71985 17.7599ZM0.735477 22.0867L3.29455 19.5831C3.47917 19.4023 3.78026 19.4014 3.96586 19.5868L10.4829 26.1105C10.6681 26.2958 10.6648 26.5933 10.4792 26.7747L7.92012 29.2785C7.73489 29.4597 7.43422 29.4602 7.24911 29.2746L0.731717 22.751C0.54764 22.5667 0.548792 22.2697 0.735477 22.0867Z" fill="#2E2E6D"/>
<path d="M26.0253 15.5134C26.6695 15.5134 27.1539 14.9364 27.0409 14.3125L26.0474 8.82363C25.9592 8.33635 25.5322 7.98263 25.0318 7.98263H21.109L20.5441 4.23367C20.4324 3.49305 19.7776 2.93467 19.0209 2.93467H17.79V2.58767C17.79 1.16087 16.6169 0 15.1749 0C13.733 0 12.5601 1.16087 12.5601 2.58767V2.93467H11.3289C10.5726 2.93467 9.91781 3.49305 9.80607 4.23367C9.36758 7.14392 9.0369 9.33851 8.40621 13.5243C8.24838 14.5722 9.06927 15.5134 10.1386 15.5134C12.211 15.513 25.9849 15.5134 26.0253 15.5134ZM13.1546 2.58773C13.1546 1.48519 14.0611 0.588326 15.175 0.588326C16.2892 0.588326 17.1956 1.48519 17.1956 2.58773V2.93473H13.1546V2.58773ZM16.8263 14.9252H10.1387C9.43027 14.9252 8.88986 14.3011 8.99427 13.6111L9.05175 13.2296H16.9374L16.7414 14.3127C16.7033 14.5234 16.7363 14.7359 16.8263 14.9252ZM9.14039 12.6412L10.3941 4.32043C10.4626 3.86573 10.8646 3.52294 11.329 3.52294H12.5602V5.26913C12.5602 5.43156 12.6931 5.56327 12.8574 5.56327C13.0217 5.56327 13.1546 5.43156 13.1546 5.26913V3.52294H17.1956V5.26913C17.1956 5.43156 17.3285 5.56327 17.4929 5.56327C17.6571 5.56327 17.7901 5.43156 17.7901 5.26913V3.52294H19.021C19.4857 3.52294 19.8877 3.86573 19.9562 4.32043L20.508 7.98263H18.7505C18.2501 7.98263 17.8232 8.33635 17.735 8.82363L17.044 12.6412H9.14039ZM17.3265 14.4162L18.32 8.92731C18.3575 8.72078 18.5383 8.57084 18.7504 8.57084H25.0318C25.244 8.57084 25.4248 8.72078 25.4622 8.92731L26.4558 14.4162C26.5038 14.6813 26.2978 14.9251 26.0253 14.9251H17.7569C17.4835 14.9252 17.2786 14.68 17.3265 14.4162Z" fill="#2E2E6D"/>
<path d="M21.8914 12.4256C22.882 12.4256 23.688 11.6279 23.688 10.6474V10.1209C23.688 9.95849 23.5551 9.82678 23.3908 9.82678C23.2265 9.82678 23.0936 9.95849 23.0936 10.1209V10.6474C23.0936 11.3034 22.5543 11.8373 21.8914 11.8373C21.2284 11.8373 20.6892 11.3034 20.6892 10.6474V10.1209C20.6892 9.95849 20.5563 9.82678 20.3919 9.82678C20.2277 9.82678 20.0947 9.95849 20.0947 10.1209V10.6474C20.0948 11.6279 20.9008 12.4256 21.8914 12.4256Z" fill="#2E2E6D"/>
</svg>
