<svg width="31" height="30" viewBox="0 0 31 30" fill="none" xmlns="http://www.w3.org/2000/svg">
<path d="M15.1575 8.79846L14.5654 15.3516H16.0456V8.21252L15.1575 8.79846Z" fill="#008D75"/>
<path d="M14.2695 8.21252V15.3516H15.1576V8.79846L14.2695 8.21252Z" fill="#2DB37F"/>
<path d="M15.1572 8.78906C20.0622 8.78906 24.0384 4.85408 24.0384 0C19.1334 0 15.1572 3.93498 15.1572 8.78906Z" fill="#00A085"/>
<path d="M6.27637 0C6.27637 4.85408 10.2526 8.78906 15.1575 8.78906C15.1575 3.93498 11.1813 0 6.27637 0Z" fill="#5AC779"/>
<path d="M24.0384 26.0449L23.4463 28.0225L24.0384 30H25.8146V26.0449H24.0384Z" fill="#FF7452"/>
<path d="M22.262 26.0449L21.6699 28.0225L22.262 30H24.0382V26.0449H22.262Z" fill="#FB9D46"/>
<path d="M20.4856 24.873L19.8936 28.0225L20.4856 30H22.2619V24.873H20.4856Z" fill="#FF7452"/>
<path d="M18.7093 24.873L18.1172 28.0225L18.7093 30H20.4855V24.873H18.7093Z" fill="#FB9D46"/>
<path d="M16.9339 24.873L16.3418 28.0225L16.9339 30H18.7101V24.873H16.9339Z" fill="#FF7452"/>
<path d="M15.1575 24.873L14.5654 28.0225L15.1575 30H16.9337V24.873H15.1575Z" fill="#FB9D46"/>
<path d="M13.3811 24.873L12.7891 28.0225L13.3811 30H15.1574V24.873H13.3811Z" fill="#FDBA4C"/>
<path d="M11.6048 24.873L11.0127 28.0225L11.6048 30H13.381V24.873H11.6048Z" fill="#FB9D46"/>
<path d="M9.82841 24.873L9.23633 28.0225L9.82841 30H11.6046V24.873H9.82841Z" fill="#FDBA4C"/>
<path d="M8.05204 24.873L7.45996 28.0225L8.05204 30H9.82827V24.873H8.05204Z" fill="#FB9D46"/>
<path d="M8.0526 24.873H6.27637V30H8.0526V24.873Z" fill="#FDBA4C"/>
<path d="M25.8147 18.1348L25.2227 20.1123L25.8147 22.0898H27.591V18.1348H25.8147Z" fill="#FB9D46"/>
<path d="M24.0384 16.9629L23.4463 20.1123L24.0384 22.0898H25.8146V18.1348L24.0384 16.9629Z" fill="#FF7452"/>
<path d="M22.262 16.9629L21.6699 20.1123L22.262 22.0898H24.0382V16.9629H22.262Z" fill="#FB9D46"/>
<path d="M20.4856 16.9629L19.8936 20.1123L20.4856 23.2617H22.2619V16.9629H20.4856Z" fill="#FF7452"/>
<path d="M18.7093 16.9629L18.1172 20.1123L18.7093 23.2617H20.4855V16.9629H18.7093Z" fill="#FB9D46"/>
<path d="M16.9339 16.9629L16.3418 20.1123L16.9339 23.2617H18.7101V16.9629H16.9339Z" fill="#FF7452"/>
<path d="M15.1575 16.9629L14.5654 20.1123L15.1575 23.2617H16.9337V16.9629H15.1575Z" fill="#FB9D46"/>
<path d="M13.3811 16.9629L12.7891 20.1123L13.3811 23.2617H15.1574V16.9629H13.3811Z" fill="#FDBA4C"/>
<path d="M11.6048 16.9629L11.0127 20.1123L11.6048 23.2617H13.381V16.9629H11.6048Z" fill="#FFD652"/>
<path d="M9.82841 16.9629L9.23633 20.1123L9.82841 23.2617H11.6046V16.9629H9.82841Z" fill="#FDBA4C"/>
<path d="M9.82897 16.9629H8.05273V23.2617H9.82897V16.9629Z" fill="#FFD652"/>
<path d="M24.0384 14.1797L23.4463 16.1572L24.0384 18.1348H25.8146V14.1797H24.0384Z" fill="#FB9D46"/>
<path d="M22.262 14.1797L21.6699 16.1572L22.262 18.1348H24.0382V14.1797H22.262Z" fill="#FDBA4C"/>
<path d="M20.4856 14.1797L19.8936 16.1572L20.4856 18.1348H22.2619V14.1797H20.4856Z" fill="#FB9D46"/>
<path d="M18.7093 14.1797L18.1172 16.1572L18.7093 18.1348H20.4855V14.1797H18.7093Z" fill="#FDBA4C"/>
<path d="M16.9339 14.1797L16.3418 16.1572L16.9339 18.1348H18.7101V14.1797H16.9339Z" fill="#FB9D46"/>
<path d="M15.1575 14.1797L14.5654 16.1572L15.1575 18.1348H16.9337V14.1797H15.1575Z" fill="#FDBA4C"/>
<path d="M13.3811 14.1797L12.7891 16.1572L13.3811 18.1348H15.1574V14.1797H13.3811Z" fill="#FFD652"/>
<path d="M11.6048 14.1797L11.0127 16.1572L11.6048 18.1348H13.381V14.1797H11.6048Z" fill="#FBE287"/>
<path d="M9.82841 14.1797L9.23633 16.1572L9.82841 18.1348H11.6046V14.1797H9.82841Z" fill="#FFD652"/>
<path d="M8.05204 14.1797L7.45996 16.1572L8.05204 18.1348H9.82827V14.1797H8.05204Z" fill="#FBE287"/>
<path d="M8.0526 14.1797H6.27637V18.1348H8.0526V14.1797Z" fill="#FFD652"/>
<path d="M20.4856 22.0898L19.8936 24.0674L20.4856 26.0449H22.2619V22.0898H20.4856Z" fill="#FB9D46"/>
<path d="M18.7093 22.0898L18.1172 24.0674L18.7093 26.0449H20.4855V22.0898H18.7093Z" fill="#FDBA4C"/>
<path d="M16.9339 22.0898L16.3418 24.0674L16.9339 26.0449H18.7101V22.0898H16.9339Z" fill="#FB9D46"/>
<path d="M15.1575 22.0898L14.5654 24.0674L15.1575 26.0449H16.9337V22.0898H15.1575Z" fill="#FDBA4C"/>
<path d="M13.3811 22.0898L12.7891 24.0674L13.3811 26.0449H15.1574V22.0898H13.3811Z" fill="#FFD652"/>
<path d="M11.6048 22.0898L11.0127 24.0674L11.6048 26.0449H13.381V22.0898H11.6048Z" fill="#FBE287"/>
<path d="M9.82841 22.0898L9.23633 24.0674L9.82841 26.0449H11.6046V22.0898H9.82841Z" fill="#FFD652"/>
<path d="M8.05204 22.0898L7.45996 24.0674L8.05204 26.0449H9.82827V22.0898H8.05204Z" fill="#FBE287"/>
<path d="M6.27567 22.0898L5.68359 24.0674L6.27567 26.0449H8.0519V22.0898H6.27567Z" fill="#FFD652"/>
<path d="M4.4993 22.0898L3.90723 24.0674L4.4993 26.0449H6.27554V22.0898H4.4993Z" fill="#FBE287"/>
<path d="M4.49987 22.0898H2.72363V26.0449H4.49987V22.0898Z" fill="#FFD652"/>
</svg>
