<svg width="20" height="20" viewBox="0 0 20 20" fill="none" xmlns="http://www.w3.org/2000/svg">
<g clip-path="url(#clip0_50_914)">
<path d="M10 1.33301C10.5488 1.33301 11.0702 1.45443 11.5381 1.6709L11.1729 2.23926C10.8127 2.08608 10.4166 2 10 2C8.34325 2.00018 7 3.34326 7 5V8.33301C7 9.98979 8.34326 11.3328 10 11.333C11.6569 11.333 13 9.9899 13 8.33301V6.33301H13.667V8.33301C13.667 10.358 12.025 12 10 12C7.97511 11.9998 6.33398 10.3579 6.33398 8.33301V5C6.33398 2.97507 7.97511 1.33318 10 1.33301ZM16.8086 0.966797C17.2166 1.95174 17.9788 2.74222 18.9424 3.1709L19.415 3.38086L18.9072 3.60742C17.9677 4.02533 17.2179 4.7874 16.8027 5.74023L16.667 6.05176L16.5312 5.74023C16.1161 4.7874 15.3663 4.02533 14.4268 3.60742L13.918 3.38086L14.3916 3.1709C15.3551 2.74222 16.1175 1.95178 16.5254 0.966797L16.667 0.625L16.8086 0.966797ZM9.66699 15.3398L9.22168 15.291C6.16544 14.9531 3.70247 12.6456 3.12793 9.66699H3.80957C4.42237 12.5243 6.95968 14.6669 10 14.667C13.0404 14.667 15.5786 12.5244 16.1914 9.66699H16.8721C16.2976 12.6456 13.8345 14.9531 10.7783 15.291L10.333 15.3398V18.667H9.66699V15.3398Z" stroke="black"/>
</g>
<defs>
<clipPath id="clip0_50_914">
<rect width="20" height="20" fill="white"/>
</clipPath>
</defs>
</svg>
