<svg width="24" height="24" viewBox="0 0 24 24" fill="none" xmlns="http://www.w3.org/2000/svg">
<path d="M7.01172 10.7994C6.9081 11.0143 6.84964 11.2551 6.84961 11.5123C6.84961 12.426 7.59905 13.1754 8.5127 13.1754C8.77144 13.1754 9.01348 13.1154 9.22949 13.0123C9.10227 13.9479 8.30556 14.65 7.3125 14.65C6.23864 14.65 5.375 13.7864 5.375 12.7125C5.375 11.7411 6.08195 10.9431 7.01172 10.7994Z" stroke="black"/>
<path d="M12.3535 7.14075C14.7757 4.71867 17.8435 4.79478 19.998 5.89465C18.9972 6.11381 18.0217 6.46965 17.1123 6.89758L15.5508 7.63196L17.2627 7.84583C19.7198 8.15296 21.625 10.2346 21.625 12.7501C21.625 15.4739 19.4113 17.6876 16.6875 17.6876C15.7083 17.6876 14.8221 17.3843 14.0225 16.8976L13.666 16.6808L13.3887 16.9933L12 18.5587L10.6113 16.9933L10.3252 16.671L9.96484 16.9064C9.18315 17.4162 8.30249 17.6876 7.3125 17.6876C4.58867 17.6876 2.37505 15.4739 2.375 12.7501C2.375 10.2346 4.28021 8.15296 6.7373 7.84583L8.44922 7.63196L6.8877 6.89758C5.97803 6.46952 5.00217 6.11379 4.00098 5.89465C6.15555 4.7944 9.22399 4.71838 11.6465 7.14075L12 7.49426L12.3535 7.14075ZM7.3125 8.31262C4.86136 8.31262 2.875 10.299 2.875 12.7501C2.87505 15.2012 4.86139 17.1876 7.3125 17.1876C9.76361 17.1876 11.75 15.2012 11.75 12.7501C11.75 10.299 9.76364 8.31262 7.3125 8.31262ZM16.6875 8.31262C14.2364 8.31262 12.25 10.299 12.25 12.7501C12.25 15.2012 14.2364 17.1876 16.6875 17.1876C19.1386 17.1876 21.125 15.2012 21.125 12.7501C21.125 10.299 19.1386 8.31262 16.6875 8.31262Z" stroke="black"/>
<path d="M16.3867 10.7994C16.2831 11.0143 16.2246 11.2551 16.2246 11.5123C16.2246 12.426 16.9741 13.1754 17.8877 13.1754C18.1464 13.1754 18.3885 13.1154 18.6045 13.0123C18.4773 13.9479 17.6806 14.65 16.6875 14.65C15.6136 14.65 14.75 13.7864 14.75 12.7125C14.75 11.7411 15.457 10.9431 16.3867 10.7994Z" stroke="black"/>
</svg>
