<svg width="22" height="22" viewBox="0 0 22 22" fill="none" xmlns="http://www.w3.org/2000/svg">
<circle cx="12.3423" cy="11.0002" r="8.44975" transform="rotate(-90 12.3423 11.0002)" fill="#9EA700"/>
<circle cx="11" cy="11" r="11" transform="rotate(-90 11 11)" fill="#9EA700"/>
<g clip-path="url(#clip0_516_300)">
<path d="M12.4752 11.4708L8.08155 12.2029C8.03104 12.2113 7.98364 12.2329 7.94411 12.2655C7.90458 12.2981 7.87433 12.3404 7.85639 12.3884L6.34147 16.4473C6.1968 16.8206 6.58705 17.1764 6.94522 16.9967L13.1939 13.8724C13.1232 13.4423 13.192 13.0009 13.3902 12.6128C13.5884 12.2246 13.9056 11.9101 14.2955 11.7151C14.6853 11.5202 15.1273 11.4552 15.5567 11.5295C15.9862 11.6038 16.3806 11.8137 16.6822 12.1282L17.4452 11.7467C17.5178 11.7104 17.5788 11.6545 17.6215 11.5855C17.6641 11.5164 17.6867 11.4368 17.6867 11.3556C17.6867 11.2744 17.6641 11.1949 17.6215 11.1258C17.5788 11.0567 17.5178 11.0009 17.4452 10.9645L6.94522 5.7145C6.58705 5.53542 6.1968 5.89125 6.34147 6.264L7.85697 10.3228C7.87491 10.3708 7.90517 10.4132 7.94469 10.4458C7.98422 10.4783 8.03162 10.4999 8.08214 10.5083L12.4758 11.2404C12.5032 11.2448 12.5282 11.2588 12.5462 11.2799C12.5642 11.301 12.5741 11.3279 12.5741 11.3556C12.5741 11.3834 12.5642 11.4102 12.5462 11.4313C12.5282 11.4525 12.5032 11.4665 12.4758 11.4708" fill="white"/>
<path d="M14.8182 15.6818L13 15L14.8182 14.3175L15.5 12.5L16.1825 14.3175L18 15L16.1825 15.6818L15.5 17.5L14.8182 15.6818Z" fill="white"/>
</g>
<defs>
<clipPath id="clip0_516_300">
<rect width="14" height="15" fill="white" transform="translate(4 3)"/>
</clipPath>
</defs>
</svg>
