<svg width="24" height="24" viewBox="0 0 24 24" fill="none" xmlns="http://www.w3.org/2000/svg">
<path d="M7 20L18.5 20C19.3284 20 20 19.3284 20 18.5L20 5.5C20 4.67157 19.3284 4 18.5 4L7 4L7 20ZM6 20L6 4L5.5 4C4.6716 4 4 4.67157 4 5.5L4 18.5C4 19.3284 4.6716 20 5.5 20L6 20ZM18.5 3C19.8807 3 21 4.11929 21 5.5L21 18.5C21 19.8807 19.8807 21 18.5 21L5.5 21C4.1193 21 3 19.8807 3 18.5L3 5.5C3 4.11929 4.1193 3 5.5 3L18.5 3ZM10.1403 12L11.8904 14.1877C12.0629 14.4033 12.028 14.7179 11.8123 14.8904C11.5967 15.0629 11.2821 15.028 11.1096 14.8123L9.1096 12.3123C8.9635 12.1297 8.9635 11.8703 9.1096 11.6877L11.1096 9.18765C11.2821 8.97202 11.5967 8.93706 11.8123 9.10957C12.028 9.28207 12.0629 9.59672 11.8904 9.81235L10.1403 12Z"
      fill="grey"
      stroke="grey"
      stroke-width="0.5"/>
</svg>