<svg width="512" height="512" viewBox="0 0 512 512" fill="none" xmlns="http://www.w3.org/2000/svg">
<path fill-rule="evenodd" clip-rule="evenodd" d="M227.047 145.289C226.78 145.255 226.514 145.222 226.248 145.191V7.5H460.134L346.021 62.258C343.352 63.245 341.449 65.813 341.449 68.825V250.886L341.426 250.828L314.053 184.636C306.119 165.451 289.065 153.18 268.605 150.577L227.047 145.289ZM258.627 341.314C256.786 355.294 254.43 369.622 253.034 383.614C252.501 388.963 253.393 393.545 256.571 397.937L260.758 403.726H341.45V281.089C338.822 286.525 334.535 291.223 328.45 294.524C311.136 303.915 291.775 295.355 282.902 278.763L251.982 220.943L248.256 220.907L262.611 291.997C263.745 297.615 262.654 306.856 262.075 312.624C261.113 322.2 259.883 331.773 258.627 341.314ZM355.449 73.198L476.248 15.232V403.727L355.449 461.693V73.198ZM371.275 246.437C371.275 250.222 374.344 253.291 378.129 253.291C381.914 253.291 384.983 250.222 384.983 246.437V226.114C384.983 222.329 381.915 219.26 378.129 219.26C374.343 219.26 371.275 222.328 371.275 226.114V246.437ZM143.391 109.412C143.391 104.515 139.41 100.533 134.513 100.533H112.475V118.285H134.513C139.41 118.285 143.391 114.305 143.391 109.412ZM157.389 109.412C157.389 122.026 147.127 132.288 134.513 132.288H113.433C116.932 145.288 129.465 156.964 141.66 160.059C143.218 160.454 144.7 160.997 146.093 161.668C153.7 157.301 162.11 154.138 171.254 152.228L196.676 146.92V96.465C196.676 73.31 177.731 54.364 154.575 54.364C134.837 54.364 118.161 68.131 113.668 86.536H134.512C147.126 86.536 157.388 96.798 157.388 109.412H157.389ZM500.365 490.5H285.067C291.611 484.147 293.834 473.341 285.886 462.354L245.227 406.142C240.034 398.962 238.224 391.044 239.103 382.225C240.486 368.36 250.575 303.125 248.887 294.768L231.112 206.744L260.413 207.023L295.246 272.161C307.767 295.575 339.334 282.403 328.489 256.178L301.116 189.986C295.13 175.51 282.376 166.441 266.838 164.465L225.28 159.177C217.159 158.144 210.072 158.425 202.058 160.098L174.117 165.932C155.003 169.923 139.991 180.245 129.42 196.662L109.462 227.657C105.424 233.928 99.3468 237.523 91.9448 238.443L49.6558 243.704C41.4308 244.727 35.3408 251.837 35.9448 260.102L36.1198 262.496C36.7068 270.53 43.3478 276.72 51.4018 276.741L97.4018 276.863C111.578 276.9 123.797 271.241 132.935 260.403L154.162 235.23L166.543 294.54L97.3908 319.94C84.7098 324.597 76.4318 335.575 75.4408 349.048L71.2808 405.567L68.5178 443.105C66.4518 471.167 106.352 476.345 110.018 445.787L119.543 366.39L190.768 342.786L190.748 392.325C190.742 408.945 195.838 423.337 206.953 435.693L254.011 488.005C254.835 488.921 255.681 489.748 256.543 490.499H11.6318C7.76681 490.499 4.63281 493.632 4.63281 497.498C4.63281 501.364 7.76581 504.502 11.6318 504.502H500.365C504.226 504.502 507.368 501.364 507.368 497.498C507.368 493.632 504.225 490.499 500.365 490.499V490.5Z" fill="white"/>
</svg>
