<svg width="512" height="512" viewBox="0 0 512 512" fill="none" xmlns="http://www.w3.org/2000/svg">
<path d="M245.333 261.206C310.135 261.206 362.667 208.674 362.667 143.872C362.667 79.071 310.135 26.5391 245.333 26.5391C180.532 26.5391 128 79.071 128 143.872C128 208.674 180.532 261.206 245.333 261.206Z" fill="white"/>
<path fill-rule="evenodd" clip-rule="evenodd" d="M275.733 464.127C253.567 440.319 239.999 408.404 239.999 373.332C239.999 337.428 254.229 304.81 277.354 280.831C266.901 280.02 256.213 279.594 245.333 279.594C174.463 279.594 111.722 297.322 72.7674 323.882C43.05 344.148 26.666 369.898 26.666 396.927V427.86C26.666 437.482 30.4847 446.719 37.29 453.503C44.0954 460.308 53.3114 464.127 62.9327 464.127H275.733Z" fill="white"/>
<path fill-rule="evenodd" clip-rule="evenodd" d="M373.332 261.332C311.508 261.332 261.332 311.508 261.332 373.332C261.332 435.156 311.508 485.332 373.332 485.332C435.156 485.332 485.332 435.156 485.332 373.332C485.332 311.508 435.156 261.332 373.332 261.332ZM321.791 391.977L353.791 413.311C360.127 417.535 368.596 416.703 373.972 411.305L427.305 357.972C433.556 351.743 433.556 341.588 427.305 335.359C421.076 329.108 410.921 329.108 404.692 335.359L360.617 379.412L339.54 365.353C332.201 360.447 322.26 362.452 317.353 369.791C312.447 377.129 314.452 387.071 321.791 391.977Z" fill="white"/>
</svg>
