<svg width="512" height="512" viewBox="0 0 512 512" fill="none" xmlns="http://www.w3.org/2000/svg">
<path fill-rule="evenodd" clip-rule="evenodd" d="M326.446 207.842H387.9C388.997 207.842 390.079 207.584 391.059 207.089C392.038 206.593 392.888 205.875 393.538 204.991C394.189 204.107 394.622 203.082 394.804 202C394.986 200.917 394.91 199.808 394.584 198.76C392.069 190.701 387.464 183.452 381.236 177.752C375.008 172.052 367.381 168.105 359.131 166.312C350.881 164.519 342.304 164.945 334.272 167.546C326.241 170.148 319.042 174.831 313.41 181.12C319.562 189.026 324.001 198.126 326.445 207.842H326.446ZM194.683 331.919C213.334 350.927 234.937 342.187 255.483 333.871C271.929 327.213 287.827 320.778 303.237 325.007C306.3 325.853 309.244 327.082 312 328.664L380.9 367.936C383.623 369.483 386.072 371.47 388.147 373.816L394.262 371.265L359.955 282.772C346.217 288.929 333.98 283.927 320.198 278.294C305.691 272.364 289.006 265.544 267.398 276.07C257.552 280.87 248.43 288.429 240.79 296.15C233.299 303.662 225.268 310.616 216.761 316.955C209.724 322.239 202.365 327.227 194.685 331.919H194.683ZM104.932 227.1L49.4997 352.5C48.2163 355.425 48.143 358.739 49.2957 361.719C50.4484 364.698 52.7335 367.1 55.6517 368.4L79.7997 379.07C82.7251 380.353 86.0395 380.426 89.0188 379.274C91.9981 378.121 94.4 375.836 95.6997 372.918L151.128 247.511C152.411 244.585 152.484 241.271 151.332 238.292C150.179 235.312 147.894 232.91 144.976 231.611L120.835 220.941C117.909 219.657 114.595 219.584 111.616 220.736C108.637 221.889 106.235 224.174 104.935 227.092L104.932 227.1ZM413.148 236L462.708 363.839C463.855 366.821 463.775 370.135 462.485 373.058C461.195 375.981 458.801 378.275 455.826 379.439L431.217 388.979C428.235 390.126 424.92 390.046 421.997 388.757C419.074 387.468 416.78 385.073 415.617 382.098L366.057 254.259C364.91 251.277 364.99 247.962 366.279 245.039C367.569 242.116 369.963 239.822 372.939 238.659L397.549 229.118C400.531 227.97 403.845 228.05 406.769 229.34C409.692 230.63 411.985 233.024 413.148 236ZM394.248 248.9C392.626 248.9 391.041 249.381 389.692 250.282C388.344 251.183 387.293 252.463 386.672 253.962C386.051 255.46 385.889 257.109 386.205 258.699C386.522 260.29 387.303 261.751 388.449 262.898C389.596 264.045 391.057 264.826 392.648 265.142C394.239 265.458 395.887 265.296 397.386 264.675C398.884 264.055 400.165 263.004 401.066 261.655C401.967 260.307 402.448 258.721 402.448 257.1C402.448 254.925 401.584 252.839 400.046 251.301C398.508 249.764 396.422 248.9 394.248 248.9ZM123.214 240.86C124.834 240.935 126.395 241.489 127.7 242.452C129.005 243.414 129.996 244.742 130.546 246.268C131.097 247.793 131.182 249.447 130.793 251.022C130.403 252.596 129.555 254.019 128.356 255.112C127.158 256.204 125.662 256.916 124.059 257.159C122.455 257.401 120.816 257.163 119.348 256.473C117.88 255.784 116.649 254.675 115.811 253.286C114.974 251.898 114.567 250.292 114.642 248.672C114.692 247.596 114.953 246.54 115.41 245.565C115.868 244.591 116.514 243.716 117.31 242.99C118.106 242.265 119.037 241.703 120.05 241.338C121.063 240.972 122.138 240.81 123.214 240.86ZM281.888 467.753C281.441 471.148 280.383 474.434 278.767 477.453L272.146 489.834C274.429 491.134 276.846 492.558 279.078 493.79C281.805 495.203 284.973 495.508 287.92 494.639C290.866 493.77 293.363 491.795 294.887 489.128C295.673 487.741 296.176 486.213 296.368 484.631C296.56 483.049 296.437 481.445 296.006 479.911C295.575 478.377 294.844 476.944 293.856 475.694C292.868 474.443 291.642 473.401 290.249 472.628L281.888 467.745V467.753ZM192.282 469.265C191.855 472.045 192.377 474.888 193.764 477.335C195.151 479.782 197.322 481.69 199.927 482.752C202.532 483.813 205.419 483.966 208.121 483.185C210.824 482.404 213.184 480.736 214.822 478.449L230.627 448.358C231.327 445.643 231.095 442.772 229.969 440.205C228.842 437.638 226.886 435.524 224.414 434.201C221.943 432.878 219.098 432.424 216.338 432.911C213.577 433.398 211.06 434.798 209.19 436.887L192.282 469.265ZM195.105 431.092L177.318 464.311C176.566 465.794 175.526 467.113 174.26 468.19C172.993 469.267 171.524 470.081 169.939 470.584C168.354 471.087 166.684 471.269 165.028 471.12C163.372 470.97 161.762 470.492 160.293 469.714C158.823 468.936 157.524 467.872 156.47 466.586C155.416 465.3 154.629 463.816 154.155 462.222C153.681 460.628 153.529 458.956 153.708 457.303C153.888 455.65 154.395 454.049 155.2 452.594L173.346 418.671C177.986 414.418 183.153 412.139 189.288 415.413C195.473 418.713 196.708 424.799 195.11 431.092H195.105ZM162.2 408.04C163.551 405.081 163.697 401.714 162.609 398.649C161.52 395.585 159.281 393.064 156.367 391.622C153.452 390.179 150.09 389.927 146.994 390.92C143.897 391.913 141.308 394.072 139.775 396.94L127.125 420.593C125.729 423.196 125.299 426.21 125.911 429.1C126.524 431.99 128.139 434.57 130.471 436.384C132.803 438.198 135.701 439.128 138.653 439.01C141.605 438.892 144.42 437.734 146.6 435.74L162.2 408.04ZM229.2 484.498L244.324 455.679C246.366 453.4 249.173 451.948 252.213 451.599C255.253 451.249 258.316 452.025 260.823 453.781C263.33 455.536 265.107 458.149 265.817 461.126C266.528 464.102 266.124 467.236 264.681 469.935L252.552 492.616C251.146 495.244 248.849 497.285 246.072 498.37C243.296 499.456 240.223 499.514 237.408 498.536C234.592 497.557 232.218 495.606 230.713 493.032C229.209 490.459 228.672 487.433 229.2 484.5V484.498ZM118.108 361.785L156.794 274.257L157.931 274.781C172.099 282.637 185.108 279.59 199.242 276.281C211.204 273.481 224.173 270.44 238.728 276.281C227.791 285.618 219.128 295.254 207.197 304.214C198.745 310.507 189.937 316.307 180.817 321.586C179.545 322.335 178.446 323.347 177.595 324.553C176.743 325.759 176.158 327.133 175.878 328.583C175.598 330.032 175.63 331.525 175.971 332.962C176.312 334.399 176.954 335.746 177.856 336.916C204.83 371.624 233.921 359.848 261.481 348.691C277.416 342.24 292.718 336.046 304.124 342.547L373.024 381.819C375.801 383.377 377.855 385.963 378.743 389.021C379.631 392.079 379.283 395.363 377.773 398.167C376.253 400.88 373.735 402.893 370.754 403.778C367.773 404.663 364.564 404.351 361.81 402.908C346.154 393.79 330.059 385.108 314.304 376.093C312.464 375.04 310.281 374.762 308.236 375.318C306.191 375.875 304.45 377.222 303.398 379.062C302.345 380.902 302.067 383.084 302.624 385.13C303.18 387.175 304.527 388.915 306.367 389.968C322.139 398.997 337.996 407.881 353.853 416.762C356.599 418.283 358.636 420.824 359.522 423.837C360.408 426.849 360.071 430.089 358.585 432.854C357.098 435.62 354.582 437.688 351.581 438.612C348.581 439.535 345.337 439.239 342.553 437.788C322.068 425.773 300.789 414.288 280.053 402.619C278.206 401.61 276.037 401.37 274.014 401.951C271.992 402.532 270.281 403.887 269.252 405.723C268.224 407.558 267.96 409.725 268.52 411.753C269.079 413.782 270.416 415.507 272.241 416.556C289.221 426.111 306.163 435.829 323.141 445.345C324.519 446.091 325.736 447.102 326.724 448.32C327.711 449.537 328.449 450.937 328.895 452.439C329.341 453.942 329.487 455.518 329.325 457.077C329.162 458.635 328.694 460.147 327.947 461.525C327.2 462.903 326.189 464.121 324.972 465.108C323.755 466.095 322.355 466.833 320.852 467.279C319.35 467.726 317.774 467.872 316.215 467.709C314.656 467.547 313.145 467.078 311.767 466.332L275.58 445.859C272.03 441.582 267.307 438.436 261.993 436.809C256.678 435.181 251.004 435.142 245.668 436.697C243.437 429.589 238.508 423.639 231.94 420.125C225.371 416.611 217.687 415.812 210.536 417.9C208.495 411.385 204.177 405.823 198.371 402.231C192.565 398.639 185.66 397.258 178.92 398.341C178.114 393.283 175.958 388.536 172.68 384.601C169.401 380.666 165.122 377.689 160.292 375.983C155.463 374.278 150.263 373.907 145.24 374.91C140.218 375.913 135.559 378.254 131.756 381.684C130.046 373.449 127.365 365.653 118.108 361.784V361.785ZM424.487 125.685C441.808 155.42 450.907 189.228 450.851 223.64C450.851 225.761 451.694 227.796 453.194 229.297C454.694 230.797 456.729 231.64 458.851 231.64C460.972 231.64 463.007 230.797 464.508 229.297C466.008 227.796 466.851 225.761 466.851 223.64C466.893 186.414 457.04 149.846 438.3 117.681C437.239 115.849 435.494 114.514 433.448 113.969C431.403 113.424 429.225 113.713 427.393 114.774C425.562 115.835 424.226 117.58 423.681 119.625C423.136 121.671 423.426 123.849 424.487 125.681V125.685ZM71.8717 105.393C69.8431 105.94 67.6807 105.666 65.8523 104.631C64.0239 103.596 62.6766 101.883 62.102 99.8616C61.5273 97.8407 61.7715 95.6747 62.7817 93.8325C63.7918 91.9902 65.4868 90.6197 67.4997 90.0176L101.3 80.3736C136.026 42.8695 183.194 19.2582 234.028 13.9329C284.862 8.60773 335.899 21.9313 377.644 51.4246L374.244 39.5076C373.685 37.4756 373.952 35.3053 374.986 33.4689C376.019 31.6325 377.737 30.2787 379.763 29.7019C381.79 29.1252 383.963 29.3722 385.809 30.3892C387.654 31.4063 389.024 33.1111 389.619 35.1326L399.886 71.1196C400.23 72.3322 400.283 73.6089 400.04 74.8457C399.797 76.0825 399.265 77.2444 398.488 78.2368C397.711 79.2292 396.711 80.0239 395.568 80.5561C394.426 81.0884 393.173 81.3431 391.914 81.2996L355.081 82.6216C352.967 82.6963 350.911 81.9284 349.364 80.4868C347.817 79.0452 346.905 77.048 346.831 74.9346C346.756 72.8213 347.524 70.7648 348.966 69.2176C350.407 67.6704 352.404 66.7593 354.518 66.6846L370.7 66.0996C332.268 38.1282 284.938 25.1668 237.618 29.6545C190.297 34.1422 146.247 55.7695 113.759 90.4666L114.984 124.556C115.024 125.604 114.857 126.651 114.493 127.635C114.128 128.619 113.573 129.521 112.859 130.29C112.145 131.059 111.286 131.68 110.331 132.116C109.377 132.552 108.345 132.796 107.297 132.833C106.248 132.87 105.202 132.7 104.219 132.332C103.236 131.964 102.336 131.405 101.569 130.688C100.803 129.972 100.185 129.111 99.7523 128.155C99.3192 127.199 99.0791 126.167 99.0457 125.118L98.4647 108.94C74.1529 142.236 61.0821 182.412 61.1487 223.64C61.1487 225.761 60.3059 227.796 58.8056 229.297C57.3053 230.797 55.2704 231.64 53.1487 231.64C51.027 231.64 48.9921 230.797 47.4919 229.297C45.9916 227.796 45.1487 225.761 45.1487 223.64C45.0783 180.069 58.5699 137.556 83.7517 102L71.8717 105.39V105.393ZM256 101.713C250.335 101.712 244.797 103.392 240.087 106.539C235.377 109.686 231.705 114.16 229.537 119.393C227.369 124.627 226.802 130.386 227.907 135.942C229.012 141.498 231.74 146.601 235.745 150.607C239.751 154.613 244.855 157.341 250.411 158.446C255.967 159.551 261.726 158.984 266.959 156.816C272.193 154.649 276.666 150.978 279.814 146.267C282.961 141.557 284.641 136.02 284.641 130.355C284.641 126.593 283.9 122.869 282.461 119.394C281.022 115.919 278.912 112.761 276.252 110.102C273.593 107.442 270.435 105.332 266.96 103.893C263.485 102.453 259.761 101.713 256 101.713ZM208.1 219.548H303.9C304.976 219.548 306.038 219.3 307.003 218.823C307.968 218.345 308.81 217.652 309.463 216.797C310.117 215.941 310.564 214.947 310.77 213.89C310.977 212.834 310.937 211.744 310.654 210.706C307.375 198.724 300.25 188.151 290.375 180.615C280.499 173.078 268.421 168.996 255.999 168.996C243.576 168.996 231.498 173.078 221.623 180.615C211.747 188.151 204.622 198.724 201.344 210.706C201.061 211.744 201.021 212.834 201.227 213.89C201.434 214.946 201.881 215.941 202.535 216.796C203.188 217.651 204.03 218.345 204.995 218.822C205.96 219.299 207.021 219.547 208.098 219.547L208.1 219.548ZM163.018 106.93C158.242 106.93 153.573 108.346 149.602 110.999C145.631 113.652 142.536 117.424 140.709 121.836C138.881 126.248 138.403 131.103 139.335 135.787C140.266 140.472 142.566 144.774 145.943 148.151C149.32 151.528 153.623 153.828 158.307 154.76C162.991 155.691 167.846 155.213 172.258 153.386C176.671 151.558 180.442 148.463 183.095 144.492C185.749 140.521 187.165 135.852 187.165 131.077C187.165 127.906 186.54 124.766 185.327 121.836C184.113 118.906 182.335 116.244 180.093 114.002C177.85 111.76 175.188 109.981 172.259 108.767C169.329 107.554 166.189 106.93 163.018 106.93ZM348.983 106.93C344.207 106.929 339.538 108.345 335.567 110.999C331.596 113.652 328.501 117.423 326.673 121.835C324.845 126.248 324.367 131.103 325.299 135.787C326.23 140.471 328.53 144.774 331.907 148.151C335.284 151.528 339.586 153.828 344.271 154.76C348.955 155.691 353.81 155.213 358.222 153.386C362.634 151.558 366.406 148.463 369.059 144.492C371.712 140.521 373.129 135.853 373.129 131.077C373.129 127.906 372.504 124.766 371.291 121.836C370.078 118.906 368.299 116.244 366.057 114.002C363.815 111.76 361.153 109.981 358.223 108.768C355.294 107.554 352.154 106.93 348.983 106.93ZM124.1 207.842H185.555C187.999 198.126 192.438 189.026 198.59 181.12C192.957 174.831 185.759 170.148 177.727 167.546C169.695 164.945 161.118 164.519 152.868 166.312C144.618 168.105 136.991 172.052 130.764 177.752C124.536 183.452 119.93 190.701 117.416 198.76C117.089 199.808 117.014 200.917 117.195 202C117.377 203.082 117.811 204.107 118.461 204.991C119.112 205.875 119.961 206.593 120.94 207.089C121.92 207.584 123.002 207.842 124.1 207.842Z" fill="white"/>
</svg>
