<svg width="512" height="512" viewBox="0 0 512 512" fill="none" xmlns="http://www.w3.org/2000/svg">
<path fill-rule="evenodd" clip-rule="evenodd" d="M259.143 74.9295L275.265 117.394C275.75 118.671 276.878 119.49 278.242 119.557L323.609 121.768C325.03 121.837 326.2 122.732 326.64 124.085C327.079 125.438 326.659 126.85 325.55 127.741L290.147 156.196C289.083 157.051 288.652 158.378 289.01 159.695L300.926 203.525C301.299 204.898 300.81 206.286 299.659 207.122C298.508 207.958 297.036 207.994 295.845 207.215L257.842 182.339C256.7 181.591 255.305 181.591 254.163 182.339L216.161 207.215C214.971 207.994 213.498 207.958 212.348 207.122C211.197 206.286 210.708 204.897 211.081 203.525L222.997 159.695C223.355 158.378 222.924 157.051 221.86 156.196L186.457 127.741C185.348 126.85 184.927 125.438 185.367 124.085C185.806 122.732 186.977 121.838 188.398 121.768L233.765 119.557C235.129 119.491 236.257 118.671 236.741 117.394L252.863 74.9295C253.368 73.5995 254.58 72.7635 256.003 72.7635C257.426 72.7635 258.638 73.5995 259.143 74.9295ZM171.279 61.5705L199.655 87.1215C202.934 90.0725 207.985 89.8065 210.936 86.5275C213.887 83.2485 213.621 78.1975 210.342 75.2465L181.966 49.6955C178.687 46.7445 173.636 47.0105 170.685 50.2895C167.734 53.5685 167.999 58.6195 171.279 61.5705ZM330.039 49.6955L301.497 75.3955C298.218 78.3465 297.952 83.3975 300.903 86.6765C303.854 89.9555 308.905 90.2215 312.184 87.2705L340.726 61.5705C344.005 58.6195 344.271 53.5685 341.32 50.2895C338.368 47.0105 333.318 46.7445 330.039 49.6955ZM264.003 43.0465C264.003 47.4645 260.421 51.0465 256.003 51.0465C251.585 51.0465 248.003 47.4645 248.003 43.0465V13.6875C248.003 9.2695 251.585 5.6875 256.003 5.6875C260.421 5.6875 264.003 9.2695 264.003 13.6875V43.0465ZM256.003 232.885C287.002 232.885 312.132 258.014 312.132 289.012C312.132 320.011 287.002 345.141 256.003 345.141C225.004 345.141 199.875 320.011 199.875 289.012C199.875 258.013 225.004 232.885 256.003 232.885ZM366.375 454.208C360.415 398.516 313.276 355.141 256.003 355.141C198.729 355.141 151.59 398.517 145.63 454.21V476.647C145.63 492.987 158.957 506.314 175.297 506.314H336.708C353.048 506.314 366.375 492.987 366.375 476.647V454.208ZM423.751 273.645C446.942 273.645 465.742 292.445 465.742 315.635C465.742 338.826 446.942 357.626 423.751 357.626C400.56 357.626 381.76 338.826 381.76 315.635C381.759 292.445 400.559 273.645 423.751 273.645ZM88.2546 273.645C111.446 273.645 130.246 292.445 130.246 315.635C130.246 338.826 111.446 357.626 88.2546 357.626C65.0636 357.626 46.2636 338.826 46.2636 315.635C46.2636 292.445 65.0636 273.645 88.2546 273.645ZM88.2536 368.843C112.726 368.843 134.725 379.427 149.925 396.267C139.198 412.509 132.085 431.41 129.793 451.896H27.0386C20.8116 451.896 15.4536 449.189 11.7586 444.177C8.0636 439.165 7.0626 433.246 8.9046 427.297C19.3896 393.438 50.9506 368.843 88.2536 368.843ZM423.75 368.843C461.055 368.843 492.615 393.438 503.099 427.297C504.941 433.246 503.94 439.164 500.245 444.177C496.55 449.19 491.193 451.896 484.965 451.896H382.211C379.919 431.41 372.805 412.51 362.079 396.267C377.28 379.427 399.279 368.843 423.75 368.843ZM81.9496 74.9295L98.0716 117.394C98.5566 118.671 99.6846 119.49 101.049 119.557L146.416 121.768C147.837 121.837 149.007 122.732 149.447 124.085C149.886 125.438 149.466 126.85 148.357 127.741L112.954 156.196C111.89 157.051 111.459 158.378 111.817 159.695L123.733 203.525C124.106 204.898 123.617 206.286 122.466 207.122C121.315 207.958 119.843 207.994 118.652 207.215L80.6486 182.339C79.5066 181.591 78.1116 181.591 76.9696 182.339L38.9676 207.215C37.7776 207.994 36.3046 207.958 35.1546 207.122C34.0036 206.286 33.5146 204.897 33.8876 203.525L45.8036 159.695C46.1616 158.378 45.7306 157.051 44.6666 156.196L9.2636 127.74C8.1546 126.849 7.7336 125.437 8.1736 124.084C8.6126 122.731 9.7836 121.837 11.2046 121.767L56.5716 119.556C57.9356 119.49 59.0636 118.67 59.5476 117.393L75.6706 74.9295C76.1756 73.5995 77.3876 72.7635 78.8106 72.7635C80.2336 72.7635 81.4446 73.5995 81.9496 74.9295ZM435.806 74.9295L451.928 117.394C452.413 118.671 453.541 119.49 454.905 119.557L500.272 121.768C501.693 121.837 502.863 122.732 503.303 124.085C503.742 125.438 503.322 126.85 502.213 127.741L466.81 156.196C465.746 157.051 465.315 158.378 465.673 159.695L477.589 203.525C477.962 204.898 477.473 206.286 476.323 207.122C475.172 207.958 473.7 207.994 472.509 207.215L434.506 182.339C433.364 181.591 431.969 181.591 430.827 182.339L392.825 207.215C391.635 207.994 390.162 207.958 389.011 207.122C387.86 206.286 387.371 204.897 387.744 203.525L399.66 159.695C400.018 158.378 399.587 157.051 398.523 156.196L363.12 127.741C362.011 126.85 361.59 125.438 362.03 124.085C362.469 122.732 363.64 121.838 365.061 121.768L410.428 119.557C411.792 119.491 412.92 118.671 413.404 117.394L429.526 74.9295C430.031 73.5995 431.243 72.7635 432.666 72.7635C434.089 72.7635 435.301 73.5995 435.806 74.9295Z" fill="white"/>
</svg>
