<?xml version="1.0" encoding="UTF-8"?>
<svg id="Layer_2" data-name="Layer 2" xmlns="http://www.w3.org/2000/svg" viewBox="0 0 850 850">
  <defs>
    <style>
      .cls-1 {
        fill: #fff;
      }

      .cls-2 {
        fill: #bbc14d;
      }

      .cls-3 {
        fill: #9ea700;
      }

      .cls-4 {
        fill: #1877f2;
      }
    </style>
  </defs>
  <g id="Layer_1-2" data-name="Layer 1">
    <g>
      <g>
        <path class="cls-2" d="m617.5,313.12c0,36.6-13.64,70.12-42.93,105.46-26.21,31.62-63.86,63.71-107.47,100.87-14.9,12.69-31.79,27.09-49.31,42.42-4.59,4.02-10.47,6.25-16.58,6.28h-.15c-6.16,0-12.1-2.23-16.73-6.29-17.49-15.29-34.35-29.67-49.22-42.35l-.08-.06c-43.6-37.16-81.27-69.26-107.47-100.88-29.29-35.33-42.93-68.85-42.93-105.46s12.2-68.38,34.34-92.4c22.41-24.31,53.16-37.69,86.59-37.69,24.99,0,47.87,7.89,68.02,23.47,10.17,7.87,19.38,17.48,27.49,28.72l.15-.2c8.08-11.15,17.24-20.7,27.35-28.51,20.14-15.58,43.03-23.47,68.01-23.47,33.43,0,64.18,13.38,86.59,37.69,22.14,24.02,34.34,56.83,34.34,92.4Z"/>
        <path class="cls-3" d="m624.95,308.73c0,36.6-13.64,70.12-42.93,105.46-26.21,31.62-63.86,63.71-107.47,100.87-14.9,12.69-31.79,27.09-49.31,42.42-4.59,4.02-10.47,6.25-16.58,6.28V230.63c8.08-11.15,17.24-20.7,27.35-28.51,20.14-15.58,43.03-23.47,68.01-23.47,33.43,0,64.18,13.38,86.59,37.69,22.14,24.02,34.34,56.83,34.34,92.4Z"/>
      </g>
      <rect class="cls-1" width="850" height="850" rx="72.61" ry="72.61"/>
      <g>
        <path class="cls-4" d="m614.33,425c0,94.5-69.24,172.83-159.75,187.03v-132.3h44.11l8.39-54.73h-52.51v-35.51c0-14.98,7.34-29.57,30.85-29.57h23.87v-46.59s-21.67-3.7-42.38-3.7c-43.24,0-71.51,26.21-71.51,73.66v41.71h-48.07v54.73h48.07v132.3c-90.51-14.2-159.75-92.53-159.75-187.03,0-104.56,84.77-189.33,189.33-189.33s189.33,84.77,189.33,189.33Z"/>
        <path class="cls-1" d="m498.7,479.73l8.39-54.73h-52.51v-35.51c0-14.97,7.33-29.57,30.85-29.57h23.87v-46.59s-21.67-3.7-42.38-3.7c-43.25,0-71.51,26.21-71.51,73.66v41.71h-48.07v54.73h48.07v132.3c9.64,1.51,19.52,2.3,29.58,2.3s19.94-.79,29.58-2.3v-132.3h44.11Z"/>
      </g>
    </g>
  </g>
</svg>