<svg width="17" height="17" viewBox="0 0 17 17" fill="none" xmlns="http://www.w3.org/2000/svg">
<path d="M11.8883 8.55384C11.7963 8.4615 11.6593 8.4276 11.5348 8.46529C11.4574 8.4888 11.3937 8.49989 11.3335 8.49989C10.9427 8.49989 10.6252 8.18203 10.6252 7.79155C10.6252 7.73275 10.6362 7.66807 10.6605 7.58818C10.6971 7.46366 10.6632 7.32843 10.5712 7.23642L10.0635 6.72903C9.60691 6.27248 8.81003 6.27248 8.35347 6.72903L8.32303 6.75948L4.25006 2.68648V2.18152C4.25006 1.8014 4.04529 1.44792 3.71465 1.25909L1.59237 0.0464553C1.45541 -0.0324035 1.28039 -0.00922729 1.16627 0.103532L0.10375 1.16605C-0.00901003 1.27881 -0.0325182 1.45346 0.0463405 1.59215L1.25967 3.71513C1.44853 4.04475 1.80199 4.24985 2.18177 4.24985H2.68673L6.75953 8.32264L6.72928 8.35289C6.50101 8.58117 6.3751 8.88485 6.3751 9.20825C6.3751 9.53129 6.50101 9.83497 6.72928 10.0632L7.23703 10.5706C7.32974 10.663 7.46531 10.6969 7.58913 10.6595C7.66798 10.636 7.73233 10.6249 7.7918 10.6249C8.18264 10.6249 8.50014 10.9428 8.50014 11.3333C8.50014 11.3941 8.48908 11.4578 8.46623 11.5335C8.42749 11.6591 8.46139 11.7953 8.55409 11.888L13.0615 16.3954C13.4516 16.7852 13.9704 17 14.5211 17C15.0717 17 15.5905 16.7852 15.9806 16.3954L16.3957 15.9804C16.7859 15.591 17.0003 15.0725 17.0003 14.5208C17.0003 13.9692 16.7859 13.4507 16.3957 13.0613L11.8883 8.55384Z" fill="#8091A7"/>
<path d="M9.27478 5.67375C9.76593 5.69069 10.2238 5.88752 10.5642 6.22852L11.0719 6.73557C11.2552 6.91853 11.3652 7.16274 11.3812 7.42249C11.3922 7.59923 11.5313 7.74068 11.7076 7.7542C11.8446 7.76459 11.9795 7.80055 12.1088 7.86178C12.1566 7.88392 12.2078 7.89531 12.2597 7.89531C12.2839 7.89531 12.3088 7.89289 12.333 7.88771C12.6076 7.8296 12.8504 7.80125 13.0905 7.80125C15.2445 7.8216 17.0002 6.05835 17.0002 3.90529C17.0002 3.28099 16.8418 2.66706 16.5291 2.08081C16.4703 1.97081 16.3582 1.89992 16.2337 1.89371C16.1078 1.89026 15.9909 1.94767 15.9217 2.0511L14.9069 3.57362C14.7686 3.78114 14.5368 3.90532 14.2871 3.90532H14.1121C13.43 3.90532 12.8261 3.49615 12.573 2.86286C12.4872 2.64843 12.5066 2.40183 12.6255 2.20327L13.6085 0.565893C13.6721 0.459708 13.6465 0.324137 13.5884 0.214499C13.531 0.10486 13.3906 0.0301517 13.2668 0.0232454C13.2128 0.0156417 13.1595 0.00939941 13.1042 0.00939941C10.9563 0.00939941 9.20831 1.75708 9.20831 3.91983C9.2097 4.3546 9.12599 4.78001 8.95928 5.18503C8.91502 5.29224 8.92607 5.41433 8.98903 5.51188C9.05205 5.6094 9.15857 5.66993 9.27478 5.67375Z" fill="#8091A7"/>
<path d="M7.35047 11.3589C7.10699 11.3264 6.88907 11.2244 6.7362 11.0715L6.22845 10.5648C5.95797 10.2933 5.77605 9.95366 5.70274 9.58217C5.67783 9.45384 5.58377 9.34975 5.45856 9.3117C5.33334 9.27401 5.19777 9.30755 5.10507 9.40025L0.518808 13.9865C0.184015 14.3209 0 14.7657 0 15.2389C0 15.757 0.226881 16.2481 0.621872 16.5861C0.939399 16.8576 1.33645 16.9911 1.74044 16.9911C2.22259 16.9911 2.71374 16.8005 3.08658 16.4273L7.55384 11.9604C7.6493 11.8652 7.68181 11.7241 7.63894 11.5965C7.59608 11.4689 7.48398 11.3769 7.35047 11.3589Z" fill="#8091A7"/>
</svg>
