<?xml version="1.0" encoding="UTF-8"?>
<svg id="Layer_2" data-name="Layer 2" xmlns="http://www.w3.org/2000/svg" viewBox="0 0 379.58 168">
  <defs>
    <style>
      .cls-1 {
        fill: #9ea700;
      }
    </style>
  </defs>
  <g id="Layer_4" data-name="Layer 4">
    <g>
      <path class="cls-1" d="m0,86.59c0-28.8,21.42-50.95,50.77-50.95,25.29,0,41.54,16.25,45.97,31.38l-21.05,8.31c-3.14-11.26-12-18.83-24.55-18.83-15.51,0-27.69,11.82-27.69,29.91s12.18,29.91,27.88,29.91c12.55,0,21.79-7.57,24.92-18.65l21.05,8.49c-4.43,14.77-20.68,31.02-46.52,31.02-28.99,0-50.78-21.79-50.78-50.59Z"/>
      <path class="cls-1" d="m275.82,86.4c0-29.17,21.42-50.95,51.88-50.95s51.88,21.79,51.88,50.95-21.6,50.77-51.88,50.77-51.88-21.79-51.88-50.77Zm80.12-.18c0-17.35-11.26-29.72-28.06-29.72s-28.62,12.37-28.62,29.91,11.63,29.91,28.62,29.91,28.06-12.55,28.06-30.09h0Z"/>
      <g>
        <path class="cls-1" d="m195.33,37.66l-37.11,97.29-12.55,33.05h-23.08l13.29-33.05h-7.39l-34.34-97.29h24.19l25.11,78.46,27.51-78.46h24.37Z"/>
        <rect class="cls-1" x="136.63" y="106.15" width="16.53" height="12.26"/>
      </g>
      <polygon class="cls-1" points="201.42 16.18 201.42 134.96 224.87 134.96 224.87 0 201.42 16.18"/>
      <polygon class="cls-1" points="241.11 16.18 241.11 134.96 264.56 134.96 264.56 0 241.11 16.18"/>
    </g>
  </g>
</svg>