<svg width="63" height="29" viewBox="0 0 63 29" fill="none" xmlns="http://www.w3.org/2000/svg">
<path d="M0 14.9469C0 10.067 3.55514 6.31396 8.42644 6.31396C12.6239 6.31396 15.3209 9.06734 16.0562 11.631L12.5625 13.039C12.0413 11.1311 10.5708 9.84846 8.48785 9.84846C5.91361 9.84846 3.89206 11.8512 3.89206 14.9164C3.89206 17.9815 5.91361 19.9843 8.51938 19.9843C10.6023 19.9843 12.1359 18.7016 12.6554 16.8243L16.1491 18.2628C15.4139 20.7654 12.7168 23.5188 8.42809 23.5188C3.61655 23.5171 0 19.8267 0 14.9469Z" fill="#9EA700"/>
<path d="M45.778 14.9146C45.778 9.97211 49.3331 6.28174 54.3886 6.28174C59.4442 6.28174 62.9993 9.97381 62.9993 14.9146C62.9993 19.8555 59.4143 23.517 54.3886 23.517C49.363 23.517 45.778 19.825 45.778 14.9146ZM59.0757 14.8841C59.0757 11.9444 57.2069 9.84842 54.4185 9.84842C51.6302 9.84842 49.6684 11.9444 49.6684 14.9163C49.6684 17.8883 51.5986 19.9843 54.4185 19.9843C57.2384 19.9843 59.0757 17.8578 59.0757 14.8858V14.8841Z" fill="#9EA700"/>
<path d="M32.4189 6.65576L26.2597 23.1405L24.1767 28.7404H20.3461L22.5519 23.1405H21.3253L15.6258 6.65576H19.6407L23.8083 19.9499L28.3742 6.65576H32.4189Z" fill="#9EA700"/>
<path d="M25.4166 18.2598H22.6731V20.3371H25.4166V18.2598Z" fill="#9EA700"/>
<path d="M33.4306 3.01496V23.1409H37.3226V0.273438L33.4306 3.01496Z" fill="#9EA700"/>
<path d="M40.0184 3.01496V23.1409H43.9105V0.273438L40.0184 3.01496Z" fill="#9EA700"/>
</svg>
