<svg width="101" height="99" viewBox="0 0 101 99" fill="none" xmlns="http://www.w3.org/2000/svg">
<g id="undraw_no_data_re_kwbl 1" clip-path="url(#clip0_3167_1255)">
<path id="Vector" d="M64.1189 22.2645H36.9038C36.2836 22.2653 35.689 22.513 35.2505 22.9534C34.8119 23.3938 34.5652 23.9908 34.5645 24.6136V85.3519L34.2526 85.4474L27.5763 87.5005C27.2599 87.5973 26.9181 87.5642 26.626 87.4083C26.3339 87.2524 26.1154 86.9865 26.0184 86.6689L6.15942 21.5301C6.06278 21.2123 6.09572 20.8691 6.251 20.5757C6.40628 20.2824 6.6712 20.0629 6.98753 19.9656L17.2757 16.8022L47.1015 7.63474L57.3896 4.47137C57.5461 4.42298 57.7107 4.40607 57.8738 4.42161C58.0368 4.43715 58.1953 4.48483 58.34 4.56192C58.4847 4.63901 58.6128 4.744 58.7171 4.87089C58.8214 4.99777 58.8997 5.14405 58.9476 5.30136L64.0238 21.9513L64.1189 22.2645Z" fill="#F2F2F2"/>
<path id="Vector_2" d="M70.0577 21.9523L63.9397 1.88521C63.8379 1.55085 63.6715 1.23991 63.45 0.970163C63.2285 0.700411 62.9562 0.477133 62.6488 0.313085C62.3413 0.149038 62.0046 0.0474347 61.6581 0.0140864C61.3115 -0.0192619 60.9617 0.0162979 60.6288 0.11873L46.1643 4.56468L16.3401 13.7338L1.87562 18.1813C1.20367 18.3885 0.641041 18.8549 0.311224 19.4782C-0.0185917 20.1015 -0.0886493 20.8308 0.116432 21.5059L21.0265 90.0869C21.1931 90.6319 21.5292 91.1089 21.9856 91.4479C22.442 91.787 22.9946 91.9702 23.5623 91.9708C23.825 91.9709 24.0863 91.9313 24.3373 91.8534L34.2527 88.8059L34.5646 88.7088V88.3815L34.2527 88.477L24.2453 91.5542C23.6522 91.7358 23.0116 91.6737 22.464 91.3816C21.9164 91.0895 21.5066 90.5912 21.3243 89.996L0.415924 21.4135C0.325642 21.1186 0.294176 20.8088 0.323327 20.5016C0.352479 20.1945 0.441672 19.8962 0.585806 19.6237C0.72994 19.3513 0.926182 19.11 1.16329 18.9138C1.4004 18.7176 1.67372 18.5703 1.9676 18.4804L16.4321 14.0329L46.2564 4.86535L60.7209 0.417844C60.9438 0.349534 61.1755 0.314704 61.4086 0.314486C61.9088 0.315613 62.3954 0.477534 62.7973 0.776529C63.1992 1.07553 63.4951 1.49589 63.6419 1.97604L69.7318 21.9523L69.8285 22.2655H70.1529L70.0577 21.9523Z" fill="#3F3D56"/>
<path id="Vector_3" d="M19.1324 20.0163C18.8319 20.0161 18.5393 19.9191 18.2976 19.7397C18.0559 19.5603 17.8778 19.3078 17.7895 19.0193L15.7808 12.4307C15.7268 12.2537 15.7081 12.0678 15.7256 11.8836C15.7432 11.6993 15.7968 11.5203 15.8833 11.3569C15.9697 11.1934 16.0874 11.0487 16.2296 10.9309C16.3718 10.8131 16.5357 10.7246 16.712 10.6705L44.15 2.23526C44.5059 2.12619 44.8904 2.16339 45.2191 2.33869C45.5477 2.51399 45.7937 2.81307 45.903 3.17028L47.9117 9.7589C48.0203 10.1163 47.9832 10.5024 47.8086 10.8324C47.6341 11.1624 47.3363 11.4094 46.9806 11.5192L19.5425 19.9544C19.4096 19.9954 19.2714 20.0162 19.1324 20.0163Z" fill="#0E3A5D"/>
<path id="Vector_4" d="M29.6547 7.03949C31.3773 7.03949 32.7737 5.63722 32.7737 3.90744C32.7737 2.17766 31.3773 0.775391 29.6547 0.775391C27.9321 0.775391 26.5356 2.17766 26.5356 3.90744C26.5356 5.63722 27.9321 7.03949 29.6547 7.03949Z" fill="#0E3A5D"/>
<path id="Vector_5" d="M29.6548 5.89045C30.7456 5.89045 31.6298 5.00249 31.6298 3.90714C31.6298 2.81179 30.7456 1.92383 29.6548 1.92383C28.564 1.92383 27.6797 2.81179 27.6797 3.90714C27.6797 5.00249 28.564 5.89045 29.6548 5.89045Z" fill="white"/>
<path id="Vector_6" d="M93.9821 91.1702H41.2704C40.919 91.1698 40.582 91.0294 40.3335 90.7799C40.085 90.5304 39.9452 90.192 39.9448 89.8391V26.4151C39.9452 26.0622 40.085 25.7238 40.3335 25.4743C40.582 25.2247 40.919 25.0844 41.2704 25.084H93.9821C94.3335 25.0844 94.6705 25.2248 94.919 25.4743C95.1675 25.7239 95.3073 26.0622 95.3077 26.4151V89.8391C95.3073 90.192 95.1675 90.5303 94.919 90.7799C94.6705 91.0294 94.3335 91.1698 93.9821 91.1702Z" fill="#E6E6E6"/>
<path id="Vector_7" d="M69.7315 21.9512H36.9036C36.2008 21.9522 35.527 22.233 35.0301 22.732C34.5331 23.2311 34.2534 23.9077 34.2524 24.6134V88.4759L34.5643 88.3804V24.6134C34.5651 23.9906 34.8118 23.3936 35.2503 22.9532C35.6889 22.5129 36.2834 22.2651 36.9036 22.2644H69.8282L69.7315 21.9512ZM98.3486 21.9512H36.9036C36.2008 21.9522 35.527 22.233 35.0301 22.732C34.5331 23.2311 34.2534 23.9077 34.2524 24.6134V96.3374C34.2534 97.0431 34.5331 97.7197 35.0301 98.2188C35.527 98.7178 36.2008 98.9986 36.9036 98.9996H98.3486C99.0514 98.9986 99.7252 98.7178 100.222 98.2188C100.719 97.7197 100.999 97.0431 101 96.3374V24.6134C100.999 23.9077 100.719 23.2311 100.222 22.732C99.7252 22.233 99.0514 21.9522 98.3486 21.9512ZM100.688 96.3374C100.687 96.9601 100.44 97.5572 100.002 97.9975C99.5634 98.4379 98.9688 98.6856 98.3486 98.6864H36.9036C36.2834 98.6856 35.6889 98.4379 35.2503 97.9975C34.8118 97.5572 34.5651 96.9601 34.5643 96.3374V24.6134C34.5651 23.9906 34.8118 23.3936 35.2503 22.9532C35.6889 22.5129 36.2834 22.2651 36.9036 22.2644H98.3486C98.9688 22.2651 99.5634 22.5129 100.002 22.9532C100.44 23.3936 100.687 23.9906 100.688 24.6134V96.3374Z" fill="#3F3D56"/>
<path id="Vector_8" d="M81.9737 28.8422H53.2786C52.9064 28.8417 52.5497 28.6931 52.2866 28.4289C52.0234 28.1647 51.8754 27.8064 51.875 27.4327V20.5422C51.8754 20.1686 52.0234 19.8103 52.2866 19.5461C52.5497 19.2819 52.9064 19.1332 53.2786 19.1328H81.9737C82.3458 19.1332 82.7026 19.2819 82.9657 19.5461C83.2288 19.8103 83.3768 20.1686 83.3773 20.5422V27.4327C83.3768 27.8064 83.2288 28.1647 82.9657 28.4289C82.7026 28.6931 82.3458 28.8417 81.9737 28.8422Z" fill="#0E3A5D"/>
<path id="Vector_9" d="M67.6264 19.602C69.349 19.602 70.7454 18.1997 70.7454 16.4699C70.7454 14.7402 69.349 13.3379 67.6264 13.3379C65.9038 13.3379 64.5073 14.7402 64.5073 16.4699C64.5073 18.1997 65.9038 19.602 67.6264 19.602Z" fill="#0E3A5D"/>
<path id="Vector_10" d="M67.6263 18.3779C68.6756 18.3779 69.5261 17.5238 69.5261 16.4702C69.5261 15.4166 68.6756 14.5625 67.6263 14.5625C66.5771 14.5625 65.7266 15.4166 65.7266 16.4702C65.7266 17.5238 66.5771 18.3779 67.6263 18.3779Z" fill="white"/>
</g>
<defs>
<clipPath id="clip0_3167_1255">
<rect width="101" height="99" fill="white"/>
</clipPath>
</defs>
</svg>
