<?xml version="1.0" encoding="UTF-8"?>
<svg id="Layer_2" data-name="Layer 2" xmlns="http://www.w3.org/2000/svg" viewBox="0 0 850 850">
  <defs>
    <style>
      .cls-1 {
        fill: #fff;
      }

      .cls-2 {
        fill: #bbc14d;
      }

      .cls-3 {
        fill: #9ea700;
      }

      .cls-4 {
        fill: red;
      }
    </style>
  </defs>
  <g id="Layer_1-2" data-name="Layer 1">
    <g>
      <g>
        <path class="cls-2" d="m653.88,327.91c0,36.6-13.64,70.12-42.93,105.46-26.21,31.62-63.86,63.71-107.47,100.87-14.9,12.69-31.79,27.09-49.31,42.42-4.59,4.02-10.47,6.25-16.58,6.28h-.15c-6.16,0-12.1-2.23-16.73-6.29-17.49-15.29-34.35-29.67-49.22-42.35l-.08-.06c-43.6-37.16-81.27-69.26-107.47-100.88-29.29-35.33-42.93-68.85-42.93-105.46s12.2-68.38,34.34-92.4c22.41-24.31,53.16-37.69,86.59-37.69,24.99,0,47.87,7.89,68.02,23.47,10.17,7.87,19.38,17.48,27.49,28.72l.15-.2c8.08-11.15,17.24-20.7,27.35-28.51,20.14-15.58,43.03-23.47,68.01-23.47,33.43,0,64.18,13.38,86.59,37.69,22.14,24.02,34.34,56.83,34.34,92.4Z"/>
        <path class="cls-3" d="m661.33,323.52c0,36.6-13.64,70.12-42.93,105.46-26.21,31.62-63.86,63.71-107.47,100.87-14.9,12.69-31.79,27.09-49.31,42.42-4.59,4.02-10.47,6.25-16.58,6.28V245.42c8.08-11.15,17.24-20.7,27.35-28.51,20.14-15.58,43.03-23.47,68.01-23.47,33.43,0,64.18,13.38,86.59,37.69,22.14,24.02,34.34,56.83,34.34,92.4Z"/>
      </g>
      <rect class="cls-1" width="850" height="850" rx="72.61" ry="72.61"/>
      <g>
        <path class="cls-4" d="m637.26,318.5c-5.1-18.97-20.06-33.92-39.02-39.03-34.65-9.48-173.24-9.48-173.24-9.48,0,0-138.59,0-173.24,9.12-18.6,5.1-33.92,20.42-39.02,39.39-9.12,34.65-9.12,106.5-9.12,106.5,0,0,0,72.21,9.12,106.5,5.11,18.96,20.06,33.92,39.03,39.03,35.01,9.48,173.24,9.48,173.24,9.48,0,0,138.59,0,173.24-9.12,18.97-5.1,33.92-20.06,39.03-39.02,9.12-34.65,9.12-106.5,9.12-106.5,0,0,.36-72.22-9.12-106.86Z"/>
        <path class="cls-1" d="m380.87,491.38l115.25-66.38-115.25-66.38v132.76Z"/>
      </g>
    </g>
  </g>
</svg>