<?xml version="1.0" encoding="utf-8"?>
<!-- Generator: Adobe Illustrator 24.3.0, SVG Export Plug-In . SVG Version: 6.00 Build 0)  -->
<svg version="1.1" id="Layer_1" xmlns="http://www.w3.org/2000/svg" xmlns:xlink="http://www.w3.org/1999/xlink" x="0px" y="0px"
	 viewBox="0 0 40 40" style="enable-background:new 0 0 40 40;" xml:space="preserve">
<style type="text/css">
	.st0{fill:#FF797A;}
	.st1{fill:#FFFFFF;}
</style>
<path class="st0" d="M20,0L20,0c11,0,20,9,20,20l0,0c0,11-9,20-20,20l0,0C9,40,0,31,0,20l0,0C0,9,9,0,20,0z"/>
<path class="st1" d="M22.1,21.4l2.3,6.3l-4.2,1.5l-2.3-6.3l-3.5,2.2l1.4-14.3l10.3,10L22.1,21.4z M22.1,26.6L19.7,20l2.6-0.4l-5-4.9
	l-0.7,7l2.3-1.4l2.4,6.7L22.1,26.6z"/>
</svg>
