<?xml version="1.0" encoding="utf-8"?>
<!-- Generator: Adobe Illustrator 24.3.0, SVG Export Plug-In . SVG Version: 6.00 Build 0)  -->
<svg version="1.1" id="Layer_1" xmlns="http://www.w3.org/2000/svg" xmlns:xlink="http://www.w3.org/1999/xlink" x="0px" y="0px"
	 viewBox="0 0 40 40" style="enable-background:new 0 0 40 40;" xml:space="preserve">
<style type="text/css">
	.st0{fill:#FF797A;}
	.st1{fill:#FFFFFF;}
</style>
<path class="st0" d="M20,0L20,0c11,0,20,9,20,20l0,0c0,11-9,20-20,20l0,0C9,40,0,31,0,20l0,0C0,9,9,0,20,0z"/>
<g>
	<path class="st1" d="M11.8,12.1h16.3c0.5,0,0.9,0.4,0.9,0.9v14.5c0,0.5-0.4,0.9-0.9,0.9H11.8c-0.5,0-0.9-0.4-0.9-0.9V13
		C10.9,12.5,11.3,12.1,11.8,12.1z M12.7,13.9v12.7h14.5V13.9H12.7z M27.2,20.3L24,23.5l-1.3-1.3l1.9-1.9l-1.9-1.9l1.3-1.3L27.2,20.3
		z M15.3,20.3l1.9,1.9l-1.3,1.3l-3.2-3.2l3.2-3.2l1.3,1.3L15.3,20.3z M19.3,24.8h-1.9l3.3-9.1h1.9L19.3,24.8z"/>
</g>
</svg>
