<?xml version="1.0" encoding="utf-8"?>
<!-- Generator: Adobe Illustrator 24.3.0, SVG Export Plug-In . SVG Version: 6.00 Build 0)  -->
<svg version="1.1" id="Layer_1" xmlns="http://www.w3.org/2000/svg" xmlns:xlink="http://www.w3.org/1999/xlink" x="0px" y="0px"
	 viewBox="0 0 40 40" style="enable-background:new 0 0 40 40;" xml:space="preserve">
<style type="text/css">
	.st0{fill:#00D09E;}
	.st1{fill:#FFFFFF;}
</style>
<path class="st0" d="M20,0L20,0c11,0,20,9,20,20l0,0c0,11-9,20-20,20l0,0C9,40,0,31,0,20l0,0C0,9,9,0,20,0z"/>
<g>
	<path class="st1" d="M19.6,25.8h-0.3L19,23.6c-1-0.2-1.8-0.7-2.4-1.5l-2,0.8l-0.7-1.1l1.7-1.3c-0.3-1-0.3-2,0-3l-1.7-1.2l0.7-1.1
		l2,0.8c0.7-0.7,1.5-1.2,2.4-1.5l0.2-2.2h1.2l0.3,2.2c1,0.2,1.9,0.7,2.4,1.5l2-0.8l0.7,1.1l-1.7,1.2c0.2,0.5,0.2,1,0.2,1.5h0.4
		c0.4,0,0.8,0.1,1.2,0.2v-0.2l-0.1-0.8l1.7-1.3c0.2-0.2,0.2-0.3,0.1-0.5l-1.6-2.9c-0.1-0.2-0.2-0.2-0.5-0.2l-2,0.8
		c-0.4-0.3-0.9-0.6-1.4-0.8l-0.3-2.2c0.1-0.1-0.2-0.2-0.3-0.2h-3.3c-0.2,0-0.4,0.2-0.4,0.3l-0.3,2.2c-0.5,0.2-0.9,0.5-1.4,0.7
		l-2-0.8c-0.2,0-0.4,0-0.6,0.2L12,16.5c-0.1,0.2,0,0.3,0.2,0.5l1.7,1.3l-0.1,0.8l0.1,0.8l-1.7,1.4c-0.2,0.2-0.2,0.3-0.1,0.5l1.6,2.9
		c0.1,0.2,0.2,0.2,0.5,0.2l2-0.8c0.4,0.3,0.9,0.6,1.4,0.8l0.3,2.2c0,0.2,0.2,0.3,0.4,0.3h2C20,27,19.8,26.4,19.6,25.8z M23.1,19.4
		v-0.2c0-1.8-1.5-3.3-3.3-3.3c-1.8,0-3.3,1.5-3.3,3.3c0,1.8,1.5,3.3,3.3,3.3C20.5,21.1,21.7,19.9,23.1,19.4z M18.3,19.1
		c0-0.9,0.7-1.7,1.6-1.7s1.6,0.7,1.6,1.7c0,0.9-0.7,1.7-1.6,1.7S18.3,20.1,18.3,19.1z M24.8,21.2V20L23,21.8l1.8,1.8v-1.2
		c1.1,0,2,0.9,2,2.1c0,0.3-0.1,0.7-0.2,0.9l0.9,0.9c1-1.5,0.6-3.6-0.9-4.6C26.1,21.4,25.4,21.2,24.8,21.2z M24.8,26.6
		c-1.1,0-2-0.9-2-2.1c0-0.3,0.1-0.7,0.2-0.9l-0.9-0.9c-1,1.5-0.6,3.6,0.9,4.6c0.6,0.3,1.1,0.6,1.8,0.6v1.2l1.8-1.8l-1.8-1.9V26.6z"
		/>
</g>
</svg>
