<?xml version="1.0" encoding="utf-8"?>
<svg version="1.1" id="Layer_1" xmlns="http://www.w3.org/2000/svg" xmlns:xlink="http://www.w3.org/1999/xlink" x="0px" y="0px"
     viewBox="0 0 40 40" style="enable-background:new 0 0 40 40;" xml:space="preserve">
<style type="text/css">
    .st0{fill:#7C3AED;}
    .st1{fill:#FFFFFF;}
</style>
<path class="st0" d="M20,0L20,0c11,0,20,9,20,20l0,0c0,11-9,20-20,20l0,0C9,40,0,31,0,20l0,0C0,9,9,0,20,0z"/>
<g>
    <!-- Back document (copy) -->
    <rect class="st1" x="14" y="13" width="12" height="15" rx="1.5" ry="1.5" opacity="0.5"/>
    <!-- Front document (original) -->
    <rect class="st1" x="11" y="10" width="12" height="15" rx="1.5" ry="1.5"/>
    <!-- Lines on front document -->
    <rect class="st0" x="13.5" y="13.5" width="7" height="1.2" rx="0.6" ry="0.6"/>
    <rect class="st0" x="13.5" y="16.5" width="7" height="1.2" rx="0.6" ry="0.6"/>
    <rect class="st0" x="13.5" y="19.5" width="4.5" height="1.2" rx="0.6" ry="0.6"/>
</g>
</svg>
