<?xml version="1.0" encoding="utf-8"?>
<!-- Generator: Adobe Illustrator 24.3.0, SVG Export Plug-In . SVG Version: 6.00 Build 0)  -->
<svg version="1.1" id="Layer_1" xmlns="http://www.w3.org/2000/svg" xmlns:xlink="http://www.w3.org/1999/xlink" x="0px" y="0px"
	 viewBox="0 0 40 40" style="enable-background:new 0 0 40 40;" xml:space="preserve">
<style type="text/css">
	.st0{fill:#FF797A;}
	.st1{fill:#FFFFFF;}
</style>
<path class="st0" d="M20,0L20,0c11,0,20,9,20,20l0,0c0,11-9,20-20,20l0,0C9,40,0,31,0,20l0,0C0,9,9,0,20,0z"/>
<g>
	<path class="st1" d="M20.6,22.4v1.8c-0.5-0.2-1.1-0.3-1.8-0.3c-2.9,0-5.3,2.4-5.3,5.3h-1.8c0-3.9,3.1-7,7-7
		C19.4,22.2,20,22.2,20.6,22.4z M18.8,21.3c-2.9,0-5.3-2.4-5.3-5.3s2.4-5.3,5.3-5.3s5.3,2.4,5.3,5.3S21.7,21.3,18.8,21.3z
		 M18.8,19.5c1.9,0,3.5-1.6,3.5-3.5s-1.6-3.5-3.5-3.5s-3.5,1.6-3.5,3.5S16.9,19.5,18.8,19.5z M24.1,24.8v-2.6h1.8v2.6h2.6v1.8h-2.6
		v2.6h-1.8v-2.6h-2.6v-1.8H24.1z"/>
</g>
</svg>
