<?xml version="1.0" encoding="utf-8"?>
<!-- Generator: Adobe Illustrator 24.3.0, SVG Export Plug-In . SVG Version: 6.00 Build 0)  -->
<svg version="1.1" id="Layer_1" xmlns="http://www.w3.org/2000/svg" xmlns:xlink="http://www.w3.org/1999/xlink" x="0px" y="0px"
	 viewBox="0 0 40 40" style="enable-background:new 0 0 40 40;" xml:space="preserve">
<style type="text/css">
	.st0{fill:#00D09E;}
	.st1{fill:#FFFFFF;}
</style>
<path class="st0" d="M20,0L20,0c11,0,20,9,20,20l0,0c0,11-9,20-20,20l0,0C9,40,0,31,0,20l0,0C0,9,9,0,20,0z"/>
<path class="st1" d="M14,13.1c1.6-1.4,3.7-2.2,6-2.2c5.1,0,9.2,4.1,9.2,9.2c0,2-0.6,3.8-1.7,5.3L24.6,20h2.8c0-4.1-3.3-7.4-7.4-7.4
	c-2,0-3.8,0.8-5.1,2L14,13.1z M26,27c-1.6,1.4-3.7,2.2-6,2.2c-5.1,0-9.2-4.1-9.2-9.2c0-2,0.6-3.8,1.7-5.3l2.9,5.3h-2.8
	c0,4.1,3.3,7.4,7.4,7.4c2,0,3.8-0.8,5.1-2L26,27z"/>
</svg>
