<svg width="40" height="40" viewBox="0 0 40 40" fill="none" xmlns="http://www.w3.org/2000/svg">
<rect width="40" height="40" rx="20" fill="#EE595A"/>
<g clip-path="url(#clip0_6541_1048)">
<path d="M11.667 20.0013V15.0013H15.417V14.168C15.417 13.5049 15.6804 12.869 16.1492 12.4002C16.6181 11.9314 17.254 11.668 17.917 11.668C18.58 11.668 19.2159 11.9314 19.6848 12.4002C20.1536 12.869 20.417 13.5049 20.417 14.168V15.0013H24.167V20.0013H25.8337C26.4967 20.0013 27.1326 20.2647 27.6014 20.7335C28.0703 21.2024 28.3337 21.8383 28.3337 22.5013C28.3337 23.1643 28.0703 23.8002 27.6014 24.2691C27.1326 24.7379 26.4967 25.0013 25.8337 25.0013H24.167V28.3346H11.667V25.0013H13.3337C13.9967 25.0013 14.6326 24.7379 15.1014 24.2691C15.5703 23.8002 15.8337 23.1643 15.8337 22.5013C15.8337 21.8383 15.5703 21.2024 15.1014 20.7335C14.6326 20.2647 13.9967 20.0013 13.3337 20.0013H11.667Z" stroke="white" stroke-width="1.5" stroke-linejoin="round"/>
</g>
<defs>
<clipPath id="clip0_6541_1048">
<rect width="20" height="20" fill="white" transform="translate(10 10)"/>
</clipPath>
</defs>
</svg>
