<?xml version="1.0" encoding="utf-8"?>
<!-- Generator: Adobe Illustrator 24.3.0, SVG Export Plug-In . SVG Version: 6.00 Build 0)  -->
<svg version="1.1" id="Layer_1" xmlns="http://www.w3.org/2000/svg" xmlns:xlink="http://www.w3.org/1999/xlink" x="0px" y="0px"
	 viewBox="0 0 40 40" style="enable-background:new 0 0 40 40;" xml:space="preserve">
<style type="text/css">
	.st0{fill:#FF797A;}
	.st1{fill:#FFFFFF;}
</style>
<path class="st0" d="M20,0L20,0c11,0,20,9,20,20l0,0c0,11-9,20-20,20l0,0C9,40,0,31,0,20l0,0C0,9,9,0,20,0z"/>
<g>
	<path class="st1" d="M11.2,16l8.3-5c0.3-0.2,0.6-0.2,0.9,0l8.3,5c0.1,0.1,0.2,0.2,0.2,0.4v11.4c0,0.5-0.4,0.9-0.9,0.9H11.9
		c-0.5,0-0.9-0.4-0.9-0.9V16.4C11,16.3,11,16.1,11.2,16z M12.7,17.2v9.7H27v-9.7l-7.1-4.3L12.7,17.2z M19.9,22.1l4.7-4l1.2,1.4
		L20,24.5l-6-4.9l1.1-1.4L19.9,22.1z"/>
</g>
</svg>
