<?xml version="1.0" encoding="utf-8"?>
<!-- Generator: Adobe Illustrator 24.3.0, SVG Export Plug-In . SVG Version: 6.00 Build 0)  -->
<svg version="1.1" id="Layer_1" xmlns="http://www.w3.org/2000/svg" xmlns:xlink="http://www.w3.org/1999/xlink" x="0px" y="0px"
	 viewBox="0 0 40 40" style="enable-background:new 0 0 40 40;" xml:space="preserve">
<style type="text/css">
	.st0{fill:#5E1CFB;}
	.st1{fill:#FFFFFF;}
</style>
<path class="st0" d="M20,0L20,0c11,0,20,9,20,20l0,0c0,11-9,20-20,20l0,0C9,40,0,31,0,20l0,0C0,9,9,0,20,0z"/>
<g>
	<path class="st1" d="M24.5,23.9l3.5,3.5l-1.1,1.1L23.4,25c-1.3,1-2.8,1.6-4.6,1.6c-4,0-7.3-3.3-7.3-7.3s3.3-7.3,7.3-7.3
		s7.3,3.3,7.3,7.3C26.1,21,25.5,22.6,24.5,23.9z M22.9,23.3c1-1,1.6-2.4,1.6-4c0-3.1-2.5-5.7-5.7-5.7s-5.7,2.5-5.7,5.7
		s2.5,5.7,5.7,5.7c1.5,0,2.9-0.6,4-1.6L22.9,23.3z"/>
</g>
</svg>
