<?xml version="1.0" encoding="utf-8"?>
<!-- Generator: Adobe Illustrator 24.3.0, SVG Export Plug-In . SVG Version: 6.00 Build 0)  -->
<svg version="1.1" id="Layer_1" xmlns="http://www.w3.org/2000/svg" xmlns:xlink="http://www.w3.org/1999/xlink" x="0px" y="0px"
	 viewBox="0 0 40 40" style="enable-background:new 0 0 40 40;" xml:space="preserve">
<style type="text/css">
	.st0{fill:#FF797A;}
	.st1{fill:#FFFFFF;}
</style>
<path class="st0" d="M20,0L20,0c11,0,20,9,20,20l0,0c0,11-9,20-20,20l0,0C9,40,0,31,0,20l0,0C0,9,9,0,20,0z"/>
<g>
	<path class="st1" d="M15.6,12.9v14.4h9V12.9H15.6z M14.7,11.1h10.8c0.5,0,0.9,0.4,0.9,0.9v16.2c0,0.5-0.4,0.9-0.9,0.9H14.7
		c-0.5,0-0.9-0.4-0.9-0.9V12C13.8,11.5,14.2,11.1,14.7,11.1z M20.1,24.6c0.5,0,0.9,0.4,0.9,0.9s-0.4,0.9-0.9,0.9s-0.9-0.4-0.9-0.9
		S19.6,24.6,20.1,24.6z"/>
</g>
</svg>
