<svg width="40" height="40" viewBox="0 0 40 40" fill="none" xmlns="http://www.w3.org/2000/svg">
<g clip-path="url(#clip0_6555_958)">
<path d="M20 0C31 0 40 9 40 20C40 31 31 40 20 40C9 40 0 31 0 20C0 9 9 0 20 0Z" fill="#E3AE27"/>
<path d="M29.9993 17.1254H25.249V10L17.332 21.8756H22.0823V29.001L29.9993 17.1254ZM20.29 20.2922L23.6655 15.2296V18.7089H27.0403L23.6655 23.7713V20.2922H20.29Z" fill="white"/>
<path d="M11 20.2969H15.7503V21.8804H11V20.2969Z" fill="white"/>
<path d="M12.5811 17.1289H18.123V18.7124H12.5811V17.1289Z" fill="white"/>
<path d="M12.5811 23.457H20.4981V25.0403H12.5811V23.457Z" fill="white"/>
</g>
<defs>
<clipPath id="clip0_6555_958">
<rect width="40" height="40" fill="white"/>
</clipPath>
</defs>
</svg>
