<?xml version="1.0" encoding="utf-8"?>
<!-- Generator: Adobe Illustrator 24.3.0, SVG Export Plug-In . SVG Version: 6.00 Build 0)  -->
<svg version="1.1" id="Layer_1" xmlns="http://www.w3.org/2000/svg" xmlns:xlink="http://www.w3.org/1999/xlink" x="0px" y="0px"
	 viewBox="0 0 40 40" style="enable-background:new 0 0 40 40;" xml:space="preserve">
<style type="text/css">
	.st0{fill:#FF797A;}
	.st1{fill:#FFFFFF;}
</style>
<path class="st0" d="M20,0L20,0c11,0,20,9,20,20l0,0c0,11-9,20-20,20l0,0C9,40,0,31,0,20l0,0C0,9,9,0,20,0z"/>
<g>
	<path class="st1" d="M19.9,28.9c-5,0-9.1-4.1-9.1-9.1c0-5,4.1-9.1,9.1-9.1c5,0,9.1,4.1,9.1,9.1C29,24.8,24.9,28.9,19.9,28.9z
		 M19.9,27c4,0,7.3-3.2,7.3-7.3c0-4-3.2-7.3-7.3-7.3c-4,0-7.3,3.2-7.3,7.3C12.6,23.8,15.9,27,19.9,27z M19,22.5h1.8v1.8H19V22.5z
		 M19,15.3h1.8v5.4H19V15.3z"/>
</g>
</svg>
