<svg xmlns="http://www.w3.org/2000/svg" viewBox="0 0 64 64" aria-hidden="true">
  <path fill="#25D366" d="M32 6C17.641 6 6 17.193 6 31c0 4.889 1.47 9.45 4.002 13.285L6.5 58l14.08-3.31A26.41 26.41 0 0 0 32 57c14.359 0 26-11.193 26-25S46.359 6 32 6z"/>
  <path fill="#FFF" d="M47.227 39.383c-.633-.316-3.742-1.84-4.322-2.051-.58-.211-1.002-.316-1.424.317-.422.632-1.634 2.05-2.003 2.473-.369.421-.738.474-1.371.157-.633-.316-2.674-.973-5.091-3.102-1.881-1.658-3.151-3.705-3.521-4.338-.369-.632-.039-.974.278-1.289.286-.285.633-.738.949-1.107.316-.369.422-.632.633-1.054.211-.421.105-.79-.053-1.106-.158-.316-1.424-3.418-1.951-4.682-.514-1.233-1.036-1.066-1.424-1.086-.369-.018-.791-.022-1.213-.022-.422 0-1.107.158-1.688.791-.58.632-2.213 2.162-2.213 5.263s2.266 6.098 2.582 6.52c.316.421 4.46 6.761 10.806 9.479 1.51.65 2.688 1.038 3.607 1.328 1.516.482 2.896.414 3.987.251 1.216-.181 3.742-1.527 4.27-3.002.527-1.475.527-2.739.369-3.002-.158-.264-.58-.422-1.213-.738z"/>
</svg>
