<?xml version="1.0" encoding="utf-8"?>
<svg version="1.1" xmlns="http://www.w3.org/2000/svg" x="0px" y="0px"
     viewBox="0 0 40 40" style="enable-background:new 0 0 40 40;" xml:space="preserve">
<style type="text/css">
    .st0{fill:#7C5CBF;}
    .st1{fill:#FFFFFF;}
</style>
<path class="st0" d="M20,0L20,0c11,0,20,9,20,20l0,0c0,11-9,20-20,20l0,0C9,40,0,31,0,20l0,0C0,9,9,0,20,0z"/>
<g>
    <path class="st1" d="M12.8,12h14.4c1,0,1.8,0.8,1.8,1.8v12.4c0,1-0.8,1.8-1.8,1.8H12.8c-1,0-1.8-0.8-1.8-1.8V13.8
        C11,12.8,11.8,12,12.8,12z M12.8,13.8v2.4h14.4v-2.4H12.8z M12.8,17.9v8.3h14.4v-8.3H12.8z"/>
    <circle class="st1" cx="14.5" cy="15" r="0.8"/>
    <circle class="st1" cx="17.1" cy="15" r="0.8"/>
    <circle class="st1" cx="19.7" cy="15" r="0.8"/>
</g>
</svg>
