<?xml version="1.0" encoding="utf-8"?>
<!-- Generator: Adobe Illustrator 24.3.0, SVG Export Plug-In . SVG Version: 6.00 Build 0)  -->
<svg version="1.1" id="Layer_1" xmlns="http://www.w3.org/2000/svg" xmlns:xlink="http://www.w3.org/1999/xlink" x="0px" y="0px"
	 viewBox="0 0 40 40" style="enable-background:new 0 0 40 40;" xml:space="preserve">
<style type="text/css">
	.st0{fill:#5E1CFB;}
	.st1{fill:#FFFFFF;}
</style>
<path class="st0" d="M20,0L20,0c11,0,20,9,20,20l0,0c0,11-9,20-20,20l0,0C9,40,0,31,0,20l0,0C0,9,9,0,20,0z"/>
<g>
	<path class="st1" d="M15.7,23.5l8.2-8.2l-1.1-1.1l-8.2,8.2v1.1H15.7z M16.4,25.1H13v-3.4l9.2-9.2c0.3-0.3,0.8-0.3,1.1,0l2.3,2.3
		c0.3,0.3,0.3,0.8,0,1.1L16.4,25.1z M13,26.7h14.5v1.6H13V26.7z"/>
</g>
</svg>
