<?xml version="1.0" encoding="UTF-8"?>
<svg id="Layer_2" data-name="Layer 2" xmlns="http://www.w3.org/2000/svg" viewBox="0 0 850 850">
  <defs>
    <style>
      .cls-1 {
        fill: #fff;
      }

      .cls-2 {
        fill: #9ea700;
      }

      .cls-3 {
        fill: #868e00;
      }

      .cls-4 {
        fill: #cfd380;
      }
    </style>
  </defs>
  <g id="Layer_1-2" data-name="Layer 1">
    <g>
      <rect class="cls-1" width="850" height="850" rx="72.61" ry="72.61"/>
      <g id="Workflow">
        <path class="cls-2" d="m531.77,232.9v109.77h-164.66v27.44l-13.72,27.44-13.72-27.44v-27.44h-137.22v-109.77h329.32Z"/>
        <path class="cls-4" d="m586.66,370.11v109.77h-164.66v27.44l-13.72,27.44-13.72-27.44v-27.44h-137.22v-109.77h82.33l13.72,27.44,13.72-27.44h219.55Z"/>
        <path class="cls-2" d="m641.55,507.33v109.77h-329.32v-109.77h82.33l13.72,27.44,13.72-27.44h219.55Z"/>
        <g>
          <path class="cls-3" d="m394.56,397.56l-41.16,54.89-41.16-54.89h27.44v-27.44h27.44v27.44h27.44Z"/>
          <path class="cls-3" d="m449.44,534.77l-41.16,54.89-41.16-54.89h27.44v-27.44h27.44v27.44h27.44Z"/>
        </g>
      </g>
    </g>
  </g>
</svg>