<?xml version="1.0" encoding="UTF-8"?>
<svg xmlns="http://www.w3.org/2000/svg" version="1.1" xmlns:xlink="http://www.w3.org/1999/xlink" viewBox="0 0 798 211">
  <defs>
    <style>
      .cls-1 {
        fill: url(#linear-gradient-2);
      }

      .cls-1, .cls-2 {
        isolation: isolate;
        opacity: .4;
      }

      .cls-2 {
        fill: url(#linear-gradient);
      }
    </style>
    <linearGradient id="linear-gradient" x1="678.2" y1="297.8" x2="145" y2="-159.2" gradientTransform="translate(798 -1) rotate(-180) scale(1 -1)" gradientUnits="userSpaceOnUse">
      <stop offset="0" stop-color="#9ea700" stop-opacity=".2"/>
      <stop offset="1" stop-color="#f9faf0"/>
    </linearGradient>
    <linearGradient id="linear-gradient-2" x1="629.2" y1="290.4" x2="190" y2="-171.5" gradientTransform="translate(798 -1) rotate(-180) scale(1 -1)" gradientUnits="userSpaceOnUse">
      <stop offset="0" stop-color="#9ea700" stop-opacity=".2"/>
      <stop offset="1" stop-color="#f9faf0"/>
    </linearGradient>
  </defs>
  <!-- Generator: Adobe Illustrator 28.6.0, SVG Export Plug-In . SVG Version: 1.2.0 Build 709)  -->
  <g>
    <g id="Layer_1">
      <path class="cls-2" d="M1,211c195.6-109.1,614.8-120.3,797-105.5V25.6c0-9,0-13.4-1.7-16.9-1.5-3-4-5.5-7-7C785.8,0,781.4,0,772.4,0H26.6C17.6,0,13.2,0,9.7,1.7c-3,1.5-5.5,4-7,7-1.7,3.4-1.7,7.9-1.7,16.9v185.4Z"/>
      <path class="cls-1" d="M0,172c195.6-88.9,614.8-98.1,797-86V25.6c0-9,0-13.4-1.7-16.9-1.5-3-4-5.5-7-7C784.8,0,780.4,0,771.4,0H25.6C16.6,0,12.2,0,8.7,1.7c-3,1.5-5.5,4-7,7C0,12.2,0,16.6,0,25.6v146.4Z"/>
    </g>
  </g>
</svg>