<svg width="798" height="211" viewBox="0 0 798 211" fill="none" xmlns="http://www.w3.org/2000/svg">
<path opacity="0.4" d="M797 0C601.395 109.056 182.241 120.317 0 105.5V185.4C0 194.361 0 198.841 1.7439 202.264C3.27787 205.274 5.72556 207.722 8.73615 209.256C12.1587 211 16.6391 211 25.6 211H771.4C780.361 211 784.841 211 788.264 209.256C791.274 207.722 793.722 205.274 795.256 202.264C797 198.841 797 194.364 797 185.41V0Z" fill="url(#paint0_linear_7753_5505)"/>
<path opacity="0.4" d="M798 39C602.395 127.899 183.241 137.079 1 125V185.4C1 194.361 1 198.841 2.7439 202.264C4.27787 205.274 6.72556 207.722 9.73615 209.256C13.1587 211 17.6391 211 26.6 211H772.4C781.361 211 785.841 211 789.264 209.256C792.274 207.722 794.722 205.274 796.256 202.264C798 198.841 798 194.367 798 185.418V39Z" fill="url(#paint1_linear_7753_5505)"/>
<defs>
<linearGradient id="paint0_linear_7753_5505" x1="787.281" y1="41.4888" x2="254.125" y2="498.546" gradientUnits="userSpaceOnUse">
<stop stop-color="#9EA700" stop-opacity="0.2"/>
<stop offset="1" stop-color="#F9FAF0"/>
</linearGradient>
<linearGradient id="paint1_linear_7753_5505" x1="788.281" y1="72.8202" x2="349.063" y2="534.722" gradientUnits="userSpaceOnUse">
<stop stop-color="#9EA700" stop-opacity="0.2"/>
<stop offset="1" stop-color="#F9FAF0"/>
</linearGradient>
</defs>
</svg>