<svg width="73" height="33" viewBox="0 0 73 33" fill="none" xmlns="http://www.w3.org/2000/svg">
<path d="M0 16.7163C0 11.1565 4.11933 6.88037 9.76371 6.88037C14.6273 6.88037 17.7524 10.0175 18.6043 12.9383L14.5561 14.5426C13.9523 12.3688 12.2484 10.9074 9.83486 10.9074C6.85209 10.9074 4.50973 13.1893 4.50973 16.6816C4.50973 20.1739 6.85209 22.4558 9.8714 22.4558C12.2849 22.4558 14.0619 20.9944 14.6638 18.8554L18.712 20.4944C17.8601 23.3457 14.735 26.4828 9.76563 26.4828C4.19049 26.4809 0 22.2762 0 16.7163Z" fill="white"/>
<path d="M53.0459 16.6797C53.0459 11.0484 57.1652 6.84375 63.0231 6.84375C68.8809 6.84375 73.0002 11.0503 73.0002 16.6797C73.0002 22.3091 68.8463 26.4809 63.0231 26.4809C57.1998 26.4809 53.0459 22.2744 53.0459 16.6797ZM68.454 16.645C68.454 13.2955 66.2885 10.9075 63.0577 10.9075C59.8268 10.9075 57.5537 13.2955 57.5537 16.6817C57.5537 20.0678 59.7903 22.4558 63.0577 22.4558C66.3251 22.4558 68.454 20.033 68.454 16.6469V16.645Z" fill="white"/>
<path d="M37.5627 7.27051L30.426 26.0525L28.0124 32.4328H23.5739L26.1297 26.0525H24.7085L18.1045 7.27051H22.7565L27.5855 22.4173L32.876 7.27051H37.5627Z" fill="white"/>
<path d="M37.3713 7.16553L30.2345 25.9475L27.821 32.3278H23.3825L25.9383 25.9475H24.5171L17.9131 7.16553H22.5651L27.3941 22.3123L32.6846 7.16553H37.3713Z" fill="white"/>
<path d="M29.4533 20.4922H26.2744V22.859H29.4533V20.4922Z" fill="white"/>
<path d="M38.7354 3.12357V26.0542H43.2451V0L38.7354 3.12357Z" fill="white"/>
<path d="M46.3691 3.12357V26.0542H50.8789V0L46.3691 3.12357Z" fill="white"/>
</svg>
