<svg width="16" height="15" viewBox="0 0 16 15" fill="none" xmlns="http://www.w3.org/2000/svg">
<path d="M15.2194 13.9331L10.9046 9.66748C11.7403 8.64688 12.2436 7.34998 12.2436 5.9375C12.2436 2.66376 9.54904 0 6.23749 0C2.92594 0 0.231445 2.66373 0.231445 5.93747C0.231445 9.21125 2.92597 11.8749 6.23752 11.8749C7.66633 11.8749 8.97822 11.3775 10.0106 10.5512L14.3255 14.8168C14.4488 14.9387 14.6106 15 14.7725 15C14.9343 15 15.0962 14.9387 15.2194 14.8168C15.4667 14.5725 15.4667 14.1774 15.2194 13.9331ZM6.23752 10.625C3.62266 10.625 1.49589 8.52245 1.49589 5.93747C1.49589 3.35247 3.62266 1.24998 6.23752 1.24998C8.85236 1.24998 10.9791 3.35247 10.9791 5.93747C10.9791 8.52245 8.85236 10.625 6.23752 10.625Z" fill="white"/>
</svg>
