<svg id="Layer_1" viewBox="0 0 512 512" xmlns="http://www.w3.org/2000/svg" data-name="Layer 1" width="300" height="300"
     version="1.1" xmlns:xlink="http://www.w3.org/1999/xlink" xmlns:svgjs="http://svgjs.dev/svgjs">
    <g transform="matrix(1,0,0,1,0,0)">
        <path d="m376.333 296.354c2.734-2.733 2.734-7.166 0-9.899l-4.123-4.123h36.902c49.172 0 89.176-39.991 89.176-89.147s-40.004-89.147-89.176-89.147h-3.715v-22.82c0-10.065-8.188-18.253-18.253-18.253h-121.266c-10.049 0-18.225 8.188-18.225 18.253v22.82h-27.896v-9.84l-20.825-9.6-5.366-12.997 7.915-21.536-23.793-23.794-21.53 7.943-12.971-5.385-9.633-20.829h-33.646l-9.603 20.831-12.969 5.383-21.562-7.944-23.759 23.798 7.914 21.533-5.365 12.994-20.853 9.599v33.651l20.853 9.629 5.364 12.972-7.913 21.531 23.759 23.798 21.562-7.944 12.969 5.383 9.603 20.831h33.646l9.633-20.829 12.971-5.385 21.53 7.943 23.793-23.794-7.915-21.534 5.365-12.974 20.825-9.63v-9.806h27.896v22.82c0 10.049 8.176 18.225 18.225 18.225h121.266c10.065 0 18.253-8.176 18.253-18.225v-22.82h3.715c41.452 0 75.176 33.711 75.176 75.147s-33.724 75.147-75.176 75.147h-36.881l4.097-4.09c2.736-2.731 2.74-7.164.009-9.899-2.731-2.736-7.164-2.739-9.899-.009l-16.072 16.044c-1.315 1.312-2.054 3.093-2.055 4.951 0 1.857.737 3.639 2.05 4.953l16.072 16.072c1.367 1.367 3.158 2.05 4.95 2.05s3.583-.684 4.95-2.05zm-259.584-138.66c-25.742 0-46.685-20.93-46.685-46.657s20.942-46.685 46.685-46.685 46.685 20.942 46.685 46.685-20.943 46.657-46.685 46.657zm169.114-66.271h6.208c3.866 0 7 3.134 7 7s-3.134 7-7 7h-6.208c-3.866 0-7-3.134-7-7s3.134-7 7-7zm81.326 39.228h-81.326c-3.866 0-7-3.134-7-7s3.134-7 7-7h81.326c3.866 0 7 3.134 7 7s-3.134 7-7 7zm0-25.228h-50.825c-3.866 0-7-3.134-7-7s3.134-7 7-7h50.825c3.866 0 7 3.134 7 7s-3.134 7-7 7zm-15.087 329.287c2.728 2.732 2.728 7.158 0 9.891l-16.044 16.073c-1.367 1.37-3.161 2.055-4.954 2.055s-3.579-.682-4.945-2.046c-2.736-2.731-2.74-7.163-.009-9.899l4.12-4.127h-44.01c-3.866 0-7-3.134-7-7s3.134-7 7-7h44.009l-4.12-4.127c-2.731-2.736-2.728-7.168.009-9.899 2.736-2.731 7.168-2.727 9.899.009l16.044 16.072zm-104.535-43.128h-122.711c-10.065 0-18.254 8.188-18.254 18.254v22.82h-3.714c-41.452 0-75.176-33.711-75.176-75.147s33.724-75.176 75.176-75.176h74.24v22.82c0 10.065 8.188 18.253 18.253 18.253h121.266c10.049 0 18.225-8.188 18.225-18.253v-59.641c0-10.049-8.176-18.225-18.225-18.225h-121.266c-10.065 0-18.253 8.176-18.253 18.225v22.82h-74.24c-49.172 0-89.176 40.004-89.176 89.176s40.004 89.147 89.176 89.147h3.714v22.82c0 10.065 8.188 18.254 18.254 18.254h122.711c10.049 0 18.225-8.188 18.225-18.254v-59.64c0-10.065-8.176-18.254-18.225-18.254zm-1.729-135.863h50.825c3.866 0 7 3.134 7 7s-3.134 7-7 7h-50.825c-3.866 0-7-3.134-7-7s3.134-7 7-7zm-30.5 0h6.208c3.866 0 7 3.134 7 7s-3.134 7-7 7h-6.208c-3.866 0-7-3.134-7-7s3.134-7 7-7zm0 25.228h81.325c3.866 0 7 3.134 7 7s-3.134 7-7 7h-81.325c-3.866 0-7-3.134-7-7s3.134-7 7-7zm-69.817 139.095h6.236c3.866 0 7 3.134 7 7s-3.134 7-7 7h-6.236c-3.866 0-7-3.134-7-7s3.134-7 7-7zm81.354 39.228h-81.354c-3.866 0-7-3.134-7-7s3.134-7 7-7h81.354c3.866 0 7 3.134 7 7s-3.134 7-7 7zm0-25.228h-50.825c-3.866 0-7-3.134-7-7s3.134-7 7-7h50.825c3.866 0 7 3.134 7 7s-3.134 7-7 7zm-77.441-323.005c0 18.007-14.663 32.657-32.685 32.657s-32.685-14.65-32.685-32.657 14.662-32.685 32.685-32.685 32.685 14.662 32.685 32.685zm284.51 264.274c-35.48 0-64.345 28.865-64.345 64.344s28.865 64.345 64.345 64.345 64.344-28.865 64.344-64.345-28.865-64.344-64.344-64.344zm26.364 55.617-28.687 27.552c-1.356 1.302-3.103 1.952-4.849 1.952-1.793 0-3.585-.685-4.95-2.05l-14.343-14.343c-2.734-2.733-2.734-7.166 0-9.899 2.733-2.733 7.166-2.733 9.899 0l9.492 9.492 23.739-22.8c2.788-2.679 7.22-2.589 9.897.199 2.678 2.789 2.589 7.22-.199 9.897z"
              fill="#a7a7a7ff" data-original-color="#000000ff" stroke="none"/>
    </g>
</svg>