<?xml version="1.0" encoding="UTF-8"?>
<svg id="Layer_2" data-name="Layer 2" xmlns="http://www.w3.org/2000/svg" viewBox="0 0 850 850">
  <defs>
    <style>
      .cls-1 {
        fill: #fff;
      }

      .cls-2 {
        fill: #676d00;
      }

      .cls-3 {
        fill: #9ea700;
      }

      .cls-4 {
        fill: #8e9600;
      }

      .cls-5 {
        fill: #d8dc99;
      }
    </style>
  </defs>
  <g id="Layer_1-2" data-name="Layer 1">
    <g>
      <rect class="cls-1" width="850" height="850" rx="72.61" ry="72.61"/>
      <g id="Icon">
        <path class="cls-4" d="m506.22,576.83c-22.75-13.23-36.75-37.55-36.78-63.86-.23-9.53,1.46-19.01,4.94-27.88,1.91-5.08,1.01-10.78-2.37-15.03-3.45-4.19-8.91-6.16-14.24-5.14l-5.93,1.19c-12.39,1.66-24.87,2.45-37.37,2.37-75.53,0-123.57-26.3-123.57-44.49,0-8.19-6.64-14.83-14.83-14.83s-14.83,6.64-14.83,14.83v118.63c0,42.31,65.84,74.14,153.23,74.14,29.96.29,59.78-4.11,88.38-13.05,5.54-1.78,9.5-6.67,10.08-12.46.7-5.7-1.91-11.3-6.72-14.43Z"/>
        <path class="cls-3" d="m553.48,290.53c-8.15.11-14.72,6.68-14.83,14.83,0,18.19-48.05,44.49-123.57,44.49s-123.57-26.3-123.57-44.49c0-8.19-6.64-14.83-14.83-14.83s-14.83,6.64-14.83,14.83v118.63c0,42.31,65.84,74.14,153.23,74.14,14.49.06,28.97-1,43.3-3.16l6.72-1.78c4.48-1.07,8.16-4.24,9.89-8.5,12.58-30.56,43.87-49.11,76.71-45.48,4.22.54,8.47-.75,11.67-3.56,3.19-2.79,5-6.83,4.94-11.07v-119.22c-.11-8.15-6.68-14.72-14.83-14.83Z"/>
        <path class="cls-2" d="m577.21,463.54c-2.4,7.72,1.92,15.92,9.63,18.31.08.03.17.05.25.08l31.24,9.49c1.44.19,2.91.19,4.35,0,6.57-.06,12.33-4.39,14.24-10.68l9.49-31.24c1.74-8-3.33-15.9-11.34-17.64-6.9-1.5-13.91,2.07-16.74,8.55-39.85-41.21-105.56-42.32-146.78-2.47-41.21,39.85-42.32,105.56-2.47,146.78,39.85,41.21,105.56,42.32,146.78,2.47,8.43-8.15,15.41-17.67,20.66-28.15,3.69-7.07.95-15.79-6.12-19.47-.2-.1-.4-.2-.61-.3-7.22-3.64-16.01-.74-19.65,6.48-.04.08-.08.16-.12.24-18.15,36.83-62.72,51.97-99.55,33.82-36.83-18.15-51.97-62.72-33.82-99.55,18.15-36.83,62.72-51.97,99.55-33.82,4.03,1.99,7.87,4.33,11.48,7.01-5,1.33-8.95,5.14-10.48,10.08Z"/>
        <ellipse class="cls-5" cx="415.08" cy="305.36" rx="153.23" ry="74.14"/>
      </g>
    </g>
  </g>
</svg>