<?xml version="1.0" encoding="UTF-8"?>
<svg xmlns="http://www.w3.org/2000/svg" xmlns:xlink="http://www.w3.org/1999/xlink" width="64px" height="64px" viewBox="0 0 64 64" version="1.1">
<defs>
<filter id="alpha" filterUnits="objectBoundingBox" x="0%" y="0%" width="100%" height="100%">
  <feColorMatrix type="matrix" in="SourceGraphic" values="0 0 0 0 1 0 0 0 0 1 0 0 0 0 1 0 0 0 1 0"/>
</filter>
<mask id="mask0">
  <g filter="url(#alpha)">
<rect x="0" y="0" width="64" height="64" style="fill:rgb(0%,0%,0%);fill-opacity:0.980392;stroke:none;"/>
  </g>
</mask>
<clipPath id="clip1">
  <rect x="0" y="0" width="64" height="64"/>
</clipPath>
<g id="surface5" clip-path="url(#clip1)">
<path style=" stroke:none;fill-rule:evenodd;fill:rgb(0.392157%,0.392157%,0%);fill-opacity:1;" d="M 52.0625 -0.0625 C 55.8125 -0.0625 59.5625 -0.0625 63.3125 -0.0625 C 63.519531 0.144531 63.730469 0.355469 63.9375 0.5625 C 63.9375 7.644531 63.9375 14.730469 63.9375 21.8125 C 63.753906 22.015625 63.546875 22.203125 63.3125 22.375 C 59.5625 22.457031 55.8125 22.457031 52.0625 22.375 C 51.550781 22.039062 51.300781 21.5625 51.3125 20.9375 C 48.589844 21.925781 45.878906 21.863281 43.1875 20.75 C 41.769531 20.207031 40.355469 19.667969 38.9375 19.125 C 38.1875 18.867188 37.417969 18.722656 36.625 18.6875 C 33.726562 19.046875 30.828125 19.445312 27.9375 19.875 C 26.195312 20.238281 24.800781 19.71875 23.75 18.3125 C 23.53125 17.960938 23.386719 17.585938 23.3125 17.1875 C 19.472656 18.167969 15.636719 19.191406 11.8125 20.25 C 9.859375 20.75 8.253906 20.230469 7 18.6875 C 5.777344 15.976562 6.507812 14 9.1875 12.75 C 14.492188 10.492188 19.785156 8.199219 25.0625 5.875 C 27.441406 4.859375 29.859375 3.941406 32.3125 3.125 C 34.988281 2.449219 37.699219 2.242188 40.4375 2.5 C 40.824219 2.753906 41.03125 3.109375 41.0625 3.5625 C 41.015625 4.21875 40.683594 4.65625 40.0625 4.875 C 36.679688 4.640625 33.429688 5.183594 30.3125 6.5 C 23.324219 9.425781 16.363281 12.425781 9.4375 15.5 C 8.71875 16.347656 8.800781 17.097656 9.6875 17.75 C 10.230469 17.832031 10.769531 17.832031 11.3125 17.75 C 15.421875 16.566406 19.546875 15.441406 23.6875 14.375 C 24.4375 13.394531 25.394531 12.6875 26.5625 12.25 C 29.75 10.777344 33.042969 9.589844 36.4375 8.6875 C 37.503906 8.816406 37.898438 9.398438 37.625 10.4375 C 37.527344 10.660156 37.382812 10.847656 37.1875 11 C 33.316406 12.066406 29.605469 13.527344 26.0625 15.375 C 25.429688 16.46875 25.742188 17.15625 27 17.4375 C 29.683594 17.007812 32.371094 16.609375 35.0625 16.25 C 36.019531 16.167969 36.980469 16.167969 37.9375 16.25 C 40.578125 17.074219 43.203125 17.949219 45.8125 18.875 C 47.75 19.292969 49.582031 19.019531 51.3125 18.0625 C 51.4375 13.6875 51.480469 9.3125 51.4375 4.9375 C 50.6875 4.957031 49.9375 4.9375 49.1875 4.875 C 48.789062 4.554688 48.539062 4.160156 48.4375 3.6875 C 48.472656 3.097656 48.761719 2.699219 49.3125 2.5 C 50.019531 2.4375 50.726562 2.417969 51.4375 2.4375 C 51.417969 1.8125 51.4375 1.1875 51.5 0.5625 C 51.671875 0.328125 51.859375 0.121094 52.0625 -0.0625 Z M 52.0625 -0.0625 "/>
</g>
<mask id="mask1">
  <g filter="url(#alpha)">
<rect x="0" y="0" width="64" height="64" style="fill:rgb(0%,0%,0%);fill-opacity:0.937255;stroke:none;"/>
  </g>
</mask>
<clipPath id="clip2">
  <rect x="0" y="0" width="64" height="64"/>
</clipPath>
<g id="surface8" clip-path="url(#clip2)">
<path style=" stroke:none;fill-rule:evenodd;fill:rgb(0.784314%,0.392157%,0.392157%);fill-opacity:1;" d="M 46.0625 3.6875 C 45.804688 4.78125 45.136719 5.136719 44.0625 4.75 C 43.738281 4.449219 43.527344 4.097656 43.4375 3.6875 C 43.695312 2.476562 44.402344 2.121094 45.5625 2.625 C 45.914062 2.894531 46.082031 3.246094 46.0625 3.6875 Z M 46.0625 3.6875 "/>
</g>
<mask id="mask2">
  <g filter="url(#alpha)">
<rect x="0" y="0" width="64" height="64" style="fill:rgb(0%,0%,0%);fill-opacity:0.980392;stroke:none;"/>
  </g>
</mask>
<clipPath id="clip3">
  <rect x="0" y="0" width="64" height="64"/>
</clipPath>
<g id="surface11" clip-path="url(#clip3)">
<path style=" stroke:none;fill-rule:evenodd;fill:rgb(0.392157%,0%,0%);fill-opacity:1;" d="M 21.6875 23.1875 C 25.3125 22.777344 28.230469 24.007812 30.4375 26.875 C 36.5625 26.917969 42.6875 26.957031 48.8125 27 C 49.042969 27.144531 49.230469 27.332031 49.375 27.5625 C 49.457031 29.230469 49.457031 30.894531 49.375 32.5625 C 48.019531 34.082031 46.582031 35.519531 45.0625 36.875 C 44.019531 36.957031 42.980469 36.957031 41.9375 36.875 C 41.066406 36.128906 40.234375 35.335938 39.4375 34.5 C 38.980469 34.417969 38.519531 34.417969 38.0625 34.5 C 37.265625 35.335938 36.433594 36.128906 35.5625 36.875 C 33.855469 36.917969 32.144531 36.957031 30.4375 37 C 27.769531 40.390625 24.351562 41.472656 20.1875 40.25 C 15.929688 38.363281 14.035156 35.09375 14.5 30.4375 C 15.417969 26.539062 17.8125 24.125 21.6875 23.1875 Z M 21.6875 23.1875 "/>
</g>
<mask id="mask3">
  <g filter="url(#alpha)">
<rect x="0" y="0" width="64" height="64" style="fill:rgb(0%,0%,0%);fill-opacity:0.980392;stroke:none;"/>
  </g>
</mask>
<clipPath id="clip4">
  <rect x="0" y="0" width="64" height="64"/>
</clipPath>
<g id="surface14" clip-path="url(#clip4)">
<path style=" stroke:none;fill-rule:evenodd;fill:rgb(0.392157%,0.392157%,0%);fill-opacity:1;" d="M 22.8125 60.3125 C 22.871094 59.71875 23.160156 59.28125 23.6875 59 C 26.824219 59.140625 29.867188 58.683594 32.8125 57.625 C 40.125 54.636719 47.375 51.511719 54.5625 48.25 C 55.1875 47.335938 55.023438 46.628906 54.0625 46.125 C 53.5625 46.042969 53.0625 46.042969 52.5625 46.125 C 48.4375 47.25 44.3125 48.375 40.1875 49.5 C 39.765625 50.132812 39.222656 50.632812 38.5625 51 C 34.972656 52.765625 31.242188 54.160156 27.375 55.1875 C 26.375 55.023438 26 54.441406 26.25 53.4375 C 26.347656 53.214844 26.492188 53.027344 26.6875 52.875 C 30.394531 51.820312 33.980469 50.445312 37.4375 48.75 C 38.375 48.09375 38.417969 47.386719 37.5625 46.625 C 37.328125 46.5 37.078125 46.4375 36.8125 46.4375 C 34.023438 46.855469 31.234375 47.25 28.4375 47.625 C 27.519531 47.707031 26.605469 47.707031 25.6875 47.625 C 23.132812 46.785156 20.59375 45.910156 18.0625 45 C 16.117188 44.539062 14.28125 44.808594 12.5625 45.8125 C 12.4375 50.1875 12.394531 54.5625 12.4375 58.9375 C 13.148438 58.917969 13.855469 58.9375 14.5625 59 C 15.085938 59.25 15.375 59.644531 15.4375 60.1875 C 15.402344 60.777344 15.113281 61.175781 14.5625 61.375 C 13.855469 61.4375 13.148438 61.457031 12.4375 61.4375 C 12.457031 62.0625 12.4375 62.6875 12.375 63.3125 C 12.203125 63.546875 12.015625 63.753906 11.8125 63.9375 C 8.0625 63.9375 4.3125 63.9375 0.5625 63.9375 C 0.355469 63.730469 0.144531 63.519531 -0.0625 63.3125 C -0.0625 56.230469 -0.0625 49.144531 -0.0625 42.0625 C 0.121094 41.859375 0.328125 41.671875 0.5625 41.5 C 4.3125 41.417969 8.0625 41.417969 11.8125 41.5 C 12.363281 41.820312 12.570312 42.300781 12.4375 42.9375 C 15.203125 41.9375 17.953125 42 20.6875 43.125 C 22.105469 43.667969 23.519531 44.207031 24.9375 44.75 C 25.6875 45.007812 26.457031 45.152344 27.25 45.1875 C 30.148438 44.828125 33.046875 44.429688 35.9375 44 C 37.679688 43.636719 39.074219 44.15625 40.125 45.5625 C 40.34375 45.914062 40.488281 46.289062 40.5625 46.6875 C 44.402344 45.707031 48.238281 44.683594 52.0625 43.625 C 54.015625 43.125 55.621094 43.644531 56.875 45.1875 C 58.097656 47.890625 57.367188 49.871094 54.6875 51.125 C 49.382812 53.382812 44.089844 55.675781 38.8125 58 C 36.433594 59.015625 34.015625 59.933594 31.5625 60.75 C 28.886719 61.417969 26.175781 61.628906 23.4375 61.375 C 23.050781 61.121094 22.84375 60.765625 22.8125 60.3125 Z M 22.8125 60.3125 "/>
</g>
<mask id="mask4">
  <g filter="url(#alpha)">
<rect x="0" y="0" width="64" height="64" style="fill:rgb(0%,0%,0%);fill-opacity:0.937255;stroke:none;"/>
  </g>
</mask>
<clipPath id="clip5">
  <rect x="0" y="0" width="64" height="64"/>
</clipPath>
<g id="surface17" clip-path="url(#clip5)">
<path style=" stroke:none;fill-rule:evenodd;fill:rgb(0.784314%,0.784314%,0.392157%);fill-opacity:1;" d="M 20.4375 60.1875 C 20.179688 61.398438 19.472656 61.753906 18.3125 61.25 C 17.960938 60.980469 17.792969 60.628906 17.8125 60.1875 C 17.851562 59.75 18.058594 59.394531 18.4375 59.125 C 19.511719 58.738281 20.179688 59.09375 20.4375 60.1875 Z M 20.4375 60.1875 "/>
</g>
</defs>
<g id="surface1">
<use xlink:href="#surface5" mask="url(#mask0)"/>
<use xlink:href="#surface8" mask="url(#mask1)"/>
<path style=" stroke:none;fill-rule:evenodd;fill:rgb(99.607843%,92.156863%,81.568627%);fill-opacity:1;" d="M 53.9375 2.4375 C 56.4375 2.4375 58.9375 2.4375 61.4375 2.4375 C 61.4375 8.269531 61.4375 14.105469 61.4375 19.9375 C 58.9375 19.9375 56.4375 19.9375 53.9375 19.9375 C 53.9375 14.105469 53.9375 8.269531 53.9375 2.4375 Z M 53.9375 2.4375 "/>
<path style=" stroke:none;fill-rule:evenodd;fill:rgb(99.215686%,82.352941%,73.333333%);fill-opacity:1;" d="M 41.0625 3.5625 C 41.851562 3.625 42.644531 3.667969 43.4375 3.6875 C 43.527344 4.097656 43.738281 4.449219 44.0625 4.75 C 45.136719 5.136719 45.804688 4.78125 46.0625 3.6875 C 46.855469 3.6875 47.644531 3.6875 48.4375 3.6875 C 48.539062 4.160156 48.789062 4.554688 49.1875 4.875 C 49.9375 4.9375 50.6875 4.957031 51.4375 4.9375 C 51.480469 9.3125 51.4375 13.6875 51.3125 18.0625 C 49.582031 19.019531 47.75 19.292969 45.8125 18.875 C 43.203125 17.949219 40.578125 17.074219 37.9375 16.25 C 36.980469 16.167969 36.019531 16.167969 35.0625 16.25 C 32.371094 16.609375 29.683594 17.007812 27 17.4375 C 25.742188 17.15625 25.429688 16.46875 26.0625 15.375 C 29.605469 13.527344 33.316406 12.066406 37.1875 11 C 37.382812 10.847656 37.527344 10.660156 37.625 10.4375 C 37.898438 9.398438 37.503906 8.816406 36.4375 8.6875 C 33.042969 9.589844 29.75 10.777344 26.5625 12.25 C 25.394531 12.6875 24.4375 13.394531 23.6875 14.375 C 19.546875 15.441406 15.421875 16.566406 11.3125 17.75 C 10.769531 17.832031 10.230469 17.832031 9.6875 17.75 C 8.800781 17.097656 8.71875 16.347656 9.4375 15.5 C 16.363281 12.425781 23.324219 9.425781 30.3125 6.5 C 33.429688 5.183594 36.679688 4.640625 40.0625 4.875 C 40.683594 4.65625 41.015625 4.21875 41.0625 3.5625 Z M 41.0625 3.5625 "/>
<path style=" stroke:none;fill-rule:evenodd;fill:rgb(3.529412%,3.137255%,2.745098%);fill-opacity:1;" d="M 57.3125 4.9375 C 58.769531 5.015625 59.207031 5.722656 58.625 7.0625 C 57.636719 7.722656 56.925781 7.511719 56.5 6.4375 C 56.414062 5.734375 56.683594 5.234375 57.3125 4.9375 Z M 57.3125 4.9375 "/>
<use xlink:href="#surface11" mask="url(#mask2)"/>
<path style=" stroke:none;fill-rule:evenodd;fill:rgb(98.823529%,74.509804%,34.509804%);fill-opacity:1;" d="M 22.0625 25.6875 C 25.863281 25.46875 28.300781 27.179688 29.375 30.8125 C 29.714844 33.652344 28.695312 35.839844 26.3125 37.375 C 22.808594 38.972656 19.957031 38.199219 17.75 35.0625 C 16.15625 31.554688 16.925781 28.699219 20.0625 26.5 C 20.71875 26.164062 21.382812 25.894531 22.0625 25.6875 Z M 22.0625 25.6875 "/>
<path style=" stroke:none;fill-rule:evenodd;fill:rgb(99.607843%,84.313725%,61.568627%);fill-opacity:1;" d="M 31.5625 29.5625 C 36.667969 29.4375 41.792969 29.394531 46.9375 29.4375 C 46.957031 30.105469 46.9375 30.773438 46.875 31.4375 C 45.894531 32.417969 44.917969 33.394531 43.9375 34.375 C 43.605469 34.457031 43.269531 34.457031 42.9375 34.375 C 42.136719 33.492188 41.261719 32.699219 40.3125 32 C 39.769531 31.980469 39.230469 31.957031 38.6875 31.9375 C 38.050781 31.921875 37.425781 31.984375 36.8125 32.125 C 36.0625 32.875 35.3125 33.625 34.5625 34.375 C 33.5625 34.457031 32.5625 34.457031 31.5625 34.375 C 32.054688 32.757812 32.054688 31.152344 31.5625 29.5625 Z M 31.5625 29.5625 "/>
<path style=" stroke:none;fill-rule:evenodd;fill:rgb(2.745098%,1.960784%,0.784314%);fill-opacity:1;" d="M 20.3125 30.6875 C 21.640625 30.675781 22.117188 31.300781 21.75 32.5625 C 21.023438 33.382812 20.316406 33.382812 19.625 32.5625 C 19.296875 31.722656 19.527344 31.097656 20.3125 30.6875 Z M 20.3125 30.6875 "/>
<use xlink:href="#surface14" mask="url(#mask3)"/>
<path style=" stroke:none;fill-rule:evenodd;fill:rgb(80.392157%,88.627451%,99.607843%);fill-opacity:1;" d="M 2.4375 43.9375 C 4.9375 43.9375 7.4375 43.9375 9.9375 43.9375 C 9.9375 49.769531 9.9375 55.605469 9.9375 61.4375 C 7.4375 61.4375 4.9375 61.4375 2.4375 61.4375 C 2.4375 55.605469 2.4375 49.769531 2.4375 43.9375 Z M 2.4375 43.9375 "/>
<path style=" stroke:none;fill-rule:evenodd;fill:rgb(99.215686%,82.352941%,73.333333%);fill-opacity:1;" d="M 22.8125 60.3125 C 22.023438 60.25 21.230469 60.207031 20.4375 60.1875 C 20.179688 59.09375 19.511719 58.738281 18.4375 59.125 C 18.058594 59.394531 17.851562 59.75 17.8125 60.1875 C 17.019531 60.1875 16.230469 60.1875 15.4375 60.1875 C 15.375 59.644531 15.085938 59.25 14.5625 59 C 13.855469 58.9375 13.148438 58.917969 12.4375 58.9375 C 12.394531 54.5625 12.4375 50.1875 12.5625 45.8125 C 14.28125 44.808594 16.117188 44.539062 18.0625 45 C 20.59375 45.910156 23.132812 46.785156 25.6875 47.625 C 26.605469 47.707031 27.519531 47.707031 28.4375 47.625 C 31.234375 47.25 34.023438 46.855469 36.8125 46.4375 C 37.078125 46.4375 37.328125 46.5 37.5625 46.625 C 38.417969 47.386719 38.375 48.09375 37.4375 48.75 C 33.980469 50.445312 30.394531 51.820312 26.6875 52.875 C 26.492188 53.027344 26.347656 53.214844 26.25 53.4375 C 26 54.441406 26.375 55.023438 27.375 55.1875 C 31.242188 54.160156 34.972656 52.765625 38.5625 51 C 39.222656 50.632812 39.765625 50.132812 40.1875 49.5 C 44.3125 48.375 48.4375 47.25 52.5625 46.125 C 53.0625 46.042969 53.5625 46.042969 54.0625 46.125 C 55.023438 46.628906 55.1875 47.335938 54.5625 48.25 C 47.375 51.511719 40.125 54.636719 32.8125 57.625 C 29.867188 58.683594 26.824219 59.140625 23.6875 59 C 23.160156 59.28125 22.871094 59.71875 22.8125 60.3125 Z M 22.8125 60.3125 "/>
<path style=" stroke:none;fill-rule:evenodd;fill:rgb(2.745098%,2.745098%,3.137255%);fill-opacity:1;" d="M 5.6875 56.4375 C 6.644531 56.3125 7.230469 56.707031 7.4375 57.625 C 7.375 58.4375 6.9375 58.875 6.125 58.9375 C 5.226562 58.769531 4.851562 58.226562 5 57.3125 C 5.121094 56.921875 5.351562 56.628906 5.6875 56.4375 Z M 5.6875 56.4375 "/>
<use xlink:href="#surface17" mask="url(#mask4)"/>
</g>
</svg>
