<svg class="svg-icon" style="width: 1em; height: 1em;vertical-align: middle;fill: currentColor;overflow: hidden;" viewBox="0 0 1024 1024" version="1.1" xmlns="http://www.w3.org/2000/svg"><path d="M809.34912 406.17984h-82.39104l-96.1536-130.72384a83.968 83.968 0 0 0 4.56704-26.27584 85.34016 85.34016 0 1 0-170.68032 0c0 9.23648 1.8432 17.94048 4.56704 26.27584l-96.1536 130.72384h-82.39104a71.68 71.68 0 0 0-71.68 71.68v204.8a71.68 71.68 0 0 0 71.68 71.68h518.67648a71.68 71.68 0 0 0 71.68-71.68v-204.8a71.74144 71.74144 0 0 0-71.72096-71.68z m-400.52736 208.6912c3.31776 5.28384 4.95616 13.08672 4.95616 23.36768v25.53856h-26.60352v-20.76672c0-4.79232-0.24576-8.76544-0.67584-11.91936a14.78656 14.78656 0 0 0-3.52256-7.8848 13.16864 13.16864 0 0 0-6.67648-4.096 46.03904 46.03904 0 0 0-10.28096-0.90112h-36.9664v45.58848h-26.43968v-137.8304h67.76832c17.83808 0 29.92128 3.4816 36.2496 10.46528 5.5296 6.22592 8.27392 16.384 8.27392 30.49472 0 15.31904-2.048 25.37472-6.08256 30.16704-3.64544 4.44416-9.728 7.45472-18.3296 9.0112v0.53248c8.04864 0.75776 14.17216 3.50208 18.3296 8.23296z m84.15232-302.592a84.7872 84.7872 0 0 0 57.0368 22.24128 84.66432 84.66432 0 0 0 56.99584-22.24128l69.07904 93.92128h-252.19072l69.07904-93.92128z m36.37248 351.49824h-95.00672v-137.8304h94.63808v22.60992h-68.15744v34.54976h64.67584v21.48352h-64.67584v36.57728h68.52608v22.60992z m148.62336 0h-44.27776l-58.44992-115.2h-1.08544l1.47456 57.15968 0.7168 58.0608h-26.64448v-137.8304h43.9296l59.16672 115.22048h0.7168l-2.19136-115.22048h26.64448v137.80992z m119.45984-115.22048h-40.59136v115.2h-26.48064v-115.2h-40.2432v-22.60992h107.3152v22.60992z m-412.28288 4.93568c2.12992 3.11296 3.15392 8.99072 3.15392 17.67424 0 9.4208-1.29024 15.79008-3.85024 19.10784-1.96608 2.02752-4.1984 3.42016-6.67648 4.17792s-6.0416 1.1264-10.6496 1.1264h-38.07232v-47.0016h37.31456c4.83328 0 8.76544 0.28672 11.75552 0.88064a11.75552 11.75552 0 0 1 7.02464 4.03456z"  /></svg>