<svg xmlns="http://www.w3.org/2000/svg" viewBox="0 0 850 850">
    <defs>
        <style>.payroll_cls-1{fill:#26261A;}.payroll_cls-2{fill:#7D7F6D;}.payroll_cls-3{fill:#c9c9b9;}.payroll_cls-4{fill:#a9a896;}.payroll_cls-5{fill:none;}
        </style>
    </defs>
    <g id="Layer_2" data-name="Layer 2">
        <g id="Layer_1-2" data-name="Layer 1">
            <rect class="payroll_cls-1" style="fill:#26261A !important;" width="850" height="850" rx="72.61"/>
            <path class="payroll_cls-2" style="fill:#7D7F6D !important;" d="M195.05,452.49h65.7v197.1h-65.7Z"/>
            <path class="payroll_cls-3" style="fill:#c9c9b9 !important;"
                  d="M655,531.11a32.84,32.84,0,0,1-16.42,28.47L501.65,638.42H337.4a87.6,87.6,0,0,1-76.65-45.06V508.5a87.6,87.6,0,0,1,62.8-43.8h.38a89.67,89.67,0,0,1,13.47-1.48A87.59,87.59,0,0,1,413.34,507H468.8a32.85,32.85,0,0,1,0,65.7h15.28l100.9-58,20.7-12A32.85,32.85,0,0,1,655,531.11Z"/>
            <path class="payroll_cls-4" style="fill:#a9a896 !important;"
                  d="M592.1,476.41A106.63,106.63,0,0,1,585,514.74l-101,58H468.8a32.85,32.85,0,0,0,0-65.7H413.28a87.59,87.59,0,0,0-75.88-43.8,89.78,89.78,0,0,0-13.41,1c4.87-52.29,40.78-129.1,89-160.91a15.4,15.4,0,0,0,6.57,1.09h76.66a15,15,0,0,0,6.29-1.31C554.59,337.68,592.1,424.35,592.1,476.41Z"/>
            <path class="payroll_cls-5" style="fill:none; !important;" d="M585,514.68c-.93,2.41-1.92,4.82-3,7.12"/>
            <path class="payroll_cls-4" style="fill:#a9a896 !important;"
                  d="M537.79,210.77a230.45,230.45,0,0,1-29.13,67,16.43,16.43,0,0,0-12.48-6.14H419.52A16.44,16.44,0,0,0,408,276.41l-1.2,1.32a240.17,240.17,0,0,1-29.13-67c5.48-1.65,8.71-6.46,14.18-8.38a23.42,23.42,0,0,1,16.75.33c6.63,2.84,12.16,8.87,19.39,9.25,11.06.6,18.94-11.88,29.89-11.55s19.27,13.19,30.28,11.93c6.73-1,11.49-6.46,17.35-9.3a22.89,22.89,0,0,1,17-1C528.42,203.92,531.93,209.07,537.79,210.77Z"/>
            <path class="payroll_cls-5" style="fill:none; !important;" d="M508.66,277.73c-.71,1.09-1.43,2.19-2.19,3.28"/>
            <path class="payroll_cls-5" style="fill:none; !important;" d="M408.57,281.23c-.71-1.1-1.42-2.19-2.08-3.29"/>
            <path class="payroll_cls-2" style="fill:#7D7F6D !important;"
                  d="M512.6,288a16.43,16.43,0,0,1-10,15.11,15,15,0,0,1-6.4,1.31H419.52a15.44,15.44,0,0,1-6.35-1.31,16.42,16.42,0,0,1-6.35-25.4l1.21-1.32a16.47,16.47,0,0,1,11.49-4.82h76.66A16.43,16.43,0,0,1,512.6,288Z"/>
            <path class="payroll_cls-3" style="fill:#c9c9b9 !important;"
                  d="M457.85,406a11.34,11.34,0,0,1-12.32-9.58,12.7,12.7,0,0,1,24.64,0,10.95,10.95,0,0,0,21.9,0,31.88,31.88,0,0,0-23.27-29.79v-7.39a10.95,10.95,0,1,0-21.9,0v7.18a31.81,31.81,0,0,0-23.27,29.78,32.85,32.85,0,0,0,33.95,31.71h.27a11.39,11.39,0,0,1,12.32,9.58,12.7,12.7,0,0,1-24.64,0,10.95,10.95,0,0,0-21.9,0,31.88,31.88,0,0,0,23.27,29.79v6.95a11,11,0,1,0,21.9,0v-6.95a31.93,31.93,0,0,0,23.27-29.79A32.85,32.85,0,0,0,457.91,406Z"/>
        </g>
    </g>
</svg>