<svg xmlns="http://www.w3.org/2000/svg" viewBox="0 0 850 850">
    <defs>
        <style>.cls-1{fill:#fff;}.cls-2{fill:#9ea700;}.cls-3{fill:#8e9600;}</style>
    </defs>
    <g id="Layer_2" data-name="Layer 2">
        <g id="Layer_1-2" data-name="Layer 1">
            <rect class="cls-1" width="850" height="850" rx="72.61"/>
            <path class="cls-2"
                  d="M533,317l-.52.52a36.15,36.15,0,0,0-5,44.62A120.22,120.22,0,0,1,425,545.27v72.61c106.52,0,192.88-86.36,192.88-192.88A192,192,0,0,0,589,323.5,36,36,0,0,0,533,317Z"/>
            <path class="cls-2"
                  d="M317.51,532.49a36.15,36.15,0,0,0,5-44.62A120.22,120.22,0,0,1,425,304.73V232.12c-106.52,0-192.88,86.36-192.88,192.88A192,192,0,0,0,261,526.5,36,36,0,0,0,317,533Z"/>
            <path class="cls-3"
                  d="M425.68,203.18l69.41,51.28a18.15,18.15,0,0,1,0,29.2l-69.41,51.28a18.15,18.15,0,0,1-28.94-14.6V217.78A18.15,18.15,0,0,1,425.68,203.18Z"/>
            <path class="cls-3"
                  d="M424.32,646.82l-69.41-51.28a18.15,18.15,0,0,1,0-29.2l69.41-51.28a18.15,18.15,0,0,1,28.94,14.6V632.22a18.15,18.15,0,0,1-28.94,14.6Z"/>
        </g>
    </g>
</svg>