<svg xmlns="http://www.w3.org/2000/svg" viewBox="0 0 850 850">
    <defs>
        <style>.marketing_auto_cls-1{fill:#26261A;}.marketing_auto_cls-2{fill:#a9a896;}.marketing_auto_cls-3{fill:#848375;}</style>
    </defs>
    <g id="Layer_2" data-name="Layer 2">
        <g id="Layer_1-2" data-name="Layer 1">
            <rect class="marketing_auto_cls-1" style="fill:#26261A !important;" width="850" height="850" rx="72.61"/>
            <g id="Infinity">
                <path class="marketing_auto_cls-2" style="fill:#a9a896 !important;"
                      d="M664.36,411.72A119.67,119.67,0,0,0,543.24,304a121.2,121.2,0,0,0-93.6,43L425,375.88l-24.64-28.8a121.2,121.2,0,0,0-93.6-43A119.66,119.66,0,0,0,185.64,411.72a138.64,138.64,0,0,0,0,26.56A119.66,119.66,0,0,0,306.76,546a121.2,121.2,0,0,0,93.6-43L425,474.12l24.32,28.48A122.61,122.61,0,0,0,665,427.24V425a120.13,120.13,0,0,0-.64-13.28Zm-312.64,49.6a58.35,58.35,0,0,1-45,20.64,55.58,55.58,0,0,1-57.44-49.6c-.16-2.4-.32-4.8-.32-7.36s.16-5,.32-7.36A55.58,55.58,0,0,1,306.76,368a58.35,58.35,0,0,1,45,20.64L382.92,425Zm190.56,20.16A56.63,56.63,0,0,1,498,460.84L467.08,425l31.2-36.32a58.32,58.32,0,0,1,45-20.64,55.59,55.59,0,0,1,57.44,49.6c.16,2.4.32,4.8.32,7.36a56.87,56.87,0,0,1-57.22,56.51Z"/>
                <path class="marketing_auto_cls-3" style="fill:#848375 !important;" d="M425,474.12l-21.12,24.64L361.8,449.64,382.92,425Z"/>
                <path class="marketing_auto_cls-3" style="fill:#848375 !important;" d="M488.2,400.36,467.08,425,425,375.88l21.12-24.64Z"/>
            </g>
        </g>
    </g>
</svg>