<?xml version="1.0" encoding="UTF-8"?>
<svg id="Layer_2" data-name="Layer 2" xmlns="http://www.w3.org/2000/svg" viewBox="0 0 850 850">
  <defs>
    <style>
      .cls-1 {
        fill: #fff;
      }

      .cls-2 {
        fill: #676d00;
      }

      .cls-3 {
        fill: #9ea700;
      }

      .cls-4 {
        fill: #868e00;
      }
    </style>
  </defs>
  <g id="Layer_1-2" data-name="Layer 1">
    <g>
      <rect class="cls-1" width="850" height="850" rx="72.61" ry="72.61"/>
      <g>
        <g>
          <path class="cls-3" d="m350.3,260.69h268.94c8.25,0,14.94,5.66,14.94,12.64v303.35c0,6.98-6.69,12.64-14.94,12.64h-268.94c-8.25,0-14.94-5.66-14.94-12.64v-303.35c0-6.98,6.69-12.64,14.94-12.64Z"/>
          <path class="cls-4" d="m230.77,260.69h119.53c8.25,0,14.94,5.66,14.94,12.64v303.35c0,6.98-6.69,12.64-14.94,12.64h-119.53c-8.25,0-14.94-5.66-14.94-12.64v-303.35c0-6.98,6.69-12.64,14.94-12.64Z"/>
        </g>
        <rect class="cls-2" x="354.35" y="223.27" width="13.99" height="403.47" rx="5.44" ry="5.44"/>
      </g>
    </g>
  </g>
</svg>