<?xml version="1.0" encoding="UTF-8"?>
<svg id="Layer_2" data-name="Layer 2" xmlns="http://www.w3.org/2000/svg" viewBox="0 0 850 850">
  <defs>
    <style>
      .cls-1 {
        fill: #fff;
      }

      .cls-2 {
        fill: #bbc14d;
      }

      .cls-3 {
        fill: #9ea700;
      }

      .cls-4 {
        fill: #ecedb4;
      }

      .cls-5 {
        fill: #cfd380;
      }
    </style>
  </defs>
  <g id="Layer_1-2" data-name="Layer 1">
    <g>
      <g>
        <path class="cls-2" d="m661.37,338.31c0,36.6-13.64,70.12-42.93,105.46-26.21,31.62-63.86,63.71-107.47,100.87-14.9,12.69-31.79,27.09-49.31,42.42-4.59,4.02-10.47,6.25-16.58,6.28h-.15c-6.16,0-12.1-2.23-16.73-6.29-17.49-15.29-34.35-29.67-49.22-42.35l-.08-.06c-43.6-37.16-81.27-69.26-107.47-100.88-29.29-35.33-42.93-68.85-42.93-105.46s12.2-68.38,34.34-92.4c22.41-24.31,53.16-37.69,86.59-37.69,24.99,0,47.87,7.89,68.02,23.47,10.17,7.87,19.38,17.48,27.49,28.72l.15-.2c8.08-11.15,17.24-20.7,27.35-28.51,20.14-15.58,43.03-23.47,68.01-23.47,33.43,0,64.18,13.38,86.59,37.69,22.14,24.02,34.34,56.83,34.34,92.4Z"/>
        <path class="cls-3" d="m668.82,333.92c0,36.6-13.64,70.12-42.93,105.46-26.21,31.62-63.86,63.71-107.47,100.87-14.9,12.69-31.79,27.09-49.31,42.42-4.59,4.02-10.47,6.25-16.58,6.28V255.82c8.08-11.15,17.24-20.7,27.35-28.51,20.14-15.58,43.03-23.47,68.01-23.47,33.43,0,64.18,13.38,86.59,37.69,22.14,24.02,34.34,56.83,34.34,92.4Z"/>
      </g>
      <rect class="cls-1" x="0" width="850" height="850" rx="72.61" ry="72.61"/>
      <g>
        <g>
          <path class="cls-4" d="m218.94,403.68l62.3,257.46,156.11-37.77-4.77-124.92-57.53-132.54-82.81.02-73.3,37.76Z"/>
          <path class="cls-2" d="m204.86,345.49l14.08,58.19,156.11-37.77,13.75-34.12-27.83-24.06-156.11,37.77Z"/>
          <path class="cls-5" d="m375.05,365.91l62.3,257.46,159.54-38.6-62.3-257.46-81.7-.25-77.84,38.85Z"/>
        </g>
        <g>
          <path class="cls-5" d="m316.38,284.73v264.89h160.61l24.75-122.53-24.75-142.36-80.49-19.46-80.12,19.46Z"/>
          <path class="cls-2" d="m316.38,224.86v59.87h160.61l21.39-29.93-21.39-29.93h-160.61Z"/>
          <path class="cls-2" d="m476.99,284.73v264.89h59.31l49.01-64.7,55.83-40.14v-160.05l-79.35-19.46-84.79,19.46Z"/>
          <path class="cls-3" d="m476.99,224.86h164.15v59.87h-164.15v-59.87Z"/>
        </g>
        <path class="cls-3" d="m536.3,549.62v-104.84h104.84l-104.84,104.84Z"/>
      </g>
    </g>
  </g>
</svg>