<svg id="svg10042" height="144" viewBox="0 0 144 144" width="144" xmlns="http://www.w3.org/2000/svg" xmlns:cc="http://creativecommons.org/ns#" xmlns:dc="http://purl.org/dc/elements/1.1/" xmlns:inkscape="http://www.inkscape.org/namespaces/inkscape" xmlns:rdf="http://www.w3.org/1999/02/22-rdf-syntax-ns#" xmlns:sodipodi="http://sodipodi.sourceforge.net/DTD/sodipodi-0.dtd" xmlns:svg="http://www.w3.org/2000/svg"><g id="layer1" transform="translate(0 -908.362)"><g id="g12449" transform="translate(-1334.597 -4128.305)"><circle id="circle12451" cx="1406.597" cy="5108.668" fill="#36d7b7" r="72"/><g id="g12453" transform="translate(-887.3 1370.986)"><path id="rect12455" d="m2261.425 3699.094h64.944v77.174h-64.944z" fill="#efeae1"/><path id="path12457" d="m2325.7588 3759.6793c-7.822 0-14.1855 6.3616-14.1855 14.1836s6.3635 14.1856 14.1855 14.1856c7.8221 0 14.1836-6.3636 14.1836-14.1856s-6.3615-14.1836-14.1836-14.1836z" fill="#3b3c3d" text-indent="0" text-align="start" text-decoration-line="none" text-decoration-style="solid" text-decoration-color="#000000" text-transform="none" block-progression="tb" white-space="normal" isolation="auto" mix-blend-mode="normal" solid-color="#000000" solid-opacity="1"/><path id="path12459" d="m2325.7588 3761.6793c6.7412 0 12.1836 5.4424 12.1836 12.1836s-5.4424 12.1856-12.1836 12.1856c-6.7411 0-12.1855-5.4444-12.1855-12.1856s5.4444-12.1836 12.1855-12.1836z" fill="#9677a7" text-indent="0" text-align="start" text-decoration-line="none" text-decoration-style="solid" text-decoration-color="#000000" text-transform="none" block-progression="tb" white-space="normal" isolation="auto" mix-blend-mode="normal" solid-color="#000000" solid-opacity="1"/><path id="path13500" d="m2325.7315 3769.3395c-.8231 0-1.5736.3096-2.4043.6992-.8309.3895-1.6994.8899-2.502 1.3867-1.6052.9936-2.9453 1.9824-2.9453 1.9824l-1.2051.8867 1.2813.7735s1.3385.8114 2.9414 1.625c.8015.4068 1.6711.8156 2.4961 1.1328s1.5728.5625 2.3379.5625c.7868 0 1.538-.2693 2.3691-.6133.8312-.344 1.7063-.7862 2.5137-1.2265 1.6147-.8808 2.9668-1.7579 2.9668-1.7579l1.2617-.8183-1.2441-.8477s-1.3515-.9219-2.9668-1.8476c-.8077-.4629-1.6831-.929-2.5157-1.291-.8325-.3621-1.5834-.6465-2.3847-.6465z" fill="#3b3c3d" text-indent="0" text-align="start" text-decoration-line="none" text-decoration-style="solid" text-decoration-color="#000000" text-transform="none" block-progression="tb" white-space="normal" isolation="auto" mix-blend-mode="normal" solid-color="#000000" solid-opacity="1"/><path id="path12461" d="m2325.7315 3771.3395c.2002 0 .8631.1652 1.5879.4804.7247.3152 1.5503.7532 2.3183 1.1934.7985.4576.9534.581 1.4746.916-.52.3179-.6661.433-1.455.8633-.7683.4191-1.5961.8342-2.3223 1.1348-.7262.3005-1.3888.4609-1.6035.4609-.2365 0-.8952-.1514-1.6192-.4297-.7239-.2783-1.5455-.6615-2.3086-1.0488-.7678-.3897-.9024-.4894-1.416-.7813.5185-.3608.6828-.5021 1.4903-1.0019.7619-.4717 1.5805-.9406 2.2988-1.2774.7181-.3368 1.3762-.5097 1.5547-.5097z" fill="#d3d4d6" text-indent="0" text-align="start" text-decoration-line="none" text-decoration-style="solid" text-decoration-color="#000000" text-transform="none" block-progression="tb" white-space="normal" isolation="auto" mix-blend-mode="normal" solid-color="#000000" solid-opacity="1"/><g fill="#3b3c3d"><path id="path12463" d="m2325.7547 3772.047c-.9994 0-1.8513.8083-1.8513 1.8161s.8519 1.8176 1.8513 1.8176c.9993 0 1.8497-.8098 1.8497-1.8176s-.8504-1.8161-1.8497-1.8161z" text-indent="0" text-align="start" text-decoration-line="none" text-decoration-style="solid" text-decoration-color="#000000" text-transform="none" block-progression="tb" white-space="normal" isolation="auto" mix-blend-mode="normal" solid-color="#000000" solid-opacity="1"/><path id="path12465" d="m2260.9753 3698.4749v78.4121h48.3848v-2h-46.3887v-74.4121h61.8477v56.9843l2 .01v-58.9902z" text-indent="0" text-align="start" text-decoration-line="none" text-decoration-style="solid" text-decoration-color="#000000" text-transform="none" block-progression="tb" white-space="normal" isolation="auto" mix-blend-mode="normal" solid-color="#000000" solid-opacity="1"/><path id="path12467" d="m2273.9402 3735.9838v2h39.916v-2z" text-indent="0" text-align="start" text-decoration-line="none" text-decoration-style="solid" text-decoration-color="#000000" text-transform="none" block-progression="tb" white-space="normal" isolation="auto" mix-blend-mode="normal" solid-color="#000000" solid-opacity="1"/><path id="path12469" d="m2281.405 3759.8627v2h24.9864v-2z" text-indent="0" text-align="start" text-decoration-line="none" text-decoration-style="solid" text-decoration-color="#000000" text-transform="none" block-progression="tb" white-space="normal" isolation="auto" mix-blend-mode="normal" solid-color="#000000" solid-opacity="1"/><path id="path12471" d="m2273.9402 3743.9427v2h39.916v-2z" text-indent="0" text-align="start" text-decoration-line="none" text-decoration-style="solid" text-decoration-color="#000000" text-transform="none" block-progression="tb" white-space="normal" isolation="auto" mix-blend-mode="normal" solid-color="#000000" solid-opacity="1"/><path id="path12473" d="m2273.9402 3751.9037v2h39.916v-2z" text-indent="0" text-align="start" text-decoration-line="none" text-decoration-style="solid" text-decoration-color="#000000" text-transform="none" block-progression="tb" white-space="normal" isolation="auto" mix-blend-mode="normal" solid-color="#000000" solid-opacity="1"/><path id="path12475" d="m2293.8972 3704.8499c-4.6161 0-8.3691 3.8-8.3691 8.4472 0 1.9609.6736 3.7662 1.7929 5.2031l-3.8984 10.1641 5.1289-2.0937 2.502 4.8379 2.8379-7.8125 2.9726 7.7968 2.3379-4.8789 5.1953 2.2852-4.0625-10.1152c1.2058-1.4645 1.9317-3.3432 1.9317-5.3868 0-4.6472-3.7531-8.4472-8.3692-8.4472z" text-indent="0" text-align="start" text-decoration-line="none" text-decoration-style="solid" text-decoration-color="#000000" text-transform="none" block-progression="tb" white-space="normal" isolation="auto" mix-blend-mode="normal" solid-color="#000000" solid-opacity="1"/></g><path id="path12477" d="m2293.8972 3706.8499c3.524 0 6.3692 2.8698 6.3692 6.4472 0 3.5773-2.8452 6.4453-6.3692 6.4453s-6.3691-2.868-6.3691-6.4453c0-3.5774 2.8451-6.4472 6.3691-6.4472z" fill="#81d4ef" text-indent="0" text-align="start" text-decoration-line="none" text-decoration-style="solid" text-decoration-color="#000000" text-transform="none" block-progression="tb" white-space="normal" isolation="auto" mix-blend-mode="normal" solid-color="#000000" solid-opacity="1"/><path id="path12479" d="m2288.8757 3720.0335c1.0423.7938 2.2686 1.3484 3.6074 1.58l-1.7519 4.8204-1.2422-2.4043-2.5449 1.039z" fill="#3b3c3d" text-indent="0" text-align="start" text-decoration-line="none" text-decoration-style="solid" text-decoration-color="#000000" text-transform="none" block-progression="tb" white-space="normal" isolation="auto" mix-blend-mode="normal" solid-color="#000000" solid-opacity="1"/><path id="path12481" d="m2298.7683 3720.1487 1.9453 4.8457-2.4785-1.0918-1.1621 2.4238-1.7949-4.709c1.2869-.2173 2.4723-.729 3.4902-1.4687z" fill="#3b3c3d" text-indent="0" text-align="start" text-decoration-line="none" text-decoration-style="solid" text-decoration-color="#000000" text-transform="none" block-progression="tb" white-space="normal" isolation="auto" mix-blend-mode="normal" solid-color="#000000" solid-opacity="1"/></g></g></g></svg>