<svg id="Capa_1" enable-background="new 0 0 511.555 511.555" height="512" viewBox="0 0 511.555 511.555" width="512" xmlns="http://www.w3.org/2000/svg"><path d="m489.055 504.055h-466.555c-8.284 0-15-6.716-15-15v-466.555c0-8.284 6.716-15 15-15h466.555c8.284 0 15 6.716 15 15v466.555c0 8.284-6.716 15-15 15z" fill="#fff5f5"/><path d="m504.055 94.459h-496.555v-71.959c0-8.284 6.716-15 15-15h466.555c8.284 0 15 6.716 15 15z" fill="#00aaf2"/><path d="m503.927 22.627v466.3c0 8.29-6.71 15-15 15h-33.92c8.29 0 15-6.71 15-15v-466.3c0-8.29-6.71-15-15-15h33.92c8.29 0 15 6.71 15 15z" fill="#efe2dd"/><path d="m503.927 22.627v71.91h-33.92v-71.91c0-8.29-6.71-15-15-15h33.92c8.29 0 15 6.71 15 15z" fill="#0091d0"/><circle cx="66.678" cy="52.259" fill="#ff5757" r="16.449"/><circle cx="130.207" cy="52.259" fill="#ffc143" r="16.449"/><circle cx="193.735" cy="52.259" fill="#a3e72d" r="16.449"/><path d="m83.122 52.265c0 9.081-7.358 16.438-16.438 16.438-4.399 0-8.401-1.723-11.348-4.546 8.899-.193 16.064-7.471 16.064-16.427 0-4.694-1.961-8.911-5.102-11.904.125-.012.261-.012.385-.012 9.081.001 16.439 7.358 16.439 16.451z" fill="#ff4343"/><path d="m146.654 52.265c0 9.081-7.358 16.438-16.45 16.438-4.399 0-8.389-1.723-11.348-4.546 8.911-.193 16.076-7.471 16.076-16.427 0-4.694-1.961-8.911-5.102-11.904.125-.012.249-.012.374-.012 9.092.001 16.45 7.358 16.45 16.451z" fill="#ffb509"/><path d="m210.185 52.265c0 9.081-7.369 16.438-16.45 16.438-4.399 0-8.389-1.723-11.348-4.546 8.911-.193 16.064-7.471 16.064-16.427 0-4.694-1.961-8.911-5.102-11.904.125-.012.261-.012.385-.012 9.083.001 16.451 7.358 16.451 16.451z" fill="#80cf00"/><path d="m445.924 182.255h-380.294c-3.328 0-6.026-2.698-6.026-6.026v-36.071c0-3.328 2.698-6.026 6.026-6.026h380.294c3.328 0 6.026 2.698 6.026 6.026v36.071c0 3.329-2.698 6.026-6.026 6.026z" fill="#a3e72d"/><path d="m445.924 262.363h-380.294c-3.328 0-6.026-2.698-6.026-6.026v-36.071c0-3.328 2.698-6.026 6.026-6.026h380.294c3.328 0 6.026 2.698 6.026 6.026v36.071c0 3.328-2.698 6.026-6.026 6.026z" fill="#a3e72d"/><path d="m445.924 182.255h-22.434v-48.122h22.434c3.328 0 6.026 2.698 6.026 6.026v36.071c0 3.328-2.698 6.025-6.026 6.025z" fill="#80cf00"/><path d="m445.924 262.363h-22.434v-48.122h22.434c3.328 0 6.026 2.698 6.026 6.026v36.071c0 3.327-2.698 6.025-6.026 6.025z" fill="#80cf00"/><path d="m445.924 398.285h-380.294c-3.328 0-6.026-2.698-6.026-6.026v-91.886c0-3.328 2.698-6.026 6.026-6.026h380.294c3.328 0 6.026 2.698 6.026 6.026v91.886c0 3.329-2.698 6.026-6.026 6.026z" fill="#c9f0ff"/><path d="m423.49 294.351h22.436c3.324 0 6.026 2.691 6.026 6.026v91.881c0 3.334-2.702 6.026-6.026 6.026h-22.436z" fill="#9ae7fd"/><path d="m445.924 467.21h-84.822c-3.328 0-6.026-2.698-6.026-6.026v-24.888c0-3.328 2.698-6.026 6.026-6.026h84.822c3.328 0 6.026 2.698 6.026 6.026v24.888c0 3.328-2.698 6.026-6.026 6.026z" fill="#ff5757"/><path d="m445.924 467.21h-22.434v-36.939h22.434c3.328 0 6.026 2.698 6.026 6.026v24.888c0 3.327-2.698 6.025-6.026 6.025z" fill="#f72c2c"/><path d="m489.055 0h-466.555c-12.406 0-22.5 10.094-22.5 22.5v71.959 394.596c0 12.406 10.094 22.5 22.5 22.5h466.555c12.406 0 22.5-10.094 22.5-22.5v-394.596-71.959c0-12.406-10.094-22.5-22.5-22.5zm7.5 489.055c0 4.136-3.364 7.5-7.5 7.5h-466.555c-4.136 0-7.5-3.364-7.5-7.5v-387.096h481.555zm0-402.096h-481.555v-64.459c0-4.136 3.364-7.5 7.5-7.5h466.555c4.136 0 7.5 3.364 7.5 7.5z"/><path d="m66.678 28.31c-13.206 0-23.949 10.743-23.949 23.949s10.743 23.949 23.949 23.949 23.95-10.743 23.95-23.949-10.744-23.949-23.95-23.949zm0 32.898c-4.935 0-8.949-4.015-8.949-8.949s4.015-8.949 8.949-8.949c4.936 0 8.95 4.015 8.95 8.949s-4.015 8.949-8.95 8.949z"/><path d="m130.207 28.31c-13.206 0-23.95 10.743-23.95 23.949s10.744 23.949 23.95 23.949 23.949-10.743 23.949-23.949-10.743-23.949-23.949-23.949zm0 32.898c-4.936 0-8.95-4.015-8.95-8.949s4.015-8.949 8.95-8.949 8.949 4.015 8.949 8.949-4.014 8.949-8.949 8.949z"/><path d="m193.735 28.31c-13.206 0-23.949 10.743-23.949 23.949s10.743 23.949 23.949 23.949 23.949-10.743 23.949-23.949-10.743-23.949-23.949-23.949zm0 32.898c-4.935 0-8.949-4.015-8.949-8.949s4.015-8.949 8.949-8.949 8.949 4.015 8.949 8.949-4.014 8.949-8.949 8.949z"/><path d="m65.63 189.755h380.295c7.458 0 13.525-6.067 13.525-13.525v-36.07c0-7.458-6.067-13.525-13.525-13.525h-380.295c-7.458 0-13.525 6.067-13.525 13.525v36.07c-.001 7.458 6.067 13.525 13.525 13.525zm1.474-48.121h377.346v33.121h-377.346z"/><path d="m65.63 269.862h380.295c7.458 0 13.525-6.067 13.525-13.525v-36.07c0-7.458-6.067-13.526-13.525-13.526h-285.648c-4.143 0-7.5 3.357-7.5 7.5s3.357 7.5 7.5 7.5h284.173v33.122h-377.346v-33.123h58.673c4.143 0 7.5-3.357 7.5-7.5s-3.357-7.5-7.5-7.5h-60.147c-7.458 0-13.525 6.068-13.525 13.526v36.07c-.001 7.459 6.067 13.526 13.525 13.526z"/><path d="m65.63 405.785h380.295c7.458 0 13.525-6.067 13.525-13.525v-43.815c0-4.143-3.357-7.5-7.5-7.5s-7.5 3.357-7.5 7.5v42.341h-377.346v-88.938h377.346v12.263c0 4.143 3.357 7.5 7.5 7.5s7.5-3.357 7.5-7.5v-13.736c0-7.458-6.067-13.526-13.525-13.526h-380.295c-7.458 0-13.525 6.068-13.525 13.526v91.886c-.001 7.457 6.067 13.524 13.525 13.524z"/><path d="m445.925 422.771h-84.822c-7.458 0-13.525 6.067-13.525 13.525v24.889c0 7.458 6.067 13.525 13.525 13.525h84.822c7.458 0 13.525-6.067 13.525-13.525v-24.889c0-7.458-6.067-13.525-13.525-13.525zm-1.475 36.939h-81.873v-21.939h81.873z"/><path d="m92.158 334.436h24.712c4.143 0 7.5-3.357 7.5-7.5s-3.357-7.5-7.5-7.5h-24.712c-4.143 0-7.5 3.357-7.5 7.5s3.358 7.5 7.5 7.5z"/><path d="m302.813 326.936c0-4.143-3.357-7.5-7.5-7.5h-150.77c-4.143 0-7.5 3.357-7.5 7.5s3.357 7.5 7.5 7.5h150.77c4.142 0 7.5-3.358 7.5-7.5z"/><path d="m217.274 344.958c-4.143 0-7.5 3.357-7.5 7.5s3.357 7.5 7.5 7.5h55.137c4.143 0 7.5-3.357 7.5-7.5s-3.357-7.5-7.5-7.5z"/><path d="m171.251 344.958c-4.143 0-7.5 3.357-7.5 7.5s3.357 7.5 7.5 7.5h17.188c4.143 0 7.5-3.357 7.5-7.5s-3.357-7.5-7.5-7.5z"/><path d="m92.158 359.958h51.431c4.143 0 7.5-3.357 7.5-7.5s-3.357-7.5-7.5-7.5h-51.431c-4.143 0-7.5 3.357-7.5 7.5s3.358 7.5 7.5 7.5z"/></svg>