<svg width="850" height="850" viewBox="0 0 850 850" fill="none" xmlns="http://www.w3.org/2000/svg">
<g clip-path="url(#clip0_106_438)">
<path d="M777.39 0H72.61C32.5086 0 0 32.5086 0 72.61V777.39C0 817.491 32.5086 850 72.61 850H777.39C817.491 850 850 817.491 850 777.39V72.61C850 32.5086 817.491 0 777.39 0Z" fill="#26261A"/>
<path d="M638.333 563.667V595.667C638.316 601.319 636.063 606.736 632.066 610.733C628.069 614.73 622.653 616.983 617 617H477.267C482.943 612.48 487.688 606.901 491.24 600.573C501.569 582.495 508.781 562.806 512.573 542.333H617C622.653 542.35 628.069 544.603 632.066 548.6C636.063 552.598 638.316 558.014 638.333 563.667ZM638.333 489V521C638.316 526.653 636.063 532.069 632.066 536.066C628.069 540.063 622.653 542.316 617 542.333H512.573C514.163 534.005 514.843 525.529 514.6 517.053C513.85 500.031 509.982 483.292 503.187 467.667H617C622.653 467.684 628.069 469.937 632.066 473.934C636.063 477.931 638.316 483.347 638.333 489ZM638.333 414.333V446.333C638.316 451.986 636.063 457.403 632.066 461.4C628.069 465.397 622.653 467.65 617 467.667H503.187C491.368 441.518 474.844 417.764 454.44 397.587C453.053 395.987 451.453 394.493 449.96 393H617C622.653 393.017 628.069 395.27 632.066 399.267C636.063 403.264 638.316 408.681 638.333 414.333Z" fill="#A9A78E"/>
<path d="M617.321 365.373L477.588 393L454.441 397.587C453.054 395.987 451.454 394.493 449.961 393C437.964 381.094 425.208 369.978 411.774 359.72C416.894 353.96 421.908 347.88 426.494 341.587L606.868 305.853C613.176 304.753 619.663 306.203 624.903 309.883C630.143 313.563 633.708 319.173 634.814 325.48L636.948 337.32C638.043 343.64 636.595 350.137 632.918 355.393C629.241 360.649 623.634 364.237 617.321 365.373ZM339.668 456.573V481.213C337.019 480.418 334.697 478.789 333.047 476.57C331.396 474.351 330.505 471.659 330.505 468.893C330.505 466.128 331.396 463.436 333.047 461.216C334.697 458.997 337.019 457.369 339.668 456.573ZM361.001 507.453C363.65 508.249 365.971 509.877 367.622 512.096C369.272 514.316 370.163 517.008 370.163 519.773C370.163 522.539 369.272 525.231 367.622 527.45C365.971 529.669 363.65 531.298 361.001 532.093V507.453Z" fill="#A9A78E"/>
<path d="M391.72 361.427C404.455 348.845 415.76 334.894 425.427 319.827C434.643 303.34 441.807 285.787 446.76 267.56C447.934 263.827 449 260.52 449.96 257.747C450.726 255.461 450.695 252.984 449.872 250.718C449.049 248.453 447.484 246.533 445.43 245.271C443.377 244.009 440.956 243.48 438.564 243.77C436.171 244.06 433.947 245.151 432.254 246.867C429.698 249.458 426.637 251.496 423.261 252.853C419.884 254.211 416.265 254.86 412.627 254.76C409.045 254.433 405.6 253.224 402.6 251.24C396.498 246.247 388.831 243.565 380.947 243.667C373.095 243.561 365.46 246.245 359.4 251.24C356.903 253.504 353.652 254.759 350.28 254.759C346.909 254.759 343.658 253.504 341.16 251.24C335.028 246.338 327.411 243.667 319.56 243.667C311.71 243.667 304.092 246.338 297.96 251.24C296.561 252.364 295.019 253.297 293.374 254.013C292.947 254.227 291.027 254.333 288.787 254.76C280.785 253.499 273.208 250.314 266.707 245.48C264.856 244.258 262.67 243.643 260.453 243.721C258.236 243.799 256.099 244.566 254.339 245.916C252.578 247.265 251.283 249.13 250.632 251.251C249.981 253.371 250.007 255.642 250.707 257.747C251.667 260.52 252.734 263.827 253.907 267.56C258.861 285.787 266.026 303.339 275.24 319.827C284.908 334.894 296.212 348.845 308.947 361.427C273.854 386.493 202.067 446.12 199.4 517.587C199.849 544.495 207.313 570.82 221.054 593.96C225.126 601.009 230.991 606.854 238.055 610.901C245.118 614.948 253.127 617.052 261.267 617H439.4C447.541 617.052 455.55 614.948 462.613 610.901C469.676 606.854 475.542 601.009 479.614 593.96C493.355 570.82 500.819 544.495 501.267 517.587C498.6 446.12 426.814 386.493 391.72 361.427ZM391.507 519.72C391.071 528.102 387.823 536.092 382.288 542.401C376.753 548.71 369.254 552.97 361 554.493V563.667C361 566.496 359.877 569.209 357.876 571.209C355.876 573.21 353.163 574.333 350.334 574.333C347.505 574.333 344.792 573.21 342.791 571.209C340.791 569.209 339.667 566.496 339.667 563.667V554.493C331.414 552.97 323.914 548.71 318.379 542.401C312.844 536.092 309.597 528.102 309.16 519.72C309.16 516.891 310.284 514.178 312.285 512.178C314.285 510.177 316.998 509.053 319.827 509.053C322.656 509.053 325.369 510.177 327.37 512.178C329.37 514.178 330.494 516.891 330.494 519.72C330.719 522.432 331.697 525.027 333.318 527.213C334.939 529.4 337.138 531.09 339.667 532.093V503.613C331.422 502.112 323.925 497.873 318.389 491.582C312.853 485.291 309.601 477.315 309.16 468.947C309.597 460.565 312.844 452.575 318.379 446.266C323.914 439.957 331.414 435.697 339.667 434.173V425C339.667 422.171 340.791 419.458 342.791 417.458C344.792 415.457 347.505 414.333 350.334 414.333C353.163 414.333 355.876 415.457 357.876 417.458C359.877 419.458 361 422.171 361 425V434.173C369.254 435.697 376.753 439.957 382.288 446.266C387.823 452.575 391.071 460.565 391.507 468.947C391.507 471.776 390.383 474.489 388.383 476.489C386.382 478.49 383.669 479.613 380.84 479.613C378.011 479.613 375.298 478.49 373.298 476.489C371.298 474.489 370.174 471.776 370.174 468.947C369.948 466.235 368.97 463.639 367.35 461.453C365.729 459.267 363.53 457.577 361 456.573V485.053C369.245 486.555 376.742 490.794 382.278 497.085C387.815 503.376 391.066 511.351 391.507 519.72Z" fill="#A9A78E"/>
<rect x="292" y="408" width="117" height="175" fill="#A9A78E"/>
<path d="M300.719 463.236C301.359 460.572 304.677 459.628 306.623 461.575L319.575 474.533H329.525V464.583L316.59 451.656C314.653 449.718 315.587 446.404 318.237 445.755C324.353 444.257 334.277 444.481 341.95 452.151C348.663 458.864 350.819 468.884 347.664 477.756L387.243 517.335C396.115 514.18 406.135 516.336 412.848 523.049C420.325 530.526 420.766 540.553 419.272 546.771C418.632 549.435 415.314 550.38 413.368 548.433L400.416 535.474H390.466V545.424L403.397 558.348C405.335 560.286 404.401 563.601 401.75 564.249C395.636 565.744 385.716 565.528 378.042 557.856C371.329 551.143 369.172 541.123 372.327 532.251L332.748 492.672C323.876 495.827 313.859 493.671 307.143 486.958C299.666 479.481 299.225 469.454 300.719 463.236Z" fill="#26261A"/>
<path d="M359.996 529.865L330.001 559.858C323.999 565.861 314.698 566.608 307.877 562.094L334.975 534.999C336.346 533.625 336.346 531.398 334.975 530.025C333.602 528.654 331.375 528.654 330.001 530.025L302.906 557.123C298.392 550.302 299.137 541.001 305.142 534.999L335.135 505.004L359.996 529.865ZM419.63 455.06L409.685 474.948C409.169 475.981 408.18 476.694 407.036 476.858L390.795 479.176L374.913 495.058L369.942 490.087L385.821 474.207L388.142 457.964C388.306 456.82 389.019 455.831 390.052 455.315L409.94 445.37C410.6 445.041 411.347 444.927 412.075 445.045C412.803 445.164 413.476 445.508 413.997 446.029L418.971 451.003C419.492 451.524 419.836 452.197 419.955 452.925C420.073 453.653 419.959 454.4 419.63 455.06Z" fill="#26261A"/>
</g>
<defs>
<clipPath id="clip0_106_438">
<rect width="850" height="850" fill="white"/>
</clipPath>
</defs>
</svg>
