<svg height="512" viewBox="0 0 64 64" width="512" xmlns="http://www.w3.org/2000/svg"><g id="Layer_14" data-name="Layer 14"><path d="m2 2h48v48h-48z" fill="#e5a961"/><path d="m26 2h24v48h-24z" fill="#d6914c"/><path d="m33 2v15l-7-3-7 3v-15z" fill="#f4ddb4"/><path d="m26 2h7v15l-7-3z" fill="#e0c292"/><g fill="#594a42"><path d="m5 37h2v2h-2z"/><path d="m9 37h2v2h-2z"/><path d="m5 41h10v2h-10z"/><path d="m5 45h10v2h-10z"/></g><circle cx="45" cy="45" fill="#8dc63f" r="17"/><path d="m45 28a17 17 0 0 1 0 34z" fill="#6a952f"/><path d="m57.41 39.01-12.41 12.29v-2.82l11.01-10.89z" fill="#6a952f"/><path d="m41.857 54.407-9.271-9.178 1.407-1.421 7.864 7.785 14.15-14.007 1.407 1.421z" fill="#fff"/><path d="m57.41 39.01-12.41 12.29v-2.82l11.01-10.89z" fill="#d1d3d4"/></g></svg>