<svg width="205" height="181" viewBox="0 0 205 181" fill="none" xmlns="http://www.w3.org/2000/svg">
<circle cx="115" cy="90" r="90" fill="url(#paint0_linear_6743_1257)"/>
<path d="M158.623 77.6534L155.645 143.459C155.524 146.035 154.841 148.33 153.672 150.138C152.462 152.031 150.734 153.358 148.721 153.76L61.824 171.471L61.7838 162.416L61.623 93.3913C61.623 90.6946 62.9495 88.5607 64.9226 88.1587L116.119 77.9348L118.173 77.5328L152.988 70.5682C153.189 70.528 153.39 70.528 153.591 70.528C155.524 70.4879 157.377 72.1797 158.221 74.5511C158.462 75.1942 158.623 75.8775 158.663 76.6047V76.6449C158.623 76.9664 158.663 77.3282 158.623 77.6498V77.6534Z" fill="#939300"/>
<mask id="mask0_6743_1257" style="mask-type:luminance" maskUnits="userSpaceOnUse" x="61" y="70" width="98" height="102">
<path d="M158.623 77.6534L155.645 143.459C155.524 146.035 154.841 148.33 153.672 150.138C152.462 152.031 150.734 153.358 148.721 153.76L61.824 171.471L61.7838 162.416L61.623 93.3913C61.623 90.6946 62.9495 88.5607 64.9226 88.1587L116.119 77.9348L118.173 77.5328L152.988 70.5682C153.189 70.528 153.39 70.528 153.591 70.528C155.524 70.4879 157.377 72.1797 158.221 74.5511C158.462 75.1942 158.623 75.8775 158.663 76.6047V76.6449C158.623 76.9664 158.663 77.3282 158.623 77.6498V77.6534Z" fill="white"/>
</mask>
<g mask="url(#mask0_6743_1257)">
<path d="M161.091 105.595C161.091 105.595 152.314 103.308 148.024 107.883C143.734 112.458 141.494 119.751 141.582 123.069C141.988 138.186 139.203 146.44 136.013 151.874C132.823 157.307 137.731 149.634 137.731 149.634L143.519 159.642L164.686 157.07C164.686 157.07 178.338 143.056 177.479 141.054C176.621 139.052 161.091 105.595 161.091 105.595Z" fill="#828200"/>
</g>
<path d="M158.623 77.6534L155.645 143.459C155.524 146.035 154.841 148.33 153.672 150.138C152.462 152.031 150.734 153.358 148.721 153.76L61.824 171.471L61.7838 162.416L61.623 93.3913C61.623 90.6946 62.9495 88.5607 64.9226 88.1587L116.119 77.9348L118.173 77.5328L152.988 70.5682C153.189 70.528 153.39 70.528 153.591 70.528C155.524 70.4879 157.377 72.1797 158.221 74.5511C158.462 75.1942 158.623 75.8775 158.663 76.6047V76.6449C158.623 76.9664 158.663 77.3282 158.623 77.6498V77.6534Z" stroke="#231F20" stroke-width="3" stroke-miterlimit="10"/>
<path d="M134.203 54.5195C130.056 54.5195 126.676 57.8995 126.676 62.0468C126.676 57.8995 123.296 54.5195 119.148 54.5195C123.296 54.5195 126.676 51.1395 126.676 46.9922C126.676 51.1395 130.016 54.5195 134.203 54.5195Z" fill="#FEA13A"/>
<path d="M131.381 165.004C125.224 165.004 120.232 169.995 120.232 176.152C120.232 169.995 115.241 165.004 109.084 165.004C115.241 165.004 120.232 160.013 120.232 153.855C120.232 160.013 125.224 165.004 131.381 165.004Z" fill="#FEA13A"/>
<path d="M37.2221 90.3396C33.4 90.3396 30.2576 93.4382 30.2576 97.3042C30.2576 93.482 27.1589 90.3396 23.293 90.3396C27.1151 90.3396 30.2576 87.241 30.2576 83.375C30.2576 87.1971 33.3964 90.3396 37.2221 90.3396Z" fill="#FEA13A"/>
<path d="M137.854 142.648L114.026 70.8464C113.061 67.9085 110.164 66.1363 107.303 66.7027L87.136 70.766C86.3723 70.9268 85.6854 71.2081 85.0423 71.6503C84.3991 72.0924 83.873 72.6551 83.471 73.3019L77.5551 82.7183C76.5101 84.37 74.8183 85.5356 72.8853 85.9375L19.7995 96.7644C16.3794 97.4477 14.366 101.193 15.5316 104.734L37.5874 171.102C38.552 174.04 41.4095 175.812 44.2669 175.249L142.111 155.609C153.058 153.676 153.46 150.256 153.46 150.256C141.548 155.488 137.843 142.648 137.843 142.648H137.854Z" fill="url(#paint1_linear_6743_1257)"/>
<path d="M137.854 142.648L114.026 70.8464C113.061 67.9085 110.164 66.1363 107.303 66.7027L87.136 70.766C86.3723 70.9268 85.6854 71.2081 85.0423 71.6503C84.3991 72.0924 83.873 72.6551 83.471 73.3019L77.5551 82.7183C76.5101 84.37 74.8183 85.5356 72.8853 85.9375L19.7995 96.7644C16.3794 97.4477 14.366 101.193 15.5316 104.734L37.5874 171.102C38.552 174.04 41.4095 175.812 44.2669 175.249L142.111 155.609C153.058 153.676 153.46 150.256 153.46 150.256C141.548 155.488 137.843 142.648 137.843 142.648H137.854Z" stroke="#231F20" stroke-miterlimit="10"/>
<path d="M158.823 79.5029L156.087 142.813C156.006 144.384 155.644 148.206 153.711 150.139C153.309 150.541 152.783 150.822 152.462 150.943C150.854 151.546 149.323 151.871 147.836 151.871C146.264 151.871 144.777 151.509 143.407 150.782C138.777 148.367 137.089 142.732 136.969 142.25L116.159 77.9317L113.904 70.9269C113.462 69.5567 112.618 67.4264 109.52 66.6992C109.52 66.6992 111.453 67.061 112.337 67.4227C114.149 68.1864 115.234 68.2668 115.878 70.24L118.212 77.5261L138.942 141.643C138.942 141.684 140.433 146.836 144.375 148.889C146.509 150.015 148.965 150.015 151.782 148.93C151.983 148.849 152.224 148.688 152.345 148.568C153.309 147.643 153.956 145.389 154.077 142.692L156.814 79.4226C156.814 79.3824 156.894 76.5651 155.889 74.0694C155.527 73.1851 155.085 72.458 154.559 71.6943C154.197 71.1316 153.916 70.8502 153.594 70.5286C154.439 70.5286 155.045 70.5688 155.769 71.0914C156.733 71.8149 157.742 73.1851 158.224 74.5115C158.425 75.235 158.586 75.922 158.666 76.5651V76.6053C158.867 78.2167 158.827 79.3824 158.827 79.5029H158.823Z" fill="url(#paint2_linear_6743_1257)" stroke="#231F20" stroke-miterlimit="10"/>
<path d="M167.053 63.3925L163.603 139.586C163.464 142.568 162.672 145.225 161.32 147.322C159.92 149.511 157.918 151.049 155.59 151.517L54.98 172.02L54.9324 161.536L54.7461 81.6152C54.7461 78.4946 56.2844 76.0245 58.5682 75.5568L117.844 63.7214L120.219 63.2537L160.53 55.1929C160.764 55.1454 160.998 55.1454 161.228 55.1454C163.464 55.0979 165.609 57.0564 166.589 59.8043C166.87 60.5497 167.056 61.3426 167.1 62.1794V62.2269C167.053 62.5996 167.1 63.0198 167.053 63.3925Z" fill="#C6BC00"/>
<path d="M143.009 138.648L115.421 55.5112C114.303 52.1093 110.948 50.0594 107.638 50.7098L84.2923 55.4162C83.408 55.6026 82.6151 55.9278 81.8697 56.443C81.1242 56.9545 80.5177 57.6086 80.0536 58.354L73.2023 69.2577C71.9892 71.1687 70.0343 72.5207 67.798 72.9848L6.32623 85.5254C2.36526 86.3183 0.0339915 90.652 1.38598 94.7518L26.924 171.596C28.0421 174.998 31.3527 177.048 34.6596 176.398L147.946 153.655C160.621 151.419 161.085 147.458 161.085 147.458C147.291 153.516 143.005 138.651 143.005 138.651L143.009 138.648Z" fill="#C6BC00" stroke="#231F20" stroke-miterlimit="10"/>
<path d="M167.286 65.5356L164.118 138.839C164.027 140.655 163.607 145.084 161.371 147.32C160.903 147.788 160.3 148.113 159.924 148.252C158.06 148.95 156.288 149.323 154.563 149.323C152.747 149.323 151.022 148.902 149.436 148.066C144.076 145.27 142.121 138.744 141.982 138.185L117.891 63.7159L115.282 55.6076C114.771 54.0217 113.791 51.5516 110.203 50.7148C110.203 50.7148 112.439 51.1351 113.466 51.5553C115.564 52.4395 116.821 52.5346 117.566 54.8183L120.27 63.2518L144.27 137.487C144.27 137.535 145.994 143.498 150.562 145.873C153.032 147.178 155.875 147.178 159.138 145.921C159.372 145.829 159.649 145.639 159.788 145.5C160.906 144.43 161.652 141.817 161.791 138.697L164.959 65.4406C164.959 65.3931 165.054 62.1337 163.888 59.2434C163.468 58.2166 162.956 57.3798 162.35 56.4955C161.93 55.8414 161.604 55.5162 161.232 55.1435C162.211 55.1435 162.909 55.191 163.749 55.7976C164.867 56.638 166.033 58.2202 166.592 59.7586C166.826 60.599 167.012 61.3883 167.104 62.1337V62.1812C167.338 64.0448 167.29 65.3967 167.29 65.5356H167.286Z" fill="#9EA700"/>
<path opacity="0.25" d="M120.502 98.2653C136.646 98.2653 149.734 85.1776 149.734 69.033C149.734 52.8885 136.646 39.8008 120.502 39.8008C104.357 39.8008 91.2695 52.8885 91.2695 69.033C91.2695 85.1776 104.357 98.2653 120.502 98.2653Z" fill="white"/>
<path d="M146.406 83.3792L140.918 90.5078L153.035 99.8361L158.523 92.7075L146.406 83.3792Z" fill="url(#paint3_linear_6743_1257)" stroke="#231F20" stroke-miterlimit="10"/>
<path d="M153.312 92.1061L151.119 94.9552C149.603 96.9237 149.971 99.748 151.939 101.263L169.755 114.978C171.723 116.494 174.548 116.126 176.063 114.158L178.256 111.309C179.772 109.34 179.405 106.516 177.436 105.001L159.62 91.2857C157.652 89.7703 154.828 90.1376 153.312 92.1061Z" fill="url(#paint4_linear_6743_1257)" stroke="#231F20" stroke-miterlimit="10"/>
<path d="M141.149 43.0107C155.713 54.2213 158.432 75.1187 147.222 89.6837C136.011 104.249 115.114 106.967 100.549 95.7567C85.9836 84.5461 83.265 63.6487 94.4756 49.0837C105.686 34.5188 126.58 31.8002 141.145 43.0107H141.149ZM106.991 87.3853C116.933 95.0405 131.199 93.1842 138.854 83.238C146.509 73.2953 144.653 59.03 134.706 51.3748C124.764 43.7196 110.499 45.5759 102.843 55.5221C95.1881 65.4648 97.0444 79.7301 106.991 87.3853Z" fill="url(#paint5_linear_6743_1257)" stroke="#231F20" stroke-miterlimit="10"/>
<path d="M57.7972 126.118C59.4823 126.118 60.8483 124.752 60.8483 123.067C60.8483 121.382 59.4823 120.016 57.7972 120.016C56.1121 120.016 54.7461 121.382 54.7461 123.067C54.7461 124.752 56.1121 126.118 57.7972 126.118Z" fill="#231F20"/>
<path d="M83.0863 120.977C84.7714 120.977 86.1374 119.611 86.1374 117.926C86.1374 116.241 84.7714 114.875 83.0863 114.875C81.4012 114.875 80.0352 116.241 80.0352 117.926C80.0352 119.611 81.4012 120.977 83.0863 120.977Z" fill="#231F20"/>
<path d="M70.4883 136.56C70.4883 136.56 72.3555 129.709 80.0399 134.068" stroke="#231F20" stroke-width="2" stroke-miterlimit="10" stroke-linecap="round"/>
<path d="M32.9102 169.781C32.9102 169.781 35.1939 184.938 50.1426 178.708" stroke="#231F20" stroke-miterlimit="10" stroke-linecap="round"/>
<path d="M15.2051 113.578L21.0735 130.54" stroke="#231F20" stroke-miterlimit="10" stroke-linecap="round"/>
<path d="M15.2051 123.07L20.0357 136.565" stroke="#231F20" stroke-miterlimit="10" stroke-linecap="round"/>
<path d="M132.979 34C132.979 34 144.2 35.6078 150.178 45.8354" stroke="#231F20" stroke-miterlimit="10" stroke-linecap="round"/>
<path d="M146.422 44.7969C146.422 44.7969 151.311 49.1525 152.74 54.8345" stroke="#231F20" stroke-miterlimit="10" stroke-linecap="round"/>
<path d="M159.939 117.93L159.172 135.524" stroke="#231F20" stroke-miterlimit="10" stroke-linecap="round"/>
<path d="M159.096 137.238L159.02 138.857" stroke="#231F20" stroke-miterlimit="10" stroke-linecap="round"/>
<path d="M51.0078 178.232L52.5096 177.52" stroke="#231F20" stroke-miterlimit="10" stroke-linecap="round"/>
<path d="M20.4375 137.48L20.9527 138.624" stroke="#231F20" stroke-miterlimit="10" stroke-linecap="round"/>
<path d="M21.5527 131.617L21.9108 132.618" stroke="#231F20" stroke-miterlimit="10" stroke-linecap="round"/>
<path d="M94.9255 53.7412C94.0814 55.5974 89.2946 64.495 91.2678 76.239C93.241 87.9831 98.3201 89.8211 99.1203 87.6287C99.9205 85.4362 90.5406 77.1891 96.0692 58.6997C98.8353 50.5987 95.7695 51.8849 94.9255 53.7412Z" fill="#A7A9AC"/>
<path d="M139.587 44.796C139.587 44.796 150.18 54.0992 150.388 64.3085C150.556 72.6324 149.927 76.0526 147.735 74.9929C145.342 73.8382 148.594 70.9881 145.835 60.0589C143.292 49.9847 137.869 49.813 137.295 45.8337C137.01 43.8386 139.583 44.796 139.583 44.796H139.587Z" fill="#A7A9AC"/>
<path d="M144.59 79.5671C144.59 79.5671 146.162 75.5622 147.451 77.2796C148.741 78.997 147.451 81.8545 147.451 81.8545C147.451 81.8545 146.023 85.6108 144.59 85.5925C143.158 85.5743 143.571 82.0006 143.571 82.0006L144.59 79.5707V79.5671Z" fill="#A7A9AC"/>
<path d="M173.596 109.214C174.871 110.913 173.848 113.441 171.732 113.628C171.648 113.635 170.351 113.504 170.267 113.504L158.253 104.255C157.167 103.418 156.831 101.906 157.507 100.718C158.023 99.8156 158.808 99.1323 159.941 99.7571C162.009 100.897 168.864 105.282 171.221 107.094" fill="#C6C654"/>
<defs>
<linearGradient id="paint0_linear_6743_1257" x1="176.5" y1="21.5" x2="68" y2="158.5" gradientUnits="userSpaceOnUse">
<stop stop-color="#9EA700" stop-opacity="0.5"/>
<stop offset="1" stop-color="white"/>
</linearGradient>
<linearGradient id="paint1_linear_6743_1257" x1="84.929" y1="95.3211" x2="82.6489" y2="215.447" gradientUnits="userSpaceOnUse">
<stop stop-color="#D6D005"/>
<stop offset="0.58" stop-color="#9EA700"/>
</linearGradient>
<linearGradient id="paint2_linear_6743_1257" x1="109.52" y1="109.287" x2="158.827" y2="109.287" gradientUnits="userSpaceOnUse">
<stop stop-color="#C6BC00"/>
<stop offset="1" stop-color="#C6BC00"/>
</linearGradient>
<linearGradient id="paint3_linear_6743_1257" x1="148.142" y1="95.2666" x2="151.764" y2="86.8721" gradientUnits="userSpaceOnUse">
<stop offset="0.51" stop-color="#939598"/>
<stop offset="1" stop-color="#A7A9AC"/>
</linearGradient>
<linearGradient id="paint4_linear_6743_1257" x1="159.594" y1="81.6643" x2="169.107" y2="121.756" gradientUnits="userSpaceOnUse">
<stop stop-color="#E2E229"/>
<stop offset="0.42" stop-color="#BCBC31"/>
<stop offset="0.84" stop-color="#9EA700"/>
</linearGradient>
<linearGradient id="paint5_linear_6743_1257" x1="140.242" y1="143.544" x2="114.606" y2="45.5028" gradientUnits="userSpaceOnUse">
<stop offset="0.19" stop-color="#A7A9AC"/>
<stop offset="1" stop-color="#808285"/>
</linearGradient>
</defs>
</svg>
