<?xml version="1.0" standalone="no"?>
<!DOCTYPE svg PUBLIC "-//W3C//DTD SVG 20010904//EN"
 "http://www.w3.org/TR/2001/REC-SVG-20010904/DTD/svg10.dtd">
<svg version="1.0" xmlns="http://www.w3.org/2000/svg"
 width="353.000000pt" height="122.000000pt" viewBox="0 0 353.000000 122.000000"
 preserveAspectRatio="xMidYMid meet">

<g transform="translate(0.000000,122.000000) scale(0.100000,-0.100000)"
fill="#000000" stroke="none">
<path d="M688 728 l-26 -28 26 -29 27 -28 26 29 27 28 -27 28 -28 27 -25 -27z"/>
<path d="M2124 735 c-4 -9 -2 -21 4 -27 15 -15 44 -1 40 19 -4 23 -36 29 -44
8z"/>
<path d="M1087 602 c-26 -75 -47 -140 -47 -144 0 -5 11 -8 24 -8 18 0 25 8 32
33 10 31 11 32 69 32 58 0 59 -1 69 -32 7 -27 14 -33 37 -33 l28 0 -49 141
c-28 77 -50 143 -50 145 0 2 -15 4 -32 4 l-33 0 -48 -138z m101 18 l21 -60
-40 0 c-26 0 -39 5 -39 13 0 15 30 107 35 107 2 0 12 -27 23 -60z"/>
<path d="M1340 595 l0 -145 25 0 25 0 0 145 0 145 -25 0 -25 0 0 -145z"/>
<path d="M1550 595 l0 -145 25 0 25 0 0 145 0 145 -25 0 -25 0 0 -145z"/>
<path d="M2480 595 c0 -138 1 -145 20 -145 18 0 20 7 20 68 0 73 17 112 50
112 37 0 50 -27 50 -106 0 -67 2 -74 20 -74 19 0 20 7 20 90 0 77 -3 93 -20
110 -26 26 -60 25 -94 -1 l-26 -20 0 55 c0 49 -2 56 -20 56 -19 0 -20 -7 -20
-145z"/>
<path d="M2740 696 c0 -15 -7 -26 -20 -29 -11 -3 -20 -12 -20 -21 0 -9 8 -16
20 -16 18 0 20 -7 20 -78 0 -47 5 -83 12 -90 13 -13 78 -17 78 -4 0 13 -15 28
-32 35 -15 5 -18 19 -18 72 0 63 1 65 26 65 33 0 30 33 -4 38 -16 3 -22 10
-22 28 0 17 -5 24 -20 24 -14 0 -20 -7 -20 -24z"/>
<path d="M529 660 c-16 -28 -38 -49 -69 -65 l-45 -23 46 -22 c36 -18 51 -33
69 -69 l22 -46 22 43 c14 28 37 52 65 69 l43 25 -40 24 c-22 13 -51 43 -64 65
l-25 42 -24 -43z m55 -107 c-13 -12 -24 -27 -24 -33 0 -6 -15 4 -33 22 -29 28
-31 34 -18 42 9 5 22 17 28 27 12 16 15 15 42 -10 l29 -26 -24 -22z"/>
<path d="M1660 560 l0 -110 25 0 c25 0 25 1 25 80 0 68 3 81 19 90 50 26 71
-2 71 -96 0 -73 0 -74 26 -74 l26 0 -4 91 c-4 81 -7 94 -27 110 -30 25 -62 24
-95 -2 l-26 -20 0 20 c0 14 -6 21 -20 21 -19 0 -20 -7 -20 -110z"/>
<path d="M1941 658 c-33 -18 -45 -40 -38 -70 7 -25 20 -33 92 -54 37 -12 39
-35 3 -48 -22 -8 -32 -6 -47 8 -11 10 -30 16 -43 14 l-23 -3 27 -27 c52 -54
161 -29 161 36 0 36 -11 45 -69 60 -37 9 -49 17 -49 32 0 22 41 32 58 15 13
-13 57 -15 57 -3 0 35 -88 62 -129 40z"/>
<path d="M2120 560 l0 -110 25 0 25 0 0 110 0 110 -25 0 -25 0 0 -110z"/>
<path d="M2249 641 c-39 -39 -42 -115 -5 -157 29 -35 90 -39 112 -9 13 17 14
16 14 -16 0 -19 -5 -40 -12 -47 -16 -16 -63 -15 -77 2 -11 14 -51 11 -51 -4 0
-22 43 -42 92 -42 44 0 56 4 75 26 21 25 23 36 23 152 l0 124 -25 0 c-18 0
-25 -5 -25 -20 l0 -20 -20 20 c-29 29 -66 25 -101 -9z m103 -28 c23 -20 24
-85 2 -107 -37 -37 -84 -7 -84 54 0 62 42 89 82 53z"/>
<path d="M2905 659 c-27 -17 -35 -29 -35 -62 0 -29 29 -48 93 -62 18 -4 27
-12 27 -25 0 -27 -45 -38 -69 -16 -19 17 -61 22 -61 6 0 -25 45 -50 90 -50 57
0 90 22 90 59 0 34 -24 56 -70 66 -43 9 -60 22 -53 41 6 16 54 19 70 3 6 -6
21 -9 33 -7 22 3 22 3 4 26 -22 27 -89 39 -119 21z"/>
<path d="M721 521 c-7 -12 -27 -31 -44 -41 -18 -11 -26 -20 -18 -20 7 0 28
-16 46 -36 31 -34 33 -35 40 -15 3 12 20 28 38 37 29 16 30 17 12 30 -10 8
-21 14 -25 14 -3 0 -13 12 -21 27 l-17 26 -11 -22z"/>
</g>
</svg>
