<?xml version="1.0" encoding="UTF-8"?>
<svg id="Layer_2" data-name="Layer 2" xmlns="http://www.w3.org/2000/svg" viewBox="0 0 137.07 24.73">
  <defs>
    <style>
      .cls-1 {
        fill: #9ea700;
      }
    </style>
  </defs>
  <g id="Layer_2-2" data-name="Layer 2">
    <g>
      <path class="cls-1" d="m7.3,17.35c-2.23,0-3.96-1.69-3.96-4.27s1.73-4.27,3.94-4.27c1.78,0,3.04,1.08,3.49,2.69l2.99-1.19c-.63-2.16-2.94-4.48-6.54-4.48C3.05,5.83,0,8.99,0,13.11s3.1,7.23,7.22,7.23c3.67,0,5.98-2.32,6.61-4.43l-2.99-1.21c-.44,1.58-1.76,2.66-3.54,2.66h0Z"/>
      <path class="cls-1" d="m46.59,5.79c-4.33,0-7.38,3.11-7.38,7.28s3.07,7.25,7.38,7.25,7.38-3.09,7.38-7.25-3.05-7.28-7.38-7.28Zm4.01,7.25c0,2.51-1.57,4.3-3.99,4.3s-4.07-1.77-4.07-4.27,1.68-4.27,4.07-4.27,3.99,1.77,3.99,4.25h0Z"/>
      <polygon class="cls-1" points="20.89 15.89 19.94 15.89 16.83 6.11 13.39 6.11 18.27 20.01 19.32 20.01 17.43 24.73 20.71 24.73 22.5 20.01 27.77 6.11 24.31 6.11 20.89 15.89"/>
      <polygon class="cls-1" points="28.64 20.01 31.97 20.01 31.97 .73 28.64 3.04 28.64 20.01"/>
      <polygon class="cls-1" points="34.28 20.01 37.61 20.01 37.61 .73 34.28 3.04 34.28 20.01"/>
    </g>
    <g>
      <path class="cls-1" d="m60.83,15.89c.52,1.25,2.29,1.78,3.62,1.78.97,0,2.11-.27,2.11-1.4s-1.33-1.48-2.98-1.79c-2.38-.49-5.27-1.07-5.27-4.16s2.83-4.39,5.41-4.39c2.16,0,4.95.62,5.77,2.91l-2.79,1.21c-.45-1.17-1.82-1.51-2.95-1.51-.88,0-1.91.4-1.91,1.29,0,1,1.33,1.29,2.98,1.64,2.42.52,5.41,1.11,5.41,4.51s-2.81,4.37-5.77,4.37c-2.37,0-5.68-.7-6.54-3.17l2.91-1.27Z"/>
      <path class="cls-1" d="m80.04,19.94c-.73.24-1.52.36-2.37.36-2.88,0-4.42-1.37-4.42-4.34v-6.99h-1.76v-2.72h1.76v-3l3.8-1.65v4.65h2.9v2.72h-2.9v6.65c0,1.03.46,1.64,1.65,1.64.4,0,.89-.06,1.34-.27v2.96Z"/>
      <path class="cls-1" d="m91.74,17.88c-.9,1.7-2.64,2.46-4.51,2.46-3.19,0-4.7-2.22-4.7-5.2V6.25h3.8v8.36c0,1.61.64,2.77,2.45,2.77s2.96-1.16,2.96-3.03V6.25h3.8v13.79h-3.8v-2.16Z"/>
      <path class="cls-1" d="m108.78,17.75c-.82,1.64-2.77,2.59-4.56,2.59-4.19,0-6.12-3.4-6.12-7.08s2.11-7.33,6.17-7.33c1.85,0,3.58.73,4.51,2.38V0h3.8v20.04h-3.8v-2.29Zm.1-4.71c0-2.28-.93-4.17-3.45-4.17-2.65,0-3.42,2.09-3.42,4.4,0,2.16.94,4.08,3.4,4.08s3.48-2.05,3.48-4.31Z"/>
      <path class="cls-1" d="m117.95.21c1.2,0,2.19.86,2.19,2.09s-.99,2.07-2.16,2.07-2.19-.88-2.19-2.11.97-2.05,2.16-2.05Zm-1.88,6.07h3.8v13.77h-3.8V6.27Z"/>
      <path class="cls-1" d="m129.9,5.92c4.28,0,7.17,2.95,7.17,7.2s-3.04,7.21-7.32,7.21-7.21-2.92-7.21-7.15,3.08-7.26,7.35-7.26Zm3.3,7.25c0-2.31-.9-4.34-3.41-4.34s-3.34,2.14-3.34,4.28c0,2.32.89,4.31,3.4,4.31s3.35-2.14,3.35-4.25Z"/>
    </g>
  </g>
</svg>