<svg width="512" height="512" viewBox="0 0 512 512" fill="none" xmlns="http://www.w3.org/2000/svg">
<path d="M331.787 424.121H424.786V365.996H331.787V424.121ZM343.411 377.621H413.161V389.246H343.411V377.621ZM343.411 400.871H413.161V412.496H343.411V400.871Z" fill="#A9A78E"/>
<path d="M323.481 258.08C323.062 257.24 322.853 256.31 322.87 255.37C322.888 254.431 323.133 253.51 323.584 252.685C326.409 247.505 328.663 242.032 330.304 236.363C330.567 235.461 331.045 234.636 331.696 233.958C332.347 233.281 333.154 232.772 334.045 232.475L351.047 226.808V200.314L334.045 194.647C333.154 194.35 332.347 193.84 331.696 193.163C331.045 192.486 330.567 191.661 330.304 190.758C328.663 185.09 326.409 179.616 323.584 174.436C323.133 173.611 322.888 172.691 322.87 171.751C322.853 170.812 323.062 169.882 323.481 169.041L331.473 153.057L312.736 134.322L296.752 142.314C295.911 142.734 294.98 142.943 294.04 142.925C293.1 142.906 292.179 142.662 291.354 142.21C286.176 139.38 280.704 137.125 275.035 135.486C274.134 135.222 273.31 134.745 272.634 134.093C271.957 133.442 271.45 132.637 271.152 131.746L265.482 114.75H238.986L233.319 131.752C233.021 132.642 232.513 133.448 231.837 134.099C231.161 134.751 230.337 135.228 229.436 135.492C223.767 137.131 218.295 139.386 213.117 142.216C212.292 142.667 211.371 142.912 210.431 142.93C209.49 142.949 208.56 142.739 207.719 142.32L191.735 134.328L172.998 153.063L180.99 169.047C181.409 169.888 181.618 170.818 181.6 171.757C181.583 172.697 181.338 173.617 180.887 174.442C178.061 179.622 175.808 185.095 174.167 190.764C173.904 191.666 173.426 192.492 172.775 193.169C172.123 193.846 171.317 194.355 170.426 194.653L153.424 200.32V226.816L170.426 232.483C171.317 232.78 172.123 233.289 172.775 233.967C173.426 234.644 173.904 235.469 174.167 236.371C175.808 242.04 178.061 247.513 180.887 252.693C181.338 253.518 181.583 254.439 181.6 255.378C181.618 256.318 181.409 257.248 180.99 258.088L172.998 274.072L191.735 292.807L207.719 284.815C208.56 284.395 209.49 284.185 210.431 284.203C211.371 284.221 212.293 284.467 213.117 284.92C218.295 287.749 223.767 290.004 229.436 291.643C230.337 291.907 231.161 292.385 231.837 293.036C232.513 293.687 233.021 294.493 233.319 295.384L238.986 312.381H265.482L271.152 295.384C271.45 294.493 271.957 293.687 272.634 293.036C273.31 292.385 274.134 291.907 275.035 291.643C280.704 290.004 286.175 287.749 291.354 284.92C292.178 284.467 293.1 284.221 294.04 284.203C294.981 284.185 295.911 284.395 296.752 284.815L312.736 292.807L331.473 274.072L323.481 258.08ZM252.234 265.874C241.888 265.874 231.773 262.806 223.171 257.058C214.568 251.309 207.863 243.139 203.904 233.581C199.944 224.022 198.908 213.504 200.927 203.356C202.945 193.209 207.928 183.888 215.243 176.571C222.56 169.256 231.881 164.274 242.028 162.255C252.176 160.236 262.694 161.272 272.252 165.232C281.811 169.191 289.981 175.896 295.73 184.499C301.477 193.101 304.546 203.216 304.546 213.562C304.53 227.431 299.014 240.728 289.207 250.535C279.4 260.342 266.103 265.859 252.234 265.874Z" fill="#A9A78E"/>
<path d="M252.233 172.875C244.185 172.875 236.319 175.261 229.628 179.732C222.937 184.202 217.722 190.557 214.643 197.992C211.563 205.426 210.757 213.607 212.327 221.499C213.897 229.392 217.772 236.642 223.463 242.332C229.153 248.022 236.402 251.897 244.295 253.467C252.188 255.037 260.369 254.232 267.803 251.152C275.238 248.072 281.592 242.857 286.063 236.166C290.534 229.476 292.92 221.609 292.92 213.562C292.907 202.775 288.616 192.433 280.989 184.805C273.362 177.178 263.02 172.887 252.233 172.875ZM250.53 235.109C249.44 236.198 247.961 236.81 246.42 236.81C244.879 236.81 243.401 236.198 242.311 235.109L224.874 217.671L233.092 209.452L246.42 222.78L271.373 197.827L279.592 206.046L250.53 235.109Z" fill="#A9A78E"/>
<path d="M176.663 45H83.6641V103.125H176.663V45ZM165.038 91.5H95.289V79.875H165.038V91.5ZM165.038 68.25H95.289V56.6249H165.038V68.25Z" fill="#A9A78E"/>
<path d="M273.775 331.513L265.556 339.732L273.072 347.247H147.604C131.146 347.261 115.317 340.926 103.413 329.561C91.5082 318.195 84.4463 302.677 83.6972 286.235C82.9482 269.794 88.5698 253.697 99.391 241.297C110.213 228.896 125.401 221.148 141.792 219.664V208.039C122.308 209.523 104.157 218.5 91.1526 233.086C78.1485 247.671 71.3036 266.729 72.0561 286.255C72.8085 305.781 81.0998 324.256 95.1878 337.798C109.276 351.339 128.064 358.893 147.604 358.872H273.072L265.556 366.388L273.775 374.607L291.212 357.169C292.302 356.079 292.915 354.602 292.915 353.06C292.915 351.519 292.302 350.041 291.212 348.951L273.775 331.513Z" fill="#A9A78E"/>
<path d="M230.686 95.6095L238.905 87.3905L231.389 79.8745H356.857C373.315 79.8615 389.145 86.1965 401.049 97.5615C412.953 108.928 420.015 124.447 420.764 140.888C421.513 157.329 415.891 173.426 405.07 185.826C394.248 198.227 379.061 205.975 362.669 207.459V219.084C382.154 217.6 400.305 208.623 413.308 194.037C426.313 179.452 433.158 160.394 432.405 140.868C431.652 121.341 423.362 102.867 409.274 89.3245C395.185 75.7835 376.397 68.2295 356.857 68.2495H231.389L238.905 60.7345L230.686 52.5156L213.248 69.9525C212.159 71.0425 211.547 72.5215 211.547 74.0625C211.547 75.6035 212.159 77.0815 213.248 78.1715L230.686 95.6095Z" fill="#A9A78E"/>
<path d="M425.152 322.252H177.963C119.449 322.245 72.0087 362.309 72 411.738V455.524C72.0087 462.213 78.4295 467.632 86.3481 467.632H333.538C392.051 467.639 439.491 427.575 439.5 378.146V312C439.5 318.694 433.076 322.252 425.152 322.252Z" fill="url(#paint0_linear_7051_1903)"/>
<path d="M194.816 392.953C199.484 390.414 202.304 385.444 202.088 380.135C202.088 368.799 194.204 362.465 180.204 362.465H154.066V425.669H180.381C194.381 425.669 203.054 419.444 203.054 406.966C203.054 400.401 200.104 395.63 194.83 392.966L194.816 392.953ZM166.082 373.285H180.449C186.837 373.285 189.882 375.976 189.882 380.393C189.882 384.81 187.109 387.923 180.639 387.923H166.095L166.081 373.284L166.082 373.285ZM180.531 414.659H166.082V398.892H180.014C187.721 398.892 190.67 401.746 190.67 406.681C190.67 411.615 187.204 414.646 180.531 414.646V414.659ZM214.716 425.669H257.219V414.076H226.908V399.709H257.219V388.196H226.908V373.966H257.219V362.453H214.716V425.671V425.669ZM314.686 362.465H267.684V373.72H285.258V425.642H297.288V373.72H314.686V362.465ZM347.403 362.465H335.373L311.478 425.669H324.038L328.184 414.157H354.594L358.74 425.669H371.299L347.404 362.465H347.403ZM332.261 403.065L341.436 377.96L350.516 403.065H332.261Z" fill="white"/>
<defs>
<linearGradient id="paint0_linear_7051_1903" x1="111.581" y1="335.347" x2="430.154" y2="494.914" gradientUnits="userSpaceOnUse">
<stop stop-color="#9EA700"/>
<stop offset="1" stop-color="#DFE397"/>
</linearGradient>
</defs>
</svg>
