<svg width="512" height="512" viewBox="0 0 512 512" fill="none" xmlns="http://www.w3.org/2000/svg">
<path d="M327.481 300.08C327.062 299.24 326.853 298.31 326.87 297.37C326.888 296.431 327.133 295.51 327.584 294.685C330.409 289.505 332.663 284.032 334.304 278.363C334.567 277.461 335.045 276.636 335.696 275.958C336.347 275.281 337.154 274.772 338.045 274.475L355.047 268.808V242.314L338.045 236.647C337.154 236.35 336.347 235.84 335.696 235.163C335.045 234.486 334.567 233.661 334.304 232.758C332.663 227.09 330.409 221.616 327.584 216.436C327.133 215.611 326.888 214.691 326.87 213.751C326.853 212.812 327.062 211.882 327.481 211.041L335.473 195.057L316.736 176.322L300.752 184.314C299.911 184.734 298.98 184.943 298.04 184.925C297.1 184.906 296.179 184.662 295.354 184.21C290.176 181.38 284.704 179.125 279.035 177.486C278.134 177.222 277.31 176.745 276.634 176.093C275.957 175.442 275.45 174.637 275.152 173.746L269.482 156.75H242.986L237.319 173.752C237.021 174.642 236.513 175.448 235.837 176.099C235.161 176.751 234.337 177.228 233.436 177.492C227.767 179.131 222.295 181.386 217.117 184.216C216.292 184.667 215.371 184.912 214.431 184.93C213.49 184.949 212.56 184.739 211.719 184.32L195.735 176.328L176.998 195.063L184.99 211.047C185.409 211.888 185.618 212.818 185.6 213.757C185.583 214.697 185.338 215.617 184.887 216.442C182.061 221.622 179.808 227.095 178.167 232.764C177.904 233.666 177.426 234.492 176.775 235.169C176.123 235.846 175.317 236.355 174.426 236.653L157.424 242.32V268.816L174.426 274.483C175.317 274.78 176.123 275.289 176.775 275.967C177.426 276.644 177.904 277.469 178.167 278.371C179.808 284.04 182.061 289.513 184.887 294.693C185.338 295.518 185.583 296.439 185.6 297.378C185.618 298.318 185.409 299.248 184.99 300.088L176.998 316.072L195.735 334.807L211.719 326.815C212.56 326.395 213.49 326.185 214.431 326.203C215.371 326.221 216.293 326.467 217.117 326.92C222.295 329.749 227.767 332.004 233.436 333.643C234.337 333.907 235.161 334.385 235.837 335.036C236.513 335.687 237.021 336.493 237.319 337.384L242.986 354.381H269.482L275.152 337.384C275.45 336.493 275.957 335.687 276.634 335.036C277.31 334.385 278.134 333.907 279.035 333.643C284.704 332.004 290.175 329.749 295.354 326.92C296.178 326.467 297.1 326.221 298.04 326.203C298.981 326.185 299.911 326.395 300.752 326.815L316.736 334.807L335.473 316.072L327.481 300.08ZM256.234 307.874C245.888 307.874 235.773 304.806 227.171 299.058C218.568 293.309 211.863 285.139 207.904 275.581C203.944 266.022 202.908 255.504 204.927 245.356C206.945 235.209 211.928 225.888 219.243 218.571C226.56 211.256 235.881 206.274 246.028 204.255C256.176 202.236 266.694 203.272 276.252 207.232C285.811 211.191 293.981 217.896 299.73 226.499C305.477 235.101 308.546 245.216 308.546 255.562C308.53 269.431 303.014 282.728 293.207 292.535C283.4 302.342 270.103 307.859 256.234 307.874Z" fill="#BBC14D"/>
<path d="M256.232 214.875C248.184 214.875 240.318 217.261 233.627 221.732C226.936 226.202 221.721 232.557 218.642 239.992C215.562 247.426 214.756 255.607 216.326 263.499C217.896 271.392 221.771 278.642 227.462 284.332C233.152 290.022 240.401 293.897 248.294 295.467C256.187 297.037 264.368 296.232 271.802 293.152C279.237 290.072 285.591 284.857 290.062 278.166C294.533 271.476 296.919 263.609 296.919 255.562C296.906 244.775 292.615 234.433 284.988 226.805C277.361 219.178 267.019 214.887 256.232 214.875ZM254.529 277.109C253.439 278.198 251.96 278.81 250.419 278.81C248.878 278.81 247.4 278.198 246.31 277.109L228.873 259.671L237.091 251.452L250.419 264.78L275.372 239.827L283.591 248.046L254.529 277.109Z" fill="#ECEDB4"/>
<path d="M180.663 87H87.6641V145.125H180.663V87ZM169.038 133.5H99.289V121.875H169.038V133.5ZM169.038 110.25H99.289V98.6249H169.038V110.25Z" fill="#ECEDB4"/>
<path d="M331.788 424.121H424.787V365.996H331.788V424.121ZM343.412 377.621H413.162V389.246H343.412V377.621ZM343.412 400.871H413.162V412.496H343.412V400.871Z" fill="#ECEDB4"/>
<path d="M277.775 373.513L269.556 381.732L277.072 389.247H151.604C135.146 389.261 119.317 382.926 107.413 371.561C95.5082 360.195 88.4463 344.677 87.6972 328.235C86.9482 311.794 92.5698 295.697 103.391 283.297C114.213 270.896 129.401 263.148 145.792 261.664V250.039C126.308 251.523 108.157 260.5 95.1526 275.086C82.1485 289.671 75.3036 308.729 76.0561 328.255C76.8085 347.781 85.0998 366.256 99.1878 379.798C113.276 393.339 132.064 400.893 151.604 400.872H277.072L269.556 408.388L277.775 416.607L295.212 399.169C296.302 398.079 296.915 396.602 296.915 395.06C296.915 393.519 296.302 392.041 295.212 390.951L277.775 373.513Z" fill="#CFD380"/>
<path d="M234.685 137.61L242.904 129.391L235.388 121.875H360.856C377.314 121.862 393.144 128.197 405.048 139.562C416.952 150.928 424.014 166.447 424.763 182.888C425.512 199.329 419.89 215.426 409.069 227.826C398.247 240.227 383.06 247.975 366.668 249.459V261.084C386.153 259.6 404.304 250.623 417.307 236.037C430.312 221.452 437.157 202.394 436.404 182.868C435.651 163.341 427.361 144.867 413.273 131.325C399.184 117.784 380.396 110.23 360.856 110.25H235.388L242.904 102.735L234.685 94.5156L217.247 111.953C216.158 113.043 215.546 114.522 215.546 116.063C215.546 117.604 216.158 119.082 217.247 120.172L234.685 137.61Z" fill="#CFD380"/>
</svg>
