<?xml version="1.0" encoding="UTF-8"?>
<svg id="Layer_2" data-name="Layer 2" xmlns="http://www.w3.org/2000/svg" viewBox="0 0 850 850">
    <defs>
        <style>
            .cls-1 {
            fill: #fff;
            }

            .cls-2 {
            fill: #bbc14d;
            }

            .cls-3 {
            fill: #9ea700;
            }

            .cls-4 {
            fill: #d8dc99;
            }

            .cls-5 {
            fill: #cfd380;
            }

            .cls-6 {
            fill: #e6e8ac;
            }
        </style>
    </defs>
    <g id="Layer_1-2" data-name="Layer 1">
        <g>
            <rect class="cls-1" width="850" height="850" rx="72.61" ry="72.61"/>
            <g>
                <path class="cls-3"
                      d="m272.28,271.28c-23.59,0-43.66,19.13-43.66,42.72v199.34c0,23.59,20.07,42.72,43.66,42.72h14.24v73.09c0,5.75,3.46,10.96,8.79,13.15,1.76.74,3.62,1.09,5.45,1.09,3.7,0,7.34-1.45,10.07-4.17l82.21-83.16h164.97c23.59,0,42.72-19.13,42.72-42.72v-199.34c0-23.59-19.13-42.72-42.72-42.72h-285.72Z"/>
                <path class="cls-6"
                      d="m494.09,430.05c-.53.53-1.06,1.05-1.59,1.23l-73.45,38.22c-5.11,2.29-10.39.88-13.91-2.64-3.52-3.52-4.93-8.81-2.64-13.91l38.22-73.45c.18-.53.7-1.06,1.23-1.58l42.27,9.86,3.7.88,6.17,41.39Z"/>
                <path class="cls-2"
                      d="m671.68,253.16l-26.42,26.42-43.51-9.33-1.23-.18-8.1-43.33,26.42-26.42c4.93-4.93,12.68-4.93,17.61,0l35.23,35.23c4.93,4.93,4.93,12.68,0,17.61Z"/>
                <path class="cls-4"
                      d="m487.92,388.66l6.17,41.39c-.53.53-1.06,1.05-1.59,1.23l-73.45,38.22c-5.11,2.29-10.39.88-13.91-2.64l79.09-79.09,3.7.88Z"/>
                <path class="cls-3"
                      d="m671.68,253.16l-26.42,26.42-43.51-9.33,52.31-52.31,17.61,17.61c4.93,4.93,4.93,12.68,0,17.61Z"/>
                <path class="cls-5"
                      d="m645.26,279.58l-149.24,149.24c-.53.53-1.23.88-1.94,1.24l-52.13-52.14c.35-.7.7-1.41,1.23-1.94l149.24-149.24,52.84,52.84Z"/>
                <path class="cls-2"
                      d="m645.26,279.58l-149.24,149.24c-.53.53-1.23.88-1.94,1.24l-26.07-26.07,150.82-150.82,26.42,26.42Z"/>
            </g>
        </g>
    </g>
</svg>