<svg xmlns="http://www.w3.org/2000/svg" viewBox="0 0 850 850">
    <defs>
        <style>
            .cls-1{fill:#fff;}.cls-2{fill:#d8dc99;}.cls-2,.cls-3,.cls-4{fill-rule:evenodd;}.cls-3{fill:#9ea700;}.cls-4{fill:#777d00;}
        </style>
    </defs>
    <g id="Layer_2" data-name="Layer 2">
        <g id="Layer_1-2" data-name="Layer 1">
            <rect class="cls-1" width="850" height="850" rx="72.61"/>
            <path class="cls-2"
                  d="M595.8,388.25V563.06a37.47,37.47,0,0,1-37.46,37.47H283.66a37.47,37.47,0,0,1-37.46-37.47V388.25Z"/>
            <path class="cls-3"
                  d="M246.2,387.62V312.71a37.49,37.49,0,0,1,37.46-37.46H558.34a37.49,37.49,0,0,1,37.46,37.46v74.91Z"/>
            <path class="cls-4" d="M308.63,262a12.49,12.49,0,1,1,25,0v49.93a12.49,12.49,0,0,1-25,0Z"/>
            <path class="cls-4" d="M508.4,262a12.49,12.49,0,1,1,25,0v49.93a12.49,12.49,0,0,1-25,0Z"/>
        </g>
    </g>
</svg>