<svg xmlns="http://www.w3.org/2000/svg" viewBox="0 0 850 850">
    <defs>
        <style>
            .cls-1{fill:#fff;}.cls-2{fill:#adb426;}.cls-3{fill:#9ea700;}.cls-4{fill:#868e00;}.cls-5{fill:#d8dc99;}.cls-6{fill:#c2c68a;}.cls-7{fill:#cfd380;}.cls-8{fill:#bbc14d;}.cls-9{fill:#979a6b;}.cls-10{fill:#8e9600;}
        </style>
    </defs>
    <g id="Layer_2" data-name="Layer 2">
        <g id="Layer_1-2" data-name="Layer 1">
            <rect class="cls-1" width="850" height="850" rx="72.61"/>
            <path class="cls-2" d="M643.71,327.52V529.89H226.29V327.52h48.92L446,370.35l148.78-42.83Z"/>
            <path class="cls-3" d="M434.73,529.89V367.52L446,370.35l148.78-42.83h48.92V529.89Z"/>
            <path class="cls-4" d="M266.21,390.69V327.52H585.79v63.17h-49L430.89,370.35,314.57,390.69Z"/>
            <path class="cls-4" d="M551.61,390.69,431.73,370.35l-5.84.9V327.52H607v63.17Z"/>
            <path class="cls-5" d="M298,224.29H434.38v166.4H298Z"/>
            <path class="cls-6" d="M434.38,390.69V224.29h65.4l70.86,69.54v96.86Z"/>
            <path class="cls-7" d="M226.29,528.28H643.71v64.9H226.29Z"/>
            <path class="cls-8" d="M434.73,528.28h209v64.9h-209Z"/>
            <path class="cls-9" d="M571.62,293.83l-70.91-.06.07-69.48Z"/>
            <path class="cls-2" d="M621.21,645.71a102.5,102.5,0,1,1,0-205C677.73,440.71,677.73,645.71,621.21,645.71Z"/>
            <path class="cls-10" d="M621.29,440.68v205a102.5,102.5,0,0,0,0-205Z"/>
            <path class="cls-5" d="M614.2,590l-40.11-40.12,21.22-21.22,18.89,18.89L655,506.73,676.22,528Z"/>
            <path class="cls-6" d="M655.06,506.73l-33.77,33.78V583l55-55Z"/>
        </g>
    </g>
</svg>