<svg xmlns="http://www.w3.org/2000/svg" viewBox="0 0 850 850">
    <defs>
        <style>
            .cls-1{fill:#fff;}.cls-2{fill:#9ea700;}.cls-2,.cls-3,.cls-4,.cls-5,.cls-6,.cls-7{fill-rule:evenodd;}.cls-3{fill:#adb426;}.cls-4{fill:#828203;}.cls-5{fill:#707001;}.cls-6{fill:#c2c68a;}.cls-7{fill:#d8dc99;}
        </style>
    </defs>
    <g id="Layer_2" data-name="Layer 2">
        <g id="Layer_1-2" data-name="Layer 1">
            <rect class="cls-1" width="850" height="850" rx="72.61"/>
            <path class="cls-2"
                  d="M592.13,256.06c0-11.81-5.53-23.12-15.39-31.45s-23.2-13-37.15-13H294.41c-13.94,0-27.3,4.69-37.15,13s-15.39,19.64-15.39,31.45V611.94c0,11.81,5.53,23.12,15.39,31.45s23.21,13,37.15,13H539.59c13.95,0,27.31-4.69,37.15-13s15.39-19.64,15.39-31.45Z"/>
            <path class="cls-3"
                  d="M417,211.57H294.41c-13.94,0-27.3,4.69-37.15,13s-15.39,19.64-15.39,31.45V611.94c0,11.81,5.53,23.12,15.39,31.45s23.21,13,37.15,13H417Z"/>
            <path class="cls-4"
                  d="M651.87,414.53a35,35,0,0,0-49.53,0C555.9,461,462.48,554.38,439.65,577.23a17.44,17.44,0,0,0-5.13,12.38v35.12a7.15,7.15,0,0,0,7.16,7.16h35.11a17.46,17.46,0,0,0,12.38-5.13c22.86-22.84,116.26-116.25,162.7-162.7A35,35,0,0,0,651.87,414.53Z"/>
            <path class="cls-5"
                  d="M651.5,414.17,436.6,629.77a7.1,7.1,0,0,0,5.08,2.12h35.11a17.46,17.46,0,0,0,12.38-5.13c22.86-22.84,116.26-116.25,162.7-162.7a35,35,0,0,0,0-49.53Z"/>
            <path class="cls-6"
                  d="M311.92,456.76h122.6a17.52,17.52,0,0,0,0-35H311.92a17.52,17.52,0,0,0,0,35Zm0-70.06H522.08a17.51,17.51,0,0,0,0-35H311.92a17.51,17.51,0,0,0,0,35Zm0-70.05H522.08a17.51,17.51,0,0,0,0-35H311.92a17.51,17.51,0,1,0,0,35Z"/>
            <path class="cls-7"
                  d="M417,421.73H311.92a17.52,17.52,0,0,0,0,35H417Zm0-70.05H311.92a17.51,17.51,0,0,0,0,35H417Zm0-70.05H311.92a17.51,17.51,0,1,0,0,35H417Z"/>
        </g>
    </g>
</svg>