<svg xmlns="http://www.w3.org/2000/svg" viewBox="0 0 850 850">
    <defs>
        <style>.cls-1{fill:#fff;}.cls-2{fill:#9ea700;}.cls-3{fill:#868e00;}.cls-4{fill:#d8dc99;}.cls-5{fill:#c2c68a;}
        </style>
    </defs>
    <g id="Layer_2" data-name="Layer 2">
        <g id="Layer_1-2" data-name="Layer 1">
            <rect class="cls-1" width="850" height="850" rx="72.61"/>
            <path class="cls-2"
                  d="M425,631.77c-10.26,0-19.44-7-27.32-19-9-13.77-28.25-18.9-43-11.52-12.81,6.46-23.81,7.14-32.7,2s-13.79-15-14.61-29.33c-.92-16.42-15-30.52-31.44-31.45-14.34-.81-24.2-5.72-29.34-14.61s-4.45-19.89,2-32.7c7.4-14.68,2.24-34-11.51-43-12-7.87-18.91-17.06-18.91-27.32s6.9-19.44,18.9-27.32c13.76-9,18.92-28.27,11.52-43-6.47-12.81-7.15-23.81-2-32.7s15-13.79,29.33-14.61c16.42-.92,30.52-15,31.45-31.44.81-14.34,5.72-24.2,14.61-29.34s19.89-4.43,32.7,2c14.73,7.37,34,2.22,43-11.52,7.87-12,17.59-18.82,27.32-18.82s19.45,6.81,27.32,18.82c9,13.75,28.3,18.85,43,11.51,12.8-6.46,23.8-7.12,32.7-2s13.79,15,14.61,29.33c.92,16.42,15,30.53,31.44,31.45,14.34.82,24.2,5.73,29.34,14.61s4.45,19.89-2,32.7c-7.4,14.69-2.24,34,11.51,42.95,12,7.89,18.91,17.07,18.91,27.33s-6.9,19.45-18.91,27.32c-13.75,9-18.91,28.28-11.51,43,6.47,12.81,7.15,23.82,2,32.7s-15,13.8-29.33,14.61c-16.42.93-30.52,15-31.45,31.44-.81,14.34-5.72,24.21-14.61,29.34s-19.9,4.44-32.7-2c-14.7-7.45-33.95-2.26-42.95,11.51-7.89,12-17.07,19-27.33,19Z"/>
            <path class="cls-3"
                  d="M452.33,612.77c9-13.77,28.25-18.95,42.95-11.51,12.8,6.46,23.83,7.14,32.7,2s13.8-15,14.61-29.34c.93-16.41,15-30.51,31.45-31.44,14.33-.81,24.2-5.72,29.33-14.61s4.45-19.89-2-32.7c-7.4-14.68-2.24-34,11.51-43,12-7.87,18.91-17.06,18.91-27.32s-6.9-19.44-18.91-27.33c-13.75-9-18.91-28.26-11.51-42.95,6.47-12.81,7.15-23.81,2-32.7s-15-13.79-29.34-14.61c-16.41-.92-30.51-15-31.44-31.45-.81-14.33-5.72-24.19-14.61-29.33s-19.9-4.44-32.7,2c-14.66,7.34-34,2.24-43-11.51-7.87-12-17.59-18.82-27.32-18.82V631.77c10.26,0,19.44-7,27.33-19Z"/>
            <g id="Discount">
                <path class="cls-4" d="M376.54,388.57a36.35,36.35,0,1,1,36.34-36.35A36.4,36.4,0,0,1,376.54,388.57Z"/>
                <path class="cls-5" d="M473.46,534a36.35,36.35,0,1,1,36.35-36.35A36.39,36.39,0,0,1,473.46,534Z"/>
                <path class="cls-4" d="M342.62,514.57,488,320.72l19.38,14.53L362,529.1Z"/>
            </g>
            <path class="cls-5" d="M507.38,335.25,425,445.1V404.73l63-84Z"/>
        </g>
    </g>
</svg>