<svg xmlns="http://www.w3.org/2000/svg" viewBox="0 0 850 850">
    <defs>
        <style>.cls-1{fill:#fff;}.cls-2{fill:#c2c68a;}.cls-3{fill:#868e00;}.cls-4{fill:#9ea700;}</style>
    </defs>
    <g id="Layer_2" data-name="Layer 2">
        <g id="Layer_1-2" data-name="Layer 1">
            <rect class="cls-1" width="850" height="850" rx="72.61"/>
            <path class="cls-2"
                  d="M332.58,539.38l-18.77,18.77L330.7,575H233V498.69H206.5V601.58H330.7l-16.89,16.89,18.77,18.77,48.93-48.93Z"/>
            <path class="cls-3" d="M404.1,458.05a98.92,98.92,0,0,0-98.8-98.8l-8.85,58.54,8.85,53.53h98.8Z"/>
            <path class="cls-4" d="M206.5,458.05v13.27h98.8V359.25A98.92,98.92,0,0,0,206.5,458.05Z"/>
            <path class="cls-3" d="M305.3,194.39l-8.85,72.88,8.85,74.29a73.59,73.59,0,0,0,0-147.17Z"/>
            <path class="cls-4" d="M231.71,268a73.67,73.67,0,0,0,73.59,73.59V194.39A73.67,73.67,0,0,0,231.71,268Z"/>
            <path class="cls-3" d="M659.5,642.34A130.47,130.47,0,0,0,529.18,512l-8.84,79.6,8.84,64H659.5Z"/>
            <path class="cls-4" d="M398.87,642.34v13.27H529.18V512C457.33,512,398.87,570.48,398.87,642.34Z"/>
            <path class="cls-3" d="M529.18,302.71l-8.84,100.17,8.84,91.45a95.81,95.81,0,1,0,0-191.62Z"/>
            <path class="cls-4"
                  d="M433.37,398.52a95.92,95.92,0,0,0,95.81,95.81V302.71A95.92,95.92,0,0,0,433.37,398.52Z"/>
        </g>
    </g>
</svg>