<svg xmlns="http://www.w3.org/2000/svg" viewBox="0 0 850 850">
    <defs>
        <style>.attendance_cls-1{fill:#26261A;}.attendance_cls-2{fill:#BCBBA7;}.attendance_cls-3{fill:#c9c9b9;}.attendance_cls-4{fill:#969686;}</style>
    </defs>
    <g id="Layer_2" data-name="Layer 2">
        <g id="Layer_1-2" data-name="Layer 1">
            <rect class="attendance_cls-1" style="fill:#26261A !important;" width="850" height="850" rx="72.61"/>
            <path class="attendance_cls-2" style="fill:#BCBBA7 !important;"
                  d="M570.67,325.71v40.12H214V325.71a49,49,0,0,1,49-49H521.62A49,49,0,0,1,570.67,325.71Z"/>
            <path class="attendance_cls-3" style="fill:#c9c9b9 !important;"
                  d="M383.42,553.08c0-78.66,64-142.66,142.66-142.66a141.86,141.86,0,0,1,44.59,7.24V365.83H214v165a49,49,0,0,0,49,49H386A142.13,142.13,0,0,1,383.42,553.08Z"/>
            <path class="attendance_cls-4" style="fill:#969686 !important;"
                  d="M303.17,330.17a17.84,17.84,0,0,1-17.84-17.84v-53.5a17.84,17.84,0,0,1,35.67,0v53.5A17.84,17.84,0,0,1,303.17,330.17Z"/>
            <path class="attendance_cls-4" style="fill:#969686 !important;"
                  d="M481.5,330.17a17.83,17.83,0,0,1-17.83-17.84v-53.5a17.83,17.83,0,1,1,35.66,0v53.5A17.83,17.83,0,0,1,481.5,330.17Z"/>
            <path class="attendance_cls-2" style="fill:#BCBBA7 !important;"
                  d="M526.08,437.17A115.92,115.92,0,1,0,642,553.08,116,116,0,0,0,526.08,437.17Zm53.61,96.39-58,66.87a17.87,17.87,0,0,1-12.84,6.15h-.64a17.83,17.83,0,0,1-12.61-5.22l-31.2-31.21a17.83,17.83,0,0,1,25.21-25.21l17.67,17.67,45.41-52.4a17.83,17.83,0,0,1,27,23.35Z"/>
        </g>
    </g>
</svg>