<svg xmlns="http://www.w3.org/2000/svg" viewBox="0 0 850 850">
    <defs>
        <style>
            .cls-1{fill:#26261A;}.cls-2{fill:#BCBBA7;}.cls-2,.cls-3,.cls-4{fill-rule:evenodd;}.cls-3{fill:#969686;}.cls-4{fill:#c9c9b9;}
        </style>
    </defs>
    <g id="Layer_2" data-name="Layer 2">
        <g id="Layer_1-2" data-name="Layer 1">
            <rect class="cls-1" style="fill:#26261A !important;" width="850" height="850" rx="72.61"/>
            <path id="path14554" class="cls-2" style="fill:#BCBBA7 !important;"
                  d="M293,230a43.08,43.08,0,0,0-42.86,42.86v314.3A43.08,43.08,0,0,0,293,630H535.86a43.08,43.08,0,0,0,42.86-42.86V272.85A43.08,43.08,0,0,0,535.86,230Z"/>
            <path id="path35174" class="cls-3" style="fill:#969686 !important;"
                  d="M221.57,315.71a14.29,14.29,0,1,0,0,28.57H293a14.29,14.29,0,0,0,0-28.57Z"/>
            <path id="path35902" class="cls-3" style="fill:#969686 !important;"
                  d="M221.57,515.72a14.29,14.29,0,1,0,0,28.57H293a14.29,14.29,0,0,0,0-28.57Z"/>
            <path id="path35904" class="cls-3" style="fill:#969686 !important;"
                  d="M221.57,415.71a14.29,14.29,0,1,0,0,28.58H293a14.29,14.29,0,0,0,0-28.58Z"/>
            <path id="path16954" class="cls-4" style="fill:#c9c9b9 !important;"
                  d="M395.68,430.89a57.15,57.15,0,1,0,0,114.29h57.14a57.15,57.15,0,1,0,0-114.29Z"/>
            <path id="path14531" class="cls-4" style="fill:#c9c9b9 !important;"
                  d="M424.25,302.32a57.15,57.15,0,1,0,57.15,57.14A57.36,57.36,0,0,0,424.25,302.32Z"/>
        </g>
    </g>
</svg>