<svg xmlns="http://www.w3.org/2000/svg" viewBox="0 0 850 850">
    <defs>
        <style>
            .cls-1{fill:#26261A;}.cls-2{fill:#969686;}.cls-3{fill:#c9c9b9;}.cls-4{fill:#969686;}.cls-5{fill:#848375;}.cls-6{fill:#BCBBA7;}
        </style>
    </defs>
    <g id="Layer_2" data-name="Layer 2">
        <g id="Layer_1-2" data-name="Layer 1">
            <rect class="cls-1" style="fill:#26261A !important;" width="850" height="850" rx="72.61"/>
            <path class="cls-2" style="fill:#969686 !important;"
                  d="M596.51,441.16H547.58a69.85,69.85,0,0,0-69.74,69.6v76.75a42,42,0,0,0,41.93,41.84H624.32A41.86,41.86,0,0,0,666,587.51V510.76A69.66,69.66,0,0,0,596.51,441.16Z"/>
            <path class="cls-3"
                  d="M572.05,441.16H547.58a69.85,69.85,0,0,0-69.74,69.6V587.5a42.05,42.05,0,0,0,41.93,41.85h52.28V441.16Z"/>
            <path class="cls-2" style="fill:#969686 !important;" d="M572.05,298.59a62.54,62.54,0,1,0,62.53,62.53A62.6,62.6,0,0,0,572.05,298.59Z"/>
            <path class="cls-3" d="M572.05,298.59a62.54,62.54,0,1,0,0,125.07Z"/>
            <path class="cls-3"
                  d="M302.64,441.16H253.7A69.84,69.84,0,0,0,184,510.76V587.5a42,42,0,0,0,41.92,41.85H330.45a41.87,41.87,0,0,0,41.71-41.85V510.76A69.66,69.66,0,0,0,302.64,441.16Z"/>
            <path class="cls-4"
                  d="M278.17,441.16H253.7A69.84,69.84,0,0,0,184,510.76V587.5a42,42,0,0,0,41.92,41.85h52.28Z"/>
            <path class="cls-5"
                  d="M467.58,405H382.42a69.61,69.61,0,0,0-69.53,69.53V615.32a13.9,13.9,0,0,0,13.91,13.9H523.2a13.9,13.9,0,0,0,13.91-13.9V474.54A69.61,69.61,0,0,0,467.58,405Z"/>
            <path class="cls-6"
                  d="M425.47,405H382.42a69.61,69.61,0,0,0-69.53,69.53V615.32a13.9,13.9,0,0,0,13.91,13.9h98.67V405Z"/>
            <path class="cls-5" d="M425,220.65a83.62,83.62,0,1,0,83.62,83.62A83.71,83.71,0,0,0,425,220.65Z"/>
            <path class="cls-6" d="M425,220.65a83.62,83.62,0,0,0,0,167.24Z"/>
            <path class="cls-3" d="M278.17,298.59a62.54,62.54,0,1,0,62.53,62.53A62.6,62.6,0,0,0,278.17,298.59Z"/>
            <path class="cls-4" d="M278.17,298.59a62.54,62.54,0,0,0,0,125.07Z"/>
        </g>
    </g>
</svg>