<svg xmlns="http://www.w3.org/2000/svg" viewBox="0 0 850 850">
    <defs>
        <style>.crm_cls-1{fill:#26261A;}.crm_cls-2{fill:#A9A78E;}.crm_cls-3{fill:#CFCCB5;}.crm_cls-4{fill:#BEBBA0;}.crm_cls-5{fill:#929079;}
        </style>
    </defs>
    <g id="Layer_2" data-name="Layer 2">
        <g id="Layer_1-2" data-name="Layer 1">
            <rect class="crm_cls-1" style="fill:#26261A !important;" width="850" height="850" rx="72.61"/>
            <g id="_002---Give-Women_s-Rights" data-name="002---Give-Women&apos;s-Rights">
                <path id="Shape" class="crm_cls-2" style="fill:#A9A78E !important;"
                      d="M221,457.11l-19-20.18a148,148,0,0,1,215.16-203.1l6.34,6.73,82,28.31L640,443.1c8.25,8.76,16.8,16.48,16.43,33.19a37,37,0,0,1-63.89,24.32,37,37,0,1,1-53.8,50.79A37,37,0,0,1,488,604.94Z"/>
                <path id="Shape-2" data-name="Shape" class="crm_cls-3" style="fill:#CFCCB5 !important;"
                      d="M640,443.1,500.12,294.85a18.09,18.09,0,0,0-25.6-.74L407,357.86c-28.39,26.86-73.64,6.66-72.91-21.79a28.28,28.28,0,0,1,8.72-19.34l94.12-88.9A148,148,0,0,1,640,443.1Z"/>
                <path id="Shape-3" data-name="Shape" class="crm_cls-4" style="fill:#BEBBA0 !important;"
                      d="M656.89,424.17A144.22,144.22,0,0,1,640,443.1L500.12,294.85a18.09,18.09,0,0,0-25.6-.74L425.3,340.55c-1.05-1.19-8.26,6.33,66.79-64.62a18.14,18.14,0,0,1,25.61.82Z"/>
                <path id="Shape-4" data-name="Shape" class="crm_cls-5" style="fill:#929079 !important;"
                      d="M538.78,560.45a9,9,0,0,1-6.59-2.85L411.61,429.81a9.05,9.05,0,0,1,13.16-12.43l120.59,127.8a9.05,9.05,0,0,1-6.58,15.27Z"/>
                <path id="Shape-5" data-name="Shape" class="crm_cls-5" style="fill:#929079 !important;"
                      d="M592.58,509.66a9,9,0,0,1-6.59-2.84L465.4,379a9.05,9.05,0,0,1,13.17-12.42L599.17,494.4a9.06,9.06,0,0,1-6.59,15.26Z"/>
            </g>
            <rect class="crm_cls-3" style="fill:#CFCCB5 !important;" x="283.34" y="387.99" width="135.44" height="294.3" rx="59.26"
                  transform="translate(-275.58 404.97) rotate(-45)"/>
        </g>
    </g>
</svg>