<svg xmlns="http://www.w3.org/2000/svg" viewBox="0 0 850 850">
    <defs>
        <style>.maintenance_cls-1{fill:#26261A;}.maintenance_cls-2{fill:#c9c9b9;}.maintenance_cls-3{fill:#BCBBA7;}.maintenance_cls-4{fill:#a9a896;}.maintenance_cls-5{fill:#BCBBA7;}
        </style>
    </defs>
    <g id="Layer_2" data-name="Layer 2">
        <g id="Layer_1-2" data-name="Layer 1">
            <rect class="maintenance_cls-1" style="fill:#26261A !important;" width="850" height="850" rx="72.61"/>
            <path class="maintenance_cls-2" style="fill:#c9c9b9 !important;"
                  d="M608.07,275.92l-35.82,36.22H538.54V277.55l35.26-35.77c7.82-7.82,5.69-17.36-5-20.24a84.72,84.72,0,0,0-105.54,96.63c-7,7-24.15,24.41-39.63,40.37l-68.44,68.2c-16.45,16.21-30,30-37,36.76a84.32,84.32,0,0,0-74.73,23.7c-33.13,32.89-33.13,86.58,0,119.71,33.13,32.65,86.82,32.65,119.71-.24a84.81,84.81,0,0,0,23.46-74.73c7.5-7.74,23.7-23.7,42.56-42.56L531.72,386.61a84.92,84.92,0,0,0,96.57-105.8C625.33,270.26,615.82,268.18,608.07,275.92Zm-279,296.65a36.27,36.27,0,0,1-51.27,0h-.24a36.34,36.34,0,1,1,51.51,0Z"/>
            <path class="maintenance_cls-3" style="fill:#BCBBA7 !important;"
                  d="M608.07,275.92l-35.82,36.22H538.66L329.09,521.3a36.25,36.25,0,0,1-51.27,51.27l-34.34,34.34c33.13,32.65,86.82,32.65,119.71-.24a84.81,84.81,0,0,0,23.46-74.73c7.5-7.73,23.7-23.7,42.56-42.56L531.72,386.61a84.92,84.92,0,0,0,96.57-105.8C625.33,270.26,615.82,268.18,608.07,275.92Z"/>
            <path class="maintenance_cls-2" style="fill:#c9c9b9 !important;"
                  d="M406.47,355.06l-69.65-69.41V256.39A12,12,0,0,0,328.6,245l-76.91-25.64a11.74,11.74,0,0,0-12.58,2.9l-16.92,16.93a12.16,12.16,0,0,0-2.9,12.58l25.63,76.9a12,12,0,0,0,11.37,8.23h29.26L355,406.57a12.64,12.64,0,0,0,17.17,0L389.3,389.4l17.17-17.17A12.65,12.65,0,0,0,406.47,355.06Z"/>
            <path class="maintenance_cls-3" style="fill:#BCBBA7 !important;"
                  d="M230.65,230.76,389.3,389.4l-17.17,17.17a12.64,12.64,0,0,1-17.17,0l-69.41-69.64H256.29a12,12,0,0,1-11.37-8.23l-25.63-76.9a12.16,12.16,0,0,1,2.9-12.58Z"/>
            <path class="maintenance_cls-4" style="fill:#a9a896 !important;"
                  d="M620.85,535.42,506.1,420.6a36.84,36.84,0,0,0-18.62-9.91c-21.52-4.12-29.74-15.48-33.13-33.14a36.92,36.92,0,0,0-9.91-18.62l-20.56-20.55a12.9,12.9,0,0,0-17.17,0l-34.1,34.34-34.1,34.09a12,12,0,0,0,0,17.18l20.32,20.55a36.78,36.78,0,0,0,18.62,9.92c21.28,4.11,29.74,15.23,33.13,33.13a36.92,36.92,0,0,0,9.91,18.62L535.24,621c13.78,13.78,37.48,13.78,51.27,0l8.7-8.71-2.9-19.83-.48-2.66,20.32,5.57,8.7-8.71A36.49,36.49,0,0,0,620.85,535.42Z"/>
            <path class="maintenance_cls-5" style="fill:#BCBBA7 !important;"
                  d="M595.21,612.32l-8.7,8.71c-13.79,13.78-37.49,13.78-51.27,0L420.49,506.21a36.92,36.92,0,0,1-9.91-18.62c-3.39-17.9-11.85-29-33.13-33.13a36.78,36.78,0,0,1-18.62-9.92L338.51,424a12,12,0,0,1,0-17.18l34.1-34.09,219.7,219.77Z"/>
        </g>
    </g>
</svg>