<?xml version="1.0" encoding="UTF-8"?>
<svg id="Layer_2" data-name="Layer 2" xmlns="http://www.w3.org/2000/svg" viewBox="0 0 850 850">
  <defs>
    <style>
      .survey_cls-1 {
        fill: #26261A;
      }

      .survey_cls-2 {
        fill: #969686;
      }

      .survey_cls-3 {
        fill: #a9a896;
      }

      .survey_cls-4 {
        fill: #717064;
      }

      .survey_cls-5 {
        fill: #c9c9b9;
      }
    </style>
  </defs>
  <g id="Layer_1-2" data-name="Layer 1">
    <g>
      <rect class="survey_cls-1" style="fill:#26261A !important;" width="850" height="850" rx="72.61" ry="72.61"/>
      <g>
        <path class="survey_cls-5" style="fill:#c9c9b9 !important;" d="m338.63,196.93l-86.59,86.59v369.55h345.92V196.93h-259.33Z"/>
        <path class="survey_cls-2" style="fill:#969686 !important;" d="m442.49,196.93h155.47v456.14h-155.47V196.93Z"/>
        <path class="survey_cls-2" style="fill:#969686 !important;" d="m338.63,283.52v-86.59s-86.59,86.59-86.59,86.59h86.59Z"/>
        <path class="survey_cls-3" style="fill:#a9a896 !important;" d="m341.11,430.42l-48.66-48.65,29.8-29.8,18.86,18.86,35.1-35.09,29.8,29.8-64.89,64.9Z"/>
        <path class="survey_cls-3" style="fill:#a9a896 !important;" d="m341.11,547.53l-48.66-48.65,29.8-29.8,18.86,18.86,35.1-35.1,29.8,29.8-64.89,64.9Z"/>
        <path class="survey_cls-3" style="fill:#a9a896 !important;" d="m418.56,372.92h119.45v42.14h-119.45v-42.14Z"/>
        <path class="survey_cls-4" style="fill:#717064 !important;" d="m442.49,372.92h95.53v42.14h-95.53v-42.14Z"/>
        <path class="survey_cls-3" style="fill:#a9a896 !important;" d="m418.56,488.25h119.45v42.14h-119.45v-42.14Z"/>
        <path class="survey_cls-4" style="fill:#717064 !important;" d="m442.49,488.25h95.53v42.14h-95.53v-42.14Z"/>
      </g>
    </g>
  </g>
</svg>