<?xml version="1.0" encoding="utf-8"?>
<!-- Generator: Adobe Illustrator 24.3.0, SVG Export Plug-In . SVG Version: 6.00 Build 0)  -->
<svg version="1.1" id="Layer_1" xmlns="http://www.w3.org/2000/svg" xmlns:xlink="http://www.w3.org/1999/xlink" x="0px" y="0px"
	 viewBox="0 0 850 850" style="enable-background:new 0 0 850 850;" xml:space="preserve">
<style type="text/css">
	.st0{fill:#26261A;}
	.st1{fill:#D2D4C5;}
	.st2{fill:#BEC2AC;}
</style>
<g id="Layer_2_1_">
	<g id="Layer_1-2">
		<path class="st0" style="fill:#26261A !important;" d="M72.6,0h704.8C817.5,0,850,32.5,850,72.6v704.8c0,40.1-32.5,72.6-72.6,72.6H72.6C32.5,850,0,817.5,0,777.4
			V72.6C0,32.5,32.5,0,72.6,0z"/>
	</g>
</g>
<g id="SvgjsG1026">
	<path class="st1" style="fill:#D2D4C5 !important;" d="M434.4,262.2l-24.3-39h-34.2c-15.7,0-30.2,8.2-38.2,21.6l-22.6,36.8l80.4,51.1L434.4,262.2z"/>
	<path class="st2" style="fill:#BEC2AC !important;" d="M562.4,293.5l-28.1-48.3c-7.2-13.5-21.2-22-36.5-21.9h-87.6l65.7,124.2l-36.5,21.9L548,381.7l52-107.4
		L562.4,293.5z"/>
	<path class="st1" style="fill:#D2D4C5 !important;" d="M607.3,376.7l-87.7,51.1l36.5,65.8h58.5l15.3-24.7c8.5-13.7,8.9-31,1-45.1L607.3,376.7z"/>
	<path class="st2" style="fill:#BEC2AC !important;" d="M468.5,493.6v-36.5l-73.1,80.4l73.1,95v-29.2H527c15.4,0.4,29.6-8.2,36.5-21.9l51.1-87.7H468.5z"/>
	<path class="st1" style="fill:#D2D4C5 !important;" d="M285.8,500.9l-17.8,41l22.2,38.5c8.2,14,23.2,22.6,39.4,22.8h29.2V500.9H285.8z"/>
	<path class="st2" style="fill:#BEC2AC !important;" d="M373.5,435.1l-43.8-95l-116.9,7.3l41.8,25.9l-27.2,54.5c-7.6,13.6-7.6,30.2,0,43.8l40.7,70.2l15.2-26.4
		l54.3-94.3L373.5,435.1z"/>
</g>
</svg>
