<svg xmlns="http://www.w3.org/2000/svg" viewBox="0 0 850 850">
    <defs>
        <style>
            .calendar_cls-1{fill:#26261A;}.calendar_cls-2{fill:#c9c9b9;}.calendar_cls-2,.calendar_cls-3,.calendar_cls-4{fill-rule:evenodd;}.calendar_cls-3{fill:#BCBBA7;}.calendar_cls-4{fill:#969686;}
        </style>
    </defs>
    <g id="Layer_2" data-name="Layer 2">
        <g id="Layer_1-2" data-name="Layer 1">
            <rect class="calendar_cls-1" style="fill:#26261A !important;" width="850" height="850" rx="72.61"/>
            <path class="calendar_cls-2" style="fill:#c9c9b9 !important;"
                  d="M595.8,388.25V563.06a37.47,37.47,0,0,1-37.46,37.47H283.66a37.47,37.47,0,0,1-37.46-37.47V388.25Z"/>
            <path class="calendar_cls-3" style="fill:#BCBBA7 !important;"
                  d="M246.2,387.62V312.71a37.49,37.49,0,0,1,37.46-37.46H558.34a37.49,37.49,0,0,1,37.46,37.46v74.91Z"/>
            <path class="calendar_cls-4" style="fill:#969686 !important;" d="M308.63,262a12.49,12.49,0,1,1,25,0v49.93a12.49,12.49,0,0,1-25,0Z"/>
            <path class="calendar_cls-4" style="fill:#969686 !important;" d="M508.4,262a12.49,12.49,0,1,1,25,0v49.93a12.49,12.49,0,0,1-25,0Z"/>
        </g>
    </g>
</svg>