<?xml version="1.0" encoding="utf-8"?>
<!-- Generator: Adobe Illustrator 24.3.0, SVG Export Plug-In . SVG Version: 6.00 Build 0)  -->
<svg version="1.1" id="Layer_1" xmlns="http://www.w3.org/2000/svg" xmlns:xlink="http://www.w3.org/1999/xlink" x="0px" y="0px"
	 viewBox="0 0 850 850" style="enable-background:new 0 0 850 850;" xml:space="preserve">
<style type="text/css">
	.st0{fill:#26261A;}
	.st1{fill:#D2D4C5;}
	.st2{fill:#BEC2AC;}
	.st3{fill:#DFE1D6;}
	.st4{fill:#CBCEBD;}
</style>
<g id="Layer_2_1_">
	<g id="Layer_1-2">
		<path class="st0" style="fill:#26261A !important;" d="M72.6,0h704.8C817.5,0,850,32.5,850,72.6v704.8c0,40.1-32.5,72.6-72.6,72.6H72.6C32.5,850,0,817.5,0,777.4
			V72.6C0,32.5,32.5,0,72.6,0z"/>
	</g>
</g>
<g id="SvgjsG1008">
	<path class="st1" style="fill:#D2D4C5 !important;" d="M474.7,639.6H374.1c-6.9,0-12.5-5.6-12.5-12.5v-27c0-29.1-31.5-47.3-56.7-32.7l-23.4,13.5
		c-6,3.5-13.7,1.4-17.1-4.6l-50.3-87.2c-3.5-6-1.4-13.7,4.6-17.1l23.4-13.5c25.2-14.5,25.2-50.9,0-65.5l-23.4-13.5
		c-6-3.5-8-11.1-4.6-17.1l50.3-87.2c3.5-6,11.1-8,17.1-4.6l23.4,13.5c25.2,14.5,56.7-3.6,56.7-32.7v-27c0-6.9,5.6-12.5,12.5-12.5
		h100.6c6.9,0,12.5,5.6,12.5,12.5v27c0,29.1,31.5,47.3,56.7,32.7l23.4-13.5c6-3.5,13.7-1.4,17.1,4.6l50.3,87.2
		c3.5,6,1.4,13.7-4.6,17.1l-23.3,13.5c-25.2,14.5-25.2,50.9,0,65.5l23.4,13.5c6,3.5,8,11.1,4.6,17.1l-50.3,87.2
		c-3.5,6-11.1,8-17.1,4.6l-23.4-13.5c-25.2-14.5-56.7,3.6-56.7,32.7v27C487.3,634,481.7,639.6,474.7,639.6z"/>
	<path class="st2" style="fill:#BEC2AC !important;" d="M630.1,472l-23.4-13.5c-25.2-14.6-25.2-50.9,0-65.5l23.4-13.5c6-3.5,8-11.1,4.6-17.1l-50.3-87.2
		c-3.5-6-11.1-8-17.1-4.6L544,284.2c-25.2,14.6-56.7-3.7-56.7-32.7v-27c0-6.9-5.6-12.5-12.5-12.5h-50.3v427.6h50.3
		c6.9,0,12.5-5.6,12.5-12.5v-27c0-29.1,31.5-47.3,56.7-32.7l23.3,13.5c6,3.5,13.7,1.4,17.1-4.6l50.3-87.2
		C638.2,483.1,636.1,475.5,630.1,472z"/>
	<path class="st3" style="fill:#DFE1D6 !important;" d="M424.4,513.5c-48.4,0-87.7-39.3-87.7-87.7s39.3-87.7,87.7-87.7c48.3,0,87.7,39.3,87.7,87.7
		S472.8,513.5,424.4,513.5z"/>
	<path class="st4" style="fill:#CBCEBD !important;" d="M424.4,338.1v175.4c48.3,0,87.7-39.3,87.7-87.7S472.8,338.1,424.4,338.1z"/>
</g>
</svg>
