<?xml version="1.0" encoding="utf-8"?>
<!-- Generator: Adobe Illustrator 24.3.0, SVG Export Plug-In . SVG Version: 6.00 Build 0)  -->
<svg version="1.1" id="Layer_1" xmlns="http://www.w3.org/2000/svg" xmlns:xlink="http://www.w3.org/1999/xlink" x="0px" y="0px"
	 viewBox="0 0 850 850" style="enable-background:new 0 0 850 850;" xml:space="preserve">
<style type="text/css">
	.st0{fill:#26261A;}
	.st1{fill:#BEC2AC;}
	.st2{fill:#D2D4C5;}
</style>
<g id="Layer_2_1_">
	<g id="Layer_1-2">
		<path class="st0" style="fill:#26261A !important;" d="M72.6,0h704.8C817.5,0,850,32.5,850,72.6v704.8c0,40.1-32.5,72.6-72.6,72.6H72.6C32.5,850,0,817.5,0,777.4
			V72.6C0,32.5,32.5,0,72.6,0z"/>
	</g>
</g>
<g id="SvgjsG1016">
	<path class="st1" style="fill:#BEC2AC !important;" d="M340.4,212h-82.3c-26.2,0-47.5,21.3-47.5,47.5v85.6h129.8V212z M501.8,639.6h89c26.2,0,47.5-21.3,47.5-47.5
		v-85.7H501.8V639.6z M210.6,506.5v85.7c0,26.2,21.3,47.5,47.5,47.5h82.3V506.5H210.6z M590.7,212h-89v133.1h136.5v-85.6
		C638.2,233.3,616.9,212,590.7,212z"/>
	<rect x="365.5" y="212" class="st2" style="fill:#D2D4C5 !important;" width="111.2" height="133.1"/>
	<rect x="501.8" y="370.2" class="st2" style="fill:#D2D4C5 !important;" width="136.5" height="111.2"/>
	<rect x="365.5" y="506.5" class="st2" style="fill:#D2D4C5 !important;" width="111.2" height="133.2"/>
	<rect x="210.6" y="370.2" class="st2" style="fill:#D2D4C5 !important;" width="129.8" height="111.2"/>
	<rect x="365.5" y="370.2" class="st1" style="fill:#BEC2AC !important;" width="111.2" height="111.2"/>
</g>
</svg>
