<svg xmlns="http://www.w3.org/2000/svg" viewBox="0 0 850 850">
    <defs>
        <style>.website_cls-1{fill:#26261A;}.website_cls-2{fill:#969686;}.website_cls-2,.website_cls-3{fill-rule:evenodd;}.website_cls-3{fill:#BCBBA7;}</style>
    </defs>
    <g id="Layer_2" data-name="Layer 2">
        <g id="Layer_1-2" data-name="Layer 1">
            <rect class="website_cls-1" style="fill:#26261A !important;" width="850" height="850" rx="72.61"/>
            <path class="website_cls-2" style="fill:#969686 !important;"
                  d="M495.16,524.51a428.68,428.68,0,0,0-140.3,0c6.35,37.89,16.28,70.56,28.74,94.92,6.73,13.16,14.1,23.72,22.18,30.91,6.11,5.43,12.43,8.8,19.22,8.8s13.11-3.37,19.22-8.8c8.08-7.19,15.45-17.75,22.18-30.91C478.86,595.1,488.79,562.43,495.16,524.51Zm7.71-83.9H347.13c.42,18.25,1.59,35.95,3.45,52.88a457.2,457.2,0,0,1,148.84,0C501.28,476.53,502.45,458.85,502.87,440.61Zm-3.45-84.07a456.76,456.76,0,0,1-148.86,0c-1.84,16.9-3,34.57-3.43,52.81H502.87C502.45,391.15,501.28,373.47,499.42,356.54Zm-4.26-31.05c-6.37-37.92-16.3-70.59-28.76-95-6.73-13.16-14.1-23.72-22.18-30.91-6.11-5.43-12.43-8.8-19.22-8.8s-13.11,3.37-19.22,8.8c-8.09,7.19-15.45,17.75-22.18,30.91-12.46,24.37-22.39,57.06-28.76,95A428.52,428.52,0,0,0,495.16,325.49Z"/>
            <path class="website_cls-3" style="fill:#BCBBA7 !important;"
                  d="M234.65,561.35a234.72,234.72,0,0,0,131.7,90.41c-18.25-27.39-33.18-69.87-42-121.1A504.69,504.69,0,0,0,234.65,561.35Zm249,90.41a234.68,234.68,0,0,0,131.7-90.41,500.78,500.78,0,0,0-89.72-30.72C516.83,581.88,501.92,624.37,483.65,651.76ZM191.34,440.61a232.73,232.73,0,0,0,26.7,94,538.49,538.49,0,0,1,101.9-35c-2.19-18.84-3.56-38.58-4-58.95Zm467.32,0H534.09c-.47,20.36-1.84,40.09-4,58.92A535.66,535.66,0,0,1,632,534.59,232.82,232.82,0,0,0,658.66,440.61ZM218,315.44a232.82,232.82,0,0,0-26.68,93.95H315.91c.47-20.36,1.84-40.08,4-58.89A536.31,536.31,0,0,1,218,315.44Zm414,0a538.51,538.51,0,0,1-101.9,35c2.17,18.83,3.54,38.56,4,58.92H658.66A233,233,0,0,0,632,315.44ZM366.35,198.24a234.61,234.61,0,0,0-131.72,90.44,501.24,501.24,0,0,0,89.74,30.72C333.17,268.14,348.08,225.63,366.35,198.24Zm117.3,0c18.27,27.39,33.18,69.88,42,121.13a503.89,503.89,0,0,0,89.73-30.69,234.64,234.64,0,0,0-131.71-90.44Z"/>
        </g>
    </g>
</svg>