<svg xmlns="http://www.w3.org/2000/svg" viewBox="0 0 850 850">
    <defs>
        <style>.invoicing_cls-1{fill:#26261A;}.invoicing_cls-2{fill:#BCBBA7;}.invoicing_cls-3{fill:#969686;}.invoicing_cls-4{fill:#a9a896;}.invoicing_cls-5{fill:#848375;}
        </style>
    </defs>
    <g id="Layer_2" data-name="Layer 2">
        <g id="Layer_1-2" data-name="Layer 1">
            <rect class="invoicing_cls-1" style="fill:#26261A !important;" width="850" height="850" rx="72.61"/>
            <path class="invoicing_cls-2" style="fill:#BCBBA7 !important;"
                  d="M620.6,189.16c-8.72-3.06-18.76-1.37-25.43,4.29L565,219l-30.17-25.57c-9.11-7.73-23.88-7.73-33,0L471.67,219,441.5,193.45c-9.11-7.73-23.89-7.73-33,0L378.33,219l-30.16-25.57c-9.11-7.73-23.89-7.73-33,0L285,219l-30.17-25.57c-6.67-5.66-16.71-7.35-25.43-4.29S215,199.43,215,207.43V642.57c0,10.92,10.45,19.78,23.33,19.78H611.67c12.88,0,23.33-8.86,23.33-19.78V207.43C635,199.43,629.32,192.22,620.6,189.16Z"/>
            <path class="invoicing_cls-3" style="fill:#969686 !important;"
                  d="M620.6,193.34c-8.72-3-18.76-1.36-25.43,4.25L565,222.94l-30.17-25.35c-9.11-7.65-23.88-7.65-33,0l-30.17,25.35L441.5,197.59a25.7,25.7,0,0,0-16.5-5.74v470.5H611.67c12.88,0,23.33-8.78,23.33-19.61V211.45C635,203.52,629.32,196.38,620.6,193.34Z"/>
            <path class="invoicing_cls-4" style="fill:#a9a896 !important;" d="M518.33,524.35H331.67a23.34,23.34,0,1,0,0,46.67H518.33a23.34,23.34,0,1,0,0-46.67Z"/>
            <path class="invoicing_cls-4" style="fill:#a9a896 !important;" d="M331.67,477.68h140a23.33,23.33,0,0,0,0-46.66h-140a23.33,23.33,0,1,0,0,46.66Z"/>
            <path class="invoicing_cls-4" style="fill:#a9a896 !important;" d="M331.67,384.35H518.33a23.34,23.34,0,1,0,0-46.67H331.67a23.34,23.34,0,1,0,0,46.67Z"/>
            <path class="invoicing_cls-5" style="fill:#848375 !important;" d="M518.33,524.35H425V571h93.33a23.34,23.34,0,1,0,0-46.67Z"/>
            <path class="invoicing_cls-5" style="fill:#848375 !important;"
                  d="M495,454.35A23.33,23.33,0,0,0,471.67,431H425v46.66h46.67A23.34,23.34,0,0,0,495,454.35Z"/>
            <path class="invoicing_cls-5" style="fill:#848375 !important;"
                  d="M541.67,361a23.34,23.34,0,0,0-23.34-23.34H425v46.67h93.33A23.34,23.34,0,0,0,541.67,361Z"/>
        </g>
    </g>
</svg>