<?xml version="1.0" encoding="UTF-8"?>
<svg id="Layer_2" data-name="Layer 2" xmlns="http://www.w3.org/2000/svg" viewBox="0 0 850 850">
  <defs>
    <style>
      .pos_cls-1 {
        fill: #26261A;
      }

      .pos_cls-2 {
        fill: #BCBBA7;
      }

      .pos_cls-3 {
        fill: #969686;
      }

      .pos_cls-4 {
        fill: #a9a896;
      }

      .pos_cls-5 {
        fill: #c3c2b0;
      }
    </style>
  </defs>
  <g id="Layer_1-2" data-name="Layer 1">
    <g>
      <rect class="pos_cls-1" style="fill:#26261A !important;" width="850" height="850" rx="72.61" ry="72.61"/>
      <g>
        <path class="pos_cls-5" style="fill:#c3c2b0 !important;" d="m425,395.09l-259.21,39.88v54.83c0,35.79,29.01,64.8,64.8,64.8s64.8-29.01,64.8-64.8c0,35.79,29.01,64.8,64.8,64.8s64.8-29.01,64.8-64.8c0,35.79,29.01,64.8,64.8,64.8s64.8-29.01,64.8-64.8c0,35.79,29.01,64.8,64.8,64.8s64.8-29.01,64.8-64.8v-54.83l-259.21-39.88Z"/>
        <path class="pos_cls-4" style="fill:#a9a896 !important;" d="m489.8,554.61c35.79,0,64.8-29.01,64.8-64.8,0,35.79,29.01,64.8,64.8,64.8s64.8-29.01,64.8-64.8v-54.83l-259.21-39.88v94.71c0,35.79,29.01,64.8,64.8,64.8Z"/>
        <path class="pos_cls-2" style="fill:#BCBBA7 !important;" d="m681.7,425.29l-66.47-119.64c-3.52-6.33-10.19-10.26-17.43-10.26H252.19c-7.24,0-13.91,3.93-17.43,10.26l-66.47,119.64c-1.65,2.96-2.51,6.3-2.51,9.68h518.43c0-3.39-.86-6.72-2.51-9.68Z"/>
        <path class="pos_cls-3" style="fill:#969686 !important;" d="m597.81,295.39h-172.81v139.58h259.21c0-3.39-.86-6.72-2.51-9.68l-66.47-119.64c-3.52-6.33-10.19-10.26-17.43-10.26Z"/>
      </g>
    </g>
  </g>
</svg>