<svg xmlns="http://www.w3.org/2000/svg" viewBox="0 0 850 850">
    <defs>
        <style>
            .sales_cls-1{fill:#26261A;}.sales_cls-2{fill:#BCBBA7;}.sales_cls-3{fill:#c9c9b9;}.sales_cls-4{fill:#969686;}.sales_cls-5{fill:#a9a896;}.sales_cls-6{fill:#c3c2b0;}.sales_cls-7{fill:#848375;}
        </style>
    </defs>
    <g id="Layer_2" data-name="Layer 2">
        <g id="Layer_1-2" data-name="Layer 1">
            <rect class="sales_cls-1" style="fill:#26261A !important;" width="850" height="850" rx="72.61"/>
            <rect class="sales_cls-2" style="fill:#BCBBA7 !important;" x="312.5" y="280.36" width="144.64" height="369.64" rx="16.07"/>
            <rect class="sales_cls-3" style="fill:#c9c9b9 !important;" x="200" y="360.71" width="144.64" height="289.29" rx="16.07"/>
            <rect class="sales_cls-4" style="fill:#969686 !important;" x="425" y="200" width="225" height="450" rx="16.07"/>
            <path class="sales_cls-5" style="fill:#a9a896 !important;"
                  d="M312.5,605v28.93A16.08,16.08,0,0,0,328.57,650h112.5a16.07,16.07,0,0,0,16.07-16.07V373.57Z"/>
            <path class="sales_cls-6" style="fill:#c3c2b0 !important;" d="M284.38,650h44.19a16.07,16.07,0,0,0,16.07-16.07V553.57Z"/>
            <path class="sales_cls-7" style="fill:#848375 !important;"
                  d="M633.93,200H565.62L425,425V633.93A16.08,16.08,0,0,0,441.07,650H633.93A16.08,16.08,0,0,0,650,633.93V216.07A16.08,16.08,0,0,0,633.93,200Z"/>
        </g>
    </g>
</svg>