<?xml version="1.0" encoding="UTF-8"?>
<svg id="Layer_2" data-name="Layer 2" xmlns="http://www.w3.org/2000/svg" viewBox="0 0 850 850">
  <defs>
    <style>
      .cls-1 {
        fill: #fff;
      }

      .cls-2 {
        fill: #bbc14d;
      }

      .cls-3 {
        fill: #9ea700;
      }
    </style>
  </defs>
  <g id="Layer_1-2" data-name="Layer 1">
    <g>
      <rect class="cls-1" y="0" width="850" height="850" rx="72.61" ry="72.61"/>
      <g>
        <path class="cls-2" d="m382.49,239.52h-115.92c-14.91,0-27.05,12.13-27.05,27.05v69.55c0,14.92,12.13,27.05,27.05,27.05h115.92c14.92,0,27.05-12.13,27.05-27.05v-69.55c0-14.91-12.13-27.05-27.05-27.05Z"/>
        <path class="cls-3" d="m382.49,394.09h-115.92c-14.91,0-27.05,12.13-27.05,27.05v162.29c0,14.91,12.13,27.05,27.05,27.05h115.92c14.92,0,27.05-12.13,27.05-27.05v-162.29c0-14.92-12.13-27.05-27.05-27.05Z"/>
        <path class="cls-2" d="m583.43,486.82h-115.92c-14.92,0-27.05,12.13-27.05,27.05v69.55c0,14.91,12.13,27.05,27.05,27.05h115.92c14.91,0,27.05-12.13,27.05-27.05v-69.55c0-14.92-12.13-27.05-27.05-27.05Z"/>
        <path class="cls-3" d="m583.43,239.52h-115.92c-14.92,0-27.05,12.13-27.05,27.05v162.29c0,14.92,12.13,27.05,27.05,27.05h115.92c14.91,0,27.05-12.13,27.05-27.05v-162.29c0-14.91-12.13-27.05-27.05-27.05Z"/>
      </g>
    </g>
  </g>
</svg>