<svg xmlns="http://www.w3.org/2000/svg" viewBox="0 0 850 850">
    <defs>
        <style>.cls-1{fill:#fff;}.cls-2{fill:#777d00;}.cls-3{fill:#9ea700;}</style>
    </defs>
    <g id="Layer_2" data-name="Layer 2">
        <g id="Layer_1-2" data-name="Layer 1">
            <rect class="cls-1" width="850" height="850" rx="72.61"/>
            <path class="cls-2"
                  d="M381,592.47a12.64,12.64,0,0,1-11.67,7.78h-.06l-92.39-.42a12.64,12.64,0,0,1-10.9-6.32l-7.69-13.31-11-19.06-.1-.19a12.65,12.65,0,0,1-.08-12.52l19.81-35.33a12.77,12.77,0,0,1,11.18-6.46l21.32.25,69.59.81a12.64,12.64,0,0,1,8.79,21.59l-24.44,24.45,24.92,24.92A12.64,12.64,0,0,1,381,592.47Z"/>
            <path class="cls-2"
                  d="M642.52,492.19l-7.94,13.75-10.86,18.82a12.68,12.68,0,0,1-10.8,6.32l-40.51.5h-.16a12.65,12.65,0,0,1-11-6.45L550.9,506.76l-34.21-60.88A12.66,12.66,0,0,1,531,427.46l33.4,9,9.13-34.05a12.65,12.65,0,0,1,23.19-3l45.84,80.23A12.65,12.65,0,0,1,642.52,492.19Z"/>
            <path class="cls-2"
                  d="M415,222.94a12.65,12.65,0,0,0-10.87-6.18H366.5A12.64,12.64,0,0,0,355.58,223L309,302.84a12.64,12.64,0,0,0,14.19,18.59l34.05-9.13,8.95,33.4a12.64,12.64,0,0,0,23.09,3.18l46.37-78.2a12.63,12.63,0,0,0,0-12.91Z"/>
            <path class="cls-3"
                  d="M368.83,449.35a12.64,12.64,0,0,1-14,.92L336.94,440l-37.53,66.92L258.29,580.2l-11-19.06-.1-.19-39.7-68.76a12.65,12.65,0,0,1,0-12.65L257,393.8l-18-10.38a12.65,12.65,0,0,1,3.06-23.17l91.33-24.47a12.65,12.65,0,0,1,15.48,8.94l24.47,91.33A12.62,12.62,0,0,1,368.83,449.35Z"/>
            <path class="cls-3"
                  d="M634.58,505.94l-10.86,18.82L584,593.51a12.64,12.64,0,0,1-10.95,6.32h-99V620.6a12.65,12.65,0,0,1-21.59,8.94l-66.85-66.86a12.64,12.64,0,0,1,0-17.88l66.85-66.86a12.65,12.65,0,0,1,21.59,8.95v20.62l76.84-.75Z"/>
            <path class="cls-3"
                  d="M580.47,312.67,556,404a12.66,12.66,0,0,1-12.21,9.37,12.8,12.8,0,0,1-3.28-.43l-91.33-24.47a12.65,12.65,0,0,1-3.05-23.17L464,355l-50.57-85.13-31.55-53.1H483.5a12.66,12.66,0,0,1,11,6.32l23.29,40.36,26.19,45.39,18-10.38a12.64,12.64,0,0,1,18.54,14.22Z"/>
        </g>
    </g>
</svg>