<svg width="850" height="850" viewBox="0 0 850 850" fill="none" xmlns="http://www.w3.org/2000/svg">
<g clip-path="url(#clip0_6231_579)">
<path d="M777.39 0H72.61C32.5086 0 0 32.5086 0 72.61V777.39C0 817.491 32.5086 850 72.61 850H777.39C817.491 850 850 817.491 850 777.39V72.61C850 32.5086 817.491 0 777.39 0Z" fill="#26261A"/>
<path d="M340.04 185H237.96C208.711 185 185 208.711 185 237.96V340.04C185 369.289 208.711 393 237.96 393H340.04C369.289 393 393 369.289 393 340.04V237.96C393 208.711 369.289 185 340.04 185Z" fill="#A9A78E"/>
<path d="M612.04 185H509.96C480.711 185 457 208.711 457 237.96V340.04C457 369.289 480.711 393 509.96 393H612.04C641.289 393 665 369.289 665 340.04V237.96C665 208.711 641.289 185 612.04 185Z" fill="#A9A78E"/>
<path d="M340.04 457H237.96C208.711 457 185 480.711 185 509.96V612.04C185 641.289 208.711 665 237.96 665H340.04C369.289 665 393 641.289 393 612.04V509.96C393 480.711 369.289 457 340.04 457Z" fill="#A9A78E"/>
<path d="M561 665C618.438 665 665 618.438 665 561C665 503.562 618.438 457 561 457C503.562 457 457 503.562 457 561C457 618.438 503.562 665 561 665Z" fill="#A9A78E"/>
</g>
<defs>
<clipPath id="clip0_6231_579">
<rect width="850" height="850" fill="white"/>
</clipPath>
</defs>
</svg>
