<svg xmlns="http://www.w3.org/2000/svg" viewBox="0 0 850 850">
    <defs>
        <style>.cls-1{fill:#fff;}.cls-2{fill:#bbc14d;}.cls-3{fill:#9ea700;}</style>
    </defs>
    <g id="Layer_2" data-name="Layer 2">
        <g id="Layer_1-2" data-name="Layer 1">
            <rect class="cls-1" width="850" height="850" rx="72.61"/>
            <path class="cls-2"
                  d="M596.9,565.52c23.4-25.11,36.16-56.16,36.16-88.5,0-40.48-20-77.13-52-103.14C580.32,466.61,493.11,542,386,542h-72.5c28,46.24,85,78,150.52,78h156a13,13,0,0,0,12-8,12.87,12.87,0,0,0-2.85-14.14Z"/>
            <path class="cls-3"
                  d="M386,229.94c-93.22,0-169,64.13-169,143,0,32.35,12.76,63.32,36.16,88.51l-32.34,32.35A13,13,0,0,0,229.94,516H386c93.22,0,169-64.13,169-143S479.21,229.94,386,229.94Z"/>
        </g>
    </g>
</svg>