<svg xmlns="http://www.w3.org/2000/svg" viewBox="0 0 850 850">
    <defs>
        <style>
            .cls-1{fill:#fff;}.cls-2{fill:#bbc14d;}.cls-3{fill:#9ea700;}.cls-4{fill:#adb426;}.cls-5{fill:#969f00;}.cls-6{fill:#8e9600;}.cls-7{fill:#d2a073;}.cls-8{fill:#b1b933;}
        </style>
    </defs>
    <g id="Layer_2" data-name="Layer 2">
        <g id="Layer_1-2" data-name="Layer 1">
            <rect class="cls-1" width="850" height="850" rx="72.61"/>
            <path class="cls-2"
                  d="M324.42,200a8.11,8.11,0,0,0-2.52,5.84V318.15h51.55v-82.7L382,218.91V152.75h-5a8.77,8.77,0,0,0-6.08,2.42Z"/>
            <path class="cls-3"
                  d="M525.58,200a8.11,8.11,0,0,1,2.52,5.84V318.15H476.55v-82.7L468,218.91V152.75h5a8.79,8.79,0,0,1,6.08,2.42Z"/>
            <path class="cls-4" d="M442.18,177.56v57.73H373.45v-33Z"/>
            <path class="cls-5" d="M476.55,202.42v33l-34.38-.16V202.36Z"/>
            <path class="cls-2" d="M468,152.75H442.18l-34.36,24.81,34.36,24.81h34.37V161A8.44,8.44,0,0,0,468,152.75Z"/>
            <path class="cls-6" d="M373.45,161v41.35h68.73V152.75H382a8.44,8.44,0,0,0-8.59,8.27Z"/>
            <path class="cls-6" d="M614,293.34V560.18L425,626.34l146-341.27h34.37a8.44,8.44,0,0,1,8.59,8.27Z"/>
            <path class="cls-7" d="M373.45,145.33v-.1C373.36,145.27,373.38,145.3,373.45,145.33Z"/>
            <path class="cls-3"
                  d="M236,293.34V560.18l343.66,66.16v-333a8.44,8.44,0,0,0-8.59-8.27H244.58a8.43,8.43,0,0,0-8.59,8.27Z"/>
            <path class="cls-2" d="M562.46,673.14l8.59,27.63h34.37Z"/>
            <path class="cls-2" d="M244.58,609.8v91H571.05a8.44,8.44,0,0,0,8.6-8.27V609.8Z"/>
            <path class="cls-6" d="M244.58,551.91v74.43H579.65V560.18a8.44,8.44,0,0,0-8.6-8.27Z"/>
            <path class="cls-6" d="M571.05,551.91l-8.59,27.64,43-27.64Z"/>
            <path class="cls-8" d="M579.65,563V689.68l-65.79-63.34Z"/>
            <path class="cls-8"
                  d="M336.13,626.34l-67.25,64.75a35.12,35.12,0,0,1-24.3,9.68A8.44,8.44,0,0,1,236,692.5V560.18a8.43,8.43,0,0,1,8.59-8.27,35,35,0,0,1,24.3,9.69Z"/>
            <path class="cls-8"
                  d="M614,560.18V692.5a8.43,8.43,0,0,1-8.59,8.27,35.13,35.13,0,0,1-24.31-9.68l-1.46-1.41-34.37-63.34L579.65,563l1.46-1.41a35.1,35.1,0,0,1,24.31-9.69,8.44,8.44,0,0,1,8.59,8.27Z"/>
        </g>
    </g>
</svg>