<svg xmlns="http://www.w3.org/2000/svg" viewBox="0 0 850 850">
    <defs>
        <style>.cls-1{fill:#fff;}.cls-2{fill:#9ea700;}.cls-3{fill:#b6bd40;}.cls-4{fill:#8e9600;}</style>
    </defs>
    <g id="Layer_2" data-name="Layer 2">
        <g id="Layer_1-2" data-name="Layer 1">
            <rect class="cls-1" width="850" height="850" rx="72.61"/>
            <path class="cls-2"
                  d="M664.27,309.31V570.48a28.79,28.79,0,0,1-28.63,28.63H213.11a28.77,28.77,0,0,1-28.63-28.63V309.31a28.71,28.71,0,0,1,28.63-28.63H635.64a28.73,28.73,0,0,1,28.63,28.63Z"/>
            <path class="cls-3"
                  d="M635.64,280.68H213.11a28.4,28.4,0,0,0-19.76,8L361.52,438.93l26.91,24a53.89,53.89,0,0,0,71.89,0l26.91-24L655.39,288.64a28.36,28.36,0,0,0-19.75-8Z"/>
            <path class="cls-4"
                  d="M656.39,590.11a28.18,28.18,0,0,1-20.75,9H213.11a28.22,28.22,0,0,1-20.76-9L361.52,438.93l26.91,24a53.89,53.89,0,0,0,71.89,0l26.91-24Z"/>
        </g>
    </g>
</svg>