<svg xmlns="http://www.w3.org/2000/svg" viewBox="0 0 850 850">
    <defs>
        <style>
            .cls-1{fill:#fff;}.cls-2,.cls-5{fill:#868e00;}.cls-3{fill:#9ea700;}.cls-4{fill:#bbc14d;}.cls-5{fill-rule:evenodd;}.cls-6{fill:#e2e5b3;}
        </style>
    </defs>
    <g id="Layer_2" data-name="Layer 2">
        <g id="Layer_1-2" data-name="Layer 1">
            <rect class="cls-1" width="850" height="850" rx="72.61"/>
            <path class="cls-2"
                  d="M425,443.63H368.69c-64.79,0-117.31,51.42-117.31,114.86v59.73c0,25.38,21,45.95,46.93,45.95H425Z"/>
            <path class="cls-3"
                  d="M425,443.63h56.31c64.79,0,117.31,51.42,117.31,114.86v59.73c0,25.38-21,45.95-46.93,45.95H425Z"/>
            <path class="cls-4"
                  d="M345.23,439.81A23.45,23.45,0,0,0,355,458.89l21.74,15.55a23.47,23.47,0,0,0,30-2.27l11.11-10.81a23.47,23.47,0,0,0-7.64-38.6L377.42,409.6a23.46,23.46,0,0,0-32.19,21.78Z"/>
            <path class="cls-4"
                  d="M504.77,439.81A23.45,23.45,0,0,1,495,458.89l-21.74,15.55a23.47,23.47,0,0,1-30-2.27l-11.11-10.81a23.47,23.47,0,0,1,7.64-38.6l32.85-13.16a23.46,23.46,0,0,1,32.19,21.78Z"/>
            <path class="cls-5"
                  d="M533.09,267.72c-16.59-58.52-73.69-93.58-127.54-78.31L389.3,194c-53.84,15.27-84.05,75.08-67.46,133.6A115.46,115.46,0,0,0,363.66,389a59,59,0,0,0,2.27,16.7c8.3,29.26,36.85,46.79,63.77,39.16,19.68-5.58,33-23.05,35.57-43.47l.36-.1C519.48,386,549.68,326.23,533.09,267.72Z"/>
            <path class="cls-6"
                  d="M326.46,342.72c0,58,45.17,105.6,100.89,105.6s100.88-47,100.88-105V316.72c0-30.38-27.43-52.67-55.73-45.29L357.22,301.51c-18.08,4.72-30.76,21.81-30.76,41.21Z"/>
        </g>
    </g>
</svg>