<svg xmlns="http://www.w3.org/2000/svg" viewBox="0 0 850 850">
    <defs>
        <style>
            .cls-1{fill:#fff;}.cls-2{fill:#d8dc99;}.cls-3{fill:#c2c68a;}.cls-4{fill:#9ea700;}.cls-5{fill:#bbc14d;}.cls-6{fill:#868e00;}
        </style>
    </defs>
    <g id="Layer_2" data-name="Layer 2">
        <g id="Layer_1-2" data-name="Layer 1">
            <rect class="cls-1" width="850" height="850" rx="72.61"/>
            <path class="cls-2" d="M271.85,217.5v415H425l44.73-179.86L425,217.5Z"/>
            <path class="cls-3" d="M425,217.5H578.15v415H425Z"/>
            <path class="cls-4" d="M342.6,577.94H425l25.11-18.86L425,540.22H342.6Z"/>
            <path class="cls-5"
                  d="M404.83,373.44l-25.94,14.31a70.81,70.81,0,0,0-36.29,62.19v39.6H425L450.11,437,425,373.44Z"/>
            <path class="cls-4" d="M507.28,449.94A70.81,70.81,0,0,0,471,387.75l-25.94-14.31H425v116.1h82.28Z"/>
            <path class="cls-4"
                  d="M374.79,338.83c0,28.33,22.52,51.38,50.21,51.38l25.11-50.84L425,287.45c-27.69,0-50.21,23.05-50.21,51.38Z"/>
            <path class="cls-6" d="M425,287.45V390.21c27.69,0,50.21-23,50.21-51.38S452.69,287.45,425,287.45Z"/>
            <path class="cls-6" d="M425,540.22h82.28v37.72H425Z"/>
        </g>
    </g>
</svg>