<svg xmlns="http://www.w3.org/2000/svg" viewBox="0 0 850 850">
    <defs>
        <style>.cls-1{fill:#fff;}.cls-2{fill:#bbc14d;}.cls-3{fill:#9ea700;}</style>
    </defs>
    <g id="Layer_2" data-name="Layer 2">
        <g id="Layer_1-2" data-name="Layer 1">
            <rect class="cls-1" width="850" height="850" rx="72.61"/>
            <path class="cls-2"
                  d="M359.45,655.55,309.3,605.4a16.42,16.42,0,0,1,0-23.22,29.33,29.33,0,0,0-41.48-41.48,16.42,16.42,0,0,1-23.22,0l-50.14-50.15a16.4,16.4,0,0,1,0-23.22L467.33,194.45a16.42,16.42,0,0,1,23.22,0l50.18,50.18c5.41,5.41,7.74,15.39-1.08,24.25a29.32,29.32,0,1,0,41.45,41.49c8.44-8.46,18.47-6.9,24.27-1.1l50.18,50.18a16.43,16.43,0,0,1,0,23.22L382.67,655.55A16.43,16.43,0,0,1,359.45,655.55Z"/>
            <path class="cls-3"
                  d="M655.55,359.45l-50.18-50.18c-5.8-5.8-15.83-7.36-24.26,1.1a29.32,29.32,0,0,1-41.48,0h0L309.3,540.7h0a29.32,29.32,0,0,1,0,41.48,16.42,16.42,0,0,0,0,23.22l50.15,50.15a16.42,16.42,0,0,0,23.22,0L655.55,382.67A16.43,16.43,0,0,0,655.55,359.45Z"/>
        </g>
    </g>
</svg>