<?xml version="1.0" encoding="UTF-8"?>
<svg id="Layer_2" data-name="Layer 2" xmlns="http://www.w3.org/2000/svg" viewBox="0 0 850 850">
    <defs>
        <style>
            .cls-1 {
            fill: #fff;
            }

            .cls-2 {
            fill: #9ea700;
            }

            .cls-3 {
            fill: #adb426;
            }

            .cls-4 {
            fill: #b6bd40;
            }

            .cls-5 {
            fill: #cacf73;
            }
        </style>
    </defs>
    <g id="Layer_1-2" data-name="Layer 1">
        <g>
            <rect class="cls-1" width="850" height="850" rx="72.61" ry="72.61"/>
            <g>
                <g>
                    <path class="cls-4"
                          d="m234.12,425c0-105.25,85.63-190.88,190.88-190.88l16.12-24.17-16.11-24.17c-131.91,0-239.22,107.31-239.22,239.22s107.31,239.22,239.22,239.22l16.11-26.31-16.11-22.03c-105.25,0-190.88-85.63-190.88-190.88h0Z"/>
                    <path class="cls-3"
                          d="m425,185.78v48.34c105.25,0,190.88,85.63,190.88,190.88s-85.63,190.88-190.88,190.88v48.34c131.91,0,239.22-107.31,239.22-239.22s-107.32-239.22-239.22-239.22h0Z"/>
                </g>
                <g>
                    <path class="cls-3"
                          d="m209.95,425c0,118.58,96.47,215.05,215.05,215.05l16.11-215.05-16.11-215.05c-118.58,0-215.05,96.47-215.05,215.05h0Z"/>
                    <path class="cls-2"
                          d="m425,209.95v430.11c118.58,0,215.05-96.47,215.05-215.05s-96.47-215.05-215.05-215.05h0Z"/>
                </g>
                <g>
                    <path class="cls-5"
                          d="m400.83,307.09v3.43c-2.08.62-4.15,1.34-6.21,2.19-20.75,8.61-35.03,25.4-39.19,46.06-4.11,20.46,2.66,41.98,18.1,57.57,13.64,13.76,27.77,18.66,44.13,24.32,2.38.83,4.82,1.67,7.33,2.57l16.11-24.91-16.11-26.35c-8.34-3.07-12.87-5.37-17.12-9.67-4.15-4.19-5.99-9.3-5.05-14.02.94-4.68,4.61-8.56,10.32-10.93,3.13-1.3,7.28-1.48,11.85-.9l16.11-33.4-16.11-40.15c-13.35,0-24.17,10.82-24.17,24.17h0Z"/>
                    <path class="cls-5"
                          d="m422.55,491.94c-11.2,0-23.78-3.97-33.65-10.61-11.08-7.45-26.1-4.52-33.55,6.56-7.45,11.07-4.52,26.1,6.56,33.55,11.65,7.84,25.16,13.48,38.92,16.45v5.03c0,13.35,10.82,24.17,24.17,24.17l16.12-44.94-16.11-30.28c-.8.05-1.62.07-2.45.07Z"/>
                    <g>
                        <path class="cls-4"
                              d="m448.83,400.49c-5.69-2.16-10.82-3.94-15.35-5.5-3.23-1.12-6.02-2.09-8.49-3.01v51.25c2.15.77,4.37,1.57,6.68,2.45,14.94,5.67,21.61,16.74,17.82,29.62-2.83,9.63-12.11,15.84-24.5,16.56v75.21c13.35,0,24.17-10.82,24.17-24.17v-6.9c22.57-7.55,40.11-24.61,46.71-47.06,11-37.39-8.35-73.77-47.04-88.45h0Z"/>
                        <path class="cls-4"
                              d="m451.61,365.99c11.51,6.76,26.32,2.91,33.08-8.6,6.76-11.51,2.91-26.32-8.6-33.08-4.67-2.75-14.51-8.01-26.92-11.87v-5.35c0-13.35-10.82-24.17-24.17-24.17v73.54c8.65,1.09,18.83,4.96,26.61,9.53Z"/>
                    </g>
                </g>
            </g>
        </g>
    </g>
</svg>