<svg xmlns="http://www.w3.org/2000/svg" viewBox="0 0 850 850">
    <defs>
        <style>.cls-1{fill:#fff;}.cls-2{fill:#9ea700;}.cls-3{fill:#868e00;}</style>
    </defs>
    <g id="Layer_2" data-name="Layer 2">
        <g id="Layer_1-2" data-name="Layer 1">
            <rect class="cls-1" width="850" height="850" rx="72.61"/>
            <path class="cls-2"
                  d="M388.39,657.18l181-311.67a9.8,9.8,0,0,0-9.8-14.64L439.2,347.23,468,196.2a4.91,4.91,0,0,0-8.73-3.88l-178,234.93a9.81,9.81,0,0,0,8.85,15.67l132.74-14L379.34,653.79A4.9,4.9,0,0,0,388.39,657.18Z"/>
            <path class="cls-3"
                  d="M336.92,410.6a4.06,4.06,0,0,1-3.76-6.2L466.22,191.49a4.84,4.84,0,0,0-7,.83l-178,234.93a9.81,9.81,0,0,0,8.85,15.67l132.74-14L379.34,653.79a4.76,4.76,0,0,0,3.85,5.68l74.57-236a16.35,16.35,0,0,0-16.89-21.22Z"/>
        </g>
    </g>
</svg>