<svg xmlns="http://www.w3.org/2000/svg" viewBox="0 0 850 850">
    <defs>
        <style>
            .cls-1{fill:#fff;}.cls-2{fill:#9ea700;}.cls-3{fill:#bbc14d;}.cls-4{fill:#777d00;}.cls-5{fill:#676d00;}.cls-6{fill:#575c00;}.cls-7{fill:#d8dc99;}
        </style>
    </defs>
    <g id="Layer_2" data-name="Layer 2">
        <g id="Layer_1-2" data-name="Layer 1">
            <rect class="cls-1" width="850" height="850" rx="72.61"/>
            <path class="cls-2"
                  d="M588.09,338.53H490.34L464.2,430l26.14,117.61h156.8V482.27l-8.71-13.07,8.71-13.07V412.35Z"/>
            <path class="cls-2" d="M607.94,456.13h39.2v26.14h-39.2Z"/>
            <path class="cls-2" d="M202.86,260.13V430l111.07,8.71L425,430l8.71-84.94L425,260.13Z"/>
            <path class="cls-3" d="M425,260.13h65.34V430H425Z"/>
            <path class="cls-4" d="M202.86,430V547.61H425l8.71-58.81L425,430Z"/>
            <path class="cls-5" d="M425,430h65.34V547.61H425Z"/>
            <circle class="cls-6" cx="307.39" cy="560.67" r="39.2"/>
            <circle class="cls-6" cx="555.67" cy="560.67" r="39.2"/>
            <path class="cls-7" d="M529.54,364.66v52.27h87.92l-41.93-52.27Z"/>
        </g>
    </g>
</svg>