<?xml version="1.0" encoding="UTF-8"?>
<svg id="Layer_2" data-name="Layer 2" xmlns="http://www.w3.org/2000/svg" viewBox="0 0 850 850">
    <defs>
        <style>
            .cls-1 {
            fill: #fff;
            }

            .cls-2 {
            fill: #bbc14d;
            }

            .cls-3 {
            fill: #9ea700;
            }

            .cls-4 {
            fill: #ce8900;
            }

            .cls-5 {
            fill: #868e00;
            }

            .cls-6 {
            fill: #cfd380;
            }
        </style>
    </defs>
    <g id="Layer_1-2" data-name="Layer 1">
        <g>
            <rect class="cls-1" y="0" width="850" height="850" rx="72.61" ry="72.61"/>
            <g id="Line">
                <path class="cls-2"
                      d="m423.66,310.63h1.35v187.17h-3.33c-35.29-.04-69.26,13.43-94.94,37.64l-28.39,26.83c-8.99,11.77-22.94,18.69-37.75,18.72h-14.66c-20.63.47-39.36-11.99-46.9-31.19-2.05-6.74-3-13.76-2.81-20.8,0-6.86.73-176.04,61.77-236.67,13.4-14.06,31.95-22.06,51.37-22.15h.62c32.03,0,54.38,7.9,70.29,24.02,11.64,11.11,27.28,17.03,43.36,16.43h0Z"/>
                <g>
                    <circle class="cls-4" cx="497.8" cy="383.42" r="20.8"/>
                    <circle class="cls-4" cx="528.99" cy="414.61" r="20.8"/>
                    <circle class="cls-4" cx="528.99" cy="352.22" r="20.8"/>
                    <circle class="cls-4" cx="560.19" cy="383.42" r="20.8"/>
                </g>
                <path class="cls-5"
                      d="m352.22,362.62h-20.8v-20.8c0-5.74-4.66-10.4-10.4-10.4s-10.4,4.66-10.4,10.4v20.8h-20.8c-5.74,0-10.4,4.66-10.4,10.4s4.66,10.4,10.4,10.4h20.8v20.8c0,5.74,4.66,10.4,10.4,10.4s10.4-4.66,10.4-10.4v-20.8h20.8c5.74,0,10.4-4.66,10.4-10.4s-4.66-10.4-10.4-10.4Z"/>
                <circle class="cls-3" cx="528.99" cy="352.22" r="20.8"/>
                <circle class="cls-3" cx="528.99" cy="414.61" r="20.8"/>
                <circle class="cls-3" cx="497.8" cy="383.42" r="20.8"/>
                <circle class="cls-3" cx="560.19" cy="383.42" r="20.8"/>
                <path class="cls-6"
                      d="m590.34,293.47c-14.68-15.53-35.09-24.36-56.46-24.44-23.81-.67-46.88,8.24-64.05,24.75-11.46,11.11-26.88,17.17-42.84,16.85h-1.98v187.17c32.04.75,62.84,12.58,87.14,33.48l40.45,34.83c8.79,9.44,21.1,14.82,34,14.87h18.92c16.11.28,31.3-7.53,40.45-20.8,5.18-9.58,7.86-20.31,7.8-31.19,0-7.28-.73-172.92-63.43-235.52Zm-61.35,37.95c11.49,0,20.8,9.31,20.8,20.8s-9.31,20.8-20.8,20.8-20.8-9.31-20.8-20.8,9.31-20.8,20.8-20.8Zm-51.99,51.99c0-11.49,9.31-20.8,20.8-20.8s20.8,9.31,20.8,20.8-9.31,20.8-20.8,20.8-20.8-9.31-20.8-20.8Zm51.99,51.99c-11.49,0-20.8-9.31-20.8-20.8s9.31-20.8,20.8-20.8,20.8,9.31,20.8,20.8-9.31,20.8-20.8,20.8Zm31.19-31.19c-11.49,0-20.8-9.31-20.8-20.8s9.31-20.8,20.8-20.8,20.8,9.31,20.8,20.8-9.31,20.8-20.8,20.8Z"/>
            </g>
        </g>
    </g>
</svg>