<svg xmlns="http://www.w3.org/2000/svg" viewBox="0 0 850 850">
    <defs>
        <style>
            .cls-1{fill:#fff;}.cls-2{fill:#ecb72b;}.cls-3{fill:#5085f7;}.cls-4{fill:#da2f2a;}.cls-5{fill:#4274eb;}.cls-6{fill:#60a850;}
        </style>
    </defs>
    <g id="Layer_2" data-name="Layer 2">
        <g id="Layer_1-2" data-name="Layer 1">
            <rect class="cls-1" width="850" height="850" rx="72.61"/>
            <path class="cls-2"
                  d="M467,398.6l-43.13,63.69-63.78,63.46c-23.72-30.14-49.62-59.35-65.41-94.67l34.37-52.66,52.73-50.87a55.48,55.48,0,0,0,82.41,74.07c1-1,1.92-2,2.81-3Z"/>
            <path class="cls-3"
                  d="M468,397.4a55.48,55.48,0,0,0-82.27-74.24c-.91.91-1.78,1.85-2.61,2.8l36.37-59.13L468.88,224a145.6,145.6,0,0,1,85,71.42l-36,58.05Z"/>
            <path class="cls-4"
                  d="M381.82,327.55,294.71,431.09a165.25,165.25,0,0,1-14.83-64.56c-.05-1.37-.07-2.75-.07-4.13a144.59,144.59,0,0,1,33.89-93.24Z"/>
            <path class="cls-5" d="M381.82,327.55l-68.13-58.39A145.37,145.37,0,0,1,468.89,224Z"/>
            <path class="cls-6"
                  d="M570.19,362.39a144.53,144.53,0,0,0-16.36-67L360.12,525.76c22,28,42.12,56.81,50.48,92.09.27,1.13.56,2.45.86,3.94,3,14.68,24.05,14.68,27.08,0,.31-1.49.6-2.81.87-3.94,22.28-94.07,128.09-142.14,130.72-251.32,0-1.37.06-2.76.06-4.14Z"/>
        </g>
    </g>
</svg>