<?xml version="1.0" encoding="UTF-8"?>
<svg id="Layer_2" data-name="Layer 2" xmlns="http://www.w3.org/2000/svg" viewBox="0 0 850 850">
    <defs>
        <style>
            .cls-1 {
            fill: #fff;
            }

            .cls-2 {
            fill: #00a94b;
            }

            .cls-3 {
            fill: #0085f7;
            }

            .cls-4 {
            fill: #ff4131;
            }

            .cls-5 {
            fill: #0067d5;
            }

            .cls-6 {
            fill: #ffbc00;
            }

            .cls-7 {
            fill: #00802e;
            }
        </style>
    </defs>
    <g id="Layer_1-2" data-name="Layer 1">
        <g>
            <rect class="cls-1" width="850" height="850" rx="72.61" ry="72.61"/>
            <g>
                <path id="Path" class="cls-3"
                      d="m365.71,480.44c-7.52-5.08-12.72-12.49-15.56-22.29l17.44-7.19c1.58,6.03,4.35,10.71,8.29,14.02,3.92,3.32,8.7,4.95,14.28,4.95s10.61-1.73,14.7-5.2c4.1-3.47,6.16-7.89,6.16-13.25s-2.16-9.95-6.48-13.42c-4.32-3.47-9.75-5.2-16.24-5.2h-10.08v-17.27h9.05c5.58,0,10.28-1.51,14.1-4.52s5.73-7.14,5.73-12.39c0-4.67-1.71-8.39-5.13-11.18-3.42-2.79-7.74-4.2-12.99-4.2s-9.2,1.36-12.21,4.1c-3.02,2.74-5.2,6.11-6.58,10.08l-17.27-7.19c2.29-6.48,6.48-12.21,12.64-17.17,6.16-4.95,14.02-7.44,23.57-7.44,7.06,0,13.42,1.36,19.05,4.1,5.63,2.74,10.05,6.53,13.25,11.36,3.19,4.85,4.78,10.28,4.78,16.31s-1.48,11.36-4.45,15.63c-2.97,4.27-6.61,7.54-10.93,9.83v1.03c5.7,2.39,10.35,6.03,14.02,10.93,3.64,4.9,5.48,10.76,5.48,17.59s-1.73,12.94-5.2,18.3c-3.47,5.35-8.27,9.58-14.35,12.64-6.11,3.07-12.97,4.62-20.58,4.62-8.82.02-16.96-2.51-24.48-7.59Z"/>
                <path id="Path-2" data-name="Path" class="cls-3"
                      d="m472.85,393.89l-19.15,13.85-9.58-14.53,34.36-24.78h13.17v116.89h-18.8v-91.43Z"/>
                <path id="Path-3" data-name="Path" class="cls-2"
                      d="m525.53,525.53h-201.06l-28.78,42.41,28.78,48.07h201.06l23.78-51.14-23.78-39.33Z"/>
                <path id="Path-4" data-name="Path" class="cls-3"
                      d="m525.53,233.99h-261.38c-16.66,0-30.16,13.5-30.16,30.16v261.38l45.24,32.16,45.24-32.16v-201.06h201.06l30.95-45.24-30.95-45.24Z"/>
                <path id="Path-5" data-name="Path" class="cls-7"
                      d="m233.99,525.53v60.32c0,16.66,13.5,30.16,30.16,30.16h60.32v-90.48h-90.48Z"/>
                <path id="Path-6" data-name="Path" class="cls-6"
                      d="m616.01,324.47l-45.24-29.11-45.24,29.11v201.06l40.69,21.24,49.79-21.24v-201.06Z"/>
                <path id="Path-7" data-name="Path" class="cls-5"
                      d="m616.01,324.47v-60.32c0-16.66-13.5-30.16-30.16-30.16h-60.32v90.48h90.48Z"/>
                <path id="Path-8" data-name="Path" class="cls-4" d="m525.53,616.01l90.48-90.48h-90.48v90.48Z"/>
            </g>
        </g>
    </g>
</svg>