<svg xmlns="http://www.w3.org/2000/svg" viewBox="0 0 850 850">
    <defs>
        <style>.cls-1{fill:#fff;}.cls-2{fill:#adb426;}.cls-3{fill:#9ea700;}.cls-4{fill:#8e9600;}.cls-5{fill:#969f00;}
        </style>
    </defs>
    <g id="Layer_2" data-name="Layer 2">
        <g id="Layer_1-2" data-name="Layer 1">
            <rect class="cls-1" width="850" height="850" rx="72.61"/>
            <path class="cls-2"
                  d="M320.14,363.83H232.76a17.48,17.48,0,0,0-17.47,17.48v87.38a17.48,17.48,0,0,0,17.47,17.48h87.38a17.49,17.49,0,0,0,17.48-17.48V381.31A17.49,17.49,0,0,0,320.14,363.83Z"/>
            <path class="cls-2"
                  d="M486.17,468.69V381.31a17.49,17.49,0,0,0-17.48-17.48H381.31a17.49,17.49,0,0,0-17.48,17.48v87.38a17.49,17.49,0,0,0,17.48,17.48h87.38A17.49,17.49,0,0,0,486.17,468.69Z"/>
            <path class="cls-2"
                  d="M486.17,320.14V232.76a17.48,17.48,0,0,0-17.48-17.47H381.31a17.48,17.48,0,0,0-17.48,17.47v87.38a17.49,17.49,0,0,0,17.48,17.48h87.38A17.49,17.49,0,0,0,486.17,320.14Z"/>
            <path class="cls-2"
                  d="M320.14,215.29H232.76a17.48,17.48,0,0,0-17.47,17.47v87.38a17.48,17.48,0,0,0,17.47,17.48h87.38a17.49,17.49,0,0,0,17.48-17.48V232.76A17.48,17.48,0,0,0,320.14,215.29Z"/>
            <path class="cls-2"
                  d="M215.29,529.86v87.38a17.48,17.48,0,0,0,17.47,17.47h87.38a17.48,17.48,0,0,0,17.48-17.47V529.86a17.49,17.49,0,0,0-17.48-17.48H232.76A17.48,17.48,0,0,0,215.29,529.86Z"/>
            <path class="cls-2"
                  d="M363.83,529.86v87.38a17.48,17.48,0,0,0,17.48,17.47h87.38a17.48,17.48,0,0,0,17.48-17.47V529.86a17.49,17.49,0,0,0-17.48-17.48H381.31A17.49,17.49,0,0,0,363.83,529.86Z"/>
            <path class="cls-3"
                  d="M512.38,486.17V617.24a17.47,17.47,0,0,0,17.48,17.47h87.38a17.47,17.47,0,0,0,17.47-17.47V381.31a17.47,17.47,0,0,0-17.47-17.48H529.86a17.47,17.47,0,0,0-17.48,17.48Z"/>
            <path class="cls-3"
                  d="M617.24,215.29H529.86a17.47,17.47,0,0,0-17.48,17.47v87.38a17.47,17.47,0,0,0,17.48,17.48h87.38a17.47,17.47,0,0,0,17.47-17.48V232.76A17.47,17.47,0,0,0,617.24,215.29Z"/>
            <path class="cls-4"
                  d="M573.55,363.83H529.86a17.47,17.47,0,0,0-17.48,17.48V617.24a17.47,17.47,0,0,0,17.48,17.47h43.69Z"/>
            <path class="cls-5"
                  d="M425,512.38H381.31a17.48,17.48,0,0,0-17.48,17.48v87.38a17.48,17.48,0,0,0,17.48,17.47H425Z"/>
            <path class="cls-5"
                  d="M425,363.83H381.31a17.48,17.48,0,0,0-17.48,17.48v87.38a17.48,17.48,0,0,0,17.48,17.48H425Z"/>
            <path class="cls-5"
                  d="M276.45,512.38H232.76a17.47,17.47,0,0,0-17.47,17.48v87.38a17.47,17.47,0,0,0,17.47,17.47h43.69Z"/>
            <path class="cls-5"
                  d="M276.45,363.83H232.76a17.47,17.47,0,0,0-17.47,17.48v87.38a17.47,17.47,0,0,0,17.47,17.48h43.69Z"/>
            <path class="cls-5"
                  d="M425,215.29H381.31a17.48,17.48,0,0,0-17.48,17.47v87.38a17.48,17.48,0,0,0,17.48,17.48H425Z"/>
            <path class="cls-5"
                  d="M276.45,215.29H232.76a17.47,17.47,0,0,0-17.47,17.47v87.38a17.47,17.47,0,0,0,17.47,17.48h43.69Z"/>
            <path class="cls-4"
                  d="M573.55,215.29H529.86a17.47,17.47,0,0,0-17.48,17.47v87.38a17.47,17.47,0,0,0,17.48,17.48h43.69Z"/>
        </g>
    </g>
</svg>