<?xml version="1.0" encoding="UTF-8"?>
<svg id="Layer_2" data-name="Layer 2" xmlns="http://www.w3.org/2000/svg" viewBox="0 0 850 850">
  <defs>
    <style>
      .cls-1 {
        fill: #fff;
      }

      .cls-2 {
        fill: #f3f4c3;
      }

      .cls-3 {
        fill: #9ea700;
      }

      .cls-4 {
        fill: #d8dc99;
      }
    </style>
  </defs>
  <g id="Layer_1-2" data-name="Layer 1">
    <g>
      <rect class="cls-1" y="0" width="850" height="850" rx="72.61" ry="72.61"/>
      <g id="Layer_16" data-name="Layer 16">
        <g>
          <path class="cls-4" d="m615.05,568.09l30.09-145.07,16.41-79.42c1.89-9.43-4.15-18.68-13.58-20.75l-327.5-67.82c-9.53-1.98-18.77,4.15-20.75,13.58l-16.51,79.42-30,145.07c-1.98,9.53,4.15,18.77,13.58,20.75l327.5,67.82c9.53,1.98,18.77-4.15,20.75-13.58Z"/>
          <path class="cls-2" d="m292.56,303.22l362.02,74.23-9.43,45.56-362.96-69.61,10.38-50.18Z"/>
          <path class="cls-3" d="m554.12,331.05H219.64c-9.72,0-17.54,7.83-17.54,17.54v229.21c0,9.72,7.83,17.54,17.54,17.54h334.48c9.72,0,17.54-7.83,17.54-17.54v-229.21c0-9.72-7.83-17.54-17.54-17.54Z"/>
          <path class="cls-4" d="m249.64,384.15c-.09-3.58,2.74-6.6,6.32-6.7h27.26c3.58.09,6.41,3.11,6.32,6.7v20.37c.09,3.58-2.64,6.51-6.23,6.6h-27.35c-3.58-.09-6.41-2.92-6.32-6.51v-20.47Z"/>
        </g>
      </g>
    </g>
  </g>
</svg>