<svg xmlns="http://www.w3.org/2000/svg" viewBox="0 0 850 850">
    <defs>
        <style>.cls-1{fill:#fff;}.cls-2{fill:#d8dc99;}.cls-3{fill:#bbc14d;}.cls-4{fill:#9ea700;}</style>
    </defs>
    <g id="Layer_2" data-name="Layer 2">
        <g id="Layer_1-2" data-name="Layer 1">
            <rect class="cls-1" width="850" height="850" rx="72.61"/>
            <path id="rect7729" class="cls-2"
                  d="M402.39,386.82,196.83,494.56c-14.73,7.36-16.16,37-1.6,45.17L396.67,645c19,9,39,9,56.66,0L654.77,539.73c14.56-8.14,13.13-37.81-1.6-45.17L447.61,386.82c-17.3-8.92-27.42-9-45.22,0Z"/>
            <path id="path7742" class="cls-3"
                  d="M402.39,301.92,196.83,409.66c-14.73,7.35-16.16,37-1.6,45.17L396.67,560.08c19,8.95,39,9,56.66,0L654.77,454.83c14.56-8.14,13.13-37.82-1.6-45.17L447.61,301.92c-17.3-8.93-27.42-9-45.22,0Z"/>
            <path id="path7746" class="cls-4"
                  d="M402.39,217,196.83,324.77c-14.73,7.35-16.16,37-1.6,45.16L396.67,475.19c19,8.95,39,9,56.66,0L654.77,369.93c14.56-8.13,13.13-37.81-1.6-45.16L447.61,217c-17.3-8.93-27.42-9-45.22,0Z"/>
        </g>
    </g>
</svg>