<svg xmlns="http://www.w3.org/2000/svg" viewBox="0 0 850 850">
    <defs>
        <style>.cls-1{fill:#fff;}.cls-2{fill:#9ea700;}.cls-3{fill:#868e00;}.cls-4{fill:#d8dc99;}.cls-5{fill:#aeaf75;}
        </style>
    </defs>
    <g id="Layer_2" data-name="Layer 2">
        <g id="Layer_1-2" data-name="Layer 1">
            <rect class="cls-1" width="850" height="850" rx="72.61"/>
            <path class="cls-2"
                  d="M496.47,496.47l40.61-61.54-40.61-10.46a111.85,111.85,0,0,0-27.13-43.81,110.26,110.26,0,0,0-43.81-27.13l-.53.53-49.48-1.95-22,1.42a110.26,110.26,0,0,0-43.81,27.13L244,446.41a112.83,112.83,0,0,0,0,159.44c45.22,45.23,116.69,42.92,159.61,0l65.75-65.58A111.89,111.89,0,0,0,496.47,496.47Zm-137.22,65a50.16,50.16,0,0,1-70.93-70.94l65.21-65,35.65,35.29L425,495.94Z"/>
            <path class="cls-3"
                  d="M469.34,540.27l-65.75,65.58c-42.92,42.92-114.39,45.22-159.61,0l44.34-44.34a50.12,50.12,0,0,0,70.93,0L425,495.94l-35.82-35.12,80.16-80.16a111.89,111.89,0,0,1,27.13,43.8l40.61,10.47-40.61,61.54A111.89,111.89,0,0,1,469.34,540.27Z"/>
            <path class="cls-4"
                  d="M606,244.14a112.87,112.87,0,0,0-159.61,0l-65.75,65.58a111.85,111.85,0,0,0-27.13,43.81,113.56,113.56,0,0,0,0,72,112.63,112.63,0,0,0,70.94,70.94l.53-.53A50.31,50.31,0,0,0,425,425a50.31,50.31,0,0,1,0-70.94l65.75-65.58a49.28,49.28,0,0,1,35.47-14.54c.35-.36,3.36-.18,4.08.17,9.57,0,22.16,5.15,31.38,14.37a50.31,50.31,0,0,1,0,70.94l-65.21,65a113.59,113.59,0,0,1,0,72,114.36,114.36,0,0,0,43.81-27.14L606,403.76A113,113,0,0,0,606,244.14Z"/>
            <path class="cls-5"
                  d="M425,495.94l-.53.53a111.81,111.81,0,0,1-43.81-27.14L425,425A50.31,50.31,0,0,1,425,495.94Z"/>
            <path class="cls-5"
                  d="M606,403.76l-65.74,65.57a114.36,114.36,0,0,1-43.81,27.14,113.69,113.69,0,0,0,0-72l65.21-65.05a50.31,50.31,0,0,0,0-70.94L606,244.14A113,113,0,0,1,606,403.76Z"/>
        </g>
    </g>
</svg>