<svg xmlns="http://www.w3.org/2000/svg" viewBox="0 0 850 850">
    <defs>
        <style>.cls-1{fill:#fff;}.cls-2{fill:#bbc14d;}.cls-3{fill:#9ea700;}.cls-4{fill:#cfd380;}.cls-5{fill:#b1b933;}
        </style>
    </defs>
    <g id="Layer_2" data-name="Layer 2">
        <g id="Layer_1-2" data-name="Layer 1">
            <rect class="cls-1" width="850" height="850" rx="72.61"/>
            <path class="cls-2" d="M624.14,518.67v12.89H225.86V518.67a199.14,199.14,0,1,1,398.28,0Z"/>
            <path class="cls-3" d="M624.14,518.67v12.89H425v-212A199.12,199.12,0,0,1,624.14,518.67Z"/>
            <path class="cls-4" d="M463.17,307.12A38.17,38.17,0,1,1,425,269,38.21,38.21,0,0,1,463.17,307.12Z"/>
            <rect class="cls-4" x="205.14" y="505.79" width="439.71" height="59.26"/>
            <path class="cls-5" d="M425,345.3V269a38.17,38.17,0,1,1,0,76.34Z"/>
            <rect class="cls-5" x="425" y="505.79" width="219.86" height="59.26"/>
        </g>
    </g>
</svg>