<?xml version="1.0" encoding="UTF-8"?>
<svg id="Layer_2" data-name="Layer 2" xmlns="http://www.w3.org/2000/svg" viewBox="0 0 850 850">
    <defs>
        <style>
            .cls-1 {
            fill: #fff;
            }

            .cls-2 {
            fill-rule: evenodd;
            }

            .cls-2, .cls-3 {
            fill: #0072c6;
            }

            .cls-4 {
            fill: none;
            }
        </style>
    </defs>
    <g id="Layer_1-2" data-name="Layer 1">
        <g>
            <rect class="cls-1" width="850" height="850" rx="72.61" ry="72.61"/>
            <g id="Layer_1-3" data-name="Layer_1">
                <g>
                    <path class="cls-3"
                          d="m470.62,398.89v-82.8h139.08s0-.01,0-.01c3.87,0,9.18,2.67,12.95,7.1,2.95,3.47,5.11,8.07,5.11,13.38v2.29l-1.9,1.28-118.06,79.6-1.11.54c-.79.25-1.82.37-2.77.37s-1.95-.12-2.74-.35l-1.1-.49-27.43-17.28-2.02-1.27v-2.37h0Z"/>
                    <path class="cls-3"
                          d="m477.36,413.62l25.04,17.2.12.08c1.08.79,2.67-.03,2.98-.2l115.59-77,6.69-4.46v152.32c0,8.51-2.64,14.84-6.85,19.23-4.86,5.07-11.67,7.38-18.82,7.38h-131.5v-4.31s0-106.68,0-106.68v-4.31h4.33l2.43.76h0Z"/>
                    <path class="cls-3"
                          d="m345.45,375.94c-4.32,0-8.16.99-11.52,2.97-3.47,2.05-6.53,5.18-9.17,9.4h0c-2.77,4.42-4.87,9.65-6.3,15.68-1.46,6.15-2.19,13.1-2.19,20.85s.73,14.88,2.19,21.02c1.42,5.97,3.51,11.11,6.29,15.4,2.65,4.11,5.65,7.15,9.01,9.13,3.23,1.9,6.88,2.85,10.96,2.85v.02c4.25,0,8.04-.94,11.35-2.83,3.37-1.91,6.34-4.85,8.91-8.8,2.7-4.15,4.74-9.19,6.13-15.11,1.43-6.08,2.14-13.09,2.14-21s-.7-15.63-2.09-22c-1.35-6.17-3.34-11.4-5.99-15.7-2.5-4.07-5.39-7.08-8.68-9.04-3.2-1.91-6.88-2.86-11.03-2.86v.02h0Z"/>
                </g>
                <path class="cls-2"
                      d="m464.48,625.62V219.08l-5.12.99-233.63,45.22-3.51.68v314.16l3.44.72,233.63,48.98,5.19,1.09v-5.3h0Zm-118.5-275.14c8.4,0,16.03,1.73,22.87,5.19,6.82,3.45,12.81,8.6,17.97,15.45h0c5.09,6.74,8.9,14.53,11.42,23.36,2.49,8.71,3.74,18.43,3.74,29.16h-.02c0,11.01-1.28,20.99-3.86,29.94-2.62,9.08-6.56,17.09-11.82,24.01-5.35,7.04-11.53,12.33-18.56,15.88-7.06,3.56-14.89,5.35-23.5,5.35v-.02c-8.44,0-16.1-1.72-22.99-5.16-6.88-3.44-12.96-8.57-18.25-15.39-5.2-6.73-9.1-14.45-11.69-23.17-2.56-8.62-3.84-18.18-3.84-28.69,0-11.07,1.29-21.12,3.88-30.15,2.61-9.13,6.56-17.21,11.84-24.24,5.36-7.14,11.62-12.51,18.76-16.11,7.18-3.61,15.19-5.42,24.02-5.42v.02h0Z"/>
            </g>
            <path class="cls-4" d="m81.58,107.14h552.25v552.25H81.58V107.14Z"/>
        </g>
    </g>
</svg>