<svg xmlns="http://www.w3.org/2000/svg" viewBox="0 0 850 850">
    <defs>
        <style>.cls-1{fill:#fff;}.cls-2{fill:#8e9600;}.cls-3{fill:#d8dc99;}.cls-4{fill:#b1b933;}.cls-5{fill:#9ea700;}
        </style>
    </defs>
    <g id="Layer_2" data-name="Layer 2">
        <g id="Layer_1-2" data-name="Layer 1">
            <rect class="cls-1" width="850" height="850" rx="72.61"/>
            <path class="cls-2"
                  d="M620.92,394.43l-52.85-46.24a6.6,6.6,0,0,0-11,5v79a6.6,6.6,0,0,0,6.61,6.6,6.54,6.54,0,0,0,3.47-1L620.05,405a6.6,6.6,0,0,0,2.14-9.09,6.78,6.78,0,0,0-1.27-1.5Z"/>
            <path class="cls-2"
                  d="M289,347.15a6.58,6.58,0,0,0-7.08,1l-52.85,46.24a6.61,6.61,0,0,0-.63,9.32A6.78,6.78,0,0,0,230,405l52.84,32.76a6.61,6.61,0,0,0,10.09-5.61v-79A6.59,6.59,0,0,0,289,347.15Z"/>
            <path class="cls-3"
                  d="M563.72,226H286.28a6.35,6.35,0,0,0-6.61,6.06V437.81a6,6,0,0,0,3.12,5.15l97.7,55.55a7.1,7.1,0,0,0,7.7-.49L425,470.09,461.81,498a7.1,7.1,0,0,0,7.69.48L567.2,443a6,6,0,0,0,3.13-5.16V232.06a6.35,6.35,0,0,0-6.61-6.06Z"/>
            <path class="cls-4"
                  d="M619.78,393.63a6.59,6.59,0,0,0-6.7.16l-52.84,32.76a6.51,6.51,0,0,0-.68.49l-93,57.65-37.37-30.92a6.61,6.61,0,0,0-8.42,0L383.42,484.7l-93-57.65a6.72,6.72,0,0,0-.69-.5l-52.85-32.76a6.6,6.6,0,0,0-10.08,5.61v218a6.6,6.6,0,0,0,6.6,6.61H616.57a6.6,6.6,0,0,0,6.6-6.61v-218a6.6,6.6,0,0,0-3.39-5.77Z"/>
            <path class="cls-5"
                  d="M383.42,484.69,226.83,614.26v3.13a6.6,6.6,0,0,0,6.6,6.61H616.57a6.6,6.6,0,0,0,6.6-6.61v-3.12L466.58,484.69h0l-37.37-30.92a6.61,6.61,0,0,0-8.42,0L383.42,484.7Z"/>
        </g>
    </g>
</svg>