<?xml version="1.0" encoding="UTF-8"?>
<svg id="Layer_2" data-name="Layer 2" xmlns="http://www.w3.org/2000/svg" viewBox="0 0 850 850">
    <defs>
        <style>
            .cls-1 {
            fill: #fff;
            }

            .cls-2 {
            fill: #9ea700;
            }

            .cls-3 {
            fill: #d8dc99;
            }
        </style>
    </defs>
    <g id="Layer_1-2" data-name="Layer 1">
        <g>
            <rect class="cls-1" width="850" height="850" rx="72.61" ry="72.61"/>
            <g>
                <path class="cls-2"
                      d="m425,317.5c-5.97,0-10.81-4.84-10.81-10.81v-45.03c0-5.97,4.84-10.81,10.81-10.81s10.81,4.84,10.81,10.81v45.03c0,5.97-4.84,10.81-10.81,10.81Z"/>
                <path class="cls-2"
                      d="m545.8,584.32h-241.61c-18.68,0-33.83-15.14-33.83-33.83v-209.98c0-18.68,15.14-33.83,33.83-33.83h241.61c18.68,0,33.83,15.14,33.83,33.83v209.98c0,18.68-15.14,33.83-33.83,33.83Z"/>
                <g>
                    <circle class="cls-1" cx="484.3" cy="417.83" r="27.67"/>
                    <circle class="cls-1" cx="365.7" cy="417.83" r="27.67"/>
                </g>
                <g>
                    <circle class="cls-3" cx="425" cy="232.67" r="28.99"/>
                    <path class="cls-3"
                          d="m599.39,502.89h-19.76v-114.76h19.76c18.04,0,32.66,14.62,32.66,32.66v49.44c0,18.04-14.62,32.66-32.66,32.66Z"/>
                    <path class="cls-3"
                          d="m250.61,502.89h19.76v-114.76h-19.76c-18.04,0-32.66,14.62-32.66,32.66v49.44c0,18.04,14.62,32.66,32.66,32.66Z"/>
                </g>
            </g>
        </g>
    </g>
</svg>