<svg xmlns="http://www.w3.org/2000/svg" viewBox="0 0 850 850"><defs><style>.cls-1{fill:#fff;}.cls-2{fill:#9ea700;}.cls-3{fill:#868e00;}.cls-4{fill:#d8dc99;}.cls-5{fill:#c2c68a;}</style></defs><g id="Layer_2" data-name="Layer 2"><g id="Layer_1-2" data-name="Layer 1"><rect class="cls-1" width="850" height="850" rx="72.61"/><circle class="cls-2" cx="425" cy="425" r="178"/><path class="cls-3" d="M603,425A178,178,0,0,1,425,603V247A177.94,177.94,0,0,1,603,425Z"/><path class="cls-4" d="M508.42,366.62a22.25,22.25,0,0,0-31.47,0L425,418.57l-21.32,21.31-28.76-28.77a22.25,22.25,0,0,0-31.47,31.47l44.5,44.5a22.23,22.23,0,0,0,31.46,0l5.59-5.59,83.41-83.41a22.23,22.23,0,0,0,0-31.46Z"/><path class="cls-5" d="M508.42,366.62a22.25,22.25,0,0,0-31.47,0L425,418.57v62.92l83.42-83.41A22.24,22.24,0,0,0,508.42,366.62Z"/></g></g></svg>