<svg xmlns="http://www.w3.org/2000/svg" viewBox="0 0 850 850">
    <defs>
        <style>.cls-1{fill:#fff;}.cls-2{fill:#777d00;}.cls-3{fill:#bbc14d;}.cls-4{fill:#9ea700;}</style>
    </defs>
    <g id="Layer_2" data-name="Layer 2">
        <g id="Layer_1-2" data-name="Layer 1">
            <rect class="cls-1" width="850" height="850" rx="72.61"/>
            <path class="cls-2"
                  d="M526.07,357.62H475.54V307.08a8.43,8.43,0,0,0-8.43-8.42H382.89a8.43,8.43,0,0,0-8.43,8.42v50.54H323.93V307.08a59,59,0,0,1,59-59h84.22a59,59,0,0,1,59,59Z"/>
            <path class="cls-3" d="M425,503.53,222.86,407.28v-16a59,59,0,0,1,59-59H568.18a59,59,0,0,1,59,59v16Z"/>
            <path class="cls-4"
                  d="M568.18,601.88H281.82a59,59,0,0,1-59-59V399.73L425,467.11l202.14-67.38V542.92A59,59,0,0,1,568.18,601.88Z"/>
        </g>
    </g>
</svg>