<svg xmlns="http://www.w3.org/2000/svg" viewBox="0 0 850 850"><defs><style>.cls-1{fill:#fff;}.cls-2{fill:#9ea700;}.cls-3{fill:#d8dc99;}</style></defs><g id="Layer_2" data-name="Layer 2"><g id="Layer_1-2" data-name="Layer 1"><rect class="cls-1" width="850" height="850" rx="72.61"/><g id="Layer_2-2" data-name="Layer 2"><g id="Social_Icon" data-name="Social Icon"><g id="User"><circle class="cls-2" cx="425" cy="425" r="196.32"/><path class="cls-3" d="M546.74,506.18a19.4,19.4,0,0,1-3.93,17,153.38,153.38,0,0,1-235.62,0,19.4,19.4,0,0,1-3.93-17,125.44,125.44,0,0,1,44.14-68.5,19,19,0,0,1,23-.33c14.57,10.84,33.67,17.4,54.56,17.4s40-6.56,54.56-17.4a19,19,0,0,1,23,.33A125.46,125.46,0,0,1,546.74,506.18Z"/><circle class="cls-3" cx="425" cy="358.97" r="70.47"/></g></g></g></g></g></svg>