<svg xmlns="http://www.w3.org/2000/svg" viewBox="0 0 850 850">
    <defs>
        <style>
            .cls-1{fill:#fff;}.cls-2{fill:#9ea700;}.cls-3{fill:#64afe1;}.cls-4{fill:#d8dc99;}.cls-5{fill:#8c8f63;}.cls-6{fill:#c2c68a;}.cls-7{fill:#a4a574;}.cls-8{fill:#c9c936;}.cls-9{fill:#868e00;}
        </style>
    </defs>
    <g id="Layer_2" data-name="Layer 2">
        <g id="Layer_1-2" data-name="Layer 1">
            <rect class="cls-1" width="850" height="850" rx="72.61"/>
            <path class="cls-2"
                  d="M565.42,389.51l-95-95a35.11,35.11,0,0,0-24.83-10.29H249.48V424.61a52.66,52.66,0,0,0,52.66,52.66H565.42Z"/>
            <path class="cls-3"
                  d="M337.24,556.25V363.18a35.1,35.1,0,0,1,35.1-35.1H653.18a35.09,35.09,0,0,1,35.1,35.1V556.25a35.1,35.1,0,0,1-35.1,35.11H372.34A35.11,35.11,0,0,1,337.24,556.25Z"/>
            <path class="cls-4"
                  d="M337.24,552.07V367c0-21.51,15.72-38.95,35.1-38.95H653.18c19.39,0,35.1,17.44,35.1,38.95v185c0,21.52-15.71,39-35.1,39H372.34C353,591,337.24,573.59,337.24,552.07Z"/>
            <path class="cls-5" d="M688.28,363.18v52.66h-351V363.18Z"/>
            <path class="cls-6"
                  d="M585.48,529.92c0-14.67,7.95-26.56,17.77-26.56h23.69c9.82,0,17.77,11.89,17.77,26.56s-8,26.57-17.77,26.57H603.25C593.43,556.49,585.48,544.59,585.48,529.92Z"/>
            <path class="cls-7"
                  d="M556.64,529.92c0-14.54,7.85-26.32,17.54-26.32h23.38c9.68,0,17.54,11.78,17.54,26.32s-7.86,26.33-17.54,26.33H574.18C564.49,556.25,556.64,544.47,556.64,529.92Z"/>
            <path class="cls-8"
                  d="M400.18,294.48,482.8,377.1a17.56,17.56,0,0,1,0,24.82l-3,3a52.67,52.67,0,0,1-74.47,0l-33-33h-70.2a52.66,52.66,0,0,1-52.66-52.66V284.19H375.35A35.1,35.1,0,0,1,400.18,294.48Z"/>
            <path class="cls-2" d="M249.48,284.19V424.61H214.37V284.19Z"/>
            <path class="cls-8"
                  d="M161.72,442.16V266.64h35.1a17.55,17.55,0,0,1,17.55,17.55V424.61a17.54,17.54,0,0,1-17.55,17.55Z"/>
            <path class="cls-9" d="M214.37,354.4v70.21a17.54,17.54,0,0,1-17.55,17.55h-35.1V354.4Z"/>
        </g>
    </g>
</svg>