<?xml version="1.0" encoding="UTF-8"?>
<svg id="Layer_2" data-name="Layer 2" xmlns="http://www.w3.org/2000/svg" xmlns:xlink="http://www.w3.org/1999/xlink" viewBox="0 0 850 850">
  <defs>
    <style>
      .cls-1 {
        fill: url(#linear-gradient-2);
      }

      .cls-2 {
        fill: #fff;
      }

      .cls-3 {
        fill: #0364b8;
      }

      .cls-4 {
        fill: #50d9ff;
      }

      .cls-5, .cls-6 {
        fill: #0a2767;
      }

      .cls-7 {
        fill: #1490df;
      }

      .cls-8 {
        fill: #28a8ea;
      }

      .cls-9 {
        opacity: .2;
      }

      .cls-9, .cls-10, .cls-6, .cls-11 {
        isolation: isolate;
      }

      .cls-10 {
        opacity: .05;
      }

      .cls-12 {
        fill: #14447d;
      }

      .cls-6 {
        opacity: .5;
      }

      .cls-11 {
        opacity: .1;
      }

      .cls-13 {
        fill: #0078d4;
      }

      .cls-14 {
        fill: url(#linear-gradient);
      }
    </style>
    <linearGradient id="linear-gradient" x1="463.77" y1="-13279.04" x2="463.77" y2="-13456.74" gradientTransform="translate(0 -12844.69) scale(1 -1)" gradientUnits="userSpaceOnUse">
      <stop offset="0" stop-color="#35b8f1"/>
      <stop offset="1" stop-color="#28a8ea"/>
    </linearGradient>
    <linearGradient id="linear-gradient-2" x1="251.66" y1="-13153.42" x2="385.93" y2="-13385.96" gradientTransform="translate(0 -12844.69) scale(1 -1)" gradientUnits="userSpaceOnUse">
      <stop offset="0" stop-color="#1784d9"/>
      <stop offset=".5" stop-color="#107ad5"/>
      <stop offset="1" stop-color="#0a63c9"/>
    </linearGradient>
  </defs>
  <g id="Layer_1-2" data-name="Layer 1">
    <g>
      <rect class="cls-2" width="850" height="850" rx="72.61" ry="72.61"/>
      <g>
        <path class="cls-5" d="m618.07,434.35c.02-3.14-1.6-6.07-4.28-7.71h-.05l-.16-.09-139.36-82.49c-.6-.41-1.23-.78-1.87-1.12-5.38-2.77-11.77-2.77-17.15,0-.64.34-1.27.71-1.87,1.12l-139.36,82.48-.16.09c-4.26,2.65-5.56,8.25-2.91,12.5.78,1.26,1.85,2.3,3.13,3.05l139.35,82.49c.6.4,1.23.78,1.87,1.12,5.38,2.77,11.77,2.77,17.15,0,.64-.34,1.26-.71,1.87-1.12l139.35-82.49c2.79-1.62,4.48-4.61,4.45-7.83Z"/>
        <path class="cls-3" d="m330.23,379.28h91.45v83.82h-91.45v-83.82Zm269.14-85.21v-38.35c.22-9.59-7.37-17.54-16.96-17.77h-237.31c-9.59.23-17.18,8.18-16.96,17.77v38.35l140.28,37.41,130.94-37.41Z"/>
        <path class="cls-13" d="m328.15,294.06h93.52v84.17h-93.52v-84.17Z"/>
        <path class="cls-8" d="m515.19,294.06h-93.52v84.17l93.52,84.17h84.17v-84.16l-84.17-84.18Z"/>
        <path class="cls-13" d="m421.67,378.24h93.52v84.17h-93.52v-84.17Z"/>
        <path class="cls-3" d="m421.67,462.41h93.52v84.17h-93.52v-84.17Z"/>
        <path class="cls-12" d="m330.23,463.1h91.45v76.2h-91.45v-76.2Z"/>
        <path class="cls-13" d="m515.19,462.41h84.17v84.17h-84.17v-84.17Z"/>
        <path class="cls-14" d="m613.79,441.68l-.18.09-139.35,78.37c-.6.38-1.23.73-1.87,1.04-2.36,1.12-4.94,1.77-7.56,1.87l-7.61-4.45c-.64-.32-1.26-.68-1.87-1.08l-141.22-80.6h-.06l-4.62-2.58v158.66c.07,10.59,8.71,19.11,19.29,19.04h270.34c.16,0,.3-.08.47-.08,2.24-.14,4.44-.6,6.54-1.37.91-.38,1.79-.84,2.63-1.37.63-.35,1.7-1.13,1.7-1.13,4.79-3.54,7.63-9.14,7.65-15.1v-158.65c0,3.03-1.65,5.83-4.29,7.32Z"/>
        <path class="cls-6" d="m610.59,433.73v9.72l-145.71,100.33-150.85-106.77c0-.05-.04-.09-.09-.09h0l-13.84-8.33v-7.01l5.7-.09,12.06,6.92.28.09,1.03.65s141.78,80.9,142.16,81.08l5.43,3.18c.47-.19.93-.38,1.5-.56.28-.19,140.75-79.21,140.75-79.21l1.58.09Z"/>
        <path class="cls-7" d="m613.79,441.68l-.18.1-139.35,78.37c-.6.38-1.23.73-1.87,1.04-5.41,2.65-11.74,2.65-17.15,0-.64-.31-1.26-.67-1.87-1.04l-139.35-78.37-.16-.1c-2.69-1.46-4.37-4.27-4.41-7.32v158.65c.07,10.58,8.7,19.11,19.28,19.04h270.06c10.58.07,19.22-8.46,19.28-19.04h0v-158.65c0,3.03-1.65,5.83-4.29,7.32Z"/>
        <path class="cls-11" d="m476.29,519l-2.09,1.17c-.6.38-1.23.74-1.87,1.06-2.3,1.13-4.8,1.79-7.35,1.95l53.02,62.7,92.49,22.28c2.54-1.92,4.55-4.43,5.87-7.32l-140.06-81.84Z"/>
        <path class="cls-10" d="m485.74,513.68l-11.53,6.48c-.6.38-1.23.74-1.87,1.06-2.3,1.13-4.8,1.79-7.35,1.95l24.84,68.48,120.69,16.47c4.75-3.57,7.56-9.17,7.56-15.11v-2.05l-132.33-77.28Z"/>
        <path class="cls-8" d="m328.99,612.05h269.77c4.16.02,8.2-1.29,11.55-3.74l-153.1-89.68c-.64-.32-1.26-.68-1.87-1.08l-141.22-80.6h-.06l-4.61-2.6v158.11c0,10.8,8.74,19.57,19.55,19.58h0Z"/>
        <path class="cls-11" d="m440.38,329.91v199.49c-.02,6.99-4.27,13.28-10.75,15.9-2.01.86-4.17,1.31-6.36,1.31h-113.82v-224.48h18.7v-9.35h95.11c9.46.03,17.1,7.69,17.12,17.14Z"/>
        <path class="cls-9" d="m431.02,339.27v199.49c.02,2.26-.46,4.49-1.41,6.54-2.6,6.4-8.8,10.6-15.71,10.64h-104.47v-233.81h104.47c2.71-.02,5.39.65,7.76,1.96,5.73,2.89,9.35,8.77,9.35,15.18Z"/>
        <path class="cls-9" d="m431.02,339.27v180.78c-.05,9.44-7.67,17.1-17.12,17.18h-104.47v-215.1h104.47c2.71-.02,5.39.65,7.76,1.96,5.73,2.89,9.35,8.77,9.35,15.18Z"/>
        <path class="cls-9" d="m421.67,339.27v180.78c0,9.46-7.66,17.13-17.12,17.18h-95.11v-215.1h95.11c9.46,0,17.12,7.67,17.12,17.13v.02Z"/>
        <path class="cls-1" d="m233.07,322.12h171.46c9.46,0,17.15,7.67,17.15,17.15v171.46c0,9.46-7.67,17.15-17.15,17.15h-171.46c-9.47,0-17.15-7.68-17.15-17.15v-171.46c0-9.46,7.67-17.15,17.15-17.15Z"/>
        <path class="cls-2" d="m269.5,394.02c4.23-9,11.04-16.53,19.58-21.63,9.46-5.41,20.23-8.11,31.11-7.8,10.09-.22,20.05,2.34,28.79,7.4,8.22,4.9,14.84,12.08,19.05,20.67,4.59,9.46,6.88,19.88,6.68,30.4.22,10.99-2.13,21.88-6.87,31.8-4.31,8.9-11.15,16.33-19.64,21.39-9.08,5.22-19.41,7.84-29.87,7.6-10.31.25-20.49-2.34-29.43-7.49-8.29-4.91-14.99-12.1-19.31-20.7-4.62-9.32-6.94-19.63-6.75-30.03-.19-10.89,2.09-21.69,6.66-31.59Zm20.87,50.79c2.25,5.69,6.07,10.63,11.02,14.23,5.03,3.52,11.07,5.33,17.21,5.18,6.54.26,12.99-1.62,18.37-5.35,4.89-3.6,8.6-8.55,10.7-14.23,2.35-6.35,3.5-13.09,3.42-19.86.07-6.83-1.01-13.64-3.22-20.11-1.95-5.84-5.55-11-10.36-14.83-5.25-3.9-11.67-5.89-18.21-5.61-6.28-.16-12.44,1.67-17.61,5.23-5.03,3.62-8.92,8.6-11.22,14.36-5.11,13.19-5.14,27.81-.08,41.01l-.02-.03Z"/>
        <path class="cls-4" d="m515.19,294.06h84.17v84.17h-84.17v-84.17Z"/>
      </g>
    </g>
  </g>
</svg>