<?xml version="1.0" encoding="UTF-8"?>
<svg id="Layer_2" data-name="Layer 2" xmlns="http://www.w3.org/2000/svg" viewBox="0 0 850 850">
  <defs>
    <style>
      .cls-1 {
        fill: #fff;
      }

      .cls-2 {
        fill: #9ea700;
      }

      .cls-3 {
        fill: #8e8e02;
      }

      .cls-4 {
        fill: #d8dc99;
      }

      .cls-5 {
        fill: #c2c68a;
      }
    </style>
  </defs>
  <g id="Layer_1-2" data-name="Layer 1">
    <g>
      <rect class="cls-1" y="0" width="850" height="850" rx="72.61" ry="72.61"/>
      <g>
        <path class="cls-4" d="m185.55,362.37v125.27c0,5.32,4.31,9.64,9.64,9.64h459.63c5.32,0,9.64-4.31,9.64-9.64v-125.27c0-5.32-4.31-9.64-9.64-9.64H195.19c-5.32,0-9.64,4.31-9.64,9.64h0Z"/>
        <path class="cls-5" d="m654.81,352.73h-21.2c5.32,0,9.64,4.31,9.64,9.64v125.27c0,5.32-4.31,9.64-9.64,9.64h21.2c5.32,0,9.64-4.31,9.64-9.64v-125.27c0-5.32-4.31-9.64-9.64-9.64h0Z"/>
        <g>
          <path class="cls-2" d="m376.4,468.58h-46.01c-3.87,0-7.02-3.14-7.02-7.02s3.14-7.02,7.02-7.02h46.01c3.87,0,7.02,3.14,7.02,7.02s-3.14,7.02-7.02,7.02Z"/>
          <path class="cls-2" d="m469.21,468.58h-46.01c-3.87,0-7.02-3.14-7.02-7.02s3.14-7.02,7.02-7.02h46.01c3.88,0,7.02,3.14,7.02,7.02s-3.14,7.02-7.02,7.02Z"/>
          <path class="cls-2" d="m562.01,468.58h-46.01c-3.88,0-7.02-3.14-7.02-7.02s3.14-7.02,7.02-7.02h46.01c3.88,0,7.02,3.14,7.02,7.02s-3.14,7.02-7.02,7.02Z"/>
        </g>
        <path class="cls-2" d="m316.12,320.37v-22.16c0-1.6-1.29-2.89-2.89-2.89h-76.37c-1.6,0-2.89,1.29-2.89,2.89v22.16c0,1.6,1.29,2.89,2.89,2.89h21.32c1.6,0,2.89,1.29,2.89,2.89v197.69c0,1.6-1.29,2.89-2.89,2.89h-21.32c-1.6,0-2.89,1.29-2.89,2.89v22.16c0,1.6,1.29,2.89,2.89,2.89h76.37c1.6,0,2.89-1.29,2.89-2.89v-22.16c0-1.6-1.29-2.89-2.89-2.89h-21.32c-1.6,0-2.89-1.29-2.89-2.89v-197.69c0-1.6,1.29-2.89,2.89-2.89h21.32c1.6,0,2.89-1.29,2.89-2.89h0Z"/>
        <g>
          <path class="cls-3" d="m313.23,295.32h-18.31c1.6,0,2.89,1.29,2.89,2.89v22.16c0,1.6-1.29,2.89-2.89,2.89h18.31c1.6,0,2.89-1.29,2.89-2.89v-22.16c0-1.6-1.29-2.89-2.89-2.89Z"/>
          <path class="cls-3" d="m291.91,323.26h-18.31c-1.6,0-2.89,1.29-2.89,2.89v197.69c0,1.6,1.29,2.89,2.89,2.89h18.31c-1.6,0-2.89-1.29-2.89-2.89v-197.69c0-1.6,1.29-2.89,2.89-2.89Z"/>
          <path class="cls-3" d="m313.23,526.74h-18.31c1.6,0,2.89,1.29,2.89,2.89v22.16c0,1.6-1.29,2.89-2.89,2.89h18.31c1.6,0,2.89-1.29,2.89-2.89v-22.16c0-1.6-1.29-2.89-2.89-2.89Z"/>
        </g>
      </g>
    </g>
  </g>
</svg>