<?xml version="1.0" encoding="UTF-8"?>
<svg id="Layer_2" data-name="Layer 2" xmlns="http://www.w3.org/2000/svg" viewBox="0 0 850 850">
  <defs>
    <style>
      .cls-1 {
        fill: #fff;
      }

      .cls-2 {
        fill: #9ea700;
      }

      .cls-3 {
        fill: #d8dc99;
      }

      .cls-4 {
        fill: #acad76;
      }

      .cls-5 {
        fill: #fbfcd4;
      }
    </style>
  </defs>
  <g id="Layer_1-2" data-name="Layer 1">
    <g>
      <rect class="cls-1" width="850" height="850" rx="72.61" ry="72.61"/>
      <g id="Credit_Card_allow" data-name="Credit Card allow">
        <path class="cls-3" d="m618.72,311.83c0,261.34.6,241.06-1.29,247.32-3.81,12.58-15.4,21.18-28.54,21.18H230.88c-16.48,0-29.83-13.36-29.83-29.83v-238.67c0-16.48,13.36-29.83,29.83-29.83h358c16.48,0,29.83,13.36,29.83,29.83h0Z"/>
        <path class="cls-4" d="m201.05,341.66h417.67v61.77H201.05v-61.77Z"/>
        <path class="cls-2" d="m668.95,534.99c.06,19.03-5.8,37.6-16.78,53.14-29.47,42.22-87.59,52.56-129.81,23.09-42.22-29.47-52.56-87.59-23.09-129.81,29.47-42.22,87.59-52.56,129.81-23.09,25.05,17.48,39.94,46.13,39.87,76.67Z"/>
        <path class="cls-5" d="m528.68,549.26c-4.97-4.97-4.97-13.03,0-18,4.97-4.97,13.03-4.97,18,0l16.36,16.48,41.71-41.84c4.97-4.97,13.03-4.97,18,0,4.97,4.97,4.97,13.03,0,18-69.1,68.97-52.87,67.07-94.07,25.36Z"/>
      </g>
    </g>
  </g>
</svg>