<svg xmlns="http://www.w3.org/2000/svg" viewBox="0 0 850 850"><defs><style>.cls-1{fill:#fff;}.cls-2{fill:#adb426;}.cls-3{fill:#9ea700;}.cls-4{fill:#868e00;}.cls-5{fill:#96960f;}.cls-6{fill:#7e8600;}</style></defs><g id="Layer_2" data-name="Layer 2"><g id="Layer_1-2" data-name="Layer 1"><rect class="cls-1" width="850" height="850" rx="72.61"/><path class="cls-2" d="M595.22,321.69V648.22a16.07,16.07,0,0,1-16.06,16.06H270.82a16.07,16.07,0,0,1-16.06-16.06V201.78a16.07,16.07,0,0,1,16.06-16.06H459.25Z"/><path class="cls-3" d="M595.22,321.69V648.22a16.07,16.07,0,0,1-16.06,16.06H425V185.72h34.26Z"/><path class="cls-4" d="M373.6,286.36H339.34a16.06,16.06,0,0,1,0-32.12H373.6a16.06,16.06,0,0,1,0,32.12Z"/><path class="cls-4" d="M373.6,354.87H339.34a16.06,16.06,0,1,1,0-32.11H373.6a16.06,16.06,0,1,1,0,32.11Z"/><path class="cls-5" d="M441.07,581.12v3.36a16.06,16.06,0,0,1-32.12,0v-1.54c-7.41-1.3-14.16-4.07-22.71-9.66a16.06,16.06,0,0,1,17.59-26.87c8.26,5.41,10.8,5.44,21.16,5.44s14.36-8.18,15.16-13c.73-4.29-.09-10-8-12.81-12.11-4.26-26.66-9.84-36.7-17.72C373.3,491,380.09,451.54,409,441v-2.33a16.06,16.06,0,0,1,32.12,0V440a52.29,52.29,0,0,1,18.08,9.77,16.06,16.06,0,0,1-21.72,23.66c-4.25-3.16-10.62-4.37-17.11-2.38-4.3,1.29-5.46,5.73-5.7,7.07-.53,2.76.21,4.62.61,4.94,6.54,5.12,19.75,9.93,27.59,12.71,42.32,15,37.16,71.26-1.75,85.32Z"/><path class="cls-6" d="M441.07,581.12v3.36A16.07,16.07,0,0,1,425,600.54c-.11,0,0,1.09,0-48.69,10.27-.11,14.36-8.18,15.16-13,.73-4.29-.09-10-8-12.81-2.31-.82-4.7-1.67-7.12-2.58V488.73c6.06,2.85,12.9,5.32,17.83,7.07C485.14,510.77,480,567.06,441.07,581.12Z"/><path class="cls-6" d="M425,470.18c0-48.59-.09-47.52,0-47.52a16.06,16.06,0,0,1,16.06,16V440a52.29,52.29,0,0,1,18.08,9.77,16.06,16.06,0,0,1-21.72,23.66A18.37,18.37,0,0,0,425,470.18Z"/><path class="cls-4" d="M590.52,310.33,470.61,190.42a16.07,16.07,0,0,0-11.35-4.69c-.11-.11,0-1.39,0,137h136v-1.47a16.1,16.1,0,0,0-4.69-11Z"/></g></g></svg>