<?xml version="1.0" encoding="UTF-8"?>
<svg id="Layer_2" data-name="Layer 2" xmlns="http://www.w3.org/2000/svg" viewBox="0 0 850 850">
  <defs>
    <style>
      .cls-1 {
        fill: #fff;
      }

      .cls-2 {
        fill: #bbc14d;
      }

      .cls-3 {
        fill: #9ea700;
      }
    </style>
  </defs>
  <g id="Layer_1-2" data-name="Layer 1">
    <g>
      <rect class="cls-1" width="850" height="850" rx="72.61" ry="72.61"/>
      <g>
        <path class="cls-2" d="m664.51,320.65l-52.02-68.04c-7.18-9.39-20.62-11.19-30.01-4.01l-155.47,118.86-87.43,66.84-52.02-68.05c-3.45-4.51-8.55-7.47-14.18-8.22s-11.33.76-15.84,4.21l-68.04,52.02c-9.39,7.18-11.19,20.62-4.01,30.01l117.04,153.1c3.45,4.51,8.55,7.47,14.18,8.22s11.33-.77,15.84-4.21l70.43-53.84,257.54-196.89c4.51-3.45,7.47-8.55,8.22-14.18.75-5.63-.77-11.33-4.21-15.84Z"/>
        <path class="cls-3" d="m302.53,597.39c3.45,4.51,8.55,7.47,14.18,8.22s11.33-.77,15.84-4.21l70.43-53.84,24.03-180.09-87.43,66.84-52.02-68.05c-3.45-4.51-8.55-7.47-14.18-8.22s-11.33.76-15.84,4.21l-68.04,52.02c-9.39,7.18-11.19,20.62-4.01,30.01l117.04,153.1Z"/>
      </g>
    </g>
  </g>
</svg>