<?xml version="1.0" encoding="UTF-8"?>
<svg id="Layer_2" data-name="Layer 2" xmlns="http://www.w3.org/2000/svg" viewBox="0 0 850 850">
  <defs>
    <style>
      .cls-1 {
        fill: #fff;
      }

      .cls-2 {
        fill: #a8b01a;
      }

      .cls-2, .cls-3, .cls-4, .cls-5, .cls-6, .cls-7, .cls-8 {
        fill-rule: evenodd;
      }

      .cls-3, .cls-9 {
        fill: #8e9600;
      }

      .cls-4 {
        fill: #b1b933;
      }

      .cls-5 {
        fill: #cfd380;
      }

      .cls-6 {
        fill: #9ea700;
      }

      .cls-7 {
        fill: #bbc14d;
      }

      .cls-8 {
        fill: #777d00;
      }
    </style>
  </defs>
  <g id="Layer_1-2" data-name="Layer 1">
    <g>
      <rect class="cls-1" width="850" height="850" rx="72.61" ry="72.61"/>
      <g>
        <path class="cls-6" d="m339.27,277.44l-105.38,30.79-23.51,93.26c4.07,34.26,10.49,66.32,31.67,84.28l174.78,142.05,21.15,16.27c31.84,24.49,61.99-9.73,37.79-35.03-.34-.37-.71-.74-1.08-1.11,8.17,6.87,17.35,8.83,25.38,7.51,17.68-2.86,29.79-21.59,13.51-39.07,31.8,25.4,58.97-15.06,34.05-37.25,27.77,8.76,58.02-27.25,29.18-57.84-.2-.24-.44-.51-.67-.74l-72.31-107.65-96.99-62.15-67.57-33.31Z"/>
        <path class="cls-4" d="m414.21,630.85c26.89-28.67-12.34-61.64-34.02-42.21l-23.23,22.1c-.27.27-.5.51-.77.71-19.5,19.6,15.94,64.27,45.25,33.01l12.78-13.61Z"/>
        <path class="cls-4" d="m339.68,548.66l-24.54,25.73-.1.13c-12.3,13.07-3.77,33.11,10.79,40.93,9.01,4.85,20.31,5.05,30.36-4.01l26.29-.4-2.29-22.4,3.36-3.17c26.29-24.99-11.67-68.18-41.28-39.54l-2.59,2.73Z"/>
        <path class="cls-4" d="m295.84,513.39l-22.99,24.42-3.23,3.47c-22.69,24.08,17.95,62.01,41.38,37.42l4.03-4.18c.34-.37,24.98-2.93,27.67-3.23l-.44-25.36,7.87-8.25c27.06-28.39-15.23-65.78-40.98-38.4l-13.31,14.11Z"/>
        <path class="cls-4" d="m242.05,485.77l-7.8,8.45c-24,26.07,11.77,67.64,38.59,43.59l22.02-3.4.98-21.02c21.75-24.62-16.17-68.44-46.02-36.04l-7.77,8.42Z"/>
        <path class="cls-5" d="m275,204.28l-106.74,102.77-30.36,29.2c-9.88,9.5-10.19,25.36-.71,35.27l45.28,47.22c2.62,2.73,7.03,2.83,9.78.2l18.12-17.45,128.89-124.06,16-15.43c2.76-2.63,2.86-7.04.2-9.8l-45.28-47.22c-9.48-9.9-25.31-10.21-35.2-.71h0Z"/>
        <path class="cls-3" d="m477.98,382.93l-32.41,7.41,12.71,12.9,98.16,97.62.67.74c11.83,12.53,13.72,25.94,9.95,36.85,19.4-7.41,31.73-33.85,9.75-57.16l-.67-.74-29.45-29.27-68.71-68.34Z"/>
        <path class="cls-4" d="m406.85,310.75l-23.7,18.36-22.32,17.25c-56.38,43.65-9.62,86.77,23.83,71.98l37.62-22.67,23.3-5.32,32.41-7.41,68.71,68.34,29.45,29.27c18.52-6.94,44.71-26.95,72.98-72.49l-42.98-89.92-100.37-48.09-25.75,20.58c-4.24,3.37-2.96,2.73-8.3,2.56-19.33-.61-43.9,1.31-58.33,12.46l-6.56,5.08Z"/>
        <path class="cls-3" d="m339.27,277.44l-20.64,19.84,64.51,31.83,23.7-18.36-67.57-33.31Z"/>
        <path class="cls-2" d="m406.75,380.68l-37.62,22.67c-10.25,4.55-21.78,3.64-31.2-1.08,8.17,15.7,29.28,23.78,46.73,16.07l37.62-22.67,23.3-5.32,32-7.31c-14.83-12.7-17.48-14.55-47.57-7.65l-23.26,5.29Z"/>
        <path class="cls-2" d="m625.73,385.53c-25.18,40.52-48.68,60.83-66.6,69.73-2.02,1.01-3.97,1.85-5.85,2.56l22.86,22.74c18.52-6.94,44.71-26.95,72.98-72.49l-23.4-22.53Z"/>
        <path class="cls-7" d="m238.49,239.44c9.88-9.4,25.62-9.03,35.06.81l45.28,47.22c2.62,2.76,2.55,7.17-.2,9.8l20.64-19.84,16-15.43c2.76-2.63,2.86-7.04.2-9.8l-45.28-47.22c-9.48-9.9-25.31-10.21-35.2-.71l-36.51,35.17Z"/>
        <path class="cls-2" d="m226.35,514.17c.23,22.06,25.99,42.04,46.49,23.65l14.42-15.29,8.57-9.13c8.98-10.17,7.77-23.58,1.21-33.58-.03,5.86-1.98,11.72-6.45,16.81l-15.26,16.2-7.7,8.22c-14.96,13.37-32.68,6.4-41.28-6.87h0Z"/>
        <path class="cls-2" d="m264.01,564.22c5.38,18.05,30.49,31.83,47,14.48l4.03-4.18c.03-.07.07-.1.1-.13l24.54-25.73c.87-.98,1.71-1.89,2.59-2.73l7.87-8.25c14.59-15.29,9.04-33.21-3.23-42.21,2.22,8.25.44,17.79-7.83,26.44l-7.87,8.25c-.87.84-1.71,1.75-2.59,2.7v.03l-24.54,25.73s-.07.07-.13.1l-4,4.21c-10.96,11.52-25.69,9.33-35.94,1.28h0Z"/>
        <path class="cls-2" d="m356.96,610.74l17.92-17.01,5.31-5.09,3.36-3.17c13.99-13.3,9.78-31.76-1.71-41.8,2.45,8.79.64,18.73-7.83,26.78l-3.33,3.17-9.48,8.99-13.78,13.14-.77.67c-10.05,9.06-21.35,8.86-30.36,4.04-2.22-1.21-4.3-2.7-6.19-4.41,2.22,7.98,8.17,15.36,15.73,19.4,9.01,4.85,20.31,5.05,30.36-4.01l.77-.71Z"/>
        <path class="cls-2" d="m414.21,630.85c13.45-14.35,10.35-29.74,1.21-39.14-.2,6.37-2.89,13.2-9.08,19.77l-12.78,13.64c-15.7,16.71-33.15,11.69-42.96.4.13,20.45,27.43,43.89,50.83,18.93l12.78-13.61Z"/>
        <path class="cls-9" d="m547.63,548.03c-2.17,0-4.34-.79-6.06-2.39l-35.84-33.38c-3.6-3.35-3.8-8.98-.45-12.58,3.35-3.6,8.97-3.8,12.57-.45l35.84,33.38c3.6,3.35,3.8,8.98.45,12.58-1.75,1.88-4.13,2.84-6.51,2.84Z"/>
        <path class="cls-9" d="m513.58,585.28c-2.17,0-4.34-.79-6.06-2.39l-35.87-33.41c-3.6-3.35-3.8-8.98-.45-12.58,3.34-3.6,8.97-3.8,12.57-.45l35.87,33.41c3.6,3.35,3.8,8.98.45,12.58-1.75,1.88-4.13,2.84-6.51,2.84Z"/>
        <path class="cls-9" d="m475.86,618.02c-2.17,0-4.34-.79-6.05-2.38l-18.25-16.98c-3.6-3.35-3.8-8.98-.46-12.58,3.34-3.6,8.97-3.81,12.57-.46l18.25,16.98c3.6,3.35,3.8,8.98.46,12.58-1.75,1.89-4.13,2.84-6.52,2.84h0Z"/>
        <path class="cls-3" d="m505.78,270.06l119.95,115.47,23.4,22.53,8.61,8.29c2.76,2.63,7.16,2.53,9.78-.2l23.63-24.66,21.65-22.57c9.48-9.9,9.18-25.77-.71-35.27l-20.94-20.14-116.15-111.83c-9.88-9.5-25.72-9.2-35.2.71l-45.28,47.22c-2.66,2.76-2.55,7.17.2,9.8l11.06,10.65Z"/>
        <path class="cls-8" d="m682.31,304.96v.03-.03Zm-21.04,57.74l-23.63,24.69c-2.66,2.73-7.03,2.83-9.78.17l21.28,20.51,8.61,8.29c2.76,2.63,7.16,2.53,9.78-.2l23.63-24.66,21.65-22.57c9.48-9.9,9.18-25.77-.71-35.27l-26.49-25.5,2.25,2.19-5.55-5.36c9.75,9.5,10.05,25.3.61,35.13l-21.65,22.57Z"/>
      </g>
    </g>
  </g>
</svg>