<svg xmlns="http://www.w3.org/2000/svg" viewBox="0 0 850 850"><defs><style>.cls-1{fill:#fff;}.cls-2{fill:#8e9600;}.cls-3{fill:#9ea700;}</style></defs><g id="Layer_2" data-name="Layer 2"><g id="Layer_1-2" data-name="Layer 1"><rect class="cls-1" width="850" height="850" rx="72.61"/><g id="Icon"><path class="cls-2" d="M436.71,468.65,381,412.94a14.75,14.75,0,0,0-20.86,0L247.52,526.33a24.4,24.4,0,0,0-7.28,17.53v41.73a24.61,24.61,0,0,0,24.61,24.61h35.43a24.62,24.62,0,0,0,24.41-24.61v-3.15H328A24.62,24.62,0,0,0,352.65,558v-3.35h8.85A24.4,24.4,0,0,0,379,547.4l57.68-57.68a14.78,14.78,0,0,0,.18-20.88Z"/><path class="cls-3" d="M571,278.68a132.88,132.88,0,1,0,0,188A132.88,132.88,0,0,0,571,278.68ZM529.23,383a44.31,44.31,0,1,1,13.58-31.3A43.71,43.71,0,0,1,529.23,383Z"/></g></g></g></svg>