<svg xmlns="http://www.w3.org/2000/svg" viewBox="0 0 850 850"><defs><style>.cls-1{fill:#fff;}.cls-2{fill:#bbc14d;}.cls-3{fill:#868e00;}.cls-4{fill:#9ea700;}</style></defs><g id="Layer_2" data-name="Layer 2"><g id="Layer_1-2" data-name="Layer 1"><rect class="cls-1" width="850" height="850" rx="72.61"/><path class="cls-2" d="M340.69,546.68l-80.94,80.94a93.24,93.24,0,0,0,110.43-16Z"/><path class="cls-2" d="M545.72,211.07a92.89,92.89,0,0,0-65.9,27.3l29.49,64.95,80.94-80.94A92.77,92.77,0,0,0,545.72,211.07Z"/><path class="cls-3" d="M397.48,545.72V509.3L509.3,397.48h36.42a93.23,93.23,0,0,0,82.11-137.35L564.7,323.25l-19-19-138.45,103-103,138.45,65.9,65.91a92.91,92.91,0,0,0,27.3-65.91Z"/><path class="cls-4" d="M527,285.59l-47.22-47.22a92.91,92.91,0,0,0-27.3,65.91V340.7L340.7,452.52H304.28a93.23,93.23,0,0,0-82.11,137.35l63.13-63.12,19,19L545.72,304.28Z"/></g></g></svg>