<svg xmlns="http://www.w3.org/2000/svg" viewBox="0 0 850 850"><defs><style>.cls-1{fill:#fff;}.cls-2{fill:#bbc14d;}.cls-3{fill:#9ea700;}.cls-4{fill:#adb426;}.cls-5{fill:#969f00;}.cls-6{fill:#8e9600;}.cls-7{fill:#d2a073;}.cls-8{fill:#b1b933;}.cls-9{fill:#d8dc99;}.cls-10{fill:#c2c68a;}.cls-11{fill:#8c8f63;}</style></defs><g id="Layer_2" data-name="Layer 2"><g id="Layer_1-2" data-name="Layer 1"><rect class="cls-1" width="850" height="850" rx="72.61"/><path class="cls-2" d="M313.53,210.33a7.07,7.07,0,0,0-2.2,5.11v98.23H356.4v-72.3l7.51-14.47V169.06h-4.4a7.65,7.65,0,0,0-5.31,2.12Z"/><path class="cls-3" d="M489.41,210.33a7.07,7.07,0,0,1,2.2,5.11v98.23H446.54v-72.3L439,226.9V169.06h4.4a7.65,7.65,0,0,1,5.31,2.12Z"/><path class="cls-4" d="M416.49,190.75v50.47H356.4V212.38Z"/><path class="cls-5" d="M446.54,212.48v28.89l-30.06-.15V212.44Z"/><path class="cls-2" d="M439,169.06H416.49l-30,21.69,30,21.69h30.05V176.29A7.37,7.37,0,0,0,439,169.06Z"/><path class="cls-6" d="M356.4,176.29v36.15h60.09V169.06H363.91a7.37,7.37,0,0,0-7.51,7.23Z"/><path class="cls-6" d="M566.73,292V525.29L401.47,583.14l127.7-298.39h30.05a7.37,7.37,0,0,1,7.51,7.23Z"/><path class="cls-7" d="M356.4,162.57v-.08C356.32,162.52,356.34,162.55,356.4,162.57Z"/><path class="cls-3" d="M236.21,292V525.29l300.47,57.85V292a7.37,7.37,0,0,0-7.51-7.23H243.72a7.37,7.37,0,0,0-7.51,7.23Z"/><path class="cls-2" d="M521.66,624.06l7.51,24.16h30.05Z"/><path class="cls-2" d="M243.72,568.68v79.54H529.17a7.38,7.38,0,0,0,7.51-7.24v-72.3Z"/><path class="cls-6" d="M243.72,518.06v65.08h293V525.29a7.37,7.37,0,0,0-7.51-7.23Z"/><path class="cls-6" d="M529.17,518.06l-7.51,24.17,37.56-24.17Z"/><path class="cls-8" d="M536.68,527.77V638.52l-57.52-55.38Z"/><path class="cls-8" d="M323.77,583.14,265,639.75a30.66,30.66,0,0,1-21.24,8.47,7.38,7.38,0,0,1-7.51-7.24V525.29a7.37,7.37,0,0,1,7.51-7.23A30.62,30.62,0,0,1,265,526.54Z"/><path class="cls-8" d="M566.73,525.29V641a7.37,7.37,0,0,1-7.51,7.23A30.66,30.66,0,0,1,538,639.75l-1.29-1.23-30-55.38,30-55.37,1.29-1.23a30.63,30.63,0,0,1,21.25-8.48,7.37,7.37,0,0,1,7.51,7.23Z"/><circle class="cls-9" cx="537.74" cy="585.47" r="102.05"/><path class="cls-10" d="M537.74,483.42V687.51a102,102,0,1,0,0-204.09Z"/><path class="cls-11" d="M575.61,534.21a6,6,0,0,0-2.74-4.35A65.77,65.77,0,0,0,472,582.48H466a6,6,0,0,0-4.78,9.56L479.14,616a6,6,0,0,0,9.57,0L506.65,592a6,6,0,0,0-4.78-9.56H496A41.76,41.76,0,0,1,558.14,549a6,6,0,0,0,7.21-1l8.61-8.86A5.93,5.93,0,0,0,575.61,534.21Z"/><path class="cls-11" d="M565.35,547.94l8.61-8.86a6,6,0,0,0-1.09-9.22,65.59,65.59,0,0,0-35.13-10.17v23.92a41.87,41.87,0,0,1,20.4,5.37A6,6,0,0,0,565.35,547.94Z"/><path class="cls-11" d="M614.28,578.89,596.34,555a6,6,0,0,0-9.57,0l-17.93,23.92a6,6,0,0,0,4.78,9.57h5.87A41.76,41.76,0,0,1,517.35,622a6,6,0,0,0-7.22,1l-8.61,8.86a6,6,0,0,0,1.09,9.22,65.77,65.77,0,0,0,100.84-52.61h6a6,6,0,0,0,4.78-9.57Z"/><path class="cls-11" d="M614.28,578.89,596.34,555a6,6,0,0,0-9.57,0l-17.93,23.92a6,6,0,0,0,4.78,9.57h5.87a41.91,41.91,0,0,1-41.75,38.86v23.92a65.86,65.86,0,0,0,65.71-62.78h6a6,6,0,0,0,4.78-9.57Z"/></g></g></svg>