<svg xmlns="http://www.w3.org/2000/svg" viewBox="0 0 850 850"><defs><style>.cls-1{fill:#fff;}.cls-2{fill:#cfd380;}.cls-3{fill:#b1b933;}.cls-4{fill:#9ea700;}.cls-5{fill:#8e9600;}</style></defs><g id="Layer_2" data-name="Layer 2"><g id="Layer_1-2" data-name="Layer 1"><rect class="cls-1" width="850" height="850" rx="72.61"/><path class="cls-2" d="M384.36,465.44,251.29,332.36c-15-15-23.95-35.38-25.85-58.9-1.67-20.64,2-43.22,10.73-65.3l3.29-8.36h16.12L452.79,397Z"/><path class="cls-3" d="M610.43,650.2a39.51,39.51,0,0,1-28-11.57L405.87,462.07l56-56L638.42,582.63a39.63,39.63,0,0,1,0,56h0A39.45,39.45,0,0,1,610.43,650.2Z"/><path class="cls-4" d="M631,274.77l-71.54,71.54L540.8,327.65l71.54-71.55-18.66-18.66L522.14,309l-18.66-18.66L575,218.78l-18.66-18.66L463,293.43a65.89,65.89,0,0,0-19.2,42.68,39.9,39.9,0,0,1-11.9,25.75L211.58,582.22a39.59,39.59,0,0,0,56,56L487.93,417.85a40,40,0,0,1,25.74-11.91,65.85,65.85,0,0,0,42.68-19.19l93.32-93.32Z"/><path class="cls-5" d="M559.47,346.31,540.8,327.65l71.55-71.55L603,246.77,211.58,638.21a39.63,39.63,0,0,0,56,0L487.93,417.85a40,40,0,0,1,25.74-11.91,65.85,65.85,0,0,0,42.68-19.19l93.32-93.32L631,274.77Z"/></g></g></svg>