<svg xmlns="http://www.w3.org/2000/svg" viewBox="0 0 850 850"><defs><style>.cls-1{fill:#fff;}.cls-2{fill:#b1b933;}.cls-3{fill:#c5ca66;}.cls-4{fill:#9ea700;}.cls-5{fill:#a8b01a;}.cls-6{fill:#bbc14d;}.cls-7{fill:#8e9600;}</style></defs><g id="Layer_2" data-name="Layer 2"><g id="Layer_1-2" data-name="Layer 1"><rect class="cls-1" width="850" height="850" rx="72.61"/><rect class="cls-2" x="312.5" y="280.36" width="144.64" height="369.64" rx="16.07"/><rect class="cls-3" x="200" y="360.71" width="144.64" height="289.29" rx="16.07"/><rect class="cls-4" x="425" y="200" width="225" height="450" rx="16.07"/><path class="cls-5" d="M312.5,605v28.93A16.08,16.08,0,0,0,328.57,650h112.5a16.07,16.07,0,0,0,16.07-16.07V373.57Z"/><path class="cls-6" d="M284.38,650h44.19a16.07,16.07,0,0,0,16.07-16.07V553.57Z"/><path class="cls-7" d="M633.93,200H565.62L425,425V633.93A16.08,16.08,0,0,0,441.07,650H633.93A16.08,16.08,0,0,0,650,633.93V216.07A16.08,16.08,0,0,0,633.93,200Z"/></g></g></svg>