<?xml version="1.0" encoding="UTF-8"?>
<svg id="Layer_2" data-name="Layer 2" xmlns="http://www.w3.org/2000/svg" viewBox="0 0 850 850">
  <defs>
    <style>
      .cls-1 {
        fill: #fff;
      }

      .cls-2 {
        fill: #9ea700;
      }

      .cls-3 {
        fill: #969923;
      }

      .cls-4 {
        fill: #cfd380;
      }

      .cls-5 {
        fill: #828225;
      }
    </style>
  </defs>
  <g id="Layer_1-2" data-name="Layer 1">
    <g>
      <rect class="cls-1" width="850" height="850" rx="72.61" ry="72.61"/>
      <g>
        <path class="cls-4" d="m627.73,360.66H222.27v243.22c0,6.99,5.68,12.67,12.67,12.67h380.12c6.99,0,12.67-5.68,12.67-12.67v-243.22Z"/>
        <path class="cls-2" d="m222.27,269.67v90.99h405.46v-90.99c0-6.99-5.68-12.67-12.67-12.67H234.94c-6.99,0-12.67,5.68-12.67,12.67Z"/>
        <g>
          <rect class="cls-3" x="358.54" y="401.65" width="132.91" height="37.39"/>
          <rect class="cls-3" x="444.37" y="401.65" width="47.08" height="37.39"/>
          <rect class="cls-3" x="530.19" y="401.65" width="47.08" height="37.39"/>
          <rect class="cls-3" x="272.72" y="406.3" width="47.08" height="37.39"/>
          <rect class="cls-3" x="272.72" y="467.37" width="47.08" height="37.39"/>
          <rect class="cls-3" x="358.54" y="467.37" width="47.08" height="37.39"/>
          <rect class="cls-3" x="444.37" y="467.37" width="109.36" height="37.39"/>
          <rect class="cls-3" x="530.19" y="467.37" width="47.08" height="37.39"/>
          <rect class="cls-3" x="272.72" y="533.11" width="109.36" height="37.39"/>
          <rect class="cls-3" x="358.54" y="533.11" width="47.08" height="37.39"/>
          <rect class="cls-3" x="444.37" y="533.11" width="47.08" height="37.39"/>
          <rect class="cls-3" x="530.19" y="538.03" width="47.08" height="37.39"/>
        </g>
        <g>
          <path class="cls-5" d="m332.88,255.37v37.63c0,12.16-9.88,21.92-21.92,21.92s-21.92-9.76-21.92-21.92v-37.63c0-12.16,9.76-21.92,21.92-21.92,12.04,0,21.92,9.76,21.92,21.92Z"/>
          <path class="cls-5" d="m560.96,255.37v37.63c0,12.16-9.88,21.92-21.92,21.92s-21.92-9.76-21.92-21.92v-37.63c0-12.16,9.88-21.92,21.92-21.92,12.04,0,21.92,9.76,21.92,21.92Z"/>
        </g>
      </g>
    </g>
  </g>
</svg>