<?xml version="1.0" encoding="UTF-8"?>
<svg id="Layer_2" data-name="Layer 2" xmlns="http://www.w3.org/2000/svg" viewBox="0 0 850 850">
  <defs>
    <style>
      .cls-1 {
        fill: #fff;
      }

      .cls-2 {
        fill: #bbc14d;
      }

      .cls-3 {
        fill: #9ea700;
      }

      .cls-4 {
        fill: #868e00;
      }

      .cls-5 {
        fill: #cfd380;
      }
    </style>
  </defs>
  <g id="Layer_1-2" data-name="Layer 1">
    <g>
      <rect class="cls-1" width="850" height="850" rx="72.61" ry="72.61"/>
      <g>
        <circle class="cls-5" cx="514.91" cy="618.7" r="27.67"/>
        <path class="cls-5" d="m565.66,544.91h-276.72c-7.64,0-13.84-6.2-13.84-13.84s6.2-13.84,13.84-13.84h276.7c6.53,0,12.19-4.59,13.54-11l36.9-175.26c.85-4.08-.17-8.32-2.79-11.57-2.64-3.23-6.57-5.11-10.76-5.11h-311.61l-7.01-33.32c-4.91-23.23-25.68-40.16-49.42-40.27l-46.97-.2h-.07c-7.6,0-13.8,6.16-13.84,13.78-.02,7.64,6.14,13.85,13.78,13.89l46.97.2c10.79.04,20.24,7.75,22.47,18.3l9.32,44.28,33.39,158.58h-10.63c-22.89,0-41.51,18.61-41.51,41.51s18.61,41.51,41.51,41.51h276.72c7.64,0,13.84-6.2,13.84-13.84s-6.18-13.82-13.82-13.82h0Z"/>
        <path class="cls-2" d="m187.53,240.52h-.07c-7.6,0-13.8,6.16-13.84,13.78-.02,7.64,6.14,13.85,13.78,13.89l46.97.2c10.79.04,20.24,7.75,22.47,18.3l9.32,44.28,33.39,158.58h-10.63c-22.89,0-41.51,18.61-41.51,41.51s18.61,41.51,41.51,41.51h142.97v-27.67h-142.97c-7.64,0-13.84-6.2-13.84-13.84s6.2-13.84,13.84-13.84h142.97v-202.91h-140.96l-7.01-33.32c-4.91-23.23-25.68-40.16-49.42-40.27l-46.97-.2Z"/>
        <path class="cls-5" d="m367.33,591.03c-15.27,0-27.67,12.38-27.67,27.67s12.38,27.67,27.67,27.67,27.67-12.38,27.67-27.67-12.38-27.67-27.67-27.67Z"/>
        <path class="cls-2" d="m367.33,591.03c-15.27,0-27.67,12.38-27.67,27.67s12.38,27.67,27.67,27.67v-55.34Z"/>
        <path class="cls-2" d="m514.93,591.03c-15.29,0-27.67,12.38-27.67,27.67s12.38,27.67,27.67,27.67v-55.34Z"/>
        <path class="cls-4" d="m488.22,422.27c-11.44-8.5-111.67-84.9-111.67-149.69,0-38.02,31.05-68.96,69.18-68.96,19.63,0,37.89,8.23,50.73,22.03,12.84-13.8,31.1-22.03,50.73-22.03,38.13,0,69.18,30.94,69.18,68.96,0,64.79-100.23,141.18-111.67,149.69-4.89,3.63-11.6,3.63-16.49,0h0Z"/>
        <path class="cls-3" d="m445.73,203.62c-38.13,0-69.18,30.94-69.18,68.96,0,64.79,100.23,141.18,111.67,149.69,2.45,1.83,5.35,2.73,8.25,2.73v-199.35c-12.84-13.8-31.12-22.03-50.73-22.03Z"/>
      </g>
    </g>
  </g>
</svg>