<svg xmlns="http://www.w3.org/2000/svg" viewBox="0 0 850 850"><defs><style>.cls-1{fill:#fff;}.cls-2{fill:#9ea700;}.cls-3{fill:#bbc14d;}</style></defs><g id="Layer_2" data-name="Layer 2"><g id="Layer_1-2" data-name="Layer 1"><rect class="cls-1" width="850" height="850" rx="72.61"/><path class="cls-2" d="M613.08,390.75l-85.5,87.58,20.1,124c1.77,9.89-9,17.14-17.55,12.45L425,556.5V233.78c4.47,0,8.94,2.07,10.85,6.38l52.8,112.47,117.57,17.86a12.09,12.09,0,0,1,6.86,20.26Z"/><path class="cls-3" d="M425,233.78V556.5L319.87,614.73c-8.43,4.74-19.33-2.44-17.54-12.45l20.1-123.95-85.51-87.58a12.08,12.08,0,0,1,6.86-20.26l117.57-17.86,52.8-112.47c1.92-4.31,6.39-6.38,10.85-6.38Z"/></g></g></svg>