<svg xmlns="http://www.w3.org/2000/svg" viewBox="0 0 850 850"><defs><style>.cls-1{fill:#fff;}.cls-2{fill:#bbc14d;}.cls-3{fill:#9ea700;}.cls-4{fill:#868e00;}</style></defs><g id="Layer_2" data-name="Layer 2"><g id="Layer_1-2" data-name="Layer 1"><rect class="cls-1" width="850" height="850" rx="72.61"/><path class="cls-2" d="M624.15,298.12V477.63a53.61,53.61,0,0,1-53.55,53.55H413.74L296.88,609.42V531.18H279.4a53.61,53.61,0,0,1-53.55-53.55V298.12a53.61,53.61,0,0,1,53.55-53.54H570.6A53.61,53.61,0,0,1,624.15,298.12Z"/><path class="cls-3" d="M624.15,298.12V477.63a53.61,53.61,0,0,1-53.55,53.55H425V244.58H570.6A53.61,53.61,0,0,1,624.15,298.12Z"/><path class="cls-3" d="M339.37,340.4H510.63v27.74H339.37Z"/><path class="cls-3" d="M339.37,407.62H510.63v27.74H339.37Z"/><path class="cls-4" d="M425,340.4h85.63v27.74H425Z"/><path class="cls-4" d="M425,407.62h85.63v27.74H425Z"/></g></g></svg>