<?xml version="1.0" encoding="UTF-8"?>
<svg id="Layer_2" data-name="Layer 2" xmlns="http://www.w3.org/2000/svg" viewBox="0 0 850 850">
  <defs>
    <style>
      .cls-1 {
        fill: #fff;
      }

      .cls-2 {
        fill: #bbc14d;
      }

      .cls-3 {
        fill: #9ea700;
      }

      .cls-4 {
        fill: #868e00;
      }
    </style>
  </defs>
  <g id="Layer_1-2" data-name="Layer 1">
    <g>
      <rect class="cls-1" y="0" width="850" height="850" rx="72.61" ry="72.61"/>
      <g>
        <path class="cls-2" d="m631.73,318.22v186.34c0,30.65-24.94,55.58-55.59,55.58h-162.82l-121.31,81.22v-81.22h-18.15c-30.65,0-55.59-24.94-55.59-55.58v-186.34c0-30.65,24.94-55.58,55.59-55.58h302.28c30.65,0,55.59,24.94,55.59,55.58Z"/>
        <path class="cls-3" d="m631.73,318.22v186.34c0,30.65-24.94,55.58-55.59,55.58h-151.14v-297.51h151.14c30.65,0,55.59,24.94,55.59,55.58Z"/>
        <path class="cls-3" d="m336.12,362.1h177.76v28.8h-177.76v-28.8Z"/>
        <path class="cls-3" d="m336.12,431.88h177.76v28.8h-177.76v-28.8Z"/>
        <path class="cls-4" d="m425,362.1h88.88v28.8h-88.88v-28.8Z"/>
        <path class="cls-4" d="m425,431.88h88.88v28.8h-88.88v-28.8Z"/>
      </g>
    </g>
  </g>
</svg>