<?xml version="1.0" encoding="UTF-8"?>
<svg id="Layer_2" data-name="Layer 2" xmlns="http://www.w3.org/2000/svg" viewBox="0 0 850 850">
  <defs>
    <style>
      .cls-1 {
        fill: #d6d66b;
      }

      .cls-2 {
        fill: #fff;
      }

      .cls-3 {
        fill: #cacc8b;
      }

      .cls-4 {
        fill: #baba09;
      }

      .cls-5 {
        fill: #bbc14d;
      }

      .cls-6 {
        fill: #9ea700;
      }

      .cls-7 {
        fill: #b4b57f;
      }

      .cls-8 {
        fill: #d8dc99;
      }

      .cls-9 {
        fill: #c2c68a;
      }
    </style>
  </defs>
  <g id="Layer_1-2" data-name="Layer 1">
    <g>
      <rect class="cls-2" width="850" height="850" rx="72.61" ry="72.61"/>
      <g>
        <path class="cls-5" d="m478.08,287.7c-68.76,0-124.5,55.74-124.5,124.5l-8.83,134.94,133.34-17.1,17.11-145.12-17.11-97.23Z"/>
        <path class="cls-6" d="m478.08,287.7v242.34l22.34-2.86s102.17-56.8,102.17-113.22v-1.75c0-68.76-55.74-124.5-124.5-124.5h0Z"/>
        <path class="cls-1" d="m342.52,412.21l-25.57,44.62,47.68,47.68v-92.3c0-62.56,50.89-113.45,113.45-113.45l13.67-10.3-13.67-11.8c-74.75,0-135.56,60.81-135.56,135.56h0Z"/>
        <path class="cls-1" d="m433.84,438.5c0-26.05,19.23-47.69,44.24-51.47l6.14-8.47-6.14-13.81c-37.23,3.92-66.34,35.5-66.34,73.76,0,41.19,28.22,75.9,66.34,85.83l6.14-11-6.14-12.11c-25.75-9.2-44.24-33.84-44.24-62.71h0Z"/>
        <path class="cls-4" d="m478.08,276.65v22.11c62.56,0,113.45,50.89,113.45,113.45v1.75c0,50.24-40.87,91.12-91.12,91.12-7.83,0-15.35-1.36-22.34-3.86v23.11c7.14,1.86,14.62,2.85,22.34,2.85,62.43,0,113.22-50.79,113.22-113.22v-1.75c0-74.75-60.81-135.56-135.56-135.56Z"/>
        <path class="cls-4" d="m485.9,386.44c20.44,0,39.07,12.04,47.46,30.67l6.82,15.14,20.15-9.08-6.82-15.14c-11.96-26.54-38.5-43.69-67.62-43.69-2.64,0-5.25.14-7.82.41v22.28c2.55-.39,5.17-.59,7.82-.59Z"/>
        <path class="cls-7" d="m294.65,299.99l27.31-39.81,18.24,12.51-27.31,39.81-18.24-12.51Z"/>
        <path class="cls-3" d="m238.77,272.7l18.24-12.51,27.31,39.81-18.24,12.51-27.31-39.81Z"/>
        <path class="cls-8" d="m236.36,346.68v137.73c0,39.17,21.37,73.35,53.08,91.52l5.53-169.44-5.53-112.89c-29.31,0-53.08,23.76-53.08,53.08h0Z"/>
        <path class="cls-9" d="m613.64,589.82v-13.26c-21.22-30.9-56.3-49.37-93.78-49.37h-87.86c-49.42,0-89.48-40.06-89.48-89.48v-91.03c0-29.31-23.76-53.08-53.08-53.08v282.33c15.42,8.84,33.28,13.89,52.33,13.89h271.86Z"/>
      </g>
    </g>
  </g>
</svg>