<svg xmlns="http://www.w3.org/2000/svg" viewBox="0 0 850 850"><defs><style>.cls-1{fill:#fff;}.cls-2{fill:#bbc14d;}.cls-3{fill:#868e00;}.cls-4{fill:#9ea700;}</style></defs><g id="Layer_2" data-name="Layer 2"><g id="Layer_1-2" data-name="Layer 1"><rect class="cls-1" width="850" height="850" rx="72.61"/><path class="cls-2" d="M395.53,403.4C454.75,485.08,425,607.68,425,607.68s-125.77-9.84-185-91.52-29.47-204.27-29.47-204.27S336.31,321.72,395.53,403.4Z"/><path class="cls-3" d="M454.47,403.4C395.25,485.08,425,607.68,425,607.68s125.77-9.84,185-91.52,29.47-204.27,29.47-204.27S513.69,321.72,454.47,403.4Z"/><path class="cls-4" d="M521.05,425c0,100.89-96,182.68-96,182.68S329,525.89,329,425,425,242.32,425,242.32,521.05,324.11,521.05,425Z"/></g></g></svg>