<svg xmlns="http://www.w3.org/2000/svg" viewBox="0 0 850 850">
    <defs>
        <style>.cls-1{fill:#fff;}.cls-2{fill:#9ea700;}.cls-3{fill:#becd64;}.cls-4{fill:#d8dc99;}</style>
    </defs>
    <g id="Layer_2" data-name="Layer 2">
        <g id="Layer_1-2" data-name="Layer 1">
            <rect class="cls-1" width="850" height="850" rx="72.61" />
            <path class="cls-2"
                d="M633.57,314.24V628A36.54,36.54,0,0,1,597,664.57H304.63A36.54,36.54,0,0,1,268.08,628V226a36.54,36.54,0,0,1,36.55-36.55H508.76a36.54,36.54,0,0,1,26,10.78l88.08,88.08A36.54,36.54,0,0,1,633.57,314.24Z" />
            <path class="cls-3"
                d="M633.57,314.24v3.11H542.2a36.54,36.54,0,0,1-36.55-36.55V189.43h3.11a36.54,36.54,0,0,1,26,10.78l88.08,88.08A36.54,36.54,0,0,1,633.57,314.24Z" />
            <circle class="cls-4" cx="286.35" cy="481.82" r="127.92" />
            <path class="cls-2"
                d="M258.94,522.94a13.52,13.52,0,0,1-9.14-4.57,13.71,13.71,0,0,1,0-18.27l23.39-23.39V427a13.71,13.71,0,1,1,27.41,0v54.82a13.66,13.66,0,0,1-4,9.69l-28.5,26.86A13.56,13.56,0,0,1,258.94,522.94Z" />
        </g>
    </g>
</svg>