<svg xmlns="http://www.w3.org/2000/svg" viewBox="0 0 850 850"><defs><style>.cls-1{fill:#fff;}.cls-2{fill:#e2e5b3;}.cls-3{opacity:0.1;isolation:isolate;}.cls-4{fill:#cfd380;}.cls-5{fill:#9ea700;}.cls-6{fill:#868e00;}.cls-7{fill:#bbc14d;}</style></defs><g id="Layer_2" data-name="Layer 2"><g id="Layer_1-2" data-name="Layer 1"><rect class="cls-1" width="850" height="850" rx="72.61"/><path class="cls-2" d="M606.66,243.34c7.66,7.66-9.36,37.12-17,44.78L220.45,657.31a16.17,16.17,0,0,1-22.86,0l-4.9-4.9a16.18,16.18,0,0,1,0-22.87L561.87,260.36C569.54,252.7,599,235.67,606.66,243.34Z"/><path class="cls-3" d="M461.65,416.11l-77.6,77.59c1.45-16.77-14-28.93-27.18-28.33l83.89-83.89a116.87,116.87,0,0,1,10.35,23.26,73.82,73.82,0,0,1,10.54,11.37Z"/><path class="cls-4" d="M575.79,274.21c-6.38,91.87-24,153.5-63.9,249.57-22.61,22.61-20.16,61.73,5.47,87.36s64.75,28.08,87.36,5.47c86.56-86.56,73.62-239.85-28.93-342.4Z"/><path class="cls-5" d="M575.79,274.21c-112.51,52.66-176.14,83.31-249.57,63.9-22.61,22.61-61.73,20.16-87.36-5.47s-28.08-64.75-5.47-87.36C320,158.72,473.24,171.66,575.79,274.21Z"/><path class="cls-5" d="M511.89,523.77c-22.61,22.62-61.73,20.17-87.36-5.47s-28.09-64.76-5.48-87.37c1.87-12,48.28-116.43,156.74-156.73C627.06,325.47,598.45,437.21,511.89,523.77Z"/><path class="cls-4" d="M575.79,274.21,419.06,431c-22.61,22.61-61.71,20.18-87.36-5.48s-28.09-64.75-5.48-87.36C412.78,251.55,524.53,222.94,575.79,274.21Z"/><path class="cls-6" d="M233.39,245.27l92.84,92.84c-22.61,22.61-61.72,20.17-87.36-5.47S210.78,267.88,233.39,245.27Z"/><path class="cls-6" d="M511.89,523.77c-22.61,22.62-61.73,20.17-87.36-5.47s-28.09-64.76-5.48-87.37Z"/><path class="cls-7" d="M604.73,616.62c-22.61,22.61-61.74,20.14-87.36-5.48s-28.09-64.75-5.48-87.37Z"/><path class="cls-7" d="M326.23,338.11l92.82,92.83c-22.61,22.61-61.7,20.18-87.34-5.46S303.62,360.72,326.23,338.11Z"/><path class="cls-3" d="M604.71,616.6c-22.6,22.64-61.72,20.18-87.35-5.46-1.76-1.76-3.42-3.6-5-5.48,63.49-46.47,139.39-155.74,114-264.9,53.14,94.53,47.59,206.55-21.7,275.84Z"/></g></g></svg>