<svg xmlns="http://www.w3.org/2000/svg" viewBox="0 0 850 850"><defs><style>.cls-1{fill:#fff;}.cls-2{fill:#9ea700;}</style></defs><g id="Layer_2" data-name="Layer 2"><g id="Layer_1-2" data-name="Layer 1"><rect class="cls-1" width="850" height="850" rx="72.61"/><path class="cls-2" d="M496.06,255.4H353.94c-61.73,0-98.54,36.81-98.54,98.54V496.06c0,61.73,36.81,98.54,98.54,98.54H496.06c61.73,0,98.54-36.81,98.54-98.54V353.94c0-61.73-36.81-98.54-98.54-98.54ZM390.57,474.18l-38.16,38.16a12.54,12.54,0,0,1-9,3.73,12.26,12.26,0,0,1-9-3.73l-12.72-12.72a12.49,12.49,0,0,1,0-18,12.8,12.8,0,0,1,18,0l3.73,3.74,29.18-29.17a12.71,12.71,0,1,1,18,18Zm0-118.71-38.16,38.15a12.55,12.55,0,0,1-9,3.74,12.27,12.27,0,0,1-9-3.74l-12.72-12.71a12.49,12.49,0,0,1,0-18,12.78,12.78,0,0,1,18,0l3.73,3.73,29.18-29.17a12.71,12.71,0,1,1,18,18ZM519.29,503.35h-89a12.72,12.72,0,1,1,0-25.44h89a12.72,12.72,0,1,1,0,25.44Zm0-118.71h-89a12.72,12.72,0,0,1,0-25.44h89a12.72,12.72,0,1,1,0,25.44Z"/></g></g></svg>