<?xml version="1.0" encoding="UTF-8"?>
<svg id="Layer_2" data-name="Layer 2" xmlns="http://www.w3.org/2000/svg" viewBox="0 0 850 850">
  <defs>
    <style>
      .cls-1 {
        fill: #fff;
      }
    </style>
  </defs>
  <g id="Layer_1-2" data-name="Layer 1">
    <g>
      <rect class="cls-1" x="0" width="850" height="850" rx="72.61" ry="72.61"/>
      <polygon class="cls-1" points="433.41 458.12 643.38 458.12 595.41 569.67 463.47 582.55 433.41 458.12"/>
      <g>
        <path d="m436.63,419.06l78.24,111.91h-32.11l-63.85-91.32h0s-9.37-13.41-9.37-13.41l-74.58-106.69h32.11l60.19,86.1,9.37,13.41Z"/>
        <path d="m561.27,251.16h-272.55c-20.75,0-37.57,16.82-37.57,37.57v272.55c0,20.75,16.82,37.57,37.57,37.57h272.55c20.75,0,37.57-16.82,37.57-37.57v-272.55c0-20.75-16.82-37.57-37.57-37.57h0Zm-88.35,294.84l-64.61-94.03-80.89,94.03h-20.91l92.51-107.54-92.51-134.64h70.56l61.18,89.04,76.6-89.04h20.91l-88.22,102.55h0l95.95,139.63h-70.56Z"/>
      </g>
    </g>
  </g>
</svg>