<?xml version="1.0" encoding="UTF-8"?>
<svg id="Layer_2" data-name="Layer 2" xmlns="http://www.w3.org/2000/svg" viewBox="0 0 850 850">
  <defs>
    <style>
      .cls-1 {
        fill: #fff;
      }

      .cls-2 {
        fill: #9ea700;
      }

      .cls-3 {
        fill: #d3d39f;
      }

      .cls-4 {
        fill: #c1bf8b;
      }

      .cls-5 {
        fill: #8e8e03;
      }

      .cls-6 {
        fill: #cccc96;
      }

      .cls-7 {
        fill: #e6e8ac;
      }
    </style>
  </defs>
  <g id="Layer_1-2" data-name="Layer 1">
    <g>
      <rect class="cls-1" width="850" height="850" rx="72.61" ry="72.61"/>
      <g>
        <path class="cls-7" d="m612.63,248.18v352.95c0,9.73-25.6,28.48-25.6,28.48h-59.26l-6.94-2.39-4.98,2.39h-86.87l-5.96-2.39-5.96,2.39h-86.87l-5.52-3.18-6.4,3.18h-80.89c-6.59,0-11.93-5.34-11.93-11.93v-282.08l2.39-5.17-2.39-6.76v-38.1l7.95-36.69c0-6.58,5.34-11.93,11.92-11.93l349.89,2.46c6.58,0,17.45,5.34,17.45,8.78h0Z"/>
        <path class="cls-6" d="m613.88,323.66v11.93h-86.12v294.01h-11.93v-294.01h-86.87v294.01h-11.93v-294.01h-86.87v294.01h-11.93v-294.01h-92.81v-11.93h92.81v-51.11c0-3.3,2.67-5.96,5.96-5.96s5.96,2.66,5.96,5.96v51.11h86.87v-51.11c0-3.3,2.67-5.96,5.96-5.96s5.96,2.66,5.96,5.96v51.11h86.87v-51.11c0-3.3,2.67-5.96,5.96-5.96s5.96,2.66,5.96,5.96v51.11h86.12Z"/>
        <path class="cls-2" d="m617.45,249.2v33.74l-23.6,2.54-368.43.08v-39.23c0-6.59,5.34-11.93,11.93-11.93h350.14l15.98.83c6.58,0,13.98,7.39,13.98,13.98h0Z"/>
        <g>
          <path class="cls-3" d="m612.82,278.59l7.76,6.89v38.19l-1.84,4.42,1.84,7.51v282.08c0,6.59-4.25,11.93-9.5,11.93h-17.23v-97.46l-7.95-19.91,7.95-18.31v-30.61l-7.95-21.63,7.95-16.58v-139.62l18.98-6.89Z"/>
          <path class="cls-4" d="m593.85,323.66h26.73v11.93h-26.73v-11.93Z"/>
          <path class="cls-5" d="m620.58,246.32v39.15h-26.76v-35.62c0-5.74.3-11.02-4.75-13.74l-3.18-1.72h22.76c6.58,0,11.93,5.34,11.93,11.93h0Z"/>
        </g>
        <g>
          <path class="cls-2" d="m293.91,398.06h-38.21c-1.76,0-3.18-1.42-3.18-3.18v-38.21c0-1.76,1.42-3.18,3.18-3.18h38.21c1.76,0,3.18,1.42,3.18,3.18v38.21c0,1.76-1.42,3.18-3.18,3.18Z"/>
          <path class="cls-2" d="m392.71,398.06h-38.21c-1.76,0-3.18-1.42-3.18-3.18v-38.21c0-1.76,1.42-3.18,3.18-3.18h38.21c1.76,0,3.18,1.42,3.18,3.18v38.21c0,1.76-1.42,3.18-3.18,3.18Z"/>
          <path class="cls-2" d="m491.51,466.49h-38.21c-1.76,0-3.18-1.42-3.18-3.18v-38.21c0-1.76,1.42-3.18,3.18-3.18h38.21c1.76,0,3.18,1.42,3.18,3.18v38.21c0,1.76-1.42,3.18-3.18,3.18Z"/>
          <path class="cls-2" d="m491.51,535.32h-38.21c-1.76,0-3.18-1.42-3.18-3.18v-38.21c0-1.76,1.42-3.18,3.18-3.18h38.21c1.76,0,3.18,1.42,3.18,3.18v38.21c0,1.76-1.42,3.18-3.18,3.18Z"/>
          <path class="cls-2" d="m391.94,603.56h-38.21c-1.76,0-3.18-1.42-3.18-3.18v-38.21c0-1.76,1.42-3.18,3.18-3.18h38.21c1.76,0,3.18,1.42,3.18,3.18v38.21c0,1.76-1.42,3.18-3.18,3.18Z"/>
          <path class="cls-2" d="m590.67,535.32h-38.21c-1.76,0-3.18-1.42-3.18-3.18v-38.21c0-1.76,1.42-3.18,3.18-3.18h38.21c1.76,0,3.18,1.42,3.18,3.18v38.21c0,1.76-1.42,3.18-3.18,3.18Z"/>
          <path class="cls-2" d="m391.94,535.32h-38.21c-1.76,0-3.18-1.42-3.18-3.18v-38.21c0-1.76,1.42-3.18,3.18-3.18h38.21c1.76,0,3.18,1.42,3.18,3.18v38.21c0,1.76-1.42,3.18-3.18,3.18Z"/>
          <path class="cls-2" d="m293.16,535.32h-38.21c-1.76,0-3.18-1.42-3.18-3.18v-38.21c0-1.76,1.42-3.18,3.18-3.18h38.21c1.76,0,3.18,1.42,3.18,3.18v38.21c0,1.76-1.42,3.18-3.18,3.18Z"/>
          <path class="cls-2" d="m590.67,466.49h-38.21c-1.76,0-3.18-1.42-3.18-3.18v-38.21c0-1.76,1.42-3.18,3.18-3.18h38.21c1.76,0,3.18,1.42,3.18,3.18v38.21c0,1.76-1.42,3.18-3.18,3.18Z"/>
        </g>
      </g>
    </g>
  </g>
</svg>