<svg width="850" height="850" viewBox="0 0 850 850" fill="none" xmlns="http://www.w3.org/2000/svg">
<g clip-path="url(#clip0_7412_5341)">
<path d="M777.39 0H72.61C32.5086 0 0 32.5086 0 72.61V777.39C0 817.491 32.5086 850 72.61 850H777.39C817.491 850 850 817.491 850 777.39V72.61C850 32.5086 817.491 0 777.39 0Z" fill="#26261A"/>
<path d="M657 657L585 289H265L193 657H657Z" fill="#BCBBA7"/>
<path d="M385 657H193L195.44 644.55L265 289H313L382.56 644.55L385 657Z" fill="#A8A894"/>
<path d="M385 657H372.5L289 587.41L205.5 657H193L195.44 644.55L281 573.25V489H297V573.25L382.56 644.55L385 657Z" fill="#BCBBA7"/>
<path d="M281 289H297V433H281V289Z" fill="#BCBBA7"/>
<path d="M281 449H297V465H281V449Z" fill="#BCBBA7"/>
<path d="M497 473C514.673 473 529 458.673 529 441C529 423.327 514.673 409 497 409C479.327 409 465 423.327 465 441C465 458.673 479.327 473 497 473Z" fill="#A8A894"/>
<path d="M433 505H473V521H433V505Z" fill="#A8A894"/>
<path d="M489 505H569V521H489V505Z" fill="#A8A894"/>
<path d="M417 537H513V553H417V537Z" fill="#A8A894"/>
<path d="M529 537H593V553H529V537Z" fill="#A8A894"/>
<path d="M481 289H465V241C465 230.391 460.786 220.217 453.284 212.716C445.783 205.214 435.609 201 425 201C414.391 201 404.217 205.214 396.716 212.716C389.214 220.217 385 230.391 385 241V289H369V241C369 226.148 374.9 211.904 385.402 201.402C395.904 190.9 410.148 185 425 185C439.852 185 454.096 190.9 464.598 201.402C475.1 211.904 481 226.148 481 241V289Z" fill="#BAB9A8"/>
<path d="M521 353H505V241C505 230.391 500.786 220.217 493.284 212.716C485.783 205.214 475.609 201 465 201C454.391 201 444.217 205.214 436.716 212.716C429.214 220.217 425 230.391 425 241V353H409V241C409 226.148 414.9 211.904 425.402 201.402C435.904 190.9 450.148 185 465 185C479.852 185 494.096 190.9 504.598 201.402C515.1 211.904 521 226.148 521 241V353Z" fill="#A8A894"/>
<path d="M393 345H441V361H393V345Z" fill="#A8A894"/>
<path d="M489 345H537V361H489V345Z" fill="#A8A894"/>
</g>
<defs>
<clipPath id="clip0_7412_5341">
<rect width="850" height="850" fill="white"/>
</clipPath>
</defs>
</svg>
