<svg width="30" height="36" viewBox="0 0 30 36" fill="none" xmlns="http://www.w3.org/2000/svg">
<path d="M25.875 0H4.125C3.03123 0.000794606 1.98248 0.435647 1.20906 1.20906C0.435647 1.98248 0.000794606 3.03123 0 4.125V31.875C0.000794606 32.9688 0.435647 34.0175 1.20906 34.7909C1.98248 35.5644 3.03123 35.9992 4.125 36H25.875C26.9688 35.9992 28.0175 35.5644 28.7909 34.7909C29.5644 34.0175 29.9992 32.9688 30 31.875V4.125C29.9992 3.03123 29.5644 1.98248 28.7909 1.20906C28.0175 0.435647 26.9688 0.000794606 25.875 0ZM10.5 31.5H5.625C5.32663 31.5 5.04048 31.3815 4.8295 31.1705C4.61853 30.9595 4.5 30.6734 4.5 30.375V26.625H10.5V31.5ZM10.5 24.375H4.5V19.125H10.5V24.375ZM10.5 16.875H4.5V13.125C4.5 12.8266 4.61853 12.5405 4.8295 12.3295C5.04048 12.1185 5.32663 12 5.625 12H10.5V16.875ZM25.5 30.375C25.5 30.6734 25.3815 30.9595 25.1705 31.1705C24.9595 31.3815 24.6734 31.5 24.375 31.5H12.75V26.625H25.5V30.375ZM25.5 24.375H12.75V19.125H25.5V24.375ZM25.5 16.875H12.75V12H24.375C24.6734 12 24.9595 12.1185 25.1705 12.3295C25.3815 12.5405 25.5 12.8266 25.5 13.125V16.875Z" fill="#9EA700"/>
</svg>
