<svg width="36" height="36" viewBox="0 0 36 36" fill="none" xmlns="http://www.w3.org/2000/svg">
<g clip-path="url(#clip0_4963_1057)">
<path d="M28.875 0H7.125C6.03123 0.000794606 4.98248 0.435647 4.20906 1.20906C3.43565 1.98248 3.00079 3.03123 3 4.125V31.875C3.00079 32.9688 3.43565 34.0175 4.20906 34.7909C4.98248 35.5644 6.03123 35.9992 7.125 36H28.875C29.9688 35.9992 31.0175 35.5644 31.7909 34.7909C32.5644 34.0175 32.9992 32.9688 33 31.875V4.125C32.9992 3.03123 32.5644 1.98248 31.7909 1.20906C31.0175 0.435647 29.9688 0.000794606 28.875 0ZM13.5 31.5H8.625C8.32663 31.5 8.04048 31.3815 7.8295 31.1705C7.61853 30.9595 7.5 30.6734 7.5 30.375V26.625H13.5V31.5ZM13.5 24.375H7.5V19.125H13.5V24.375ZM13.5 16.875H7.5V13.125C7.5 12.8266 7.61853 12.5405 7.8295 12.3295C8.04048 12.1185 8.32663 12 8.625 12H13.5V16.875ZM28.5 30.375C28.5 30.6734 28.3815 30.9595 28.1705 31.1705C27.9595 31.3815 27.6734 31.5 27.375 31.5H15.75V26.625H28.5V30.375ZM28.5 24.375H15.75V19.125H28.5V24.375ZM28.5 16.875H15.75V12H27.375C27.6734 12 27.9595 12.1185 28.1705 12.3295C28.3815 12.5405 28.5 12.8266 28.5 13.125V16.875Z" fill="#0F9D58"/>
</g>
<defs>
<clipPath id="clip0_4963_1057">
<rect width="36" height="36" fill="white"/>
</clipPath>
</defs>
</svg>
