<svg width="850" height="850" viewBox="0 0 850 850" fill="none" xmlns="http://www.w3.org/2000/svg">
<g clip-path="url(#clip0_106_467)">
<path d="M777.39 0H72.61C32.5086 0 0 32.5086 0 72.61V777.39C0 817.491 32.5086 850 72.61 850H777.39C817.491 850 850 817.491 850 777.39V72.61C850 32.5086 817.491 0 777.39 0Z" fill="#26261A"/>
<path d="M377.16 472.573C364.52 468.307 362.813 463.667 362.813 459.667C362.813 452.68 368.466 447.027 375.453 447.027C382.44 447.027 388.093 452.68 388.093 459.667C388.093 462.6 390.493 465 393.426 465C396.36 465 398.76 462.6 398.76 459.667C398.76 448.627 391.08 439.453 380.786 437V432.68C380.786 429.747 378.386 427.347 375.453 427.347C372.52 427.347 370.12 429.747 370.12 432.68V437C365.006 438.197 360.448 441.088 357.185 445.203C353.922 449.318 352.146 454.415 352.146 459.667C352.146 475.453 368.413 480.893 373.746 482.707C386.493 486.973 388.093 491.88 388.093 495.613C388.093 502.6 382.44 508.253 375.453 508.253C368.466 508.253 362.813 502.6 362.813 495.613C362.706 488.627 352.253 488.627 352.146 495.613C352.146 506.653 359.826 515.827 370.12 518.28V522.6C370.12 525.533 372.52 527.933 375.453 527.933C378.386 527.933 380.786 525.533 380.786 522.6V518.28C385.9 517.083 390.458 514.192 393.721 510.077C396.984 505.962 398.76 500.865 398.76 495.613C398.76 479.827 382.493 474.387 377.16 472.573ZM408.573 319.987H342.333C327.72 319.613 327.666 298.12 342.333 297.747H408.573C423.186 298.12 423.24 319.613 408.573 319.987ZM336.306 293.587C336.093 291.293 406.226 292.787 408.573 292.413C410.92 292.413 413.16 292.947 415.24 293.853C424.733 284.413 434.866 271.347 438.546 243.72C442.28 215.613 440.04 200.733 431.08 194.013C419.72 184.947 398.493 194.44 373.373 205.533C369.693 207.133 363.026 203.987 356.626 200.893C347.933 196.733 338.066 192.04 328.253 194.92C302.12 204.787 299.88 242.6 315.186 265.533C324.306 280.307 331.08 288.253 336.36 293.64L336.306 293.587Z" fill="#A9A78E"/>
<path d="M397.747 586.173C393.32 578.547 395.987 568.733 403.613 564.307L418.12 555.933C417.427 549.64 417.32 543.347 417.747 537.107C370.653 571.56 301.8 536.467 302.387 477.587C304.04 393.693 419.24 377.107 445.16 455.72L458.333 463.347C464.461 458.827 471.081 455.016 478.067 451.987V435.24C478.067 426.44 485.267 419.24 494.067 419.24H504.68C489.32 378.44 456.253 335.88 420.253 320.307C417.267 323.347 413.107 325.267 408.52 325.267H342.28C337.693 325.267 333.533 323.347 330.547 320.307C267.453 349.053 228.093 437.267 228.68 505.48C223.347 616.947 290.973 619.613 414.92 616.04L397.693 586.173H397.747Z" fill="#A9A78E"/>
<path d="M627.826 573.587L607.08 561.587C609.213 550.44 609.16 538.867 607.08 527.613L627.88 515.613C630.44 514.12 631.293 510.867 629.853 508.307L605.586 466.227C604.872 465.003 603.705 464.11 602.338 463.741C600.97 463.371 599.512 463.556 598.28 464.253L577.48 476.253C568.884 468.71 558.877 462.945 548.04 459.293V435.293C548.04 432.36 545.64 429.96 542.706 429.96H494.12C491.186 429.96 488.786 432.36 488.786 435.293V459.347C477.96 463.08 467.933 468.893 459.346 476.307L438.6 464.307C436.04 462.813 432.786 463.72 431.293 466.28L407.026 508.36C405.533 510.92 406.44 514.173 409 515.667L429.746 527.667C427.613 538.813 427.666 550.387 429.746 561.64L408.946 573.64C406.386 575.133 405.533 578.387 406.973 580.947L431.24 623.027C432.626 625.533 436.04 626.44 438.546 625L459.346 613C468.2 620.68 477.64 626.173 488.786 629.96V653.96C488.786 656.893 491.186 659.293 494.12 659.293H542.706C545.64 659.293 548.04 656.893 548.04 653.96V629.907C558.866 626.173 568.893 620.36 577.48 612.947L598.226 624.947C600.68 626.44 604.146 625.48 605.533 622.973L629.8 580.893C631.293 578.333 630.386 575.08 627.826 573.587ZM488.413 527.293C503.186 500.68 544.626 506.44 551.826 535.667C560.093 564.893 527.24 590.12 501.053 574.6C484.52 565.053 478.866 543.827 488.36 527.293H488.413Z" fill="#A9A78E"/>
</g>
<defs>
<clipPath id="clip0_106_467">
<rect width="850" height="850" fill="white"/>
</clipPath>
</defs>
</svg>
