<svg xmlns="http://www.w3.org/2000/svg" version="1.1" xmlns:xlink="http://www.w3.org/1999/xlink" width="512" height="512" x="0" y="0" viewBox="0 0 512 512" style="enable-background:new 0 0 512 512" xml:space="preserve" class=""><g><path d="M459.92 49.07h-24.41V28.86C435.52 12.95 422.57 0 406.66 0c-15.93 0-28.89 12.95-28.89 28.86v20.21h-42.69V28.86C335.09 12.95 322.14 0 306.23 0c-15.93 0-28.88 12.95-28.88 28.86v20.21h-42.69V28.86C234.66 12.95 221.7 0 205.77 0c-15.91 0-28.86 12.95-28.86 28.86v20.21h-42.69V28.86C134.22 12.95 121.27 0 105.34 0 89.43 0 76.48 12.95 76.48 28.86v20.21h-24.4c-20.57 0-37.3 16.72-37.3 37.28v388.38c0 20.55 16.73 37.28 37.3 37.28h407.85c20.57 0 37.3-16.72 37.3-37.28V86.35c0-20.56-16.74-37.28-37.31-37.28zm-66.16-20.21c0-7.1 5.79-12.87 12.9-12.87 7.1 0 12.87 5.77 12.87 12.87v56.41c0 7.1-5.77 12.87-12.87 12.87-7.11 0-12.9-5.77-12.9-12.87zm-100.43 0c0-7.1 5.79-12.87 12.9-12.87 7.1 0 12.87 5.77 12.87 12.87v56.41c0 7.1-5.77 12.87-12.87 12.87-7.11 0-12.9-5.77-12.9-12.87zm-100.43 0c0-7.1 5.77-12.87 12.87-12.87 7.11 0 12.9 5.77 12.9 12.87v56.41c0 7.1-5.79 12.87-12.9 12.87-7.1 0-12.87-5.77-12.87-12.87zm-100.43 0c0-7.1 5.77-12.87 12.87-12.87 7.11 0 12.9 5.77 12.9 12.87v56.41c0 7.1-5.79 12.87-12.9 12.87-7.1 0-12.87-5.77-12.87-12.87zm-40.39 36.2h24.41v20.21c0 15.91 12.95 28.86 28.86 28.86 15.93 0 28.88-12.95 28.88-28.86V65.06h42.69v20.21c0 15.91 12.94 28.86 28.86 28.86 15.93 0 28.89-12.95 28.89-28.86V65.06h42.69v20.21c0 15.91 12.96 28.86 28.88 28.86 15.91 0 28.86-12.95 28.86-28.86V65.06h42.69v20.21c0 15.91 12.96 28.86 28.89 28.86 15.91 0 28.86-12.95 28.86-28.86V65.06h24.41c11.75 0 21.32 9.55 21.32 21.29v53.04H30.76V86.35c0-11.74 9.56-21.29 21.32-21.29zm407.84 430.95H52.08c-11.75 0-21.32-9.55-21.32-21.29V155.37h450.48v319.35c0 11.74-9.56 21.29-21.32 21.29zm-74.48-190.38c9.26 34.59 4.5 70.7-13.39 101.69-17.9 30.99-46.8 53.16-81.38 62.42-11.55 3.1-23.27 4.63-34.92 4.63-23.21 0-46.11-6.09-66.75-18-30.99-17.89-53.17-46.79-62.44-81.37-11.4-42.58-1.11-88.06 27.52-121.66 2.86-3.36 7.91-3.76 11.27-.9s3.76 7.91.9 11.27c-25.22 29.6-34.28 69.66-24.24 107.15 8.17 30.46 27.7 55.91 54.99 71.67 27.3 15.76 59.09 19.94 89.53 11.77 30.46-8.15 55.91-27.68 71.67-54.97s19.95-59.1 11.8-89.56c-15.18-56.58-70.74-93.62-128.24-86.61l20.26 16.36c3.43 2.77 3.97 7.81 1.2 11.24a7.96 7.96 0 0 1-6.22 2.97c-1.76 0-3.54-.58-5.02-1.78l-33.59-27.13c-3.43-2.77-3.97-7.8-1.2-11.24l27.13-33.62c2.77-3.44 7.81-3.97 11.24-1.2 3.44 2.77 3.97 7.8 1.2 11.24l-13.65 16.91c29.55-2.89 59.24 4.13 84.61 20.2 28.48 18.05 48.98 45.94 57.72 78.52zm-121.45-30.55v57.26h57.26c4.42 0 7.99 3.58 7.99 7.99s-3.58 7.99-7.99 7.99H256c-4.42 0-7.99-3.58-7.99-7.99v-65.25c0-4.42 3.58-7.99 7.99-7.99 4.41-.01 7.99 3.57 7.99 7.99z" fill="rgba(134,134,134,1)" opacity="1" data-original="#000000" class=""></path></g></svg>