<svg width="22" height="24" viewBox="0 0 22 24" fill="none" xmlns="http://www.w3.org/2000/svg">
<path d="M2.44444 11.6111C2.44444 11.9942 3.0079 12.6603 4.31502 13.3138C6.00606 14.1593 8.40494 14.6667 11 14.6667C13.595 14.6667 15.9939 14.1593 17.6849 13.3138C18.9921 12.6603 19.5556 11.9942 19.5556 11.6111V8.9573C17.5389 10.2034 14.4556 11 11 11C7.54445 11 4.46106 10.2034 2.44444 8.9573V11.6111ZM19.5556 15.0684C17.5389 16.3145 14.4556 17.1111 11 17.1111C7.54445 17.1111 4.46106 16.3145 2.44444 15.0684V17.7222C2.44444 18.1053 3.0079 18.7714 4.31502 19.4249C6.00606 20.2704 8.40494 20.7778 11 20.7778C13.595 20.7778 15.9939 20.2704 17.6849 19.4249C18.9921 18.7714 19.5556 18.1053 19.5556 17.7222V15.0684ZM0 17.7222V5.5C0 2.46244 4.92487 0 11 0C17.0752 0 22 2.46244 22 5.5V17.7222C22 20.7598 17.0752 23.2222 11 23.2222C4.92487 23.2222 0 20.7598 0 17.7222ZM11 8.55556C13.595 8.55556 15.9939 8.04824 17.6849 7.20272C18.9921 6.54916 19.5556 5.88307 19.5556 5.5C19.5556 5.11693 18.9921 4.45085 17.6849 3.79729C15.9939 2.95176 13.595 2.44444 11 2.44444C8.40494 2.44444 6.00606 2.95176 4.31502 3.79729C3.0079 4.45085 2.44444 5.11693 2.44444 5.5C2.44444 5.88307 3.0079 6.54916 4.31502 7.20272C6.00606 8.04824 8.40494 8.55556 11 8.55556Z" fill="#868686"/>
</svg>
