<svg width="24" height="24" viewBox="0 0 24 26" fill="none" xmlns="http://www.w3.org/2000/svg">
<path d="M2.66667 12.6667C2.66667 13.0845 3.28135 13.8112 4.70729 14.5241C6.55207 15.4465 9.16903 16 12 16C14.8309 16 17.4479 15.4465 19.2927 14.5241C20.7187 13.8112 21.3333 13.0845 21.3333 12.6667V9.7716C19.1333 11.1309 15.7697 12 12 12C8.23031 12 4.86661 11.1309 2.66667 9.7716V12.6667ZM21.3333 16.4383C19.1333 17.7976 15.7697 18.6667 12 18.6667C8.23031 18.6667 4.86661 17.7976 2.66667 16.4383V19.3333C2.66667 19.7512 3.28135 20.4779 4.70729 21.1908C6.55207 22.1132 9.16903 22.6667 12 22.6667C14.8309 22.6667 17.4479 22.1132 19.2927 21.1908C20.7187 20.4779 21.3333 19.7512 21.3333 19.3333V16.4383ZM0 19.3333V6C0 2.68629 5.37259 0 12 0C18.6275 0 24 2.68629 24 6V19.3333C24 22.6471 18.6275 25.3333 12 25.3333C5.37259 25.3333 0 22.6471 0 19.3333ZM12 9.33333C14.8309 9.33333 17.4479 8.77989 19.2927 7.85751C20.7187 7.14453 21.3333 6.41789 21.3333 6C21.3333 5.58211 20.7187 4.85547 19.2927 4.14249C17.4479 3.22011 14.8309 2.66667 12 2.66667C9.16903 2.66667 6.55207 3.22011 4.70729 4.14249C3.28135 4.85547 2.66667 5.58211 2.66667 6C2.66667 6.41789 3.28135 7.14453 4.70729 7.85751C6.55207 8.77989 9.16903 9.33333 12 9.33333Z" fill="#868686"/>
</svg>
