<svg xmlns="http://www.w3.org/2000/svg" version="1.1" xmlns:xlink="http://www.w3.org/1999/xlink" width="512" height="512" x="0" y="0" viewBox="0 0 32 32" style="enable-background:new 0 0 512 512" xml:space="preserve"><g><path d="M6 25.873h14.373c3.032 0 5.5-2.467 5.5-5.5V6c0-3.033-2.468-5.5-5.5-5.5H6A5.506 5.506 0 0 0 .5 6v14.373c0 3.033 2.467 5.5 5.5 5.5zM3.5 6c0-1.378 1.122-2.5 2.5-2.5h14.373c1.379 0 2.5 1.122 2.5 2.5v14.373c0 1.378-1.121 2.5-2.5 2.5H6a2.503 2.503 0 0 1-2.5-2.5z" fill="#ffffff" opacity="1" data-original="#000000"></path><path d="M30 11.687a1.5 1.5 0 0 0-1.5 1.5V24c0 2.481-2.019 4.5-4.5 4.5H13.187a1.5 1.5 0 1 0 0 3H24c4.136 0 7.5-3.364 7.5-7.5V13.187a1.5 1.5 0 0 0-1.5-1.5zM8.703 14.687h2.984v2.982a1.5 1.5 0 1 0 3 0v-2.982h2.983a1.5 1.5 0 0 0 0-3h-2.983V8.703a1.5 1.5 0 1 0-3 0v2.984H8.703a1.5 1.5 0 1 0 0 3z" fill="#ffffff" opacity="1" data-original="#000000"></path></g></svg>