<svg width="23" height="26" viewBox="0 0 23 26" fill="none" xmlns="http://www.w3.org/2000/svg">
<path d="M1 6.25V19.375C1 22.2756 5.70137 24.625 11.5 24.625C17.2986 24.625 22 22.2756 22 19.375V6.25M1 6.25C1 9.15063 5.70137 11.5 11.5 11.5C17.2986 11.5 22 9.15063 22 6.25M1 6.25C1 3.34937 5.70137 1 11.5 1C17.2986 1 22 3.34937 22 6.25M22 12.8125C22 15.7131 17.2986 18.0625 11.5 18.0625C5.70137 18.0625 1 15.7131 1 12.8125" stroke="#868686" stroke-width="1.5" stroke-linecap="round" stroke-linejoin="round"/>
</svg>
