<svg width="24" height="24" viewBox="0 0 16 17" fill="none" xmlns="http://www.w3.org/2000/svg">
<path d="M3.22917 8.82292C3.22917 9.02532 3.5269 9.3773 4.2176 9.72263C5.11116 10.1694 6.37875 10.4375 7.75 10.4375C9.12123 10.4375 10.3888 10.1694 11.2824 9.72263C11.9731 9.3773 12.2708 9.02532 12.2708 8.82292V7.42062C11.2052 8.07905 9.57596 8.5 7.75 8.5C5.92405 8.5 4.29477 8.07905 3.22917 7.42062V8.82292ZM12.2708 10.6498C11.2052 11.3082 9.57596 11.7292 7.75 11.7292C5.92405 11.7292 4.29477 11.3082 3.22917 10.6498V12.0521C3.22917 12.2545 3.5269 12.6065 4.2176 12.9518C5.11116 13.3986 6.37875 13.6667 7.75 13.6667C9.12123 13.6667 10.3888 13.3986 11.2824 12.9518C11.9731 12.6065 12.2708 12.2545 12.2708 12.0521V10.6498ZM1.9375 12.0521V5.59375C1.9375 3.98867 4.53985 2.6875 7.75 2.6875C10.9602 2.6875 13.5625 3.98867 13.5625 5.59375V12.0521C13.5625 13.6572 10.9602 14.9583 7.75 14.9583C4.53985 14.9583 1.9375 13.6572 1.9375 12.0521ZM7.75 7.20833C9.12123 7.20833 10.3888 6.94026 11.2824 6.49348C11.9731 6.14813 12.2708 5.79617 12.2708 5.59375C12.2708 5.39133 11.9731 5.03937 11.2824 4.69402C10.3888 4.24724 9.12123 3.97917 7.75 3.97917C6.37875 3.97917 5.11116 4.24724 4.2176 4.69402C3.5269 5.03937 3.22917 5.39133 3.22917 5.59375C3.22917 5.79617 3.5269 6.14813 4.2176 6.49348C5.11116 6.94026 6.37875 7.20833 7.75 7.20833Z" fill="#717684"/>
</svg>
