<svg width="16" height="17" viewBox="0 0 16 17" fill="none" xmlns="http://www.w3.org/2000/svg">
<path d="M1.9375 3.33333C1.9375 2.97665 2.22665 2.6875 2.58333 2.6875H6.45833C6.81503 2.6875 7.10417 2.97665 7.10417 3.33333V7.20833C7.10417 7.56503 6.81503 7.85417 6.45833 7.85417H2.58333C2.22665 7.85417 1.9375 7.56503 1.9375 7.20833V3.33333ZM1.9375 9.79167C1.9375 9.43497 2.22665 9.14583 2.58333 9.14583H6.45833C6.81503 9.14583 7.10417 9.43497 7.10417 9.79167V13.6667C7.10417 14.0234 6.81503 14.3125 6.45833 14.3125H2.58333C2.22665 14.3125 1.9375 14.0234 1.9375 13.6667V9.79167ZM8.39583 3.33333C8.39583 2.97665 8.68497 2.6875 9.04167 2.6875H12.9167C13.2734 2.6875 13.5625 2.97665 13.5625 3.33333V7.20833C13.5625 7.56503 13.2734 7.85417 12.9167 7.85417H9.04167C8.68497 7.85417 8.39583 7.56503 8.39583 7.20833V3.33333ZM8.39583 9.79167C8.39583 9.43497 8.68497 9.14583 9.04167 9.14583H12.9167C13.2734 9.14583 13.5625 9.43497 13.5625 9.79167V13.6667C13.5625 14.0234 13.2734 14.3125 12.9167 14.3125H9.04167C8.68497 14.3125 8.39583 14.0234 8.39583 13.6667V9.79167ZM9.6875 3.97917V6.5625H12.2708V3.97917H9.6875ZM9.6875 10.4375V13.0208H12.2708V10.4375H9.6875ZM3.22917 3.97917V6.5625H5.8125V3.97917H3.22917ZM3.22917 10.4375V13.0208H5.8125V10.4375H3.22917Z" fill="#717684"/>
</svg>
