<svg width="24" height="24" viewBox="0 0 24 24" fill="none" xmlns="http://www.w3.org/2000/svg">
<g clip-path="url(#clip0_6523_996)">
<path d="M21.3584 6.76748C21.3584 6.24511 21.7818 5.82169 22.3042 5.82169C22.8265 5.82169 23.25 6.24511 23.25 6.76748C23.25 7.28986 22.8266 7.71333 22.3042 7.71333C21.7818 7.71328 21.3584 7.28986 21.3584 6.76748ZM22.3042 21.3584C21.7818 21.3584 21.3584 21.7818 21.3584 22.3042C21.3584 22.8265 21.7818 23.25 22.3042 23.25C22.8265 23.25 23.25 22.8265 23.25 22.3042C23.25 21.7818 22.8266 21.3584 22.3042 21.3584ZM21.2498 15.4239C21.1501 15.8428 20.9841 16.2428 20.7583 16.6095L21.1005 17.3799L20.1925 18.2879L19.4224 17.9458C19.0557 18.1717 18.6555 18.3377 18.2365 18.4374L17.934 19.2234H17.6669V21.9292H20.65C20.5945 22.1752 20.5945 22.4332 20.65 22.6792H17.2919C17.0848 22.6792 16.9169 22.5113 16.9169 22.3042V19.2234H16.6499L16.3472 18.4373C15.9284 18.3376 15.5283 18.1715 15.1617 17.9458L14.3913 18.2879L13.4833 17.3799L13.8254 16.6098C13.5995 16.2431 13.4335 15.8429 13.3338 15.4239L12.5478 15.1214V13.8373L13.3339 13.5347C13.4336 13.1159 13.5997 12.7157 13.8255 12.3491L13.4833 11.5788L14.3913 10.6708L15.1617 11.013C15.5283 10.7872 15.9284 10.6211 16.3472 10.5215L16.6499 9.73533H16.9169V6.76753C16.9169 6.56044 17.0848 6.39253 17.2919 6.39253H20.65C20.6228 6.51314 20.6084 6.63862 20.6084 6.76753C20.6084 6.89644 20.6228 7.02192 20.65 7.14253H17.6669V9.73533H17.934L18.2365 10.5215C18.6554 10.6211 19.0555 10.7872 19.4221 11.013L20.1925 10.6708L21.1005 11.5788L20.7584 12.3489C20.9843 12.7156 21.1503 13.1158 21.25 13.5348L22.036 13.8374V15.1214L21.2498 15.4239ZM19.8738 14.4794C19.8738 13.0533 18.718 11.8975 17.2919 11.8975C15.8659 11.8975 14.71 13.0533 14.71 14.4794C14.71 15.9054 15.8658 17.0612 17.2919 17.0612C18.7179 17.0612 19.8738 15.9054 19.8738 14.4794ZM3.32644 2.64164C3.84881 2.64164 4.27223 2.21822 4.27223 1.69584C4.27223 1.17342 3.84881 0.75 3.32644 0.75C2.80406 0.75 2.38059 1.17342 2.38059 1.69584C2.38059 2.21822 2.80402 2.64164 3.32644 2.64164ZM11.0764 16.7696L11.7127 17.0145V18.054L11.0762 18.299C10.9955 18.6382 10.861 18.962 10.6783 19.2588L10.9552 19.8825L10.2202 20.6175L9.59667 20.3407C9.29981 20.5235 8.97581 20.658 8.63663 20.7386L8.3917 21.3749H7.35216L7.10719 20.7384C6.76809 20.6578 6.44419 20.5233 6.14738 20.3406L5.5237 20.6175L4.78861 19.8825L5.06555 19.259C4.88273 18.9622 4.7483 18.6382 4.66758 18.299L4.03125 18.054V17.9093H1.69584C1.48875 17.9093 1.32084 17.7414 1.32084 17.5343V14.2107C1.5668 14.2662 1.82489 14.2662 2.07084 14.2107V17.1593H4.03139V17.0145L4.66781 16.7695C4.74853 16.4304 4.88297 16.1065 5.06573 15.8097L4.78875 15.186L5.5238 14.451L6.14747 14.7279C6.44428 14.5452 6.76819 14.4107 7.10728 14.33L7.3523 13.6936H8.3918L8.63681 14.33C8.97591 14.4107 9.29977 14.5452 9.59658 14.7279L10.2203 14.451L10.9553 15.186L10.6784 15.8095C10.8613 16.1064 10.9957 16.4304 11.0764 16.7696ZM9.96225 17.5343C9.96225 16.3798 9.02653 15.444 7.87205 15.444C6.71756 15.444 5.78184 16.3798 5.78184 17.5343C5.78184 18.6888 6.71756 19.6245 7.87205 19.6245C9.02653 19.6245 9.96225 18.6888 9.96225 17.5343ZM2.64164 12.5565C2.64164 12.0342 2.21822 11.6108 1.69584 11.6108C1.17347 11.6108 0.75 12.0342 0.75 12.5565C0.75 13.0789 1.17347 13.5024 1.69584 13.5024C2.21822 13.5024 2.64164 13.079 2.64164 12.5565ZM11.0765 6.46631L11.8156 6.7508V7.95825L11.0763 8.24278C10.9826 8.63667 10.8264 9.01284 10.6142 9.35761L10.9359 10.082L10.0822 10.9358L9.35794 10.6142C9.01313 10.8265 8.63677 10.9827 8.24278 11.0765L7.9583 11.8155H6.75084L6.46631 11.0763C6.07242 10.9825 5.69625 10.8264 5.35148 10.6141L4.62703 10.9358L3.7732 10.082L4.09486 9.35784C3.88247 9.01303 3.72633 8.63667 3.63258 8.24269L2.8935 7.9582V6.75075L3.63267 6.46622C3.72642 6.07233 3.88256 5.69606 4.09491 5.3513L3.7732 4.62694L4.62703 3.77311L5.35148 4.09486C5.69625 3.88256 6.07242 3.72642 6.46631 3.63267L6.75089 2.89341H6.99492V2.07075H4.98066C5.00789 1.95014 5.02233 1.82466 5.02233 1.69575C5.02233 1.56684 5.00784 1.44136 4.98066 1.32075H7.36992C7.57702 1.32075 7.74492 1.48866 7.74492 1.69575V2.89341H7.95834L8.24288 3.63267C8.63677 3.72642 9.01298 3.88256 9.3577 4.09486L10.0821 3.77311L10.9359 4.62689L10.6143 5.35111C10.8266 5.69602 10.9828 6.07233 11.0765 6.46631ZM9.78234 7.35455C9.78234 6.01355 8.69545 4.92666 7.3545 4.92666C6.01355 4.92666 4.92666 6.01355 4.92666 7.35455C4.92666 8.6955 6.01355 9.78234 7.3545 9.78234C8.69545 9.78234 9.78234 8.6955 9.78234 7.35455Z" fill="#868686"/>
</g>
<defs>
<clipPath id="clip0_6523_996">
<rect width="24" height="24" fill="white"/>
</clipPath>
</defs>
</svg>
