<svg width="13" height="12" viewBox="0 0 24 24" fill="none" xmlns="http://www.w3.org/2000/svg">
<path d="M2 12V6H6.5V5C6.5 4.20435 6.81607 3.44129 7.37868 2.87868C7.94129 2.31607 8.70435 2 9.5 2C10.2956 2 11.0587 2.31607 11.6213 2.87868C12.1839 3.44129 12.5 4.20435 12.5 5V6H17V12H19C19.7956 12 20.5587 12.3161 21.1213 12.8787C21.6839 13.4413 22 14.2044 22 15C22 15.7956 21.6839 16.5587 21.1213 17.1213C20.5587 17.6839 19.7956 18 19 18H17V22H2V18H4C4.79565 18 5.55871 17.6839 6.12132 17.1213C6.68393 16.5587 7 15.7956 7 15C7 14.2044 6.68393 13.4413 6.12132 12.8787C5.55871 12.3161 4.79565 12 4 12H2Z" stroke="#868686" stroke-width="2" stroke-linejoin="round"/>
</svg>
