<svg width="24" height="24" viewBox="0 0 24 24" fill="none" xmlns="http://www.w3.org/2000/svg">
<g clip-path="url(#clip0_6549_1038)">
<mask id="mask0_6549_1038" style="mask-type:luminance" maskUnits="userSpaceOnUse" x="0" y="0" width="24" height="24">
<path d="M23.9992 0H0V23.9992H23.9992V0Z" fill="white"/>
</mask>
<g mask="url(#mask0_6549_1038)">
<path d="M23.4969 0H0.502326C0.224874 0 0 0.224874 0 0.502326V4.81379C0 5.09124 0.224874 5.31611 0.502326 5.31611H1.93953C2.45503 5.31611 2.87442 5.7355 2.87442 6.25094C2.87442 6.76638 2.45503 7.18577 1.93953 7.18577H0.502326C0.224874 7.18577 0 7.41064 0 7.68809V16.3111C0 16.5885 0.224874 16.8134 0.502326 16.8134H1.93953C2.45503 16.8134 2.87442 17.2328 2.87442 17.7482C2.87442 18.2637 2.45503 18.6831 1.93953 18.6831H0.502326C0.224874 18.6831 0 18.9079 0 19.1854V23.4969C0 23.7743 0.224874 23.9992 0.502326 23.9992H11.9996C12.2771 23.9992 12.5019 23.7743 12.5019 23.4969V19.1854C12.5019 18.9079 12.2771 18.6831 11.9996 18.6831H10.5624C10.047 18.6831 9.62757 18.2637 9.62757 17.7482C9.62757 17.2327 10.0469 16.8134 10.5624 16.8134H11.9996C12.2771 16.8134 12.5019 16.5885 12.5019 16.3111V12.5019H15.8088V13.4368C15.8088 14.5062 16.6788 15.3762 17.7483 15.3762C18.8178 15.3762 19.6879 14.5062 19.6879 13.4368V12.5019H23.497C23.7745 12.5019 23.9993 12.2771 23.9993 11.9996V0.502326C23.9992 0.224874 23.7743 0 23.4969 0ZM11.4973 15.8087H10.5624C9.493 15.8087 8.62292 16.6788 8.62292 17.7482C8.62292 18.8177 9.49295 19.6877 10.5624 19.6877H11.4973V22.9946H1.00465V19.6877H1.93953C3.00899 19.6877 3.87907 18.8176 3.87907 17.7482C3.87907 16.6788 3.00904 15.8087 1.93953 15.8087H1.00465V12.5019H4.81379C5.09124 12.5019 5.31611 12.2771 5.31611 11.9996V10.5624C5.31611 10.047 5.73555 9.62763 6.25105 9.62763C6.76644 9.62763 7.18582 10.047 7.18582 10.5624V11.9996C7.18582 12.2771 7.4107 12.5019 7.68815 12.5019H11.4973V15.8087H11.4973ZM11.9996 7.18577C11.7222 7.18577 11.4973 7.41064 11.4973 7.68809V11.4973H8.19042V10.5624C8.19042 9.493 7.32039 8.62298 6.25088 8.62298C5.18138 8.62298 4.31135 9.493 4.31135 10.5624V11.4973H1.00465V8.19042H1.93953C3.00899 8.19042 3.87907 7.32033 3.87907 6.25088C3.87907 5.18149 3.00904 4.31146 1.93953 4.31146H1.00465V1.00465H11.4973V4.81379C11.4973 5.09124 11.7222 5.31611 11.9996 5.31611H13.4368C13.9522 5.31611 14.3716 5.7355 14.3716 6.25094C14.3716 6.76638 13.9523 7.18577 13.4368 7.18577H11.9996ZM22.9946 11.4973H19.1855C18.908 11.4973 18.6832 11.7222 18.6832 11.9996V13.4368C18.6832 13.9523 18.2638 14.3716 17.7483 14.3716C17.2328 14.3716 16.8135 13.9523 16.8135 13.4368V11.9996C16.8135 11.7222 16.5886 11.4973 16.3111 11.4973H12.5019V8.19042H13.4368C14.5062 8.19042 15.3762 7.32033 15.3762 6.25088C15.3762 5.18149 14.5062 4.31146 13.4368 4.31146H12.5019V1.00465H22.9946V11.4973Z" fill="#868686"/>
</g>
</g>
<defs>
<clipPath id="clip0_6549_1038">
<rect width="24" height="24" fill="white"/>
</clipPath>
</defs>
</svg>
