<svg width="40" height="40" viewBox="0 0 40 40" fill="none" xmlns="http://www.w3.org/2000/svg">
<g clip-path="url(#clip0_6555_946)">
<path d="M20 0C31 0 40 9 40 20C40 31 31 40 20 40C9 40 0 31 0 20C0 9 9 0 20 0Z" fill="#145041"/>
<g clip-path="url(#clip1_6555_946)">
<path d="M15.8984 24.3246V29.998L19.416 27.9879L19.4152 22.3086L15.8984 24.3246Z" fill="white"/>
<path d="M14.168 18.6289L10.5859 20.6551L15.3098 23.3102H15.3102L18.8223 21.2969L14.168 18.6289Z" fill="white"/>
<path d="M19.4145 16.2266L14.7656 13.5391V17.6195L19.4148 20.2844L19.4145 16.2266Z" fill="white"/>
<path d="M10 26.9937C10 27.2051 10.1141 27.4004 10.298 27.5043L14.7266 30.0012V24.3281L10 21.6719V26.9937Z" fill="white"/>
<path d="M20.2875 10.0753C20.109 9.9749 19.891 9.9749 19.7125 10.0753L15.3555 12.528L19.9988 15.2128L24.6449 12.5284L20.2875 10.0753Z" fill="white"/>
<path d="M25.8326 18.6289L21.1787 21.2969L24.6908 23.3102L29.415 20.6551L25.8326 18.6289Z" fill="white"/>
<path d="M25.2734 24.3281V29.9988L29.7043 27.4719C29.8871 27.3676 30 27.1734 30 26.9629V21.6719L25.2734 24.3281Z" fill="white"/>
<path d="M20.5877 27.9871L24.1014 29.9969V24.3234L20.5869 22.3086L20.5877 27.9871Z" fill="white"/>
<path d="M25.234 13.5391L20.5859 16.2246L20.5863 20.2836L25.234 17.6195V13.5391Z" fill="white"/>
</g>
</g>
<defs>
<clipPath id="clip0_6555_946">
<rect width="40" height="40" fill="white"/>
</clipPath>
<clipPath id="clip1_6555_946">
<rect width="20" height="20" fill="white" transform="translate(10 10)"/>
</clipPath>
</defs>
</svg>
