<svg width="40" height="40" viewBox="0 0 40 40" fill="none" xmlns="http://www.w3.org/2000/svg">
<g clip-path="url(#clip0_7306_4409)">
<path d="M20 0C31 0 40 9 40 20C40 31 31 40 20 40C9 40 0 31 0 20C0 9 9 0 20 0Z" fill="#FF797A"/>
<g clip-path="url(#clip1_7306_4409)">
<path d="M27.0677 11.821H26.1619V11.071C26.1622 10.4806 25.6817 10 25.0913 10C24.5001 10 24.0192 10.4806 24.0192 11.071V11.821H22.435V11.071C22.4353 10.4806 21.9548 10 21.3644 10C20.7732 10 20.2926 10.4806 20.2926 11.071V11.821H18.7084V11.071C18.7084 10.4806 18.2275 10 17.6363 10C17.0459 10 16.5654 10.4806 16.5654 11.071V11.821H14.9812V11.071C14.9812 10.4806 14.5006 10 13.9095 10C13.319 10 12.8385 10.4806 12.8385 11.071V11.821H11.933C11.1697 11.821 10.5488 12.4414 10.5488 13.2044V27.6169C10.5488 28.3795 11.1697 29.0004 11.933 29.0004H27.0681C27.8314 29.0004 28.4522 28.3799 28.4522 27.6169V13.2044C28.4522 12.4414 27.831 11.821 27.0677 11.821ZM24.6125 11.071C24.6125 10.8075 24.8274 10.5934 25.0913 10.5934C25.3547 10.5934 25.5688 10.8075 25.5688 11.071V13.1643C25.5688 13.4278 25.3547 13.6419 25.0913 13.6419C24.8274 13.6419 24.6125 13.4278 24.6125 13.1643V11.071ZM20.8856 11.071C20.8856 10.8075 21.1005 10.5934 21.3644 10.5934C21.6278 10.5934 21.842 10.8075 21.842 11.071V13.1643C21.842 13.4278 21.6278 13.6419 21.3644 13.6419C21.1005 13.6419 20.8856 13.4278 20.8856 13.1643V11.071ZM17.1588 11.071C17.1588 10.8075 17.3729 10.5934 17.6363 10.5934C17.9002 10.5934 18.1151 10.8075 18.1151 11.071V13.1643C18.1151 13.4278 17.9002 13.6419 17.6363 13.6419C17.3729 13.6419 17.1588 13.4278 17.1588 13.1643V11.071ZM13.4319 11.071C13.4319 10.8075 13.646 10.5934 13.9095 10.5934C14.1733 10.5934 14.3882 10.8075 14.3882 11.071V13.1643C14.3882 13.4278 14.1733 13.6419 13.9095 13.6419C13.646 13.6419 13.4319 13.4278 13.4319 13.1643V11.071ZM11.933 12.4143H12.8388V13.1643C12.8388 13.7547 13.3194 14.2353 13.9098 14.2353C14.501 14.2353 14.9815 13.7547 14.9815 13.1643V12.4143H16.5657V13.1643C16.5657 13.7547 17.0459 14.2353 17.6367 14.2353C18.2279 14.2353 18.7088 13.7547 18.7088 13.1643V12.4143H20.293V13.1643C20.293 13.7547 20.7739 14.2353 21.3647 14.2353C21.9551 14.2353 22.4357 13.7547 22.4357 13.1643V12.4143H24.0199V13.1643C24.0199 13.7547 24.5008 14.2353 25.092 14.2353C25.6824 14.2353 26.163 13.7547 26.163 13.1643V12.4143H27.0688C27.5048 12.4143 27.86 12.7687 27.86 13.2044V15.1727H11.1418V13.2044C11.1418 12.7687 11.4966 12.4143 11.933 12.4143ZM27.0677 28.4066H11.933C11.497 28.4066 11.1418 28.0522 11.1418 27.6166V15.7657H27.8589V27.6166C27.8589 28.0522 27.5041 28.4066 27.0677 28.4066ZM24.3038 21.3417C24.6474 22.6254 24.4708 23.9654 23.8069 25.1154C23.1426 26.2654 22.0702 27.0881 20.7869 27.4318C20.3583 27.5468 19.9234 27.6036 19.4911 27.6036C18.6298 27.6036 17.78 27.3776 17.014 26.9356C15.864 26.2717 15.0409 25.1993 14.6969 23.916C14.2739 22.3359 14.6557 20.6482 15.7182 19.4013C15.8243 19.2766 16.0117 19.2618 16.1364 19.3679C16.2611 19.474 16.2759 19.6614 16.1698 19.7861C15.2339 20.8845 14.8977 22.3712 15.2703 23.7624C15.5734 24.8927 16.2982 25.8372 17.3109 26.422C18.324 27.0069 19.5037 27.162 20.6333 26.8588C21.7637 26.5563 22.7081 25.8316 23.2929 24.8189C23.8778 23.8062 24.0333 22.6257 23.7308 21.4954C23.1675 19.3957 21.1057 18.0212 18.9719 18.2813L19.7238 18.8884C19.851 18.9912 19.8711 19.1783 19.7683 19.3055C19.7096 19.3783 19.6239 19.4158 19.5375 19.4158C19.4721 19.4158 19.4061 19.3942 19.3512 19.3497L18.1047 18.3429C17.9774 18.2401 17.9573 18.0535 18.0601 17.9258L19.0669 16.6782C19.1697 16.5505 19.3567 16.5309 19.484 16.6337C19.6117 16.7365 19.6313 16.9231 19.5286 17.0508L19.022 17.6783C20.1186 17.5711 21.2204 17.8316 22.1618 18.4279C23.2187 19.0977 23.9795 20.1327 24.3038 21.3417ZM19.7969 20.208V22.3329H21.9217C22.0858 22.3329 22.2182 22.4658 22.2182 22.6294C22.2182 22.7931 22.0854 22.9259 21.9217 22.9259H19.5004C19.3363 22.9259 19.2038 22.7931 19.2038 22.6294V20.208C19.2038 20.044 19.3367 19.9115 19.5004 19.9115C19.664 19.9112 19.7969 20.044 19.7969 20.208Z" fill="white"/>
</g>
</g>
<defs>
<clipPath id="clip0_7306_4409">
<rect width="40" height="40" fill="white"/>
</clipPath>
<clipPath id="clip1_7306_4409">
<rect width="19" height="19" fill="white" transform="translate(10 10)"/>
</clipPath>
</defs>
</svg>
