<svg width="24" height="24" viewBox="0 0 24 24" fill="none" xmlns="http://www.w3.org/2000/svg">
<g clip-path="url(#clip0_6549_1044)">
<path d="M21.4289 0.855469H2.57171C2.11705 0.855469 1.68102 1.03608 1.35952 1.35757C1.03803 1.67906 0.857422 2.1151 0.857422 2.56975V21.4269C0.857422 21.8816 1.03803 22.3176 1.35952 22.6391C1.68102 22.9606 2.11705 23.1412 2.57171 23.1412H21.4289C21.8835 23.1412 22.3195 22.9606 22.641 22.6391C22.9625 22.3176 23.1431 21.8816 23.1431 21.4269V2.56975C23.1431 2.1151 22.9625 1.67906 22.641 1.35757C22.3195 1.03608 21.8835 0.855469 21.4289 0.855469Z" stroke="#868686" stroke-width="2" stroke-linecap="round" stroke-linejoin="round"/>
<path d="M12.0006 0.855469V4.51033C11.6306 4.17938 11.1728 3.9626 10.6823 3.88615C10.1918 3.8097 9.68969 3.87685 9.23653 4.0795C8.78338 4.28214 8.39856 4.61162 8.12854 5.02816C7.85853 5.4447 7.71484 5.9305 7.71484 6.4269C7.71484 6.9233 7.85853 7.40909 8.12854 7.82563C8.39856 8.24217 8.78338 8.57165 9.23653 8.7743C9.68969 8.97694 10.1918 9.0441 10.6823 8.96765C11.1728 8.8912 11.6306 8.67442 12.0006 8.34347V15.6532C12.3706 15.3222 12.8285 15.1055 13.319 15.029C13.8094 14.9526 14.3116 15.0197 14.7647 15.2224C15.2179 15.425 15.6027 15.7545 15.8727 16.171C16.1427 16.5876 16.2864 17.0734 16.2864 17.5698C16.2864 18.0662 16.1427 18.5519 15.8727 18.9685C15.6027 19.385 15.2179 19.7145 14.7647 19.9172C14.3116 20.1198 13.8094 20.187 13.319 20.1105C12.8285 20.0341 12.3706 19.8173 12.0006 19.4863V23.1412" stroke="#868686" stroke-width="2" stroke-linecap="round" stroke-linejoin="round"/>
<path d="M0.857422 11.9967H4.51228C4.18133 12.3667 3.96455 12.8246 3.8881 13.3151C3.81165 13.8055 3.8788 14.3077 4.08145 14.7608C4.2841 15.214 4.61358 15.5988 5.03012 15.8688C5.44666 16.1388 5.93245 16.2825 6.42885 16.2825C6.92525 16.2825 7.41104 16.1388 7.82758 15.8688C8.24412 15.5988 8.5736 15.214 8.77625 14.7608C8.9789 14.3077 9.04605 13.8055 8.9696 13.3151C8.89315 12.8246 8.67637 12.3667 8.34542 11.9967H15.6551C15.3242 11.6267 15.1074 11.1689 15.031 10.6784C14.9545 10.1879 15.0217 9.68578 15.2243 9.23262C15.427 8.77947 15.7564 8.39466 16.173 8.12464C16.5895 7.85462 17.0753 7.71094 17.5717 7.71094C18.0681 7.71094 18.5539 7.85462 18.9704 8.12464C19.387 8.39466 19.7165 8.77947 19.9191 9.23262C20.1218 9.68578 20.1889 10.1879 20.1125 10.6784C20.036 11.1689 19.8192 11.6267 19.4883 11.9967H23.1431" stroke="#868686" stroke-width="2" stroke-linecap="round" stroke-linejoin="round"/>
</g>
<defs>
<clipPath id="clip0_6549_1044">
<rect width="24" height="24" fill="white"/>
</clipPath>
</defs>
</svg>
