<svg width="25" height="24" viewBox="0 0 25 24" fill="none" xmlns="http://www.w3.org/2000/svg">
<path d="M6.25 23.875C3.1434 23.875 0.625 21.3566 0.625 18.25C0.625 15.1434 3.1434 12.625 6.25 12.625C9.3566 12.625 11.875 15.1434 11.875 18.25C11.875 21.3566 9.3566 23.875 6.25 23.875ZM18.75 11.375C15.6434 11.375 13.125 8.8566 13.125 5.75C13.125 2.6434 15.6434 0.125 18.75 0.125C21.8566 0.125 24.375 2.6434 24.375 5.75C24.375 8.8566 21.8566 11.375 18.75 11.375ZM6.25 21.375C7.97589 21.375 9.375 19.9759 9.375 18.25C9.375 16.5241 7.97589 15.125 6.25 15.125C4.52411 15.125 3.125 16.5241 3.125 18.25C3.125 19.9759 4.52411 21.375 6.25 21.375ZM18.75 8.875C20.4759 8.875 21.875 7.47589 21.875 5.75C21.875 4.02411 20.4759 2.625 18.75 2.625C17.0241 2.625 15.625 4.02411 15.625 5.75C15.625 7.47589 17.0241 8.875 18.75 8.875ZM1.25 7C1.25 3.54822 4.04822 0.75 7.5 0.75H11.25V3.25H7.5C5.42894 3.25 3.75 4.92894 3.75 7V10.75H1.25V7ZM23.75 13.25H21.25V17C21.25 19.0711 19.5711 20.75 17.5 20.75H13.75V23.25H17.5C20.9517 23.25 23.75 20.4517 23.75 17V13.25Z" fill="#868686"/>
</svg>
