<svg width="25" height="26" viewBox="0 0 25 26" fill="none" xmlns="http://www.w3.org/2000/svg">
<path d="M18.75 19.25H25V21.75H21.25V25.5H18.75V19.25ZM6.25 6.75H0V4.25H3.75V0.5H6.25V6.75ZM20.455 17.4194L18.6871 15.6516L20.455 13.8839C22.8958 11.4431 22.8958 7.48583 20.455 5.04505C18.0141 2.60428 14.0569 2.60428 11.6161 5.04505L9.84835 6.81281L8.08059 5.04505L9.84835 3.27729C13.2654 -0.1398 18.8056 -0.1398 22.2228 3.27729C25.6398 6.69438 25.6398 12.2346 22.2228 15.6516L20.455 17.4194ZM16.9194 20.955L15.1516 22.7228C11.7346 26.1398 6.19438 26.1398 2.77729 22.7228C-0.6398 19.3056 -0.6398 13.7654 2.77729 10.3484L4.54505 8.58059L6.31281 10.3484L4.54505 12.1161C2.10428 14.5569 2.10428 18.5141 4.54505 20.955C6.98583 23.3958 10.9431 23.3958 13.3839 20.955L15.1516 19.1871L16.9194 20.955ZM16.0355 7.6967L17.8033 9.46446L8.96446 18.3033L7.1967 16.5355L16.0355 7.6967Z" fill="#868686"/>
</svg>
