<?xml version="1.0" encoding="UTF-8"?>
<svg id="Layer_2" data-name="Layer 2" xmlns="http://www.w3.org/2000/svg" viewBox="0 0 850 850">
  <defs>
    <style>
      .support_service_cls-1 {
        fill: #26261A;
      }

      .support_service_cls-2 {
        fill: #BCBBA7;
      }

      .support_service_cls-3 {
        fill: #969686;
      }
    </style>
  </defs>
  <g id="Layer_1-2" data-name="Layer 1">
    <g>
      <rect class="support_service_cls-1" width="850" height="850" rx="72.61" ry="72.61"/>
      <g id="Layer_2-2" data-name="Layer 2">
        <path class="support_service_cls-2" d="m576.02,349.51h-.77c-8.33-82.99-82.36-143.51-165.34-135.18-71.48,7.17-128,63.7-135.18,135.18h-.74c-16.68,0-30.2,13.52-30.2,30.2v105.71c0,16.68,13.52,30.2,30.2,30.2h30.2c16.68,0,30.2-13.52,30.2-30.2v-105.71c-.05-16.25-12.94-29.55-29.18-30.1,8.22-66.16,68.51-113.12,134.67-104.9,54.86,6.82,98.08,50.04,104.9,104.9-16.24.55-29.13,13.85-29.18,30.1v105.71c0,16.68,13.52,30.2,30.2,30.2v15.1c0,25.02-20.28,45.31-45.31,45.31h-30.2c-8.34,0-15.1,6.76-15.1,15.1s6.76,15.1,15.1,15.1h30.2c41.68-.05,75.46-33.83,75.51-75.51v-15.1c16.68,0,30.2-13.52,30.2-30.2v-105.71c0-16.68-13.52-30.2-30.2-30.2Z"/>
        <path class="support_service_cls-3" d="m440.1,545.83h-30.2c-25.02,0-45.31,20.28-45.31,45.31s20.28,45.31,45.31,45.31h30.2c25.02,0,45.31-20.28,45.31-45.31s-20.28-45.31-45.31-45.31Z"/>
      </g>
    </g>
  </g>
</svg>