<?xml version="1.0" encoding="UTF-8"?>
<svg id="Layer_1" data-name="Layer 1" xmlns="http://www.w3.org/2000/svg" viewBox="0 0 400.5 471.9">
  <defs>
    <style>
      .cls-1 {
        fill: #a7a7a7;
      }

      .cls-2 {
        fill: none;
        stroke: #a7a7a7;
        stroke-linecap: round;
        stroke-miterlimit: 10;
        stroke-width: 12px;
      }
    </style>
  </defs>
  <path class="cls-2" d="m126.47,441.25h53.2c107.5,0,194.6-87.1,194.6-194.5S287.17,52.25,179.67,52.25H45.77"/>
  <path class="cls-1" d="m44.15,47.12s-.03,0,0,0l-.03-.03,7.74-7.54c2.05-1.98,2.08-5.27.1-7.31l-.07-.07h0c-2.02-2.02-5.27-2.02-7.31-.03l-16.81,16.55c-2.02,2.02-2.08,5.27-.07,7.31l15.8,16.29c1.98,2.05,5.27,2.11,7.31.1t.07-.07l.07-.1c1.98-1.98,2.02-5.17.1-7.22l-6.99-7.48v-.03h.03"/>
</svg>