<svg version="1.1" id="Layer_1" xmlns="http://www.w3.org/2000/svg" xmlns:xlink="http://www.w3.org/1999/xlink" x="0px" y="0px"
	 width="100%" viewBox="0 0 75 94" enable-background="new 0 0 75 94" xml:space="preserve">
<path fill="#FEFEFE" opacity="1.000000" stroke="none" 
	d="
M30.000000,1.000000 
	C45.309250,1.000000 60.618500,1.000000 75.963875,1.000000 
	C75.963875,32.259998 75.963875,63.520046 75.963875,94.890045 
	C51.112999,94.890045 26.225349,94.890045 1.000000,94.890045 
	C1.000000,73.980309 1.000000,52.958813 1.468643,31.471584 
	C8.766391,31.005390 15.596828,31.086826 22.424129,30.975683 
	C26.980267,30.901512 29.794706,28.042942 29.983423,23.483307 
	C30.097797,20.719893 30.004496,17.947882 30.004496,15.398794 
	C39.409527,12.805912 53.487164,21.104080 58.092701,30.667721 
	C63.447231,41.786667 62.127579,55.365177 54.795784,63.897942 
	C44.733639,75.608292 31.512466,75.589233 18.600124,74.815567 
	C18.311520,72.643196 18.081894,70.914749 17.852264,69.186295 
	C16.106125,69.780220 14.165453,70.074715 12.666244,71.048721 
	C11.028240,72.112885 9.492801,73.622963 8.497415,75.288208 
	C7.819963,76.421562 7.496536,78.630882 8.152040,79.529449 
	C9.897213,81.921745 12.163897,83.974106 14.428553,85.923035 
	C15.138358,86.533882 16.744228,86.850143 17.497446,86.455872 
	C18.265133,86.054031 18.664690,84.650551 18.892542,83.612556 
	C19.066832,82.818558 18.722530,81.910728 18.558609,80.674133 
	C29.743530,81.045967 40.531250,81.643089 50.000797,75.400856 
	C59.476753,69.154404 66.090279,60.758060 66.959503,49.123089 
	C68.684219,26.037041 57.208572,13.371171 30.000000,8.223722 
	C30.000000,5.896306 30.000000,3.448153 30.000000,1.000000 
z"/>
<path fill="#A9A9A9" opacity="1.000000" stroke="none" 
	d="
M29.531342,1.000000 
	C30.000000,3.448153 30.000000,5.896306 30.000000,8.223722 
	C57.208572,13.371171 68.684219,26.037041 66.959503,49.123089 
	C66.090279,60.758060 59.476753,69.154404 50.000797,75.400856 
	C40.531250,81.643089 29.743530,81.045967 18.558609,80.674133 
	C18.722530,81.910728 19.066832,82.818558 18.892542,83.612556 
	C18.664690,84.650551 18.265133,86.054031 17.497446,86.455872 
	C16.744228,86.850143 15.138358,86.533882 14.428553,85.923035 
	C12.163897,83.974106 9.897213,81.921745 8.152040,79.529449 
	C7.496536,78.630882 7.819963,76.421562 8.497415,75.288208 
	C9.492801,73.622963 11.028240,72.112885 12.666244,71.048721 
	C14.165453,70.074715 16.106125,69.780220 17.852264,69.186295 
	C18.081894,70.914749 18.311520,72.643196 18.600124,74.815567 
	C31.512466,75.589233 44.733639,75.608292 54.795784,63.897942 
	C62.127579,55.365177 63.447231,41.786667 58.092701,30.667721 
	C53.487164,21.104080 39.409527,12.805912 30.004496,15.398794 
	C30.004496,17.947882 30.097797,20.719893 29.983423,23.483307 
	C29.794706,28.042942 26.980267,30.901512 22.424129,30.975683 
	C15.596828,31.086826 8.766391,31.005390 1.468643,31.002928 
	C1.000000,27.638712 1.000000,24.277426 1.460803,20.387453 
	C5.414107,19.840942 8.955608,20.159775 12.378201,19.661633 
	C14.060543,19.416773 15.522605,17.658440 17.084352,16.585014 
	C15.548278,15.718108 14.069359,14.257627 12.464687,14.103111 
	C8.674953,13.738195 4.825376,13.994765 1.000000,14.000000 
	C1.000000,12.933331 1.000000,11.866661 1.460935,10.330400 
	C5.551017,9.840006 9.220199,10.124382 12.790630,9.656001 
	C14.330828,9.453952 15.666733,7.694593 17.095444,6.642689 
	C15.688246,5.725026 14.338380,4.145583 12.862757,4.017746 
	C8.937452,3.677686 4.957950,3.963233 1.000000,4.000000 
	C1.000000,3.013883 1.000000,2.027766 1.000000,1.000000 
	C10.354196,1.000000 19.708439,1.000000 29.531342,1.000000 
z"/>
<path fill="#F8F8F8" opacity="1.000000" stroke="none" 
	d="
M1.000000,4.428462 
	C4.957950,3.963233 8.937452,3.677686 12.862757,4.017746 
	C14.338380,4.145583 15.688246,5.725026 17.095444,6.642689 
	C15.666733,7.694593 14.330828,9.453952 12.790630,9.656001 
	C9.220199,10.124382 5.551017,9.840006 1.460935,9.930404 
	C1.000000,8.285642 1.000000,6.571283 1.000000,4.428462 
z"/>
<path fill="#F8F8F8" opacity="1.000000" stroke="none" 
	d="
M1.000000,14.428463 
	C4.825376,13.994765 8.674953,13.738195 12.464687,14.103111 
	C14.069359,14.257627 15.548278,15.718108 17.084352,16.585014 
	C15.522605,17.658440 14.060543,19.416773 12.378201,19.661633 
	C8.955608,20.159775 5.414107,19.840942 1.460803,19.929384 
	C1.000000,18.285641 1.000000,16.571283 1.000000,14.428463 
z"/>
</svg>