<svg xmlns="http://www.w3.org/2000/svg" viewBox="0 0 400.46 471.93"><defs><style>.cls-1{fill:#a7a7a7;}.cls-1,.cls-2{stroke:#a7a7a7;stroke-miterlimit:10;}.cls-2{fill:none;stroke-linecap:round;stroke-width:32px;}</style></defs><g id="Layer_2" data-name="Layer 2"><g id="Layer_1-2" data-name="Layer 1"><path class="cls-1" d="M55.47,51.13A.09.09,0,0,1,55.4,51L79.19,27.85a15.93,15.93,0,0,0,.16-22.68h0A15.93,15.93,0,0,0,56.9,5.09L5.24,56A15.94,15.94,0,0,0,5,78.47l48.58,50.14a15.94,15.94,0,0,0,22.7.17l.25-.26a15.93,15.93,0,0,0,.34-22.18l-21.5-23a.1.1,0,0,1,.07-.16"/><path class="cls-2" d="M136.73,455.93h53.18c107.45,0,194.55-87.1,194.55-194.55S297.36,66.84,189.91,66.84H56"/></g></g></svg>