<?xml version="1.0" encoding="UTF-8"?>
<svg id="Layer_1" data-name="Layer 1" xmlns="http://www.w3.org/2000/svg" viewBox="0 0 400.46 471.93">
  <defs>
    <style>
      .cls-1 {
        fill: none;
        stroke-linecap: round;
        stroke-width: 30px;
      }

      .cls-1, .cls-2 {
        stroke: #a7a7a7;
        stroke-miterlimit: 10;
      }

      .cls-2 {
        fill: #a7a7a7;
      }
    </style>
  </defs>
  <path class="cls-2" d="m46.77,44.13s-.07-.04-.06-.08c0,0,0-.02,0-.02l18.25-17.76c4.84-4.71,4.94-12.44.24-17.28-.04-.04-.08-.08-.12-.12-4.75-4.75-12.44-4.78-17.22-.06L8.24,47.87c-4.79,4.72-4.87,12.42-.18,17.24l37.26,38.46c4.7,4.84,12.45,4.96,17.29.25.04-.04.08-.08.12-.12l.19-.2c4.67-4.67,4.79-12.2.26-17.01l-16.49-17.64s-.02-.08.01-.11c.01,0,.02-.01.04-.02"/>
  <path class="cls-1" d="m130.91,445.38h53.18c107.45,0,194.55-87.1,194.55-194.55S291.54,56.29,184.09,56.29H50.18"/>
</svg>