<!--<svg xmlns="http://www.w3.org/2000/svg" version="1.1" xmlns:xlink="http://www.w3.org/1999/xlink" width="512" height="512" x="0" y="0" viewBox="0 0 32 32" style="enable-background:new 0 0 512 512" xml:space="preserve" class=""><g><path d="m23.08 4.23-.71.71 3.36 3.36A23.15 23.15 0 0 0 3.32 31.41h1A22.15 22.15 0 0 1 25.7 9.3l-3.32 3.33.71.71 4.55-4.55z" data-name="Layer 10" fill="#a7a7a7" opacity="1" data-original="#000000"></path></g></svg>-->
<svg id="Layer_1" viewBox="0 0 512 512" xmlns="http://www.w3.org/2000/svg" data-name="Layer 1" width="300" height="300"
     version="1.1" xmlns:xlink="http://www.w3.org/1999/xlink" xmlns:svgjs="http://svgjs.dev/svgjs">
    <g transform="matrix(1,0,0,1,0,0)">
        <path d="m376.333 296.354c2.734-2.733 2.734-7.166 0-9.899l-4.123-4.123h36.902c49.172 0 89.176-39.991 89.176-89.147s-40.004-89.147-89.176-89.147h-3.715v-22.82c0-10.065-8.188-18.253-18.253-18.253h-121.266c-10.049 0-18.225 8.188-18.225 18.253v22.82h-27.896v-9.84l-20.825-9.6-5.366-12.997 7.915-21.536-23.793-23.794-21.53 7.943-12.971-5.385-9.633-20.829h-33.646l-9.603 20.831-12.969 5.383-21.562-7.944-23.759 23.798 7.914 21.533-5.365 12.994-20.853 9.599v33.651l20.853 9.629 5.364 12.972-7.913 21.531 23.759 23.798 21.562-7.944 12.969 5.383 9.603 20.831h33.646l9.633-20.829 12.971-5.385 21.53 7.943 23.793-23.794-7.915-21.534 5.365-12.974 20.825-9.63v-9.806h27.896v22.82c0 10.049 8.176 18.225 18.225 18.225h121.266c10.065 0 18.253-8.176 18.253-18.225v-22.82h3.715c41.452 0 75.176 33.711 75.176 75.147s-33.724 75.147-75.176 75.147h-36.881l4.097-4.09c2.736-2.731 2.74-7.164.009-9.899-2.731-2.736-7.164-2.739-9.899-.009l-16.072 16.044c-1.315 1.312-2.054 3.093-2.055 4.951 0 1.857.737 3.639 2.05 4.953l16.072 16.072c1.367 1.367 3.Z"
              fill="#a7a7a7ff" data-original-color="#000000ff" stroke="none"/>
    </g>
</svg>