<?xml version="1.0" encoding="utf-8"?>
<svg viewBox="0 0 500 500" style="" width="500px" height="500px" xmlns="http://www.w3.org/2000/svg"
     xmlns:bx="https://boxy-svg.com">
    <defs>
        <bx:export>
            <bx:file format="svg"/>
        </bx:export>
    </defs>
    <g transform="matrix(-17.5298, 0.143087, -0.21075, -25.819235, 338.422913, 250.174393)"
       style="transform-origin: -0.12153px 21.56px;">
        <g>
            <g>
                <path d="M 10.372 14.966 C 9.8 14.4 8.707 15.037 9.12 15.493 C 10.265 16.757 9.24 15.592 9.535 15.949 L 10.49 16.901 L 0.164 17.043 C -4.623 17.366 -6.772 22.578 -4.787 26.871 C -3.755 29.101 -2.064 29.599 -0.25 29.931 L 2.687 30.145 C 3.444 30.145 4.184 29.423 3.504 29.055 C 3.146 28.862 2.545 28.914 2.194 28.914 C 2.27 28.914 0.399 28.776 0.196 28.755 C -3.113 28.412 -4.172 24.532 -3.238 21.448 C -2.736 19.791 -1.253 18.544 0.329 18.429 L 10.428 18.405 L 9.269 19.391 C 8.625 19.936 8.888 19.662 8.543 20.004 C 8.333 20.213 8.672 20.601 9.451 20.587 C 9.669 20.583 10.192 20.248 10.383 20.129 C 10.573 20.01 11.7 19.12 12.202 18.705 C 12.435 18.513 12.86 18.229 13.039 17.798 C 13.138 17.56 12.714 17.124 12.526 16.919 L 10.372 14.966 Z"
                      opacity="1" data-original="#000000" class=""
                      style="fill-rule: nonzero; fill-opacity: 0.82; paint-order: fill; fill: rgb(167, 167, 167); stroke-opacity: 0.64; stroke-width: 0px; stroke-miterlimit: 5.63;"/>
            </g>
        </g>
    </g>
</svg>