<?xml version="1.0" encoding="utf-8"?>
<svg viewBox="0 0 500 500" style="" width="500px" height="500px" xmlns="http://www.w3.org/2000/svg" xmlns:bx="https://boxy-svg.com"><defs><bx:export><bx:file format="svg"/></bx:export></defs><g transform="matrix(-12.82514, 0.104685, -0.13106, -16.05628, 275.705658, 179.626816)" style="transform-origin: -0.12153px 21.56px;"><path d="M 10.247 14.274 C 9.7 13.731 9.409 13.65 9.174 14.188 C 9.031 14.516 9.377 15.076 9.571 15.359 L 10.447 16.712 L -0.054 16.842 C -4.922 17.138 -7.108 21.91 -5.089 25.84 C -4.04 27.882 -1.955 28.447 -0.124 28.769 L 2.511 28.838 C 3.281 28.838 3.727 28.507 3.342 27.84 C 3.163 27.53 2.833 27.582 2.476 27.582 C 2.553 27.582 0.214 27.582 0.007 27.582 C -3.457 27.582 -5.498 23.625 -3.766 20.625 C -2.962 19.233 -1.494 18.111 0.114 18.111 L 10.384 18.089 L 9.309 19.504 C 8.96 19.942 8.504 20.511 8.757 21.016 C 8.857 21.216 9.151 21.308 9.54 21.001 C 9.714 20.863 9.828 20.796 10.029 20.601 C 10.236 20.407 11.992 18.698 12.345 18.389 C 12.547 18.189 12.91 17.928 13.074 17.533 C 13.166 17.313 12.708 16.916 12.517 16.729 L 10.247 14.274 Z" opacity="1" data-original="#000000" class="" style="fill-rule: nonzero; fill-opacity: 0.82; paint-order: fill; fill: rgb(167, 167, 167); stroke-opacity: 0.64; stroke-width: 0px; stroke-miterlimit: 5.63;"/></g></svg>