<?xml version="1.0" encoding="utf-8"?>
<svg viewBox="0 0 500 500" style="" width="500px" height="500px" xmlns="http://www.w3.org/2000/svg" xmlns:bx="https://boxy-svg.com"><defs><bx:export><bx:file format="svg"/></bx:export></defs><g transform="matrix(-17.5298, 0.143087, -0.21075, -25.819235, 338.422913, 250.174393)" style="transform-origin: -0.12153px 21.56px;"><g><g><path d="M 10.327 14.941 C 9.745 14.422 8.782 14.717 9.163 15.163 C 10.15 16.319 9.426 15.385 9.62 15.668 L 10.447 16.712 L -0.054 16.842 C -4.922 17.138 -7.108 21.91 -5.089 25.84 C -4.04 27.882 -2.32 28.338 -0.475 28.642 L 2.511 28.838 C 3.281 28.838 4.034 28.177 3.342 27.84 C 2.978 27.663 2.367 27.711 2.01 27.711 C 2.087 27.711 0.291 27.622 0.084 27.609 C -3.409 27.397 -4.859 23.635 -3.691 20.809 C -3.077 19.323 -1.495 18.216 0.114 18.111 L 10.384 18.089 L 9.453 19.124 C 8.976 19.624 9.171 19.408 8.856 19.75 C 8.757 19.858 8.525 20.287 9.281 20.26 C 9.503 20.252 9.82 20.036 10.014 19.927 C 10.208 19.818 11.677 18.744 12.188 18.364 C 12.425 18.188 12.857 17.928 13.039 17.533 C 13.139 17.316 12.708 16.916 12.517 16.729 L 10.327 14.941 Z" opacity="1" data-original="#000000" class="" style="fill-rule: nonzero; fill-opacity: 0.82; paint-order: fill; fill: rgb(167, 167, 167); stroke-opacity: 0.64; stroke-width: 0px; stroke-miterlimit: 5.63;"/></g></g></g></svg>