<svg xmlns="http://www.w3.org/2000/svg" version="1.1" xmlns:xlink="http://www.w3.org/1999/xlink" width="512" height="512" x="0" y="0" viewBox="0 0 24 24" style="enable-background:new 0 0 512 512" xml:space="preserve" class=""><g><path d="M17.64 4.29a1 1 0 0 0-1.41 1.42L19.57 9H9.43a6.49 6.49 0 0 0 0 13h2.51a1 1 0 0 0 0-2H9.43a4.49 4.49 0 1 1 0-9h10.13l-3.32 3.27a1 1 0 0 0 0 1.41 1 1 0 0 0 .71.3 1 1 0 0 0 .7-.29l5.06-5A1 1 0 0 0 23 10a1 1 0 0 0-.3-.71z" fill="#a7a7a7" opacity="1" data-original="#000000" class=""></path></g></svg>