<?xml version="1.0" encoding="UTF-8"?>
<svg id="Layer_2" data-name="Layer 2" xmlns="http://www.w3.org/2000/svg" viewBox="0 0 850 850">
  <defs>
    <style>
      .cls-1 {
        fill: #fff;
      }

      .cls-2 {
        fill: #d40411;
      }
    </style>
  </defs>
  <g id="Layer_1-2" data-name="Layer 1">
    <g>
      <rect class="cls-1" width="850" height="850" rx="72.61" ry="72.61"/>
      <g>
        <g>
          <g>
            <polygon class="cls-2" points="135.4 449.35 213.73 449.35 209.45 455.18 135.4 455.18 135.4 449.35"/>
            <polygon class="cls-2" points="135.4 438.55 221.69 438.55 217.4 444.37 135.4 444.37 135.4 438.55"/>
            <polygon class="cls-2" points="135.4 460.17 205.78 460.17 201.52 465.95 135.4 465.95 135.4 460.17"/>
          </g>
          <g>
            <polygon class="cls-2" points="714.6 455.18 636.58 455.18 640.85 449.36 714.6 449.36 714.6 455.18"/>
            <polygon class="cls-2" points="714.6 465.95 628.64 465.95 632.9 460.17 714.6 460.17 714.6 465.95"/>
            <polygon class="cls-2" points="648.8 438.55 714.6 438.55 714.6 444.37 644.52 444.37 648.8 438.55"/>
          </g>
        </g>
        <g>
          <path class="cls-2" d="m211.27,465.95l37.17-50.5h46.12c5.1,0,5.03,1.94,2.54,5.31-2.53,3.43-6.84,9.32-9.41,12.8-1.31,1.77-3.67,4.99,4.16,4.99h61.79c-5.14,7.04-21.81,27.4-51.74,27.4h-90.64Z"/>
          <path class="cls-2" d="m424.13,438.55l-20.15,27.4h-53.17s20.15-27.4,20.16-27.4h53.16Z"/>
          <path class="cls-2" d="m501.02,438.55l-20.17,27.4h-53.15s20.15-27.4,20.17-27.4h53.15Z"/>
          <path class="cls-2" d="m518.31,438.55s-3.88,5.31-5.77,7.86c-6.68,9.02-.78,19.53,21.01,19.53h85.36l20.16-27.4h-120.76Z"/>
        </g>
        <g>
          <path class="cls-2" d="m237.26,384.05l-18.5,25.14h100.85c5.1,0,5.03,1.94,2.54,5.31-2.53,3.42-6.76,9.39-9.34,12.87-1.31,1.76-3.67,4.98,4.16,4.98h41.24s6.65-9.05,12.22-16.61c7.58-10.29.66-31.69-26.44-31.69h-106.73Z"/>
          <polygon class="cls-2" points="505.58 432.35 375.54 432.35 411.1 384.05 464.25 384.05 443.87 411.74 467.59 411.74 487.99 384.05 541.13 384.05 505.58 432.35"/>
          <path class="cls-2" d="m614.74,384.05l-35.55,48.3h-56.32s35.57-48.3,35.58-48.3h56.29Z"/>
        </g>
      </g>
    </g>
  </g>
</svg>