<?xml version="1.0" encoding="utf-8"?>
<!-- Generator: Adobe Illustrator 24.3.0, SVG Export Plug-In . SVG Version: 6.00 Build 0)  -->
<svg version="1.1" xmlns="http://www.w3.org/2000/svg" xmlns:xlink="http://www.w3.org/1999/xlink" x="0px" y="0px"
	 viewBox="0 0 1920 480" style="enable-background:new 0 0 1920 480;" xml:space="preserve">
<style type="text/css">
	.st0{clip-path:url(#SVGID_2_);}
	.st1{fill:#061827;}
	.st2{clip-path:url(#SVGID_4_);}
	.st3{fill:#FF3241;}
	.st4{fill:url(#SVGID_5_);}
	.st5{fill:none;stroke:#FFFFFF;stroke-width:0.5;stroke-miterlimit:10;}
	.st6{fill:url(#SVGID_6_);}
	.st7{fill:url(#SVGID_7_);}
	.st8{fill:url(#SVGID_8_);}
	.st9{fill:#092338;}
	.st10{fill:#0F3F66;}
</style>
<g id="BACKGROUND">
	<g>
		<defs>
			<rect id="SVGID_1_" x="-0.4" y="2.7" width="1922" height="480"/>
		</defs>
		<clipPath id="SVGID_2_">
			<use xlink:href="#SVGID_1_"  style="overflow:visible;"/>
		</clipPath>
		<g class="st0">
			<rect x="-16" y="-5.2" class="st1" width="1946.6" height="1297.8"/>
		</g>
		<g class="st0">
			<defs>
				<rect id="SVGID_3_" x="-16" y="-5.2" width="1946.6" height="1297.8"/>
			</defs>
			<clipPath id="SVGID_4_">
				<use xlink:href="#SVGID_3_"  style="overflow:visible;"/>
			</clipPath>
			<g class="st2">
				<g>
					<g>
						<polygon class="st3" points="720.1,-5.2 577.4,-5.2 300.5,278.3 443.3,278.3 						"/>
						<linearGradient id="SVGID_5_" gradientUnits="userSpaceOnUse" x1="379.147" y1="-30.751" x2="-232.8836" y2="581.2797">
							<stop  offset="0" style="stop-color:#FF6147"/>
							<stop  offset="1" style="stop-color:#FFC321"/>
						</linearGradient>
						<polygon class="st4" points="-16,223.5 -16,510.6 487.7,-5.2 207.4,-5.2 						"/>
						<polygon class="st5" points="-243.1,342.4 -243.1,629.5 260.5,113.7 -19.8,113.7 						"/>
						<linearGradient id="SVGID_6_" gradientUnits="userSpaceOnUse" x1="1531.4493" y1="1322.1699" x2="2043.0901" y2="810.5291">
							<stop  offset="0" style="stop-color:#FF6147"/>
							<stop  offset="1" style="stop-color:#FFC321"/>
						</linearGradient>
						<polygon class="st6" points="1930.7,1063.8 1930.7,776.7 1427,1292.5 1707.4,1292.5 						"/>
						<linearGradient id="SVGID_7_" gradientUnits="userSpaceOnUse" x1="1472.6973" y1="422.3407" x2="1922.5262" y2="-27.4882">
							<stop  offset="0" style="stop-color:#FF6147"/>
							<stop  offset="1" style="stop-color:#FFC321"/>
						</linearGradient>
						<polygon class="st7" points="1755.5,-5.2 1372.1,387.5 1652.4,387.5 1875.7,158.7 1875.7,-5.2 						"/>
						<polygon class="st3" points="1614.2,1009 1471.4,1009 1194.6,1292.5 1337.3,1292.5 						"/>
						<linearGradient id="SVGID_8_" gradientUnits="userSpaceOnUse" x1="168.8713" y1="1208.5474" x2="454.6846" y2="834.7921">
							<stop  offset="0" style="stop-color:#FF6147"/>
							<stop  offset="1" style="stop-color:#FFC321"/>
						</linearGradient>
						<polygon class="st8" points="492.9,917.4 350.2,917.4 73.3,1200.9 216.1,1200.9 						"/>
						<polygon class="st5" points="1589.2,1093.6 1446.4,1093.6 1169.6,1377.1 1312.4,1377.1 						"/>
						<polygon class="st5" points="854.2,-78.2 711.4,-78.2 434.6,205.4 577.3,205.4 						"/>
					</g>
					<g>
						<polygon class="st9" points="469.5,309.4 -16,806.6 -16,1292.5 82.9,1292.5 1042.7,309.4 						"/>
						<polygon class="st9" points="1930.7,-5.2 1831.8,-5.2 872,977.9 1445.3,977.9 1930.7,480.7 						"/>
					</g>
				</g>
				<polygon class="st10" points="1930.7,347.3 1562.6,724.3 1692.8,724.3 1930.7,480.7 				"/>
				<polygon class="st5" points="2015,202 1646.9,579 1777.1,579 2015,335.4 				"/>
				<polygon class="st10" points="159.9,1034.6 -16,1214.7 -16,1292.5 82.9,1292.5 334.7,1034.6 				"/>
				<polygon class="st5" points="159.9,1144.5 -16,1324.6 -16,1402.4 82.9,1402.4 334.7,1144.5 				"/>
			</g>
		</g>
	</g>
</g>
<g id="PHOTOS">
</g>
<g id="OBJECTS">
</g>
<g id="TEXTS">
</g>
</svg>
