<?xml version="1.0" encoding="utf-8"?>
<!-- Generator: Adobe Illustrator 24.3.0, SVG Export Plug-In . SVG Version: 6.00 Build 0)  -->
<svg version="1.1" id="Layer_1" xmlns="http://www.w3.org/2000/svg" xmlns:xlink="http://www.w3.org/1999/xlink" x="0px" y="0px"
	 viewBox="0 0 1920 480" style="enable-background:new 0 0 1920 480;" xml:space="preserve">
<style type="text/css">
	.st0{clip-path:url(#SVGID_2_);}
	.st1{fill:url(#SVGID_3_);}
	.st2{fill:url(#SVGID_4_);}
	.st3{fill:url(#SVGID_5_);}
	.st4{opacity:0.33;fill:url(#SVGID_6_);enable-background:new    ;}
	.st5{fill:url(#SVGID_7_);}
	.st6{fill:url(#SVGID_8_);}
	.st7{fill:url(#SVGID_9_);}
	.st8{fill:url(#SVGID_10_);}
	.st9{fill:url(#SVGID_11_);}
	.st10{fill:url(#SVGID_12_);}
	.st11{fill:url(#SVGID_13_);}
	.st12{fill:url(#SVGID_14_);}
	.st13{opacity:0.2;fill:url(#SVGID_15_);enable-background:new    ;}
	.st14{opacity:0.7;fill:url(#SVGID_16_);enable-background:new    ;}
	.st15{fill:url(#SVGID_17_);}
	.st16{fill:url(#SVGID_18_);}
	.st17{fill:url(#SVGID_19_);}
	.st18{fill:url(#SVGID_20_);}
	.st19{fill:url(#SVGID_21_);}
	.st20{fill:url(#SVGID_22_);}
	.st21{fill:url(#SVGID_23_);}
</style>
<g id="BACKGROUND">
	<g>
		<g>
			<defs>
				<rect id="SVGID_1_" x="-1.4" y="-0.4" width="1923.5" height="480.9"/>
			</defs>
			<clipPath id="SVGID_2_">
				<use xlink:href="#SVGID_1_"  style="overflow:visible;"/>
			</clipPath>
			<g class="st0">
				
					<linearGradient id="SVGID_3_" gradientUnits="userSpaceOnUse" x1="97.7521" y1="-580.4961" x2="1554.3214" y2="808.3271" gradientTransform="matrix(1 0 0 -1 0 482)">
					<stop  offset="0" style="stop-color:#272A94"/>
					<stop  offset="0.1993" style="stop-color:#25288F"/>
					<stop  offset="0.4369" style="stop-color:#202280"/>
					<stop  offset="0.694" style="stop-color:#171768"/>
					<stop  offset="0.9633" style="stop-color:#0A0947"/>
					<stop  offset="1" style="stop-color:#080742"/>
				</linearGradient>
				<rect x="-1.4" y="-0.4" class="st1" width="1923.5" height="480.9"/>
				<g>
					<g>
						
							<linearGradient id="SVGID_4_" gradientUnits="userSpaceOnUse" x1="3129.1348" y1="540.3491" x2="2731.2441" y2="152.7263" gradientTransform="matrix(-1 0 0 -1 2937.1494 482)">
							<stop  offset="5.376340e-03" style="stop-color:#FFFFFF"/>
							<stop  offset="0.9839" style="stop-color:#FFFFFF;stop-opacity:0"/>
						</linearGradient>
						<polygon class="st2" points="-210.2,-51.4 -150.3,-51.4 243.1,340.8 183.2,340.8 						"/>
						
							<linearGradient id="SVGID_5_" gradientUnits="userSpaceOnUse" x1="2674.1494" y1="111.6716" x2="2674.1494" y2="661.8857" gradientTransform="matrix(-0.8853 0.8853 -1.2133 -1.2133 3049.1052 -1484.6544)">
							<stop  offset="0" style="stop-color:#F22991"/>
							<stop  offset="0.3387" style="stop-color:#EC3597;stop-opacity:0.6293"/>
							<stop  offset="0.9136" style="stop-color:#DC53A7;stop-opacity:0"/>
						</linearGradient>
						<polygon class="st3" points="465.7,752.3 551.2,666.7 -96.2,19.2 -181.9,104.9 						"/>
					</g>
					
						<linearGradient id="SVGID_6_" gradientUnits="userSpaceOnUse" x1="2072.583" y1="1454.6193" x2="1984.0808" y2="1369.4357" gradientTransform="matrix(0 1 -1 0 1557.8104 -1546.6975)">
						<stop  offset="0.3495" style="stop-color:#02337F;stop-opacity:0"/>
						<stop  offset="0.4642" style="stop-color:#02317A;stop-opacity:0.1941"/>
						<stop  offset="0.6049" style="stop-color:#022B6B;stop-opacity:0.4319"/>
						<stop  offset="0.7591" style="stop-color:#022152;stop-opacity:0.6926"/>
						<stop  offset="0.9219" style="stop-color:#021430;stop-opacity:0.968"/>
						<stop  offset="0.9409" style="stop-color:#02122B"/>
					</linearGradient>
					<polygon class="st4" points="-222,155.1 -127,155.1 481.6,762.3 481.6,841.3 					"/>
					<g>
						<g>
							
								<linearGradient id="SVGID_7_" gradientUnits="userSpaceOnUse" x1="751.3372" y1="-1001.1204" x2="1398.3016" y2="-1001.1204" gradientTransform="matrix(-1 0 0 -1 2180.2495 -910.0885)">
								<stop  offset="1.612900e-02" style="stop-color:#FFA800;stop-opacity:0"/>
								<stop  offset="0.9946" style="stop-color:#FFDB95"/>
							</linearGradient>
							<polygon class="st5" points="850.6,-211.7 781.9,-211.7 1362.1,393.8 1428.9,383.6 							"/>
							
								<linearGradient id="SVGID_8_" gradientUnits="userSpaceOnUse" x1="781.7358" y1="-787.8286" x2="2357.1711" y2="-787.8286" gradientTransform="matrix(1 0 0 1 -806.3393 1519.1628)">
								<stop  offset="1.612900e-02" style="stop-color:#FFA800;stop-opacity:0"/>
								<stop  offset="0.9946" style="stop-color:#FFDB95"/>
							</linearGradient>
							<polygon class="st6" points="1383.7,1468.7 1550.8,1468.7 138,-6 -24.6,19 							"/>
							
								<linearGradient id="SVGID_9_" gradientUnits="userSpaceOnUse" x1="949.3374" y1="-874.5346" x2="2524.873" y2="-874.5346" gradientTransform="matrix(1 0 0 1 -806.3393 1519.1628)">
								<stop  offset="1.612900e-02" style="stop-color:#FFA800;stop-opacity:0"/>
								<stop  offset="0.9946" style="stop-color:#FFDB95"/>
							</linearGradient>
							<polygon class="st7" points="1551.3,1382 1718.5,1382 305.7,-92.7 143,-67.7 							"/>
							
								<linearGradient id="SVGID_10_" gradientUnits="userSpaceOnUse" x1="1409.766" y1="-671.9701" x2="2985.2014" y2="-671.9701" gradientTransform="matrix(1 0 0 1 -806.3393 1519.1628)">
								<stop  offset="1.612900e-02" style="stop-color:#FFA800;stop-opacity:0"/>
								<stop  offset="0.9946" style="stop-color:#FFDB95"/>
							</linearGradient>
							<polygon class="st8" points="2011.8,1584.5 2178.9,1584.5 766,109.9 603.4,134.9 							"/>
							
								<linearGradient id="SVGID_11_" gradientUnits="userSpaceOnUse" x1="359.9767" y1="-2010.1785" x2="1935.5122" y2="-2010.1785" gradientTransform="matrix(1 0 0 1 -806.3393 1519.1628)">
								<stop  offset="1.612900e-02" style="stop-color:#FFA800;stop-opacity:0"/>
								<stop  offset="0.9946" style="stop-color:#FFDB95"/>
							</linearGradient>
							<polygon class="st9" points="962.1,246.3 1129.2,246.3 -283.7,-1228.3 -446.4,-1203.3 							"/>
							
								<linearGradient id="SVGID_12_" gradientUnits="userSpaceOnUse" x1="650.0549" y1="-994.5085" x2="1191.2289" y2="-994.5085" gradientTransform="matrix(-1 0 0 -1 2180.2495 -910.0885)">
								<stop  offset="1.612900e-02" style="stop-color:#FFA800;stop-opacity:0"/>
								<stop  offset="0.9946" style="stop-color:#FFDB95"/>
							</linearGradient>
							<polygon class="st10" points="1122.5,-120.5 989,-120.5 1396.7,289.4 1530.2,289.4 							"/>
							
								<linearGradient id="SVGID_13_" gradientUnits="userSpaceOnUse" x1="440.1069" y1="-1451.7534" x2="1088.6396" y2="-733.736" gradientTransform="matrix(-1 0 0 -1 2180.2495 -910.0885)">
								<stop  offset="1.612900e-02" style="stop-color:#FFC960;stop-opacity:0"/>
								<stop  offset="0.9946" style="stop-color:#FF411F"/>
							</linearGradient>
							<polygon class="st11" points="1284.2,-16.9 1161,-16.9 1724.8,578.4 1848,578.4 							"/>
							
								<linearGradient id="SVGID_14_" gradientUnits="userSpaceOnUse" x1="405.951" y1="-1422.2441" x2="1054.4836" y2="-704.2268" gradientTransform="matrix(-1 0 0 -1 2180.2495 -910.0885)">
								<stop  offset="1.612900e-02" style="stop-color:#7600FF;stop-opacity:0"/>
								<stop  offset="0.9946" style="stop-color:#C695FF"/>
							</linearGradient>
							<polygon class="st12" points="1318.2,-46.3 1195.2,-46.3 1759,548.9 1882.1,548.9 							"/>
							
								<linearGradient id="SVGID_15_" gradientUnits="userSpaceOnUse" x1="441.7801" y1="-1206.4399" x2="663.6794" y2="-1206.4399" gradientTransform="matrix(-1 0 0 -1 2180.2495 -910.0885)">
								<stop  offset="1.612900e-02" style="stop-color:#FFFFFF;stop-opacity:0"/>
								<stop  offset="0.9946" style="stop-color:#FF411F"/>
							</linearGradient>
							<polygon class="st13" points="1564.8,208.2 1516.6,208.2 1693.1,384.5 1738.5,384.5 							"/>
							
								<linearGradient id="SVGID_16_" gradientUnits="userSpaceOnUse" x1="2323.5259" y1="-1079.579" x2="2428.3979" y2="-982.4278" gradientTransform="matrix(1 0 0 -1 -1120.4749 -910.0885)">
								<stop  offset="5.376340e-03" style="stop-color:#FFFFFF"/>
								<stop  offset="0.9839" style="stop-color:#FFFFFF;stop-opacity:0"/>
							</linearGradient>
							<polygon class="st14" points="1402.7,212.4 1480.7,212.4 1216.8,-71 1138.7,-71 							"/>
						</g>
					</g>
				</g>
				<g>
					<g>
						
							<linearGradient id="SVGID_17_" gradientUnits="userSpaceOnUse" x1="285.4232" y1="984.905" x2="354.5768" y2="984.905" gradientTransform="matrix(1 0 0 1 -16.799 -612.5919)">
							<stop  offset="0" style="stop-color:#5ABAFA"/>
							<stop  offset="0.9677" style="stop-color:#5ABAFA;stop-opacity:0"/>
						</linearGradient>
						<path class="st15" d="M274.9,358.9c-1.4-1.4-3.8-1.4-5.2,0c-0.7,0.7-1.1,1.6-1.1,2.6s0.4,1.9,1.1,2.6c1.3,1.3,3.2,1.4,4.6,0.5
							l13.9,13.9l30.2-10l12.5,12.5c-0.4,0.6-0.6,1.3-0.6,2c0,1,0.4,1.9,1.1,2.6c0.7,0.7,1.6,1.1,2.6,1.1s1.9-0.4,2.6-1.1
							c1.4-1.4,1.4-3.8,0-5.2c-0.7-0.7-1.6-1.1-2.6-1.1c-0.7,0-1.4,0.2-2,0.6l-13.1-13.1l-30.2,10l-13.3-13.3
							C276.3,362.1,276.1,360.1,274.9,358.9z M335.6,381.6c0.4,0.4,0.7,1,0.7,1.6c0,0.6-0.2,1.2-0.7,1.6c-0.4,0.4-1,0.7-1.6,0.7
							c-0.6,0-1.2-0.2-1.6-0.7c-0.8-0.8-0.8-2.3,0-3.1c0.4-0.4,1-0.7,1.6-0.7C334.7,380.9,335.2,381.2,335.6,381.6z M270.7,363.1
							c-0.8-0.8-0.8-2.3,0-3.1c0.9-0.9,2.3-0.9,3.1,0c0.4,0.4,0.7,1,0.7,1.6c0,0.6-0.2,1.2-0.7,1.6C273,364,271.6,364,270.7,363.1z"
							/>
						
							<linearGradient id="SVGID_18_" gradientUnits="userSpaceOnUse" x1="279.1118" y1="1011.1022" x2="329.6528" y2="1011.1022" gradientTransform="matrix(1 0 0 1 -16.799 -612.5919)">
							<stop  offset="0" style="stop-color:#5ABAFA"/>
							<stop  offset="0.9677" style="stop-color:#5ABAFA;stop-opacity:0"/>
						</linearGradient>
						<path class="st16" d="M268.6,374.3c-0.7-0.7-1.6-1.1-2.6-1.1s-1.9,0.4-2.6,1.1c-0.7,0.7-1.1,1.6-1.1,2.6s0.4,1.9,1.1,2.6
							c0.7,0.7,1.6,1.1,2.6,1.1c0.7,0,1.4-0.2,2-0.6l38.1,38.1c-0.4,0.6-0.6,1.3-0.6,2c0,1,0.4,1.9,1.1,2.6c1.4,1.4,3.8,1.4,5.2,0
							s1.4-3.8,0-5.2c-1.3-1.3-3.2-1.4-4.6-0.5L269.1,379C270,377.5,269.9,375.5,268.6,374.3z M264.5,378.4c-0.8-0.8-0.8-2.3,0-3.1
							c0.4-0.4,1-0.7,1.6-0.7c0.6,0,1.2,0.2,1.6,0.7c0.4,0.4,0.7,1,0.7,1.6c0,0.6-0.2,1.1-0.6,1.5l-0.1,0.1c-0.4,0.4-1,0.6-1.5,0.6
							C265.4,379.2,264.9,379,264.5,378.4z M310.8,418.5c0.4,0.4,0.7,1,0.7,1.6c0,0.6-0.2,1.2-0.7,1.6c-0.9,0.9-2.3,0.9-3.1,0
							c-0.4-0.4-0.7-1-0.7-1.6c0-0.6,0.2-1.2,0.7-1.6C308.5,417.6,309.9,417.6,310.8,418.5z"/>
						
							<linearGradient id="SVGID_19_" gradientUnits="userSpaceOnUse" x1="367.8716" y1="1096.3806" x2="530.9651" y2="1096.3806" gradientTransform="matrix(1 0 0 1 -16.799 -612.5919)">
							<stop  offset="0" style="stop-color:#5ABAFA"/>
							<stop  offset="0.9677" style="stop-color:#5ABAFA;stop-opacity:0"/>
						</linearGradient>
						<path class="st17" d="M357.4,404.7c-0.7-0.7-1.6-1.1-2.6-1.1s-1.9,0.4-2.6,1.1c-0.7,0.7-1.1,1.6-1.1,2.6s0.4,1.9,1.1,2.6
							c1.3,1.3,3.2,1.4,4.6,0.5L513.2,564l1-1L357.9,409.4C358.8,407.9,358.6,405.9,357.4,404.7z M353.2,408.9
							c-0.8-0.8-0.8-2.3,0-3.1c0.4-0.4,1-0.7,1.6-0.7c0.6,0,1.2,0.2,1.6,0.7c0.4,0.4,0.7,1,0.7,1.6c0,0.6-0.2,1.2-0.7,1.6
							C355.5,409.8,354.1,409.8,353.2,408.9z"/>
						
							<linearGradient id="SVGID_20_" gradientUnits="userSpaceOnUse" x1="350.9411" y1="1102.3163" x2="514.0346" y2="1102.3163" gradientTransform="matrix(1 0 0 1 -16.799 -612.5919)">
							<stop  offset="0" style="stop-color:#5ABAFA"/>
							<stop  offset="0.9677" style="stop-color:#5ABAFA;stop-opacity:0"/>
						</linearGradient>
						<path class="st18" d="M340.5,410.6c-1.4-1.4-3.8-1.4-5.2,0c-0.7,0.7-1.1,1.6-1.1,2.6s0.4,1.9,1.1,2.6c1.3,1.3,3.2,1.4,4.6,0.5
							l156.4,153.6l1-1L341,415.3C341.9,413.8,341.7,411.8,340.5,410.6z M336.2,414.8c-0.8-0.8-0.8-2.3,0-3.1c0.9-0.9,2.3-0.9,3.1,0
							c0.4,0.4,0.7,1,0.7,1.6c0,0.6-0.2,1.2-0.7,1.6C338.6,415.7,337.1,415.7,336.2,414.8z"/>
						
							<linearGradient id="SVGID_21_" gradientUnits="userSpaceOnUse" x1="325.0946" y1="1008.6227" x2="394.2487" y2="1008.6227" gradientTransform="matrix(1 0 0 1 -16.799 -612.5919)">
							<stop  offset="0" style="stop-color:#5ABAFA"/>
							<stop  offset="0.9677" style="stop-color:#5ABAFA;stop-opacity:0"/>
						</linearGradient>
						<path class="st19" d="M314.6,382.7c-1.4-1.4-3.8-1.4-5.2,0c-0.7,0.7-1.1,1.6-1.1,2.6c0,1,0.4,1.9,1.1,2.6
							c1.3,1.3,3.2,1.4,4.6,0.5l13.9,13.9l30.2-10l12.5,12.5c-0.4,0.6-0.6,1.3-0.6,2c0,1,0.4,1.9,1.1,2.6c1.4,1.4,3.8,1.4,5.2,0
							c1.4-1.4,1.4-3.8,0-5.2c-1.3-1.3-3.2-1.4-4.6-0.5l-13.1-13.1l-30.2,10L315,387.3C315.9,385.9,315.8,383.9,314.6,382.7z
							 M375.3,405.3c0.4,0.4,0.7,1,0.7,1.6c0,0.6-0.2,1.2-0.7,1.6c-0.9,0.9-2.3,0.9-3.1,0c-0.8-0.8-0.8-2.3,0-3.1
							C373.1,404.4,374.5,404.4,375.3,405.3z M310.4,386.9c-0.8-0.8-0.8-2.3,0-3.1c0.9-0.9,2.3-0.9,3.1,0c0.4,0.4,0.7,1,0.7,1.6
							c0,0.6-0.2,1.2-0.7,1.6C312.7,387.8,311.3,387.8,310.4,386.9z"/>
					</g>
					<g>
						
							<linearGradient id="SVGID_22_" gradientUnits="userSpaceOnUse" x1="2239.3147" y1="1278.6122" x2="2315.8525" y2="1278.6122" gradientTransform="matrix(1 0 0 1 -1305.2429 -1254.676)">
							<stop  offset="3.225800e-02" style="stop-color:#FA5AD5;stop-opacity:0"/>
							<stop  offset="1" style="stop-color:#FA5AD5"/>
						</linearGradient>
						<path class="st20" d="M935.1-8c-1.4-1.4-1.4-3.8,0-5.2c0.7-0.7,1.6-1.1,2.6-1.1c1,0,1.9,0.4,2.6,1.1c1.3,1.3,1.4,3.2,0.5,4.6
							l64.1,64.1c0.6-0.4,1.3-0.6,2-0.6c1,0,1.9,0.4,2.6,1.1c1.4,1.4,1.4,3.8,0,5.2s-3.8,1.4-5.2,0c-1.3-1.3-1.4-3.2-0.5-4.6
							L939.7-7.5C938.3-6.6,936.3-6.8,935.1-8z M939.3-12.3c-0.8-0.8-2.3-0.8-3.1,0c-0.9,0.9-0.9,2.3,0,3.1c0.4,0.4,1,0.7,1.6,0.7
							s1.1-0.2,1.5-0.6l0,0C940.1-9.9,940.1-11.4,939.3-12.3z M1005.4,60.2c0.4,0.4,1,0.7,1.6,0.7c0.6,0,1.2-0.2,1.6-0.7
							c0.9-0.9,0.9-2.3,0-3.1c-0.8-0.8-2.3-0.8-3.1,0C1004.4,57.9,1004.4,59.3,1005.4,60.2z"/>
						
							<linearGradient id="SVGID_23_" gradientUnits="userSpaceOnUse" x1="2246.3274" y1="1262.2327" x2="2308.8398" y2="1262.2327" gradientTransform="matrix(1 0 0 1 -1305.2429 -1254.676)">
							<stop  offset="3.225800e-02" style="stop-color:#FA5AD5;stop-opacity:0"/>
							<stop  offset="1" style="stop-color:#FA5AD5"/>
						</linearGradient>
						<path class="st21" d="M942.1-17.6c-1.4-1.4-1.4-3.8,0-5.2c0.7-0.7,1.6-1.1,2.6-1.1c1,0,1.9,0.4,2.6,1.1
							c1.3,1.3,1.4,3.2,0.5,4.6L998,32.1c0.6-0.3,1.2-0.5,1.9-0.5c1,0,1.9,0.4,2.6,1.1c1.4,1.4,1.4,3.8,0,5.2
							c-1.4,1.4-3.8,1.4-5.2,0c-0.7-0.7-1.1-1.6-1.1-2.6c0-0.8,0.3-1.6,0.7-2.2l-50.2-50.2C945.3-16.2,943.3-16.4,942.1-17.6z
							 M946.3-21.8c-0.8-0.8-2.3-0.8-3.1,0c-0.9,0.9-0.9,2.3,0,3.1c0.4,0.4,1,0.7,1.6,0.7s1.1-0.2,1.5-0.6l0,0
							C947.1-19.5,947.1-20.9,946.3-21.8z M998.3,36.8c0.4,0.4,1,0.7,1.6,0.7c0.6,0,1.2-0.2,1.6-0.7c0.9-0.9,0.9-2.3,0-3.1
							c-0.8-0.8-2.3-0.8-3.1,0c-0.4,0.4-0.7,1-0.7,1.6C997.7,35.9,997.9,36.4,998.3,36.8z"/>
					</g>
				</g>
			</g>
		</g>
	</g>
</g>
<g id="PHOTOS">
</g>
<g id="OBJECTS">
</g>
<g id="TEXTS">
</g>
</svg>
