<?xml version="1.0" encoding="utf-8"?>
<!-- Generator: Adobe Illustrator 24.3.0, SVG Export Plug-In . SVG Version: 6.00 Build 0)  -->
<svg version="1.1" id="Layer_1" xmlns="http://www.w3.org/2000/svg" xmlns:xlink="http://www.w3.org/1999/xlink" x="0px" y="0px"
	 viewBox="0 0 1280 600" style="enable-background:new 0 0 1280 600;" xml:space="preserve">
<style type="text/css">
	.st0{clip-path:url(#SVGID_2_);fill:#EEB76B;}
	.st1{clip-path:url(#SVGID_2_);}
	.st2{fill:#9C3D54;}
	.st3{opacity:0.6;clip-path:url(#SVGID_2_);}
	.st4{fill:#ffffff;}
	.st5{fill:#E2703A;}
	.st6{clip-path:url(#SVGID_2_);fill:#E2703A;}
	.st7{opacity:0.53;clip-path:url(#SVGID_2_);}
	.st8{opacity:0.46;clip-path:url(#SVGID_2_);}
	.st9{opacity:0.25;fill:#EF5A29;}
	.st10{clip-path:url(#SVGID_2_);fill:none;stroke:#FFFFFF;stroke-width:2;stroke-miterlimit:10;}
</style>
<g>
	<defs>
		<rect id="SVGID_1_" x="-26.86" y="-1.62" width="1324.73" height="606.16"/>
	</defs>
	<clipPath id="SVGID_2_">
		<use xlink:href="#SVGID_1_"  style="overflow:visible;"/>
	</clipPath>
	<rect x="-26.86" y="-1.62" class="st0" width="1324.73" height="606.16"/>
	<g class="st1">
		<path class="st2" d="M212.58-71.42c13.19,66.56,38.44,130.72,74.16,188.41c14.8,23.9,32.69,47.78,58.58,58.71
			c23.37,9.87,49.96,7.75,74.97,3.51c75.23-12.78,152.07-43.2,225.4-22.12c24.22,6.96,46.59,19.3,70.63,26.85
			c24.05,7.55,51.57,9.8,73.36-2.85c26.59-15.43,37.23-48.03,43.53-78.12c9.11-43.48,13.71-87.9,13.71-132.32
			c0-8.57-0.23-17.44-3.85-25.21c-10.39-22.33-40.88-24.2-65.47-22.76c-146.2,8.54-292.41,17.07-438.61,25.61
			c-40.87,2.39-88.38,2.02-114.17-29.77"/>
	</g>
	<g class="st3">
		<path class="st4" d="M661.87-12.68c57.38,60.34,58.02,165.75,1.38,226.78c-29.23,31.49-72.67,54.99-81.48,97.04
			c-7.49,35.76,13.52,70.38,26.07,104.69c25.06,68.48,8.68,158.75-56.28,191.88c-45.95,23.44-100.92,12.58-151.98,5.29
			c-68.13-9.72-137.31-12.01-205.93-6.83c-57.89,4.37-115.8,14.05-173.69,9.59c-31.61-2.43-65.82-10.89-84.61-36.42
			c-14.98-20.34-16.94-47.18-17.85-72.43c-4.97-137.66,5.05-275.86,29.82-411.37c10.44-57.08,25.04-116.72,65.1-158.71
			c57.45-60.22,150.3-67.56,233.37-62.45c148.64,9.15,295.53,45.92,430.96,107.86"/>
	</g>
	<g class="st1">
		<path class="st5" d="M579.84-10.83c63.17,54.25,74.43,159.06,24.22,225.49c-25.9,34.28-66.76,62.03-71.29,104.75
			c-3.85,36.34,20.54,68.66,36.49,101.53c31.83,65.61,24.63,157.06-36.66,196.57c-43.35,27.95-99.14,22.68-150.67,20.58
			c-68.76-2.8-137.82,1.89-205.57,13.96C119.22,662.24,62.58,677.7,4.54,679.1c-31.69,0.76-66.58-4.2-87.85-27.7
			c-16.95-18.73-21.61-45.24-25.06-70.26c-18.82-136.46-22.78-274.97-11.79-412.28C-115.54,111-107.01,50.2-71.4,4.39
			c51.08-65.7,142.72-82.36,225.89-85.64c148.81-5.87,298.66,15.9,439.64,63.88"/>
	</g>
	<g class="st1">
		<path class="st2" d="M174.19-25.79c39.02,70.11,21.51,166.7-39.64,218.66c-17.46,14.83-37.69,26.13-55.1,41.01
			c-24.16,20.66-42.25,47.67-66.44,68.3c-25.06,21.37-56.38,35.3-89.04,39.58c-22.41,2.94-47.56,0.47-63.55-15.51
			c-8.87-8.87-13.85-20.88-17.51-32.88c-13.16-43.22-11.78-89.39-8.94-134.48c2.6-41.24,7.25-84.91,32.43-117.67
			C-108.4,8.45-67.11-7.4-26.92-17c64.94-15.51,132.8-18.71,198.91-9.37"/>
	</g>
	<path class="st6" d="M1423.71,228.81c-41.24,36.73-105.53,50.01-158.24,30.01c-47.84-18.15-80.84-58.85-113.57-96.28
		c-32.74-37.43-71.4-75.41-122.18-84.02c-63.53-10.78-132.66,27.14-191.26,1.71c-37.11-16.11-55.5-51.9-57.19-89.99h672.34v201.8
		C1445.73,205.63,1435.73,218.11,1423.71,228.81z"/>
	<g class="st7">
		<path class="st4" d="M537.28,462.52c-2.16-2.94-4.49-5.72-6.98-8.32l-146.12,57.62c-0.02,3.59,0.18,7.2,0.63,10.82L537.28,462.52z
			"/>
		<path class="st4" d="M524.45,448.64c-3.07-2.65-6.31-5.07-9.71-7.24l-128.02,50.48c-0.98,3.9-1.69,7.87-2.1,11.9L524.45,448.64z"
			/>
		<path class="st4" d="M548.28,541.79l-117.02,46.14c4.54,2.25,9.28,4.08,14.16,5.49l96.3-37.97
			C544.31,551.09,546.5,546.52,548.28,541.79z"/>
		<path class="st4" d="M506.54,436.76c-4.54-2.24-9.28-4.08-14.16-5.48l-96.3,37.97c-2.59,4.35-4.78,8.92-6.55,13.66L506.54,436.76z
			"/>
		<path class="st4" d="M403.8,458.33l75.44-29.74c-13.63-1.69-27.85-0.09-41.52,5.3h0C424.05,439.28,412.58,447.82,403.8,458.33z"/>
		<path class="st4" d="M546.23,477.92c-1.43-3.19-3.03-6.25-4.8-9.18L386.06,530c0.72,3.34,1.65,6.66,2.8,9.96L546.23,477.92z"/>
		<path class="st4" d="M500.07,590.8c13.66-5.39,25.14-13.92,33.92-24.44l-75.44,29.75C472.17,597.79,486.41,596.19,500.07,590.8
			L500.07,590.8z"/>
		<path class="st4" d="M551.07,532.82c0.98-3.89,1.69-7.87,2.1-11.9l-139.84,55.14c3.07,2.65,6.31,5.07,9.71,7.24L551.07,532.82z"/>
		<path class="st4" d="M553.62,512.88c0.02-3.59-0.18-7.21-0.63-10.82l-152.47,60.12c2.16,2.94,4.49,5.72,6.98,8.32L553.62,512.88z"
			/>
		<path class="st4" d="M551.73,494.69c-0.72-3.34-1.65-6.67-2.8-9.96l-157.36,62.04c1.43,3.19,3.03,6.25,4.8,9.18L551.73,494.69z"/>
	</g>
	<g class="st7">
		<path class="st4" d="M821.38,26.66c-0.99-1.35-2.06-2.63-3.21-3.82l-67.14,26.47c-0.01,1.65,0.08,3.31,0.29,4.97L821.38,26.66z"/>
		<path class="st4" d="M815.49,20.28c-1.41-1.22-2.9-2.33-4.46-3.33L752.2,40.14c-0.45,1.79-0.77,3.62-0.97,5.47L815.49,20.28z"/>
		<path class="st4" d="M826.43,63.08l-53.77,21.2c2.09,1.03,4.27,1.88,6.51,2.52l44.25-17.45
			C824.61,67.35,825.62,65.25,826.43,63.08z"/>
		<path class="st4" d="M807.26,14.82c-2.09-1.03-4.27-1.87-6.51-2.52L756.5,29.75c-1.19,2-2.2,4.1-3.01,6.28L807.26,14.82z"/>
		<path class="st4" d="M760.05,24.73l34.67-13.67c-6.26-0.77-12.8-0.04-19.08,2.44h0C769.35,15.98,764.08,19.9,760.05,24.73z"/>
		<path class="st4" d="M825.49,33.73c-0.66-1.47-1.39-2.87-2.21-4.22L751.9,57.67c0.33,1.53,0.76,3.06,1.29,4.58L825.49,33.73z"/>
		<path class="st4" d="M804.29,85.6c6.28-2.48,11.55-6.4,15.58-11.23L785.2,88.04C791.47,88.81,798,88.08,804.29,85.6L804.29,85.6z"
			/>
		<path class="st4" d="M827.72,58.96c0.45-1.79,0.78-3.62,0.97-5.47l-64.25,25.34c1.41,1.22,2.9,2.33,4.46,3.33L827.72,58.96z"/>
		<path class="st4" d="M828.89,49.8c0.01-1.65-0.08-3.31-0.29-4.97l-70.06,27.62c0.99,1.35,2.06,2.63,3.21,3.82L828.89,49.8z"/>
		<path class="st4" d="M828.02,41.44c-0.33-1.53-0.76-3.06-1.29-4.58l-72.31,28.51c0.66,1.47,1.39,2.87,2.21,4.22L828.02,41.44z"/>
	</g>
	<g class="st8">
		<g>
			<path class="st4" d="M412.67-311.15L641.63-82.19L412.67,146.77L183.71-82.19L412.67-311.15 M412.67-312.57L182.3-82.19
				l230.37,230.37L643.04-82.19L412.67-312.57L412.67-312.57z"/>
		</g>
		<g>
			<path class="st4" d="M412.67-290.36L620.84-82.19L412.67,125.98L204.5-82.19L412.67-290.36 M412.67-291.78L203.09-82.19
				l209.59,209.59L622.26-82.19L412.67-291.78L412.67-291.78z"/>
		</g>
		<g>
			<path class="st4" d="M412.67-269.58L600.06-82.19L412.67,105.19L225.29-82.19L412.67-269.58 M412.67-270.99l-188.8,188.8
				l188.8,188.8l188.8-188.8L412.67-270.99L412.67-270.99z"/>
		</g>
		<g>
			<path class="st4" d="M412.67-248.79l166.6,166.6l-166.6,166.6l-166.6-166.6L412.67-248.79 M412.67-250.21L244.66-82.19
				L412.67,85.82L580.69-82.19L412.67-250.21L412.67-250.21z"/>
		</g>
		<g>
			<path class="st4" d="M412.67-228.01L558.49-82.19L412.67,63.62L266.86-82.19L412.67-228.01 M412.67-229.42L265.44-82.19
				L412.67,65.04L559.9-82.19L412.67-229.42L412.67-229.42z"/>
		</g>
		<g>
			<path class="st4" d="M412.67-207.22L537.7-82.19L412.67,42.84L287.64-82.19L412.67-207.22 M412.67-208.64L286.23-82.19
				L412.67,44.25L539.12-82.19L412.67-208.64L412.67-208.64z"/>
		</g>
		<g>
			<path class="st4" d="M412.67-186.44L516.92-82.19L412.67,22.05L308.43-82.19L412.67-186.44 M412.67-187.85L307.02-82.19
				L412.67,23.46L518.33-82.19L412.67-187.85L412.67-187.85z"/>
		</g>
		<g>
			<path class="st4" d="M412.67-165.65l83.46,83.46L412.67,1.26l-83.46-83.46L412.67-165.65 M412.67-167.06L327.8-82.19l84.87,84.87
				l84.87-84.87L412.67-167.06L412.67-167.06z"/>
		</g>
	</g>
	<g class="st1">
		
			<rect x="652.71" y="386.4" transform="matrix(-0.7071 -0.7071 0.7071 -0.7071 851.8728 1147.4005)" class="st9" width="21.74" height="21.74"/>
		
			<rect x="652.71" y="352.19" transform="matrix(-0.7071 -0.7071 0.7071 -0.7071 876.065 1088.9965)" class="st9" width="21.74" height="21.74"/>
		
			<rect x="652.71" y="317.97" transform="matrix(-0.7071 -0.7071 0.7071 -0.7071 900.3082 1030.5741)" class="st9" width="21.74" height="21.74"/>
	</g>
	<g class="st1">
		
			<rect x="686.86" y="441.69" transform="matrix(-0.7071 -0.7071 0.7071 -0.7071 871.0897 1265.9285)" class="st9" width="21.74" height="21.74"/>
		
			<rect x="686.86" y="407.47" transform="matrix(-0.7071 -0.7071 0.7071 -0.7071 895.2817 1207.5242)" class="st9" width="21.74" height="21.74"/>
		
			<rect x="686.86" y="373.26" transform="matrix(-0.7072 -0.7071 0.7071 -0.7072 919.5292 1149.1028)" class="st9" width="21.74" height="21.74"/>
	</g>
	<g class="st1">
		<path class="st4" d="M178.99,34.02c8.58,3.92,12.35,14.06,8.42,22.63c-3.92,8.58-14.06,12.35-22.63,8.42
			c-8.58-3.92-12.35-14.06-8.42-22.63C160.28,33.87,170.41,30.1,178.99,34.02z"/>
		<path class="st4" d="M215.2,59.2c4.29,1.96,6.17,7.03,4.21,11.32c-1.96,4.29-7.03,6.17-11.32,4.21
			c-4.29-1.96-6.17-7.03-4.21-11.32C205.84,59.12,210.91,57.24,215.2,59.2z"/>
		<path class="st4" d="M231.82,98.1c2.86,1.31,4.12,4.69,2.81,7.54c-1.31,2.86-4.69,4.12-7.54,2.81c-2.86-1.31-4.12-4.69-2.81-7.54
			C225.58,98.05,228.96,96.79,231.82,98.1z"/>
	</g>
	<g class="st1">
		
			<ellipse transform="matrix(0.7071 -0.7071 0.7071 0.7071 -168.9693 666.743)" class="st4" cx="720.35" cy="537.34" rx="26.72" ry="26.72"/>
		<path class="st4" d="M681.39,564.05c0,4.92-3.99,8.91-8.9,8.91s-8.91-3.99-8.91-8.91c0-4.92,3.99-8.91,8.91-8.91
			S681.39,559.13,681.39,564.05z"/>
	</g>
	<g class="st8">
		<g>
			<path class="st4" d="M1270.69,431.99l118.32,118.32l-118.32,118.32l-118.32-118.32L1270.69,431.99 M1270.69,430.58
				l-119.73,119.73l119.73,119.73l119.73-119.73L1270.69,430.58L1270.69,430.58z"/>
		</g>
		<g>
			<path class="st4" d="M1270.69,442.8l107.51,107.51l-107.51,107.51l-107.51-107.51L1270.69,442.8 M1270.69,441.38l-108.93,108.93
				l108.93,108.93l108.93-108.93L1270.69,441.38L1270.69,441.38z"/>
		</g>
		<g>
			<path class="st4" d="M1270.69,453.6l96.71,96.71l-96.71,96.71l-96.71-96.71L1270.69,453.6 M1270.69,452.18l-98.12,98.12
				l98.12,98.12l98.12-98.12L1270.69,452.18L1270.69,452.18z"/>
		</g>
		<g>
			<path class="st4" d="M1270.69,464.4l85.91,85.91l-85.91,85.91l-85.91-85.91L1270.69,464.4 M1270.69,462.99l-87.32,87.32
				l87.32,87.32l87.32-87.32L1270.69,462.99L1270.69,462.99z"/>
		</g>
		<g>
			<path class="st4" d="M1270.69,475.2l75.1,75.1l-75.1,75.1l-75.1-75.1L1270.69,475.2 M1270.69,473.79l-76.52,76.52l76.52,76.52
				l76.52-76.52L1270.69,473.79L1270.69,473.79z"/>
		</g>
		<g>
			<path class="st4" d="M1270.69,486.01l64.3,64.3l-64.3,64.3l-64.3-64.3L1270.69,486.01 M1270.69,484.59l-65.72,65.72l65.72,65.72
				l65.72-65.72L1270.69,484.59L1270.69,484.59z"/>
		</g>
		<g>
			<path class="st4" d="M1270.69,496.81l53.5,53.5l-53.5,53.5l-53.5-53.5L1270.69,496.81 M1270.69,495.4l-54.91,54.91l54.91,54.91
				l54.91-54.91L1270.69,495.4L1270.69,495.4z"/>
		</g>
		<g>
			<path class="st4" d="M1270.69,507.61l42.7,42.7l-42.7,42.7l-42.7-42.7L1270.69,507.61 M1270.69,506.2l-44.11,44.11l44.11,44.11
				l44.11-44.11L1270.69,506.2L1270.69,506.2z"/>
		</g>
	</g>
	<circle class="st10" cx="-10.26" cy="-1.62" r="88.81"/>
	<circle class="st10" cx="-16.28" cy="-39.75" r="88.81"/>
	<circle class="st10" cx="828.84" cy="604.55" r="88.81"/>
	<circle class="st10" cx="828.84" cy="624.62" r="88.81"/>
	<circle class="st10" cx="1277.09" cy="-1.62" r="88.81"/>
	<circle class="st10" cx="1299.38" cy="-16.16" r="88.81"/>
</g>
</svg>
