<?xml version="1.0" encoding="utf-8"?>
<!-- Generator: Adobe Illustrator 24.3.0, SVG Export Plug-In . SVG Version: 6.00 Build 0)  -->
<svg version="1.1" id="Layer_1" xmlns="http://www.w3.org/2000/svg" xmlns:xlink="http://www.w3.org/1999/xlink" x="0px" y="0px"
	 viewBox="0 0 1920 480" style="enable-background:new 0 0 1920 480;" xml:space="preserve">
<style type="text/css">
	.st0{clip-path:url(#SVGID_2_);fill:url(#SVGID_3_);}
	.st1{clip-path:url(#SVGID_5_);}
	.st2{fill:url(#SVGID_6_);}
	.st3{clip-path:url(#SVGID_8_);}
	.st4{fill:url(#SVGID_9_);}
	.st5{opacity:0.2;}
	.st6{clip-path:url(#SVGID_11_);}
	.st7{fill:url(#SVGID_12_);}
	.st8{clip-path:url(#SVGID_14_);}
	.st9{fill:url(#SVGID_15_);}
	.st10{clip-path:url(#SVGID_17_);}
	.st11{fill:url(#SVGID_18_);}
	.st12{clip-path:url(#SVGID_20_);}
	.st13{fill:none;stroke:url(#SVGID_21_);stroke-width:0.4728;stroke-miterlimit:9.9999;}
	.st14{fill:none;stroke:url(#SVGID_22_);stroke-width:0.4728;stroke-miterlimit:9.9999;}
	.st15{fill:none;stroke:url(#SVGID_23_);stroke-width:0.4728;stroke-miterlimit:9.9999;}
	.st16{fill:none;stroke:url(#SVGID_24_);stroke-width:0.4728;stroke-miterlimit:9.9999;}
	.st17{fill:none;stroke:url(#SVGID_25_);stroke-width:0.4728;stroke-miterlimit:9.9999;}
	.st18{fill:none;stroke:url(#SVGID_26_);stroke-width:0.4728;stroke-miterlimit:9.9999;}
	.st19{clip-path:url(#SVGID_28_);}
	.st20{fill:none;stroke:url(#SVGID_29_);stroke-width:0.3294;stroke-miterlimit:9.9999;}
	.st21{fill:none;stroke:url(#SVGID_30_);stroke-width:0.3294;stroke-miterlimit:9.9999;}
	.st22{fill:none;stroke:url(#SVGID_31_);stroke-width:0.3294;stroke-miterlimit:9.9999;}
	.st23{fill:none;stroke:url(#SVGID_32_);stroke-width:0.3294;stroke-miterlimit:9.9999;}
	.st24{fill:none;stroke:url(#SVGID_33_);stroke-width:0.3294;stroke-miterlimit:9.9999;}
	.st25{fill:none;stroke:url(#SVGID_34_);stroke-width:0.3294;stroke-miterlimit:9.9999;}
	.st26{clip-path:url(#SVGID_36_);}
	.st27{fill:url(#SVGID_37_);}
	.st28{clip-path:url(#SVGID_39_);}
	.st29{fill:url(#SVGID_40_);}
	.st30{clip-path:url(#SVGID_42_);}
	.st31{fill:url(#SVGID_43_);}
	.st32{clip-path:url(#SVGID_45_);}
	.st33{fill:url(#SVGID_46_);}
	.st34{clip-path:url(#SVGID_48_);}
	.st35{fill:none;stroke:url(#SVGID_49_);stroke-width:0.3139;stroke-miterlimit:9.9999;}
	.st36{fill:none;stroke:url(#SVGID_50_);stroke-width:0.3139;stroke-miterlimit:9.9999;}
	.st37{fill:none;stroke:url(#SVGID_51_);stroke-width:0.3139;stroke-miterlimit:9.9999;}
	.st38{fill:none;stroke:url(#SVGID_52_);stroke-width:0.3139;stroke-miterlimit:9.9999;}
	.st39{fill:none;stroke:url(#SVGID_53_);stroke-width:0.3139;stroke-miterlimit:9.9999;}
	.st40{fill:none;stroke:url(#SVGID_54_);stroke-width:0.3139;stroke-miterlimit:9.9999;}
	.st41{clip-path:url(#SVGID_56_);}
	.st42{fill:none;stroke:url(#SVGID_57_);stroke-width:0.4234;stroke-miterlimit:9.9999;}
	.st43{fill:none;stroke:url(#SVGID_58_);stroke-width:0.4234;stroke-miterlimit:9.9999;}
	.st44{fill:none;stroke:url(#SVGID_59_);stroke-width:0.4234;stroke-miterlimit:9.9999;}
	.st45{fill:none;stroke:url(#SVGID_60_);stroke-width:0.4234;stroke-miterlimit:9.9999;}
	.st46{fill:none;stroke:url(#SVGID_61_);stroke-width:0.4234;stroke-miterlimit:9.9999;}
	.st47{fill:none;stroke:url(#SVGID_62_);stroke-width:0.4234;stroke-miterlimit:9.9999;}
	.st48{display:none;}
</style>
<g id="BACKGROUND">
	<g>
		<g>
			<defs>
				<rect id="SVGID_1_" x="-2.4" y="0.7" width="1924.1" height="482"/>
			</defs>
			<clipPath id="SVGID_2_">
				<use xlink:href="#SVGID_1_"  style="overflow:visible;"/>
			</clipPath>
			
				<radialGradient id="SVGID_3_" cx="986.2502" cy="488.1871" r="923.1807" gradientTransform="matrix(1.2558 0 0 -1 -274.2529 482)" gradientUnits="userSpaceOnUse">
				<stop  offset="0" style="stop-color:#3A424A"/>
				<stop  offset="0.5063" style="stop-color:#2D343D"/>
				<stop  offset="1" style="stop-color:#000000"/>
			</radialGradient>
			<polygon class="st0" points="-8.5,500.3 1921.7,500.3 1921.7,-12.1 -8.5,-12.1 			"/>
		</g>
		<g>
			<defs>
				<rect id="SVGID_4_" x="-2.4" y="0.7" width="1924.1" height="482"/>
			</defs>
			<clipPath id="SVGID_5_">
				<use xlink:href="#SVGID_4_"  style="overflow:visible;"/>
			</clipPath>
			<g class="st1">
				<g>
					<g>
						<g>
						</g>
						<g>
						</g>
					</g>
				</g>
				
					<linearGradient id="SVGID_6_" gradientUnits="userSpaceOnUse" x1="1233.7999" y1="118.8" x2="1705.4" y2="118.8" gradientTransform="matrix(1 0 0 -1 0 482)">
					<stop  offset="0" style="stop-color:#FF4593"/>
					<stop  offset="0.8968" style="stop-color:#E73885"/>
					<stop  offset="1" style="stop-color:#E43683"/>
				</linearGradient>
				<path class="st2" d="M1469.6,127.4l-235.8,235.8L1469.6,599l235.8-235.8L1469.6,127.4z M1323.4,363.1L1469.6,217l146.2,146.2
					l-146.2,146.2L1323.4,363.1z"/>
			</g>
		</g>
		<g>
			<defs>
				<rect id="SVGID_7_" x="-2.4" y="0.7" width="1924.1" height="482"/>
			</defs>
			<clipPath id="SVGID_8_">
				<use xlink:href="#SVGID_7_"  style="overflow:visible;"/>
			</clipPath>
			<g class="st3">
				
					<linearGradient id="SVGID_9_" gradientUnits="userSpaceOnUse" x1="1455.9" y1="218.8" x2="2079" y2="218.8" gradientTransform="matrix(1 0 0 -1 0 482)">
					<stop  offset="1.346980e-03" style="stop-color:#06DCEE"/>
					<stop  offset="1" style="stop-color:#0683DB"/>
				</linearGradient>
				<path class="st4" d="M1767.5-48.4l-311.6,311.6l311.6,311.6L2079,263.2L1767.5-48.4z M1574.3,263.2L1767.5,70l193.2,193.2
					l-193.2,193.2L1574.3,263.2z"/>
				<g class="st5">
					<g>
						<g>
						</g>
						<g>
						</g>
					</g>
				</g>
			</g>
		</g>
		<g>
			<defs>
				<rect id="SVGID_10_" x="-2.4" y="0.7" width="1924.1" height="482"/>
			</defs>
			<clipPath id="SVGID_11_">
				<use xlink:href="#SVGID_10_"  style="overflow:visible;"/>
			</clipPath>
			<g class="st6">
				
					<linearGradient id="SVGID_12_" gradientUnits="userSpaceOnUse" x1="772.5" y1="-66.4" x2="1034.1" y2="-66.4" gradientTransform="matrix(1 0 0 -1 0 482)">
					<stop  offset="1.346980e-03" style="stop-color:#06DCEE"/>
					<stop  offset="1" style="stop-color:#0683DB"/>
				</linearGradient>
				<path class="st7" d="M903.3,417.6L772.5,548.4l130.8,130.8l130.8-130.8L903.3,417.6z M822.2,548.4l81.1-81.1l81.1,81.1
					l-81.1,81.1L822.2,548.4z"/>
				<g class="st5">
					<g>
						<g>
						</g>
						<g>
						</g>
					</g>
				</g>
			</g>
		</g>
		<g>
			<defs>
				<rect id="SVGID_13_" x="-2.4" y="0.7" width="1924.1" height="482"/>
			</defs>
			<clipPath id="SVGID_14_">
				<use xlink:href="#SVGID_13_"  style="overflow:visible;"/>
			</clipPath>
			<g class="st8">
				<g>
					<g>
						<g>
						</g>
						<g>
						</g>
					</g>
				</g>
				
					<linearGradient id="SVGID_15_" gradientUnits="userSpaceOnUse" x1="1158.9" y1="488.15" x2="1515.5" y2="488.15" gradientTransform="matrix(1 0 0 -1 0 482)">
					<stop  offset="0" style="stop-color:#FFFFFF"/>
					<stop  offset="1" style="stop-color:#E6E7E8"/>
				</linearGradient>
				<path class="st9" d="M1337.2-184.5L1158.9-6.1l178.3,178.3L1515.5-6.1L1337.2-184.5z M1226.6-6.1l110.6-110.6L1447.8-6.1
					l-110.6,110.6L1226.6-6.1z"/>
			</g>
		</g>
		<g>
			<defs>
				<rect id="SVGID_16_" x="-2.4" y="0.7" width="1924.1" height="482"/>
			</defs>
			<clipPath id="SVGID_17_">
				<use xlink:href="#SVGID_16_"  style="overflow:visible;"/>
			</clipPath>
			<g class="st10">
				<g>
					<g>
						<g>
						</g>
						<g>
						</g>
					</g>
				</g>
				
					<linearGradient id="SVGID_18_" gradientUnits="userSpaceOnUse" x1="1108.5" y1="247.2" x2="1221.5" y2="247.2" gradientTransform="matrix(1 0 0 -1 0 482)">
					<stop  offset="0" style="stop-color:#FFFFFF"/>
					<stop  offset="1" style="stop-color:#E6E7E8"/>
				</linearGradient>
				<path class="st11" d="M1165,178.3l-56.5,56.5l56.5,56.5l56.5-56.5L1165,178.3z M1130,234.8l35-35l35,35l-35,35L1130,234.8z"/>
			</g>
		</g>
		<g>
			<defs>
				<rect id="SVGID_19_" x="-2.4" y="0.7" width="1924.1" height="482"/>
			</defs>
			<clipPath id="SVGID_20_">
				<use xlink:href="#SVGID_19_"  style="overflow:visible;"/>
			</clipPath>
			<g class="st12">
				
					<linearGradient id="SVGID_21_" gradientUnits="userSpaceOnUse" x1="1428.5599" y1="619.4067" x2="2139.0295" y2="619.4067" gradientTransform="matrix(0.7071 -0.7071 -0.7071 -0.7071 908.4307 1805.4685)">
					<stop  offset="0" style="stop-color:#F1F1FB"/>
					<stop  offset="1" style="stop-color:#FFFFFF;stop-opacity:0"/>
				</linearGradient>
				
					<rect x="1480.8" y="-144.8" transform="matrix(0.7071 -0.7071 0.7071 0.7071 432.1249 1255.6289)" class="st13" width="501.9" height="501.9"/>
				
					<linearGradient id="SVGID_22_" gradientUnits="userSpaceOnUse" x1="1450.459" y1="619.4067" x2="2117.1306" y2="619.4067" gradientTransform="matrix(0.7071 -0.7071 -0.7071 -0.7071 908.4307 1805.4685)">
					<stop  offset="0" style="stop-color:#F1F1FB"/>
					<stop  offset="1" style="stop-color:#FFFFFF;stop-opacity:0"/>
				</linearGradient>
				
					<rect x="1496.3" y="-129.3" transform="matrix(0.7071 -0.7071 0.7071 0.7071 432.1249 1255.6289)" class="st14" width="470.9" height="470.9"/>
				
					<linearGradient id="SVGID_23_" gradientUnits="userSpaceOnUse" x1="1472.358" y1="619.3566" x2="2095.2317" y2="619.3566" gradientTransform="matrix(0.7071 -0.7071 -0.7071 -0.7071 908.4307 1805.4685)">
					<stop  offset="0" style="stop-color:#F1F1FB"/>
					<stop  offset="1" style="stop-color:#FFFFFF;stop-opacity:0"/>
				</linearGradient>
				
					<rect x="1511.8" y="-113.8" transform="matrix(0.7071 -0.7071 0.7071 0.7071 432.1456 1255.679)" class="st15" width="440" height="440"/>
				
					<linearGradient id="SVGID_24_" gradientUnits="userSpaceOnUse" x1="1494.2571" y1="619.3566" x2="2073.3328" y2="619.3566" gradientTransform="matrix(0.7071 -0.7071 -0.7071 -0.7071 908.4304 1805.4683)">
					<stop  offset="0" style="stop-color:#F1F1FB"/>
					<stop  offset="1" style="stop-color:#FFFFFF;stop-opacity:0"/>
				</linearGradient>
				
					<rect x="1527.3" y="-98.3" transform="matrix(0.7071 -0.7071 0.7071 0.7071 432.1457 1255.6787)" class="st16" width="409" height="409"/>
				
					<linearGradient id="SVGID_25_" gradientUnits="userSpaceOnUse" x1="1516.156" y1="619.4567" x2="2051.4336" y2="619.4567" gradientTransform="matrix(0.7071 -0.7071 -0.7071 -0.7071 908.4307 1805.4685)">
					<stop  offset="0" style="stop-color:#F1F1FB"/>
					<stop  offset="1" style="stop-color:#FFFFFF;stop-opacity:0"/>
				</linearGradient>
				
					<rect x="1542.7" y="-82.9" transform="matrix(0.7071 -0.7071 0.7071 0.7071 432.1749 1255.6083)" class="st17" width="378" height="378"/>
				
					<linearGradient id="SVGID_26_" gradientUnits="userSpaceOnUse" x1="1538.0551" y1="619.4066" x2="2029.5347" y2="619.4066" gradientTransform="matrix(0.7071 -0.7071 -0.7071 -0.7071 908.4307 1805.4685)">
					<stop  offset="0" style="stop-color:#F1F1FB"/>
					<stop  offset="1" style="stop-color:#FFFFFF;stop-opacity:0"/>
				</linearGradient>
				
					<rect x="1558.3" y="-67.4" transform="matrix(0.7071 -0.7071 0.7071 0.7071 432.1956 1255.6582)" class="st18" width="347.1" height="347.1"/>
			</g>
		</g>
		<g>
			<defs>
				<rect id="SVGID_27_" x="-2.4" y="0.7" width="1924.1" height="482"/>
			</defs>
			<clipPath id="SVGID_28_">
				<use xlink:href="#SVGID_27_"  style="overflow:visible;"/>
			</clipPath>
			<g class="st19">
				
					<linearGradient id="SVGID_29_" gradientUnits="userSpaceOnUse" x1="6279.1621" y1="309.6066" x2="6774.1104" y2="309.6066" gradientTransform="matrix(-0.7071 0.7071 -0.7071 -0.7071 6086.147 -3980.1252)">
					<stop  offset="0" style="stop-color:#F1F1FB"/>
					<stop  offset="1" style="stop-color:#FFFFFF;stop-opacity:0"/>
				</linearGradient>
				
					<rect x="1077.4" y="241.1" transform="matrix(0.7071 -0.7071 0.7071 0.7071 72.6937 1007.3058)" class="st20" width="349.7" height="349.7"/>
				
					<linearGradient id="SVGID_30_" gradientUnits="userSpaceOnUse" x1="6294.418" y1="309.7066" x2="6758.8545" y2="309.7066" gradientTransform="matrix(-0.7071 0.7071 -0.7071 -0.7071 6086.147 -3980.1255)">
					<stop  offset="0" style="stop-color:#F1F1FB"/>
					<stop  offset="1" style="stop-color:#FFFFFF;stop-opacity:0"/>
				</linearGradient>
				
					<rect x="1088.2" y="251.8" transform="matrix(0.7071 -0.7071 0.7071 0.7071 72.7232 1007.2349)" class="st21" width="328.1" height="328.1"/>
				
					<linearGradient id="SVGID_31_" gradientUnits="userSpaceOnUse" x1="6309.6738" y1="309.7067" x2="6743.5986" y2="309.7067" gradientTransform="matrix(-0.7071 0.7071 -0.7071 -0.7071 6086.147 -3980.1255)">
					<stop  offset="0" style="stop-color:#F1F1FB"/>
					<stop  offset="1" style="stop-color:#FFFFFF;stop-opacity:0"/>
				</linearGradient>
				
					<rect x="1099" y="262.6" transform="matrix(0.7071 -0.7071 0.7071 0.7071 72.7233 1007.2349)" class="st22" width="306.5" height="306.5"/>
				
					<linearGradient id="SVGID_32_" gradientUnits="userSpaceOnUse" x1="6324.9297" y1="309.7067" x2="6728.3428" y2="309.7067" gradientTransform="matrix(-0.7071 0.7071 -0.7071 -0.7071 6086.147 -3980.1257)">
					<stop  offset="0" style="stop-color:#F1F1FB"/>
					<stop  offset="1" style="stop-color:#FFFFFF;stop-opacity:0"/>
				</linearGradient>
				
					<rect x="1109.7" y="273.5" transform="matrix(0.7071 -0.7071 0.7071 0.7071 72.6526 1007.2054)" class="st23" width="284.9" height="284.9"/>
				
					<linearGradient id="SVGID_33_" gradientUnits="userSpaceOnUse" x1="6340.1855" y1="309.6566" x2="6713.0864" y2="309.6566" gradientTransform="matrix(-0.7071 0.7071 -0.7071 -0.7071 6086.147 -3980.1257)">
					<stop  offset="0" style="stop-color:#F1F1FB"/>
					<stop  offset="1" style="stop-color:#FFFFFF;stop-opacity:0"/>
				</linearGradient>
				
					<rect x="1120.5" y="284.2" transform="matrix(0.7071 -0.7071 0.7071 0.7071 72.6733 1007.2555)" class="st24" width="263.4" height="263.4"/>
				
					<linearGradient id="SVGID_34_" gradientUnits="userSpaceOnUse" x1="6355.4419" y1="309.6566" x2="6697.8306" y2="309.6566" gradientTransform="matrix(-0.7071 0.7071 -0.7071 -0.7071 6086.147 -3980.1257)">
					<stop  offset="0" style="stop-color:#F1F1FB"/>
					<stop  offset="1" style="stop-color:#FFFFFF;stop-opacity:0"/>
				</linearGradient>
				
					<rect x="1131.3" y="295" transform="matrix(0.7071 -0.7071 0.7071 0.7071 72.6734 1007.2555)" class="st25" width="241.8" height="241.8"/>
			</g>
		</g>
		<g>
			<defs>
				<rect id="SVGID_35_" x="-2.4" y="0.7" width="1924.1" height="482"/>
			</defs>
			<clipPath id="SVGID_36_">
				<use xlink:href="#SVGID_35_"  style="overflow:visible;"/>
			</clipPath>
			<g class="st26">
				<g>
					<g>
						<g>
						</g>
						<g>
						</g>
					</g>
				</g>
				
					<linearGradient id="SVGID_37_" gradientUnits="userSpaceOnUse" x1="7155.8599" y1="-2767.5903" x2="7468.96" y2="-2767.5903" gradientTransform="matrix(-1 0 0 1 7691.7598 2894.8904)">
					<stop  offset="0" style="stop-color:#FF4593"/>
					<stop  offset="0.8968" style="stop-color:#E73885"/>
					<stop  offset="1" style="stop-color:#E43683"/>
				</linearGradient>
				<path class="st27" d="M379.4,283.8l156.5-156.5L379.4-29.2L222.8,127.3L379.4,283.8z M476.4,127.3l-97.1,97.1l-97.1-97.1
					l97.1-97.1L476.4,127.3z"/>
			</g>
		</g>
		<g>
			<defs>
				<rect id="SVGID_38_" x="-2.4" y="0.7" width="1924.1" height="482"/>
			</defs>
			<clipPath id="SVGID_39_">
				<use xlink:href="#SVGID_38_"  style="overflow:visible;"/>
			</clipPath>
			<g class="st28">
				<g>
					<g>
						<g>
						</g>
						<g>
						</g>
					</g>
				</g>
				
					<linearGradient id="SVGID_40_" gradientUnits="userSpaceOnUse" x1="7009.5596" y1="-2555.5903" x2="7166.1597" y2="-2555.5903" gradientTransform="matrix(-1 0 0 1 7691.7598 2894.8904)">
					<stop  offset="0" style="stop-color:#FF4593"/>
					<stop  offset="0.8968" style="stop-color:#E73885"/>
					<stop  offset="1" style="stop-color:#E43683"/>
				</linearGradient>
				<path class="st29" d="M603.9,417.6l78.3-78.3L603.9,261l-78.3,78.3L603.9,417.6z M652.4,339.3l-48.5,48.5l-48.5-48.5l48.5-48.5
					L652.4,339.3z"/>
			</g>
		</g>
		<g>
			<defs>
				<rect id="SVGID_41_" x="-2.4" y="0.7" width="1924.1" height="482"/>
			</defs>
			<clipPath id="SVGID_42_">
				<use xlink:href="#SVGID_41_"  style="overflow:visible;"/>
			</clipPath>
			<g class="st30">
				
					<linearGradient id="SVGID_43_" gradientUnits="userSpaceOnUse" x1="7303.2598" y1="-2763.5403" x2="7841.6597" y2="-2763.5403" gradientTransform="matrix(-1 0 0 1 7691.7598 2894.8904)">
					<stop  offset="1.346980e-03" style="stop-color:#06DCEE"/>
					<stop  offset="1" style="stop-color:#0683DB"/>
				</linearGradient>
				<path class="st31" d="M119.3,400.5l269.2-269.2L119.3-137.8l-269.2,269.2L119.3,400.5z M286.2,131.3L119.3,298.2L-47.6,131.3
					L119.3-35.6L286.2,131.3z"/>
				<g class="st5">
					<g>
						<g>
						</g>
						<g>
						</g>
					</g>
				</g>
			</g>
		</g>
		<g>
			<defs>
				<rect id="SVGID_44_" x="-2.4" y="0.7" width="1924.1" height="482"/>
			</defs>
			<clipPath id="SVGID_45_">
				<use xlink:href="#SVGID_44_"  style="overflow:visible;"/>
			</clipPath>
			<g class="st32">
				<g>
					<g>
						<g>
						</g>
						<g>
						</g>
					</g>
				</g>
				
					<linearGradient id="SVGID_46_" gradientUnits="userSpaceOnUse" x1="7110.1597" y1="-2413.3904" x2="7510.1597" y2="-2413.3904" gradientTransform="matrix(-1 0 0 1 7691.7598 2894.8904)">
					<stop  offset="0" style="stop-color:#FFFFFF"/>
					<stop  offset="1" style="stop-color:#E6E7E8"/>
				</linearGradient>
				<path class="st33" d="M381.6,681.5l200-200l-200-200l-200,200L381.6,681.5z M505.6,481.5l-124,124l-124-124l124-124L505.6,481.5
					z"/>
			</g>
		</g>
		<g>
			<defs>
				<rect id="SVGID_47_" x="-2.4" y="0.7" width="1924.1" height="482"/>
			</defs>
			<clipPath id="SVGID_48_">
				<use xlink:href="#SVGID_47_"  style="overflow:visible;"/>
			</clipPath>
			<g class="st34">
				
					<linearGradient id="SVGID_49_" gradientUnits="userSpaceOnUse" x1="7242.8423" y1="-3075.7471" x2="7714.543" y2="-3075.7471" gradientTransform="matrix(-0.7071 0.7071 0.7071 0.7071 7624.0869 -3050.614)">
					<stop  offset="0" style="stop-color:#F1F1FB"/>
					<stop  offset="1" style="stop-color:#FFFFFF;stop-opacity:0"/>
				</linearGradient>
				
					<rect x="-5.6" y="-103.8" transform="matrix(0.7071 -0.7071 0.7071 0.7071 2.782 132.2228)" class="st35" width="333.2" height="333.2"/>
				
					<linearGradient id="SVGID_50_" gradientUnits="userSpaceOnUse" x1="7257.3818" y1="-3075.697" x2="7700.0034" y2="-3075.697" gradientTransform="matrix(-0.7071 0.7071 0.7071 0.7071 7624.0869 -3050.614)">
					<stop  offset="0" style="stop-color:#F1F1FB"/>
					<stop  offset="1" style="stop-color:#FFFFFF;stop-opacity:0"/>
				</linearGradient>
				
					<rect x="4.7" y="-93.6" transform="matrix(0.7071 -0.7071 0.7071 0.7071 2.8027 132.2728)" class="st36" width="312.7" height="312.7"/>
				
					<linearGradient id="SVGID_51_" gradientUnits="userSpaceOnUse" x1="7271.9214" y1="-3075.697" x2="7685.4644" y2="-3075.697" gradientTransform="matrix(-0.7071 0.7071 0.7071 0.7071 7624.0869 -3050.614)">
					<stop  offset="0" style="stop-color:#F1F1FB"/>
					<stop  offset="1" style="stop-color:#FFFFFF;stop-opacity:0"/>
				</linearGradient>
				
					<rect x="15" y="-83.3" transform="matrix(0.7071 -0.7071 0.7071 0.7071 2.8027 132.2728)" class="st37" width="292.1" height="292.1"/>
				
					<linearGradient id="SVGID_52_" gradientUnits="userSpaceOnUse" x1="7286.4604" y1="-3075.697" x2="7670.9248" y2="-3075.697" gradientTransform="matrix(-0.7071 0.7071 0.7071 0.7071 7624.0869 -3050.6143)">
					<stop  offset="0" style="stop-color:#F1F1FB"/>
					<stop  offset="1" style="stop-color:#FFFFFF;stop-opacity:0"/>
				</linearGradient>
				
					<rect x="25.3" y="-73" transform="matrix(0.7071 -0.7071 0.7071 0.7071 2.8028 132.2728)" class="st38" width="271.5" height="271.5"/>
				
					<linearGradient id="SVGID_53_" gradientUnits="userSpaceOnUse" x1="7301" y1="-3075.7471" x2="7656.3853" y2="-3075.7471" gradientTransform="matrix(-0.7071 0.7071 0.7071 0.7071 7624.0869 -3050.6143)">
					<stop  offset="0" style="stop-color:#F1F1FB"/>
					<stop  offset="1" style="stop-color:#FFFFFF;stop-opacity:0"/>
				</linearGradient>
				
					<rect x="35.6" y="-62.8" transform="matrix(0.7071 -0.7071 0.7071 0.7071 2.8528 132.2521)" class="st39" width="251" height="251"/>
				
					<linearGradient id="SVGID_54_" gradientUnits="userSpaceOnUse" x1="7315.5391" y1="-3075.7471" x2="7641.8462" y2="-3075.7471" gradientTransform="matrix(-0.7071 0.7071 0.7071 0.7071 7624.0869 -3050.614)">
					<stop  offset="0" style="stop-color:#F1F1FB"/>
					<stop  offset="1" style="stop-color:#FFFFFF;stop-opacity:0"/>
				</linearGradient>
				
					<rect x="45.9" y="-52.5" transform="matrix(0.7071 -0.7071 0.7071 0.7071 2.8527 132.2521)" class="st40" width="230.4" height="230.4"/>
			</g>
		</g>
		<g>
			<defs>
				<rect id="SVGID_55_" x="-2.4" y="0.7" width="1924.1" height="482"/>
			</defs>
			<clipPath id="SVGID_56_">
				<use xlink:href="#SVGID_55_"  style="overflow:visible;"/>
			</clipPath>
			<g class="st41">
				
					<linearGradient id="SVGID_57_" gradientUnits="userSpaceOnUse" x1="349.402" y1="-2638.147" x2="985.6093" y2="-2638.147" gradientTransform="matrix(0.7071 -0.7071 0.7071 0.7071 1869.8577 2837.7239)">
					<stop  offset="0" style="stop-color:#F1F1FB"/>
					<stop  offset="1" style="stop-color:#FFFFFF;stop-opacity:0"/>
				</linearGradient>
				
					<rect x="251.7" y="275.6" transform="matrix(0.7071 -0.7071 0.7071 0.7071 -214.2362 483.4064)" class="st42" width="449.4" height="449.4"/>
				
					<linearGradient id="SVGID_58_" gradientUnits="userSpaceOnUse" x1="369.012" y1="-2638.197" x2="965.9993" y2="-2638.197" gradientTransform="matrix(0.7071 -0.7071 0.7071 0.7071 1869.8577 2837.7239)">
					<stop  offset="0" style="stop-color:#F1F1FB"/>
					<stop  offset="1" style="stop-color:#FFFFFF;stop-opacity:0"/>
				</linearGradient>
				
					<rect x="265.6" y="289.4" transform="matrix(0.7071 -0.7071 0.7071 0.7071 -214.1862 483.3857)" class="st43" width="421.7" height="421.7"/>
				
					<linearGradient id="SVGID_59_" gradientUnits="userSpaceOnUse" x1="388.6219" y1="-2638.147" x2="946.3893" y2="-2638.147" gradientTransform="matrix(0.7071 -0.7071 0.7071 0.7071 1869.8577 2837.7239)">
					<stop  offset="0" style="stop-color:#F1F1FB"/>
					<stop  offset="1" style="stop-color:#FFFFFF;stop-opacity:0"/>
				</linearGradient>
				
					<rect x="279.4" y="303.3" transform="matrix(0.7071 -0.7071 0.7071 0.7071 -214.2362 483.4064)" class="st44" width="394" height="394"/>
				
					<linearGradient id="SVGID_60_" gradientUnits="userSpaceOnUse" x1="408.2319" y1="-2638.147" x2="926.7793" y2="-2638.147" gradientTransform="matrix(0.7071 -0.7071 0.7071 0.7071 1869.8577 2837.7239)">
					<stop  offset="0" style="stop-color:#F1F1FB"/>
					<stop  offset="1" style="stop-color:#FFFFFF;stop-opacity:0"/>
				</linearGradient>
				
					<rect x="293.3" y="317.2" transform="matrix(0.7071 -0.7071 0.7071 0.7071 -214.2362 483.4064)" class="st45" width="366.2" height="366.2"/>
				
					<linearGradient id="SVGID_61_" gradientUnits="userSpaceOnUse" x1="427.8419" y1="-2638.197" x2="907.1693" y2="-2638.197" gradientTransform="matrix(0.7071 -0.7071 0.7071 0.7071 1869.8577 2837.7239)">
					<stop  offset="0" style="stop-color:#F1F1FB"/>
					<stop  offset="1" style="stop-color:#FFFFFF;stop-opacity:0"/>
				</linearGradient>
				
					<rect x="307.2" y="331" transform="matrix(0.7071 -0.7071 0.7071 0.7071 -214.1862 483.3857)" class="st46" width="338.5" height="338.5"/>
				
					<linearGradient id="SVGID_62_" gradientUnits="userSpaceOnUse" x1="447.4519" y1="-2638.147" x2="887.5593" y2="-2638.147" gradientTransform="matrix(0.7071 -0.7071 0.7071 0.7071 1869.8577 2837.7239)">
					<stop  offset="0" style="stop-color:#F1F1FB"/>
					<stop  offset="1" style="stop-color:#FFFFFF;stop-opacity:0"/>
				</linearGradient>
				
					<rect x="321" y="344.9" transform="matrix(0.7071 -0.7071 0.7071 0.7071 -214.2362 483.4064)" class="st47" width="310.8" height="310.8"/>
			</g>
		</g>
	</g>
</g>
<g id="PHOTOS" class="st48">
</g>
<g id="OBJECTS">
</g>
<g id="TEXTS">
</g>
</svg>
