<?xml version="1.0" encoding="utf-8"?>
<!-- Generator: Adobe Illustrator 24.3.0, SVG Export Plug-In . SVG Version: 6.00 Build 0)  -->
<svg version="1.1" id="Layer_1" xmlns="http://www.w3.org/2000/svg" xmlns:xlink="http://www.w3.org/1999/xlink" x="0px" y="0px"
	 viewBox="0 0 1280 600" style="enable-background:new 0 0 1280 600;" xml:space="preserve">
<style type="text/css">
	.st0{clip-path:url(#SVGID_2_);}
	.st1{fill:url(#SVGID_3_);}
	.st2{fill:url(#SVGID_4_);}
	.st3{opacity:0.7;}
	.st4{fill:url(#SVGID_7_);}
	.st5{fill:url(#SVGID_8_);}
	.st6{fill:url(#SVGID_9_);}
	.st7{fill:url(#SVGID_10_);}
	.st8{fill:url(#SVGID_11_);}
	.st9{fill:url(#SVGID_12_);}
	.st10{opacity:0.3;}
	.st11{fill:#FFFFFF;}
	.st12{opacity:0.6;fill:#FFFFFF;}
	.st13{opacity:0.8;fill:#FFFFFF;}
	.st14{fill:none;}
	.st15{opacity:0.4;fill:url(#SVGID_13_);}
	.st16{opacity:0.6;fill:url(#SVGID_14_);}
	.st17{fill:url(#SVGID_15_);}
</style>
<g>
	<defs>
		<rect id="SVGID_1_" x="1.6" y="-1.1" width="1277.9" height="600.5"/>
	</defs>
	<clipPath id="SVGID_2_">
		<use xlink:href="#SVGID_1_"  style="overflow:visible;"/>
	</clipPath>
	<g class="st0">
		
			<radialGradient id="SVGID_3_" cx="808.8918" cy="142.0902" r="862.8515" gradientTransform="matrix(1.0118 0 0 1.0026 -1.926877e-02 2.829624e-03)" gradientUnits="userSpaceOnUse">
			<stop  offset="0" style="stop-color:#CE02CF"/>
			<stop  offset="0.1837" style="stop-color:#9C01AE"/>
			<stop  offset="0.3648" style="stop-color:#720192"/>
			<stop  offset="0.5399" style="stop-color:#51017D"/>
			<stop  offset="0.7076" style="stop-color:#3A006D"/>
			<stop  offset="0.8645" style="stop-color:#2C0064"/>
			<stop  offset="1" style="stop-color:#270061"/>
		</radialGradient>
		<rect x="1.6" y="127.4" class="st1" width="1285.5" height="318.5"/>
		<linearGradient id="SVGID_4_" gradientUnits="userSpaceOnUse" x1="1.6339" y1="299.1489" x2="1287.1674" y2="299.1489">
			<stop  offset="7.916083e-02" style="stop-color:#270061"/>
			<stop  offset="0.9482" style="stop-color:#270061"/>
		</linearGradient>
		<rect x="1.6" y="-1.1" class="st2" width="1285.5" height="600.5"/>
		<g>
			<defs>
				<rect id="SVGID_5_" x="1.6" y="127.4" width="1285.5" height="318.5"/>
			</defs>
			<clipPath id="SVGID_6_">
				<use xlink:href="#SVGID_5_"  style="overflow:visible;"/>
			</clipPath>
		</g>
		<g>
			<g class="st3">
				
					<linearGradient id="SVGID_7_" gradientUnits="userSpaceOnUse" x1="588.017" y1="41.1758" x2="933.6997" y2="827.5514" gradientTransform="matrix(1 -7.200000e-03 7.200000e-03 1 -15.4149 14.2067)">
					<stop  offset="0" style="stop-color:#0ED0F8"/>
					<stop  offset="7.931155e-02" style="stop-color:#11B9E8;stop-opacity:0.9206"/>
					<stop  offset="0.3262" style="stop-color:#1978B8;stop-opacity:0.6735"/>
					<stop  offset="0.5505" style="stop-color:#1F4493;stop-opacity:0.449"/>
					<stop  offset="0.7444" style="stop-color:#231F78;stop-opacity:0.2549"/>
					<stop  offset="0.9005" style="stop-color:#260867;stop-opacity:9.869826e-02"/>
					<stop  offset="0.9991" style="stop-color:#270061;stop-opacity:0"/>
				</linearGradient>
				<path class="st4" d="M1301.3,370.9c-82.8-23.7-176.5-21-264.7-20.3c-126.7,2.9-220.1,57.4-346.8,58.3
					c-129.5,0.9-248.4-64.2-364.4-99.7C226,277.6,51.4,283.7-42,326.8l60.8,249.3L1526,565.3l-1.1-151.5
					C1445.1,438.6,1370.4,388.6,1301.3,370.9z"/>
			</g>
			<g>
				
					<radialGradient id="SVGID_8_" cx="693.6906" cy="430.3655" r="536.9325" gradientTransform="matrix(1.011 -4.080409e-02 4.117997e-02 1.0018 -87.7484 76.0529)" gradientUnits="userSpaceOnUse">
					<stop  offset="0" style="stop-color:#FF4200"/>
					<stop  offset="1" style="stop-color:#FF9A00"/>
				</radialGradient>
				<path class="st5" d="M1159.3,409.7c-83.6-20.9-177.1-15.1-265.2-11.5c-126.6,7.1-218,64.7-344.6,69.8
					c-129.4,5.2-227.9-71.7-345-103.4c-100.4-28.3-230.3-6.1-322.2,40.1l2.1,252.7l1506-60.8l-6.2-151.4
					C1305.3,472.6,1228.9,425.1,1159.3,409.7z"/>
			</g>
		</g>
		<g>
			
				<linearGradient id="SVGID_9_" gradientUnits="userSpaceOnUse" x1="496.1721" y1="-178.1913" x2="1294.1962" y2="-178.1913" gradientTransform="matrix(0.984 -0.1777 0.1777 0.984 -427.0994 271.7603)">
				<stop  offset="0" style="stop-color:#0ED0F8"/>
				<stop  offset="7.931155e-02" style="stop-color:#11B9E8;stop-opacity:0.9206"/>
				<stop  offset="0.3262" style="stop-color:#1978B8;stop-opacity:0.6735"/>
				<stop  offset="0.5505" style="stop-color:#1F4493;stop-opacity:0.449"/>
				<stop  offset="0.7444" style="stop-color:#231F78;stop-opacity:0.2549"/>
				<stop  offset="0.9005" style="stop-color:#260867;stop-opacity:9.869826e-02"/>
				<stop  offset="0.9991" style="stop-color:#270061;stop-opacity:0"/>
			</linearGradient>
			<path class="st6" d="M479.2,19.8C455.6,5.8,426.5,0.1,399.2,2.4C311.4,9.4,311-87.6,303.1-148c-2.4-18.6-6.8-40-15.7-56.8
				c-36.5-69.2-126.9-64.5-192.4-54c-37.8,6.1-75,14.3-111.9,24.6c-31.1,8.7-62.8,17.8-90.3,35c-12.8,8-23.9,18.1-32.5,30.5
				c-16.3,23.6-21.6,56.6-9.7,83c20.8,46.1,76.7,29.8,113.7,18.2C-0.7-78.5,35.2-96,73.1-91.2c19.9,2.5,33.6,19.3,36.8,38.7
				c5.2,31.9-2.8,55.8-17.5,84C72.8,68.9,60,111.9,80.8,151.6c22.1,42.3,64.5,53.8,109.5,48.2c53.3-6.7,81.7-65.8,163.8-48.8
				c45.2,9.3,97.1,56,138.3,22.1c11.6-9.6,18.8-24.4,23.2-38.5c4.2-13.5,5.1-27.8,3.6-41.9c-2.6-25.8-14.7-56.6-37.3-71.1
				C481.1,21,480.2,20.4,479.2,19.8z"/>
		</g>
		<g>
			
				<radialGradient id="SVGID_10_" cx="478.1292" cy="-915.893" r="287.3094" gradientTransform="matrix(0.7845 -0.6331 0.6389 0.7774 232.8039 999.2542)" gradientUnits="userSpaceOnUse">
				<stop  offset="0" style="stop-color:#FF4200"/>
				<stop  offset="1" style="stop-color:#FF9A00"/>
			</radialGradient>
			<path class="st7" d="M307.6-127.5c-22.4-0.8-46.5,6-66.5,15.1c-12.6,5.7-24.2,13.3-35.5,21.1c-20.2,14-32.5-2.9-41.4-19.4
				c-20.7-38.6-41.3-66.1-88.1-70.1c-12.5-1.1-25.6-0.5-37.6-4.4c-16.7-5.4-28.3-19.8-44.4-26.5c-16.7-6.9-35.2-8.1-52.9-10.2
				c-41.1-4.7-80.3,9.9-113.3,33.5c-10.1,7.2-19.5,15.2-29,23.2c-20.7,17.4-40.7,35.7-60,54.6c-22.5,22-46.1,45.7-61.7,73.9
				c-7.4,13.4-12.3,27.8-13.8,43c-2.8,28.9,8.8,60.9,32.6,78.6c41.4,30.9,83-10.8,110.2-39.2c25.7-26.9,48.9-59.9,85.1-74.1
				c19-7.5,39.5,0.7,51.9,16.5c20.5,25.9,25.2,51.1,26.1,83.3c1.2,42.8,11.1,87.2,49.3,112.4c40.7,26.8,84.1,16.4,121.3-10.5
				c44.1-31.9,76.5-80.3,128.8-100.4c43.8-16.9,107-20.3,126.8-70.5c5.6-14.2,4.6-30.9,1.6-45.6c-2.9-14.1-9.3-27.2-17.5-39
				c-15.1-21.6-41.1-43.2-68.5-45.1C309.8-127.4,308.7-127.5,307.6-127.5z"/>
		</g>
		<g>
			
				<radialGradient id="SVGID_11_" cx="1234.1506" cy="-104.2438" r="287.3083" gradientTransform="matrix(0.8263 -0.5786 0.5839 0.8188 295.0003 916.3815)" gradientUnits="userSpaceOnUse">
				<stop  offset="0" style="stop-color:#FF4200"/>
				<stop  offset="1" style="stop-color:#FF9A00"/>
			</radialGradient>
			<path class="st8" d="M1545.9,24.5c-22.3-2.3-46.8,2.8-67.4,10.6c-12.9,4.9-25,11.6-36.9,18.7c-21.2,12.6-32.3-5.1-40-22.2
				c-18-39.9-36.7-68.8-83.1-75.9c-12.3-1.9-25.5-2.2-37.2-6.9c-16.3-6.5-26.9-21.6-42.5-29.4c-16.2-8-34.5-10.5-52.1-13.7
				c-40.7-7.5-80.8,4.5-115.3,25.7c-10.6,6.5-20.5,13.9-30.5,21.2c-21.9,16-43.1,32.8-63.7,50.4c-23.9,20.4-49.1,42.4-66.6,69.5
				c-8.3,12.8-14.2,26.9-16.7,42c-4.8,28.7,4.6,61.3,27.1,80.6c39.1,33.6,83.5-5.2,112.6-31.7c27.5-25.1,53-56.5,90-68.2
				c19.5-6.2,39.3,3.4,50.7,20c18.6,27.2,21.6,52.7,20.3,84.8c-1.8,42.8,5.1,87.8,41.4,115.5c38.7,29.5,82.8,22.1,121.7-2.3
				c46.2-28.9,81.8-74.9,135.4-91.5c44.9-13.9,108.1-13,131.3-61.8c6.6-13.8,6.8-30.5,4.7-45.4c-2-14.2-7.4-27.8-14.8-40.1
				c-13.6-22.6-38.1-45.9-65.2-49.7C1548.1,24.7,1547,24.6,1545.9,24.5z"/>
		</g>
		<g>
			
				<linearGradient id="SVGID_12_" gradientUnits="userSpaceOnUse" x1="252.87" y1="-125.6102" x2="892.0466" y2="-125.6102" gradientTransform="matrix(0.9539 -0.3003 0.3003 0.9539 703.6643 345.9843)">
				<stop  offset="0" style="stop-color:#0ED0F8"/>
				<stop  offset="7.931155e-02" style="stop-color:#11B9E8;stop-opacity:0.9206"/>
				<stop  offset="0.3262" style="stop-color:#1978B8;stop-opacity:0.6735"/>
				<stop  offset="0.5505" style="stop-color:#1F4493;stop-opacity:0.449"/>
				<stop  offset="0.7444" style="stop-color:#231F78;stop-opacity:0.2549"/>
				<stop  offset="0.9005" style="stop-color:#260867;stop-opacity:9.869826e-02"/>
				<stop  offset="0.9991" style="stop-color:#270061;stop-opacity:0"/>
			</linearGradient>
			<path class="st9" d="M1518.4,54.2c-20.5-8.9-45.4-11.5-67.4-10.3c-13.8,0.7-27.4,3.5-40.9,6.6c-24,5.6-29.2-14.6-31.2-33.2
				c-4.9-43.4-13.7-76.6-55.7-97.4c-11.2-5.5-23.6-9.8-33.3-17.8c-13.5-11.1-18.9-28.7-31.4-40.9c-12.9-12.5-29.6-20.4-45.4-28.8
				c-36.4-19.4-78.3-20.2-117.7-10.4c-12.1,3-23.8,7-35.6,10.9c-25.8,8.6-51.1,18.2-76.2,28.7c-29.1,12.2-59.8,25.6-84.9,46.1
				c-11.9,9.7-21.8,21.3-28.8,34.9c-13.4,25.8-14.5,59.8,0.9,84.9c26.9,43.9,81.2,20.3,117,3.9c33.9-15.6,67.8-37.8,106.7-37.7
				c20.4,0,36.4,15.1,42.1,34.4c9.4,31.5,4.4,56.7-6.8,86.9c-14.9,40.2-22.2,85.1,3.9,122.5c27.8,39.8,72.1,46.1,116.6,34.7
				c52.9-13.5,101-46.6,157.1-46.1c47,0.4,107,20.3,144.1-19.1c10.5-11.2,15.8-27,18.5-41.8c2.5-14.2,1.5-28.7-1.7-42.7
				c-6-25.6-22.1-55.2-46.8-67C1520.5,55.1,1519.5,54.7,1518.4,54.2z"/>
		</g>
		<g>
			<g>
				<g class="st10">

				</g>
				<g>
					<path class="st12" d="M841.5,183.9c-61.7-14.7-99.7-76.4-84.8-137.5c14.9-61.1,77.2-98.8,138.8-84.1
						c9.8,2.3,15.8,12.1,13.5,21.8c-2.4,9.7-12.2,15.7-22,13.3c-42.1-10.1-84.6,15.7-94.8,57.4c-10.2,41.7,15.8,83.8,57.9,93.9
						c42.1,10.1,84.6-15.7,94.8-57.4c2.4-9.7,12.2-15.7,22-13.3c9.8,2.3,15.8,12.1,13.5,21.8C965.5,161,903.2,198.7,841.5,183.9z"/>
				</g>
				<path class="st13" d="M915,63.9c3.1,23.6-13.7,45.2-37.5,48.2c-23.8,3.1-45.6-13.6-48.7-37.1c-3.1-23.6,13.7-45.2,37.5-48.2
					C890.2,23.7,911.9,40.3,915,63.9z"/>
			</g>
			<g>
				<g class="st10">

				</g>
				<g>
					<path class="st12" d="M150,548.9c-44.4-44.9-43.6-117.2,1.7-161.2c45.3-44,118.3-43.2,162.7,1.7c7,7.1,6.9,18.6-0.3,25.6
						c-7.2,7-18.8,6.9-25.8-0.3c-30.3-30.7-80.1-31.2-111.1-1.2c-30.9,30-31.5,79.4-1.2,110c30.3,30.7,80.1,31.2,111.1,1.2
						c7.2-7,18.8-6.9,25.8,0.3c7,7.1,6.9,18.6-0.3,25.6C267.3,594.6,194.3,593.8,150,548.9z"/>
				</g>
				<path class="st13" d="M276.5,485.7c-10,21.6-35.8,31.1-57.6,21.2c-21.8-9.9-31.4-35.4-21.4-57c10-21.6,35.8-31.1,57.6-21.2
					C277,438.6,286.5,464.1,276.5,485.7z"/>
			</g>
			<g>
				<path class="st11" d="M7.1,256.7c1.4,0,2.5,1.1,2.5,2.5c0,1.4-1.1,2.5-2.5,2.5c-1.4,0-2.5-1.1-2.5-2.5
					C4.6,257.8,5.7,256.7,7.1,256.7z M-10.8,259.2c0,1.4,1.1,2.5,2.5,2.5c1.4,0,2.5-1.1,2.5-2.5c0-1.4-1.1-2.5-2.5-2.5
					C-9.6,256.7-10.8,257.8-10.8,259.2z M-26.1,259.2c0,1.4,1.1,2.5,2.5,2.5c1.4,0,2.5-1.1,2.5-2.5c0-1.4-1.1-2.5-2.5-2.5
					C-25,256.7-26.1,257.8-26.1,259.2z M-220.3,244.1c0-0.7-0.3-1.4-0.8-1.8c-0.4,1.4-0.7,2.8-1.1,4.2
					C-221.1,246.3-220.3,245.3-220.3,244.1z M-41.4,259.2c0,1.4,1.1,2.5,2.5,2.5c1.4,0,2.5-1.1,2.5-2.5c0-1.4-1.1-2.5-2.5-2.5
					C-40.3,256.7-41.4,257.8-41.4,259.2z M-222.8,261.6c1.4,0,2.5-1.1,2.5-2.5c0-1.4-1.1-2.5-2.5-2.5c-0.5,0-0.9,0.1-1.3,0.4
					c-0.2,1.3-0.3,2.6-0.5,3.9C-224.1,261.4-223.5,261.6-222.8,261.6z M-148.7,259.2c0,1.4,1.1,2.5,2.5,2.5c1.4,0,2.5-1.1,2.5-2.5
					c0-1.4-1.1-2.5-2.5-2.5C-147.5,256.7-148.7,257.8-148.7,259.2z M-102.7,259.2c0,1.4,1.1,2.5,2.5,2.5c1.4,0,2.5-1.1,2.5-2.5
					c0-1.4-1.1-2.5-2.5-2.5C-101.6,256.7-102.7,257.8-102.7,259.2z M-118,259.2c0,1.4,1.1,2.5,2.5,2.5c1.4,0,2.5-1.1,2.5-2.5
					c0-1.4-1.1-2.5-2.5-2.5C-116.9,256.7-118,257.8-118,259.2z M-133.3,259.2c0,1.4,1.1,2.5,2.5,2.5c1.4,0,2.5-1.1,2.5-2.5
					c0-1.4-1.1-2.5-2.5-2.5C-132.2,256.7-133.3,257.8-133.3,259.2z M-87.4,259.2c0,1.4,1.1,2.5,2.5,2.5c1.4,0,2.5-1.1,2.5-2.5
					c0-1.4-1.1-2.5-2.5-2.5C-86.3,256.7-87.4,257.8-87.4,259.2z M-10.8,244.1c0,1.4,1.1,2.5,2.5,2.5c1.4,0,2.5-1.1,2.5-2.5
					c0-1.4-1.1-2.5-2.5-2.5C-9.6,241.6-10.8,242.8-10.8,244.1z M-72.1,259.2c0,1.4,1.1,2.5,2.5,2.5c1.4,0,2.5-1.1,2.5-2.5
					c0-1.4-1.1-2.5-2.5-2.5C-70.9,256.7-72.1,257.8-72.1,259.2z M-56.7,259.2c0,1.4,1.1,2.5,2.5,2.5c1.4,0,2.5-1.1,2.5-2.5
					c0-1.4-1.1-2.5-2.5-2.5C-55.6,256.7-56.7,257.8-56.7,259.2z M-41.4,244.1c0,1.4,1.1,2.5,2.5,2.5c1.4,0,2.5-1.1,2.5-2.5
					c0-1.4-1.1-2.5-2.5-2.5C-40.3,241.6-41.4,242.8-41.4,244.1z M-87.4,244.1c0,1.4,1.1,2.5,2.5,2.5c1.4,0,2.5-1.1,2.5-2.5
					c0-1.4-1.1-2.5-2.5-2.5C-86.3,241.6-87.4,242.8-87.4,244.1z M-72.1,244.1c0,1.4,1.1,2.5,2.5,2.5c1.4,0,2.5-1.1,2.5-2.5
					c0-1.4-1.1-2.5-2.5-2.5C-70.9,241.6-72.1,242.8-72.1,244.1z M-194.6,244.1c0,1.4,1.1,2.5,2.5,2.5c1.4,0,2.5-1.1,2.5-2.5
					c0-1.4-1.1-2.5-2.5-2.5C-193.5,241.6-194.6,242.8-194.6,244.1z M-26.1,244.1c0,1.4,1.1,2.5,2.5,2.5c1.4,0,2.5-1.1,2.5-2.5
					c0-1.4-1.1-2.5-2.5-2.5C-25,241.6-26.1,242.8-26.1,244.1z M4.6,244.1c0,1.4,1.1,2.5,2.5,2.5c1.4,0,2.5-1.1,2.5-2.5
					c0-1.4-1.1-2.5-2.5-2.5C5.7,241.6,4.6,242.8,4.6,244.1z M-56.7,244.1c0,1.4,1.1,2.5,2.5,2.5c1.4,0,2.5-1.1,2.5-2.5
					c0-1.4-1.1-2.5-2.5-2.5C-55.6,241.6-56.7,242.8-56.7,244.1z M-164,244.1c0,1.4,1.1,2.5,2.5,2.5c1.4,0,2.5-1.1,2.5-2.5
					c0-1.4-1.1-2.5-2.5-2.5C-162.9,241.6-164,242.8-164,244.1z M-179.3,244.1c0,1.4,1.1,2.5,2.5,2.5c1.4,0,2.5-1.1,2.5-2.5
					c0-1.4-1.1-2.5-2.5-2.5C-178.2,241.6-179.3,242.8-179.3,244.1z M-148.7,244.1c0,1.4,1.1,2.5,2.5,2.5c1.4,0,2.5-1.1,2.5-2.5
					c0-1.4-1.1-2.5-2.5-2.5C-147.5,241.6-148.7,242.8-148.7,244.1z M-102.7,244.1c0,1.4,1.1,2.5,2.5,2.5c1.4,0,2.5-1.1,2.5-2.5
					c0-1.4-1.1-2.5-2.5-2.5C-101.6,241.6-102.7,242.8-102.7,244.1z M-133.3,244.1c0,1.4,1.1,2.5,2.5,2.5c1.4,0,2.5-1.1,2.5-2.5
					c0-1.4-1.1-2.5-2.5-2.5C-132.2,241.6-133.3,242.8-133.3,244.1z M-118,244.1c0,1.4,1.1,2.5,2.5,2.5c1.4,0,2.5-1.1,2.5-2.5
					c0-1.4-1.1-2.5-2.5-2.5C-116.9,241.6-118,242.8-118,244.1z M-210,244.1c0,1.4,1.1,2.5,2.5,2.5c1.4,0,2.5-1.1,2.5-2.5
					c0-1.4-1.1-2.5-2.5-2.5C-208.8,241.6-210,242.8-210,244.1z M-164,259.2c0,1.4,1.1,2.5,2.5,2.5c1.4,0,2.5-1.1,2.5-2.5
					c0-1.4-1.1-2.5-2.5-2.5C-162.9,256.7-164,257.8-164,259.2z M-179.3,274.2c0,1.4,1.1,2.5,2.5,2.5c1.4,0,2.5-1.1,2.5-2.5
					c0-1.4-1.1-2.5-2.5-2.5C-178.2,271.7-179.3,272.8-179.3,274.2z M-210,274.2c0,1.4,1.1,2.5,2.5,2.5c1.4,0,2.5-1.1,2.5-2.5
					c0-1.4-1.1-2.5-2.5-2.5C-208.8,271.7-210,272.8-210,274.2z M-164,274.2c0,1.4,1.1,2.5,2.5,2.5c1.4,0,2.5-1.1,2.5-2.5
					c0-1.4-1.1-2.5-2.5-2.5C-162.9,271.7-164,272.8-164,274.2z M-222.8,291.7c1.4,0,2.5-1.1,2.5-2.5c0-1.4-1.1-2.5-2.5-2.5
					c-0.7,0-1.3,0.3-1.8,0.8c0.1,1.3,0.3,2.6,0.5,3.8C-223.7,291.5-223.2,291.7-222.8,291.7z M-148.7,274.2c0,1.4,1.1,2.5,2.5,2.5
					c1.4,0,2.5-1.1,2.5-2.5c0-1.4-1.1-2.5-2.5-2.5C-147.5,271.7-148.7,272.8-148.7,274.2z M-56.7,289.2c0,1.4,1.1,2.5,2.5,2.5
					c1.4,0,2.5-1.1,2.5-2.5c0-1.4-1.1-2.5-2.5-2.5C-55.6,286.7-56.7,287.8-56.7,289.2z M-133.3,274.2c0,1.4,1.1,2.5,2.5,2.5
					c1.4,0,2.5-1.1,2.5-2.5c0-1.4-1.1-2.5-2.5-2.5C-132.2,271.7-133.3,272.8-133.3,274.2z M-72.1,289.2c0,1.4,1.1,2.5,2.5,2.5
					c1.4,0,2.5-1.1,2.5-2.5c0-1.4-1.1-2.5-2.5-2.5C-70.9,286.7-72.1,287.8-72.1,289.2z M-10.8,289.2c0,1.4,1.1,2.5,2.5,2.5
					c1.4,0,2.5-1.1,2.5-2.5c0-1.4-1.1-2.5-2.5-2.5C-9.6,286.7-10.8,287.8-10.8,289.2z M-41.4,289.2c0,1.4,1.1,2.5,2.5,2.5
					c1.4,0,2.5-1.1,2.5-2.5c0-1.4-1.1-2.5-2.5-2.5C-40.3,286.7-41.4,287.8-41.4,289.2z M4.6,289.2c0,1.4,1.1,2.5,2.5,2.5
					c1.4,0,2.5-1.1,2.5-2.5c0-1.4-1.1-2.5-2.5-2.5C5.7,286.7,4.6,287.8,4.6,289.2z M-26.1,289.2c0,1.4,1.1,2.5,2.5,2.5
					c1.4,0,2.5-1.1,2.5-2.5c0-1.4-1.1-2.5-2.5-2.5C-25,286.7-26.1,287.8-26.1,289.2z M-194.6,274.2c0,1.4,1.1,2.5,2.5,2.5
					c1.4,0,2.5-1.1,2.5-2.5c0-1.4-1.1-2.5-2.5-2.5C-193.5,271.7-194.6,272.8-194.6,274.2z M-225.3,274.2c0,1.4,1.1,2.5,2.5,2.5
					c1.4,0,2.5-1.1,2.5-2.5c0-1.4-1.1-2.5-2.5-2.5C-224.2,271.7-225.3,272.8-225.3,274.2L-225.3,274.2z M-210,259.2
					c0,1.4,1.1,2.5,2.5,2.5c1.4,0,2.5-1.1,2.5-2.5c0-1.4-1.1-2.5-2.5-2.5C-208.8,256.7-210,257.8-210,259.2z M4.6,274.2
					c0,1.4,1.1,2.5,2.5,2.5c1.4,0,2.5-1.1,2.5-2.5c0-1.4-1.1-2.5-2.5-2.5C5.7,271.7,4.6,272.8,4.6,274.2z M-10.8,274.2
					c0,1.4,1.1,2.5,2.5,2.5c1.4,0,2.5-1.1,2.5-2.5c0-1.4-1.1-2.5-2.5-2.5C-9.6,271.7-10.8,272.8-10.8,274.2z M-194.6,259.2
					c0,1.4,1.1,2.5,2.5,2.5c1.4,0,2.5-1.1,2.5-2.5c0-1.4-1.1-2.5-2.5-2.5C-193.5,256.7-194.6,257.8-194.6,259.2z M-179.3,259.2
					c0,1.4,1.1,2.5,2.5,2.5c1.4,0,2.5-1.1,2.5-2.5c0-1.4-1.1-2.5-2.5-2.5C-178.2,256.7-179.3,257.8-179.3,259.2z M-87.4,274.2
					c0,1.4,1.1,2.5,2.5,2.5c1.4,0,2.5-1.1,2.5-2.5c0-1.4-1.1-2.5-2.5-2.5C-86.3,271.7-87.4,272.8-87.4,274.2z M-72.1,274.2
					c0,1.4,1.1,2.5,2.5,2.5c1.4,0,2.5-1.1,2.5-2.5c0-1.4-1.1-2.5-2.5-2.5C-70.9,271.7-72.1,272.8-72.1,274.2z M-118,274.2
					c0,1.4,1.1,2.5,2.5,2.5c1.4,0,2.5-1.1,2.5-2.5c0-1.4-1.1-2.5-2.5-2.5C-116.9,271.7-118,272.8-118,274.2z M-26.1,274.2
					c0,1.4,1.1,2.5,2.5,2.5c1.4,0,2.5-1.1,2.5-2.5c0-1.4-1.1-2.5-2.5-2.5C-25,271.7-26.1,272.8-26.1,274.2z M-102.7,274.2
					c0,1.4,1.1,2.5,2.5,2.5c1.4,0,2.5-1.1,2.5-2.5c0-1.4-1.1-2.5-2.5-2.5C-101.6,271.7-102.7,272.8-102.7,274.2z M-41.4,274.2
					c0,1.4,1.1,2.5,2.5,2.5c1.4,0,2.5-1.1,2.5-2.5c0-1.4-1.1-2.5-2.5-2.5C-40.3,271.7-41.4,272.8-41.4,274.2z M-56.7,274.2
					c0,1.4,1.1,2.5,2.5,2.5c1.4,0,2.5-1.1,2.5-2.5c0-1.4-1.1-2.5-2.5-2.5C-55.6,271.7-56.7,272.8-56.7,274.2z M-148.7,169
					c0,1.4,1.1,2.5,2.5,2.5c1.4,0,2.5-1.1,2.5-2.5c0-1.4-1.1-2.5-2.5-2.5C-147.5,166.5-148.7,167.6-148.7,169z M-26.1,214.1
					c0,1.4,1.1,2.5,2.5,2.5c1.4,0,2.5-1.1,2.5-2.5c0-1.4-1.1-2.5-2.5-2.5C-25,211.6-26.1,212.7-26.1,214.1z M-102.7,184
					c0,1.4,1.1,2.5,2.5,2.5c1.4,0,2.5-1.1,2.5-2.5c0-1.4-1.1-2.5-2.5-2.5C-101.6,181.5-102.7,182.7-102.7,184z M-133.3,184
					c0,1.4,1.1,2.5,2.5,2.5c1.4,0,2.5-1.1,2.5-2.5c0-1.4-1.1-2.5-2.5-2.5C-132.2,181.5-133.3,182.7-133.3,184z M-118,184
					c0,1.4,1.1,2.5,2.5,2.5c1.4,0,2.5-1.1,2.5-2.5c0-1.4-1.1-2.5-2.5-2.5C-116.9,181.5-118,182.7-118,184z M-72.1,184
					c0,1.4,1.1,2.5,2.5,2.5c1.4,0,2.5-1.1,2.5-2.5c0-1.4-1.1-2.5-2.5-2.5C-70.9,181.5-72.1,182.7-72.1,184z M-41.4,184
					c0,1.4,1.1,2.5,2.5,2.5c1.4,0,2.5-1.1,2.5-2.5c0-1.4-1.1-2.5-2.5-2.5C-40.3,181.5-41.4,182.7-41.4,184z M-21.1,184
					c0-1.4-1.1-2.5-2.5-2.5c-1.4,0-2.5,1.1-2.5,2.5c0,1.4,1.1,2.5,2.5,2.5C-22.2,186.5-21.1,185.4-21.1,184z M-69.5,156.5
					c1.2,0,2.1-0.8,2.4-1.9c-1.6-0.4-3.2-0.8-4.9-1.2c0,0.2-0.1,0.4-0.1,0.6C-72.1,155.4-70.9,156.5-69.5,156.5z M7.1,331.8
					c-1.4,0-2.5,1.1-2.5,2.5c0,1.4,1.1,2.5,2.5,2.5c0.3,0,0.6-0.1,0.8-0.1c0.6-0.9,1.1-1.9,1.6-2.9C9.3,332.6,8.3,331.8,7.1,331.8z
					 M-148.7,184c0,1.4,1.1,2.5,2.5,2.5c1.4,0,2.5-1.1,2.5-2.5c0-1.4-1.1-2.5-2.5-2.5C-147.5,181.5-148.7,182.7-148.7,184z
					 M-56.7,184c0,1.4,1.1,2.5,2.5,2.5c1.4,0,2.5-1.1,2.5-2.5c0-1.4-1.1-2.5-2.5-2.5C-55.6,181.5-56.7,182.7-56.7,184z M-179.3,184
					c0,1.4,1.1,2.5,2.5,2.5c1.4,0,2.5-1.1,2.5-2.5c0-1.4-1.1-2.5-2.5-2.5C-178.2,181.5-179.3,182.7-179.3,184z M-164,184
					c0,1.4,1.1,2.5,2.5,2.5c1.4,0,2.5-1.1,2.5-2.5c0-1.4-1.1-2.5-2.5-2.5C-162.9,181.5-164,182.7-164,184z M-87.4,184
					c0,1.4,1.1,2.5,2.5,2.5c1.4,0,2.5-1.1,2.5-2.5c0-1.4-1.1-2.5-2.5-2.5C-86.3,181.5-87.4,182.7-87.4,184z M-41.4,169
					c0,1.4,1.1,2.5,2.5,2.5c1.4,0,2.5-1.1,2.5-2.5c0-1.4-1.1-2.5-2.5-2.5C-40.3,166.5-41.4,167.6-41.4,169z M-118,154
					c0,1.4,1.1,2.5,2.5,2.5c1.4,0,2.5-1.1,2.5-2.5c0-1.4-1.1-2.5-2.5-2.5C-116.9,151.5-118,152.6-118,154z M-56.7,169
					c0,1.4,1.1,2.5,2.5,2.5c1.4,0,2.5-1.1,2.5-2.5c0-1.4-1.1-2.5-2.5-2.5C-55.6,166.5-56.7,167.6-56.7,169z M-164,169
					c0,1.4,1.1,2.5,2.5,2.5c1.4,0,2.5-1.1,2.5-2.5c0-1.4-1.1-2.5-2.5-2.5C-162.9,166.5-164,167.6-164,169z M-102.7,154
					c0,1.4,1.1,2.5,2.5,2.5c1.4,0,2.5-1.1,2.5-2.5c0-1.4-1.1-2.5-2.5-2.5C-101.6,151.5-102.7,152.6-102.7,154z M-87.4,154
					c0,1.4,1.1,2.5,2.5,2.5c1.4,0,2.5-1.1,2.5-2.5c0-1.4-1.1-2.5-2.5-2.5C-86.3,151.5-87.4,152.6-87.4,154z M-130.8,156.5
					c1.4,0,2.5-1.1,2.5-2.5c0-0.2,0-0.4-0.1-0.6c-1.6,0.4-3.2,0.8-4.8,1.2C-133,155.7-132,156.5-130.8,156.5z M-118,169
					c0,1.4,1.1,2.5,2.5,2.5c1.4,0,2.5-1.1,2.5-2.5c0-1.4-1.1-2.5-2.5-2.5C-116.9,166.5-118,167.6-118,169z M-133.3,169
					c0,1.4,1.1,2.5,2.5,2.5c1.4,0,2.5-1.1,2.5-2.5c0-1.4-1.1-2.5-2.5-2.5C-132.2,166.5-133.3,167.6-133.3,169z M-87.4,289.2
					c0,1.4,1.1,2.5,2.5,2.5c1.4,0,2.5-1.1,2.5-2.5c0-1.4-1.1-2.5-2.5-2.5C-86.3,286.7-87.4,287.8-87.4,289.2z M-87.4,169
					c0,1.4,1.1,2.5,2.5,2.5c1.4,0,2.5-1.1,2.5-2.5c0-1.4-1.1-2.5-2.5-2.5C-86.3,166.5-87.4,167.6-87.4,169z M-72.1,169
					c0,1.4,1.1,2.5,2.5,2.5c1.4,0,2.5-1.1,2.5-2.5c0-1.4-1.1-2.5-2.5-2.5C-70.9,166.5-72.1,167.6-72.1,169z M-102.7,169
					c0,1.4,1.1,2.5,2.5,2.5c1.4,0,2.5-1.1,2.5-2.5c0-1.4-1.1-2.5-2.5-2.5C-101.6,166.5-102.7,167.6-102.7,169z M4.6,229.1
					c0,1.4,1.1,2.5,2.5,2.5c1.4,0,2.5-1.1,2.5-2.5c0-1.4-1.1-2.5-2.5-2.5C5.7,226.6,4.6,227.7,4.6,229.1z M-72.1,229.1
					c0,1.4,1.1,2.5,2.5,2.5c1.4,0,2.5-1.1,2.5-2.5c0-1.4-1.1-2.5-2.5-2.5C-70.9,226.6-72.1,227.7-72.1,229.1z M-87.4,229.1
					c0,1.4,1.1,2.5,2.5,2.5c1.4,0,2.5-1.1,2.5-2.5c0-1.4-1.1-2.5-2.5-2.5C-86.3,226.6-87.4,227.7-87.4,229.1z M-56.7,229.1
					c0,1.4,1.1,2.5,2.5,2.5c1.4,0,2.5-1.1,2.5-2.5c0-1.4-1.1-2.5-2.5-2.5C-55.6,226.6-56.7,227.7-56.7,229.1z M-41.4,229.1
					c0,1.4,1.1,2.5,2.5,2.5c1.4,0,2.5-1.1,2.5-2.5c0-1.4-1.1-2.5-2.5-2.5C-40.3,226.6-41.4,227.7-41.4,229.1z M-26.1,229.1
					c0,1.4,1.1,2.5,2.5,2.5c1.4,0,2.5-1.1,2.5-2.5c0-1.4-1.1-2.5-2.5-2.5C-25,226.6-26.1,227.7-26.1,229.1z M-102.7,229.1
					c0,1.4,1.1,2.5,2.5,2.5c1.4,0,2.5-1.1,2.5-2.5c0-1.4-1.1-2.5-2.5-2.5C-101.6,226.6-102.7,227.7-102.7,229.1z M-194.6,229.1
					c0,1.4,1.1,2.5,2.5,2.5c1.4,0,2.5-1.1,2.5-2.5c0-1.4-1.1-2.5-2.5-2.5C-193.5,226.6-194.6,227.7-194.6,229.1z M-179.3,229.1
					c0,1.4,1.1,2.5,2.5,2.5c1.4,0,2.5-1.1,2.5-2.5c0-1.4-1.1-2.5-2.5-2.5C-178.2,226.6-179.3,227.7-179.3,229.1z M-164,229.1
					c0,1.4,1.1,2.5,2.5,2.5c1.4,0,2.5-1.1,2.5-2.5c0-1.4-1.1-2.5-2.5-2.5C-162.9,226.6-164,227.7-164,229.1z M-210,229.1
					c0,1.4,1.1,2.5,2.5,2.5c1.4,0,2.5-1.1,2.5-2.5c0-1.4-1.1-2.5-2.5-2.5C-208.8,226.6-210,227.7-210,229.1z M-118,229.1
					c0,1.4,1.1,2.5,2.5,2.5c1.4,0,2.5-1.1,2.5-2.5c0-1.4-1.1-2.5-2.5-2.5C-116.9,226.6-118,227.7-118,229.1z M-148.7,229.1
					c0,1.4,1.1,2.5,2.5,2.5c1.4,0,2.5-1.1,2.5-2.5c0-1.4-1.1-2.5-2.5-2.5C-147.5,226.6-148.7,227.7-148.7,229.1z M-133.3,229.1
					c0,1.4,1.1,2.5,2.5,2.5c1.4,0,2.5-1.1,2.5-2.5c0-1.4-1.1-2.5-2.5-2.5C-132.2,226.6-133.3,227.7-133.3,229.1z M-10.8,214.1
					c0,1.4,1.1,2.5,2.5,2.5c1.4,0,2.5-1.1,2.5-2.5c0-1.4-1.1-2.5-2.5-2.5C-9.6,211.6-10.8,212.7-10.8,214.1z M-72.1,214.1
					c0,1.4,1.1,2.5,2.5,2.5c1.4,0,2.5-1.1,2.5-2.5c0-1.4-1.1-2.5-2.5-2.5C-70.9,211.6-72.1,212.7-72.1,214.1z M-87.4,214.1
					c0,1.4,1.1,2.5,2.5,2.5c1.4,0,2.5-1.1,2.5-2.5c0-1.4-1.1-2.5-2.5-2.5C-86.3,211.6-87.4,212.7-87.4,214.1z M-10.8,229.1
					c0,1.4,1.1,2.5,2.5,2.5c1.4,0,2.5-1.1,2.5-2.5c0-1.4-1.1-2.5-2.5-2.5C-9.6,226.6-10.8,227.7-10.8,229.1z M-118,214.1
					c0,1.4,1.1,2.5,2.5,2.5c1.4,0,2.5-1.1,2.5-2.5c0-1.4-1.1-2.5-2.5-2.5C-116.9,211.6-118,212.7-118,214.1z M-41.4,214.1
					c0,1.4,1.1,2.5,2.5,2.5c1.4,0,2.5-1.1,2.5-2.5c0-1.4-1.1-2.5-2.5-2.5C-40.3,211.6-41.4,212.7-41.4,214.1z M-56.7,214.1
					c0,1.4,1.1,2.5,2.5,2.5c1.4,0,2.5-1.1,2.5-2.5c0-1.4-1.1-2.5-2.5-2.5C-55.6,211.6-56.7,212.7-56.7,214.1z M-102.7,214.1
					c0,1.4,1.1,2.5,2.5,2.5c1.4,0,2.5-1.1,2.5-2.5c0-1.4-1.1-2.5-2.5-2.5C-101.6,211.6-102.7,212.7-102.7,214.1z M-179.3,214.1
					c0,1.4,1.1,2.5,2.5,2.5c1.4,0,2.5-1.1,2.5-2.5c0-1.4-1.1-2.5-2.5-2.5C-178.2,211.6-179.3,212.7-179.3,214.1z M-194.6,214.1
					c0,1.4,1.1,2.5,2.5,2.5c1.4,0,2.5-1.1,2.5-2.5c0-1.4-1.1-2.5-2.5-2.5C-193.5,211.6-194.6,212.7-194.6,214.1z M-148.7,214.1
					c0,1.4,1.1,2.5,2.5,2.5c1.4,0,2.5-1.1,2.5-2.5c0-1.4-1.1-2.5-2.5-2.5C-147.5,211.6-148.7,212.7-148.7,214.1z M-164,214.1
					c0,1.4,1.1,2.5,2.5,2.5c1.4,0,2.5-1.1,2.5-2.5c0-1.4-1.1-2.5-2.5-2.5C-162.9,211.6-164,212.7-164,214.1z M-133.3,214.1
					c0,1.4,1.1,2.5,2.5,2.5c1.4,0,2.5-1.1,2.5-2.5c0-1.4-1.1-2.5-2.5-2.5C-132.2,211.6-133.3,212.7-133.3,214.1z M-82.4,379.3
					c0-1.4-1.1-2.5-2.5-2.5c-1.4,0-2.5,1.1-2.5,2.5c0,1.4,1.1,2.5,2.5,2.5C-83.5,381.8-82.4,380.7-82.4,379.3z M-159,199.1
					c0-1.4-1.1-2.5-2.5-2.5c-1.4,0-2.5,1.1-2.5,2.5c0,1.4,1.1,2.5,2.5,2.5C-160.1,201.5-159,200.4-159,199.1z M22.4,256.7
					c-1.4,0-2.5,1.1-2.5,2.5c0,1.4,1.1,2.5,2.5,2.5c0.7,0,1.3-0.3,1.8-0.7c-0.1-1.3-0.3-2.6-0.5-3.9
					C23.3,256.8,22.9,256.7,22.4,256.7z M-143.6,199.1c0-1.4-1.1-2.5-2.5-2.5c-1.4,0-2.5,1.1-2.5,2.5c0,1.4,1.1,2.5,2.5,2.5
					C-144.8,201.5-143.6,200.4-143.6,199.1z M-128.3,199.1c0-1.4-1.1-2.5-2.5-2.5c-1.4,0-2.5,1.1-2.5,2.5c0,1.4,1.1,2.5,2.5,2.5
					C-129.4,201.5-128.3,200.4-128.3,199.1z M4.6,214.1c0,1.4,1.1,2.5,2.5,2.5c1.2,0,2.2-0.8,2.4-2c-0.5-1-1.1-1.9-1.6-2.9
					c-0.3-0.1-0.5-0.1-0.8-0.1C5.7,211.6,4.6,212.7,4.6,214.1z M19.9,244.1c0,1.2,0.8,2.1,1.9,2.4c-0.3-1.4-0.7-2.8-1.1-4.2
					C20.2,242.7,19.9,243.4,19.9,244.1z M-174.3,199.1c0-1.4-1.1-2.5-2.5-2.5c-1.4,0-2.5,1.1-2.5,2.5c0,1.4,1.1,2.5,2.5,2.5
					C-175.4,201.5-174.3,200.4-174.3,199.1z M-51.7,199.1c0-1.4-1.1-2.5-2.5-2.5c-1.4,0-2.5,1.1-2.5,2.5c0,1.4,1.1,2.5,2.5,2.5
					C-52.8,201.5-51.7,200.4-51.7,199.1z M-36.4,199.1c0-1.4-1.1-2.5-2.5-2.5c-1.4,0-2.5,1.1-2.5,2.5c0,1.4,1.1,2.5,2.5,2.5
					C-37.5,201.5-36.4,200.4-36.4,199.1z M-21.1,199.1c0-1.4-1.1-2.5-2.5-2.5c-1.4,0-2.5,1.1-2.5,2.5c0,1.4,1.1,2.5,2.5,2.5
					C-22.2,201.5-21.1,200.4-21.1,199.1z M-67,199.1c0-1.4-1.1-2.5-2.5-2.5c-1.4,0-2.5,1.1-2.5,2.5c0,1.4,1.1,2.5,2.5,2.5
					C-68.2,201.5-67,200.4-67,199.1z M-97.7,199.1c0-1.4-1.1-2.5-2.5-2.5c-1.4,0-2.5,1.1-2.5,2.5c0,1.4,1.1,2.5,2.5,2.5
					C-98.8,201.5-97.7,200.4-97.7,199.1z M-82.4,199.1c0-1.4-1.1-2.5-2.5-2.5c-1.4,0-2.5,1.1-2.5,2.5c0,1.4,1.1,2.5,2.5,2.5
					C-83.5,201.5-82.4,200.4-82.4,199.1z M-113,199.1c0-1.4-1.1-2.5-2.5-2.5c-1.4,0-2.5,1.1-2.5,2.5c0,1.4,1.1,2.5,2.5,2.5
					C-114.1,201.5-113,200.4-113,199.1z M-118,349.3c0,1.4,1.1,2.5,2.5,2.5c1.4,0,2.5-1.1,2.5-2.5c0-1.4-1.1-2.5-2.5-2.5
					C-116.9,346.8-118,347.9-118,349.3z M-102.7,349.3c0,1.4,1.1,2.5,2.5,2.5c1.4,0,2.5-1.1,2.5-2.5c0-1.4-1.1-2.5-2.5-2.5
					C-101.6,346.8-102.7,347.9-102.7,349.3z M-133.3,349.3c0,1.4,1.1,2.5,2.5,2.5c1.4,0,2.5-1.1,2.5-2.5c0-1.4-1.1-2.5-2.5-2.5
					C-132.2,346.8-133.3,347.9-133.3,349.3z M-72.1,349.3c0,1.4,1.1,2.5,2.5,2.5c1.4,0,2.5-1.1,2.5-2.5c0-1.4-1.1-2.5-2.5-2.5
					C-70.9,346.8-72.1,347.9-72.1,349.3z M-148.7,349.3c0,1.4,1.1,2.5,2.5,2.5c1.4,0,2.5-1.1,2.5-2.5c0-1.4-1.1-2.5-2.5-2.5
					C-147.5,346.8-148.7,347.9-148.7,349.3z M-87.4,349.3c0,1.4,1.1,2.5,2.5,2.5c1.4,0,2.5-1.1,2.5-2.5c0-1.4-1.1-2.5-2.5-2.5
					C-86.3,346.8-87.4,347.9-87.4,349.3z M22.4,271.7c-1.4,0-2.5,1.1-2.5,2.5c0,1.4,1.1,2.5,2.5,2.5c1.4,0,2.5-1.1,2.5-2.5l0,0
					C24.9,272.8,23.8,271.7,22.4,271.7z M-164,349.3c0,1.4,1.1,2.5,2.5,2.5c1.4,0,2.5-1.1,2.5-2.5c0-1.4-1.1-2.5-2.5-2.5
					C-162.9,346.8-164,347.9-164,349.3z M19.9,304.2c0,0.7,0.3,1.4,0.8,1.8c0.4-1.4,0.7-2.8,1.1-4.2
					C20.7,302.1,19.9,303.1,19.9,304.2z M22.4,286.7c-1.4,0-2.5,1.1-2.5,2.5c0,1.4,1.1,2.5,2.5,2.5c0.5,0,0.9-0.1,1.3-0.4
					c0.2-1.3,0.3-2.6,0.5-3.8C23.7,287,23.1,286.7,22.4,286.7z M-5.8,349.3c0-1.4-1.1-2.5-2.5-2.5c-1.4,0-2.5,1.1-2.5,2.5
					c0,1.4,1.1,2.5,2.5,2.5C-6.9,351.8-5.8,350.7-5.8,349.3z M-194.6,349.3c0,1.4,1.1,2.5,2.5,2.5c1.4,0,2.5-1.1,2.5-2.5
					c0-1.4-1.1-2.5-2.5-2.5C-193.5,346.8-194.6,347.9-194.6,349.3z M-179.3,349.3c0,1.4,1.1,2.5,2.5,2.5c1.4,0,2.5-1.1,2.5-2.5
					c0-1.4-1.1-2.5-2.5-2.5C-178.2,346.8-179.3,347.9-179.3,349.3z M-36.4,379.3c0-1.4-1.1-2.5-2.5-2.5c-1.4,0-2.5,1.1-2.5,2.5
					c0,1.4,1.1,2.5,2.5,2.5C-37.5,381.8-36.4,380.7-36.4,379.3z M-128.3,364.3c0-1.4-1.1-2.5-2.5-2.5c-1.4,0-2.5,1.1-2.5,2.5
					c0,1.4,1.1,2.5,2.5,2.5C-129.4,366.8-128.3,365.7-128.3,364.3z M-113,364.3c0-1.4-1.1-2.5-2.5-2.5c-1.4,0-2.5,1.1-2.5,2.5
					c0,1.4,1.1,2.5,2.5,2.5C-114.1,366.8-113,365.7-113,364.3z M-82.4,364.3c0-1.4-1.1-2.5-2.5-2.5c-1.4,0-2.5,1.1-2.5,2.5
					c0,1.4,1.1,2.5,2.5,2.5C-83.5,366.8-82.4,365.7-82.4,364.3z M-97.7,364.3c0-1.4-1.1-2.5-2.5-2.5c-1.4,0-2.5,1.1-2.5,2.5
					c0,1.4,1.1,2.5,2.5,2.5C-98.8,366.8-97.7,365.7-97.7,364.3z M-159,364.3c0-1.4-1.1-2.5-2.5-2.5c-1.4,0-2.5,1.1-2.5,2.5
					c0,1.4,1.1,2.5,2.5,2.5C-160.1,366.8-159,365.7-159,364.3z M-56.7,349.3c0,1.4,1.1,2.5,2.5,2.5c1.4,0,2.5-1.1,2.5-2.5
					c0-1.4-1.1-2.5-2.5-2.5C-55.6,346.8-56.7,347.9-56.7,349.3z M-143.6,364.3c0-1.4-1.1-2.5-2.5-2.5c-1.4,0-2.5,1.1-2.5,2.5
					c0,1.4,1.1,2.5,2.5,2.5C-144.8,366.8-143.6,365.7-143.6,364.3z M-179.3,364.3c0,1.4,1.1,2.5,2.5,2.5c1.4,0,2.5-1.1,2.5-2.5
					c0-1.4-1.1-2.5-2.5-2.5C-178.2,361.8-179.3,362.9-179.3,364.3z M-21.1,364.3c0-1.4-1.1-2.5-2.5-2.5c-1.4,0-2.5,1.1-2.5,2.5
					c0,1.4,1.1,2.5,2.5,2.5C-22.2,366.8-21.1,365.7-21.1,364.3z M-128.3,394.4c0-1.4-1.1-2.5-2.5-2.5c-1.2,0-2.1,0.8-2.4,1.9
					c1.6,0.4,3.2,0.9,4.8,1.2C-128.4,394.8-128.3,394.6-128.3,394.4z M-102.7,289.2c0,1.4,1.1,2.5,2.5,2.5c1.4,0,2.5-1.1,2.5-2.5
					c0-1.4-1.1-2.5-2.5-2.5C-101.6,286.7-102.7,287.8-102.7,289.2z M-51.7,364.3c0-1.4-1.1-2.5-2.5-2.5c-1.4,0-2.5,1.1-2.5,2.5
					c0,1.4,1.1,2.5,2.5,2.5C-52.8,366.8-51.7,365.7-51.7,364.3z M-67,364.3c0-1.4-1.1-2.5-2.5-2.5c-1.4,0-2.5,1.1-2.5,2.5
					c0,1.4,1.1,2.5,2.5,2.5C-68.2,366.8-67,365.7-67,364.3z M-69.5,391.9c-1.4,0-2.5,1.1-2.5,2.5c0,0.2,0,0.4,0.1,0.6
					c1.6-0.4,3.2-0.8,4.9-1.2C-67.4,392.7-68.4,391.9-69.5,391.9z M-102.7,394.4c0,1.4,1.1,2.5,2.5,2.5c1.4,0,2.5-1.1,2.5-2.5
					c0-1.4-1.1-2.5-2.5-2.5C-101.6,391.9-102.7,393-102.7,394.4z M-5.8,199.1c0-1.4-1.1-2.5-2.5-2.5c-1.4,0-2.5,1.1-2.5,2.5
					c0,1.4,1.1,2.5,2.5,2.5C-6.9,201.5-5.8,200.4-5.8,199.1z M-118,394.4c0,1.4,1.1,2.5,2.5,2.5c1.4,0,2.5-1.1,2.5-2.5
					c0-1.4-1.1-2.5-2.5-2.5C-116.9,391.9-118,393-118,394.4z M-82.4,394.4c0-1.4-1.1-2.5-2.5-2.5c-1.4,0-2.5,1.1-2.5,2.5
					c0,1.4,1.1,2.5,2.5,2.5C-83.5,396.9-82.4,395.7-82.4,394.4z M-51.7,379.3c0-1.4-1.1-2.5-2.5-2.5c-1.4,0-2.5,1.1-2.5,2.5
					c0,1.4,1.1,2.5,2.5,2.5C-52.8,381.8-51.7,380.7-51.7,379.3z M-207.4,216.6c1.4,0,2.5-1.1,2.5-2.5c0-1.4-1.1-2.5-2.5-2.5
					c-0.3,0-0.6,0.1-0.8,0.1c-0.6,0.9-1.1,1.9-1.6,2.9C-209.7,215.7-208.6,216.6-207.4,216.6z M-194.6,199.1c0,1.4,1.1,2.5,2.5,2.5
					c1.4,0,2.5-1.1,2.5-2.5c0-1.4-1.1-2.5-2.5-2.5C-193.5,196.6-194.6,197.7-194.6,199.1z M-97.7,379.3c0-1.4-1.1-2.5-2.5-2.5
					c-1.4,0-2.5,1.1-2.5,2.5c0,1.4,1.1,2.5,2.5,2.5C-98.8,381.8-97.7,380.7-97.7,379.3z M-143.6,379.3c0-1.4-1.1-2.5-2.5-2.5
					c-1.4,0-2.5,1.1-2.5,2.5c0,1.4,1.1,2.5,2.5,2.5C-144.8,381.8-143.6,380.7-143.6,379.3z M-113,379.3c0-1.4-1.1-2.5-2.5-2.5
					c-1.4,0-2.5,1.1-2.5,2.5c0,1.4,1.1,2.5,2.5,2.5C-114.1,381.8-113,380.7-113,379.3z M-67,379.3c0-1.4-1.1-2.5-2.5-2.5
					c-1.4,0-2.5,1.1-2.5,2.5c0,1.4,1.1,2.5,2.5,2.5C-68.2,381.8-67,380.7-67,379.3z M-128.3,379.3c0-1.4-1.1-2.5-2.5-2.5
					c-1.4,0-2.5,1.1-2.5,2.5c0,1.4,1.1,2.5,2.5,2.5C-129.4,381.8-128.3,380.7-128.3,379.3z M-159,379.3c0-1.4-1.1-2.5-2.5-2.5
					c-1.4,0-2.5,1.1-2.5,2.5c0,1.4,1.1,2.5,2.5,2.5C-160.1,381.8-159,380.7-159,379.3z M-36.4,364.3c0-1.4-1.1-2.5-2.5-2.5
					c-1.4,0-2.5,1.1-2.5,2.5c0,1.4,1.1,2.5,2.5,2.5C-37.5,366.8-36.4,365.7-36.4,364.3z M-148.7,304.2c0,1.4,1.1,2.5,2.5,2.5
					c1.4,0,2.5-1.1,2.5-2.5c0-1.4-1.1-2.5-2.5-2.5C-147.5,301.7-148.7,302.8-148.7,304.2z M-133.3,304.2c0,1.4,1.1,2.5,2.5,2.5
					c1.4,0,2.5-1.1,2.5-2.5c0-1.4-1.1-2.5-2.5-2.5C-132.2,301.7-133.3,302.8-133.3,304.2z M-164,304.2c0,1.4,1.1,2.5,2.5,2.5
					c1.4,0,2.5-1.1,2.5-2.5c0-1.4-1.1-2.5-2.5-2.5C-162.9,301.7-164,302.8-164,304.2z M-102.7,304.2c0,1.4,1.1,2.5,2.5,2.5
					c1.4,0,2.5-1.1,2.5-2.5c0-1.4-1.1-2.5-2.5-2.5C-101.6,301.7-102.7,302.8-102.7,304.2z M-87.4,304.2c0,1.4,1.1,2.5,2.5,2.5
					c1.4,0,2.5-1.1,2.5-2.5c0-1.4-1.1-2.5-2.5-2.5C-86.3,301.7-87.4,302.8-87.4,304.2z M-179.3,304.2c0,1.4,1.1,2.5,2.5,2.5
					c1.4,0,2.5-1.1,2.5-2.5c0-1.4-1.1-2.5-2.5-2.5C-178.2,301.7-179.3,302.8-179.3,304.2z M-118,304.2c0,1.4,1.1,2.5,2.5,2.5
					c1.4,0,2.5-1.1,2.5-2.5c0-1.4-1.1-2.5-2.5-2.5C-116.9,301.7-118,302.8-118,304.2z M-10.8,319.2c0,1.4,1.1,2.5,2.5,2.5
					c1.4,0,2.5-1.1,2.5-2.5c0-1.4-1.1-2.5-2.5-2.5C-9.6,316.8-10.8,317.9-10.8,319.2z M-194.6,304.2c0,1.4,1.1,2.5,2.5,2.5
					c1.4,0,2.5-1.1,2.5-2.5c0-1.4-1.1-2.5-2.5-2.5C-193.5,301.7-194.6,302.8-194.6,304.2z M-26.1,319.2c0,1.4,1.1,2.5,2.5,2.5
					c1.4,0,2.5-1.1,2.5-2.5c0-1.4-1.1-2.5-2.5-2.5C-25,316.8-26.1,317.9-26.1,319.2z M4.6,319.2c0,1.4,1.1,2.5,2.5,2.5
					c1.4,0,2.5-1.1,2.5-2.5c0-1.4-1.1-2.5-2.5-2.5C5.7,316.8,4.6,317.9,4.6,319.2z M-210,304.2c0,1.4,1.1,2.5,2.5,2.5
					c1.4,0,2.5-1.1,2.5-2.5c0-1.4-1.1-2.5-2.5-2.5C-208.8,301.7-210,302.8-210,304.2z M-220.3,304.2c0-1.2-0.8-2.1-1.9-2.4
					c0.3,1.4,0.7,2.8,1.1,4.2C-220.6,305.6-220.3,305-220.3,304.2z M-194.6,289.2c0,1.4,1.1,2.5,2.5,2.5c1.4,0,2.5-1.1,2.5-2.5
					c0-1.4-1.1-2.5-2.5-2.5C-193.5,286.7-194.6,287.8-194.6,289.2z M-148.7,289.2c0,1.4,1.1,2.5,2.5,2.5c1.4,0,2.5-1.1,2.5-2.5
					c0-1.4-1.1-2.5-2.5-2.5C-147.5,286.7-148.7,287.8-148.7,289.2z M-41.4,319.2c0,1.4,1.1,2.5,2.5,2.5c1.4,0,2.5-1.1,2.5-2.5
					c0-1.4-1.1-2.5-2.5-2.5C-40.3,316.8-41.4,317.9-41.4,319.2z M-179.3,289.2c0,1.4,1.1,2.5,2.5,2.5c1.4,0,2.5-1.1,2.5-2.5
					c0-1.4-1.1-2.5-2.5-2.5C-178.2,286.7-179.3,287.8-179.3,289.2z M-72.1,304.2c0,1.4,1.1,2.5,2.5,2.5c1.4,0,2.5-1.1,2.5-2.5
					c0-1.4-1.1-2.5-2.5-2.5C-70.9,301.7-72.1,302.8-72.1,304.2z M-133.3,289.2c0,1.4,1.1,2.5,2.5,2.5c1.4,0,2.5-1.1,2.5-2.5
					c0-1.4-1.1-2.5-2.5-2.5C-132.2,286.7-133.3,287.8-133.3,289.2z M-118,289.2c0,1.4,1.1,2.5,2.5,2.5c1.4,0,2.5-1.1,2.5-2.5
					c0-1.4-1.1-2.5-2.5-2.5C-116.9,286.7-118,287.8-118,289.2z M-164,289.2c0,1.4,1.1,2.5,2.5,2.5c1.4,0,2.5-1.1,2.5-2.5
					c0-1.4-1.1-2.5-2.5-2.5C-162.9,286.7-164,287.8-164,289.2z M-41.4,304.2c0,1.4,1.1,2.5,2.5,2.5c1.4,0,2.5-1.1,2.5-2.5
					c0-1.4-1.1-2.5-2.5-2.5C-40.3,301.7-41.4,302.8-41.4,304.2z M-26.1,304.2c0,1.4,1.1,2.5,2.5,2.5c1.4,0,2.5-1.1,2.5-2.5
					c0-1.4-1.1-2.5-2.5-2.5C-25,301.7-26.1,302.8-26.1,304.2z M-56.7,304.2c0,1.4,1.1,2.5,2.5,2.5c1.4,0,2.5-1.1,2.5-2.5
					c0-1.4-1.1-2.5-2.5-2.5C-55.6,301.7-56.7,302.8-56.7,304.2z M-210,289.2c0,1.4,1.1,2.5,2.5,2.5c1.4,0,2.5-1.1,2.5-2.5
					c0-1.4-1.1-2.5-2.5-2.5C-208.8,286.7-210,287.8-210,289.2z M4.6,304.2c0,1.4,1.1,2.5,2.5,2.5c1.4,0,2.5-1.1,2.5-2.5
					c0-1.4-1.1-2.5-2.5-2.5C5.7,301.7,4.6,302.8,4.6,304.2z M-10.8,304.2c0,1.4,1.1,2.5,2.5,2.5c1.4,0,2.5-1.1,2.5-2.5
					c0-1.4-1.1-2.5-2.5-2.5C-9.6,301.7-10.8,302.8-10.8,304.2z M-26.1,334.3c0,1.4,1.1,2.5,2.5,2.5c1.4,0,2.5-1.1,2.5-2.5
					c0-1.4-1.1-2.5-2.5-2.5C-25,331.8-26.1,332.9-26.1,334.3z M-87.4,334.3c0,1.4,1.1,2.5,2.5,2.5c1.4,0,2.5-1.1,2.5-2.5
					c0-1.4-1.1-2.5-2.5-2.5C-86.3,331.8-87.4,332.9-87.4,334.3z M-102.7,334.3c0,1.4,1.1,2.5,2.5,2.5c1.4,0,2.5-1.1,2.5-2.5
					c0-1.4-1.1-2.5-2.5-2.5C-101.6,331.8-102.7,332.9-102.7,334.3z M-72.1,334.3c0,1.4,1.1,2.5,2.5,2.5c1.4,0,2.5-1.1,2.5-2.5
					c0-1.4-1.1-2.5-2.5-2.5C-70.9,331.8-72.1,332.9-72.1,334.3z M-118,334.3c0,1.4,1.1,2.5,2.5,2.5c1.4,0,2.5-1.1,2.5-2.5
					c0-1.4-1.1-2.5-2.5-2.5C-116.9,331.8-118,332.9-118,334.3z M-56.7,334.3c0,1.4,1.1,2.5,2.5,2.5c1.4,0,2.5-1.1,2.5-2.5
					c0-1.4-1.1-2.5-2.5-2.5C-55.6,331.8-56.7,332.9-56.7,334.3z M-41.4,334.3c0,1.4,1.1,2.5,2.5,2.5c1.4,0,2.5-1.1,2.5-2.5
					c0-1.4-1.1-2.5-2.5-2.5C-40.3,331.8-41.4,332.9-41.4,334.3z M-194.6,334.3c0,1.4,1.1,2.5,2.5,2.5c1.4,0,2.5-1.1,2.5-2.5
					c0-1.4-1.1-2.5-2.5-2.5C-193.5,331.8-194.6,332.9-194.6,334.3z M-179.3,334.3c0,1.4,1.1,2.5,2.5,2.5c1.4,0,2.5-1.1,2.5-2.5
					c0-1.4-1.1-2.5-2.5-2.5C-178.2,331.8-179.3,332.9-179.3,334.3z M-133.3,334.3c0,1.4,1.1,2.5,2.5,2.5c1.4,0,2.5-1.1,2.5-2.5
					c0-1.4-1.1-2.5-2.5-2.5C-132.2,331.8-133.3,332.9-133.3,334.3z M-41.4,349.3c0,1.4,1.1,2.5,2.5,2.5c1.4,0,2.5-1.1,2.5-2.5
					c0-1.4-1.1-2.5-2.5-2.5C-40.3,346.8-41.4,347.9-41.4,349.3z M-10.8,334.3c0,1.4,1.1,2.5,2.5,2.5c1.4,0,2.5-1.1,2.5-2.5
					c0-1.4-1.1-2.5-2.5-2.5C-9.6,331.8-10.8,332.9-10.8,334.3z M-148.7,334.3c0,1.4,1.1,2.5,2.5,2.5c1.4,0,2.5-1.1,2.5-2.5
					c0-1.4-1.1-2.5-2.5-2.5C-147.5,331.8-148.7,332.9-148.7,334.3z M-164,334.3c0,1.4,1.1,2.5,2.5,2.5c1.4,0,2.5-1.1,2.5-2.5
					c0-1.4-1.1-2.5-2.5-2.5C-162.9,331.8-164,332.9-164,334.3z M-194.6,319.2c0,1.4,1.1,2.5,2.5,2.5c1.4,0,2.5-1.1,2.5-2.5
					c0-1.4-1.1-2.5-2.5-2.5C-193.5,316.8-194.6,317.9-194.6,319.2z M-102.7,319.2c0,1.4,1.1,2.5,2.5,2.5c1.4,0,2.5-1.1,2.5-2.5
					c0-1.4-1.1-2.5-2.5-2.5C-101.6,316.8-102.7,317.9-102.7,319.2z M-118,319.2c0,1.4,1.1,2.5,2.5,2.5c1.4,0,2.5-1.1,2.5-2.5
					c0-1.4-1.1-2.5-2.5-2.5C-116.9,316.8-118,317.9-118,319.2z M-133.3,319.2c0,1.4,1.1,2.5,2.5,2.5c1.4,0,2.5-1.1,2.5-2.5
					c0-1.4-1.1-2.5-2.5-2.5C-132.2,316.8-133.3,317.9-133.3,319.2z M-72.1,319.2c0,1.4,1.1,2.5,2.5,2.5c1.4,0,2.5-1.1,2.5-2.5
					c0-1.4-1.1-2.5-2.5-2.5C-70.9,316.8-72.1,317.9-72.1,319.2z M-87.4,319.2c0,1.4,1.1,2.5,2.5,2.5c1.4,0,2.5-1.1,2.5-2.5
					c0-1.4-1.1-2.5-2.5-2.5C-86.3,316.8-87.4,317.9-87.4,319.2z M-148.7,319.2c0,1.4,1.1,2.5,2.5,2.5c1.4,0,2.5-1.1,2.5-2.5
					c0-1.4-1.1-2.5-2.5-2.5C-147.5,316.8-148.7,317.9-148.7,319.2z M-26.1,349.3c0,1.4,1.1,2.5,2.5,2.5c1.4,0,2.5-1.1,2.5-2.5
					c0-1.4-1.1-2.5-2.5-2.5C-25,346.8-26.1,347.9-26.1,349.3z M-204.9,334.3c0-1.4-1.1-2.5-2.5-2.5c-1.2,0-2.2,0.8-2.4,2
					c0.5,1,1.1,1.9,1.6,2.9c0.3,0.1,0.5,0.1,0.8,0.1C-206.1,336.8-204.9,335.6-204.9,334.3z M-210,319.2c0,1.4,1.1,2.5,2.5,2.5
					c1.4,0,2.5-1.1,2.5-2.5c0-1.4-1.1-2.5-2.5-2.5C-208.8,316.8-210,317.9-210,319.2z M-56.7,319.2c0,1.4,1.1,2.5,2.5,2.5
					c1.4,0,2.5-1.1,2.5-2.5c0-1.4-1.1-2.5-2.5-2.5C-55.6,316.8-56.7,317.9-56.7,319.2z M-179.3,319.2c0,1.4,1.1,2.5,2.5,2.5
					c1.4,0,2.5-1.1,2.5-2.5c0-1.4-1.1-2.5-2.5-2.5C-178.2,316.8-179.3,317.9-179.3,319.2z M-164,319.2c0,1.4,1.1,2.5,2.5,2.5
					c1.4,0,2.5-1.1,2.5-2.5c0-1.4-1.1-2.5-2.5-2.5C-162.9,316.8-164,317.9-164,319.2z"/>
			</g>
			<g>
				<path class="st11" d="M1273.2,453.9c1.4,0,2.5,1.1,2.5,2.5c0,1.4-1.1,2.5-2.5,2.5c-1.4,0-2.5-1.1-2.5-2.5
					C1270.7,455,1271.8,453.9,1273.2,453.9z M1255.3,456.4c0,1.4,1.1,2.5,2.5,2.5c1.4,0,2.5-1.1,2.5-2.5c0-1.4-1.1-2.5-2.5-2.5
					C1256.5,453.9,1255.3,455,1255.3,456.4z M1240,456.4c0,1.4,1.1,2.5,2.5,2.5c1.4,0,2.5-1.1,2.5-2.5c0-1.4-1.1-2.5-2.5-2.5
					C1241.1,453.9,1240,455,1240,456.4z M1045.9,441.3c0-0.7-0.3-1.4-0.8-1.8c-0.4,1.4-0.7,2.8-1.1,4.2
					C1045,443.5,1045.9,442.5,1045.9,441.3z M1224.7,456.4c0,1.4,1.1,2.5,2.5,2.5c1.4,0,2.5-1.1,2.5-2.5c0-1.4-1.1-2.5-2.5-2.5
					C1225.8,453.9,1224.7,455,1224.7,456.4z M1043.3,458.8c1.4,0,2.5-1.1,2.5-2.5c0-1.4-1.1-2.5-2.5-2.5c-0.5,0-0.9,0.1-1.3,0.4
					c-0.2,1.3-0.3,2.6-0.5,3.9C1042,458.6,1042.6,458.8,1043.3,458.8z M1117.4,456.4c0,1.4,1.1,2.5,2.5,2.5c1.4,0,2.5-1.1,2.5-2.5
					c0-1.4-1.1-2.5-2.5-2.5C1118.6,453.9,1117.4,455,1117.4,456.4z M1163.4,456.4c0,1.4,1.1,2.5,2.5,2.5c1.4,0,2.5-1.1,2.5-2.5
					c0-1.4-1.1-2.5-2.5-2.5C1164.5,453.9,1163.4,455,1163.4,456.4z M1148.1,456.4c0,1.4,1.1,2.5,2.5,2.5c1.4,0,2.5-1.1,2.5-2.5
					c0-1.4-1.1-2.5-2.5-2.5C1149.2,453.9,1148.1,455,1148.1,456.4z M1132.8,456.4c0,1.4,1.1,2.5,2.5,2.5c1.4,0,2.5-1.1,2.5-2.5
					c0-1.4-1.1-2.5-2.5-2.5C1133.9,453.9,1132.8,455,1132.8,456.4z M1178.7,456.4c0,1.4,1.1,2.5,2.5,2.5c1.4,0,2.5-1.1,2.5-2.5
					c0-1.4-1.1-2.5-2.5-2.5C1179.9,453.9,1178.7,455,1178.7,456.4z M1255.3,441.3c0,1.4,1.1,2.5,2.5,2.5c1.4,0,2.5-1.1,2.5-2.5
					c0-1.4-1.1-2.5-2.5-2.5C1256.5,438.8,1255.3,440,1255.3,441.3z M1194.1,456.4c0,1.4,1.1,2.5,2.5,2.5c1.4,0,2.5-1.1,2.5-2.5
					c0-1.4-1.1-2.5-2.5-2.5C1195.2,453.9,1194.1,455,1194.1,456.4z M1209.4,456.4c0,1.4,1.1,2.5,2.5,2.5c1.4,0,2.5-1.1,2.5-2.5
					c0-1.4-1.1-2.5-2.5-2.5C1210.5,453.9,1209.4,455,1209.4,456.4z M1224.7,441.3c0,1.4,1.1,2.5,2.5,2.5c1.4,0,2.5-1.1,2.5-2.5
					c0-1.4-1.1-2.5-2.5-2.5C1225.8,438.8,1224.7,440,1224.7,441.3z M1178.7,441.3c0,1.4,1.1,2.5,2.5,2.5c1.4,0,2.5-1.1,2.5-2.5
					c0-1.4-1.1-2.5-2.5-2.5C1179.9,438.8,1178.7,440,1178.7,441.3z M1194.1,441.3c0,1.4,1.1,2.5,2.5,2.5c1.4,0,2.5-1.1,2.5-2.5
					c0-1.4-1.1-2.5-2.5-2.5C1195.2,438.8,1194.1,440,1194.1,441.3z M1071.5,441.3c0,1.4,1.1,2.5,2.5,2.5c1.4,0,2.5-1.1,2.5-2.5
					c0-1.4-1.1-2.5-2.5-2.5C1072.6,438.8,1071.5,440,1071.5,441.3z M1240,441.3c0,1.4,1.1,2.5,2.5,2.5c1.4,0,2.5-1.1,2.5-2.5
					c0-1.4-1.1-2.5-2.5-2.5C1241.1,438.8,1240,440,1240,441.3z M1270.7,441.3c0,1.4,1.1,2.5,2.5,2.5c1.4,0,2.5-1.1,2.5-2.5
					c0-1.4-1.1-2.5-2.5-2.5C1271.8,438.8,1270.7,440,1270.7,441.3z M1209.4,441.3c0,1.4,1.1,2.5,2.5,2.5c1.4,0,2.5-1.1,2.5-2.5
					c0-1.4-1.1-2.5-2.5-2.5C1210.5,438.8,1209.4,440,1209.4,441.3z M1102.1,441.3c0,1.4,1.1,2.5,2.5,2.5c1.4,0,2.5-1.1,2.5-2.5
					c0-1.4-1.1-2.5-2.5-2.5C1103.3,438.8,1102.1,440,1102.1,441.3z M1086.8,441.3c0,1.4,1.1,2.5,2.5,2.5c1.4,0,2.5-1.1,2.5-2.5
					c0-1.4-1.1-2.5-2.5-2.5C1087.9,438.8,1086.8,440,1086.8,441.3z M1117.4,441.3c0,1.4,1.1,2.5,2.5,2.5c1.4,0,2.5-1.1,2.5-2.5
					c0-1.4-1.1-2.5-2.5-2.5C1118.6,438.8,1117.4,440,1117.4,441.3z M1163.4,441.3c0,1.4,1.1,2.5,2.5,2.5c1.4,0,2.5-1.1,2.5-2.5
					c0-1.4-1.1-2.5-2.5-2.5C1164.5,438.8,1163.4,440,1163.4,441.3z M1132.8,441.3c0,1.4,1.1,2.5,2.5,2.5c1.4,0,2.5-1.1,2.5-2.5
					c0-1.4-1.1-2.5-2.5-2.5C1133.9,438.8,1132.8,440,1132.8,441.3z M1148.1,441.3c0,1.4,1.1,2.5,2.5,2.5c1.4,0,2.5-1.1,2.5-2.5
					c0-1.4-1.1-2.5-2.5-2.5C1149.2,438.8,1148.1,440,1148.1,441.3z M1056.2,441.3c0,1.4,1.1,2.5,2.5,2.5c1.4,0,2.5-1.1,2.5-2.5
					c0-1.4-1.1-2.5-2.5-2.5C1057.3,438.8,1056.2,440,1056.2,441.3z M1102.1,456.4c0,1.4,1.1,2.5,2.5,2.5c1.4,0,2.5-1.1,2.5-2.5
					c0-1.4-1.1-2.5-2.5-2.5C1103.3,453.9,1102.1,455,1102.1,456.4z M1086.8,471.4c0,1.4,1.1,2.5,2.5,2.5c1.4,0,2.5-1.1,2.5-2.5
					c0-1.4-1.1-2.5-2.5-2.5C1087.9,468.9,1086.8,470,1086.8,471.4z M1056.2,471.4c0,1.4,1.1,2.5,2.5,2.5c1.4,0,2.5-1.1,2.5-2.5
					c0-1.4-1.1-2.5-2.5-2.5C1057.3,468.9,1056.2,470,1056.2,471.4z M1102.1,471.4c0,1.4,1.1,2.5,2.5,2.5c1.4,0,2.5-1.1,2.5-2.5
					c0-1.4-1.1-2.5-2.5-2.5C1103.3,468.9,1102.1,470,1102.1,471.4z M1043.3,488.9c1.4,0,2.5-1.1,2.5-2.5c0-1.4-1.1-2.5-2.5-2.5
					c-0.7,0-1.3,0.3-1.8,0.8c0.1,1.3,0.3,2.6,0.5,3.8C1042.4,488.8,1042.9,488.9,1043.3,488.9z M1117.4,471.4c0,1.4,1.1,2.5,2.5,2.5
					c1.4,0,2.5-1.1,2.5-2.5c0-1.4-1.1-2.5-2.5-2.5C1118.6,468.9,1117.4,470,1117.4,471.4z M1209.4,486.4c0,1.4,1.1,2.5,2.5,2.5
					c1.4,0,2.5-1.1,2.5-2.5c0-1.4-1.1-2.5-2.5-2.5C1210.5,483.9,1209.4,485,1209.4,486.4z M1132.8,471.4c0,1.4,1.1,2.5,2.5,2.5
					c1.4,0,2.5-1.1,2.5-2.5c0-1.4-1.1-2.5-2.5-2.5C1133.9,468.9,1132.8,470,1132.8,471.4z M1194.1,486.4c0,1.4,1.1,2.5,2.5,2.5
					c1.4,0,2.5-1.1,2.5-2.5c0-1.4-1.1-2.5-2.5-2.5C1195.2,483.9,1194.1,485,1194.1,486.4z M1255.3,486.4c0,1.4,1.1,2.5,2.5,2.5
					c1.4,0,2.5-1.1,2.5-2.5c0-1.4-1.1-2.5-2.5-2.5C1256.5,483.9,1255.3,485,1255.3,486.4z M1224.7,486.4c0,1.4,1.1,2.5,2.5,2.5
					c1.4,0,2.5-1.1,2.5-2.5c0-1.4-1.1-2.5-2.5-2.5C1225.8,483.9,1224.7,485,1224.7,486.4z M1270.7,486.4c0,1.4,1.1,2.5,2.5,2.5
					c1.4,0,2.5-1.1,2.5-2.5c0-1.4-1.1-2.5-2.5-2.5C1271.8,483.9,1270.7,485,1270.7,486.4z M1240,486.4c0,1.4,1.1,2.5,2.5,2.5
					c1.4,0,2.5-1.1,2.5-2.5c0-1.4-1.1-2.5-2.5-2.5C1241.1,483.9,1240,485,1240,486.4z M1071.5,471.4c0,1.4,1.1,2.5,2.5,2.5
					c1.4,0,2.5-1.1,2.5-2.5c0-1.4-1.1-2.5-2.5-2.5C1072.6,468.9,1071.5,470,1071.5,471.4z M1040.8,471.4c0,1.4,1.1,2.5,2.5,2.5
					c1.4,0,2.5-1.1,2.5-2.5c0-1.4-1.1-2.5-2.5-2.5C1042,468.9,1040.8,470,1040.8,471.4L1040.8,471.4z M1056.2,456.4
					c0,1.4,1.1,2.5,2.5,2.5c1.4,0,2.5-1.1,2.5-2.5c0-1.4-1.1-2.5-2.5-2.5C1057.3,453.9,1056.2,455,1056.2,456.4z M1270.7,471.4
					c0,1.4,1.1,2.5,2.5,2.5c1.4,0,2.5-1.1,2.5-2.5c0-1.4-1.1-2.5-2.5-2.5C1271.8,468.9,1270.7,470,1270.7,471.4z M1255.3,471.4
					c0,1.4,1.1,2.5,2.5,2.5c1.4,0,2.5-1.1,2.5-2.5c0-1.4-1.1-2.5-2.5-2.5C1256.5,468.9,1255.3,470,1255.3,471.4z M1071.5,456.4
					c0,1.4,1.1,2.5,2.5,2.5c1.4,0,2.5-1.1,2.5-2.5c0-1.4-1.1-2.5-2.5-2.5C1072.6,453.9,1071.5,455,1071.5,456.4z M1086.8,456.4
					c0,1.4,1.1,2.5,2.5,2.5c1.4,0,2.5-1.1,2.5-2.5c0-1.4-1.1-2.5-2.5-2.5C1087.9,453.9,1086.8,455,1086.8,456.4z M1178.7,471.4
					c0,1.4,1.1,2.5,2.5,2.5c1.4,0,2.5-1.1,2.5-2.5c0-1.4-1.1-2.5-2.5-2.5C1179.9,468.9,1178.7,470,1178.7,471.4z M1194.1,471.4
					c0,1.4,1.1,2.5,2.5,2.5c1.4,0,2.5-1.1,2.5-2.5c0-1.4-1.1-2.5-2.5-2.5C1195.2,468.9,1194.1,470,1194.1,471.4z M1148.1,471.4
					c0,1.4,1.1,2.5,2.5,2.5c1.4,0,2.5-1.1,2.5-2.5c0-1.4-1.1-2.5-2.5-2.5C1149.2,468.9,1148.1,470,1148.1,471.4z M1240,471.4
					c0,1.4,1.1,2.5,2.5,2.5c1.4,0,2.5-1.1,2.5-2.5c0-1.4-1.1-2.5-2.5-2.5C1241.1,468.9,1240,470,1240,471.4z M1163.4,471.4
					c0,1.4,1.1,2.5,2.5,2.5c1.4,0,2.5-1.1,2.5-2.5c0-1.4-1.1-2.5-2.5-2.5C1164.5,468.9,1163.4,470,1163.4,471.4z M1224.7,471.4
					c0,1.4,1.1,2.5,2.5,2.5c1.4,0,2.5-1.1,2.5-2.5c0-1.4-1.1-2.5-2.5-2.5C1225.8,468.9,1224.7,470,1224.7,471.4z M1209.4,471.4
					c0,1.4,1.1,2.5,2.5,2.5c1.4,0,2.5-1.1,2.5-2.5c0-1.4-1.1-2.5-2.5-2.5C1210.5,468.9,1209.4,470,1209.4,471.4z M1117.4,366.2
					c0,1.4,1.1,2.5,2.5,2.5c1.4,0,2.5-1.1,2.5-2.5c0-1.4-1.1-2.5-2.5-2.5C1118.6,363.7,1117.4,364.8,1117.4,366.2z M1240,411.3
					c0,1.4,1.1,2.5,2.5,2.5c1.4,0,2.5-1.1,2.5-2.5c0-1.4-1.1-2.5-2.5-2.5C1241.1,408.8,1240,409.9,1240,411.3z M1163.4,381.2
					c0,1.4,1.1,2.5,2.5,2.5c1.4,0,2.5-1.1,2.5-2.5c0-1.4-1.1-2.5-2.5-2.5C1164.5,378.8,1163.4,379.9,1163.4,381.2z M1132.8,381.2
					c0,1.4,1.1,2.5,2.5,2.5c1.4,0,2.5-1.1,2.5-2.5c0-1.4-1.1-2.5-2.5-2.5C1133.9,378.8,1132.8,379.9,1132.8,381.2z M1148.1,381.2
					c0,1.4,1.1,2.5,2.5,2.5c1.4,0,2.5-1.1,2.5-2.5c0-1.4-1.1-2.5-2.5-2.5C1149.2,378.8,1148.1,379.9,1148.1,381.2z M1194.1,381.2
					c0,1.4,1.1,2.5,2.5,2.5c1.4,0,2.5-1.1,2.5-2.5c0-1.4-1.1-2.5-2.5-2.5C1195.2,378.8,1194.1,379.9,1194.1,381.2z M1224.7,381.2
					c0,1.4,1.1,2.5,2.5,2.5c1.4,0,2.5-1.1,2.5-2.5c0-1.4-1.1-2.5-2.5-2.5C1225.8,378.8,1224.7,379.9,1224.7,381.2z M1245,381.2
					c0-1.4-1.1-2.5-2.5-2.5c-1.4,0-2.5,1.1-2.5,2.5c0,1.4,1.1,2.5,2.5,2.5C1243.9,383.7,1245,382.6,1245,381.2z M1196.6,353.7
					c1.2,0,2.1-0.8,2.4-1.9c-1.6-0.4-3.2-0.8-4.9-1.2c0,0.2-0.1,0.4-0.1,0.6C1194.1,352.6,1195.2,353.7,1196.6,353.7z M1273.2,529
					c-1.4,0-2.5,1.1-2.5,2.5c0,1.4,1.1,2.5,2.5,2.5c0.3,0,0.6-0.1,0.8-0.1c0.6-0.9,1.1-1.9,1.6-2.9
					C1275.4,529.8,1274.4,529,1273.2,529z M1117.4,381.2c0,1.4,1.1,2.5,2.5,2.5c1.4,0,2.5-1.1,2.5-2.5c0-1.4-1.1-2.5-2.5-2.5
					C1118.6,378.8,1117.4,379.9,1117.4,381.2z M1209.4,381.2c0,1.4,1.1,2.5,2.5,2.5c1.4,0,2.5-1.1,2.5-2.5c0-1.4-1.1-2.5-2.5-2.5
					C1210.5,378.8,1209.4,379.9,1209.4,381.2z M1086.8,381.2c0,1.4,1.1,2.5,2.5,2.5c1.4,0,2.5-1.1,2.5-2.5c0-1.4-1.1-2.5-2.5-2.5
					C1087.9,378.8,1086.8,379.9,1086.8,381.2z M1102.1,381.2c0,1.4,1.1,2.5,2.5,2.5c1.4,0,2.5-1.1,2.5-2.5c0-1.4-1.1-2.5-2.5-2.5
					C1103.3,378.8,1102.1,379.9,1102.1,381.2z M1178.7,381.2c0,1.4,1.1,2.5,2.5,2.5c1.4,0,2.5-1.1,2.5-2.5c0-1.4-1.1-2.5-2.5-2.5
					C1179.9,378.8,1178.7,379.9,1178.7,381.2z M1224.7,366.2c0,1.4,1.1,2.5,2.5,2.5c1.4,0,2.5-1.1,2.5-2.5c0-1.4-1.1-2.5-2.5-2.5
					C1225.8,363.7,1224.7,364.8,1224.7,366.2z M1148.1,351.2c0,1.4,1.1,2.5,2.5,2.5c1.4,0,2.5-1.1,2.5-2.5c0-1.4-1.1-2.5-2.5-2.5
					C1149.2,348.7,1148.1,349.8,1148.1,351.2z M1209.4,366.2c0,1.4,1.1,2.5,2.5,2.5c1.4,0,2.5-1.1,2.5-2.5c0-1.4-1.1-2.5-2.5-2.5
					C1210.5,363.7,1209.4,364.8,1209.4,366.2z M1102.1,366.2c0,1.4,1.1,2.5,2.5,2.5c1.4,0,2.5-1.1,2.5-2.5c0-1.4-1.1-2.5-2.5-2.5
					C1103.3,363.7,1102.1,364.8,1102.1,366.2z M1163.4,351.2c0,1.4,1.1,2.5,2.5,2.5c1.4,0,2.5-1.1,2.5-2.5c0-1.4-1.1-2.5-2.5-2.5
					C1164.5,348.7,1163.4,349.8,1163.4,351.2z M1178.7,351.2c0,1.4,1.1,2.5,2.5,2.5c1.4,0,2.5-1.1,2.5-2.5c0-1.4-1.1-2.5-2.5-2.5
					C1179.9,348.7,1178.7,349.8,1178.7,351.2z M1135.3,353.7c1.4,0,2.5-1.1,2.5-2.5c0-0.2,0-0.4-0.1-0.6c-1.6,0.4-3.2,0.8-4.8,1.2
					C1133.1,352.9,1134.1,353.7,1135.3,353.7z M1148.1,366.2c0,1.4,1.1,2.5,2.5,2.5c1.4,0,2.5-1.1,2.5-2.5c0-1.4-1.1-2.5-2.5-2.5
					C1149.2,363.7,1148.1,364.8,1148.1,366.2z M1132.8,366.2c0,1.4,1.1,2.5,2.5,2.5c1.4,0,2.5-1.1,2.5-2.5c0-1.4-1.1-2.5-2.5-2.5
					C1133.9,363.7,1132.8,364.8,1132.8,366.2z M1178.7,486.4c0,1.4,1.1,2.5,2.5,2.5c1.4,0,2.5-1.1,2.5-2.5c0-1.4-1.1-2.5-2.5-2.5
					C1179.9,483.9,1178.7,485,1178.7,486.4z M1178.7,366.2c0,1.4,1.1,2.5,2.5,2.5c1.4,0,2.5-1.1,2.5-2.5c0-1.4-1.1-2.5-2.5-2.5
					C1179.9,363.7,1178.7,364.8,1178.7,366.2z M1194.1,366.2c0,1.4,1.1,2.5,2.5,2.5c1.4,0,2.5-1.1,2.5-2.5c0-1.4-1.1-2.5-2.5-2.5
					C1195.2,363.7,1194.1,364.8,1194.1,366.2z M1163.4,366.2c0,1.4,1.1,2.5,2.5,2.5c1.4,0,2.5-1.1,2.5-2.5c0-1.4-1.1-2.5-2.5-2.5
					C1164.5,363.7,1163.4,364.8,1163.4,366.2z M1270.7,426.3c0,1.4,1.1,2.5,2.5,2.5c1.4,0,2.5-1.1,2.5-2.5c0-1.4-1.1-2.5-2.5-2.5
					C1271.8,423.8,1270.7,424.9,1270.7,426.3z M1194.1,426.3c0,1.4,1.1,2.5,2.5,2.5c1.4,0,2.5-1.1,2.5-2.5c0-1.4-1.1-2.5-2.5-2.5
					C1195.2,423.8,1194.1,424.9,1194.1,426.3z M1178.7,426.3c0,1.4,1.1,2.5,2.5,2.5c1.4,0,2.5-1.1,2.5-2.5c0-1.4-1.1-2.5-2.5-2.5
					C1179.9,423.8,1178.7,424.9,1178.7,426.3z M1209.4,426.3c0,1.4,1.1,2.5,2.5,2.5c1.4,0,2.5-1.1,2.5-2.5c0-1.4-1.1-2.5-2.5-2.5
					C1210.5,423.8,1209.4,424.9,1209.4,426.3z M1224.7,426.3c0,1.4,1.1,2.5,2.5,2.5c1.4,0,2.5-1.1,2.5-2.5c0-1.4-1.1-2.5-2.5-2.5
					C1225.8,423.8,1224.7,424.9,1224.7,426.3z M1240,426.3c0,1.4,1.1,2.5,2.5,2.5c1.4,0,2.5-1.1,2.5-2.5c0-1.4-1.1-2.5-2.5-2.5
					C1241.1,423.8,1240,424.9,1240,426.3z M1163.4,426.3c0,1.4,1.1,2.5,2.5,2.5c1.4,0,2.5-1.1,2.5-2.5c0-1.4-1.1-2.5-2.5-2.5
					C1164.5,423.8,1163.4,424.9,1163.4,426.3z M1071.5,426.3c0,1.4,1.1,2.5,2.5,2.5c1.4,0,2.5-1.1,2.5-2.5c0-1.4-1.1-2.5-2.5-2.5
					C1072.6,423.8,1071.5,424.9,1071.5,426.3z M1086.8,426.3c0,1.4,1.1,2.5,2.5,2.5c1.4,0,2.5-1.1,2.5-2.5c0-1.4-1.1-2.5-2.5-2.5
					C1087.9,423.8,1086.8,424.9,1086.8,426.3z M1102.1,426.3c0,1.4,1.1,2.5,2.5,2.5c1.4,0,2.5-1.1,2.5-2.5c0-1.4-1.1-2.5-2.5-2.5
					C1103.3,423.8,1102.1,424.9,1102.1,426.3z M1056.2,426.3c0,1.4,1.1,2.5,2.5,2.5c1.4,0,2.5-1.1,2.5-2.5c0-1.4-1.1-2.5-2.5-2.5
					C1057.3,423.8,1056.2,424.9,1056.2,426.3z M1148.1,426.3c0,1.4,1.1,2.5,2.5,2.5c1.4,0,2.5-1.1,2.5-2.5c0-1.4-1.1-2.5-2.5-2.5
					C1149.2,423.8,1148.1,424.9,1148.1,426.3z M1117.4,426.3c0,1.4,1.1,2.5,2.5,2.5c1.4,0,2.5-1.1,2.5-2.5c0-1.4-1.1-2.5-2.5-2.5
					C1118.6,423.8,1117.4,424.9,1117.4,426.3z M1132.8,426.3c0,1.4,1.1,2.5,2.5,2.5c1.4,0,2.5-1.1,2.5-2.5c0-1.4-1.1-2.5-2.5-2.5
					C1133.9,423.8,1132.8,424.9,1132.8,426.3z M1255.3,411.3c0,1.4,1.1,2.5,2.5,2.5c1.4,0,2.5-1.1,2.5-2.5c0-1.4-1.1-2.5-2.5-2.5
					C1256.5,408.8,1255.3,409.9,1255.3,411.3z M1194.1,411.3c0,1.4,1.1,2.5,2.5,2.5c1.4,0,2.5-1.1,2.5-2.5c0-1.4-1.1-2.5-2.5-2.5
					C1195.2,408.8,1194.1,409.9,1194.1,411.3z M1178.7,411.3c0,1.4,1.1,2.5,2.5,2.5c1.4,0,2.5-1.1,2.5-2.5c0-1.4-1.1-2.5-2.5-2.5
					C1179.9,408.8,1178.7,409.9,1178.7,411.3z M1255.3,426.3c0,1.4,1.1,2.5,2.5,2.5c1.4,0,2.5-1.1,2.5-2.5c0-1.4-1.1-2.5-2.5-2.5
					C1256.5,423.8,1255.3,424.9,1255.3,426.3z M1148.1,411.3c0,1.4,1.1,2.5,2.5,2.5c1.4,0,2.5-1.1,2.5-2.5c0-1.4-1.1-2.5-2.5-2.5
					C1149.2,408.8,1148.1,409.9,1148.1,411.3z M1224.7,411.3c0,1.4,1.1,2.5,2.5,2.5c1.4,0,2.5-1.1,2.5-2.5c0-1.4-1.1-2.5-2.5-2.5
					C1225.8,408.8,1224.7,409.9,1224.7,411.3z M1209.4,411.3c0,1.4,1.1,2.5,2.5,2.5c1.4,0,2.5-1.1,2.5-2.5c0-1.4-1.1-2.5-2.5-2.5
					C1210.5,408.8,1209.4,409.9,1209.4,411.3z M1163.4,411.3c0,1.4,1.1,2.5,2.5,2.5c1.4,0,2.5-1.1,2.5-2.5c0-1.4-1.1-2.5-2.5-2.5
					C1164.5,408.8,1163.4,409.9,1163.4,411.3z M1086.8,411.3c0,1.4,1.1,2.5,2.5,2.5c1.4,0,2.5-1.1,2.5-2.5c0-1.4-1.1-2.5-2.5-2.5
					C1087.9,408.8,1086.8,409.9,1086.8,411.3z M1071.5,411.3c0,1.4,1.1,2.5,2.5,2.5c1.4,0,2.5-1.1,2.5-2.5c0-1.4-1.1-2.5-2.5-2.5
					C1072.6,408.8,1071.5,409.9,1071.5,411.3z M1117.4,411.3c0,1.4,1.1,2.5,2.5,2.5c1.4,0,2.5-1.1,2.5-2.5c0-1.4-1.1-2.5-2.5-2.5
					C1118.6,408.8,1117.4,409.9,1117.4,411.3z M1102.1,411.3c0,1.4,1.1,2.5,2.5,2.5c1.4,0,2.5-1.1,2.5-2.5c0-1.4-1.1-2.5-2.5-2.5
					C1103.3,408.8,1102.1,409.9,1102.1,411.3z M1132.8,411.3c0,1.4,1.1,2.5,2.5,2.5c1.4,0,2.5-1.1,2.5-2.5c0-1.4-1.1-2.5-2.5-2.5
					C1133.9,408.8,1132.8,409.9,1132.8,411.3z M1183.8,576.5c0-1.4-1.1-2.5-2.5-2.5c-1.4,0-2.5,1.1-2.5,2.5c0,1.4,1.1,2.5,2.5,2.5
					C1182.6,579,1183.8,577.9,1183.8,576.5z M1107.1,396.3c0-1.4-1.1-2.5-2.5-2.5c-1.4,0-2.5,1.1-2.5,2.5c0,1.4,1.1,2.5,2.5,2.5
					C1106,398.8,1107.1,397.6,1107.1,396.3z M1288.5,453.9c-1.4,0-2.5,1.1-2.5,2.5c0,1.4,1.1,2.5,2.5,2.5c0.7,0,1.3-0.3,1.8-0.7
					c-0.1-1.3-0.3-2.6-0.5-3.9C1289.4,454,1289,453.9,1288.5,453.9z M1122.5,396.3c0-1.4-1.1-2.5-2.5-2.5c-1.4,0-2.5,1.1-2.5,2.5
					c0,1.4,1.1,2.5,2.5,2.5C1121.3,398.8,1122.5,397.6,1122.5,396.3z M1137.8,396.3c0-1.4-1.1-2.5-2.5-2.5c-1.4,0-2.5,1.1-2.5,2.5
					c0,1.4,1.1,2.5,2.5,2.5C1136.7,398.8,1137.8,397.6,1137.8,396.3z M1270.7,411.3c0,1.4,1.1,2.5,2.5,2.5c1.2,0,2.2-0.8,2.4-2
					c-0.5-1-1.1-1.9-1.6-2.9c-0.3-0.1-0.5-0.1-0.8-0.1C1271.8,408.8,1270.7,409.9,1270.7,411.3z M1286,441.3c0,1.2,0.8,2.1,1.9,2.4
					c-0.3-1.4-0.7-2.8-1.1-4.2C1286.3,439.9,1286,440.6,1286,441.3z M1091.8,396.3c0-1.4-1.1-2.5-2.5-2.5c-1.4,0-2.5,1.1-2.5,2.5
					c0,1.4,1.1,2.5,2.5,2.5C1090.7,398.8,1091.8,397.6,1091.8,396.3z M1214.4,396.3c0-1.4-1.1-2.5-2.5-2.5c-1.4,0-2.5,1.1-2.5,2.5
					c0,1.4,1.1,2.5,2.5,2.5C1213.3,398.8,1214.4,397.6,1214.4,396.3z M1229.7,396.3c0-1.4-1.1-2.5-2.5-2.5c-1.4,0-2.5,1.1-2.5,2.5
					c0,1.4,1.1,2.5,2.5,2.5C1228.6,398.8,1229.7,397.6,1229.7,396.3z M1245,396.3c0-1.4-1.1-2.5-2.5-2.5c-1.4,0-2.5,1.1-2.5,2.5
					c0,1.4,1.1,2.5,2.5,2.5C1243.9,398.8,1245,397.6,1245,396.3z M1199.1,396.3c0-1.4-1.1-2.5-2.5-2.5c-1.4,0-2.5,1.1-2.5,2.5
					c0,1.4,1.1,2.5,2.5,2.5C1197.9,398.8,1199.1,397.6,1199.1,396.3z M1168.4,396.3c0-1.4-1.1-2.5-2.5-2.5c-1.4,0-2.5,1.1-2.5,2.5
					c0,1.4,1.1,2.5,2.5,2.5C1167.3,398.8,1168.4,397.6,1168.4,396.3z M1183.8,396.3c0-1.4-1.1-2.5-2.5-2.5c-1.4,0-2.5,1.1-2.5,2.5
					c0,1.4,1.1,2.5,2.5,2.5C1182.6,398.8,1183.8,397.6,1183.8,396.3z M1153.1,396.3c0-1.4-1.1-2.5-2.5-2.5c-1.4,0-2.5,1.1-2.5,2.5
					c0,1.4,1.1,2.5,2.5,2.5C1152,398.8,1153.1,397.6,1153.1,396.3z M1148.1,546.5c0,1.4,1.1,2.5,2.5,2.5c1.4,0,2.5-1.1,2.5-2.5
					c0-1.4-1.1-2.5-2.5-2.5C1149.2,544,1148.1,545.1,1148.1,546.5z M1163.4,546.5c0,1.4,1.1,2.5,2.5,2.5c1.4,0,2.5-1.1,2.5-2.5
					c0-1.4-1.1-2.5-2.5-2.5C1164.5,544,1163.4,545.1,1163.4,546.5z M1132.8,546.5c0,1.4,1.1,2.5,2.5,2.5c1.4,0,2.5-1.1,2.5-2.5
					c0-1.4-1.1-2.5-2.5-2.5C1133.9,544,1132.8,545.1,1132.8,546.5z M1194.1,546.5c0,1.4,1.1,2.5,2.5,2.5c1.4,0,2.5-1.1,2.5-2.5
					c0-1.4-1.1-2.5-2.5-2.5C1195.2,544,1194.1,545.1,1194.1,546.5z M1117.4,546.5c0,1.4,1.1,2.5,2.5,2.5c1.4,0,2.5-1.1,2.5-2.5
					c0-1.4-1.1-2.5-2.5-2.5C1118.6,544,1117.4,545.1,1117.4,546.5z M1178.7,546.5c0,1.4,1.1,2.5,2.5,2.5c1.4,0,2.5-1.1,2.5-2.5
					c0-1.4-1.1-2.5-2.5-2.5C1179.9,544,1178.7,545.1,1178.7,546.5z M1288.5,468.9c-1.4,0-2.5,1.1-2.5,2.5c0,1.4,1.1,2.5,2.5,2.5
					c1.4,0,2.5-1.1,2.5-2.5l0,0C1291,470,1289.9,468.9,1288.5,468.9z M1102.1,546.5c0,1.4,1.1,2.5,2.5,2.5c1.4,0,2.5-1.1,2.5-2.5
					c0-1.4-1.1-2.5-2.5-2.5C1103.3,544,1102.1,545.1,1102.1,546.5z M1286,501.4c0,0.7,0.3,1.4,0.8,1.8c0.4-1.4,0.7-2.8,1.1-4.2
					C1286.8,499.3,1286,500.3,1286,501.4z M1288.5,483.9c-1.4,0-2.5,1.1-2.5,2.5c0,1.4,1.1,2.5,2.5,2.5c0.5,0,0.9-0.1,1.3-0.4
					c0.2-1.3,0.3-2.6,0.5-3.8C1289.8,484.2,1289.2,483.9,1288.5,483.9z M1260.4,546.5c0-1.4-1.1-2.5-2.5-2.5c-1.4,0-2.5,1.1-2.5,2.5
					c0,1.4,1.1,2.5,2.5,2.5C1259.2,549,1260.4,547.9,1260.4,546.5z M1071.5,546.5c0,1.4,1.1,2.5,2.5,2.5c1.4,0,2.5-1.1,2.5-2.5
					c0-1.4-1.1-2.5-2.5-2.5C1072.6,544,1071.5,545.1,1071.5,546.5z M1086.8,546.5c0,1.4,1.1,2.5,2.5,2.5c1.4,0,2.5-1.1,2.5-2.5
					c0-1.4-1.1-2.5-2.5-2.5C1087.9,544,1086.8,545.1,1086.8,546.5z M1229.7,576.5c0-1.4-1.1-2.5-2.5-2.5c-1.4,0-2.5,1.1-2.5,2.5
					c0,1.4,1.1,2.5,2.5,2.5C1228.6,579,1229.7,577.9,1229.7,576.5z M1137.8,561.5c0-1.4-1.1-2.5-2.5-2.5c-1.4,0-2.5,1.1-2.5,2.5
					c0,1.4,1.1,2.5,2.5,2.5C1136.7,564,1137.8,562.9,1137.8,561.5z M1153.1,561.5c0-1.4-1.1-2.5-2.5-2.5c-1.4,0-2.5,1.1-2.5,2.5
					c0,1.4,1.1,2.5,2.5,2.5C1152,564,1153.1,562.9,1153.1,561.5z M1183.8,561.5c0-1.4-1.1-2.5-2.5-2.5c-1.4,0-2.5,1.1-2.5,2.5
					c0,1.4,1.1,2.5,2.5,2.5C1182.6,564,1183.8,562.9,1183.8,561.5z M1168.4,561.5c0-1.4-1.1-2.5-2.5-2.5c-1.4,0-2.5,1.1-2.5,2.5
					c0,1.4,1.1,2.5,2.5,2.5C1167.3,564,1168.4,562.9,1168.4,561.5z M1107.1,561.5c0-1.4-1.1-2.5-2.5-2.5c-1.4,0-2.5,1.1-2.5,2.5
					c0,1.4,1.1,2.5,2.5,2.5C1106,564,1107.1,562.9,1107.1,561.5z M1209.4,546.5c0,1.4,1.1,2.5,2.5,2.5c1.4,0,2.5-1.1,2.5-2.5
					c0-1.4-1.1-2.5-2.5-2.5C1210.5,544,1209.4,545.1,1209.4,546.5z M1122.5,561.5c0-1.4-1.1-2.5-2.5-2.5c-1.4,0-2.5,1.1-2.5,2.5
					c0,1.4,1.1,2.5,2.5,2.5C1121.3,564,1122.5,562.9,1122.5,561.5z M1086.8,561.5c0,1.4,1.1,2.5,2.5,2.5c1.4,0,2.5-1.1,2.5-2.5
					c0-1.4-1.1-2.5-2.5-2.5C1087.9,559,1086.8,560.2,1086.8,561.5z M1245,561.5c0-1.4-1.1-2.5-2.5-2.5c-1.4,0-2.5,1.1-2.5,2.5
					c0,1.4,1.1,2.5,2.5,2.5C1243.9,564,1245,562.9,1245,561.5z M1137.8,591.6c0-1.4-1.1-2.5-2.5-2.5c-1.2,0-2.1,0.8-2.4,1.9
					c1.6,0.4,3.2,0.9,4.8,1.2C1137.8,592,1137.8,591.8,1137.8,591.6z M1163.4,486.4c0,1.4,1.1,2.5,2.5,2.5c1.4,0,2.5-1.1,2.5-2.5
					c0-1.4-1.1-2.5-2.5-2.5C1164.5,483.9,1163.4,485,1163.4,486.4z M1214.4,561.5c0-1.4-1.1-2.5-2.5-2.5c-1.4,0-2.5,1.1-2.5,2.5
					c0,1.4,1.1,2.5,2.5,2.5C1213.3,564,1214.4,562.9,1214.4,561.5z M1199.1,561.5c0-1.4-1.1-2.5-2.5-2.5c-1.4,0-2.5,1.1-2.5,2.5
					c0,1.4,1.1,2.5,2.5,2.5C1197.9,564,1199.1,562.9,1199.1,561.5z M1196.6,589.1c-1.4,0-2.5,1.1-2.5,2.5c0,0.2,0,0.4,0.1,0.6
					c1.6-0.4,3.2-0.8,4.9-1.2C1198.7,589.9,1197.7,589.1,1196.6,589.1z M1163.4,591.6c0,1.4,1.1,2.5,2.5,2.5c1.4,0,2.5-1.1,2.5-2.5
					c0-1.4-1.1-2.5-2.5-2.5C1164.5,589.1,1163.4,590.2,1163.4,591.6z M1260.4,396.3c0-1.4-1.1-2.5-2.5-2.5c-1.4,0-2.5,1.1-2.5,2.5
					c0,1.4,1.1,2.5,2.5,2.5C1259.2,398.8,1260.4,397.6,1260.4,396.3z M1148.1,591.6c0,1.4,1.1,2.5,2.5,2.5c1.4,0,2.5-1.1,2.5-2.5
					c0-1.4-1.1-2.5-2.5-2.5C1149.2,589.1,1148.1,590.2,1148.1,591.6z M1183.8,591.6c0-1.4-1.1-2.5-2.5-2.5c-1.4,0-2.5,1.1-2.5,2.5
					c0,1.4,1.1,2.5,2.5,2.5C1182.6,594.1,1183.8,592.9,1183.8,591.6z M1214.4,576.5c0-1.4-1.1-2.5-2.5-2.5c-1.4,0-2.5,1.1-2.5,2.5
					c0,1.4,1.1,2.5,2.5,2.5C1213.3,579,1214.4,577.9,1214.4,576.5z M1058.7,413.8c1.4,0,2.5-1.1,2.5-2.5c0-1.4-1.1-2.5-2.5-2.5
					c-0.3,0-0.6,0.1-0.8,0.1c-0.6,0.9-1.1,1.9-1.6,2.9C1056.5,412.9,1057.5,413.8,1058.7,413.8z M1071.5,396.3
					c0,1.4,1.1,2.5,2.5,2.5c1.4,0,2.5-1.1,2.5-2.5c0-1.4-1.1-2.5-2.5-2.5C1072.6,393.8,1071.5,394.9,1071.5,396.3z M1168.4,576.5
					c0-1.4-1.1-2.5-2.5-2.5c-1.4,0-2.5,1.1-2.5,2.5c0,1.4,1.1,2.5,2.5,2.5C1167.3,579,1168.4,577.9,1168.4,576.5z M1122.5,576.5
					c0-1.4-1.1-2.5-2.5-2.5c-1.4,0-2.5,1.1-2.5,2.5c0,1.4,1.1,2.5,2.5,2.5C1121.3,579,1122.5,577.9,1122.5,576.5z M1153.1,576.5
					c0-1.4-1.1-2.5-2.5-2.5c-1.4,0-2.5,1.1-2.5,2.5c0,1.4,1.1,2.5,2.5,2.5C1152,579,1153.1,577.9,1153.1,576.5z M1199.1,576.5
					c0-1.4-1.1-2.5-2.5-2.5c-1.4,0-2.5,1.1-2.5,2.5c0,1.4,1.1,2.5,2.5,2.5C1197.9,579,1199.1,577.9,1199.1,576.5z M1137.8,576.5
					c0-1.4-1.1-2.5-2.5-2.5c-1.4,0-2.5,1.1-2.5,2.5c0,1.4,1.1,2.5,2.5,2.5C1136.7,579,1137.8,577.9,1137.8,576.5z M1107.1,576.5
					c0-1.4-1.1-2.5-2.5-2.5c-1.4,0-2.5,1.1-2.5,2.5c0,1.4,1.1,2.5,2.5,2.5C1106,579,1107.1,577.9,1107.1,576.5z M1229.7,561.5
					c0-1.4-1.1-2.5-2.5-2.5c-1.4,0-2.5,1.1-2.5,2.5c0,1.4,1.1,2.5,2.5,2.5C1228.6,564,1229.7,562.9,1229.7,561.5z M1117.4,501.4
					c0,1.4,1.1,2.5,2.5,2.5c1.4,0,2.5-1.1,2.5-2.5c0-1.4-1.1-2.5-2.5-2.5C1118.6,498.9,1117.4,500.1,1117.4,501.4z M1132.8,501.4
					c0,1.4,1.1,2.5,2.5,2.5c1.4,0,2.5-1.1,2.5-2.5c0-1.4-1.1-2.5-2.5-2.5C1133.9,498.9,1132.8,500.1,1132.8,501.4z M1102.1,501.4
					c0,1.4,1.1,2.5,2.5,2.5c1.4,0,2.5-1.1,2.5-2.5c0-1.4-1.1-2.5-2.5-2.5C1103.3,498.9,1102.1,500.1,1102.1,501.4z M1163.4,501.4
					c0,1.4,1.1,2.5,2.5,2.5c1.4,0,2.5-1.1,2.5-2.5c0-1.4-1.1-2.5-2.5-2.5C1164.5,498.9,1163.4,500.1,1163.4,501.4z M1178.7,501.4
					c0,1.4,1.1,2.5,2.5,2.5c1.4,0,2.5-1.1,2.5-2.5c0-1.4-1.1-2.5-2.5-2.5C1179.9,498.9,1178.7,500.1,1178.7,501.4z M1086.8,501.4
					c0,1.4,1.1,2.5,2.5,2.5c1.4,0,2.5-1.1,2.5-2.5c0-1.4-1.1-2.5-2.5-2.5C1087.9,498.9,1086.8,500.1,1086.8,501.4z M1148.1,501.4
					c0,1.4,1.1,2.5,2.5,2.5c1.4,0,2.5-1.1,2.5-2.5c0-1.4-1.1-2.5-2.5-2.5C1149.2,498.9,1148.1,500.1,1148.1,501.4z M1255.3,516.5
					c0,1.4,1.1,2.5,2.5,2.5c1.4,0,2.5-1.1,2.5-2.5c0-1.4-1.1-2.5-2.5-2.5C1256.5,514,1255.3,515.1,1255.3,516.5z M1071.5,501.4
					c0,1.4,1.1,2.5,2.5,2.5c1.4,0,2.5-1.1,2.5-2.5c0-1.4-1.1-2.5-2.5-2.5C1072.6,498.9,1071.5,500.1,1071.5,501.4z M1240,516.5
					c0,1.4,1.1,2.5,2.5,2.5c1.4,0,2.5-1.1,2.5-2.5c0-1.4-1.1-2.5-2.5-2.5C1241.1,514,1240,515.1,1240,516.5z M1270.7,516.5
					c0,1.4,1.1,2.5,2.5,2.5c1.4,0,2.5-1.1,2.5-2.5c0-1.4-1.1-2.5-2.5-2.5C1271.8,514,1270.7,515.1,1270.7,516.5z M1056.2,501.4
					c0,1.4,1.1,2.5,2.5,2.5c1.4,0,2.5-1.1,2.5-2.5c0-1.4-1.1-2.5-2.5-2.5C1057.3,498.9,1056.2,500.1,1056.2,501.4z M1045.9,501.4
					c0-1.2-0.8-2.1-1.9-2.4c0.3,1.4,0.7,2.8,1.1,4.2C1045.5,502.8,1045.9,502.2,1045.9,501.4z M1071.5,486.4c0,1.4,1.1,2.5,2.5,2.5
					c1.4,0,2.5-1.1,2.5-2.5c0-1.4-1.1-2.5-2.5-2.5C1072.6,483.9,1071.5,485,1071.5,486.4z M1117.4,486.4c0,1.4,1.1,2.5,2.5,2.5
					c1.4,0,2.5-1.1,2.5-2.5c0-1.4-1.1-2.5-2.5-2.5C1118.6,483.9,1117.4,485,1117.4,486.4z M1224.7,516.5c0,1.4,1.1,2.5,2.5,2.5
					c1.4,0,2.5-1.1,2.5-2.5c0-1.4-1.1-2.5-2.5-2.5C1225.8,514,1224.7,515.1,1224.7,516.5z M1086.8,486.4c0,1.4,1.1,2.5,2.5,2.5
					c1.4,0,2.5-1.1,2.5-2.5c0-1.4-1.1-2.5-2.5-2.5C1087.9,483.9,1086.8,485,1086.8,486.4z M1194.1,501.4c0,1.4,1.1,2.5,2.5,2.5
					c1.4,0,2.5-1.1,2.5-2.5c0-1.4-1.1-2.5-2.5-2.5C1195.2,498.9,1194.1,500.1,1194.1,501.4z M1132.8,486.4c0,1.4,1.1,2.5,2.5,2.5
					c1.4,0,2.5-1.1,2.5-2.5c0-1.4-1.1-2.5-2.5-2.5C1133.9,483.9,1132.8,485,1132.8,486.4z M1148.1,486.4c0,1.4,1.1,2.5,2.5,2.5
					c1.4,0,2.5-1.1,2.5-2.5c0-1.4-1.1-2.5-2.5-2.5C1149.2,483.9,1148.1,485,1148.1,486.4z M1102.1,486.4c0,1.4,1.1,2.5,2.5,2.5
					c1.4,0,2.5-1.1,2.5-2.5c0-1.4-1.1-2.5-2.5-2.5C1103.3,483.9,1102.1,485,1102.1,486.4z M1224.7,501.4c0,1.4,1.1,2.5,2.5,2.5
					c1.4,0,2.5-1.1,2.5-2.5c0-1.4-1.1-2.5-2.5-2.5C1225.8,498.9,1224.7,500.1,1224.7,501.4z M1240,501.4c0,1.4,1.1,2.5,2.5,2.5
					c1.4,0,2.5-1.1,2.5-2.5c0-1.4-1.1-2.5-2.5-2.5C1241.1,498.9,1240,500.1,1240,501.4z M1209.4,501.4c0,1.4,1.1,2.5,2.5,2.5
					c1.4,0,2.5-1.1,2.5-2.5c0-1.4-1.1-2.5-2.5-2.5C1210.5,498.9,1209.4,500.1,1209.4,501.4z M1056.2,486.4c0,1.4,1.1,2.5,2.5,2.5
					c1.4,0,2.5-1.1,2.5-2.5c0-1.4-1.1-2.5-2.5-2.5C1057.3,483.9,1056.2,485,1056.2,486.4z M1270.7,501.4c0,1.4,1.1,2.5,2.5,2.5
					c1.4,0,2.5-1.1,2.5-2.5c0-1.4-1.1-2.5-2.5-2.5C1271.8,498.9,1270.7,500.1,1270.7,501.4z M1255.3,501.4c0,1.4,1.1,2.5,2.5,2.5
					c1.4,0,2.5-1.1,2.5-2.5c0-1.4-1.1-2.5-2.5-2.5C1256.5,498.9,1255.3,500.1,1255.3,501.4z M1240,531.5c0,1.4,1.1,2.5,2.5,2.5
					c1.4,0,2.5-1.1,2.5-2.5c0-1.4-1.1-2.5-2.5-2.5C1241.1,529,1240,530.1,1240,531.5z M1178.7,531.5c0,1.4,1.1,2.5,2.5,2.5
					c1.4,0,2.5-1.1,2.5-2.5c0-1.4-1.1-2.5-2.5-2.5C1179.9,529,1178.7,530.1,1178.7,531.5z M1163.4,531.5c0,1.4,1.1,2.5,2.5,2.5
					c1.4,0,2.5-1.1,2.5-2.5c0-1.4-1.1-2.5-2.5-2.5C1164.5,529,1163.4,530.1,1163.4,531.5z M1194.1,531.5c0,1.4,1.1,2.5,2.5,2.5
					c1.4,0,2.5-1.1,2.5-2.5c0-1.4-1.1-2.5-2.5-2.5C1195.2,529,1194.1,530.1,1194.1,531.5z M1148.1,531.5c0,1.4,1.1,2.5,2.5,2.5
					c1.4,0,2.5-1.1,2.5-2.5c0-1.4-1.1-2.5-2.5-2.5C1149.2,529,1148.1,530.1,1148.1,531.5z M1209.4,531.5c0,1.4,1.1,2.5,2.5,2.5
					c1.4,0,2.5-1.1,2.5-2.5c0-1.4-1.1-2.5-2.5-2.5C1210.5,529,1209.4,530.1,1209.4,531.5z M1224.7,531.5c0,1.4,1.1,2.5,2.5,2.5
					c1.4,0,2.5-1.1,2.5-2.5c0-1.4-1.1-2.5-2.5-2.5C1225.8,529,1224.7,530.1,1224.7,531.5z M1071.5,531.5c0,1.4,1.1,2.5,2.5,2.5
					c1.4,0,2.5-1.1,2.5-2.5c0-1.4-1.1-2.5-2.5-2.5C1072.6,529,1071.5,530.1,1071.5,531.5z M1086.8,531.5c0,1.4,1.1,2.5,2.5,2.5
					c1.4,0,2.5-1.1,2.5-2.5c0-1.4-1.1-2.5-2.5-2.5C1087.9,529,1086.8,530.1,1086.8,531.5z M1132.8,531.5c0,1.4,1.1,2.5,2.5,2.5
					c1.4,0,2.5-1.1,2.5-2.5c0-1.4-1.1-2.5-2.5-2.5C1133.9,529,1132.8,530.1,1132.8,531.5z M1224.7,546.5c0,1.4,1.1,2.5,2.5,2.5
					c1.4,0,2.5-1.1,2.5-2.5c0-1.4-1.1-2.5-2.5-2.5C1225.8,544,1224.7,545.1,1224.7,546.5z M1255.3,531.5c0,1.4,1.1,2.5,2.5,2.5
					c1.4,0,2.5-1.1,2.5-2.5c0-1.4-1.1-2.5-2.5-2.5C1256.5,529,1255.3,530.1,1255.3,531.5z M1117.4,531.5c0,1.4,1.1,2.5,2.5,2.5
					c1.4,0,2.5-1.1,2.5-2.5c0-1.4-1.1-2.5-2.5-2.5C1118.6,529,1117.4,530.1,1117.4,531.5z M1102.1,531.5c0,1.4,1.1,2.5,2.5,2.5
					c1.4,0,2.5-1.1,2.5-2.5c0-1.4-1.1-2.5-2.5-2.5C1103.3,529,1102.1,530.1,1102.1,531.5z M1071.5,516.5c0,1.4,1.1,2.5,2.5,2.5
					c1.4,0,2.5-1.1,2.5-2.5c0-1.4-1.1-2.5-2.5-2.5C1072.6,514,1071.5,515.1,1071.5,516.5z M1163.4,516.5c0,1.4,1.1,2.5,2.5,2.5
					c1.4,0,2.5-1.1,2.5-2.5c0-1.4-1.1-2.5-2.5-2.5C1164.5,514,1163.4,515.1,1163.4,516.5z M1148.1,516.5c0,1.4,1.1,2.5,2.5,2.5
					c1.4,0,2.5-1.1,2.5-2.5c0-1.4-1.1-2.5-2.5-2.5C1149.2,514,1148.1,515.1,1148.1,516.5z M1132.8,516.5c0,1.4,1.1,2.5,2.5,2.5
					c1.4,0,2.5-1.1,2.5-2.5c0-1.4-1.1-2.5-2.5-2.5C1133.9,514,1132.8,515.1,1132.8,516.5z M1194.1,516.5c0,1.4,1.1,2.5,2.5,2.5
					c1.4,0,2.5-1.1,2.5-2.5c0-1.4-1.1-2.5-2.5-2.5C1195.2,514,1194.1,515.1,1194.1,516.5z M1178.7,516.5c0,1.4,1.1,2.5,2.5,2.5
					c1.4,0,2.5-1.1,2.5-2.5c0-1.4-1.1-2.5-2.5-2.5C1179.9,514,1178.7,515.1,1178.7,516.5z M1117.4,516.5c0,1.4,1.1,2.5,2.5,2.5
					c1.4,0,2.5-1.1,2.5-2.5c0-1.4-1.1-2.5-2.5-2.5C1118.6,514,1117.4,515.1,1117.4,516.5z M1240,546.5c0,1.4,1.1,2.5,2.5,2.5
					c1.4,0,2.5-1.1,2.5-2.5c0-1.4-1.1-2.5-2.5-2.5C1241.1,544,1240,545.1,1240,546.5z M1061.2,531.5c0-1.4-1.1-2.5-2.5-2.5
					c-1.2,0-2.2,0.8-2.4,2c0.5,1,1.1,1.9,1.6,2.9c0.3,0.1,0.5,0.1,0.8,0.1C1060.1,534,1061.2,532.9,1061.2,531.5z M1056.2,516.5
					c0,1.4,1.1,2.5,2.5,2.5c1.4,0,2.5-1.1,2.5-2.5c0-1.4-1.1-2.5-2.5-2.5C1057.3,514,1056.2,515.1,1056.2,516.5z M1209.4,516.5
					c0,1.4,1.1,2.5,2.5,2.5c1.4,0,2.5-1.1,2.5-2.5c0-1.4-1.1-2.5-2.5-2.5C1210.5,514,1209.4,515.1,1209.4,516.5z M1086.8,516.5
					c0,1.4,1.1,2.5,2.5,2.5c1.4,0,2.5-1.1,2.5-2.5c0-1.4-1.1-2.5-2.5-2.5C1087.9,514,1086.8,515.1,1086.8,516.5z M1102.1,516.5
					c0,1.4,1.1,2.5,2.5,2.5c1.4,0,2.5-1.1,2.5-2.5c0-1.4-1.1-2.5-2.5-2.5C1103.3,514,1102.1,515.1,1102.1,516.5z"/>
			</g>
		</g>
		<rect x="1.6" y="127.4" class="st14" width="1285.5" height="318.5"/>
		
			<linearGradient id="SVGID_13_" gradientUnits="userSpaceOnUse" x1="1431.715" y1="4025.353" x2="1637.2461" y2="4025.353" gradientTransform="matrix(-0.5231 0.7648 -0.8337 -0.5069 5173.7422 1163.5468)">
			<stop  offset="0" style="stop-color:#0ED0F8"/>
			<stop  offset="7.931155e-02" style="stop-color:#11B9E8;stop-opacity:0.9206"/>
			<stop  offset="0.3262" style="stop-color:#1978B8;stop-opacity:0.6735"/>
			<stop  offset="0.5505" style="stop-color:#1F4493;stop-opacity:0.449"/>
			<stop  offset="0.7444" style="stop-color:#231F78;stop-opacity:0.2549"/>
			<stop  offset="0.9005" style="stop-color:#260867;stop-opacity:9.869826e-02"/>
			<stop  offset="0.9991" style="stop-color:#270061;stop-opacity:0"/>
		</linearGradient>
		<path class="st15" d="M1023.4,230.6c4.1-15,19.6-17.9,36.5-15.8c16.9,2.1,25.6,23.6,21.5,38.7c-4.1,15-22.8,26.3-38.6,19.2
			C1027,265.6,1019.3,245.6,1023.4,230.6z"/>
		
			<linearGradient id="SVGID_14_" gradientUnits="userSpaceOnUse" x1="431.0235" y1="2876.5369" x2="534.3041" y2="2876.5369" gradientTransform="matrix(0.4023 0.8346 -0.855 0.4702 2567.0046 -1512.9719)">
			<stop  offset="0" style="stop-color:#0ED0F8"/>
			<stop  offset="7.931155e-02" style="stop-color:#11B9E8;stop-opacity:0.9206"/>
			<stop  offset="0.3262" style="stop-color:#1978B8;stop-opacity:0.6735"/>
			<stop  offset="0.5505" style="stop-color:#1F4493;stop-opacity:0.449"/>
			<stop  offset="0.7444" style="stop-color:#231F78;stop-opacity:0.2549"/>
			<stop  offset="0.9005" style="stop-color:#260867;stop-opacity:9.869826e-02"/>
			<stop  offset="0.9991" style="stop-color:#270061;stop-opacity:0"/>
		</linearGradient>
		<path class="st16" d="M276.2,241c-8.2-8.1-4.3-18.9,3.2-28.8c7.5-9.9,24.6-7.5,32.7,0.6c8.2,8.1,8.5,24-1.8,31.4
			C300,251.5,284.4,249.1,276.2,241z"/>
		
			<radialGradient id="SVGID_15_" cx="958.8189" cy="2082.9475" r="85.8391" gradientTransform="matrix(0.407 0.8367 -0.8651 0.4714 2597.2578 -1516.8386)" gradientUnits="userSpaceOnUse">
			<stop  offset="0" style="stop-color:#FF4200"/>
			<stop  offset="1" style="stop-color:#FF9A00"/>
		</radialGradient>
		<path class="st17" d="M1141.4,264.5c-8.2-8.1-4.3-18.9,3.2-28.8c7.5-9.9,24.6-7.5,32.7,0.6c8.2,8.1,8.5,24-1.8,31.4
			C1165.2,275.1,1149.5,272.6,1141.4,264.5z"/>
		<ellipse class="st11" cx="83.8" cy="253.4" rx="13.6" ry="13.5"/>
		<path class="st11" d="M1104.6,336.4c0,7.4-6.1,13.5-13.6,13.5c-7.5,0-13.6-6-13.6-13.5c0-7.4,6.1-13.5,13.6-13.5
			C1098.5,323,1104.6,329,1104.6,336.4z"/>
		<path class="st11" d="M402.6,226l3.5-3.5c0.9-0.9,0.9-2.4,0-3.4c-0.9-0.9-2.5-0.9-3.4,0l-3.5,3.5l-3.5-3.5c-0.9-0.9-2.5-0.9-3.4,0
			c-0.9,0.9-0.9,2.4,0,3.4l3.5,3.5l-3.5,3.5c-0.9,0.9-0.9,2.4,0,3.4c0.9,0.9,2.5,0.9,3.4,0l3.5-3.5l3.5,3.5c0.9,0.9,2.5,0.9,3.4,0
			c0.9-0.9,0.9-2.4,0-3.4L402.6,226z"/>
		<path class="st11" d="M995.4,328.1l3.5-3.5c0.9-0.9,0.9-2.4,0-3.4c-0.9-0.9-2.5-0.9-3.4,0l-3.5,3.5l-3.5-3.5
			c-0.9-0.9-2.5-0.9-3.4,0c-0.9,0.9-0.9,2.4,0,3.4l3.5,3.5l-3.5,3.5c-0.9,0.9-0.9,2.4,0,3.4c0.9,0.9,2.5,0.9,3.4,0l3.5-3.5l3.5,3.5
			c0.9,0.9,2.5,0.9,3.4,0c0.9-0.9,0.9-2.4,0-3.4L995.4,328.1z"/>
		<path class="st11" d="M82.4,386.1l3.5-3.5c0.9-0.9,0.9-2.4,0-3.4c-0.9-0.9-2.5-0.9-3.4,0l-3.5,3.5l-3.5-3.5
			c-0.9-0.9-2.5-0.9-3.4,0c-0.9,0.9-0.9,2.4,0,3.4l3.5,3.5l-3.5,3.5c-0.9,0.9-0.9,2.4,0,3.4c0.9,0.9,2.5,0.9,3.4,0l3.5-3.5l3.5,3.5
			c0.9,0.9,2.5,0.9,3.4,0c0.9-0.9,0.9-2.4,0-3.4L82.4,386.1z"/>
		<path class="st11" d="M714.6,166.5l3.5-3.5c0.9-0.9,0.9-2.4,0-3.4c-0.9-0.9-2.5-0.9-3.4,0l-3.5,3.5l-3.5-3.5
			c-0.9-0.9-2.5-0.9-3.4,0c-0.9,0.9-0.9,2.4,0,3.4l3.5,3.5l-3.5,3.5c-0.9,0.9-0.9,2.4,0,3.4c0.9,0.9,2.5,0.9,3.4,0l3.5-3.5l3.5,3.5
			c0.9,0.9,2.5,0.9,3.4,0c0.9-0.9,0.9-2.4,0-3.4L714.6,166.5z"/>
	</g>
</g>
</svg>
