<?xml version="1.0" encoding="utf-8"?>
<!-- Generator: Adobe Illustrator 24.3.0, SVG Export Plug-In . SVG Version: 6.00 Build 0)  -->
<svg version="1.1" id="Layer_1" xmlns="http://www.w3.org/2000/svg" xmlns:xlink="http://www.w3.org/1999/xlink" x="0px" y="0px"
	 viewBox="0 0 1920 480" style="enable-background:new 0 0 1920 480;" xml:space="preserve">
<style type="text/css">
	.st0{clip-path:url(#SVGID_2_);fill:url(#SVGID_3_);}
	.st1{clip-path:url(#SVGID_2_);}
	.st2{opacity:0.36;clip-path:url(#SVGID_5_);fill:#FFFFFF;}
	.st3{clip-path:url(#SVGID_5_);}
	.st4{fill:none;stroke:#FFFFFF;stroke-width:4.6189;stroke-miterlimit:10;}
	.st5{fill:none;stroke:#FFFFFF;stroke-width:4.0134;stroke-miterlimit:10;}
	.st6{fill:none;stroke:#FFFFFF;stroke-width:3.5612;stroke-miterlimit:10;}
	
		.st7{clip-path:url(#SVGID_5_);fill:none;stroke:#FFFFFF;stroke-width:4.554;stroke-linecap:round;stroke-miterlimit:10;stroke-dasharray:0,9.108;}
	
		.st8{clip-path:url(#SVGID_5_);fill:none;stroke:#FFFFFF;stroke-width:4;stroke-linecap:round;stroke-miterlimit:10;stroke-dasharray:0,32.9778;}
	
		.st9{clip-path:url(#SVGID_5_);fill:none;stroke:#FFFFFF;stroke-width:6.5164;stroke-linecap:round;stroke-miterlimit:10;stroke-dasharray:0,13.0328;}
	.st10{clip-path:url(#SVGID_5_);fill:url(#SVGID_6_);}
	.st11{clip-path:url(#SVGID_5_);fill:none;stroke:#FFFFFF;stroke-width:2;stroke-miterlimit:10;}
	.st12{clip-path:url(#SVGID_5_);fill:url(#SVGID_7_);}
	.st13{clip-path:url(#SVGID_5_);fill:url(#SVGID_8_);}
	.st14{clip-path:url(#SVGID_5_);fill:url(#SVGID_9_);}
	.st15{clip-path:url(#SVGID_5_);fill:url(#SVGID_10_);}
	.st16{clip-path:url(#SVGID_5_);fill:url(#SVGID_11_);}
	.st17{clip-path:url(#SVGID_5_);fill:url(#SVGID_12_);}
	.st18{opacity:0.77;clip-path:url(#SVGID_5_);fill:#FFFFFF;}
</style>
<g id="PHOTOS">
</g>
<g id="OBJECTS">
</g>
<g>
	<defs>
		<rect id="SVGID_1_" x="0.7" y="0.7" width="1922" height="482"/>
	</defs>
	<clipPath id="SVGID_2_">
		<use xlink:href="#SVGID_1_"  style="overflow:visible;"/>
	</clipPath>
	<linearGradient id="SVGID_3_" gradientUnits="userSpaceOnUse" x1="-394.0518" y1="278.0076" x2="1955.9482" y2="278.0076">
		<stop  offset="0" style="stop-color:#3B1464"/>
		<stop  offset="0.3361" style="stop-color:#2F1254"/>
		<stop  offset="0.9864" style="stop-color:#100C2C"/>
		<stop  offset="1" style="stop-color:#0F0C2B"/>
	</linearGradient>
	<rect x="-394.1" y="-382.9" class="st0" width="2350" height="1321.9"/>
	<g class="st1">
		<defs>
			<rect id="SVGID_4_" x="-394.1" y="-382.9" width="2350" height="1321.9"/>
		</defs>
		<clipPath id="SVGID_5_">
			<use xlink:href="#SVGID_4_"  style="overflow:visible;"/>
		</clipPath>
		<path class="st2" d="M-479.8,612.7c106.2,1.1,210.3-27.6,312.4-57c267.2-76.7,541.9-164,749.2-349.1C685.2,114.3,772-2.3,898-60.1
			c124.1-57.1,269.4-48.7,397-97.4c147.6-56.3,268.1-190.7,298.6-345.7l473.1-24.9l22.7,432.4c-121.3-5-244-4-363.1,19.5
			c-119.1,23.5-235.7,72.7-323.4,156.7c-57.2,54.8-100.9,122.9-160.9,174.7c-89.6,77.3-208.8,111.9-326.2,126.8
			c-117.4,14.9-236.5,12.4-354,26.3C278.5,441.6,7.9,573.5-192.9,776c-77.8,78.5-147.4,168.7-243.8,222.7
			c-5.6-15.9-8.7-32.7-14.3-48.6L-479.8,612.7z"/>
		<g class="st3">
			<path class="st4" d="M-260.2,1305.7c-0.1-147.2,85.6-297.8,195.3-416.8C57,756.6,219.2,650.2,386.5,631.2
				c306.9-34.9,537,222.2,842.6,203.9c205.5-12.3,409.5-153.1,541.9-330c132.4-176.8,202.5-385.4,246.5-590
				c42.8-199,63.8-399.6,126.8-596.6c63-196.9,175.8-396.2,352.9-518.4"/>
			<path class="st4" d="M-248.5,1294.6c-0.1-147.2,85.6-297.8,195.3-416.8C68.7,745.5,230.9,639.1,398.2,620.1
				c306.9-34.9,537,222.2,842.6,203.9c205.5-12.3,409.5-153.1,541.9-330c132.4-176.8,202.5-385.4,246.5-590
				c42.8-199,63.8-399.6,126.8-596.6c63-196.9,175.8-396.2,352.9-518.4"/>
			<path class="st4" d="M-236.8,1283.5c-0.1-147.2,85.6-297.8,195.3-416.8C80.4,734.4,242.7,628,410,609
				c306.9-34.9,537,222.2,842.6,203.9c205.5-12.3,409.5-153.1,541.9-330c132.4-176.8,202.5-385.4,246.5-590
				c42.8-199,63.8-399.6,126.8-596.6c63-196.9,175.8-396.2,352.9-518.4"/>
			<path class="st4" d="M-225,1272.4c-0.1-147.2,85.6-297.8,195.3-416.8C92.2,723.3,254.4,616.9,421.7,597.9
				c306.9-34.9,537,222.2,842.6,203.9c205.5-12.3,409.5-153.1,541.9-330c132.4-176.8,202.5-385.4,246.5-590
				c42.8-199,63.8-399.6,126.8-596.6c63-196.9,175.8-396.2,352.9-518.4"/>
			<path class="st4" d="M-213.3,1261.3c-0.1-147.2,85.6-297.8,195.3-416.8c121.9-132.3,284.2-238.7,451.5-257.7
				c306.9-34.9,537,222.2,842.6,203.9c205.5-12.3,409.5-153.1,541.9-330c132.4-176.8,202.5-385.4,246.5-590
				c42.8-199,63.8-399.6,126.8-596.6c63-196.9,175.8-396.2,352.9-518.4"/>
			<path class="st4" d="M-201.5,1250.2C-201.7,1103-116,952.3-6.3,833.3C115.7,701,277.9,594.7,445.2,575.7
				c306.9-34.9,537,222.2,842.6,203.9c205.5-12.3,409.5-153.1,541.9-330c132.4-176.8,202.5-385.4,246.5-590
				C2119-339.3,2140-540,2203-736.9c63-196.9,175.8-396.2,352.9-518.4"/>
			<path class="st4" d="M-189.8,1239.1c-0.1-147.2,85.6-297.8,195.3-416.8c121.9-132.3,284.2-238.7,451.5-257.7
				c306.9-34.9,537,222.2,842.6,203.9c205.5-12.3,409.5-153.1,541.9-330c132.4-176.8,202.5-385.4,246.5-590
				c42.8-199,63.8-399.6,126.8-596.6c63-196.9,175.8-396.2,352.9-518.4"/>
			<path class="st4" d="M-178,1228c-0.1-147.2,85.6-297.8,195.3-416.8c121.9-132.3,284.2-238.7,451.5-257.7
				c306.9-34.9,537,222.2,842.6,203.9c205.5-12.3,409.5-153.1,541.9-330s202.5-385.4,246.5-590c42.8-199,63.8-399.6,126.8-596.6
				c63-196.9,175.8-396.2,352.9-518.4"/>
			<path class="st4" d="M-166.3,1216.8C-166.4,1069.7-80.7,919,29,800c121.9-132.3,284.2-238.7,451.5-257.7
				c306.9-34.9,537,222.2,842.6,203.9c205.5-12.3,409.5-153.1,541.9-330c132.4-176.8,202.5-385.4,246.5-590
				c42.8-199,63.8-399.6,126.8-596.6c63-196.9,175.8-396.2,352.9-518.4"/>
			<path class="st4" d="M-154.6,1205.7c-0.1-147.2,85.6-297.8,195.3-416.8c121.9-132.3,284.2-238.7,451.5-257.7
				c306.9-34.9,537,222.2,842.6,203.9c205.5-12.3,409.5-153.1,541.9-330s202.5-385.4,246.5-590c42.8-199,63.8-399.6,126.8-596.6
				c63-196.9,175.8-396.2,352.9-518.4"/>
			<path class="st4" d="M-142.8,1194.6c-0.1-147.2,85.6-297.8,195.3-416.8c121.9-132.3,284.2-238.7,451.5-257.7
				c306.9-34.9,537,222.2,842.6,203.9c205.5-12.3,409.5-153.1,541.9-330c132.4-176.8,202.5-385.4,246.5-590
				c42.8-199,63.8-399.6,126.8-596.6c63-196.9,175.8-396.2,352.9-518.4"/>
			<path class="st4" d="M-131.1,1183.5c-0.1-147.2,85.6-297.8,195.3-416.8c121.9-132.3,284.2-238.7,451.5-257.7
				c306.9-34.9,537,222.2,842.6,203.9c205.5-12.3,409.5-153.1,541.9-330c132.4-176.8,202.5-385.4,246.5-590
				c42.8-199,63.8-399.6,126.8-596.6c63-196.9,175.8-396.2,352.9-518.4"/>
			<path class="st4" d="M-119.3,1172.4c-0.1-147.2,85.6-297.8,195.3-416.8c121.9-132.3,284.2-238.7,451.5-257.7
				c306.9-34.9,537,222.2,842.6,203.9c205.5-12.3,409.5-153.1,541.9-330c132.4-176.8,202.5-385.4,246.5-590
				c42.8-199,63.8-399.6,126.8-596.6c63-196.9,175.8-396.2,352.9-518.4"/>
			<path class="st4" d="M-107.6,1161.3c-0.1-147.2,85.6-297.8,195.3-416.8c121.9-132.3,284.2-238.7,451.5-257.7
				c306.9-34.9,537,222.2,842.6,203.9c205.5-12.3,409.5-153.1,541.9-330s202.5-385.4,246.5-590c42.8-199,63.8-399.6,126.8-596.6
				c63-196.9,175.8-396.2,352.9-518.4"/>
		</g>
		<g class="st3">
			<path class="st5" d="M1514.5-849.5c4.9,127.8-64.7,261.4-156.1,368.2C1256.7-362.4,1119.3-264.9,974.6-243
				c-265.3,40.1-473.5-175.7-738.2-149.9c-178,17.3-350.6,146.1-460,304c-109.3,157.8-163.4,341.2-195,520.2
				c-30.8,174.2-42.6,349.1-90.9,522.1s-139.9,349.7-289.8,461.5"/>
			<path class="st5" d="M1504.6-839.4c4.9,127.8-64.7,261.4-156.1,368.2C1246.9-352.4,1109.4-254.8,964.8-233
				c-265.3,40.1-473.5-175.7-738.2-149.9c-178,17.3-350.6,146.1-460,304c-109.3,157.8-163.4,341.2-195,520.2
				c-30.8,174.2-42.6,349.1-90.9,522.1c-48.3,173-139.9,349.7-289.8,461.5"/>
			<path class="st5" d="M1494.8-829.4c4.9,127.8-64.7,261.4-156.1,368.2C1237.1-342.4,1099.6-244.8,955-222.9
				c-265.3,40.1-473.5-175.7-738.2-149.9c-178,17.3-350.7,146.1-460,304c-109.3,157.8-163.4,341.2-195,520.2
				c-30.8,174.2-42.6,349.1-90.9,522.1c-48.3,173-139.9,349.7-289.8,461.5"/>
			<path class="st5" d="M1485-819.4c4.9,127.8-64.7,261.4-156.1,368.2c-101.6,118.8-239.1,216.4-383.7,238.3
				C679.8-172.8,471.7-388.6,207-362.8c-178,17.3-350.6,146.1-460,304C-362.3,98.9-416.4,282.3-448,461.3
				c-30.8,174.2-42.6,349.1-90.9,522.1c-48.3,173-139.9,349.7-289.8,461.5"/>
			<path class="st5" d="M1475.1-809.4c4.9,127.8-64.7,261.4-156.1,368.2c-101.6,118.8-239.1,216.4-383.7,238.3
				C670-162.7,461.8-378.6,197.1-352.8c-178,17.3-350.7,146.1-460,304c-109.3,157.8-163.4,341.2-195,520.2
				c-30.8,174.2-42.6,349.1-90.9,522.1c-48.3,173-139.9,349.7-289.8,461.5"/>
			<path class="st5" d="M1465.3-799.4c4.9,127.8-64.7,261.4-156.1,368.2c-101.6,118.8-239.1,216.4-383.7,238.3
				C660.1-152.7,452-368.5,187.3-342.8c-178,17.3-350.7,146.1-460,304C-382,119-436.1,302.3-467.7,481.4
				c-30.8,174.2-42.6,349.1-90.9,522.1c-48.3,173-139.9,349.7-289.8,461.5"/>
			<path class="st5" d="M1455.4-789.3c4.9,127.8-64.7,261.4-156.1,368.2c-101.6,118.8-239.1,216.4-383.7,238.3
				c-265.3,40.1-473.5-175.7-738.2-149.9c-178,17.3-350.6,146.1-460,304c-109.3,157.8-163.4,341.2-195,520.2
				c-30.8,174.2-42.6,349.1-90.9,522.1c-48.3,173-139.9,349.7-289.8,461.5"/>
			<path class="st5" d="M1445.6-779.3c4.9,127.8-64.7,261.4-156.1,368.2c-101.6,118.8-239.1,216.4-383.7,238.3
				c-265.3,40.1-473.5-175.7-738.2-149.9c-178,17.3-350.7,146.1-460,304c-109.3,157.8-163.4,341.2-195,520.2
				c-30.8,174.2-42.6,349.1-90.9,522.1c-48.3,173-139.9,349.7-289.8,461.5"/>
			<path class="st5" d="M1435.8-769.3c4.9,127.8-64.7,261.4-156.1,368.2C1178-282.3,1040.6-184.7,895.9-162.8
				c-265.3,40.1-473.5-175.7-738.2-149.9c-178,17.3-350.6,146.1-460,304c-109.3,157.8-163.4,341.2-195,520.2
				c-30.8,174.2-42.6,349.1-90.9,522.1S-728,1383.2-877.9,1495"/>
			<path class="st5" d="M1425.9-759.3c4.9,127.8-64.7,261.4-156.1,368.2c-101.6,118.8-239.1,216.4-383.7,238.3
				c-265.3,40.1-473.5-175.7-738.2-149.9c-178,17.3-350.6,146.1-460,304s-163.4,341.2-195,520.2c-30.8,174.2-42.6,349.1-90.9,522.1
				c-48.3,173-139.9,349.7-289.8,461.5"/>
			<path class="st5" d="M1416.1-749.3c4.9,127.8-64.7,261.4-156.1,368.2c-101.6,118.8-239.1,216.4-383.7,238.3
				c-265.3,40.1-473.5-175.7-738.2-149.9c-178,17.3-350.7,146.1-460,304c-109.3,157.8-163.4,341.2-195,520.2
				c-30.8,174.2-42.6,349.1-90.9,522.1c-48.3,173-139.9,349.7-289.8,461.5"/>
			<path class="st5" d="M1406.3-739.2c4.9,127.8-64.7,261.4-156.1,368.2c-101.6,118.8-239.1,216.4-383.7,238.3
				C601.1-92.6,393-308.4,128.3-282.7c-178,17.3-350.6,146.1-460,304c-109.3,157.8-163.4,341.2-195,520.2
				c-30.8,174.2-42.6,349.1-90.9,522.1c-48.3,173-139.9,349.7-289.8,461.5"/>
			<path class="st5" d="M1396.4-729.2c4.9,127.8-64.7,261.4-156.1,368.2c-101.6,118.8-239.1,216.4-383.7,238.3
				C591.2-82.6,383.1-298.4,118.4-272.7c-178,17.3-350.7,146.1-460,304c-109.3,157.8-163.4,341.2-195,520.2
				c-30.8,174.2-42.6,349.1-90.9,522.1c-48.3,173-139.9,349.7-289.8,461.5"/>
			<path class="st5" d="M1386.6-719.2c4.9,127.8-64.7,261.4-156.1,368.2c-101.6,118.8-239.1,216.4-383.7,238.3
				C581.4-72.6,373.3-288.4,108.6-262.6c-178,17.3-350.7,146.1-460,304s-163.4,341.2-195,520.2c-30.8,174.2-42.6,349.1-90.9,522.1
				c-48.3,173-139.9,349.7-289.8,461.5"/>
		</g>
		<g class="st3">
			<path class="st6" d="M-1171.1,562.3c86.3-69.8,193.4-117.2,302.2-125.3c124.6-9.3,242.2,32,364.3,46.3
				c200.1,23.4,413.1-28.1,594.2-132.4C270.7,246.5,420.2,91.4,524.7-84.1c94.9-159.5,155.9-338.3,282.5-477.6
				c93.5-102.8,216.6-176.8,341.9-239.5"/>
			<path class="st6" d="M-1175.2,555.4c86.3-69.8,193.4-117.2,302.2-125.3c124.6-9.3,242.2,32,364.3,46.3
				c200.1,23.4,413.1-28.1,594.2-132.4C266.6,239.6,416.1,84.5,520.6-91c94.9-159.5,155.9-338.3,282.5-477.6
				C896.6-671.4,1019.7-745.4,1145-808"/>
			<path class="st6" d="M-1179.3,548.5c86.3-69.8,193.4-117.2,302.2-125.3c124.6-9.3,242.2,32,364.3,46.3
				C-312.8,492.9-99.8,441.3,81.4,337C262.5,232.7,412,77.6,516.5-97.9C611.4-257.4,672.4-436.1,799-575.5
				c93.5-102.8,216.6-176.8,341.9-239.5"/>
			<path class="st6" d="M-1183.4,541.6c86.3-69.8,193.4-117.2,302.2-125.3c124.6-9.3,242.2,32,364.3,46.3
				c200.1,23.4,413.1-28.1,594.2-132.4C258.4,225.8,407.9,70.7,512.4-104.8c94.9-159.5,155.9-338.3,282.5-477.6
				c93.5-102.8,216.6-176.8,341.9-239.5"/>
			<path class="st6" d="M-1187.5,534.7c86.3-69.8,193.4-117.2,302.2-125.3c124.6-9.3,242.2,32,364.3,46.3
				C-321,479-108,427.5,73.2,323.2C254.3,218.9,403.8,63.8,508.3-111.7C603.2-271.2,664.2-450,790.8-589.3
				c93.5-102.8,216.6-176.8,341.9-239.5"/>
			<path class="st6" d="M-1191.6,527.8c86.3-69.8,193.4-117.2,302.2-125.3c124.6-9.3,242.2,32,364.3,46.3
				c200.1,23.4,413.1-28.1,594.2-132.4C250.2,212,399.7,56.9,504.2-118.6c94.9-159.5,155.9-338.3,282.5-477.6
				C880.2-699,1003.3-773,1128.6-835.6"/>
			<path class="st6" d="M-1195.7,520.9c86.3-69.8,193.4-117.2,302.2-125.3c124.6-9.3,242.2,32,364.3,46.3
				c200.1,23.4,413.1-28.1,594.2-132.4C246.1,205.1,395.6,50,500.1-125.5C595-285,656-463.8,782.6-603.1
				c93.5-102.8,216.6-176.8,341.9-239.5"/>
			<path class="st6" d="M-1199.8,514c86.3-69.8,193.4-117.2,302.2-125.3c124.6-9.3,242.2,32,364.3,46.3
				c200.1,23.4,413.1-28.1,594.2-132.4C242,198.2,391.6,43.1,496-132.4C590.9-291.9,651.9-470.7,778.5-610
				c93.5-102.8,216.6-176.8,341.9-239.5"/>
			<path class="st6" d="M-1203.9,507.1c86.3-69.8,193.4-117.2,302.2-125.3c124.6-9.3,242.2,32,364.3,46.3
				c200.1,23.4,413.1-28.1,594.2-132.4C237.9,191.3,387.5,36.1,491.9-139.3c94.9-159.5,155.9-338.3,282.5-477.6
				c93.5-102.8,216.6-176.8,341.9-239.5"/>
			<path class="st6" d="M-1208,500.2c86.3-69.8,193.4-117.2,302.2-125.3c124.6-9.3,242.2,32,364.3,46.3
				c200.1,23.4,413.1-28.1,594.2-132.4C233.8,184.4,383.4,29.2,487.8-146.2c94.9-159.5,155.9-338.3,282.5-477.6
				c93.5-102.8,216.6-176.8,341.9-239.5"/>
			<path class="st6" d="M-1212.1,493.3c86.3-69.8,193.4-117.2,302.2-125.3c124.6-9.3,242.2,32,364.3,46.3
				c200.1,23.4,413.1-28.1,594.2-132.4C229.7,177.5,379.3,22.3,483.7-153.1c94.9-159.5,155.9-338.3,282.5-477.6
				c93.5-102.8,216.6-176.8,341.9-239.5"/>
			<path class="st6" d="M-1216.2,486.4c86.3-69.8,193.4-117.2,302.2-125.3c124.6-9.3,242.2,32,364.3,46.3
				c200.1,23.4,413.1-28.1,594.2-132.4C225.6,170.6,375.2,15.4,479.6-160.1c94.9-159.5,155.9-338.3,282.5-477.6
				c93.5-102.8,216.6-176.8,341.9-239.5"/>
			<path class="st6" d="M-1220.3,479.5c86.3-69.8,193.4-117.2,302.2-125.3c124.6-9.3,242.2,32,364.3,46.3
				c200.1,23.4,413.1-28.1,594.2-132.4C221.5,163.6,371.1,8.5,475.5-167C570.4-326.4,631.4-505.2,758-644.5
				c93.5-102.8,216.6-176.8,341.9-239.5"/>
			<path class="st6" d="M-1224.4,472.5c86.3-69.8,193.4-117.2,302.2-125.3c124.6-9.3,242.2,32,364.3,46.3
				c200.1,23.4,413.1-28.1,594.2-132.4S367,1.6,471.4-173.9c94.9-159.5,155.9-338.3,282.5-477.6c93.5-102.8,216.6-176.8,341.9-239.5
				"/>
			<path class="st6" d="M-1228.5,465.6c86.3-69.8,193.4-117.2,302.2-125.3c124.6-9.3,242.2,32,364.3,46.3
				C-362,410-148.9,358.4,32.2,254.1C213.4,149.8,362.9-5.3,467.3-180.8C562.2-340.3,623.2-519,749.8-658.3
				c93.5-102.8,216.6-176.8,341.9-239.5"/>
			<path class="st6" d="M-1232.6,458.7c86.3-69.8,193.4-117.2,302.2-125.3c124.6-9.3,242.2,32,364.3,46.3
				c200.1,23.4,413.1-28.1,594.2-132.4C209.3,142.9,358.8-12.2,463.2-187.7c94.9-159.5,155.9-338.3,282.5-477.6
				c93.5-102.8,216.6-176.8,341.9-239.5"/>
			<path class="st6" d="M-1236.6,451.8c86.3-69.8,193.4-117.2,302.2-125.3c124.6-9.3,242.2,32,364.3,46.3
				c200.1,23.4,413.1-28.1,594.2-132.4C205.2,136,354.7-19.1,459.1-194.6C554-354.1,615-532.8,741.6-672.2
				C835.1-775,958.2-849,1083.5-911.6"/>
			<path class="st6" d="M-1240.7,444.9c86.3-69.8,193.4-117.2,302.2-125.3c124.6-9.3,242.2,32,364.3,46.3
				c200.1,23.4,413.1-28.1,594.2-132.4C201.1,129.1,350.6-26,455-201.5C549.9-361,610.9-539.8,737.5-679.1
				c93.5-102.8,216.6-176.8,341.9-239.5"/>
			<path class="st6" d="M-1244.8,438c86.3-69.8,193.4-117.2,302.2-125.3c124.6-9.3,242.2,32,364.3,46.3
				c200.1,23.4,413.1-28.1,594.2-132.4C197,122.2,346.5-32.9,450.9-208.4C545.8-367.9,606.8-546.7,733.5-686
				c93.5-102.8,216.6-176.8,341.9-239.5"/>
			<path class="st6" d="M-1248.9,431.1c86.3-69.8,193.4-117.2,302.2-125.3c124.6-9.3,242.2,32,364.3,46.3
				c200.1,23.4,413.1-28.1,594.2-132.4C192.9,115.3,342.4-39.8,446.8-215.3c94.9-159.5,155.9-338.3,282.5-477.6
				c93.5-102.8,216.6-176.8,341.9-239.5"/>
			<path class="st6" d="M-1253,424.2c86.3-69.8,193.4-117.2,302.2-125.3c124.6-9.3,242.2,32,364.3,46.3
				C-386.5,368.5-173.5,317,7.6,212.7C188.8,108.4,338.3-46.7,442.7-222.2c94.9-159.5,155.9-338.3,282.5-477.6
				c93.5-102.8,216.6-176.8,341.9-239.5"/>
			<path class="st6" d="M-1257.1,417.3c86.3-69.8,193.4-117.2,302.2-125.3c124.6-9.3,242.2,32,364.3,46.3
				c200.1,23.4,413.1-28.1,594.2-132.4C184.7,101.5,334.2-53.6,438.6-229.1c94.9-159.5,155.9-338.3,282.5-477.6
				c93.5-102.8,216.6-176.8,341.9-239.5"/>
			<path class="st6" d="M-1261.2,410.4c86.3-69.8,193.4-117.2,302.2-125.3c124.6-9.3,242.2,32,364.3,46.3
				c200.1,23.4,413.1-28.1,594.2-132.4C180.6,94.6,330.1-60.6,434.5-236c94.9-159.5,155.9-338.3,282.5-477.6
				c93.5-102.8,216.6-176.8,341.9-239.5"/>
			<path class="st6" d="M-1265.3,403.5c86.3-69.8,193.4-117.2,302.2-125.3c124.6-9.3,242.2,32,364.3,46.3
				C-398.8,347.8-185.8,296.3-4.7,192C176.5,87.7,326-67.5,430.4-242.9C525.3-402.4,586.3-581.2,713-720.5
				c93.5-102.8,216.6-176.8,341.9-239.5"/>
			<path class="st6" d="M-1269.4,396.6c86.3-69.8,193.4-117.2,302.2-125.3c124.6-9.3,242.2,32,364.3,46.3
				c200.1,23.4,413.1-28.1,594.2-132.4C172.4,80.8,321.9-74.4,426.3-249.8c94.9-159.5,155.9-338.3,282.5-477.6
				c93.5-102.8,216.6-176.8,341.9-239.5"/>
			<path class="st6" d="M-1273.5,389.7c86.3-69.8,193.4-117.2,302.2-125.3c124.6-9.3,242.2,32,364.3,46.3
				C-407,334-194,282.5-12.9,178.2C168.3,73.9,317.8-81.3,422.2-256.8C517.1-416.2,578.1-595,704.8-734.3
				c93.5-102.8,216.6-176.8,341.9-239.5"/>
			<path class="st6" d="M-1277.6,382.8c86.3-69.8,193.4-117.2,302.2-125.3c124.6-9.3,242.2,32,364.3,46.3
				c200.1,23.4,413.1-28.1,594.2-132.4C164.2,66.9,313.7-88.2,418.1-263.7C513-423.1,574-601.9,700.7-741.2
				C794.1-844,917.2-918,1042.6-980.7"/>
			<path class="st6" d="M-1281.7,375.8c86.3-69.8,193.4-117.2,302.2-125.3c124.6-9.3,242.2,32,364.3,46.3
				c200.1,23.4,413.1-28.1,594.2-132.4C160.1,60,309.6-95.1,414-270.6C508.9-430,569.9-608.8,696.6-748.1
				C790-851,913.1-924.9,1038.5-987.6"/>
			<path class="st6" d="M-1285.8,368.9c86.3-69.8,193.4-117.2,302.2-125.3c124.6-9.3,242.2,32,364.3,46.3
				c200.1,23.4,413.1-28.1,594.2-132.4C156,53.1,305.5-102,409.9-277.5C504.8-437,565.8-615.7,692.5-755
				c93.5-102.8,216.6-176.8,341.9-239.5"/>
		</g>
		<g class="st3">
			<path class="st6" d="M2771.8,119c-89.4,65.9-198.5,108.4-307.5,111.6c-124.9,3.7-240.5-42.9-361.8-62.6
				c-198.8-32.4-413.9,9.5-599.6,105.5c-185.7,96-342,244.3-454.2,414.9c-102,155-171,330.9-303.8,464.4
				c-98,98.5-224.3,166.9-352.3,223.8"/>
			<path class="st6" d="M2775.6,126.1c-89.4,65.9-198.5,108.4-307.5,111.6c-124.9,3.7-240.5-42.9-361.8-62.6
				c-198.8-32.4-413.9,9.5-599.6,105.5c-185.7,96-342,244.3-454.2,414.9c-102,155-171,330.9-303.8,464.4
				c-98,98.5-224.3,166.9-352.3,223.8"/>
			<path class="st6" d="M2779.4,133.2c-89.4,65.9-198.5,108.4-307.5,111.6c-124.9,3.7-240.5-42.9-361.8-62.6
				c-198.8-32.4-413.9,9.5-599.6,105.5c-185.7,96-342,244.3-454.2,414.9c-102,155-171,330.9-303.8,464.4
				c-98,98.5-224.3,166.9-352.3,223.8"/>
			<path class="st6" d="M2783.2,140.3c-89.4,65.9-198.5,108.4-307.5,111.6c-124.9,3.7-240.5-42.9-361.8-62.6
				c-198.8-32.4-413.9,9.5-599.6,105.5c-185.7,96-342,244.3-454.2,414.9c-102,155-171,330.9-303.8,464.4
				c-98,98.5-224.3,166.9-352.3,223.8"/>
			<path class="st6" d="M2787,147.4c-89.4,65.9-198.5,108.4-307.5,111.6c-124.9,3.7-240.5-42.9-361.8-62.6
				c-198.8-32.4-413.9,9.5-599.6,105.5c-185.7,96-342,244.3-454.2,414.9c-102,155-171,330.9-303.8,464.4
				c-98,98.5-224.3,166.9-352.3,223.8"/>
			<path class="st6" d="M2790.8,154.5c-89.4,65.9-198.5,108.4-307.5,111.6c-124.9,3.7-240.5-42.9-361.8-62.6
				c-198.8-32.4-413.9,9.5-599.6,105.5c-185.7,96-342,244.3-454.2,414.9c-102,155-171,330.9-303.8,464.4
				c-98,98.5-224.3,166.9-352.3,223.8"/>
			<path class="st6" d="M2794.5,161.5c-89.4,65.9-198.5,108.4-307.5,111.6c-124.9,3.7-240.5-42.9-361.8-62.6
				c-198.8-32.4-413.9,9.5-599.6,105.5c-185.7,96-342,244.3-454.2,414.9c-102,155-171,330.9-303.8,464.4
				c-98,98.5-224.3,166.9-352.3,223.8"/>
			<path class="st6" d="M2798.3,168.6c-89.4,65.9-198.5,108.4-307.5,111.6c-124.9,3.7-240.5-42.9-361.8-62.6
				c-198.8-32.4-413.9,9.5-599.6,105.5c-185.7,96-342,244.3-454.2,414.9c-102,155-171,330.9-303.8,464.4
				c-98,98.5-224.3,166.9-352.3,223.8"/>
			<path class="st6" d="M2802.1,175.7c-89.4,65.9-198.5,108.4-307.5,111.6c-124.9,3.7-240.5-42.9-361.8-62.6
				c-198.8-32.4-413.9,9.5-599.6,105.5c-185.7,96-342,244.3-454.2,414.9c-102,155-171,330.9-303.8,464.4
				c-98,98.5-224.3,166.9-352.3,223.8"/>
			<path class="st6" d="M2805.9,182.8c-89.4,65.9-198.5,108.4-307.5,111.6c-124.9,3.7-240.5-42.9-361.8-62.6
				c-198.8-32.4-413.9,9.5-599.6,105.5c-185.7,96-342,244.3-454.2,414.9c-102,155-171,330.9-303.8,464.4
				c-98,98.5-224.3,166.9-352.3,223.8"/>
			<path class="st6" d="M2809.7,189.9c-89.4,65.9-198.5,108.4-307.5,111.6c-124.9,3.7-240.5-42.9-361.8-62.6
				c-198.8-32.4-413.9,9.5-599.6,105.5c-185.7,96-342,244.3-454.2,414.9c-102,155-171,330.9-303.8,464.4
				c-98,98.5-224.3,166.9-352.3,223.8"/>
			<path class="st6" d="M2813.5,197c-89.4,65.9-198.5,108.4-307.5,111.6c-124.9,3.7-240.5-42.9-361.8-62.6
				c-198.8-32.4-413.9,9.5-599.6,105.5c-185.7,96-342,244.3-454.2,414.9c-102,155-171,330.9-303.8,464.4
				c-98,98.5-224.3,166.9-352.3,223.8"/>
			<path class="st6" d="M2817.2,204.1c-89.4,65.9-198.5,108.4-307.5,111.6c-124.9,3.7-240.5-42.9-361.8-62.6
				c-198.8-32.4-413.9,9.5-599.6,105.5c-185.7,96-342,244.3-454.2,414.9c-102,155-171,330.9-303.8,464.4
				c-98,98.5-224.3,166.9-352.3,223.8"/>
			<path class="st6" d="M2821,211.1c-89.4,65.9-198.5,108.4-307.5,111.6c-124.9,3.7-240.5-42.9-361.8-62.6
				c-198.8-32.4-413.9,9.5-599.6,105.5c-185.7,96-342,244.3-454.2,414.9c-102,155-171,330.9-303.8,464.4
				c-98,98.5-224.3,166.9-352.3,223.8"/>
			<path class="st6" d="M2824.8,218.2c-89.4,65.9-198.5,108.4-307.5,111.6c-124.9,3.7-240.5-42.9-361.8-62.6
				c-198.8-32.4-413.9,9.5-599.6,105.5c-185.7,96-342,244.3-454.2,414.9c-102,155-171,330.9-303.8,464.4
				c-98,98.5-224.3,166.9-352.3,223.8"/>
			<path class="st6" d="M2828.6,225.3c-89.4,65.9-198.5,108.4-307.5,111.6c-124.9,3.7-240.5-42.9-361.8-62.6
				c-198.8-32.4-413.9,9.5-599.6,105.5c-185.7,96-342,244.3-454.2,414.9c-102,155-171,330.9-303.8,464.4
				c-98,98.5-224.3,166.9-352.3,223.8"/>
			<path class="st6" d="M2832.4,232.4c-89.4,65.9-198.5,108.4-307.5,111.6c-124.9,3.7-240.5-42.9-361.8-62.6
				c-198.8-32.4-413.9,9.5-599.6,105.5c-185.7,96-342,244.3-454.2,414.9c-102,155-171,330.9-303.8,464.4
				c-98,98.5-224.3,166.9-352.3,223.8"/>
			<path class="st6" d="M2836.1,239.5c-89.4,65.9-198.5,108.4-307.5,111.6c-124.9,3.7-240.5-42.9-361.8-62.6
				C1968,256,1752.9,297.9,1567.2,394c-185.7,96-342,244.3-454.2,414.9c-102,155-171,330.9-303.8,464.4
				c-98,98.5-224.3,166.9-352.3,223.8"/>
			<path class="st6" d="M2839.9,246.6c-89.4,65.9-198.5,108.4-307.5,111.6c-124.9,3.7-240.5-42.9-361.8-62.6
				c-198.8-32.4-413.9,9.5-599.6,105.5c-185.7,96-342,244.3-454.2,414.9c-102,155-171,330.9-303.8,464.4
				c-98,98.5-224.3,166.9-352.3,223.8"/>
			<path class="st6" d="M2843.7,253.6c-89.4,65.9-198.5,108.4-307.5,111.6c-124.9,3.7-240.5-42.9-361.8-62.6
				c-198.8-32.4-413.9,9.5-599.6,105.5c-185.7,96-342,244.3-454.2,414.9c-102,155-171,330.9-303.8,464.4
				c-98,98.5-224.3,166.9-352.3,223.8"/>
			<path class="st6" d="M2847.5,260.7c-89.4,65.9-198.5,108.4-307.5,111.6c-124.9,3.7-240.5-42.9-361.8-62.6
				c-198.8-32.4-413.9,9.5-599.6,105.5c-185.7,96-342,244.3-454.2,414.9c-102,155-171,330.9-303.8,464.4
				c-98,98.5-224.3,166.9-352.3,223.8"/>
			<path class="st6" d="M2851.3,267.8c-89.4,65.9-198.5,108.4-307.5,111.6c-124.9,3.7-240.5-42.9-361.8-62.6
				c-198.8-32.4-413.9,9.5-599.6,105.5c-185.7,96-342,244.3-454.2,414.9c-102,155-171,330.9-303.8,464.4
				c-98,98.5-224.3,166.9-352.3,223.8"/>
			<path class="st6" d="M2855.1,274.9c-89.4,65.9-198.5,108.4-307.5,111.6c-124.9,3.7-240.5-42.9-361.8-62.6
				c-198.8-32.4-413.9,9.5-599.6,105.5c-185.7,96-342,244.3-454.2,414.9c-102,155-171,330.9-303.8,464.4
				c-98,98.5-224.3,166.9-352.3,223.8"/>
			<path class="st6" d="M2858.8,282c-89.4,65.9-198.5,108.4-307.5,111.6c-124.9,3.7-240.5-42.9-361.8-62.6
				c-198.8-32.4-413.9,9.5-599.6,105.5c-185.7,96-342,244.3-454.2,414.9c-102,155-171,330.9-303.8,464.4
				c-98,98.5-224.3,166.9-352.3,223.8"/>
			<path class="st6" d="M2862.6,289.1c-89.4,65.9-198.5,108.4-307.5,111.6c-124.9,3.7-240.5-42.9-361.8-62.6
				c-198.8-32.4-413.9,9.5-599.6,105.5c-185.7,96-342,244.3-454.2,414.9c-102,155-171,330.9-303.8,464.4
				c-98,98.5-224.3,166.9-352.3,223.8"/>
			<path class="st6" d="M2866.4,296.2c-89.4,65.9-198.5,108.4-307.5,111.6c-124.9,3.7-240.5-42.9-361.8-62.6
				c-198.8-32.4-413.9,9.5-599.6,105.5c-185.7,96-342,244.3-454.2,414.9c-102,155-171,330.9-303.8,464.4
				c-98,98.5-224.3,166.9-352.3,223.8"/>
			<path class="st6" d="M2870.2,303.2c-89.4,65.9-198.5,108.4-307.5,111.6c-124.9,3.7-240.5-42.9-361.8-62.6
				c-198.8-32.4-413.9,9.5-599.6,105.5c-185.7,96-342,244.3-454.2,414.9c-102,155-171,330.9-303.8,464.4
				c-98,98.5-224.3,166.9-352.3,223.8"/>
			<path class="st6" d="M2874,310.3c-89.4,65.9-198.5,108.4-307.5,111.6c-124.9,3.7-240.5-42.9-361.8-62.6
				c-198.8-32.4-413.9,9.5-599.6,105.5c-185.7,96-342,244.3-454.2,414.9c-102,155-171,330.9-303.8,464.4
				c-98,98.5-224.3,166.9-352.3,223.8"/>
			<path class="st6" d="M2877.8,317.4c-89.4,65.9-198.5,108.4-307.5,111.6c-124.9,3.7-240.5-42.9-361.8-62.6
				c-198.8-32.4-413.9,9.5-599.6,105.5c-185.7,96-342,244.3-454.2,414.9c-102,155-171,330.9-303.8,464.4
				c-98,98.5-224.3,166.9-352.3,223.8"/>
		</g>
		
			<ellipse transform="matrix(0.7071 -0.7071 0.7071 0.7071 352.069 1019.3438)" class="st7" cx="1406.5" cy="84.7" rx="48.4" ry="48.4"/>
		
			<ellipse transform="matrix(0.1638 -0.9865 0.9865 0.1638 -377.5823 1019.157)" class="st7" cx="412.4" cy="732.3" rx="81.3" ry="81.3"/>
		
			<ellipse transform="matrix(0.1602 -0.9871 0.9871 0.1602 1511.772 1107.0751)" class="st7" cx="1406.5" cy="-334.9" rx="81.3" ry="81.3"/>
		
			<ellipse transform="matrix(0.7071 -0.7071 0.7071 0.7071 -239.0245 257.5187)" class="st7" cx="191.3" cy="417.3" rx="48.4" ry="48.4"/>
		
			<ellipse transform="matrix(0.7071 -0.7071 0.7071 0.7071 668.4957 1272.5968)" class="st7" cx="1870.4" cy="-170.6" rx="48.4" ry="48.4"/>
		<circle class="st8" cx="1025.1" cy="-110" r="175.1"/>
		<circle class="st9" cx="-302.8" cy="597.6" r="175.1"/>
		<circle class="st9" cx="1813.1" cy="-234" r="257.8"/>
		<circle class="st8" cx="371.8" cy="717.9" r="175.1"/>
		<linearGradient id="SVGID_6_" gradientUnits="userSpaceOnUse" x1="395.1967" y1="588.1106" x2="2080.3538" y2="588.1106">
			<stop  offset="0" style="stop-color:#ED43B1"/>
			<stop  offset="8.913213e-02" style="stop-color:#DF40B5"/>
			<stop  offset="0.5225" style="stop-color:#9D32C5"/>
			<stop  offset="0.8377" style="stop-color:#7529D0"/>
			<stop  offset="1" style="stop-color:#6526D4"/>
		</linearGradient>
		<path class="st10" d="M1792.8,125.7c-70.1,23.3-133.2,64.3-175.2,127.1c-39.4,59-53.8,126.5-98.7,183.8
			c-46.9,59.7-110,106.5-185.6,121c-96,18.4-194-0.3-290.6-2.4c-99.6-2.2-200.5,0.7-297.2,26.5c-99.5,26.5-196.7,80-258.6,164.2
			c-69.4,94.4-81.4,219.7-91.7,332.7h1684.6c0-175.5,0-351.1,0-526.6c0-150-9.8-304.2,0.5-453.4c-8,0.1-20.8-2.1-28.2,0.4
			c6.1,0,12.8,0.5,18.4,0.7c-34,5.9-68,3.1-102.3,1.9C1910.2,99.6,1849.3,106.9,1792.8,125.7z"/>
		<path class="st11" d="M1852.2,166c-39.6,13.7-76.4,34.2-107.3,63.2c-98.2,92.1-93.2,245.3-203.7,329.8
			c-95.8,73.2-226,77.2-340.8,63.4c-184.6-22.1-413,10.2-534.8,166.5C583,895.1,568.7,1038,558,1172.2h1561.2
			c0-184.7,0-369.5,0-554.2c0-157.9-9.1-320.1,0.5-477.1c-7.5,0.1-19.3-2.2-26.1,0.4c5.6,0,11.9,0.5,17.1,0.8
			c-31.5,6.2-63,3.2-94.8,2C1961.4,141.9,1904.4,148,1852.2,166z"/>
		<path class="st11" d="M1870.4,183.9c-39.6,13.7-76.4,34.2-107.3,63.2c-98.2,92.1-93.2,245.3-203.7,329.8
			c-95.8,73.2-226,77.2-340.8,63.4c-184.6-22.1-413,10.2-534.8,166.5C601.2,913,587,1055.9,576.2,1190.1h1561.2
			c0-184.7,0-369.5,0-554.2c0-157.9-9.1-320.1,0.5-477.1c-7.5,0.1-19.3-2.2-26.1,0.4c5.6,0,11.9,0.5,17.1,0.8
			c-31.5,6.2-63,3.2-94.8,2C1979.6,159.8,1922.6,165.9,1870.4,183.9z"/>
		<linearGradient id="SVGID_7_" gradientUnits="userSpaceOnUse" x1="-611.8268" y1="-23.2419" x2="857.4812" y2="-23.2419">
			<stop  offset="0" style="stop-color:#ED43B1"/>
			<stop  offset="8.913213e-02" style="stop-color:#DF40B5"/>
			<stop  offset="0.5225" style="stop-color:#9D32C5"/>
			<stop  offset="0.8377" style="stop-color:#7529D0"/>
			<stop  offset="1" style="stop-color:#6526D4"/>
		</linearGradient>
		<path class="st12" d="M-611.8,448.7c0.6-16.6,68.4-42.3,81.6-47.3c30.8-11.7,63.7-19.5,96.2-24.8c79.9-13.1,159.7-20.2,238.1-41.6
			c101-27.6,193.8-73.8,265-151.7C136.2,110,189.5,21,276.1-32c148.7-91,363.8-22.1,493.3-149.9c79.1-78,88.2-202.3,88.1-313.4
			H-579.3C-579.3-495.2-611.8,448.6-611.8,448.7z"/>
		<path class="st11" d="M-642,378.6c0.6-16.6,68.4-42.3,81.6-47.3c30.8-11.7,63.7-19.5,96.2-24.8c79.9-13.1,159.7-20.2,238.1-41.6
			c101-27.6,193.8-73.8,265-151.7C106,39.9,159.4-49.1,246-102.1c148.7-91,363.8-22.1,493.3-149.9c79.1-78,88.2-202.3,88.1-313.4
			H-609.4C-609.4-565.3-642,378.5-642,378.6z"/>
		<path class="st11" d="M-658.1,362.8c0.6-16.6,68.4-42.3,81.6-47.3c30.8-11.7,63.7-19.5,96.2-24.8c79.9-13.1,159.7-20.2,238.1-41.6
			c101-27.6,193.8-73.8,265-151.7C89.9,24.1,143.3-64.9,229.9-117.9c148.7-91,363.8-22.1,493.3-149.9c79.1-78,88.2-202.3,88.1-313.4
			H-625.6C-625.6-581.1-658.1,362.7-658.1,362.8z"/>
		<linearGradient id="SVGID_8_" gradientUnits="userSpaceOnUse" x1="1158.3929" y1="-174.4758" x2="1222.7988" y2="-174.4758">
			<stop  offset="0" style="stop-color:#ED43B1"/>
			<stop  offset="8.913213e-02" style="stop-color:#DF40B5"/>
			<stop  offset="0.5225" style="stop-color:#9D32C5"/>
			<stop  offset="0.8377" style="stop-color:#7529D0"/>
			<stop  offset="1" style="stop-color:#6526D4"/>
		</linearGradient>
		<circle class="st13" cx="1190.6" cy="-174.5" r="32.2"/>
		<linearGradient id="SVGID_9_" gradientUnits="userSpaceOnUse" x1="-168.5863" y1="530.0416" x2="-37.4688" y2="530.0416">
			<stop  offset="0" style="stop-color:#ED43B1"/>
			<stop  offset="8.913213e-02" style="stop-color:#DF40B5"/>
			<stop  offset="0.5225" style="stop-color:#9D32C5"/>
			<stop  offset="0.8377" style="stop-color:#7529D0"/>
			<stop  offset="1" style="stop-color:#6526D4"/>
		</linearGradient>
		<circle class="st14" cx="-103" cy="530" r="65.6"/>
		<linearGradient id="SVGID_10_" gradientUnits="userSpaceOnUse" x1="98.0005" y1="262.5752" x2="159.1613" y2="262.5752">
			<stop  offset="0" style="stop-color:#ED43B1"/>
			<stop  offset="8.913213e-02" style="stop-color:#DF40B5"/>
			<stop  offset="0.5225" style="stop-color:#9D32C5"/>
			<stop  offset="0.8377" style="stop-color:#7529D0"/>
			<stop  offset="1" style="stop-color:#6526D4"/>
		</linearGradient>
		<circle class="st15" cx="128.6" cy="262.6" r="30.6"/>
		<linearGradient id="SVGID_11_" gradientUnits="userSpaceOnUse" x1="-145.4513" y1="830.8273" x2="283.093" y2="830.8273">
			<stop  offset="0" style="stop-color:#ED43B1"/>
			<stop  offset="8.913213e-02" style="stop-color:#DF40B5"/>
			<stop  offset="0.5225" style="stop-color:#9D32C5"/>
			<stop  offset="0.8377" style="stop-color:#7529D0"/>
			<stop  offset="1" style="stop-color:#6526D4"/>
		</linearGradient>
		<circle class="st16" cx="68.8" cy="830.8" r="214.3"/>
		<linearGradient id="SVGID_12_" gradientUnits="userSpaceOnUse" x1="1436.2882" y1="-328.545" x2="1762.6696" y2="-328.545">
			<stop  offset="0" style="stop-color:#ED43B1"/>
			<stop  offset="8.913213e-02" style="stop-color:#DF40B5"/>
			<stop  offset="0.5225" style="stop-color:#9D32C5"/>
			<stop  offset="0.8377" style="stop-color:#7529D0"/>
			<stop  offset="1" style="stop-color:#6526D4"/>
		</linearGradient>
		<circle class="st17" cx="1599.5" cy="-328.5" r="163.2"/>
		<path class="st18" d="M-472.9,130.8c118.7,5.5,247.6-18.4,329.2-104.8C-99.3-21-73-82.1-33-132.9c34.8-44.1,80.9-80.5,134.4-97.6
			c34.6-11,71.2-13.8,107.1-19.5c53.2-8.6,105.9-24.3,151.5-52.9s83.9-71,100.7-122.1h-906.2L-472.9,130.8z"/>
		<path class="st18" d="M837.6,990.4c53.8-94.3,139.7-175.8,245.8-198.7c35.4-7.7,71.9-8.7,108.2-9.6c59.5-1.6,118.9-3.1,178.4-4.7
			c29.6-0.8,59.3-1.6,88.4-6.8c109.7-19.8,197.7-99.7,275.8-179.3c78.1-79.6,155.7-169,260.6-206.7v605.9L837.6,990.4z"/>
		
			<ellipse transform="matrix(0.7071 -0.7071 0.7071 0.7071 -590.5895 199.6514)" class="st7" cx="-54.3" cy="812.7" rx="48.4" ry="48.4"/>
	</g>
</g>
</svg>
