<svg width="850" height="850" viewBox="0 0 850 850" fill="none" xmlns="http://www.w3.org/2000/svg">
<g clip-path="url(#clip0_7049_1747)">
<path d="M777.39 0H72.61C32.5086 0 0 32.5086 0 72.61V777.39C0 817.491 32.5086 850 72.61 850H777.39C817.491 850 850 817.491 850 777.39V72.61C850 32.5086 817.491 0 777.39 0Z" fill="#26261A"/>
<path d="M181.511 226V681H371.511L396.511 469L371.511 226H181.511Z" fill="#D7D6CA"/>
<path d="M371.511 226H561.511V681H371.511V226Z" fill="#C9C9B9"/>
<path d="M346.903 169L315.94 190H260.011V286H371.511L409.511 231L371.511 169H346.903Z" fill="#BCBBA7"/>
<path d="M483.011 190H425.34L396.377 169H371.511V286H483.011V190Z" fill="#969686"/>
<path d="M231.511 387H351.511V417H231.511V387Z" fill="#969686"/>
<path d="M231.511 447H309.511V477H231.511V447Z" fill="#969686"/>
<path d="M231.511 507H330.511V537H231.511V507Z" fill="#969686"/>
<path d="M231.511 567H351.511V597H231.511V567Z" fill="#969686"/>
<path d="M520.369 596.495L591.691 667.817C600.463 676.589 611.987 680.976 623.51 680.976C635.033 680.976 646.557 676.589 655.329 667.817L611.511 605.998L552.134 564.621C541.551 575.252 530.967 585.881 520.369 596.495Z" fill="#BCBBA7"/>
<path d="M655.33 604.179L583.885 532.734C573.295 543.357 562.715 553.99 552.133 564.621L655.33 667.817C672.876 650.272 672.876 621.724 655.33 604.179Z" fill="#AFAE99"/>
<path d="M425.634 553.337C478.478 607.554 527.156 581.218 580 527L552.716 434.664L458 399C405.155 453.218 372.789 499.121 425.634 553.337Z" fill="#D7D6CA"/>
<path d="M483.901 578.829C461.881 578.829 441.179 570.254 425.609 554.683C410.039 539.112 401.463 518.411 401.463 496.391C401.463 474.371 410.038 453.669 425.609 438.099L420.511 424.001L404.397 416.887C360.557 460.726 360.557 532.058 404.397 575.897C426.317 597.817 455.109 608.777 483.902 608.777C512.695 608.777 541.487 597.817 563.407 575.897L561.511 558.001L542.194 554.684C526.623 570.254 505.921 578.829 483.901 578.829Z" fill="#BCBBA7"/>
<path d="M563.406 416.888C519.566 373.048 448.236 373.048 404.396 416.888L425.609 438.101C441.179 422.531 461.881 413.955 483.901 413.955C505.921 413.955 526.623 422.53 542.193 438.101C557.763 453.672 566.339 474.373 566.339 496.393C566.339 518.413 557.764 539.115 542.193 554.685L563.406 575.898C607.246 532.059 607.246 460.727 563.406 416.888Z" fill="#BCBBA7"/>
<path d="M479.795 492.285L470.151 501.929L454.758 486.535L433.545 507.748L470.151 544.355L501.008 513.498L500.511 496.001L479.795 492.285Z" fill="#BCBBA7"/>
<path d="M479.729 492.285L512.974 459.04L534.184 480.25L500.939 513.495L479.729 492.285Z" fill="#BCBBA7"/>
<path d="M231.511 327V357H371.511L385.511 343L371.511 327H231.511Z" fill="#969686"/>
<path d="M371.511 327H420.511V357H371.511V327Z" fill="#BCBBA7"/>
</g>
<defs>
<clipPath id="clip0_7049_1747">
<rect width="850" height="850" rx="35" fill="white"/>
</clipPath>
</defs>
</svg>
