<svg width="512" height="512" viewBox="0 0 512 512" fill="none" xmlns="http://www.w3.org/2000/svg">
<path d="M12.5107 57V512H202.511L227.511 300L202.511 57H12.5107Z" fill="#ECEDB4"/>
<path d="M202.511 57H392.511V512H202.511V57Z" fill="#BBC14D"/>
<path d="M177.903 0L146.94 21H91.0107V117H202.511L240.511 62L202.511 0H177.903Z" fill="#CFD380"/>
<path d="M314.011 21H256.34L227.377 0H202.511V117H314.011V21Z" fill="#9BA22F"/>
<path d="M62.5107 218H182.511V248H62.5107V218Z" fill="#9BA12F"/>
<path d="M62.5107 278H140.511V308H62.5107V278Z" fill="#9BA12F"/>
<path d="M62.5107 338H161.511V368H62.5107V338Z" fill="#9BA12F"/>
<path d="M62.5107 398H182.511V428H62.5107V398Z" fill="#9BA12F"/>
<path d="M351.369 427.495L422.691 498.817C431.463 507.589 442.987 511.976 454.51 511.976C466.033 511.976 477.557 507.589 486.329 498.817L442.511 436.998L383.134 395.621C372.551 406.252 361.967 416.881 351.369 427.495Z" fill="#ECEDB4"/>
<path d="M486.33 435.179L414.885 363.734C404.295 374.357 393.715 384.99 383.133 395.621L486.33 498.817C503.876 481.272 503.876 452.724 486.33 435.179Z" fill="#CFD380"/>
<path d="M256.634 384.337C309.478 438.554 358.156 412.218 411 358L383.716 265.664L289 230C236.155 284.218 203.789 330.121 256.634 384.337Z" fill="#ECEDB4"/>
<path d="M314.901 409.829C292.881 409.829 272.179 401.254 256.609 385.683C241.039 370.112 232.463 349.411 232.463 327.391C232.463 305.371 241.038 284.669 256.609 269.099L251.511 255.001L235.397 247.887C191.557 291.726 191.557 363.058 235.397 406.897C257.317 428.817 286.109 439.777 314.902 439.777C343.695 439.777 372.487 428.817 394.407 406.897L392.511 389.001L373.194 385.684C357.623 401.254 336.921 409.829 314.901 409.829Z" fill="#B5BB41"/>
<path d="M394.406 247.888C350.566 204.048 279.236 204.048 235.396 247.888L256.609 269.101C272.179 253.531 292.881 244.955 314.901 244.955C336.921 244.955 357.623 253.53 373.193 269.101C388.763 284.672 397.339 305.373 397.339 327.393C397.339 349.413 388.764 370.115 373.193 385.685L394.406 406.898C438.246 363.059 438.246 291.727 394.406 247.888Z" fill="#B5BB41"/>
<path d="M310.795 323.285L301.151 332.929L285.758 317.535L264.545 338.748L301.151 375.355L332.008 344.498L331.511 327.001L310.795 323.285Z" fill="#BBC14D"/>
<path d="M310.729 323.285L343.974 290.04L365.184 311.25L331.939 344.495L310.729 323.285Z" fill="#BBC14D"/>
<path d="M62.5107 158V188H202.511L216.511 174L202.511 158H62.5107Z" fill="#9BA12F"/>
<path d="M202.511 158H251.511V188H202.511V158Z" fill="#9BA12F"/>
</svg>
