<svg height="512" viewBox="0 0 68 68" width="512" xmlns="http://www.w3.org/2000/svg"><path d="m201.997496 423.16081.730868-3.897964c.35473-1.891892 2.006628-3.262846 3.931489-3.262846h6.680294c1.924861 0 3.576759 1.370954 3.931489 3.262846l.730868 3.897964c1.846678.549859 3.626843 1.288947 5.315353 2.203549l3.27477-2.240632c1.588601-1.086938 3.726081-.88828 5.087163.472802l4.723681 4.723681c1.361082 1.361082 1.55974 3.498562.472802 5.087163l-2.240632 3.27477c.914602 1.68851 1.65369 3.468675 2.203549 5.315353l3.897964.730868c1.891892.35473 3.262846 2.006628 3.262846 3.931489v6.680294c0 1.924861-1.370954 3.576759-3.262846 3.931489l-3.897964.730868c-.549859 1.846678-1.288947 3.626843-2.203549 5.315353l2.240632 3.27477c1.086938 1.588601.88828 3.726081-.472802 5.087163l-4.723681 4.723681c-1.361082 1.361082-3.498562 1.55974-5.087163.472802l-3.27477-2.240632c-1.68851.914602-3.468675 1.65369-5.315353 2.203549l-.730868 3.897964c-.35473 1.891892-2.006628 3.262846-3.931489 3.262846h-6.680294c-1.924861 0-3.576759-1.370954-3.931489-3.262846l-.730868-3.897964c-1.846678-.549859-3.626843-1.288947-5.315353-2.203549l-3.27477 2.240632c-1.588601 1.086938-3.726081.88828-5.087163-.472802l-4.723681-4.723681c-1.361082-1.361082-1.55974-3.498562-.472802-5.087163l2.240632-3.27477c-.914602-1.68851-1.65369-3.468675-2.203549-5.315353l-3.897964-.730868c-1.891892-.35473-3.262846-2.006628-3.262846-3.931489v-6.680294c0-1.924861 1.370954-3.576759 3.262846-3.931489l3.897964-.730868c.549859-1.846678 1.288947-3.626843 2.203549-5.315353l-2.240632-3.27477c-1.086938-1.588601-.88828-3.726081.472802-5.087163l4.723681-4.723681c1.361082-1.361082 3.498562-1.55974 5.087163-.472802l3.27477 2.240632c1.68851-.914602 3.468675-1.65369 5.315353-2.203549zm-4.377427 6.274084c-.670763.404731-1.516069.380573-2.162623-.061806l-4.308809-2.948132-4.723681 4.723681 2.948132 4.308809c.442379.646554.466537 1.49186.061806 2.162623-1.233927 2.044995-2.156689 4.264234-2.733031 6.592856-.188193.760368-.802949 1.340881-1.572843 1.485236l-5.12902.961692v6.680294l5.12902.961692c.769894.144355 1.38465.724868 1.572843 1.485236.576342 2.328622 1.499104 4.547861 2.733031 6.592856.404731.670763.380573 1.516069-.061806 2.162623l-2.948132 4.308809 4.723681 4.723681 4.308809-2.948132c.646554-.442379 1.49186-.466537 2.162623-.061806 2.044995 1.233927 4.264234 2.156689 6.592856 2.733031.760368.188193 1.340881.802949 1.485236 1.572843l.961692 5.12902h6.680294l.961692-5.12902c.144355-.769894.724868-1.38465 1.485236-1.572843 2.328622-.576342 4.547861-1.499104 6.592856-2.733031.670763-.404731 1.516069-.380573 2.162623.061806l4.308809 2.948132 4.723681-4.723681-2.948132-4.308809c-.442379-.646554-.466537-1.49186-.061806-2.162623 1.233927-2.044995 2.156689-4.264234 2.733031-6.592856.188193-.760368.802949-1.340881 1.572843-1.485236l5.12902-.961692v-6.680294l-5.12902-.961692c-.769894-.144355-1.38465-.724868-1.572843-1.485236-.576342-2.328622-1.499104-4.547861-2.733031-6.592856-.404731-.670763-.380573-1.516069.061806-2.162623l2.948132-4.308809-4.723681-4.723681-4.308809 2.948132c-.646554.442379-1.49186.466537-2.162623.061806-2.044995-1.233927-4.264234-2.156689-6.592856-2.733031-.760368-.188193-1.340881-.802949-1.485236-1.572843l-.961692-5.12902h-6.680294l-.961692 5.12902c-.144355.769894-.724868 1.38465-1.485236 1.572843-2.328622.576342-4.547861 1.499104-6.592856 2.733031zm12.379931 34.565106c-7.731986 0-14-6.268014-14-14s6.268014-14 14-14 14 6.268014 14 14-6.268014 14-14 14zm0-4c5.522847 0 10-4.477153 10-10s-4.477153-10-10-10-10 4.477153-10 10 4.477153 10 10 10z" transform="translate(-176 -416)"/></svg>