<?xml version="1.0" encoding="UTF-8"?>
<svg xmlns="http://www.w3.org/2000/svg" viewBox="0 0 850 850">

  <!-- Dark rounded background matching user icon style -->
  <rect width="850" height="850" rx="72.61" ry="72.61" fill="#26261A" style="fill: #26261A !important;"/>

  <!-- Scale and center the 512x512 airplane into the 850x850 canvas -->
  <g transform="translate(425,425) scale(1.35) translate(-256,-256)">
    <!-- Main body / wings - mid tone -->
    <path fill="#969686" d="M0 0 C5.60786485 5.29242245 7.96290315 9.85702911 8.25 17.64453125 C7.92308614 28.74702894 2.39452219 34.56029392 -5.1875 42.26953125 C-5.77015625 42.86507812 -6.3528125 43.460625 -6.953125 44.07421875 C-18.43823917 54.88678119 -33.47129773 62.24048952 -47.125 69.86328125 C-53.37836173 73.35995946 -59.56787945 76.96124857 -65.75 80.58203125 C-67.74346662 81.74743511 -69.73695543 82.91280102 -71.73046875 84.078125 C-75.64788135 86.36908342 -75.64788135 86.36908342 -79.56494141 88.66064453 C-81.56153574 89.82648337 -83.56127789 90.98666032 -85.5625 92.14453125 C-86.62210937 92.76070313 -87.68171875 93.376875 -88.7734375 94.01171875 C-91.1875 95.26953125 -91.1875 95.26953125 -93.1875 95.26953125 C-93.31799744 96.29541351 -93.44849487 97.32129578 -93.58294678 98.37826538 C-94.12765915 101.88435977 -94.88160807 105.12454206 -95.86035156 108.52978516 C-96.38215752 110.35808868 -96.38215752 110.35808868 -96.914505 112.22332764 C-97.30230107 113.56427202 -97.69017735 114.90519321 -98.078125 116.24609375 C-98.49093605 117.68585904 -98.90333299 119.12574312 -99.31535339 120.56573486 C-100.44614201 124.51332504 -101.58270165 128.4592331 -102.72028732 132.40486908 C-103.93139735 136.60899837 -105.13742777 140.81458445 -106.34399414 145.02001953 C-108.18191586 151.42402414 -110.02187236 157.8274393 -111.86385822 164.23027611 C-115.54390869 177.02258173 -119.21143552 189.81845267 -122.87598038 202.61520767 C-125.15069301 210.55751762 -127.42727802 218.49929106 -129.70373535 226.44110107 C-130.97584897 230.87913606 -132.24736797 235.31734075 -133.51843262 239.75567627 C-135.03585058 245.05366221 -136.55526605 250.3510718 -138.07604408 255.64809418 C-138.63355098 257.59104733 -139.19043819 259.53417843 -139.74660301 261.47751617 C-141.0233565 265.93804324 -142.31064563 270.39475411 -143.62228394 274.84515381 C-144.75886738 278.71907361 -145.80328008 282.6087289 -146.81643677 286.5166626 C-147.38249839 288.5934158 -147.94896611 290.67005836 -148.51586914 292.74658203 C-148.86731444 294.19147412 -148.86731444 294.19147412 -149.22585964 295.66555595 C-151.01205497 302.02746219 -153.28875883 304.83739806 -159.03168774 308.13960552 C-159.74310578 308.51248101 -160.45452383 308.8853565 -161.1875 309.26953125 C-162.78996582 310.21928833 -162.78996582 310.21928833 -164.42480469 311.18823242 C-165.39321289 311.72424072 -166.36162109 312.26024902 -167.359375 312.8125 C-168.43574219 313.41126953 -169.51210938 314.01003906 -170.62109375 314.62695312 C-171.71550781 315.23087891 -172.80992187 315.83480469 -173.9375 316.45703125 C-176.14097723 317.67905259 -178.34411502 318.90168624 -180.546875 320.125 C-181.51077148 320.65762451 -182.47466797 321.19024902 -183.46777344 321.73901367 C-185.30700899 322.7740377 -187.12295743 323.85138711 -188.91503906 324.96606445 C-191.1875 326.26953125 -191.1875 326.26953125 -193.1875 326.26953125 C-193.41350458 292.49531939 -192.82089587 258.72934335 -192.29673576 224.96055198 C-192.17349378 217.01313549 -192.05363819 209.06566887 -191.93398476 201.11819768 C-191.6887646 184.83525282 -191.43954983 168.55237186 -191.1875 152.26953125 C-192.11843475 152.74949051 -193.04936951 153.22944977 -194.0085144 153.72395325 C-197.52739652 155.53806749 -201.04649094 157.35176957 -204.56564331 159.1653595 C-206.07656375 159.94407944 -207.58742979 160.72290495 -209.09823608 161.50184631 C-345.54520351 231.84961337 -345.54520351 231.84961337 -383.96875 222.1796875 C-388.35060342 220.38220185 -391.65919411 217.36195294 -395.1875 214.26953125 C-396.97545955 212.80665525 -398.7673015 211.34851471 -400.5625 209.89453125 C-402.43809376 208.353587 -404.31309863 206.81192569 -406.1875 205.26953125 C-412.50795518 200.08694924 -418.84229531 194.9217602 -425.1875 189.76953125 C-432.38745732 183.92325356 -439.56892597 178.05478458 -446.7421875 172.17578125 C-447.61101562 171.46421875 -448.47984375 170.75265625 -449.375 170.01953125 C-450.7053125 168.92318359 -450.7053125 168.92318359 -452.0625 167.8046875 C-454.49218406 165.81639605 -456.96024731 163.88176487 -459.4375 161.953125 C-460.53735229 161.0863916 -460.53735229 161.0863916 -461.65942383 160.20214844 C-463.11765233 159.05356251 -464.58350304 157.91457742 -466.05737305 156.78613281 C-466.72293213 156.25858398 -467.38849121 155.73103516 -468.07421875 155.1875 C-468.67451904 154.72110107 -469.27481934 154.25470215 -469.89331055 153.77416992 C-471.1875 152.26953125 -471.1875 152.26953125 -471.1875 148.26953125 C-469.38991232 146.43731539 -467.71983069 144.9731645 -465.6875 143.44140625 C-464.82162766 142.78205078 -464.82162766 142.78205078 -463.93826294 142.109375 C-445.16874305 128.20403972 -445.16874305 128.20403972 -436.5703125 129.20703125 C-431.5262858 130.61967797 -426.92891234 133.03323117 -422.26660156 135.38623047 C-414.13967245 139.29760483 -405.40797364 141.95859806 -396.91107178 144.9432373 C-391.73005686 146.77353885 -386.56817065 148.65571859 -381.40625 150.5390625 C-380.49563812 150.87019547 -379.58502625 151.20132843 -378.64682007 151.54249573 C-377.78303741 151.85694138 -376.91925476 152.17138702 -376.02929688 152.49536133 C-375.21088821 152.79279236 -374.39247955 153.09022339 -373.54927063 153.39666748 C-371.9917895 153.97228174 -370.43928913 154.56158247 -368.89250183 155.16534424 C-364.01139098 157.06884461 -361.3080204 157.76052231 -356.1875 156.26953125 C-352.45153695 154.43876357 -348.92471145 152.31051098 -345.375 150.14453125 C-343.22055793 148.85852718 -341.06559206 147.57340031 -338.91015625 146.2890625 C-337.80043457 145.62342285 -336.69071289 144.9577832 -335.54736328 144.27197266 C-330.16941541 141.06677513 -324.74099366 137.95058883 -319.3125 134.83203125 C-317.12747497 133.57314089 -314.9425798 132.3140251 -312.7578125 131.0546875 C-311.67274414 130.42965332 -310.58767578 129.80461914 -309.46972656 129.16064453 C-304.04090062 126.03272979 -298.61427993 122.90099394 -293.1875 119.76953125 C-286.66516725 116.00589206 -280.14236238 112.24308503 -273.6171875 108.484375 C-263.16543801 102.46205796 -252.72450452 96.42283788 -242.3125 90.33203125 C-233.04250223 84.91031947 -223.72918248 79.5674821 -214.39904785 74.25030518 C-205.2746716 69.04907996 -196.18617226 63.78925247 -187.12060547 58.48608398 C-176.59665375 52.33186383 -166.03369863 46.24583129 -155.46972656 40.16064453 C-151.12291749 37.65615308 -146.77757128 35.1491306 -142.43237305 32.6418457 C-140.26989459 31.3940805 -138.107297 30.14652175 -135.94458008 28.89916992 C-130.48858189 25.75231533 -125.03400542 22.60304051 -119.58203125 19.44921875 C-113.12234118 15.71367281 -106.65760355 11.98701173 -100.1875 8.26953125 C-99.12176758 7.65706543 -98.05603516 7.04459961 -96.95800781 6.41357422 C-93.85003831 4.63102046 -90.7382594 2.8553268 -87.625 1.08203125 C-86.24308472 0.28901611 -86.24308472 0.28901611 -84.83325195 -0.52001953 C-60.01314218 -14.60296765 -23.96996155 -18.96195172 0 0 Z" transform="translate(488.1875,98.73046875)"/>
    <!-- Secondary shape (exhaust/detail) - lighter tone -->
    <path fill="#BCBBA7" d="M0 0 C1.73855759 0.43431084 1.73855759 0.43431084 3.51223755 0.87739563 C6.66215555 1.66573539 9.81042545 2.46028144 12.95805216 3.25771022 C16.26818519 4.09469595 19.58035351 4.92355016 22.89230347 5.75331116 C29.1595846 7.32477797 35.42503396 8.90342271 41.68984115 10.48471981 C48.79463837 12.27767135 55.90143346 14.06263828 63.00841546 15.84690654 C75.16599077 18.89930837 87.3220771 21.95756519 99.47644043 25.0227356 C104.97485388 26.40918413 110.47427227 27.79136335 115.97607422 29.16430664 C115.97607422 29.82430664 115.97607422 30.48430664 115.97607422 31.16430664 C115.26402832 31.57044189 114.55198242 31.97657715 113.81835938 32.39501953 C100.73406051 39.85995416 87.65586077 47.33535438 74.60107422 54.85180664 C73.54259277 55.45831055 72.48411133 56.06481445 71.39355469 56.68969727 C66.09982105 59.73422499 60.85638687 62.83605505 55.67138672 66.06274414 C54.66897949 66.67931885 53.66657227 67.29589355 52.63378906 67.93115234 C50.74564632 69.09717164 48.86759968 70.27976026 47.00195312 71.48144531 C40.84992413 75.26189963 40.84992413 75.26189963 36.93310547 74.82446289 C35.95728516 74.27661133 34.98146484 73.72875977 33.97607422 73.16430664 C33.00661865 72.64284058 33.00661865 72.64284058 32.01757812 72.11083984 C29.62067074 70.79969057 27.26838977 69.42458529 24.91357422 68.03930664 C16.2842672 63.03566194 7.59248709 58.1561985 -1.14892578 53.35180664 C-3.00474395 52.33093808 -4.86046666 51.30989613 -6.71618652 50.28884888 C-7.96101139 49.60392651 -9.20588449 48.9190918 -10.45080566 48.23434448 C-17.04781232 44.60422103 -23.63048 40.94844495 -30.21142578 37.28930664 C-31.87516235 36.36432373 -31.87516235 36.36432373 -33.57250977 35.4206543 C-35.71133632 34.23133298 -37.85009218 33.04188451 -39.98876953 31.85229492 C-44.56209654 29.30886 -49.13675685 26.76782687 -53.71142578 24.22680664 C-55.15283929 23.42603845 -56.59424643 22.62525881 -58.03564453 21.82446289 C-59.02177734 21.27661133 -60.00791016 20.72875977 -61.02392578 20.16430664 C-57.93849407 16.776749 -54.73772442 14.65820761 -50.75439453 12.41430664 C-50.15516678 12.07431641 -49.55593903 11.73432617 -48.93855286 11.3840332 C-47.0329154 10.30462885 -45.12234598 9.23432538 -43.21142578 8.16430664 C-41.93960034 7.44616033 -40.66811261 6.72741559 -39.39697266 6.00805664 C-37.04184519 4.67619224 -34.6845224 3.34855932 -32.32543945 2.02368164 C-29.24845118 0.36862038 -29.24845118 0.36862038 -27.4034729 -0.99389648 C-19.27634924 -6.53099569 -8.79763049 -2.24360127 0 0 Z" transform="translate(186.02392578125,111.835693359375)"/>
  </g>
</svg>
