<?xml version="1.0" encoding="UTF-8"?>
<svg id="Layer_2" data-name="Layer 2" xmlns="http://www.w3.org/2000/svg" viewBox="0 0 850 850">
  <defs>
    <style>
      .cls-1 {
        fill: #fff;
      }

      .cls-2 {
        fill: #bbc14d;
      }

      .cls-3 {
        fill: #9ea700;
      }

      .cls-4 {
        fill: #cfd380;
      }
    </style>
  </defs>
  <g id="Layer_1-2" data-name="Layer 1">
    <g>
      <rect class="cls-1" width="850" height="850" rx="72.61" ry="72.61"/>
      <g>
        <path class="cls-3" d="m608.21,335.87l-41.16-25.7-24.67,117.2,104.96,117.2,24.38,15.22c6.54,4.08,14.11-3.13,11.45-10.91l-71.39-208.41c-.67-1.95-1.93-3.57-3.57-4.59h0Z"/>
        <path class="cls-2" d="m517.87,279.47l-44.16,104.66,84.31,104.66,89.32,55.77-80.29-234.39-49.17-30.7Z"/>
        <path class="cls-4" d="m517.87,279.47l-92.87,57.98-48.17,116.54,48.17,116.54c1.36,0,2.72-.38,3.94-1.15l129.08-80.59-40.15-209.33Z"/>
        <path class="cls-3" d="m332.13,279.47l-84.28,104.66,44.14,104.66,129.08,80.59c1.22.76,2.58,1.15,3.94,1.15v-233.08l-92.87-57.98Z"/>
        <path class="cls-2" d="m332.13,279.47l-40.15,209.33-113.7,70.99c-6.54,4.08-14.11-3.13-11.45-10.91l71.39-208.41c.67-1.95,1.93-3.57,3.57-4.59l90.34-56.4Z"/>
      </g>
    </g>
  </g>
</svg>