<svg width="18" height="18" viewBox="0 0 18 18" fill="none" xmlns="http://www.w3.org/2000/svg">
<path d="M11.9883 4.5V5H12.4883H15.7383V5.5H14.7383H14.2383V6V15.75C14.2383 15.8881 14.1264 16 13.9883 16H3.48828C3.35021 16 3.23828 15.8881 3.23828 15.75V6V5.5H2.73828H1.73828V5H4.98828H5.48828V4.5V2.25C5.48828 2.11193 5.60021 2 5.73828 2H11.7383C11.8764 2 11.9883 2.11193 11.9883 2.25V4.5ZM13.7383 6V5.5H13.2383H4.23828H3.73828V6V15V15.5H4.23828H13.2383H13.7383V15V6ZM6.48828 2.5H5.98828V3V4.5V5H6.48828H10.9883H11.4883V4.5V3V2.5H10.9883H6.48828Z" stroke="black"/>
</svg>
