<svg width="18" height="18" viewBox="0 0 18 18" fill="none" xmlns="http://www.w3.org/2000/svg">
<path d="M8.739 2.25C12.7831 2.25 16.1476 5.15982 16.8529 9C16.1476 12.8401 12.7831 15.75 8.739 15.75C4.69486 15.75 1.33038 12.8401 0.625 9C1.33038 5.15982 4.69486 2.25 8.739 2.25ZM8.739 14.25C11.9157 14.25 14.634 12.039 15.322 9C14.634 5.96102 11.9157 3.75 8.739 3.75C5.56222 3.75 2.84394 5.96102 2.15586 9C2.84394 12.039 5.56222 14.25 8.739 14.25ZM8.739 12.375C6.87501 12.375 5.36397 10.864 5.36397 9C5.36397 7.13604 6.87501 5.625 8.739 5.625C10.6029 5.625 12.114 7.13604 12.114 9C12.114 10.864 10.6029 12.375 8.739 12.375ZM8.739 10.875C9.77452 10.875 10.614 10.0355 10.614 9C10.614 7.96448 9.77452 7.125 8.739 7.125C7.70347 7.125 6.86397 7.96448 6.86397 9C6.86397 10.0355 7.70347 10.875 8.739 10.875Z" fill="black"/>
</svg>
