<svg width="850" height="850" viewBox="0 0 850 850" fill="none" xmlns="http://www.w3.org/2000/svg">
<path d="M777.39 0H72.61C32.5086 0 0 32.5086 0 72.61V777.39C0 817.491 32.5086 850 72.61 850H777.39C817.491 850 850 817.491 850 777.39V72.61C850 32.5086 817.491 0 777.39 0Z" fill="#26261A"/>
<path d="M316.784 387.007C314.684 387.007 313.141 387.007 311.607 387.007C282.756 387.007 253.897 387.007 225.047 387.007C220.413 387.007 218.093 389.284 218.087 393.838C218.087 466.119 218.087 538.399 218.087 610.671C218.087 616.747 218.293 616.97 224.301 616.97C270.148 616.97 315.995 616.97 361.842 616.97C448.976 616.97 536.11 616.97 623.244 616.97C624.53 616.97 625.824 616.893 627.101 616.987C630.461 617.219 631.626 615.582 631.626 612.359C631.584 538.939 631.566 465.519 631.644 392.099C631.644 388.147 630.195 386.922 626.338 386.939C596.631 387.059 566.923 387.007 537.216 387.033C535.861 387.033 534.507 387.213 532.896 387.324C532.896 405.204 532.896 422.612 532.896 440.02C532.896 448.822 529.913 451.779 520.999 451.754C512.145 451.728 503.291 451.608 494.437 451.616C444.442 451.651 394.447 451.711 344.46 451.754C338.314 451.754 332.177 451.865 326.032 451.728C320.375 451.599 317.092 448.239 316.818 442.582C316.732 440.868 316.784 439.154 316.784 437.44C316.784 420.889 316.784 404.338 316.784 387.016V387.007ZM523.125 442.137V238.83C520.665 239.001 518.565 239.138 516.465 239.301C502.94 240.347 489.432 241.504 475.898 242.404C468.767 242.884 464.884 238.838 465.321 231.75C465.621 226.762 466.127 221.791 466.512 216.811C467.318 206.32 468.107 195.829 468.921 185.055H326.658V442.145H523.142L523.125 442.137ZM316.518 362.443C314.598 362.443 312.935 362.443 311.264 362.443C281.976 362.443 252.697 362.443 223.41 362.434C204.914 362.434 193.523 373.833 193.514 392.381C193.514 473.524 193.514 554.658 193.514 635.801C193.514 654.117 204.828 665.44 223.204 665.457C253.34 665.491 283.476 665.483 313.612 665.466C361.465 665.448 409.326 665.38 457.179 665.38C513.748 665.38 570.317 665.449 626.887 665.449C644.672 665.449 656.148 653.98 656.157 636.23C656.183 554.667 656.183 473.096 656.157 391.533C656.157 374.082 644.517 362.451 627.144 362.434C597.291 362.4 567.437 362.434 537.593 362.451C536.101 362.451 534.601 362.605 533.161 362.682V377.322C535.09 377.322 536.77 377.322 538.45 377.322C567.437 377.322 596.433 377.331 625.421 377.331C636.941 377.331 641.278 381.599 641.278 393.007C641.278 461.859 641.278 530.719 641.278 599.571C641.278 604.139 641.363 608.716 641.278 613.285C641.115 621.504 636.358 626.296 628.224 626.536C626.938 626.57 625.652 626.536 624.367 626.536C532.802 626.493 441.236 626.424 349.671 626.407C307.39 626.407 265.108 626.501 222.827 626.527C213.039 626.527 208.419 621.873 208.419 612.05C208.402 538.767 208.411 465.484 208.419 392.201C208.419 381.933 213.065 377.339 223.376 377.331C252.517 377.313 281.659 377.331 310.801 377.322C312.627 377.322 314.444 377.322 316.535 377.322V362.443H316.518ZM478.118 191.209C477.038 205.463 476.009 219.005 474.947 232.899C489.226 231.767 502.657 230.704 515.994 229.65C503.411 216.879 491.06 204.34 478.118 191.209Z" fill="#AAAA96"/>
<path d="M316.782 387.007C316.782 404.329 316.782 420.88 316.782 437.431C316.782 439.145 316.731 440.859 316.817 442.574C317.091 448.23 320.365 451.59 326.031 451.719C332.167 451.856 338.313 451.753 344.458 451.745C394.454 451.693 444.449 451.642 494.436 451.608C503.29 451.608 512.144 451.719 520.998 451.745C529.912 451.77 532.886 448.813 532.894 440.011C532.894 422.603 532.894 405.195 532.894 387.316C534.506 387.204 535.86 387.024 537.214 387.024C566.922 387.007 596.629 387.05 626.337 386.93C630.194 386.913 631.651 388.147 631.642 392.09C631.574 465.51 631.582 538.93 631.625 612.35C631.625 615.581 630.459 617.21 627.1 616.979C625.822 616.893 624.528 616.961 623.243 616.961C536.109 616.961 448.975 616.961 361.841 616.961C315.994 616.961 270.147 616.961 224.3 616.961C218.292 616.961 218.086 616.739 218.086 610.662C218.086 538.381 218.086 466.101 218.086 393.83C218.086 389.281 220.406 387.004 225.046 386.998C253.896 386.998 282.755 386.998 311.605 386.998C313.148 386.998 314.682 386.998 316.782 386.998V387.007ZM459.14 530.83C459.14 533.067 459.14 534.602 459.14 536.144C459.149 548.847 459.123 561.549 459.191 574.26C459.234 581.366 462.286 584.511 469.288 584.571C481.133 584.665 492.979 584.683 504.833 584.631C511.458 584.605 514.758 581.237 514.784 574.526C514.844 561.678 514.801 548.83 514.801 535.982C514.801 534.456 514.801 532.922 514.801 530.899C517.989 530.899 520.672 530.95 523.346 530.89C527.589 530.787 530.88 529.013 532.312 524.882C533.717 520.819 532.474 517.365 529.269 514.494C517.364 503.823 505.527 493.083 493.604 482.438C489.336 478.632 484.759 478.529 480.525 482.292C468.362 493.092 456.294 504.011 444.209 514.905C441.106 517.699 440.318 521.196 441.681 525.028C443.018 528.782 445.975 530.633 449.892 530.813C452.729 530.942 455.574 530.839 459.14 530.839V530.83ZM390.537 533.504C390.537 531.216 390.537 529.536 390.537 527.848C390.537 514.991 390.58 502.143 390.511 489.286C390.477 483.509 387.168 479.772 381.786 479.712C369.075 479.575 356.364 479.584 343.653 479.712C338.399 479.764 334.996 483.389 334.91 488.815C334.79 496.529 334.867 504.243 334.867 511.948C334.867 518.925 334.867 525.902 334.867 533.479C331.687 533.479 328.876 533.427 326.056 533.487C321.968 533.582 318.831 535.33 317.417 539.29C316.037 543.138 316.877 546.601 319.979 549.395C332.073 560.289 344.124 571.235 356.287 582.051C360.315 585.634 365.055 585.651 369.075 582.077C381.246 571.269 393.314 560.341 405.408 549.447C408.502 546.661 409.376 543.147 408.013 539.324C406.616 535.424 403.539 533.547 399.399 533.487C396.579 533.453 393.768 533.487 390.528 533.487L390.537 533.504Z" fill="#D8D7CB"/>
<path d="M523.125 442.137H326.641V185.047H468.904C468.09 195.821 467.301 206.312 466.495 216.803C466.11 221.783 465.613 226.762 465.304 231.742C464.876 238.831 468.75 242.876 475.881 242.396C489.415 241.496 502.923 240.339 516.448 239.293C518.548 239.131 520.648 238.993 523.108 238.822V442.129L523.125 442.137ZM400.841 402.367C417.546 402.367 434.251 402.376 450.965 402.35C452.37 402.35 454.119 402.513 455.096 401.793C456.424 400.816 457.916 399.05 457.942 397.611C457.967 396.162 456.544 394.285 455.224 393.351C454.11 392.562 452.225 392.725 450.682 392.725C417.409 392.699 384.144 392.699 350.871 392.725C349.457 392.725 347.614 392.391 346.723 393.119C345.257 394.319 343.586 396.248 343.551 397.911C343.517 399.299 345.471 401.082 346.963 402.05C347.991 402.719 349.731 402.367 351.154 402.367C367.722 402.385 384.281 402.376 400.849 402.376L400.841 402.367ZM400.669 267.895C417.092 267.895 433.514 267.895 449.936 267.895C455.893 267.895 458.276 266.447 458.156 262.881C458.036 259.521 455.816 258.244 449.996 258.244C417.014 258.244 384.024 258.244 351.043 258.253C349.757 258.253 348.077 257.85 347.28 258.493C345.703 259.761 343.706 261.578 343.603 263.284C343.517 264.707 345.668 266.55 347.22 267.69C348.068 268.315 349.705 267.895 350.991 267.895C367.559 267.895 384.119 267.895 400.686 267.895H400.669ZM400.978 291.972C383.844 291.972 366.711 291.869 349.586 292.1C347.571 292.126 344.683 293.454 343.757 295.066C341.777 298.503 344.794 301.485 349.894 301.485C383.733 301.503 417.563 301.477 451.402 301.511C454.882 301.511 457.83 300.937 458.122 296.754C458.336 293.591 456.013 291.98 451.522 291.98C434.68 291.963 417.829 291.98 400.986 291.98L400.978 291.972ZM400.412 335.076C417.117 335.076 433.822 335.076 450.528 335.076C451.667 335.076 453.15 335.461 453.879 334.896C455.499 333.644 457.822 331.921 457.847 330.362C457.873 328.802 455.619 327.002 454.033 325.699C453.33 325.125 451.83 325.502 450.69 325.502C417.426 325.502 384.153 325.493 350.888 325.493C349.885 325.493 348.883 325.442 347.888 325.536C345.086 325.81 343.354 327.319 343.329 330.207C343.294 333.07 344.897 334.707 347.734 334.999C349.011 335.127 350.305 335.067 351.583 335.067C367.859 335.067 384.136 335.067 400.412 335.067V335.076ZM400.412 368.666C416.972 368.666 433.531 368.666 450.082 368.666C451.505 368.666 453.279 369.069 454.273 368.392C455.833 367.329 457.71 365.58 457.89 363.96C458.044 362.58 456.236 360.618 454.822 359.546C453.87 358.826 452.079 359.126 450.665 359.126C417.409 359.109 384.153 359.109 350.888 359.118C349.603 359.118 347.897 358.706 347.134 359.358C345.591 360.678 343.68 362.563 343.594 364.295C343.534 365.657 345.806 367.414 347.383 368.469C348.283 369.077 349.877 368.674 351.163 368.674C367.576 368.674 383.99 368.674 400.404 368.674L400.412 368.666ZM382.807 224.611C371.836 224.611 360.857 224.628 349.885 224.603C346.44 224.594 343.346 225.211 343.354 229.471C343.354 233.739 346.5 234.339 349.92 234.339C371.725 234.339 393.53 234.322 415.343 234.356C418.857 234.356 421.703 233.491 422.011 229.437C422.243 226.411 419.654 224.628 415.309 224.62C404.475 224.594 393.641 224.62 382.816 224.62L382.807 224.611Z" fill="#D7D6CB"/>
<path d="M316.517 362.441V377.321C314.426 377.321 312.6 377.321 310.783 377.321C281.641 377.321 252.5 377.321 223.358 377.329C213.047 377.329 208.41 381.932 208.401 392.2C208.384 465.483 208.384 538.766 208.401 612.049C208.401 621.872 213.021 626.534 222.809 626.526C265.091 626.509 307.372 626.397 349.653 626.406C441.218 626.423 532.784 626.492 624.349 626.535C625.635 626.535 626.92 626.569 628.206 626.535C636.331 626.295 641.088 621.503 641.26 613.284C641.354 608.715 641.26 604.138 641.26 599.57C641.26 530.718 641.26 461.858 641.26 393.006C641.26 381.598 636.923 377.329 625.403 377.329C596.416 377.329 567.42 377.329 538.432 377.321C536.752 377.321 535.072 377.321 533.144 377.321V362.681C534.592 362.604 536.084 362.45 537.575 362.45C567.428 362.433 597.281 362.407 627.126 362.433C644.5 362.45 656.131 374.081 656.139 391.532C656.173 473.094 656.165 537.666 656.139 619.228C656.139 636.979 644.654 644.439 626.869 644.447C570.3 644.447 513.73 644.379 457.161 644.379C409.308 644.379 361.447 644.439 313.595 644.464C283.459 644.473 253.322 644.49 223.186 644.456C204.801 644.439 193.496 637.108 193.496 618.8C193.496 537.657 193.496 473.523 193.496 392.38C193.496 373.832 204.896 362.433 223.392 362.433C252.68 362.433 281.959 362.433 311.246 362.441C312.917 362.441 314.589 362.441 316.5 362.441H316.517Z" fill="#B2B2A0"/>
<path d="M478.119 191.207C491.061 204.338 503.412 216.878 515.994 229.648C502.658 230.703 489.235 231.766 474.947 232.897C476.002 219.003 477.03 205.452 478.119 191.207Z" fill="#D1D0C3"/>
<path d="M459.143 530.832C455.577 530.832 452.732 530.935 449.895 530.807C445.978 530.627 443.012 528.767 441.684 525.021C440.321 521.19 441.118 517.684 444.212 514.899C456.297 504.013 468.365 493.094 480.528 482.286C484.762 478.523 489.339 478.626 493.607 482.431C505.538 493.077 517.375 503.816 529.272 514.487C532.469 517.359 533.72 520.813 532.315 524.875C530.883 529.007 527.583 530.781 523.349 530.884C520.675 530.952 517.992 530.892 514.804 530.892C514.804 532.924 514.804 534.449 514.804 535.975C514.804 548.823 514.838 561.671 514.787 574.519C514.761 581.239 511.461 584.599 504.836 584.625C492.99 584.676 481.145 584.668 469.291 584.565C462.289 584.505 459.229 581.368 459.194 574.254C459.126 561.551 459.152 548.849 459.143 536.138C459.143 534.595 459.143 533.052 459.143 530.824V530.832ZM486.973 489.434C475.42 499.839 464.054 510.073 452.003 520.916C454.292 521.044 455.535 521.156 456.777 521.173C465.966 521.293 468.691 524.044 468.691 533.292C468.691 545.566 468.691 557.831 468.691 570.105C468.691 571.631 468.691 573.148 468.691 574.725H505.256C505.256 572.668 505.256 570.971 505.256 569.282C505.256 557.009 505.247 544.743 505.264 532.469C505.281 524.215 508.333 521.224 516.698 521.173C518.147 521.164 519.586 521.173 522.209 521.173C509.824 510.022 498.502 499.839 486.965 489.451L486.973 489.434Z" fill="#B2B2A0"/>
<path d="M390.539 533.504C393.77 533.504 396.59 533.469 399.41 533.504C403.55 533.564 406.635 535.441 408.024 539.341C409.387 543.163 408.512 546.678 405.418 549.463C393.324 560.357 381.256 571.285 369.085 582.093C365.065 585.668 360.317 585.65 356.297 582.068C344.135 571.242 332.084 560.306 319.99 549.412C316.887 546.618 316.047 543.155 317.427 539.306C318.85 535.347 321.978 533.598 326.067 533.504C328.878 533.435 331.698 533.495 334.878 533.495C334.878 525.918 334.878 518.941 334.878 511.965C334.878 504.251 334.801 496.537 334.921 488.831C335.007 483.406 338.409 479.789 343.663 479.729C356.374 479.6 369.085 479.591 381.796 479.729C387.188 479.789 390.487 483.526 390.522 489.303C390.59 502.159 390.547 515.007 390.547 527.864C390.547 529.544 390.547 531.232 390.547 533.521L390.539 533.504ZM362.717 574.851C374.434 564.317 385.782 554.1 398.039 543.078C395.382 543.078 394.113 543.078 392.844 543.078C383.725 543.035 380.991 540.249 380.991 530.967C380.991 519.267 381.016 507.576 381.033 495.877C381.033 493.785 381.033 491.702 381.033 489.568H344.426C344.426 491.514 344.426 493.057 344.426 494.608C344.426 506.736 344.426 518.856 344.426 530.984C344.426 540.292 341.726 543.043 332.555 543.103C331.227 543.112 329.907 543.258 327.73 543.395C339.738 554.194 351.052 564.368 362.717 574.859V574.851Z" fill="#B2B2A0"/>
<path d="M400.841 402.368C384.273 402.368 367.714 402.368 351.146 402.36C349.723 402.36 347.983 402.711 346.955 402.043C345.463 401.074 343.518 399.291 343.543 397.903C343.586 396.24 345.249 394.311 346.715 393.111C347.606 392.383 349.449 392.717 350.863 392.717C384.136 392.7 417.401 392.691 450.674 392.717C452.216 392.717 454.102 392.563 455.216 393.343C456.536 394.269 457.95 396.154 457.933 397.603C457.908 399.051 456.416 400.808 455.088 401.785C454.102 402.514 452.362 402.343 450.956 402.343C434.251 402.377 417.546 402.36 400.833 402.36L400.841 402.368Z" fill="#AAAA96"/>
<path d="M400.67 267.892C384.102 267.892 367.543 267.892 350.975 267.892C349.689 267.892 348.052 268.312 347.203 267.686C345.661 266.546 343.501 264.704 343.586 263.281C343.689 261.584 345.686 259.767 347.263 258.49C348.061 257.847 349.741 258.25 351.026 258.25C384.008 258.241 416.998 258.241 449.98 258.241C455.799 258.241 458.019 259.518 458.139 262.878C458.259 266.444 455.885 267.892 449.92 267.892C433.497 267.892 417.075 267.892 400.653 267.892H400.67Z" fill="#AAAA96"/>
<path d="M400.976 291.969C417.819 291.969 434.669 291.969 451.512 291.969C456.003 291.969 458.334 293.589 458.111 296.743C457.82 300.926 454.88 301.508 451.392 301.5C417.553 301.466 383.723 301.491 349.884 301.474C344.776 301.474 341.767 298.491 343.747 295.054C344.673 293.443 347.561 292.115 349.575 292.089C366.7 291.857 383.834 291.96 400.968 291.96L400.976 291.969Z" fill="#AAAA96"/>
<path d="M400.412 335.081C384.136 335.081 367.859 335.081 351.583 335.081C350.297 335.081 349.003 335.141 347.734 335.013C344.889 334.721 343.294 333.084 343.329 330.222C343.363 327.333 345.086 325.825 347.889 325.55C348.883 325.456 349.886 325.508 350.888 325.508C384.153 325.508 417.426 325.508 450.69 325.516C451.83 325.516 453.339 325.139 454.033 325.713C455.619 327.007 457.873 328.807 457.847 330.376C457.822 331.936 455.507 333.659 453.879 334.91C453.15 335.476 451.668 335.09 450.528 335.09C433.822 335.09 417.117 335.09 400.412 335.09V335.081Z" fill="#AAAA96"/>
<path d="M400.412 368.658C383.999 368.658 367.585 368.658 351.171 368.658C349.886 368.658 348.291 369.06 347.392 368.452C345.806 367.389 343.535 365.641 343.603 364.278C343.68 362.546 345.6 360.669 347.143 359.341C347.906 358.689 349.62 359.101 350.897 359.101C384.153 359.101 417.409 359.101 450.673 359.109C452.088 359.109 453.879 358.818 454.83 359.529C456.245 360.601 458.053 362.555 457.899 363.944C457.719 365.572 455.85 367.312 454.282 368.375C453.288 369.052 451.513 368.649 450.091 368.649C433.531 368.658 416.972 368.649 400.421 368.649L400.412 368.658Z" fill="#AAAA96"/>
<path d="M382.807 224.611C393.641 224.611 404.475 224.594 415.3 224.611C419.637 224.62 422.226 226.402 422.003 229.428C421.694 233.482 418.849 234.356 415.334 234.348C393.53 234.313 371.725 234.322 349.911 234.331C346.491 234.331 343.354 233.731 343.346 229.462C343.346 225.202 346.431 224.585 349.877 224.594C360.848 224.62 371.828 224.602 382.799 224.594L382.807 224.611Z" fill="#AAAA96"/>
<path d="M486.973 489.431C498.51 499.819 509.832 510.002 522.218 521.153C519.595 521.153 518.155 521.153 516.706 521.153C508.341 521.204 505.29 524.196 505.273 532.45C505.247 544.723 505.264 556.989 505.264 569.263C505.264 570.96 505.264 572.648 505.264 574.705H468.7C468.7 573.128 468.7 571.611 468.7 570.085C468.7 557.812 468.7 545.546 468.7 533.272C468.7 524.033 465.974 521.281 456.786 521.153C455.543 521.136 454.3 521.024 452.012 520.896C464.054 510.053 475.419 499.819 486.982 489.414L486.973 489.431Z" fill="#D8D7CB"/>
<path d="M362.718 574.85C351.052 564.359 339.739 554.185 327.73 543.385C329.908 543.248 331.227 543.111 332.556 543.094C341.719 543.025 344.418 540.282 344.427 530.974C344.427 518.846 344.427 506.727 344.427 494.598C344.427 493.047 344.427 491.504 344.427 489.559H381.034C381.034 491.693 381.034 493.776 381.034 495.867C381.017 507.566 380.991 519.257 380.991 530.957C380.991 540.248 383.726 543.025 392.845 543.068C394.114 543.068 395.382 543.068 398.039 543.068C385.783 554.091 374.434 564.307 362.718 574.841V574.85Z" fill="#D8D7CB"/>
</svg>
