<?xml version="1.0" encoding="UTF-8"?>
<svg id="Layer_2" data-name="Layer 2" xmlns="http://www.w3.org/2000/svg" viewBox="0 0 850 850">
  <defs>
    <style>
      .consolidation_cls-1 {
        fill: #26261A;
      }

      .consolidation_cls-2 {
        fill: #A9A78E;
      }

      .consolidation_cls-3 {
        fill: #BCBBA7;
      }

      .consolidation_cls-4 {
        fill: #E3E1CE;
      }

      .consolidation_cls-5 {
        fill: #98957C;
      }

      .consolidation_cls-6 {
        fill: #D4D1B6;
      }
    </style>
  </defs>
  <g id="Layer_1-2" data-name="Layer 1">
    <g>
      <rect class="consolidation_cls-1" style="fill:#26261A !important;" width="850" height="850" rx="72.61" ry="72.61"/>
      <g>
        <path class="consolidation_cls-4" style="fill:#E3E1CE !important;" d="m577.85,636.87h-305.71c-8.98,0-16.26-7.28-16.26-16.26V229.4c0-8.98,7.28-16.26,16.26-16.26h305.71c8.98,0,16.26,7.28,16.26,16.26v391.21c0,8.98-7.28,16.26-16.26,16.26Z"/>
        <path class="consolidation_cls-6" style="fill:#D4D1B6 !important;" d="m577.85,213.13h-24.87c8.98,0,16.26,7.28,16.26,16.26v391.21c0,8.98-7.28,16.26-16.26,16.26h24.87c8.98,0,16.26-7.28,16.26-16.26V229.4c0-8.98-7.28-16.26-16.26-16.26h0Z"/>
        <path class="consolidation_cls-3" style="fill:#BCBBA7 !important;" d="m536.5,572.63h-134.49c-5.44,0-9.84-4.41-9.84-9.84v-33.25c0-5.44,4.41-9.84,9.84-9.84h134.49c5.44,0,9.84,4.41,9.84,9.84v33.25c0,5.44-4.41,9.84-9.84,9.84Z"/>
        <path class="consolidation_cls-5" style="fill:#98957C !important;" d="m536.5,519.69h-24.87c5.44,0,9.84,4.41,9.84,9.84v33.25c0,5.44-4.41,9.84-9.84,9.84h24.87c5.44,0,9.84-4.41,9.84-9.84v-33.25c0-5.44-4.41-9.84-9.84-9.84Z"/>
        <path class="consolidation_cls-5" style="fill:#98957C !important;" d="m538.74,281.57h-56.31c-4.2,0-7.61-3.41-7.61-7.61s3.41-7.61,7.61-7.61h56.31c4.2,0,7.61,3.41,7.61,7.61s-3.41,7.61-7.61,7.61Z"/>
        <g>
          <path class="consolidation_cls-2" style="fill:#A9A78E !important;" d="m538.74,434.72h-229.91c-4.2,0-7.61-3.41-7.61-7.61s3.41-7.61,7.61-7.61h229.91c4.2,0,7.61,3.41,7.61,7.61s-3.41,7.61-7.61,7.61Z"/>
          <path class="consolidation_cls-2" style="fill:#A9A78E !important;" d="m538.74,471.81h-229.91c-4.2,0-7.61-3.41-7.61-7.61s3.41-7.61,7.61-7.61h229.91c4.2,0,7.61,3.41,7.61,7.61s-3.41,7.61-7.61,7.61Z"/>
        </g>
        <g>
          <path class="consolidation_cls-2" style="fill:#A9A78E !important;" d="m539.95,358.98h-229.91c-4.2,0-7.61-3.41-7.61-7.61s3.41-7.61,7.61-7.61h229.91c4.2,0,7.61,3.41,7.61,7.61s-3.41,7.61-7.61,7.61Z"/>
          <path class="consolidation_cls-2" style="fill:#A9A78E !important;" d="m539.95,396.07h-229.91c-4.2,0-7.61-3.41-7.61-7.61s3.41-7.61,7.61-7.61h229.91c4.2,0,7.61,3.41,7.61,7.61s-3.41,7.61-7.61,7.61Z"/>
        </g>
      </g>
    </g>
  </g>
</svg>