<svg width="37" height="36" viewBox="0 0 37 36" fill="none" xmlns="http://www.w3.org/2000/svg">
<path d="M1.12207 0C0.569786 0 0.12207 0.447715 0.12207 1V35C0.12207 35.5523 0.569786 36 1.12207 36H14.3323C14.5583 36 14.7776 35.9235 14.9545 35.7829L17.4999 33.7599C17.8642 33.4704 18.38 33.4704 18.7443 33.7599L21.2896 35.7829C21.4665 35.9235 21.6859 36 21.9118 36H35.1221C35.6744 36 36.1221 35.5523 36.1221 35V1C36.1221 0.447716 35.6744 0 35.1221 0H1.12207ZM18.1255 31.0708C18.1233 31.0708 18.121 31.0703 18.1189 31.0693L8.70219 26.674C8.35016 26.5096 8.12515 26.1563 8.12515 25.7678V11.4954C8.12515 10.9431 8.57286 10.4954 9.12515 10.4954H27.061C27.6116 10.4954 28.0586 10.9405 28.061 11.491L28.1231 25.7647C28.1248 26.1548 27.8996 26.5103 27.5461 26.6753L18.1321 31.0693C18.1301 31.0703 18.1278 31.0708 18.1255 31.0708V31.0708Z" fill="#151E4E"/>
</svg>