<?xml version="1.0" encoding="UTF-8"?>
<svg id="Layer_2" data-name="Layer 2" xmlns="http://www.w3.org/2000/svg" viewBox="0 0 850 850">
  <defs>
    <style>
      .social_marketing_cls-1 {
        fill: #26261A;
      }

      .social_marketing_cls-2 {
        fill: #BCBBA7;
      }

      .social_marketing_cls-3 {
        fill: #969686;
      }
    </style>
  </defs>
  <g id="Layer_1-2" data-name="Layer 1">
    <g>
      <rect class="social_marketing_cls-1" style="fill:#26261A !important;" width="850" height="850" rx="72.61" ry="72.61"/>
      <g>
        <path class="social_marketing_cls-2" style="fill:#BCBBA7 !important;" d="m641.43,366.53c0,36.6-13.64,70.12-42.93,105.46-26.21,31.62-63.86,63.71-107.47,100.87-14.9,12.69-31.79,27.09-49.31,42.42-4.59,4.02-10.47,6.25-16.58,6.28h-.15c-6.16,0-12.1-2.23-16.73-6.29-17.49-15.29-34.35-29.67-49.22-42.35l-.08-.06c-43.6-37.16-81.27-69.26-107.47-100.88-29.29-35.33-42.93-68.85-42.93-105.46s12.2-68.38,34.34-92.4c22.41-24.31,53.16-37.69,86.59-37.69,24.99,0,47.87,7.89,68.02,23.47,10.17,7.87,19.38,17.48,27.49,28.72l.15-.2c8.08-11.15,17.24-20.7,27.35-28.51,20.14-15.58,43.03-23.47,68.01-23.47,33.43,0,64.18,13.38,86.59,37.69,22.14,24.02,34.34,56.83,34.34,92.4Z"/>
        <path class="social_marketing_cls-3" style="fill:#969686 !important;" d="m648.89,362.14c0,36.6-13.64,70.12-42.93,105.46-26.21,31.62-63.86,63.71-107.47,100.87-14.9,12.69-31.79,27.09-49.31,42.42-4.59,4.02-10.47,6.25-16.58,6.28v-333.13c8.08-11.15,17.24-20.7,27.35-28.51,20.14-15.58,43.03-23.47,68.01-23.47,33.43,0,64.18,13.38,86.59,37.69,22.14,24.02,34.34,56.83,34.34,92.4Z"/>
      </g>
    </g>
  </g>
</svg>