<?xml version="1.0" encoding="UTF-8"?>
<svg id="Layer_2" data-name="Layer 2" xmlns="http://www.w3.org/2000/svg" viewBox="0 0 850 850">
  <defs>
    <style>
      .cls-1 {
        fill: #fff;
      }

      .cls-2 {
        fill: #bbc14d;
      }

      .cls-3 {
        fill: #9ea700;
      }

      .cls-4 {
        fill: #ecedb4;
      }

      .cls-5 {
        fill: #868e00;
      }

      .cls-6 {
        fill: #cfd380;
      }
    </style>
  </defs>
  <g id="Layer_1-2" data-name="Layer 1">
    <g>
      <rect class="cls-1" width="850" height="850" rx="72.61" ry="72.61"/>
      <g>
        <path class="cls-3" d="m589.17,608.66h-72.64l-91.53-30.54-91.53,30.54h-72.64c-3.14,0-6.15-1.37-8.14-3.81-31.34-38.36,3.91-90.14,1.87-143.52-2.01-52.73,45.2-218.17,167.04-219.99,124.4-1.86,225.84,98.55,225.84,222.67,0,53.41-18.79,102.47-50.13,140.83-1.99,2.44-5,3.81-8.14,3.81h0Z"/>
        <path class="cls-5" d="m268.64,464.03c0,53.4,18.79,102.46,50.14,140.83,1.98,2.43,5,3.81,8.14,3.81h-66.08c-3.15,0-6.16-1.38-8.14-3.81-31.35-38.37-50.14-87.43-50.14-140.83,0-122.01,97.18-220.88,219.03-222.67,12.4-.18,24.55.63,36.39,2.41-107.57,15.91-189.35,108.33-189.35,220.27Z"/>
        <path class="cls-6" d="m516.53,608.68v-60.31c0-25.3-10.26-48.21-26.8-64.78-16.57-16.59-39.43-26.86-64.73-26.86-50.56,0-49.67,71.16-49.84,95.26l-41.69,56.69h183.06Z"/>
        <path class="cls-2" d="m458.04,462.87c-34.23,13.28-58.49,46.57-58.49,85.5v60.31h-66.08v-60.31c0-50.59,40.97-91.64,91.53-91.64,11.66,0,22.78,2.17,33.04,6.14h0Z"/>
        <ellipse class="cls-4" cx="425" cy="399.74" rx="61.53" ry="61.6"/>
      </g>
    </g>
  </g>
</svg>