<?xml version="1.0" encoding="UTF-8"?>
<svg id="Layer_2" data-name="Layer 2" xmlns="http://www.w3.org/2000/svg" viewBox="0 0 116.36 24.83">
  <defs>
    <style>
      .cls-1 {
        fill: #9ea700;
      }
    </style>
  </defs>
  <g id="Google_Cloud_logo" data-name="Google Cloud logo">
    <g>
      <path class="cls-1" d="m7.3,17.45c-2.23,0-3.96-1.69-3.96-4.27s1.73-4.27,3.94-4.27c1.78,0,3.04,1.08,3.49,2.69l2.99-1.19c-.63-2.16-2.94-4.48-6.54-4.48C3.05,5.93,0,9.09,0,13.21s3.1,7.23,7.22,7.23c3.67,0,5.98-2.32,6.61-4.43l-2.99-1.21c-.44,1.58-1.76,2.66-3.54,2.66h0Z"/>
      <path class="cls-1" d="m46.59,5.89c-4.33,0-7.38,3.11-7.38,7.28s3.07,7.25,7.38,7.25,7.38-3.09,7.38-7.25-3.05-7.28-7.38-7.28Zm4.01,7.25c0,2.51-1.57,4.3-3.99,4.3s-4.07-1.77-4.07-4.27,1.68-4.27,4.07-4.27,3.99,1.77,3.99,4.25h0Z"/>
      <polygon class="cls-1" points="20.89 15.99 19.94 15.99 16.83 6.21 13.39 6.21 18.27 20.11 19.32 20.11 17.43 24.83 20.71 24.83 22.5 20.11 27.77 6.21 24.31 6.21 20.89 15.99"/>
      <polygon class="cls-1" points="28.64 20.11 31.97 20.11 31.97 .83 28.64 3.14 28.64 20.11"/>
      <polygon class="cls-1" points="34.28 20.11 37.61 20.11 37.61 .83 34.28 3.14 34.28 20.11"/>
    </g>
    <g>
      <path class="cls-1" d="m65.04,6.02c3.58,0,5.87,2.31,6.5,4.46l-2.97,1.18c-.45-1.6-1.69-2.68-3.47-2.68-2.19,0-3.89,1.68-3.89,4.25s1.7,4.24,3.93,4.24c1.77,0,3.08-1.08,3.51-2.65l2.97,1.2c-.63,2.1-2.92,4.41-6.56,4.41-4.1-.01-7.18-3.09-7.18-7.18s3.02-7.24,7.16-7.24Z"/>
      <path class="cls-1" d="m74.03,6.38h3.81v2.63c.92-1.91,2.32-2.83,4.43-2.83v3.54c-2.49,0-4.43.67-4.43,3.51v6.88h-3.81V6.38Z"/>
      <path class="cls-1" d="m91.93,18.45c-.97,1.45-2.41,1.95-4.05,1.95-2.67,0-4.66-1.33-4.66-4.07,0-3.49,3.26-4.42,6.22-4.42h2.46c0-1.85-.18-3.09-2.33-3.09-1.19,0-2.4.54-2.81,1.77l-2.91-1.27c.9-2.47,3.68-3.26,6.15-3.26,3.32,0,5.65,1.42,5.65,5.1v8.95h-3.72v-1.65Zm-1.5-4.31c-1.36,0-3.5.1-3.5,1.95,0,1.22.92,1.65,2.01,1.65,1.49,0,2.95-.77,2.95-2.45v-1.15h-1.46Z"/>
      <path class="cls-1" d="m99.57,9.09h-1.81v-2.7h1.81v-1.58c0-3.22,1.77-4.8,4.91-4.8.77,0,1.5.19,2.2.5l-1.08,2.5c-.19-.09-.36-.1-.53-.1-1.67,0-1.73,1.27-1.73,2.56v.92h3v2.7h-3v11.02h-3.78v-11.02Z"/>
      <path class="cls-1" d="m116.36,20c-.73.24-1.51.36-2.36.36-2.87,0-4.4-1.36-4.4-4.32v-6.96h-1.76v-2.7h1.76v-2.99l3.78-1.64v4.63h2.88v2.7h-2.88v6.61c0,1.02.46,1.63,1.64,1.63.4,0,.88-.06,1.33-.27v2.95Z"/>
    </g>
  </g>
</svg>