<?xml version="1.0" encoding="UTF-8"?>
<svg xmlns="http://www.w3.org/2000/svg" xmlns:xlink="http://www.w3.org/1999/xlink" width="64px" height="64px" viewBox="0 0 64 64" version="1.1">
<g id="surface1">
<path style=" stroke:none;fill-rule:evenodd;fill:rgb(91.372549%,85.490196%,83.921569%);fill-opacity:1;" d="M 33.125 6.023438 C 30.761719 6.597656 27.089844 8.355469 24.933594 9.945312 L 23.390625 11.078125 L 24.964844 12.523438 L 26.535156 13.96875 L 27.585938 13.167969 C 29.070312 12.035156 32.089844 10.59375 33.996094 10.105469 C 36.257812 9.527344 40.253906 9.523438 41.875 10.09375 C 43.191406 10.558594 45.648438 11.878906 45.871094 12.246094 C 45.945312 12.367188 46.589844 11.847656 47.300781 11.09375 L 48.59375 9.726562 L 47.859375 9.003906 C 46.738281 7.894531 44.316406 6.539062 42.476562 5.992188 C 40.238281 5.328125 35.925781 5.339844 33.125 6.023438 M 44.519531 33.363281 C 42.71875 33.816406 42.382812 33.984375 42.21875 34.507812 C 42.117188 34.847656 41.851562 37.09375 41.632812 39.5 C 41.414062 41.90625 41.023438 45.730469 40.765625 48 C 40.507812 50.269531 40.339844 52.171875 40.394531 52.226562 C 40.445312 52.28125 41.460938 51.949219 42.648438 51.492188 C 44.441406 50.796875 44.859375 50.53125 45.148438 49.890625 C 45.445312 49.238281 47.25 35.257812 47.25 33.621094 C 47.25 32.804688 46.875 32.769531 44.519531 33.363281 M 48.695312 34.5625 C 48.308594 34.867188 48.117188 36.0625 47.238281 43.625 C 47.09375 44.863281 46.914062 46.199219 46.835938 46.59375 L 46.695312 47.308594 L 47.464844 46.855469 C 47.886719 46.605469 48.300781 46.230469 48.378906 46.023438 C 48.460938 45.8125 48.796875 43.5 49.132812 40.882812 C 49.464844 38.265625 49.796875 35.703125 49.871094 35.1875 C 49.984375 34.398438 49.933594 34.25 49.550781 34.25 C 49.300781 34.25 48.914062 34.390625 48.695312 34.5625 M 23.289062 38.765625 C 20.445312 39.535156 19.820312 39.933594 19.636719 41.097656 C 19.507812 41.933594 18.742188 57.6875 18.746094 59.410156 C 18.75 60.144531 18.871094 60.492188 19.164062 60.605469 C 19.402344 60.695312 20.84375 60.261719 22.519531 59.597656 L 25.460938 58.429688 L 25.617188 56.277344 C 25.699219 55.09375 25.871094 53 26 51.625 C 26.125 50.25 26.347656 46.988281 26.496094 44.375 C 26.640625 41.761719 26.808594 39.257812 26.863281 38.8125 C 26.992188 37.800781 26.847656 37.800781 23.289062 38.765625 M 16.25 43.363281 C 15.148438 43.644531 15.121094 43.671875 14.941406 44.886719 C 14.839844 45.566406 14.664062 48.882812 14.550781 52.25 C 14.320312 59.203125 14.328125 59.253906 15.929688 58.859375 L 16.875 58.625 L 17.058594 56 C 17.339844 51.933594 17.640625 43.207031 17.5 43.140625 C 17.429688 43.105469 16.867188 43.207031 16.25 43.363281 "/>
<path style=" stroke:none;fill-rule:evenodd;fill:rgb(36.470588%,36.470588%,54.901961%);fill-opacity:1;" d="M 35.625 3.417969 C 31.769531 4.25 30.257812 4.710938 28.277344 5.644531 C 25.566406 6.921875 22.511719 9.035156 20.105469 11.292969 C 18.445312 12.855469 14.5 17.570312 14.5 17.996094 C 14.5 18.117188 14.339844 18.375 14.140625 18.574219 C 13.710938 19.003906 11.402344 23.363281 11.132812 24.25 C 11.027344 24.59375 10.800781 25.210938 10.625 25.625 C 9.070312 29.253906 8.558594 33.332031 8.414062 43.238281 C 8.308594 50.332031 8.347656 51.714844 8.664062 52.324219 C 9.101562 53.167969 10.796875 54.003906 11.84375 53.890625 L 12.5625 53.8125 L 12.441406 56.46875 C 12.304688 59.542969 12.5 60.335938 13.507812 60.753906 C 14.097656 60.996094 14.449219 60.980469 15.410156 60.652344 C 16.867188 60.15625 16.75 60.140625 16.75 60.832031 C 16.75 61.679688 17.742188 62.5 18.773438 62.5 C 19.6875 62.5 24.648438 60.527344 25.816406 59.699219 C 27.277344 58.664062 27.261719 58.761719 28.113281 46.007812 C 28.488281 40.441406 28.621094 36.980469 28.480469 36.710938 C 28.066406 35.941406 27.28125 35.949219 23.882812 36.75 C 20.808594 37.46875 20.429688 37.621094 19.355469 38.570312 C 18.710938 39.136719 18.03125 39.960938 17.851562 40.398438 C 17.589844 41.015625 17.316406 41.226562 16.617188 41.359375 C 16.121094 41.453125 15.550781 41.59375 15.347656 41.667969 C 15.054688 41.78125 15.011719 41.621094 15.125 40.84375 C 15.203125 40.308594 15.367188 37.851562 15.492188 35.375 C 15.679688 31.695312 15.839844 30.46875 16.378906 28.636719 C 17.683594 24.222656 20.289062 19.710938 23.375 16.527344 L 24.679688 15.179688 L 25.214844 15.714844 C 25.964844 16.464844 26.324219 16.394531 27.949219 15.195312 C 32.195312 12.058594 37.496094 10.796875 41.28125 12.023438 C 43.003906 12.582031 44.722656 13.488281 45.238281 14.109375 C 45.683594 14.648438 45.929688 14.601562 46.621094 13.855469 L 47.21875 13.210938 L 48.011719 14.292969 C 50.65625 17.898438 51.472656 22.65625 50.546875 29.082031 C 50.273438 30.980469 50.007812 32.566406 49.960938 32.609375 C 49.914062 32.648438 49.578125 32.75 49.214844 32.839844 C 48.65625 32.972656 48.527344 32.898438 48.394531 32.363281 C 48.128906 31.3125 47.320312 31.128906 45.085938 31.621094 C 42.410156 32.210938 41.597656 32.585938 41.160156 33.433594 C 40.933594 33.867188 40.621094 35.894531 40.378906 38.515625 C 40.152344 40.914062 39.753906 44.886719 39.484375 47.34375 C 38.890625 52.824219 38.875 53.71875 39.382812 53.914062 C 39.808594 54.074219 41.308594 53.570312 43.652344 52.472656 C 45.222656 51.738281 46.289062 50.546875 46.648438 49.125 C 46.742188 48.746094 47.097656 48.332031 47.46875 48.167969 C 48.949219 47.507812 49.625 46.226562 49.964844 43.429688 C 50.207031 41.460938 50.3125 41.164062 50.972656 40.609375 C 51.875 39.851562 53 37.664062 53 36.667969 C 53 36.265625 53.160156 34.910156 53.355469 33.65625 C 54.367188 27.113281 54.585938 25.109375 54.589844 22.25 C 54.59375 18.269531 54.082031 15.945312 52.449219 12.523438 C 51.398438 10.332031 50.902344 9.621094 49.269531 7.988281 C 47.734375 6.457031 46.898438 5.847656 45.230469 5.058594 C 42.234375 3.644531 37.953125 2.914062 35.625 3.417969 M 33.125 6.023438 C 30.761719 6.597656 27.089844 8.355469 24.933594 9.945312 L 23.390625 11.078125 L 24.964844 12.523438 L 26.535156 13.96875 L 27.585938 13.167969 C 29.070312 12.035156 32.089844 10.59375 33.996094 10.105469 C 36.257812 9.527344 40.253906 9.523438 41.875 10.09375 C 43.191406 10.558594 45.648438 11.878906 45.871094 12.246094 C 45.945312 12.367188 46.589844 11.847656 47.300781 11.09375 L 48.59375 9.726562 L 47.859375 9.003906 C 46.738281 7.894531 44.316406 6.539062 42.476562 5.992188 C 40.238281 5.328125 35.925781 5.339844 33.125 6.023438 M 48.910156 11.460938 C 48.519531 11.894531 48.558594 12.015625 49.589844 13.585938 C 52.046875 17.328125 52.769531 22.082031 51.890625 28.707031 C 51.660156 30.449219 51.304688 33.113281 51.109375 34.625 C 50.910156 36.136719 50.6875 37.824219 50.613281 38.375 L 50.476562 39.375 L 50.996094 38.863281 C 51.523438 38.339844 51.621094 37.8125 52.859375 28.75 C 53.636719 23.085938 53.242188 18.003906 51.765625 14.625 C 51.128906 13.167969 49.78125 11 49.511719 11 C 49.410156 11 49.140625 11.207031 48.910156 11.460938 M 20.339844 14.0625 C 17.308594 17.292969 15.441406 20.261719 13.234375 25.375 C 12.691406 26.632812 12.007812 28.890625 11.851562 29.957031 C 11.757812 30.597656 11.574219 31.40625 11.441406 31.75 C 11.136719 32.546875 10.746094 50.195312 11.019531 50.914062 C 11.214844 51.4375 12.148438 51.933594 12.417969 51.664062 C 12.492188 51.589844 12.652344 47.617188 12.773438 42.828125 C 13.019531 33.253906 13.324219 30.527344 14.550781 27 C 15.953125 22.972656 18.125 19.363281 21.414062 15.589844 L 22.96875 13.808594 L 22.40625 13.277344 C 22.097656 12.988281 21.78125 12.75 21.707031 12.75 C 21.632812 12.75 21.019531 13.339844 20.339844 14.0625 M 44.519531 33.363281 C 42.71875 33.816406 42.382812 33.984375 42.21875 34.507812 C 42.117188 34.847656 41.851562 37.09375 41.632812 39.5 C 41.414062 41.90625 41.023438 45.730469 40.765625 48 C 40.507812 50.269531 40.339844 52.171875 40.394531 52.226562 C 40.445312 52.28125 41.460938 51.949219 42.648438 51.492188 C 44.441406 50.796875 44.859375 50.53125 45.148438 49.890625 C 45.445312 49.238281 47.25 35.257812 47.25 33.621094 C 47.25 32.804688 46.875 32.769531 44.519531 33.363281 M 48.695312 34.5625 C 48.308594 34.867188 48.117188 36.0625 47.238281 43.625 C 47.09375 44.863281 46.914062 46.199219 46.835938 46.59375 L 46.695312 47.308594 L 47.464844 46.855469 C 47.886719 46.605469 48.300781 46.230469 48.378906 46.023438 C 48.460938 45.8125 48.796875 43.5 49.132812 40.882812 C 49.464844 38.265625 49.796875 35.703125 49.871094 35.1875 C 49.984375 34.398438 49.933594 34.25 49.550781 34.25 C 49.300781 34.25 48.914062 34.390625 48.695312 34.5625 M 23.289062 38.765625 C 20.445312 39.535156 19.820312 39.933594 19.636719 41.097656 C 19.507812 41.933594 18.742188 57.6875 18.746094 59.410156 C 18.75 60.144531 18.871094 60.492188 19.164062 60.605469 C 19.402344 60.695312 20.84375 60.261719 22.519531 59.597656 L 25.460938 58.429688 L 25.617188 56.277344 C 25.699219 55.09375 25.871094 53 26 51.625 C 26.125 50.25 26.347656 46.988281 26.496094 44.375 C 26.640625 41.761719 26.808594 39.257812 26.863281 38.8125 C 26.992188 37.800781 26.847656 37.800781 23.289062 38.765625 M 16.25 43.363281 C 15.148438 43.644531 15.121094 43.671875 14.941406 44.886719 C 14.839844 45.566406 14.664062 48.882812 14.550781 52.25 C 14.320312 59.203125 14.328125 59.253906 15.929688 58.859375 L 16.875 58.625 L 17.058594 56 C 17.339844 51.933594 17.640625 43.207031 17.5 43.140625 C 17.429688 43.105469 16.867188 43.207031 16.25 43.363281 "/>
</g>
</svg>
