<?xml version="1.0" encoding="UTF-8"?>
<svg id="Layer_2" data-name="Layer 2" xmlns="http://www.w3.org/2000/svg" viewBox="0 0 850 850">
  <defs>
    <style>
      .cls-1 {
        fill: #fff;
      }

      .cls-2 {
        fill: #9ea700;
      }

      .cls-3 {
        fill: #adb426;
      }

      .cls-4 {
        fill: #b1b933;
      }

      .cls-5 {
        fill: #d8dc99;
      }

      .cls-6 {
        fill: #868e00;
      }

      .cls-7 {
        fill: #c2c68a;
      }
    </style>
  </defs>
  <g id="Layer_1-2" data-name="Layer 1">
    <g>
      <rect class="cls-1" width="850" height="850" rx="72.61" ry="72.61"/>
      <g>
        <g>
          <path class="cls-3" d="m585.49,622.89H214.8c-22.9,0-41.82-18.51-41.82-41.82v-256.63c0-7.35,5.96-13.31,13.31-13.31h427.71c7.35,0,13.31,5.96,13.31,13.31v256.63c0,22.9-18.51,41.82-41.82,41.82Z"/>
          <path class="cls-6" d="m627.31,581.07v-256.63c0-7.35-5.96-13.31-13.31-13.31h-213.86v311.76h185.34c23.32,0,41.82-18.92,41.82-41.82Z"/>
          <path class="cls-5" d="m400.15,488.85c-8.08,0-16.15-2.35-23.2-7.05l-186.17-124.12c-11.14-7.42-17.79-19.85-17.79-33.23,0-23.08,18.76-41.83,41.81-41.83h370.71c23.05,0,41.81,18.76,41.81,41.81,0,13.41-6.65,25.83-17.79,33.25l-186.17,124.12c-7.05,4.7-15.13,7.05-23.2,7.05h0Z"/>
          <path class="cls-2" d="m609.52,357.68c11.14-7.42,17.79-19.85,17.79-33.25,0-23.05-18.76-41.81-41.81-41.81h-185.36v206.23c8.08,0,16.16-2.35,23.2-7.05l186.17-124.12Z"/>
        </g>
        <g>
          <path class="cls-5" d="m677.02,246.07c0-12.68-10.28-22.96-22.96-22.96h-121.05c-12.68,0-22.96,10.28-22.96,22.96v154.45c0,12.68,10.28,22.96,22.96,22.96h121.05c12.68,0,22.96-10.28,22.96-22.96v-154.45Z"/>
          <path class="cls-7" d="m593.54,223.11h-60.53c-12.68,0-22.96,10.28-22.96,22.96v154.45c0,12.68,10.28,22.96,22.96,22.96h60.53v-200.37Z"/>
          <g>
            <path class="cls-4" d="m645.71,381.73c-3.46,0-6.26-2.81-6.26-6.26v-37.57c0-3.46,2.81-6.26,6.26-6.26s6.26,2.81,6.26,6.26v37.57c0,3.46-2.81,6.26-6.26,6.26Z"/>
            <path class="cls-4" d="m610.23,381.73h-8.35c-8.06,0-14.61-6.55-14.61-14.61v-20.87c0-8.06,6.55-14.61,14.61-14.61h8.35c8.06,0,14.61,6.55,14.61,14.61v20.87c0,8.06-6.55,14.61-14.61,14.61Zm-8.35-37.57c-1.15,0-2.09.94-2.09,2.09v20.87c0,1.15.94,2.09,2.09,2.09h8.35c1.15,0,2.09-.94,2.09-2.09v-20.87c0-1.15-.94-2.09-2.09-2.09h-8.35Z"/>
            <path class="cls-4" d="m558.05,381.73h-8.35c-8.06,0-14.61-6.55-14.61-14.61v-20.87c0-8.06,6.55-14.61,14.61-14.61h8.35c8.06,0,14.61,6.55,14.61,14.61v20.87c0,8.06-6.55,14.61-14.61,14.61Zm-8.35-37.57c-1.15,0-2.09.94-2.09,2.09v20.87c0,1.15.94,2.09,2.09,2.09h8.35c1.15,0,2.09-.94,2.09-2.09v-20.87c0-1.15-.94-2.09-2.09-2.09h-8.35Z"/>
          </g>
          <path class="cls-2" d="m651.98,356.69h-12.52v18.78c0,3.46,2.81,6.26,6.26,6.26s6.26-2.81,6.26-6.26v-18.78Z"/>
          <path class="cls-2" d="m624.84,356.69h-12.52v10.44c0,1.15-.94,2.09-2.09,2.09h-8.35c-1.15,0-2.09-.94-2.09-2.09v-10.44h-12.52v10.44c0,8.06,6.55,14.61,14.61,14.61h8.35c8.06,0,14.61-6.55,14.61-14.61v-10.44Z"/>
          <path class="cls-2" d="m572.66,356.69h-12.52v10.44c0,1.15-.94,2.09-2.09,2.09h-8.35c-1.15,0-2.09-.94-2.09-2.09v-10.44h-12.52v10.44c0,8.06,6.55,14.61,14.61,14.61h8.35c8.06,0,14.61-6.55,14.61-14.61v-10.44Z"/>
          <path class="cls-4" d="m541.36,314.94c-3.46,0-6.26-2.81-6.26-6.26v-37.57c0-3.46,2.81-6.26,6.26-6.26s6.26,2.81,6.26,6.26v37.57c0,3.46-2.81,6.26-6.26,6.26Z"/>
          <path class="cls-4" d="m585.19,314.94h-8.35c-8.06,0-14.61-6.55-14.61-14.61v-20.87c0-8.06,6.55-14.61,14.61-14.61h8.35c8.06,0,14.61,6.55,14.61,14.61v20.87c0,8.06-6.55,14.61-14.61,14.61Zm-8.35-37.57c-1.15,0-2.09.94-2.09,2.09v20.87c0,1.15.94,2.09,2.09,2.09h8.35c1.15,0,2.09-.94,2.09-2.09v-20.87c0-1.15-.94-2.09-2.09-2.09h-8.35Z"/>
          <path class="cls-4" d="m637.37,314.94h-8.35c-8.06,0-14.61-6.55-14.61-14.61v-20.87c0-8.06,6.55-14.61,14.61-14.61h8.35c8.06,0,14.61,6.55,14.61,14.61v20.87c0,8.06-6.55,14.61-14.61,14.61Zm-8.35-37.57c-1.15,0-2.09.94-2.09,2.09v20.87c0,1.15.94,2.09,2.09,2.09h8.35c1.15,0,2.09-.94,2.09-2.09v-20.87c0-1.15-.94-2.09-2.09-2.09h-8.35Z"/>
          <path class="cls-2" d="m547.62,289.56h-12.52v19.12c0,3.46,2.81,6.26,6.26,6.26s6.26-2.81,6.26-6.26v-19.12Z"/>
          <path class="cls-2" d="m599.8,289.56h-12.52v10.77c0,1.15-.94,2.09-2.09,2.09h-8.35c-1.15,0-2.09-.94-2.09-2.09v-10.77h-12.52v10.77c0,8.06,6.55,14.61,14.61,14.61h8.35c8.06,0,14.61-6.55,14.61-14.61v-10.77Z"/>
          <path class="cls-2" d="m651.98,289.56h-12.52v10.77c0,1.15-.94,2.09-2.09,2.09h-8.35c-1.15,0-2.09-.94-2.09-2.09v-10.77h-12.52v10.77c0,8.06,6.55,14.61,14.61,14.61h8.35c8.06,0,14.61-6.55,14.61-14.61v-10.77Z"/>
        </g>
      </g>
    </g>
  </g>
</svg>